G04 EAGLE Gerber RS-274X export*
G75*
%MOMM*%
%FSLAX34Y34*%
%LPD*%
%INBottom Copper*%
%IPPOS*%
%AMOC8*
5,1,8,0,0,1.08239X$1,22.5*%
G01*
G04 Define Apertures*
%ADD10R,1.143000X1.143000*%
%ADD11C,1.143000*%
%ADD12C,1.219200*%
G36*
X162906Y-511518D02*
X162608Y-511578D01*
X-162608Y-511578D01*
X-162894Y-511522D01*
X-163147Y-511355D01*
X-271355Y-403147D01*
X-271518Y-402906D01*
X-271578Y-402608D01*
X-271578Y-77392D01*
X-271522Y-77106D01*
X-271355Y-76853D01*
X-200689Y-6187D01*
X-199026Y-2173D01*
X-199026Y2173D01*
X-200689Y6187D01*
X-271355Y76853D01*
X-271518Y77094D01*
X-271578Y77392D01*
X-271578Y402608D01*
X-271522Y402894D01*
X-271355Y403147D01*
X-163147Y511355D01*
X-162906Y511518D01*
X-162608Y511578D01*
X162608Y511578D01*
X162894Y511522D01*
X163147Y511355D01*
X271355Y403147D01*
X271518Y402906D01*
X271578Y402608D01*
X271578Y77392D01*
X271522Y77106D01*
X271355Y76853D01*
X200689Y6187D01*
X199026Y2173D01*
X199026Y-2173D01*
X200689Y-6187D01*
X271355Y-76853D01*
X271518Y-77094D01*
X271578Y-77392D01*
X271578Y-402608D01*
X271522Y-402894D01*
X271355Y-403147D01*
X163147Y-511355D01*
X162906Y-511518D01*
G37*
%LPC*%
G36*
X110822Y453585D02*
X117778Y453585D01*
X124496Y455385D01*
X130519Y458863D01*
X135437Y463781D01*
X138915Y469804D01*
X140715Y476522D01*
X140715Y483478D01*
X138915Y490196D01*
X135437Y496219D01*
X130519Y501137D01*
X124496Y504615D01*
X117778Y506415D01*
X110822Y506415D01*
X104104Y504615D01*
X98081Y501137D01*
X93163Y496219D01*
X89685Y490196D01*
X87885Y483478D01*
X87885Y476522D01*
X89685Y469804D01*
X93163Y463781D01*
X98081Y458863D01*
X104104Y455385D01*
X110822Y453585D01*
G37*
G36*
X-117778Y453585D02*
X-110822Y453585D01*
X-104104Y455385D01*
X-98081Y458863D01*
X-93163Y463781D01*
X-89685Y469804D01*
X-87885Y476522D01*
X-87885Y483478D01*
X-89685Y490196D01*
X-93163Y496219D01*
X-98081Y501137D01*
X-104104Y504615D01*
X-110822Y506415D01*
X-117778Y506415D01*
X-124496Y504615D01*
X-130519Y501137D01*
X-135437Y496219D01*
X-138915Y490196D01*
X-140715Y483478D01*
X-140715Y476522D01*
X-138915Y469804D01*
X-135437Y463781D01*
X-130519Y458863D01*
X-124496Y455385D01*
X-117778Y453585D01*
G37*
G36*
X4658Y471745D02*
X5538Y471745D01*
X5538Y488255D01*
X4658Y488255D01*
X1624Y486998D01*
X-180Y485195D01*
X-410Y485037D01*
X-706Y484972D01*
X-1004Y485027D01*
X-1257Y485195D01*
X-2199Y486137D01*
X-4860Y487239D01*
X-7740Y487239D01*
X-10416Y486131D01*
X-10618Y485992D01*
X-10914Y485927D01*
X-11212Y485983D01*
X-11465Y486150D01*
X-12554Y487239D01*
X-25246Y487239D01*
X-26139Y486346D01*
X-26139Y473654D01*
X-25246Y472761D01*
X-12554Y472761D01*
X-11465Y473850D01*
X-11234Y474008D01*
X-10938Y474073D01*
X-10640Y474017D01*
X-10419Y473871D01*
X-7740Y472761D01*
X-4860Y472761D01*
X-2199Y473863D01*
X-1257Y474805D01*
X-1027Y474963D01*
X-731Y475028D01*
X-432Y474973D01*
X-180Y474805D01*
X1624Y473002D01*
X4658Y471745D01*
G37*
G36*
X7062Y471745D02*
X7942Y471745D01*
X10976Y473002D01*
X12780Y474805D01*
X13010Y474963D01*
X13306Y475028D01*
X13604Y474973D01*
X13857Y474805D01*
X14799Y473863D01*
X17460Y472761D01*
X20340Y472761D01*
X23001Y473863D01*
X25037Y475899D01*
X26139Y478560D01*
X26139Y481440D01*
X25037Y484101D01*
X23001Y486137D01*
X20340Y487239D01*
X17460Y487239D01*
X14799Y486137D01*
X13857Y485195D01*
X13627Y485037D01*
X13331Y484972D01*
X13032Y485027D01*
X12780Y485195D01*
X10976Y486998D01*
X7942Y488255D01*
X7062Y488255D01*
X7062Y471745D01*
G37*
G36*
X-199673Y31578D02*
X199673Y31578D01*
X203687Y33241D01*
X206759Y36313D01*
X208422Y40327D01*
X208422Y439673D01*
X206759Y443687D01*
X203687Y446759D01*
X199673Y448422D01*
X-199673Y448422D01*
X-203687Y446759D01*
X-206759Y443687D01*
X-208422Y439673D01*
X-208422Y40327D01*
X-206759Y36313D01*
X-203687Y33241D01*
X-199673Y31578D01*
G37*
G36*
X231745Y234462D02*
X248255Y234462D01*
X248255Y235342D01*
X246998Y238376D01*
X245195Y240180D01*
X245037Y240410D01*
X244972Y240706D01*
X245027Y241004D01*
X245195Y241257D01*
X246137Y242199D01*
X247239Y244860D01*
X247239Y247740D01*
X246131Y250416D01*
X245992Y250618D01*
X245927Y250914D01*
X245983Y251212D01*
X246150Y251465D01*
X247239Y252554D01*
X247239Y265246D01*
X246346Y266139D01*
X233654Y266139D01*
X232761Y265246D01*
X232761Y252554D01*
X233850Y251465D01*
X234008Y251234D01*
X234073Y250938D01*
X234017Y250640D01*
X233871Y250419D01*
X232761Y247740D01*
X232761Y244860D01*
X233863Y242199D01*
X234805Y241257D01*
X234963Y241027D01*
X235028Y240731D01*
X234973Y240432D01*
X234805Y240180D01*
X233002Y238376D01*
X231745Y235342D01*
X231745Y234462D01*
G37*
G36*
X-248255Y247062D02*
X-231745Y247062D01*
X-231745Y247942D01*
X-233002Y250976D01*
X-234805Y252780D01*
X-234963Y253010D01*
X-235028Y253306D01*
X-234973Y253604D01*
X-234805Y253857D01*
X-233863Y254799D01*
X-232761Y257460D01*
X-232761Y260340D01*
X-233863Y263001D01*
X-235899Y265037D01*
X-238560Y266139D01*
X-241440Y266139D01*
X-244101Y265037D01*
X-246137Y263001D01*
X-247239Y260340D01*
X-247239Y257460D01*
X-246137Y254799D01*
X-245195Y253857D01*
X-245037Y253627D01*
X-244972Y253331D01*
X-245027Y253032D01*
X-245195Y252780D01*
X-246998Y250976D01*
X-248255Y247942D01*
X-248255Y247062D01*
G37*
G36*
X-246346Y213861D02*
X-233654Y213861D01*
X-232761Y214754D01*
X-232761Y227446D01*
X-233850Y228535D01*
X-234008Y228766D01*
X-234073Y229062D01*
X-234017Y229360D01*
X-233871Y229581D01*
X-232761Y232260D01*
X-232761Y235140D01*
X-233863Y237801D01*
X-234805Y238743D01*
X-234963Y238973D01*
X-235028Y239269D01*
X-234973Y239568D01*
X-234805Y239820D01*
X-233002Y241624D01*
X-231745Y244658D01*
X-231745Y245538D01*
X-248255Y245538D01*
X-248255Y244658D01*
X-246998Y241624D01*
X-245195Y239820D01*
X-245037Y239590D01*
X-244972Y239294D01*
X-245027Y238996D01*
X-245195Y238743D01*
X-246137Y237801D01*
X-247239Y235140D01*
X-247239Y232260D01*
X-246131Y229584D01*
X-245992Y229382D01*
X-245927Y229086D01*
X-245983Y228788D01*
X-246150Y228535D01*
X-247239Y227446D01*
X-247239Y214754D01*
X-246346Y213861D01*
G37*
G36*
X238560Y213861D02*
X241440Y213861D01*
X244101Y214963D01*
X246137Y216999D01*
X247239Y219660D01*
X247239Y222540D01*
X246137Y225201D01*
X245195Y226143D01*
X245037Y226373D01*
X244972Y226669D01*
X245027Y226968D01*
X245195Y227220D01*
X246998Y229024D01*
X248255Y232058D01*
X248255Y232938D01*
X231745Y232938D01*
X231745Y232058D01*
X233002Y229024D01*
X234805Y227220D01*
X234963Y226990D01*
X235028Y226694D01*
X234973Y226396D01*
X234805Y226143D01*
X233863Y225201D01*
X232761Y222540D01*
X232761Y219660D01*
X233863Y216999D01*
X235899Y214963D01*
X238560Y213861D01*
G37*
G36*
X251364Y191262D02*
X259238Y191262D01*
X259238Y199136D01*
X258282Y199136D01*
X255108Y197821D01*
X252679Y195392D01*
X251364Y192218D01*
X251364Y191262D01*
G37*
G36*
X260762Y191262D02*
X268636Y191262D01*
X268636Y192218D01*
X267321Y195392D01*
X264892Y197821D01*
X261718Y199136D01*
X260762Y199136D01*
X260762Y191262D01*
G37*
G36*
X238484Y182880D02*
X241516Y182880D01*
X244316Y184040D01*
X246460Y186184D01*
X247620Y188984D01*
X247620Y192016D01*
X246460Y194816D01*
X244316Y196960D01*
X241516Y198120D01*
X238484Y198120D01*
X235684Y196960D01*
X233540Y194816D01*
X232380Y192016D01*
X232380Y188984D01*
X233540Y186184D01*
X235684Y184040D01*
X238484Y182880D01*
G37*
G36*
X218484Y182880D02*
X221516Y182880D01*
X224316Y184040D01*
X226460Y186184D01*
X227620Y188984D01*
X227620Y192016D01*
X226460Y194816D01*
X224316Y196960D01*
X221516Y198120D01*
X218484Y198120D01*
X215684Y196960D01*
X213540Y194816D01*
X212380Y192016D01*
X212380Y188984D01*
X213540Y186184D01*
X215684Y184040D01*
X218484Y182880D01*
G37*
G36*
X260762Y181864D02*
X261718Y181864D01*
X264892Y183179D01*
X267321Y185608D01*
X268636Y188782D01*
X268636Y189738D01*
X260762Y189738D01*
X260762Y181864D01*
G37*
G36*
X258282Y181864D02*
X259238Y181864D01*
X259238Y189738D01*
X251364Y189738D01*
X251364Y188782D01*
X252679Y185608D01*
X255108Y183179D01*
X258282Y181864D01*
G37*
G36*
X-7942Y-8255D02*
X-7062Y-8255D01*
X-7062Y8255D01*
X-7942Y8255D01*
X-10976Y6998D01*
X-12780Y5195D01*
X-13010Y5037D01*
X-13306Y4972D01*
X-13604Y5027D01*
X-13857Y5195D01*
X-14799Y6137D01*
X-17460Y7239D01*
X-20340Y7239D01*
X-23001Y6137D01*
X-25037Y4101D01*
X-26139Y1440D01*
X-26139Y-1440D01*
X-25037Y-4101D01*
X-23001Y-6137D01*
X-20340Y-7239D01*
X-17460Y-7239D01*
X-14799Y-6137D01*
X-13857Y-5195D01*
X-13627Y-5037D01*
X-13331Y-4972D01*
X-13032Y-5027D01*
X-12780Y-5195D01*
X-10976Y-6998D01*
X-7942Y-8255D01*
G37*
G36*
X-5538Y-8255D02*
X-4658Y-8255D01*
X-1624Y-6998D01*
X180Y-5195D01*
X410Y-5037D01*
X706Y-4972D01*
X1004Y-5027D01*
X1257Y-5195D01*
X2199Y-6137D01*
X4860Y-7239D01*
X7740Y-7239D01*
X10416Y-6131D01*
X10618Y-5992D01*
X10914Y-5927D01*
X11212Y-5983D01*
X11465Y-6150D01*
X12554Y-7239D01*
X25246Y-7239D01*
X26139Y-6346D01*
X26139Y6346D01*
X25246Y7239D01*
X12554Y7239D01*
X11465Y6150D01*
X11234Y5992D01*
X10938Y5927D01*
X10640Y5983D01*
X10419Y6129D01*
X7740Y7239D01*
X4860Y7239D01*
X2199Y6137D01*
X1257Y5195D01*
X1027Y5037D01*
X731Y4972D01*
X432Y5027D01*
X180Y5195D01*
X-1624Y6998D01*
X-4658Y8255D01*
X-5538Y8255D01*
X-5538Y-8255D01*
G37*
G36*
X-199673Y-448422D02*
X199673Y-448422D01*
X203687Y-446759D01*
X206759Y-443687D01*
X208422Y-439673D01*
X208422Y-40327D01*
X206759Y-36313D01*
X203687Y-33241D01*
X199673Y-31578D01*
X-199673Y-31578D01*
X-203687Y-33241D01*
X-206759Y-36313D01*
X-208422Y-40327D01*
X-208422Y-439673D01*
X-206759Y-443687D01*
X-203687Y-446759D01*
X-199673Y-448422D01*
G37*
G36*
X-268636Y-189738D02*
X-260762Y-189738D01*
X-260762Y-181864D01*
X-261718Y-181864D01*
X-264892Y-183179D01*
X-267321Y-185608D01*
X-268636Y-188782D01*
X-268636Y-189738D01*
G37*
G36*
X-259238Y-189738D02*
X-251364Y-189738D01*
X-251364Y-188782D01*
X-252679Y-185608D01*
X-255108Y-183179D01*
X-258282Y-181864D01*
X-259238Y-181864D01*
X-259238Y-189738D01*
G37*
G36*
X-221516Y-198120D02*
X-218484Y-198120D01*
X-215684Y-196960D01*
X-213540Y-194816D01*
X-212380Y-192016D01*
X-212380Y-188984D01*
X-213540Y-186184D01*
X-215684Y-184040D01*
X-218484Y-182880D01*
X-221516Y-182880D01*
X-224316Y-184040D01*
X-226460Y-186184D01*
X-227620Y-188984D01*
X-227620Y-192016D01*
X-226460Y-194816D01*
X-224316Y-196960D01*
X-221516Y-198120D01*
G37*
G36*
X-241516Y-198120D02*
X-238484Y-198120D01*
X-235684Y-196960D01*
X-233540Y-194816D01*
X-232380Y-192016D01*
X-232380Y-188984D01*
X-233540Y-186184D01*
X-235684Y-184040D01*
X-238484Y-182880D01*
X-241516Y-182880D01*
X-244316Y-184040D01*
X-246460Y-186184D01*
X-247620Y-188984D01*
X-247620Y-192016D01*
X-246460Y-194816D01*
X-244316Y-196960D01*
X-241516Y-198120D01*
G37*
G36*
X-259238Y-199136D02*
X-258282Y-199136D01*
X-255108Y-197821D01*
X-252679Y-195392D01*
X-251364Y-192218D01*
X-251364Y-191262D01*
X-259238Y-191262D01*
X-259238Y-199136D01*
G37*
G36*
X-261718Y-199136D02*
X-260762Y-199136D01*
X-260762Y-191262D01*
X-268636Y-191262D01*
X-268636Y-192218D01*
X-267321Y-195392D01*
X-264892Y-197821D01*
X-261718Y-199136D01*
G37*
G36*
X231745Y-232938D02*
X248255Y-232938D01*
X248255Y-232058D01*
X246998Y-229024D01*
X245195Y-227220D01*
X245037Y-226990D01*
X244972Y-226694D01*
X245027Y-226396D01*
X245195Y-226143D01*
X246137Y-225201D01*
X247239Y-222540D01*
X247239Y-219660D01*
X246137Y-216999D01*
X244101Y-214963D01*
X241440Y-213861D01*
X238560Y-213861D01*
X235899Y-214963D01*
X233863Y-216999D01*
X232761Y-219660D01*
X232761Y-222540D01*
X233863Y-225201D01*
X234805Y-226143D01*
X234963Y-226373D01*
X235028Y-226669D01*
X234973Y-226968D01*
X234805Y-227220D01*
X233002Y-229024D01*
X231745Y-232058D01*
X231745Y-232938D01*
G37*
G36*
X-248255Y-245538D02*
X-231745Y-245538D01*
X-231745Y-244658D01*
X-233002Y-241624D01*
X-234805Y-239820D01*
X-234963Y-239590D01*
X-235028Y-239294D01*
X-234973Y-238996D01*
X-234805Y-238743D01*
X-233863Y-237801D01*
X-232761Y-235140D01*
X-232761Y-232260D01*
X-233869Y-229584D01*
X-234008Y-229382D01*
X-234073Y-229086D01*
X-234017Y-228788D01*
X-233850Y-228535D01*
X-232761Y-227446D01*
X-232761Y-214754D01*
X-233654Y-213861D01*
X-246346Y-213861D01*
X-247239Y-214754D01*
X-247239Y-227446D01*
X-246150Y-228535D01*
X-245992Y-228766D01*
X-245927Y-229062D01*
X-245983Y-229360D01*
X-246129Y-229581D01*
X-247239Y-232260D01*
X-247239Y-235140D01*
X-246137Y-237801D01*
X-245195Y-238743D01*
X-245037Y-238973D01*
X-244972Y-239269D01*
X-245027Y-239568D01*
X-245195Y-239820D01*
X-246998Y-241624D01*
X-248255Y-244658D01*
X-248255Y-245538D01*
G37*
G36*
X233654Y-266139D02*
X246346Y-266139D01*
X247239Y-265246D01*
X247239Y-252554D01*
X246150Y-251465D01*
X245992Y-251234D01*
X245927Y-250938D01*
X245983Y-250640D01*
X246129Y-250419D01*
X247239Y-247740D01*
X247239Y-244860D01*
X246137Y-242199D01*
X245195Y-241257D01*
X245037Y-241027D01*
X244972Y-240731D01*
X245027Y-240432D01*
X245195Y-240180D01*
X246998Y-238376D01*
X248255Y-235342D01*
X248255Y-234462D01*
X231745Y-234462D01*
X231745Y-235342D01*
X233002Y-238376D01*
X234805Y-240180D01*
X234963Y-240410D01*
X235028Y-240706D01*
X234973Y-241004D01*
X234805Y-241257D01*
X233863Y-242199D01*
X232761Y-244860D01*
X232761Y-247740D01*
X233869Y-250416D01*
X234008Y-250618D01*
X234073Y-250914D01*
X234017Y-251212D01*
X233850Y-251465D01*
X232761Y-252554D01*
X232761Y-265246D01*
X233654Y-266139D01*
G37*
G36*
X-241440Y-266139D02*
X-238560Y-266139D01*
X-235899Y-265037D01*
X-233863Y-263001D01*
X-232761Y-260340D01*
X-232761Y-257460D01*
X-233863Y-254799D01*
X-234805Y-253857D01*
X-234963Y-253627D01*
X-235028Y-253331D01*
X-234973Y-253032D01*
X-234805Y-252780D01*
X-233002Y-250976D01*
X-231745Y-247942D01*
X-231745Y-247062D01*
X-248255Y-247062D01*
X-248255Y-247942D01*
X-246998Y-250976D01*
X-245195Y-252780D01*
X-245037Y-253010D01*
X-244972Y-253306D01*
X-245027Y-253604D01*
X-245195Y-253857D01*
X-246137Y-254799D01*
X-247239Y-257460D01*
X-247239Y-260340D01*
X-246137Y-263001D01*
X-244101Y-265037D01*
X-241440Y-266139D01*
G37*
G36*
X110822Y-506415D02*
X117778Y-506415D01*
X124496Y-504615D01*
X130519Y-501137D01*
X135437Y-496219D01*
X138915Y-490196D01*
X140715Y-483478D01*
X140715Y-476522D01*
X138915Y-469804D01*
X135437Y-463781D01*
X130519Y-458863D01*
X124496Y-455385D01*
X117778Y-453585D01*
X110822Y-453585D01*
X104104Y-455385D01*
X98081Y-458863D01*
X93163Y-463781D01*
X89685Y-469804D01*
X87885Y-476522D01*
X87885Y-483478D01*
X89685Y-490196D01*
X93163Y-496219D01*
X98081Y-501137D01*
X104104Y-504615D01*
X110822Y-506415D01*
G37*
G36*
X-117778Y-506415D02*
X-110822Y-506415D01*
X-104104Y-504615D01*
X-98081Y-501137D01*
X-93163Y-496219D01*
X-89685Y-490196D01*
X-87885Y-483478D01*
X-87885Y-476522D01*
X-89685Y-469804D01*
X-93163Y-463781D01*
X-98081Y-458863D01*
X-104104Y-455385D01*
X-110822Y-453585D01*
X-117778Y-453585D01*
X-124496Y-455385D01*
X-130519Y-458863D01*
X-135437Y-463781D01*
X-138915Y-469804D01*
X-140715Y-476522D01*
X-140715Y-483478D01*
X-138915Y-490196D01*
X-135437Y-496219D01*
X-130519Y-501137D01*
X-124496Y-504615D01*
X-117778Y-506415D01*
G37*
G36*
X4658Y-488255D02*
X5538Y-488255D01*
X5538Y-471745D01*
X4658Y-471745D01*
X1624Y-473002D01*
X-180Y-474805D01*
X-410Y-474963D01*
X-706Y-475028D01*
X-1004Y-474973D01*
X-1257Y-474805D01*
X-2199Y-473863D01*
X-4860Y-472761D01*
X-7740Y-472761D01*
X-10416Y-473869D01*
X-10618Y-474008D01*
X-10914Y-474073D01*
X-11212Y-474017D01*
X-11465Y-473850D01*
X-12554Y-472761D01*
X-25246Y-472761D01*
X-26139Y-473654D01*
X-26139Y-486346D01*
X-25246Y-487239D01*
X-12554Y-487239D01*
X-11465Y-486150D01*
X-11234Y-485992D01*
X-10938Y-485927D01*
X-10640Y-485983D01*
X-10419Y-486129D01*
X-7740Y-487239D01*
X-4860Y-487239D01*
X-2199Y-486137D01*
X-1257Y-485195D01*
X-1027Y-485037D01*
X-731Y-484972D01*
X-432Y-485027D01*
X-180Y-485195D01*
X1624Y-486998D01*
X4658Y-488255D01*
G37*
G36*
X7062Y-488255D02*
X7942Y-488255D01*
X10976Y-486998D01*
X12780Y-485195D01*
X13010Y-485037D01*
X13306Y-484972D01*
X13604Y-485027D01*
X13857Y-485195D01*
X14799Y-486137D01*
X17460Y-487239D01*
X20340Y-487239D01*
X23001Y-486137D01*
X25037Y-484101D01*
X26139Y-481440D01*
X26139Y-478560D01*
X25037Y-475899D01*
X23001Y-473863D01*
X20340Y-472761D01*
X17460Y-472761D01*
X14799Y-473863D01*
X13857Y-474805D01*
X13627Y-474963D01*
X13331Y-475028D01*
X13032Y-474973D01*
X12780Y-474805D01*
X10976Y-473002D01*
X7942Y-471745D01*
X7062Y-471745D01*
X7062Y-488255D01*
G37*
%LPD*%
D10*
X240000Y258900D03*
D11*
X240000Y246300D03*
X240000Y233700D03*
X240000Y221100D03*
D10*
X-18900Y480000D03*
D11*
X-6300Y480000D03*
X6300Y480000D03*
X18900Y480000D03*
D10*
X-240000Y221100D03*
D11*
X-240000Y233700D03*
X-240000Y246300D03*
X-240000Y258900D03*
D10*
X18900Y0D03*
D11*
X6300Y0D03*
X-6300Y0D03*
X-18900Y0D03*
D10*
X240000Y-258900D03*
D11*
X240000Y-246300D03*
X240000Y-233700D03*
X240000Y-221100D03*
D10*
X-18900Y-480000D03*
D11*
X-6300Y-480000D03*
X6300Y-480000D03*
X18900Y-480000D03*
D10*
X-240000Y-221100D03*
D11*
X-240000Y-233700D03*
X-240000Y-246300D03*
X-240000Y-258900D03*
D12*
X220000Y190500D03*
X240000Y190500D03*
X260000Y190500D03*
X-220000Y-190500D03*
X-240000Y-190500D03*
X-260000Y-190500D03*
M02*
