G04 EAGLE Gerber RS-274X export*
G75*
%MOMM*%
%FSLAX34Y34*%
%LPD*%
%INSilkscreen Top*%
%IPPOS*%
%AMOC8*
5,1,8,0,0,1.08239X$1,22.5*%
G01*
G04 Define Apertures*
%ADD10C,0.152400*%
%ADD11C,0.203200*%
%ADD12C,0.508000*%
G36*
X-152400Y469018D02*
X-164741Y469018D01*
X-164741Y471217D01*
X-156184Y474501D01*
X-155648Y474673D01*
X-155076Y474838D01*
X-154222Y475053D01*
X-154663Y475161D01*
X-155286Y475346D01*
X-155867Y475534D01*
X-156184Y475649D01*
X-164741Y478872D01*
X-164741Y481018D01*
X-152400Y481018D01*
X-152400Y479511D01*
X-160633Y479511D01*
X-161973Y479531D01*
X-163261Y479590D01*
X-161864Y479183D01*
X-161293Y478995D01*
X-160808Y478819D01*
X-152400Y475631D01*
X-152400Y474457D01*
X-160808Y471225D01*
X-162297Y470735D01*
X-163261Y470446D01*
X-162288Y470472D01*
X-160633Y470507D01*
X-152400Y470507D01*
X-152400Y469018D01*
G37*
G36*
X-155571Y483168D02*
X-155719Y484797D01*
X-155454Y484844D01*
X-155206Y484908D01*
X-154975Y484987D01*
X-154762Y485083D01*
X-154565Y485195D01*
X-154385Y485323D01*
X-154223Y485466D01*
X-154077Y485627D01*
X-153949Y485803D01*
X-153838Y485995D01*
X-153744Y486203D01*
X-153667Y486427D01*
X-153607Y486668D01*
X-153564Y486924D01*
X-153538Y487197D01*
X-153530Y487486D01*
X-153539Y487775D01*
X-153567Y488049D01*
X-153612Y488307D01*
X-153677Y488549D01*
X-153759Y488774D01*
X-153860Y488984D01*
X-153979Y489178D01*
X-154117Y489355D01*
X-154272Y489515D01*
X-154446Y489652D01*
X-154637Y489769D01*
X-154846Y489865D01*
X-155073Y489939D01*
X-155317Y489992D01*
X-155579Y490024D01*
X-155860Y490034D01*
X-156105Y490022D01*
X-156336Y489986D01*
X-156553Y489925D01*
X-156756Y489840D01*
X-156946Y489731D01*
X-157122Y489598D01*
X-157284Y489441D01*
X-157432Y489259D01*
X-157564Y489055D01*
X-157679Y488829D01*
X-157776Y488581D01*
X-157855Y488312D01*
X-157917Y488022D01*
X-157961Y487710D01*
X-157988Y487376D01*
X-157997Y487021D01*
X-157997Y486128D01*
X-159363Y486128D01*
X-159363Y486986D01*
X-159372Y487301D01*
X-159398Y487598D01*
X-159442Y487877D01*
X-159504Y488137D01*
X-159584Y488379D01*
X-159681Y488603D01*
X-159796Y488809D01*
X-159928Y488996D01*
X-160076Y489164D01*
X-160238Y489309D01*
X-160413Y489431D01*
X-160601Y489532D01*
X-160803Y489610D01*
X-161019Y489666D01*
X-161249Y489699D01*
X-161491Y489710D01*
X-161732Y489701D01*
X-161960Y489674D01*
X-162175Y489628D01*
X-162377Y489565D01*
X-162566Y489483D01*
X-162742Y489383D01*
X-162905Y489264D01*
X-163055Y489128D01*
X-163189Y488973D01*
X-163306Y488801D01*
X-163404Y488611D01*
X-163485Y488404D01*
X-163548Y488179D01*
X-163593Y487936D01*
X-163619Y487676D01*
X-163628Y487398D01*
X-163620Y487144D01*
X-163595Y486902D01*
X-163553Y486672D01*
X-163495Y486455D01*
X-163420Y486251D01*
X-163328Y486059D01*
X-163219Y485879D01*
X-163094Y485712D01*
X-162954Y485559D01*
X-162800Y485424D01*
X-162632Y485305D01*
X-162450Y485203D01*
X-162255Y485118D01*
X-162046Y485049D01*
X-161824Y484998D01*
X-161588Y484963D01*
X-161710Y483378D01*
X-162079Y483436D01*
X-162426Y483522D01*
X-162753Y483637D01*
X-163059Y483780D01*
X-163344Y483951D01*
X-163609Y484150D01*
X-163852Y484378D01*
X-164075Y484635D01*
X-164274Y484915D01*
X-164447Y485214D01*
X-164593Y485533D01*
X-164712Y485871D01*
X-164805Y486228D01*
X-164872Y486604D01*
X-164911Y487000D01*
X-164925Y487415D01*
X-164911Y487867D01*
X-164871Y488292D01*
X-164803Y488692D01*
X-164709Y489065D01*
X-164588Y489413D01*
X-164439Y489735D01*
X-164264Y490031D01*
X-164062Y490301D01*
X-163836Y490543D01*
X-163588Y490752D01*
X-163320Y490929D01*
X-163030Y491073D01*
X-162718Y491186D01*
X-162386Y491266D01*
X-162033Y491314D01*
X-161658Y491331D01*
X-161369Y491320D01*
X-161094Y491289D01*
X-160833Y491238D01*
X-160586Y491165D01*
X-160353Y491072D01*
X-160133Y490959D01*
X-159927Y490824D01*
X-159735Y490669D01*
X-159558Y490495D01*
X-159395Y490301D01*
X-159247Y490089D01*
X-159115Y489858D01*
X-158997Y489608D01*
X-158894Y489340D01*
X-158806Y489053D01*
X-158732Y488747D01*
X-158697Y488747D01*
X-158650Y489083D01*
X-158584Y489400D01*
X-158497Y489698D01*
X-158391Y489977D01*
X-158265Y490237D01*
X-158119Y490478D01*
X-157954Y490699D01*
X-157769Y490901D01*
X-157568Y491082D01*
X-157354Y491239D01*
X-157128Y491371D01*
X-156889Y491479D01*
X-156637Y491564D01*
X-156373Y491624D01*
X-156096Y491660D01*
X-155807Y491672D01*
X-155392Y491655D01*
X-155001Y491604D01*
X-154635Y491519D01*
X-154292Y491401D01*
X-153973Y491248D01*
X-153679Y491061D01*
X-153408Y490841D01*
X-153162Y490586D01*
X-152942Y490300D01*
X-152752Y489985D01*
X-152591Y489641D01*
X-152459Y489268D01*
X-152357Y488866D01*
X-152283Y488435D01*
X-152240Y487975D01*
X-152225Y487486D01*
X-152238Y487029D01*
X-152278Y486596D01*
X-152344Y486186D01*
X-152436Y485801D01*
X-152555Y485439D01*
X-152700Y485100D01*
X-152872Y484785D01*
X-153070Y484494D01*
X-153294Y484229D01*
X-153543Y483993D01*
X-153818Y483784D01*
X-154118Y483604D01*
X-154443Y483453D01*
X-154794Y483329D01*
X-155169Y483234D01*
X-155571Y483168D01*
G37*
G36*
X165100Y-490982D02*
X152759Y-490982D01*
X152759Y-488783D01*
X161316Y-485499D01*
X161852Y-485327D01*
X162424Y-485162D01*
X163278Y-484947D01*
X162837Y-484839D01*
X162214Y-484654D01*
X161633Y-484466D01*
X161316Y-484352D01*
X152759Y-481128D01*
X152759Y-478983D01*
X165100Y-478983D01*
X165100Y-480489D01*
X156867Y-480489D01*
X155527Y-480469D01*
X154239Y-480410D01*
X155636Y-480817D01*
X156207Y-481005D01*
X156692Y-481181D01*
X165100Y-484369D01*
X165100Y-485543D01*
X156692Y-488775D01*
X155203Y-489265D01*
X154239Y-489554D01*
X155212Y-489528D01*
X156867Y-489493D01*
X165100Y-489493D01*
X165100Y-490982D01*
G37*
G36*
X161929Y-476832D02*
X161781Y-475203D01*
X162046Y-475156D01*
X162294Y-475092D01*
X162525Y-475013D01*
X162739Y-474917D01*
X162935Y-474805D01*
X163115Y-474677D01*
X163277Y-474534D01*
X163423Y-474374D01*
X163551Y-474197D01*
X163662Y-474005D01*
X163756Y-473797D01*
X163833Y-473573D01*
X163893Y-473332D01*
X163936Y-473076D01*
X163962Y-472803D01*
X163970Y-472515D01*
X163961Y-472225D01*
X163934Y-471951D01*
X163888Y-471693D01*
X163823Y-471451D01*
X163741Y-471226D01*
X163640Y-471016D01*
X163521Y-470822D01*
X163383Y-470645D01*
X163228Y-470485D01*
X163054Y-470348D01*
X162863Y-470231D01*
X162654Y-470135D01*
X162427Y-470061D01*
X162183Y-470008D01*
X161921Y-469976D01*
X161640Y-469966D01*
X161396Y-469978D01*
X161164Y-470014D01*
X160947Y-470075D01*
X160744Y-470160D01*
X160554Y-470269D01*
X160378Y-470402D01*
X160216Y-470559D01*
X160068Y-470741D01*
X159936Y-470945D01*
X159821Y-471171D01*
X159724Y-471419D01*
X159645Y-471688D01*
X159583Y-471978D01*
X159539Y-472290D01*
X159512Y-472624D01*
X159503Y-472979D01*
X159503Y-473872D01*
X158137Y-473872D01*
X158137Y-473014D01*
X158128Y-472699D01*
X158102Y-472402D01*
X158058Y-472123D01*
X157996Y-471863D01*
X157916Y-471621D01*
X157819Y-471397D01*
X157704Y-471191D01*
X157572Y-471004D01*
X157424Y-470836D01*
X157263Y-470691D01*
X157087Y-470569D01*
X156899Y-470468D01*
X156697Y-470390D01*
X156481Y-470334D01*
X156252Y-470301D01*
X156009Y-470290D01*
X155768Y-470299D01*
X155540Y-470326D01*
X155325Y-470372D01*
X155123Y-470435D01*
X154934Y-470517D01*
X154758Y-470617D01*
X154595Y-470736D01*
X154445Y-470872D01*
X154311Y-471027D01*
X154194Y-471199D01*
X154096Y-471389D01*
X154015Y-471596D01*
X153952Y-471821D01*
X153907Y-472064D01*
X153881Y-472324D01*
X153872Y-472602D01*
X153880Y-472856D01*
X153905Y-473098D01*
X153947Y-473328D01*
X154005Y-473545D01*
X154080Y-473749D01*
X154172Y-473941D01*
X154281Y-474121D01*
X154406Y-474288D01*
X154546Y-474441D01*
X154700Y-474576D01*
X154868Y-474695D01*
X155050Y-474797D01*
X155245Y-474882D01*
X155454Y-474951D01*
X155676Y-475002D01*
X155912Y-475037D01*
X155790Y-476622D01*
X155421Y-476564D01*
X155074Y-476478D01*
X154747Y-476363D01*
X154441Y-476220D01*
X154156Y-476049D01*
X153891Y-475850D01*
X153648Y-475622D01*
X153425Y-475365D01*
X153226Y-475085D01*
X153053Y-474786D01*
X152907Y-474467D01*
X152788Y-474129D01*
X152695Y-473772D01*
X152628Y-473396D01*
X152589Y-473000D01*
X152575Y-472585D01*
X152589Y-472133D01*
X152629Y-471708D01*
X152697Y-471308D01*
X152791Y-470935D01*
X152912Y-470587D01*
X153061Y-470265D01*
X153236Y-469969D01*
X153438Y-469699D01*
X153664Y-469457D01*
X153912Y-469248D01*
X154181Y-469072D01*
X154470Y-468927D01*
X154782Y-468814D01*
X155114Y-468734D01*
X155467Y-468686D01*
X155842Y-468670D01*
X156131Y-468680D01*
X156406Y-468711D01*
X156667Y-468763D01*
X156914Y-468835D01*
X157147Y-468928D01*
X157367Y-469041D01*
X157573Y-469176D01*
X157765Y-469331D01*
X157942Y-469505D01*
X158105Y-469699D01*
X158253Y-469911D01*
X158386Y-470142D01*
X158503Y-470392D01*
X158606Y-470660D01*
X158694Y-470947D01*
X158768Y-471253D01*
X158803Y-471253D01*
X158850Y-470917D01*
X158916Y-470600D01*
X159003Y-470302D01*
X159109Y-470023D01*
X159235Y-469763D01*
X159381Y-469522D01*
X159546Y-469301D01*
X159731Y-469099D01*
X159932Y-468918D01*
X160146Y-468761D01*
X160372Y-468629D01*
X160611Y-468521D01*
X160863Y-468436D01*
X161127Y-468376D01*
X161404Y-468340D01*
X161693Y-468328D01*
X162108Y-468345D01*
X162499Y-468396D01*
X162866Y-468481D01*
X163208Y-468599D01*
X163527Y-468752D01*
X163821Y-468939D01*
X164092Y-469159D01*
X164338Y-469414D01*
X164558Y-469700D01*
X164748Y-470015D01*
X164909Y-470359D01*
X165041Y-470732D01*
X165143Y-471134D01*
X165217Y-471565D01*
X165261Y-472025D01*
X165275Y-472515D01*
X165262Y-472971D01*
X165222Y-473404D01*
X165156Y-473814D01*
X165064Y-474199D01*
X164945Y-474561D01*
X164800Y-474900D01*
X164628Y-475215D01*
X164430Y-475506D01*
X164206Y-475771D01*
X163957Y-476007D01*
X163682Y-476216D01*
X163382Y-476396D01*
X163057Y-476547D01*
X162706Y-476671D01*
X162331Y-476766D01*
X161929Y-476832D01*
G37*
G36*
X-96666Y452695D02*
X-131342Y452695D01*
X-146510Y480006D01*
X-131342Y507318D01*
X-96666Y507318D01*
X-81498Y480006D01*
X-96666Y452695D01*
G37*
%LPC*%
G36*
X-99866Y457999D02*
X-87679Y480006D01*
X-99866Y502013D01*
X-128142Y502013D01*
X-140417Y480006D01*
X-128142Y457999D01*
X-99866Y457999D01*
G37*
%LPD*%
G36*
X131934Y-507305D02*
X97258Y-507305D01*
X82090Y-479994D01*
X97258Y-452682D01*
X131934Y-452682D01*
X147102Y-479994D01*
X131934Y-507305D01*
G37*
%LPC*%
G36*
X128734Y-502001D02*
X140921Y-479994D01*
X128734Y-457987D01*
X100458Y-457987D01*
X88183Y-479994D01*
X100458Y-502001D01*
X128734Y-502001D01*
G37*
%LPD*%
G36*
X238960Y107950D02*
X237471Y107950D01*
X237471Y120291D01*
X239416Y120291D01*
X246090Y109710D01*
X246011Y111191D01*
X245985Y112198D01*
X245985Y120291D01*
X247491Y120291D01*
X247491Y107950D01*
X245477Y107950D01*
X238873Y118460D01*
X238917Y117611D01*
X238960Y116148D01*
X238960Y107950D01*
G37*
G36*
X234359Y107950D02*
X232687Y107950D01*
X232687Y120291D01*
X234359Y120291D01*
X234359Y107950D01*
G37*
G36*
X-251974Y-120825D02*
X-252441Y-120813D01*
X-252892Y-120777D01*
X-253327Y-120717D01*
X-253745Y-120633D01*
X-254147Y-120524D01*
X-254532Y-120392D01*
X-254902Y-120235D01*
X-255255Y-120054D01*
X-255589Y-119851D01*
X-255904Y-119626D01*
X-256197Y-119380D01*
X-256471Y-119112D01*
X-256724Y-118822D01*
X-256957Y-118512D01*
X-257169Y-118179D01*
X-257361Y-117825D01*
X-257531Y-117453D01*
X-257679Y-117066D01*
X-257804Y-116663D01*
X-257906Y-116246D01*
X-257986Y-115813D01*
X-258043Y-115365D01*
X-258077Y-114901D01*
X-258088Y-114423D01*
X-258082Y-114058D01*
X-258063Y-113703D01*
X-258031Y-113358D01*
X-257987Y-113023D01*
X-257930Y-112699D01*
X-257860Y-112384D01*
X-257778Y-112080D01*
X-257683Y-111785D01*
X-257575Y-111501D01*
X-257455Y-111227D01*
X-257322Y-110963D01*
X-257177Y-110709D01*
X-256847Y-110231D01*
X-256468Y-109794D01*
X-256043Y-109403D01*
X-255815Y-109227D01*
X-255578Y-109064D01*
X-255331Y-108914D01*
X-255074Y-108777D01*
X-254807Y-108653D01*
X-254530Y-108542D01*
X-254243Y-108445D01*
X-253946Y-108360D01*
X-253639Y-108288D01*
X-253323Y-108230D01*
X-252996Y-108184D01*
X-252660Y-108151D01*
X-252313Y-108132D01*
X-251957Y-108125D01*
X-251494Y-108137D01*
X-251047Y-108172D01*
X-250615Y-108231D01*
X-250199Y-108313D01*
X-249798Y-108418D01*
X-249413Y-108547D01*
X-249044Y-108699D01*
X-248690Y-108874D01*
X-248354Y-109072D01*
X-248039Y-109291D01*
X-247744Y-109531D01*
X-247469Y-109793D01*
X-247215Y-110075D01*
X-246981Y-110379D01*
X-246768Y-110704D01*
X-246575Y-111051D01*
X-246403Y-111416D01*
X-246255Y-111797D01*
X-246129Y-112194D01*
X-246026Y-112607D01*
X-245946Y-113037D01*
X-245889Y-113483D01*
X-245855Y-113945D01*
X-245844Y-114423D01*
X-245855Y-114899D01*
X-245890Y-115360D01*
X-245948Y-115807D01*
X-246029Y-116238D01*
X-246133Y-116654D01*
X-246260Y-117055D01*
X-246410Y-117441D01*
X-246584Y-117812D01*
X-246779Y-118165D01*
X-246994Y-118497D01*
X-247229Y-118808D01*
X-247485Y-119098D01*
X-247760Y-119366D01*
X-248056Y-119614D01*
X-248372Y-119840D01*
X-248708Y-120046D01*
X-249061Y-120228D01*
X-249431Y-120387D01*
X-249816Y-120521D01*
X-250216Y-120630D01*
X-250632Y-120716D01*
X-251064Y-120776D01*
X-251512Y-120813D01*
X-251974Y-120825D01*
G37*
%LPC*%
G36*
X-251974Y-119468D02*
X-251456Y-119447D01*
X-250968Y-119385D01*
X-250511Y-119282D01*
X-250086Y-119138D01*
X-249691Y-118953D01*
X-249328Y-118726D01*
X-248996Y-118458D01*
X-248694Y-118149D01*
X-248427Y-117803D01*
X-248194Y-117422D01*
X-247998Y-117008D01*
X-247837Y-116559D01*
X-247712Y-116076D01*
X-247623Y-115559D01*
X-247569Y-115008D01*
X-247551Y-114423D01*
X-247569Y-113862D01*
X-247623Y-113333D01*
X-247713Y-112834D01*
X-247839Y-112367D01*
X-248001Y-111930D01*
X-248199Y-111524D01*
X-248433Y-111149D01*
X-248703Y-110805D01*
X-249006Y-110498D01*
X-249338Y-110231D01*
X-249701Y-110005D01*
X-250092Y-109820D01*
X-250514Y-109676D01*
X-250965Y-109574D01*
X-251446Y-109512D01*
X-251957Y-109492D01*
X-252472Y-109512D01*
X-252957Y-109573D01*
X-253411Y-109674D01*
X-253836Y-109816D01*
X-254230Y-109998D01*
X-254594Y-110221D01*
X-254929Y-110484D01*
X-255233Y-110788D01*
X-255504Y-111128D01*
X-255738Y-111501D01*
X-255937Y-111907D01*
X-256100Y-112345D01*
X-256226Y-112815D01*
X-256317Y-113319D01*
X-256371Y-113854D01*
X-256389Y-114423D01*
X-256371Y-114988D01*
X-256316Y-115523D01*
X-256224Y-116029D01*
X-256096Y-116504D01*
X-255932Y-116949D01*
X-255731Y-117365D01*
X-255494Y-117750D01*
X-255220Y-118106D01*
X-254913Y-118425D01*
X-254578Y-118702D01*
X-254215Y-118936D01*
X-253824Y-119127D01*
X-253404Y-119276D01*
X-252956Y-119383D01*
X-252479Y-119446D01*
X-251974Y-119468D01*
G37*
%LPD*%
G36*
X-238598Y-120825D02*
X-238970Y-120817D01*
X-239331Y-120791D01*
X-239680Y-120748D01*
X-240016Y-120687D01*
X-240341Y-120610D01*
X-240654Y-120515D01*
X-240954Y-120403D01*
X-241243Y-120273D01*
X-241517Y-120128D01*
X-241776Y-119966D01*
X-242019Y-119789D01*
X-242245Y-119597D01*
X-242456Y-119389D01*
X-242652Y-119165D01*
X-242831Y-118926D01*
X-242994Y-118671D01*
X-243140Y-118402D01*
X-243266Y-118120D01*
X-243373Y-117826D01*
X-243461Y-117519D01*
X-243529Y-117199D01*
X-243577Y-116867D01*
X-243606Y-116523D01*
X-243616Y-116166D01*
X-243616Y-108309D01*
X-241943Y-108309D01*
X-241943Y-116026D01*
X-241930Y-116435D01*
X-241890Y-116820D01*
X-241823Y-117179D01*
X-241729Y-117512D01*
X-241608Y-117820D01*
X-241460Y-118103D01*
X-241286Y-118360D01*
X-241085Y-118592D01*
X-240858Y-118797D01*
X-240608Y-118975D01*
X-240334Y-119125D01*
X-240036Y-119249D01*
X-239714Y-119344D01*
X-239369Y-119413D01*
X-238999Y-119454D01*
X-238606Y-119468D01*
X-238202Y-119453D01*
X-237820Y-119411D01*
X-237462Y-119340D01*
X-237127Y-119241D01*
X-236815Y-119114D01*
X-236526Y-118958D01*
X-236261Y-118774D01*
X-236018Y-118561D01*
X-235802Y-118321D01*
X-235614Y-118056D01*
X-235455Y-117764D01*
X-235325Y-117445D01*
X-235224Y-117101D01*
X-235152Y-116731D01*
X-235109Y-116334D01*
X-235094Y-115912D01*
X-235094Y-108309D01*
X-233430Y-108309D01*
X-233430Y-116008D01*
X-233440Y-116376D01*
X-233470Y-116731D01*
X-233519Y-117073D01*
X-233589Y-117403D01*
X-233678Y-117719D01*
X-233787Y-118023D01*
X-233916Y-118314D01*
X-234065Y-118592D01*
X-234232Y-118855D01*
X-234415Y-119103D01*
X-234615Y-119334D01*
X-234831Y-119550D01*
X-235064Y-119749D01*
X-235313Y-119933D01*
X-235579Y-120100D01*
X-235860Y-120252D01*
X-236157Y-120386D01*
X-236467Y-120503D01*
X-236789Y-120601D01*
X-237125Y-120682D01*
X-237474Y-120744D01*
X-237835Y-120789D01*
X-238210Y-120816D01*
X-238598Y-120825D01*
G37*
G36*
X-225725Y-120650D02*
X-227389Y-120650D01*
X-227389Y-109676D01*
X-231628Y-109676D01*
X-231628Y-108309D01*
X-221486Y-108309D01*
X-221486Y-109676D01*
X-225725Y-109676D01*
X-225725Y-120650D01*
G37*
G36*
X242601Y50800D02*
X237411Y50800D01*
X237411Y92772D01*
X225314Y80675D01*
X225314Y88004D01*
X240006Y102696D01*
X254698Y88004D01*
X254698Y80675D01*
X242601Y92772D01*
X242601Y50800D01*
G37*
G36*
X-237399Y-101600D02*
X-242589Y-101600D01*
X-242589Y-59628D01*
X-254686Y-71725D01*
X-254686Y-64396D01*
X-239994Y-49704D01*
X-225302Y-64396D01*
X-225302Y-71725D01*
X-237399Y-59628D01*
X-237399Y-101600D01*
G37*
G36*
X220950Y296121D02*
X208609Y296121D01*
X208609Y300202D01*
X208615Y300589D01*
X208634Y300964D01*
X208665Y301328D01*
X208708Y301681D01*
X208763Y302022D01*
X208830Y302353D01*
X208910Y302672D01*
X209002Y302980D01*
X209107Y303277D01*
X209223Y303562D01*
X209352Y303837D01*
X209494Y304100D01*
X209647Y304352D01*
X209813Y304593D01*
X209991Y304823D01*
X210181Y305042D01*
X210383Y305248D01*
X210595Y305441D01*
X210818Y305620D01*
X211050Y305787D01*
X211294Y305940D01*
X211547Y306080D01*
X211811Y306206D01*
X212085Y306319D01*
X212370Y306419D01*
X212665Y306505D01*
X212970Y306579D01*
X213286Y306639D01*
X213612Y306685D01*
X213949Y306718D01*
X214295Y306738D01*
X214653Y306745D01*
X215123Y306733D01*
X215577Y306699D01*
X216018Y306640D01*
X216443Y306559D01*
X216853Y306454D01*
X217248Y306326D01*
X217629Y306175D01*
X217994Y306001D01*
X218342Y305805D01*
X218668Y305589D01*
X218974Y305355D01*
X219259Y305101D01*
X219522Y304827D01*
X219765Y304534D01*
X219987Y304222D01*
X220188Y303890D01*
X220367Y303542D01*
X220521Y303180D01*
X220652Y302806D01*
X220760Y302418D01*
X220843Y302018D01*
X220902Y301604D01*
X220938Y301177D01*
X220950Y300737D01*
X220950Y296121D01*
G37*
%LPC*%
G36*
X219610Y297794D02*
X219610Y300544D01*
X219601Y300878D01*
X219573Y301202D01*
X219526Y301516D01*
X219461Y301819D01*
X219377Y302113D01*
X219275Y302396D01*
X219154Y302668D01*
X219014Y302931D01*
X218857Y303181D01*
X218684Y303415D01*
X218494Y303635D01*
X218287Y303840D01*
X218065Y304031D01*
X217825Y304206D01*
X217570Y304366D01*
X217298Y304512D01*
X217011Y304641D01*
X216712Y304753D01*
X216400Y304848D01*
X216076Y304925D01*
X215739Y304986D01*
X215389Y305029D01*
X215027Y305055D01*
X214653Y305063D01*
X214096Y305044D01*
X213573Y304985D01*
X213085Y304887D01*
X212631Y304749D01*
X212210Y304572D01*
X211824Y304356D01*
X211472Y304101D01*
X211154Y303807D01*
X210871Y303475D01*
X210627Y303108D01*
X210420Y302706D01*
X210250Y302268D01*
X210119Y301796D01*
X210025Y301288D01*
X209968Y300745D01*
X209949Y300167D01*
X209949Y297794D01*
X219610Y297794D01*
G37*
%LPD*%
G36*
X220950Y284152D02*
X208609Y284152D01*
X208609Y293515D01*
X209976Y293515D01*
X209976Y285825D01*
X213934Y285825D01*
X213934Y292990D01*
X215283Y292990D01*
X215283Y285825D01*
X219584Y285825D01*
X219584Y293874D01*
X220950Y293874D01*
X220950Y284152D01*
G37*
G36*
X220950Y308985D02*
X219610Y308985D01*
X219610Y312129D01*
X210116Y312129D01*
X212104Y309344D01*
X210615Y309344D01*
X208609Y312260D01*
X208609Y313714D01*
X219610Y313714D01*
X219610Y316718D01*
X220950Y316718D01*
X220950Y308985D01*
G37*
G36*
X220950Y274183D02*
X208609Y274183D01*
X208609Y275856D01*
X219584Y275856D01*
X219584Y282092D01*
X220950Y282092D01*
X220950Y274183D01*
G37*
G36*
X-49562Y448250D02*
X-54178Y448250D01*
X-54178Y460591D01*
X-50097Y460591D01*
X-49710Y460585D01*
X-49335Y460566D01*
X-48971Y460536D01*
X-48618Y460493D01*
X-48277Y460437D01*
X-47946Y460370D01*
X-47627Y460290D01*
X-47319Y460198D01*
X-47022Y460093D01*
X-46737Y459977D01*
X-46462Y459848D01*
X-46199Y459706D01*
X-45947Y459553D01*
X-45706Y459387D01*
X-45476Y459209D01*
X-45258Y459019D01*
X-45051Y458817D01*
X-44858Y458605D01*
X-44679Y458382D01*
X-44512Y458150D01*
X-44359Y457906D01*
X-44219Y457653D01*
X-44093Y457389D01*
X-43980Y457115D01*
X-43880Y456830D01*
X-43794Y456535D01*
X-43720Y456230D01*
X-43660Y455914D01*
X-43614Y455588D01*
X-43581Y455251D01*
X-43561Y454905D01*
X-43554Y454547D01*
X-43566Y454078D01*
X-43601Y453623D01*
X-43659Y453182D01*
X-43740Y452757D01*
X-43845Y452347D01*
X-43973Y451952D01*
X-44124Y451571D01*
X-44298Y451206D01*
X-44494Y450858D01*
X-44710Y450532D01*
X-44944Y450226D01*
X-45198Y449941D01*
X-45472Y449678D01*
X-45765Y449435D01*
X-46077Y449213D01*
X-46409Y449012D01*
X-46757Y448833D01*
X-47119Y448679D01*
X-47493Y448548D01*
X-47881Y448440D01*
X-48281Y448357D01*
X-48695Y448298D01*
X-49122Y448262D01*
X-49562Y448250D01*
G37*
%LPC*%
G36*
X-49755Y449590D02*
X-49421Y449599D01*
X-49097Y449627D01*
X-48783Y449674D01*
X-48480Y449739D01*
X-48186Y449823D01*
X-47903Y449925D01*
X-47631Y450046D01*
X-47368Y450186D01*
X-47119Y450343D01*
X-46884Y450516D01*
X-46664Y450706D01*
X-46459Y450913D01*
X-46268Y451135D01*
X-46093Y451375D01*
X-45933Y451630D01*
X-45787Y451902D01*
X-45658Y452189D01*
X-45546Y452488D01*
X-45451Y452800D01*
X-45374Y453124D01*
X-45313Y453461D01*
X-45270Y453811D01*
X-45244Y454173D01*
X-45236Y454547D01*
X-45255Y455104D01*
X-45314Y455627D01*
X-45412Y456115D01*
X-45550Y456570D01*
X-45727Y456990D01*
X-45943Y457376D01*
X-46198Y457728D01*
X-46492Y458046D01*
X-46824Y458329D01*
X-47191Y458573D01*
X-47593Y458780D01*
X-48031Y458950D01*
X-48503Y459081D01*
X-49011Y459175D01*
X-49554Y459232D01*
X-50132Y459251D01*
X-52505Y459251D01*
X-52505Y449590D01*
X-49755Y449590D01*
G37*
%LPD*%
G36*
X-56425Y448250D02*
X-66147Y448250D01*
X-66147Y460591D01*
X-56784Y460591D01*
X-56784Y459224D01*
X-64474Y459224D01*
X-64474Y455266D01*
X-57309Y455266D01*
X-57309Y453917D01*
X-64474Y453917D01*
X-64474Y449616D01*
X-56425Y449616D01*
X-56425Y448250D01*
G37*
G36*
X-33607Y448250D02*
X-41779Y448250D01*
X-41779Y449362D01*
X-41543Y449860D01*
X-41283Y450327D01*
X-40998Y450764D01*
X-40688Y451171D01*
X-40362Y451554D01*
X-40028Y451918D01*
X-39686Y452263D01*
X-39335Y452590D01*
X-38629Y453202D01*
X-37929Y453768D01*
X-37267Y454311D01*
X-36672Y454854D01*
X-36406Y455129D01*
X-36166Y455410D01*
X-35952Y455698D01*
X-35766Y455993D01*
X-35615Y456300D01*
X-35506Y456628D01*
X-35442Y456975D01*
X-35420Y457341D01*
X-35429Y457588D01*
X-35457Y457821D01*
X-35504Y458039D01*
X-35569Y458243D01*
X-35653Y458433D01*
X-35755Y458609D01*
X-35876Y458771D01*
X-36016Y458918D01*
X-36172Y459049D01*
X-36342Y459163D01*
X-36527Y459259D01*
X-36727Y459338D01*
X-36941Y459400D01*
X-37170Y459443D01*
X-37413Y459470D01*
X-37671Y459478D01*
X-37917Y459470D01*
X-38152Y459444D01*
X-38376Y459401D01*
X-38589Y459342D01*
X-38791Y459265D01*
X-38982Y459171D01*
X-39162Y459059D01*
X-39331Y458931D01*
X-39485Y458787D01*
X-39623Y458630D01*
X-39744Y458458D01*
X-39848Y458273D01*
X-39936Y458074D01*
X-40006Y457861D01*
X-40060Y457634D01*
X-40097Y457394D01*
X-41709Y457543D01*
X-41651Y457903D01*
X-41564Y458245D01*
X-41450Y458568D01*
X-41307Y458872D01*
X-41136Y459157D01*
X-40936Y459423D01*
X-40708Y459670D01*
X-40452Y459899D01*
X-40172Y460104D01*
X-39872Y460282D01*
X-39554Y460433D01*
X-39216Y460556D01*
X-38858Y460652D01*
X-38482Y460720D01*
X-38086Y460761D01*
X-37671Y460775D01*
X-37218Y460761D01*
X-36792Y460720D01*
X-36393Y460651D01*
X-36021Y460555D01*
X-35676Y460431D01*
X-35358Y460280D01*
X-35067Y460101D01*
X-34802Y459894D01*
X-34567Y459663D01*
X-34364Y459408D01*
X-34191Y459130D01*
X-34050Y458829D01*
X-33941Y458505D01*
X-33862Y458158D01*
X-33815Y457787D01*
X-33800Y457394D01*
X-33820Y457035D01*
X-33882Y456678D01*
X-33984Y456322D01*
X-34128Y455966D01*
X-34312Y455612D01*
X-34536Y455257D01*
X-34801Y454902D01*
X-35105Y454547D01*
X-35503Y454144D01*
X-36048Y453643D01*
X-36742Y453045D01*
X-37583Y452349D01*
X-38061Y451947D01*
X-38488Y451566D01*
X-38863Y451205D01*
X-39186Y450864D01*
X-39463Y450537D01*
X-39698Y450215D01*
X-39892Y449900D01*
X-40044Y449590D01*
X-33607Y449590D01*
X-33607Y448250D01*
G37*
G36*
X-68207Y448250D02*
X-76116Y448250D01*
X-76116Y460591D01*
X-74443Y460591D01*
X-74443Y449616D01*
X-68207Y449616D01*
X-68207Y448250D01*
G37*
G36*
X-208250Y185822D02*
X-220591Y185822D01*
X-220591Y189903D01*
X-220585Y190290D01*
X-220566Y190665D01*
X-220536Y191029D01*
X-220493Y191382D01*
X-220437Y191723D01*
X-220370Y192054D01*
X-220290Y192373D01*
X-220198Y192681D01*
X-220093Y192978D01*
X-219977Y193263D01*
X-219848Y193538D01*
X-219706Y193801D01*
X-219553Y194053D01*
X-219387Y194294D01*
X-219209Y194524D01*
X-219019Y194743D01*
X-218817Y194949D01*
X-218605Y195142D01*
X-218382Y195321D01*
X-218150Y195488D01*
X-217906Y195641D01*
X-217653Y195781D01*
X-217389Y195907D01*
X-217115Y196020D01*
X-216830Y196120D01*
X-216535Y196206D01*
X-216230Y196280D01*
X-215914Y196340D01*
X-215588Y196386D01*
X-215251Y196419D01*
X-214905Y196439D01*
X-214547Y196446D01*
X-214078Y196434D01*
X-213623Y196400D01*
X-213182Y196341D01*
X-212757Y196260D01*
X-212347Y196155D01*
X-211952Y196027D01*
X-211571Y195876D01*
X-211206Y195702D01*
X-210858Y195506D01*
X-210532Y195290D01*
X-210226Y195056D01*
X-209941Y194802D01*
X-209678Y194528D01*
X-209435Y194235D01*
X-209213Y193923D01*
X-209012Y193591D01*
X-208833Y193243D01*
X-208679Y192881D01*
X-208548Y192507D01*
X-208440Y192119D01*
X-208357Y191719D01*
X-208298Y191305D01*
X-208262Y190878D01*
X-208250Y190438D01*
X-208250Y185822D01*
G37*
%LPC*%
G36*
X-209590Y187495D02*
X-209590Y190245D01*
X-209599Y190579D01*
X-209627Y190903D01*
X-209674Y191217D01*
X-209739Y191520D01*
X-209823Y191814D01*
X-209925Y192097D01*
X-210046Y192369D01*
X-210186Y192632D01*
X-210343Y192882D01*
X-210516Y193116D01*
X-210706Y193336D01*
X-210913Y193541D01*
X-211135Y193732D01*
X-211375Y193907D01*
X-211630Y194067D01*
X-211902Y194213D01*
X-212189Y194342D01*
X-212488Y194454D01*
X-212800Y194549D01*
X-213124Y194626D01*
X-213461Y194687D01*
X-213811Y194730D01*
X-214173Y194756D01*
X-214547Y194764D01*
X-215104Y194745D01*
X-215627Y194686D01*
X-216115Y194588D01*
X-216570Y194450D01*
X-216990Y194273D01*
X-217376Y194057D01*
X-217728Y193802D01*
X-218046Y193508D01*
X-218329Y193176D01*
X-218573Y192809D01*
X-218780Y192407D01*
X-218950Y191969D01*
X-219081Y191497D01*
X-219175Y190989D01*
X-219232Y190446D01*
X-219251Y189868D01*
X-219251Y187495D01*
X-209590Y187495D01*
G37*
%LPD*%
G36*
X-208250Y173853D02*
X-220591Y173853D01*
X-220591Y183216D01*
X-219224Y183216D01*
X-219224Y175526D01*
X-215266Y175526D01*
X-215266Y182691D01*
X-213917Y182691D01*
X-213917Y175526D01*
X-209616Y175526D01*
X-209616Y183575D01*
X-208250Y183575D01*
X-208250Y173853D01*
G37*
G36*
X-211421Y198002D02*
X-211569Y199632D01*
X-211304Y199679D01*
X-211056Y199742D01*
X-210825Y199822D01*
X-210612Y199918D01*
X-210415Y200030D01*
X-210235Y200157D01*
X-210073Y200301D01*
X-209927Y200461D01*
X-209799Y200637D01*
X-209688Y200830D01*
X-209594Y201038D01*
X-209517Y201262D01*
X-209457Y201503D01*
X-209414Y201759D01*
X-209388Y202032D01*
X-209380Y202320D01*
X-209389Y202610D01*
X-209417Y202884D01*
X-209462Y203142D01*
X-209527Y203383D01*
X-209609Y203609D01*
X-209710Y203819D01*
X-209829Y204013D01*
X-209967Y204190D01*
X-210122Y204349D01*
X-210296Y204487D01*
X-210487Y204604D01*
X-210696Y204699D01*
X-210923Y204774D01*
X-211167Y204827D01*
X-211429Y204859D01*
X-211710Y204869D01*
X-211955Y204857D01*
X-212186Y204821D01*
X-212403Y204760D01*
X-212606Y204675D01*
X-212796Y204566D01*
X-212972Y204433D01*
X-213134Y204276D01*
X-213282Y204094D01*
X-213414Y203889D01*
X-213529Y203663D01*
X-213626Y203416D01*
X-213705Y203147D01*
X-213767Y202856D01*
X-213811Y202545D01*
X-213838Y202211D01*
X-213847Y201856D01*
X-213847Y200963D01*
X-215213Y200963D01*
X-215213Y201821D01*
X-215222Y202136D01*
X-215248Y202433D01*
X-215292Y202711D01*
X-215354Y202972D01*
X-215434Y203214D01*
X-215531Y203438D01*
X-215646Y203644D01*
X-215778Y203831D01*
X-215926Y203999D01*
X-216088Y204144D01*
X-216263Y204266D01*
X-216451Y204367D01*
X-216653Y204445D01*
X-216869Y204500D01*
X-217099Y204534D01*
X-217341Y204545D01*
X-217582Y204536D01*
X-217810Y204509D01*
X-218025Y204463D01*
X-218227Y204399D01*
X-218416Y204318D01*
X-218592Y204217D01*
X-218755Y204099D01*
X-218905Y203963D01*
X-219039Y203808D01*
X-219156Y203636D01*
X-219254Y203446D01*
X-219335Y203239D01*
X-219398Y203014D01*
X-219443Y202771D01*
X-219469Y202511D01*
X-219478Y202233D01*
X-219470Y201978D01*
X-219445Y201737D01*
X-219403Y201507D01*
X-219345Y201290D01*
X-219270Y201086D01*
X-219178Y200894D01*
X-219069Y200714D01*
X-218944Y200547D01*
X-218804Y200394D01*
X-218650Y200259D01*
X-218482Y200140D01*
X-218300Y200038D01*
X-218105Y199952D01*
X-217896Y199884D01*
X-217674Y199833D01*
X-217438Y199798D01*
X-217560Y198213D01*
X-217929Y198271D01*
X-218276Y198357D01*
X-218603Y198471D01*
X-218909Y198614D01*
X-219194Y198786D01*
X-219459Y198985D01*
X-219702Y199213D01*
X-219925Y199469D01*
X-220124Y199750D01*
X-220297Y200049D01*
X-220443Y200368D01*
X-220562Y200706D01*
X-220655Y201063D01*
X-220722Y201439D01*
X-220761Y201835D01*
X-220775Y202250D01*
X-220761Y202702D01*
X-220721Y203127D01*
X-220653Y203527D01*
X-220559Y203900D01*
X-220438Y204248D01*
X-220289Y204570D01*
X-220114Y204866D01*
X-219912Y205136D01*
X-219686Y205377D01*
X-219438Y205586D01*
X-219170Y205763D01*
X-218880Y205908D01*
X-218568Y206021D01*
X-218236Y206101D01*
X-217883Y206149D01*
X-217508Y206165D01*
X-217219Y206155D01*
X-216944Y206124D01*
X-216683Y206072D01*
X-216436Y206000D01*
X-216203Y205907D01*
X-215983Y205793D01*
X-215777Y205659D01*
X-215585Y205504D01*
X-215408Y205329D01*
X-215245Y205136D01*
X-215097Y204924D01*
X-214965Y204693D01*
X-214847Y204443D01*
X-214744Y204175D01*
X-214656Y203888D01*
X-214582Y203582D01*
X-214547Y203582D01*
X-214500Y203918D01*
X-214434Y204235D01*
X-214347Y204533D01*
X-214241Y204812D01*
X-214115Y205072D01*
X-213969Y205313D01*
X-213804Y205534D01*
X-213619Y205736D01*
X-213418Y205917D01*
X-213204Y206073D01*
X-212978Y206206D01*
X-212739Y206314D01*
X-212487Y206399D01*
X-212223Y206459D01*
X-211946Y206495D01*
X-211657Y206507D01*
X-211242Y206490D01*
X-210851Y206439D01*
X-210485Y206354D01*
X-210142Y206235D01*
X-209823Y206083D01*
X-209529Y205896D01*
X-209258Y205675D01*
X-209012Y205421D01*
X-208792Y205135D01*
X-208602Y204820D01*
X-208441Y204476D01*
X-208309Y204103D01*
X-208207Y203701D01*
X-208133Y203270D01*
X-208090Y202809D01*
X-208075Y202320D01*
X-208088Y201864D01*
X-208128Y201431D01*
X-208194Y201021D01*
X-208286Y200635D01*
X-208405Y200273D01*
X-208550Y199935D01*
X-208722Y199620D01*
X-208920Y199329D01*
X-209144Y199064D01*
X-209393Y198828D01*
X-209668Y198619D01*
X-209968Y198439D01*
X-210293Y198288D01*
X-210644Y198164D01*
X-211019Y198069D01*
X-211421Y198002D01*
G37*
G36*
X-208250Y163884D02*
X-220591Y163884D01*
X-220591Y165557D01*
X-209616Y165557D01*
X-209616Y171793D01*
X-208250Y171793D01*
X-208250Y163884D01*
G37*
G36*
X60737Y19050D02*
X56121Y19050D01*
X56121Y31391D01*
X60202Y31391D01*
X60589Y31385D01*
X60964Y31366D01*
X61328Y31336D01*
X61681Y31293D01*
X62022Y31237D01*
X62353Y31170D01*
X62672Y31090D01*
X62980Y30998D01*
X63277Y30893D01*
X63562Y30777D01*
X63837Y30648D01*
X64100Y30506D01*
X64352Y30353D01*
X64593Y30187D01*
X64823Y30009D01*
X65042Y29819D01*
X65248Y29617D01*
X65441Y29405D01*
X65620Y29182D01*
X65787Y28950D01*
X65940Y28706D01*
X66080Y28453D01*
X66206Y28189D01*
X66319Y27915D01*
X66419Y27630D01*
X66505Y27335D01*
X66579Y27030D01*
X66639Y26714D01*
X66685Y26388D01*
X66718Y26051D01*
X66738Y25705D01*
X66745Y25347D01*
X66733Y24878D01*
X66699Y24423D01*
X66640Y23982D01*
X66559Y23557D01*
X66454Y23147D01*
X66326Y22752D01*
X66175Y22371D01*
X66001Y22006D01*
X65805Y21658D01*
X65589Y21332D01*
X65355Y21026D01*
X65101Y20741D01*
X64827Y20478D01*
X64534Y20235D01*
X64222Y20013D01*
X63890Y19812D01*
X63542Y19633D01*
X63180Y19479D01*
X62806Y19348D01*
X62418Y19240D01*
X62018Y19157D01*
X61604Y19098D01*
X61177Y19062D01*
X60737Y19050D01*
G37*
%LPC*%
G36*
X60544Y20390D02*
X60878Y20399D01*
X61202Y20427D01*
X61516Y20474D01*
X61819Y20539D01*
X62113Y20623D01*
X62396Y20725D01*
X62668Y20846D01*
X62931Y20986D01*
X63181Y21143D01*
X63415Y21316D01*
X63635Y21506D01*
X63840Y21713D01*
X64031Y21935D01*
X64206Y22175D01*
X64366Y22430D01*
X64512Y22702D01*
X64641Y22989D01*
X64753Y23288D01*
X64848Y23600D01*
X64925Y23924D01*
X64986Y24261D01*
X65029Y24611D01*
X65055Y24973D01*
X65063Y25347D01*
X65044Y25904D01*
X64985Y26427D01*
X64887Y26915D01*
X64749Y27370D01*
X64572Y27790D01*
X64356Y28176D01*
X64101Y28528D01*
X63807Y28846D01*
X63475Y29129D01*
X63108Y29373D01*
X62706Y29580D01*
X62268Y29750D01*
X61796Y29881D01*
X61288Y29975D01*
X60745Y30032D01*
X60167Y30051D01*
X57794Y30051D01*
X57794Y20390D01*
X60544Y20390D01*
G37*
%LPD*%
G36*
X75335Y19050D02*
X73846Y19050D01*
X73846Y21844D01*
X68030Y21844D01*
X68030Y23070D01*
X73679Y31391D01*
X75335Y31391D01*
X75335Y23088D01*
X77069Y23088D01*
X77069Y21844D01*
X75335Y21844D01*
X75335Y19050D01*
G37*
%LPC*%
G36*
X73846Y23088D02*
X73846Y29613D01*
X73600Y29149D01*
X73259Y28571D01*
X70097Y23911D01*
X69624Y23263D01*
X69484Y23088D01*
X73846Y23088D01*
G37*
%LPD*%
G36*
X53874Y19050D02*
X44152Y19050D01*
X44152Y31391D01*
X53515Y31391D01*
X53515Y30024D01*
X45825Y30024D01*
X45825Y26066D01*
X52990Y26066D01*
X52990Y24717D01*
X45825Y24717D01*
X45825Y20416D01*
X53874Y20416D01*
X53874Y19050D01*
G37*
G36*
X42092Y19050D02*
X34183Y19050D01*
X34183Y31391D01*
X35856Y31391D01*
X35856Y20416D01*
X42092Y20416D01*
X42092Y19050D01*
G37*
G36*
X271750Y-294178D02*
X259409Y-294178D01*
X259409Y-290097D01*
X259415Y-289710D01*
X259434Y-289335D01*
X259465Y-288971D01*
X259508Y-288618D01*
X259563Y-288277D01*
X259630Y-287946D01*
X259710Y-287627D01*
X259802Y-287319D01*
X259907Y-287022D01*
X260023Y-286737D01*
X260152Y-286462D01*
X260294Y-286199D01*
X260447Y-285947D01*
X260613Y-285706D01*
X260791Y-285476D01*
X260981Y-285258D01*
X261183Y-285051D01*
X261395Y-284858D01*
X261618Y-284679D01*
X261850Y-284512D01*
X262094Y-284359D01*
X262347Y-284219D01*
X262611Y-284093D01*
X262885Y-283980D01*
X263170Y-283880D01*
X263465Y-283794D01*
X263770Y-283720D01*
X264086Y-283660D01*
X264412Y-283614D01*
X264749Y-283581D01*
X265095Y-283561D01*
X265453Y-283554D01*
X265923Y-283566D01*
X266377Y-283601D01*
X266818Y-283659D01*
X267243Y-283740D01*
X267653Y-283845D01*
X268048Y-283973D01*
X268429Y-284124D01*
X268794Y-284298D01*
X269142Y-284494D01*
X269468Y-284710D01*
X269774Y-284944D01*
X270059Y-285198D01*
X270322Y-285472D01*
X270565Y-285765D01*
X270787Y-286077D01*
X270988Y-286409D01*
X271167Y-286757D01*
X271321Y-287119D01*
X271452Y-287493D01*
X271560Y-287881D01*
X271643Y-288281D01*
X271702Y-288695D01*
X271738Y-289122D01*
X271750Y-289562D01*
X271750Y-294178D01*
G37*
%LPC*%
G36*
X270410Y-292505D02*
X270410Y-289755D01*
X270401Y-289421D01*
X270373Y-289097D01*
X270326Y-288783D01*
X270261Y-288480D01*
X270177Y-288186D01*
X270075Y-287903D01*
X269954Y-287631D01*
X269814Y-287368D01*
X269657Y-287119D01*
X269484Y-286884D01*
X269294Y-286664D01*
X269087Y-286459D01*
X268865Y-286268D01*
X268625Y-286093D01*
X268370Y-285933D01*
X268098Y-285787D01*
X267811Y-285658D01*
X267512Y-285546D01*
X267200Y-285451D01*
X266876Y-285374D01*
X266539Y-285313D01*
X266189Y-285270D01*
X265827Y-285244D01*
X265453Y-285236D01*
X264896Y-285255D01*
X264373Y-285314D01*
X263885Y-285412D01*
X263431Y-285550D01*
X263010Y-285727D01*
X262624Y-285943D01*
X262272Y-286198D01*
X261954Y-286492D01*
X261671Y-286824D01*
X261427Y-287191D01*
X261220Y-287593D01*
X261050Y-288031D01*
X260919Y-288503D01*
X260825Y-289011D01*
X260768Y-289554D01*
X260749Y-290132D01*
X260749Y-292505D01*
X270410Y-292505D01*
G37*
%LPD*%
G36*
X271750Y-306147D02*
X259409Y-306147D01*
X259409Y-296784D01*
X260776Y-296784D01*
X260776Y-304474D01*
X264734Y-304474D01*
X264734Y-297309D01*
X266083Y-297309D01*
X266083Y-304474D01*
X270384Y-304474D01*
X270384Y-296425D01*
X271750Y-296425D01*
X271750Y-306147D01*
G37*
G36*
X268991Y-281963D02*
X268807Y-280369D01*
X269029Y-280300D01*
X269236Y-280219D01*
X269429Y-280126D01*
X269608Y-280021D01*
X269772Y-279903D01*
X269923Y-279774D01*
X270059Y-279632D01*
X270180Y-279477D01*
X270287Y-279311D01*
X270380Y-279132D01*
X270459Y-278941D01*
X270523Y-278738D01*
X270573Y-278522D01*
X270609Y-278295D01*
X270631Y-278055D01*
X270638Y-277802D01*
X270626Y-277493D01*
X270590Y-277202D01*
X270530Y-276927D01*
X270446Y-276670D01*
X270338Y-276430D01*
X270207Y-276208D01*
X270051Y-276002D01*
X269871Y-275814D01*
X269671Y-275646D01*
X269452Y-275500D01*
X269216Y-275376D01*
X268962Y-275275D01*
X268689Y-275197D01*
X268399Y-275141D01*
X268091Y-275107D01*
X267765Y-275096D01*
X267481Y-275107D01*
X267210Y-275141D01*
X266954Y-275197D01*
X266712Y-275277D01*
X266483Y-275378D01*
X266269Y-275502D01*
X266068Y-275649D01*
X265882Y-275818D01*
X265713Y-276007D01*
X265568Y-276211D01*
X265444Y-276431D01*
X265343Y-276667D01*
X265265Y-276918D01*
X265208Y-277186D01*
X265175Y-277469D01*
X265164Y-277767D01*
X265176Y-278081D01*
X265214Y-278385D01*
X265277Y-278677D01*
X265365Y-278958D01*
X265483Y-279234D01*
X265637Y-279510D01*
X265825Y-279786D01*
X266048Y-280062D01*
X266048Y-281603D01*
X259409Y-281192D01*
X259409Y-274176D01*
X260749Y-274176D01*
X260749Y-279755D01*
X264664Y-279992D01*
X264480Y-279728D01*
X264320Y-279448D01*
X264184Y-279153D01*
X264073Y-278842D01*
X263987Y-278516D01*
X263925Y-278174D01*
X263888Y-277816D01*
X263876Y-277443D01*
X263893Y-276999D01*
X263943Y-276579D01*
X264026Y-276181D01*
X264143Y-275806D01*
X264293Y-275455D01*
X264477Y-275127D01*
X264694Y-274822D01*
X264945Y-274540D01*
X265222Y-274286D01*
X265519Y-274066D01*
X265837Y-273881D01*
X266175Y-273728D01*
X266533Y-273610D01*
X266912Y-273526D01*
X267311Y-273475D01*
X267730Y-273458D01*
X268205Y-273476D01*
X268654Y-273531D01*
X269078Y-273621D01*
X269475Y-273748D01*
X269846Y-273911D01*
X270192Y-274111D01*
X270511Y-274347D01*
X270804Y-274619D01*
X271067Y-274923D01*
X271295Y-275255D01*
X271487Y-275615D01*
X271645Y-276003D01*
X271768Y-276420D01*
X271855Y-276864D01*
X271908Y-277337D01*
X271925Y-277837D01*
X271913Y-278258D01*
X271878Y-278658D01*
X271819Y-279038D01*
X271737Y-279396D01*
X271631Y-279734D01*
X271502Y-280051D01*
X271349Y-280347D01*
X271172Y-280623D01*
X270973Y-280875D01*
X270753Y-281104D01*
X270512Y-281308D01*
X270250Y-281487D01*
X269967Y-281643D01*
X269663Y-281774D01*
X269337Y-281880D01*
X268991Y-281963D01*
G37*
G36*
X271750Y-316116D02*
X259409Y-316116D01*
X259409Y-314443D01*
X270384Y-314443D01*
X270384Y-308207D01*
X271750Y-308207D01*
X271750Y-316116D01*
G37*
G36*
X-49562Y-511750D02*
X-54178Y-511750D01*
X-54178Y-499409D01*
X-50097Y-499409D01*
X-49710Y-499415D01*
X-49335Y-499434D01*
X-48971Y-499465D01*
X-48618Y-499508D01*
X-48277Y-499563D01*
X-47946Y-499630D01*
X-47627Y-499710D01*
X-47319Y-499802D01*
X-47022Y-499907D01*
X-46737Y-500023D01*
X-46462Y-500152D01*
X-46199Y-500294D01*
X-45947Y-500447D01*
X-45706Y-500613D01*
X-45476Y-500791D01*
X-45258Y-500981D01*
X-45051Y-501183D01*
X-44858Y-501395D01*
X-44679Y-501618D01*
X-44512Y-501850D01*
X-44359Y-502094D01*
X-44219Y-502347D01*
X-44093Y-502611D01*
X-43980Y-502885D01*
X-43880Y-503170D01*
X-43794Y-503465D01*
X-43720Y-503770D01*
X-43660Y-504086D01*
X-43614Y-504412D01*
X-43581Y-504749D01*
X-43561Y-505095D01*
X-43554Y-505453D01*
X-43566Y-505923D01*
X-43601Y-506377D01*
X-43659Y-506818D01*
X-43740Y-507243D01*
X-43845Y-507653D01*
X-43973Y-508048D01*
X-44124Y-508429D01*
X-44298Y-508794D01*
X-44494Y-509142D01*
X-44710Y-509468D01*
X-44944Y-509774D01*
X-45198Y-510059D01*
X-45472Y-510322D01*
X-45765Y-510565D01*
X-46077Y-510787D01*
X-46409Y-510988D01*
X-46757Y-511167D01*
X-47119Y-511321D01*
X-47493Y-511452D01*
X-47881Y-511560D01*
X-48281Y-511643D01*
X-48695Y-511702D01*
X-49122Y-511738D01*
X-49562Y-511750D01*
G37*
%LPC*%
G36*
X-49755Y-510410D02*
X-49421Y-510401D01*
X-49097Y-510373D01*
X-48783Y-510326D01*
X-48480Y-510261D01*
X-48186Y-510177D01*
X-47903Y-510075D01*
X-47631Y-509954D01*
X-47368Y-509814D01*
X-47119Y-509657D01*
X-46884Y-509484D01*
X-46664Y-509294D01*
X-46459Y-509087D01*
X-46268Y-508865D01*
X-46093Y-508625D01*
X-45933Y-508370D01*
X-45787Y-508098D01*
X-45658Y-507811D01*
X-45546Y-507512D01*
X-45451Y-507200D01*
X-45374Y-506876D01*
X-45313Y-506539D01*
X-45270Y-506189D01*
X-45244Y-505827D01*
X-45236Y-505453D01*
X-45255Y-504896D01*
X-45314Y-504373D01*
X-45412Y-503885D01*
X-45550Y-503431D01*
X-45727Y-503010D01*
X-45943Y-502624D01*
X-46198Y-502272D01*
X-46492Y-501954D01*
X-46824Y-501671D01*
X-47191Y-501427D01*
X-47593Y-501220D01*
X-48031Y-501050D01*
X-48503Y-500919D01*
X-49011Y-500825D01*
X-49554Y-500768D01*
X-50132Y-500749D01*
X-52505Y-500749D01*
X-52505Y-510410D01*
X-49755Y-510410D01*
G37*
%LPD*%
G36*
X-37478Y-511925D02*
X-37735Y-511919D01*
X-37984Y-511901D01*
X-38459Y-511828D01*
X-38904Y-511707D01*
X-39317Y-511538D01*
X-39701Y-511320D01*
X-40053Y-511053D01*
X-40375Y-510738D01*
X-40666Y-510375D01*
X-40925Y-509965D01*
X-41149Y-509512D01*
X-41339Y-509014D01*
X-41494Y-508472D01*
X-41615Y-507886D01*
X-41701Y-507256D01*
X-41753Y-506582D01*
X-41770Y-505864D01*
X-41752Y-505086D01*
X-41698Y-504355D01*
X-41609Y-503669D01*
X-41483Y-503031D01*
X-41322Y-502439D01*
X-41124Y-501893D01*
X-40891Y-501394D01*
X-40623Y-500942D01*
X-40320Y-500540D01*
X-39988Y-500191D01*
X-39625Y-499896D01*
X-39232Y-499654D01*
X-38809Y-499467D01*
X-38585Y-499393D01*
X-38355Y-499333D01*
X-38116Y-499286D01*
X-37870Y-499252D01*
X-37617Y-499232D01*
X-37356Y-499225D01*
X-37014Y-499235D01*
X-36689Y-499265D01*
X-36381Y-499314D01*
X-36088Y-499382D01*
X-35811Y-499471D01*
X-35551Y-499579D01*
X-35306Y-499706D01*
X-35078Y-499854D01*
X-34866Y-500021D01*
X-34671Y-500207D01*
X-34491Y-500413D01*
X-34327Y-500639D01*
X-34180Y-500885D01*
X-34049Y-501150D01*
X-33934Y-501435D01*
X-33835Y-501739D01*
X-35341Y-502011D01*
X-35474Y-501657D01*
X-35642Y-501351D01*
X-35844Y-501093D01*
X-36081Y-500881D01*
X-36352Y-500716D01*
X-36658Y-500598D01*
X-36998Y-500528D01*
X-37373Y-500504D01*
X-37701Y-500524D01*
X-38009Y-500583D01*
X-38299Y-500681D01*
X-38570Y-500818D01*
X-38821Y-500995D01*
X-39054Y-501211D01*
X-39267Y-501466D01*
X-39462Y-501761D01*
X-39635Y-502093D01*
X-39786Y-502460D01*
X-39913Y-502862D01*
X-40017Y-503299D01*
X-40098Y-503772D01*
X-40156Y-504279D01*
X-40191Y-504822D01*
X-40202Y-505400D01*
X-39966Y-505025D01*
X-39685Y-504698D01*
X-39361Y-504419D01*
X-38993Y-504187D01*
X-38589Y-504005D01*
X-38157Y-503875D01*
X-37930Y-503830D01*
X-37696Y-503797D01*
X-37455Y-503777D01*
X-37207Y-503771D01*
X-36791Y-503788D01*
X-36397Y-503838D01*
X-36025Y-503921D01*
X-35675Y-504038D01*
X-35347Y-504188D01*
X-35041Y-504372D01*
X-34758Y-504589D01*
X-34496Y-504840D01*
X-34261Y-505118D01*
X-34057Y-505420D01*
X-33885Y-505744D01*
X-33744Y-506092D01*
X-33634Y-506463D01*
X-33556Y-506856D01*
X-33509Y-507273D01*
X-33493Y-507712D01*
X-33510Y-508188D01*
X-33559Y-508637D01*
X-33642Y-509061D01*
X-33758Y-509460D01*
X-33907Y-509832D01*
X-34089Y-510179D01*
X-34304Y-510500D01*
X-34553Y-510795D01*
X-34830Y-511060D01*
X-35133Y-511290D01*
X-35461Y-511484D01*
X-35814Y-511643D01*
X-36192Y-511766D01*
X-36596Y-511855D01*
X-37024Y-511908D01*
X-37478Y-511925D01*
G37*
%LPC*%
G36*
X-37531Y-510655D02*
X-37254Y-510643D01*
X-36992Y-510607D01*
X-36746Y-510547D01*
X-36515Y-510464D01*
X-36299Y-510356D01*
X-36099Y-510224D01*
X-35914Y-510068D01*
X-35744Y-509889D01*
X-35592Y-509688D01*
X-35460Y-509470D01*
X-35349Y-509233D01*
X-35258Y-508979D01*
X-35187Y-508707D01*
X-35136Y-508417D01*
X-35106Y-508108D01*
X-35096Y-507782D01*
X-35106Y-507457D01*
X-35137Y-507151D01*
X-35188Y-506864D01*
X-35260Y-506596D01*
X-35352Y-506347D01*
X-35465Y-506117D01*
X-35599Y-505907D01*
X-35753Y-505715D01*
X-35925Y-505545D01*
X-36114Y-505397D01*
X-36318Y-505272D01*
X-36539Y-505170D01*
X-36776Y-505091D01*
X-37029Y-505034D01*
X-37298Y-505000D01*
X-37583Y-504988D01*
X-37853Y-504998D01*
X-38109Y-505029D01*
X-38351Y-505079D01*
X-38581Y-505149D01*
X-38797Y-505240D01*
X-39000Y-505351D01*
X-39189Y-505481D01*
X-39366Y-505632D01*
X-39525Y-505801D01*
X-39663Y-505984D01*
X-39779Y-506183D01*
X-39875Y-506397D01*
X-39949Y-506627D01*
X-40002Y-506871D01*
X-40034Y-507131D01*
X-40044Y-507406D01*
X-40033Y-507755D01*
X-40000Y-508087D01*
X-39945Y-508404D01*
X-39868Y-508704D01*
X-39769Y-508988D01*
X-39648Y-509257D01*
X-39505Y-509509D01*
X-39339Y-509744D01*
X-39157Y-509958D01*
X-38962Y-510143D01*
X-38755Y-510299D01*
X-38535Y-510427D01*
X-38302Y-510527D01*
X-38058Y-510598D01*
X-37800Y-510641D01*
X-37531Y-510655D01*
G37*
%LPD*%
G36*
X-56425Y-511750D02*
X-66147Y-511750D01*
X-66147Y-499409D01*
X-56784Y-499409D01*
X-56784Y-500776D01*
X-64474Y-500776D01*
X-64474Y-504734D01*
X-57309Y-504734D01*
X-57309Y-506083D01*
X-64474Y-506083D01*
X-64474Y-510384D01*
X-56425Y-510384D01*
X-56425Y-511750D01*
G37*
G36*
X-68207Y-511750D02*
X-76116Y-511750D01*
X-76116Y-499409D01*
X-74443Y-499409D01*
X-74443Y-510384D01*
X-68207Y-510384D01*
X-68207Y-511750D01*
G37*
G36*
X-259050Y-292254D02*
X-271391Y-292254D01*
X-271391Y-288173D01*
X-271385Y-287786D01*
X-271366Y-287411D01*
X-271336Y-287047D01*
X-271293Y-286694D01*
X-271237Y-286353D01*
X-271170Y-286022D01*
X-271090Y-285703D01*
X-270998Y-285395D01*
X-270893Y-285098D01*
X-270777Y-284813D01*
X-270648Y-284538D01*
X-270506Y-284275D01*
X-270353Y-284023D01*
X-270187Y-283782D01*
X-270009Y-283552D01*
X-269819Y-283334D01*
X-269617Y-283127D01*
X-269405Y-282934D01*
X-269182Y-282755D01*
X-268950Y-282588D01*
X-268706Y-282435D01*
X-268453Y-282295D01*
X-268189Y-282169D01*
X-267915Y-282056D01*
X-267630Y-281956D01*
X-267335Y-281870D01*
X-267030Y-281796D01*
X-266714Y-281736D01*
X-266388Y-281690D01*
X-266051Y-281657D01*
X-265705Y-281637D01*
X-265347Y-281630D01*
X-264878Y-281642D01*
X-264423Y-281677D01*
X-263982Y-281735D01*
X-263557Y-281816D01*
X-263147Y-281921D01*
X-262752Y-282049D01*
X-262371Y-282200D01*
X-262006Y-282374D01*
X-261658Y-282570D01*
X-261332Y-282786D01*
X-261026Y-283020D01*
X-260741Y-283274D01*
X-260478Y-283548D01*
X-260235Y-283841D01*
X-260013Y-284153D01*
X-259812Y-284485D01*
X-259633Y-284833D01*
X-259479Y-285195D01*
X-259348Y-285569D01*
X-259240Y-285957D01*
X-259157Y-286357D01*
X-259098Y-286771D01*
X-259062Y-287198D01*
X-259050Y-287638D01*
X-259050Y-292254D01*
G37*
%LPC*%
G36*
X-260390Y-290581D02*
X-260390Y-287831D01*
X-260399Y-287497D01*
X-260427Y-287173D01*
X-260474Y-286859D01*
X-260539Y-286556D01*
X-260623Y-286262D01*
X-260725Y-285979D01*
X-260846Y-285707D01*
X-260986Y-285444D01*
X-261143Y-285195D01*
X-261316Y-284960D01*
X-261506Y-284740D01*
X-261713Y-284535D01*
X-261935Y-284344D01*
X-262175Y-284169D01*
X-262430Y-284009D01*
X-262702Y-283863D01*
X-262989Y-283734D01*
X-263288Y-283622D01*
X-263600Y-283527D01*
X-263924Y-283450D01*
X-264261Y-283389D01*
X-264611Y-283346D01*
X-264973Y-283320D01*
X-265347Y-283312D01*
X-265904Y-283331D01*
X-266427Y-283390D01*
X-266915Y-283488D01*
X-267370Y-283626D01*
X-267790Y-283803D01*
X-268176Y-284019D01*
X-268528Y-284274D01*
X-268846Y-284568D01*
X-269129Y-284900D01*
X-269373Y-285267D01*
X-269580Y-285669D01*
X-269750Y-286107D01*
X-269881Y-286579D01*
X-269975Y-287087D01*
X-270032Y-287630D01*
X-270051Y-288208D01*
X-270051Y-290581D01*
X-260390Y-290581D01*
G37*
%LPD*%
G36*
X-259050Y-304223D02*
X-271391Y-304223D01*
X-271391Y-294860D01*
X-270024Y-294860D01*
X-270024Y-302550D01*
X-266066Y-302550D01*
X-266066Y-295385D01*
X-264717Y-295385D01*
X-264717Y-302550D01*
X-260416Y-302550D01*
X-260416Y-294501D01*
X-259050Y-294501D01*
X-259050Y-304223D01*
G37*
G36*
X-259050Y-314192D02*
X-271391Y-314192D01*
X-271391Y-312519D01*
X-260416Y-312519D01*
X-260416Y-306283D01*
X-259050Y-306283D01*
X-259050Y-314192D01*
G37*
G36*
X-270051Y-279837D02*
X-271391Y-279837D01*
X-271391Y-271683D01*
X-270112Y-271683D01*
X-268745Y-272559D01*
X-267535Y-273297D01*
X-266481Y-273895D01*
X-265584Y-274354D01*
X-264768Y-274720D01*
X-263957Y-275036D01*
X-263152Y-275304D01*
X-262352Y-275524D01*
X-261548Y-275694D01*
X-260729Y-275816D01*
X-259897Y-275889D01*
X-259475Y-275907D01*
X-259050Y-275913D01*
X-259050Y-277560D01*
X-259645Y-277544D01*
X-260248Y-277497D01*
X-260859Y-277419D01*
X-261477Y-277309D01*
X-262104Y-277168D01*
X-262738Y-276996D01*
X-263380Y-276792D01*
X-264029Y-276557D01*
X-264695Y-276285D01*
X-265386Y-275972D01*
X-266102Y-275616D01*
X-266842Y-275218D01*
X-267607Y-274778D01*
X-268397Y-274297D01*
X-269211Y-273773D01*
X-270051Y-273207D01*
X-270051Y-279837D01*
G37*
D10*
X240000Y271242D02*
X239239Y271233D01*
X238479Y271205D01*
X237719Y271159D01*
X236961Y271094D01*
X236205Y271011D01*
X235451Y270909D01*
X234700Y270789D01*
X233952Y270651D01*
X233207Y270495D01*
X232466Y270320D01*
X231730Y270128D01*
X230999Y269917D01*
X230273Y269689D01*
X229553Y269444D01*
X228839Y269181D01*
X228132Y268900D01*
X227432Y268603D01*
X226739Y268288D01*
X226054Y267957D01*
X225378Y267609D01*
X224710Y267245D01*
X224051Y266864D01*
X223401Y266468D01*
X222762Y266056D01*
X222132Y265628D01*
X221514Y265186D01*
X220906Y264728D01*
X220309Y264256D01*
X219724Y263769D01*
X219152Y263268D01*
X218591Y262754D01*
X218043Y262226D01*
X217509Y261684D01*
X216987Y261130D01*
X216480Y260564D01*
X215986Y259985D01*
X215506Y259394D01*
X215041Y258792D01*
X214591Y258178D01*
X214156Y257554D01*
X213736Y256920D01*
X213332Y256275D01*
X212944Y255621D01*
X212571Y254958D01*
X212215Y254285D01*
X211876Y253604D01*
X211553Y252915D01*
X211247Y252219D01*
X210958Y251515D01*
X210686Y250804D01*
X210431Y250087D01*
X210194Y249364D01*
X209975Y248636D01*
X209774Y247902D01*
X209590Y247164D01*
X209425Y246421D01*
X209278Y245675D01*
X209149Y244925D01*
X209038Y244172D01*
X208945Y243417D01*
X208871Y242660D01*
X208816Y241901D01*
X208779Y241141D01*
X208760Y240380D01*
X208760Y239620D01*
X208779Y238859D01*
X208816Y238099D01*
X208871Y237340D01*
X208945Y236583D01*
X209038Y235828D01*
X209149Y235075D01*
X209278Y234325D01*
X209425Y233579D01*
X209590Y232836D01*
X209774Y232098D01*
X209975Y231364D01*
X210194Y230636D01*
X210431Y229913D01*
X210686Y229196D01*
X210958Y228485D01*
X211247Y227781D01*
X211553Y227085D01*
X211876Y226396D01*
X212215Y225715D01*
X212571Y225042D01*
X212944Y224379D01*
X213332Y223725D01*
X213736Y223080D01*
X214156Y222446D01*
X214591Y221822D01*
X215041Y221208D01*
X215506Y220606D01*
X215986Y220015D01*
X216480Y219436D01*
X216987Y218870D01*
X217509Y218316D01*
X218043Y217774D01*
X218591Y217246D01*
X219152Y216732D01*
X219724Y216231D01*
X220309Y215744D01*
X220906Y215272D01*
X221514Y214814D01*
X222132Y214372D01*
X222762Y213944D01*
X223401Y213532D01*
X224051Y213136D01*
X224710Y212755D01*
X225378Y212391D01*
X226054Y212043D01*
X226739Y211712D01*
X227432Y211397D01*
X228132Y211100D01*
X228839Y210819D01*
X229553Y210556D01*
X230273Y210311D01*
X230999Y210083D01*
X231730Y209872D01*
X232466Y209680D01*
X233207Y209505D01*
X233952Y209349D01*
X234700Y209211D01*
X235451Y209091D01*
X236205Y208989D01*
X236961Y208906D01*
X237719Y208841D01*
X238479Y208795D01*
X239239Y208767D01*
X240000Y208758D01*
X240761Y208767D01*
X241521Y208795D01*
X242281Y208841D01*
X243039Y208906D01*
X243795Y208989D01*
X244549Y209091D01*
X245300Y209211D01*
X246048Y209349D01*
X246793Y209505D01*
X247534Y209680D01*
X248270Y209872D01*
X249001Y210083D01*
X249727Y210311D01*
X250447Y210556D01*
X251161Y210819D01*
X251868Y211100D01*
X252568Y211397D01*
X253261Y211712D01*
X253946Y212043D01*
X254622Y212391D01*
X255290Y212755D01*
X255949Y213136D01*
X256599Y213532D01*
X257238Y213944D01*
X257868Y214372D01*
X258486Y214814D01*
X259094Y215272D01*
X259691Y215744D01*
X260276Y216231D01*
X260848Y216732D01*
X261409Y217246D01*
X261957Y217774D01*
X262491Y218316D01*
X263013Y218870D01*
X263520Y219436D01*
X264014Y220015D01*
X264494Y220606D01*
X264959Y221208D01*
X265409Y221822D01*
X265844Y222446D01*
X266264Y223080D01*
X266668Y223725D01*
X267056Y224379D01*
X267429Y225042D01*
X267785Y225715D01*
X268124Y226396D01*
X268447Y227085D01*
X268753Y227781D01*
X269042Y228485D01*
X269314Y229196D01*
X269569Y229913D01*
X269806Y230636D01*
X270025Y231364D01*
X270226Y232098D01*
X270410Y232836D01*
X270575Y233579D01*
X270722Y234325D01*
X270851Y235075D01*
X270962Y235828D01*
X271055Y236583D01*
X271129Y237340D01*
X271184Y238099D01*
X271221Y238859D01*
X271240Y239620D01*
X271240Y240380D01*
X271221Y241141D01*
X271184Y241901D01*
X271129Y242660D01*
X271055Y243417D01*
X270962Y244172D01*
X270851Y244925D01*
X270722Y245675D01*
X270575Y246421D01*
X270410Y247164D01*
X270226Y247902D01*
X270025Y248636D01*
X269806Y249364D01*
X269569Y250087D01*
X269314Y250804D01*
X269042Y251515D01*
X268753Y252219D01*
X268447Y252915D01*
X268124Y253604D01*
X267785Y254285D01*
X267429Y254958D01*
X267056Y255621D01*
X266668Y256275D01*
X266264Y256920D01*
X265844Y257554D01*
X265409Y258178D01*
X264959Y258792D01*
X264494Y259394D01*
X264014Y259985D01*
X263520Y260564D01*
X263013Y261130D01*
X262491Y261684D01*
X261957Y262226D01*
X261409Y262754D01*
X260848Y263268D01*
X260276Y263769D01*
X259691Y264256D01*
X259094Y264728D01*
X258486Y265186D01*
X257868Y265628D01*
X257238Y266056D01*
X256599Y266468D01*
X255949Y266864D01*
X255290Y267245D01*
X254622Y267609D01*
X253946Y267957D01*
X253261Y268288D01*
X252568Y268603D01*
X251868Y268900D01*
X251161Y269181D01*
X250447Y269444D01*
X249727Y269689D01*
X249001Y269917D01*
X248270Y270128D01*
X247534Y270320D01*
X246793Y270495D01*
X246048Y270651D01*
X245300Y270789D01*
X244549Y270909D01*
X243795Y271011D01*
X243039Y271094D01*
X242281Y271159D01*
X241521Y271205D01*
X240761Y271233D01*
X240000Y271242D01*
D11*
X252700Y284300D02*
X240000Y297000D01*
X227300Y284300D01*
X252700Y297000D02*
X240000Y309700D01*
X227300Y297000D01*
X240000Y195400D02*
X252700Y182700D01*
X240000Y195400D02*
X227300Y182700D01*
X240000Y182700D02*
X252700Y170000D01*
X240000Y182700D02*
X227300Y170000D01*
X252700Y284300D02*
X252700Y297000D01*
X227300Y297000D02*
X227300Y284300D01*
X252700Y182700D02*
X252700Y170000D01*
X227300Y170000D02*
X227300Y182700D01*
X227300Y220800D02*
X220950Y220800D01*
X227300Y233500D02*
X214600Y233500D01*
X214600Y258900D02*
X227300Y258900D01*
X227119Y246300D02*
X201900Y246300D01*
D10*
X31242Y480000D02*
X31233Y479239D01*
X31205Y478479D01*
X31159Y477719D01*
X31094Y476961D01*
X31011Y476205D01*
X30909Y475451D01*
X30789Y474700D01*
X30651Y473952D01*
X30495Y473207D01*
X30320Y472466D01*
X30128Y471730D01*
X29917Y470999D01*
X29689Y470273D01*
X29444Y469553D01*
X29181Y468839D01*
X28900Y468132D01*
X28603Y467432D01*
X28288Y466739D01*
X27957Y466054D01*
X27609Y465378D01*
X27245Y464710D01*
X26864Y464051D01*
X26468Y463401D01*
X26056Y462762D01*
X25628Y462132D01*
X25186Y461514D01*
X24728Y460906D01*
X24256Y460309D01*
X23769Y459724D01*
X23268Y459152D01*
X22754Y458591D01*
X22226Y458043D01*
X21684Y457509D01*
X21130Y456987D01*
X20564Y456480D01*
X19985Y455986D01*
X19394Y455506D01*
X18792Y455041D01*
X18178Y454591D01*
X17554Y454156D01*
X16920Y453736D01*
X16275Y453332D01*
X15621Y452944D01*
X14958Y452571D01*
X14285Y452215D01*
X13604Y451876D01*
X12915Y451553D01*
X12219Y451247D01*
X11515Y450958D01*
X10804Y450686D01*
X10087Y450431D01*
X9364Y450194D01*
X8636Y449975D01*
X7902Y449774D01*
X7164Y449590D01*
X6421Y449425D01*
X5675Y449278D01*
X4925Y449149D01*
X4172Y449038D01*
X3417Y448945D01*
X2660Y448871D01*
X1901Y448816D01*
X1141Y448779D01*
X380Y448760D01*
X-380Y448760D01*
X-1141Y448779D01*
X-1901Y448816D01*
X-2660Y448871D01*
X-3417Y448945D01*
X-4172Y449038D01*
X-4925Y449149D01*
X-5675Y449278D01*
X-6421Y449425D01*
X-7164Y449590D01*
X-7902Y449774D01*
X-8636Y449975D01*
X-9364Y450194D01*
X-10087Y450431D01*
X-10804Y450686D01*
X-11515Y450958D01*
X-12219Y451247D01*
X-12915Y451553D01*
X-13604Y451876D01*
X-14285Y452215D01*
X-14958Y452571D01*
X-15621Y452944D01*
X-16275Y453332D01*
X-16920Y453736D01*
X-17554Y454156D01*
X-18178Y454591D01*
X-18792Y455041D01*
X-19394Y455506D01*
X-19985Y455986D01*
X-20564Y456480D01*
X-21130Y456987D01*
X-21684Y457509D01*
X-22226Y458043D01*
X-22754Y458591D01*
X-23268Y459152D01*
X-23769Y459724D01*
X-24256Y460309D01*
X-24728Y460906D01*
X-25186Y461514D01*
X-25628Y462132D01*
X-26056Y462762D01*
X-26468Y463401D01*
X-26864Y464051D01*
X-27245Y464710D01*
X-27609Y465378D01*
X-27957Y466054D01*
X-28288Y466739D01*
X-28603Y467432D01*
X-28900Y468132D01*
X-29181Y468839D01*
X-29444Y469553D01*
X-29689Y470273D01*
X-29917Y470999D01*
X-30128Y471730D01*
X-30320Y472466D01*
X-30495Y473207D01*
X-30651Y473952D01*
X-30789Y474700D01*
X-30909Y475451D01*
X-31011Y476205D01*
X-31094Y476961D01*
X-31159Y477719D01*
X-31205Y478479D01*
X-31233Y479239D01*
X-31242Y480000D01*
X-31233Y480761D01*
X-31205Y481521D01*
X-31159Y482281D01*
X-31094Y483039D01*
X-31011Y483795D01*
X-30909Y484549D01*
X-30789Y485300D01*
X-30651Y486048D01*
X-30495Y486793D01*
X-30320Y487534D01*
X-30128Y488270D01*
X-29917Y489001D01*
X-29689Y489727D01*
X-29444Y490447D01*
X-29181Y491161D01*
X-28900Y491868D01*
X-28603Y492568D01*
X-28288Y493261D01*
X-27957Y493946D01*
X-27609Y494622D01*
X-27245Y495290D01*
X-26864Y495949D01*
X-26468Y496599D01*
X-26056Y497238D01*
X-25628Y497868D01*
X-25186Y498486D01*
X-24728Y499094D01*
X-24256Y499691D01*
X-23769Y500276D01*
X-23268Y500848D01*
X-22754Y501409D01*
X-22226Y501957D01*
X-21684Y502491D01*
X-21130Y503013D01*
X-20564Y503520D01*
X-19985Y504014D01*
X-19394Y504494D01*
X-18792Y504959D01*
X-18178Y505409D01*
X-17554Y505844D01*
X-16920Y506264D01*
X-16275Y506668D01*
X-15621Y507056D01*
X-14958Y507429D01*
X-14285Y507785D01*
X-13604Y508124D01*
X-12915Y508447D01*
X-12219Y508753D01*
X-11515Y509042D01*
X-10804Y509314D01*
X-10087Y509569D01*
X-9364Y509806D01*
X-8636Y510025D01*
X-7902Y510226D01*
X-7164Y510410D01*
X-6421Y510575D01*
X-5675Y510722D01*
X-4925Y510851D01*
X-4172Y510962D01*
X-3417Y511055D01*
X-2660Y511129D01*
X-1901Y511184D01*
X-1141Y511221D01*
X-380Y511240D01*
X380Y511240D01*
X1141Y511221D01*
X1901Y511184D01*
X2660Y511129D01*
X3417Y511055D01*
X4172Y510962D01*
X4925Y510851D01*
X5675Y510722D01*
X6421Y510575D01*
X7164Y510410D01*
X7902Y510226D01*
X8636Y510025D01*
X9364Y509806D01*
X10087Y509569D01*
X10804Y509314D01*
X11515Y509042D01*
X12219Y508753D01*
X12915Y508447D01*
X13604Y508124D01*
X14285Y507785D01*
X14958Y507429D01*
X15621Y507056D01*
X16275Y506668D01*
X16920Y506264D01*
X17554Y505844D01*
X18178Y505409D01*
X18792Y504959D01*
X19394Y504494D01*
X19985Y504014D01*
X20564Y503520D01*
X21130Y503013D01*
X21684Y502491D01*
X22226Y501957D01*
X22754Y501409D01*
X23268Y500848D01*
X23769Y500276D01*
X24256Y499691D01*
X24728Y499094D01*
X25186Y498486D01*
X25628Y497868D01*
X26056Y497238D01*
X26468Y496599D01*
X26864Y495949D01*
X27245Y495290D01*
X27609Y494622D01*
X27957Y493946D01*
X28288Y493261D01*
X28603Y492568D01*
X28900Y491868D01*
X29181Y491161D01*
X29444Y490447D01*
X29689Y489727D01*
X29917Y489001D01*
X30128Y488270D01*
X30320Y487534D01*
X30495Y486793D01*
X30651Y486048D01*
X30789Y485300D01*
X30909Y484549D01*
X31011Y483795D01*
X31094Y483039D01*
X31159Y482281D01*
X31205Y481521D01*
X31233Y480761D01*
X31242Y480000D01*
D11*
X-44300Y492700D02*
X-57000Y480000D01*
X-44300Y467300D01*
X-57000Y492700D02*
X-69700Y480000D01*
X-57000Y467300D01*
X44600Y480000D02*
X57300Y492700D01*
X44600Y480000D02*
X57300Y467300D01*
X57300Y480000D02*
X70000Y492700D01*
X57300Y480000D02*
X70000Y467300D01*
X-44300Y492700D02*
X-57000Y492700D01*
X-57000Y467300D02*
X-44300Y467300D01*
X57300Y492700D02*
X70000Y492700D01*
X70000Y467300D02*
X57300Y467300D01*
X19200Y467300D02*
X19200Y460950D01*
X6500Y467300D02*
X6500Y454600D01*
X-18900Y454600D02*
X-18900Y467300D01*
X-6300Y467119D02*
X-6300Y441900D01*
D10*
X-240000Y271242D02*
X-239239Y271233D01*
X-238479Y271205D01*
X-237719Y271159D01*
X-236961Y271094D01*
X-236205Y271011D01*
X-235451Y270909D01*
X-234700Y270789D01*
X-233952Y270651D01*
X-233207Y270495D01*
X-232466Y270320D01*
X-231730Y270128D01*
X-230999Y269917D01*
X-230273Y269689D01*
X-229553Y269444D01*
X-228839Y269181D01*
X-228132Y268900D01*
X-227432Y268603D01*
X-226739Y268288D01*
X-226054Y267957D01*
X-225378Y267609D01*
X-224710Y267245D01*
X-224051Y266864D01*
X-223401Y266468D01*
X-222762Y266056D01*
X-222132Y265628D01*
X-221514Y265186D01*
X-220906Y264728D01*
X-220309Y264256D01*
X-219724Y263769D01*
X-219152Y263268D01*
X-218591Y262754D01*
X-218043Y262226D01*
X-217509Y261684D01*
X-216987Y261130D01*
X-216480Y260564D01*
X-215986Y259985D01*
X-215506Y259394D01*
X-215041Y258792D01*
X-214591Y258178D01*
X-214156Y257554D01*
X-213736Y256920D01*
X-213332Y256275D01*
X-212944Y255621D01*
X-212571Y254958D01*
X-212215Y254285D01*
X-211876Y253604D01*
X-211553Y252915D01*
X-211247Y252219D01*
X-210958Y251515D01*
X-210686Y250804D01*
X-210431Y250087D01*
X-210194Y249364D01*
X-209975Y248636D01*
X-209774Y247902D01*
X-209590Y247164D01*
X-209425Y246421D01*
X-209278Y245675D01*
X-209149Y244925D01*
X-209038Y244172D01*
X-208945Y243417D01*
X-208871Y242660D01*
X-208816Y241901D01*
X-208779Y241141D01*
X-208760Y240380D01*
X-208760Y239620D01*
X-208779Y238859D01*
X-208816Y238099D01*
X-208871Y237340D01*
X-208945Y236583D01*
X-209038Y235828D01*
X-209149Y235075D01*
X-209278Y234325D01*
X-209425Y233579D01*
X-209590Y232836D01*
X-209774Y232098D01*
X-209975Y231364D01*
X-210194Y230636D01*
X-210431Y229913D01*
X-210686Y229196D01*
X-210958Y228485D01*
X-211247Y227781D01*
X-211553Y227085D01*
X-211876Y226396D01*
X-212215Y225715D01*
X-212571Y225042D01*
X-212944Y224379D01*
X-213332Y223725D01*
X-213736Y223080D01*
X-214156Y222446D01*
X-214591Y221822D01*
X-215041Y221208D01*
X-215506Y220606D01*
X-215986Y220015D01*
X-216480Y219436D01*
X-216987Y218870D01*
X-217509Y218316D01*
X-218043Y217774D01*
X-218591Y217246D01*
X-219152Y216732D01*
X-219724Y216231D01*
X-220309Y215744D01*
X-220906Y215272D01*
X-221514Y214814D01*
X-222132Y214372D01*
X-222762Y213944D01*
X-223401Y213532D01*
X-224051Y213136D01*
X-224710Y212755D01*
X-225378Y212391D01*
X-226054Y212043D01*
X-226739Y211712D01*
X-227432Y211397D01*
X-228132Y211100D01*
X-228839Y210819D01*
X-229553Y210556D01*
X-230273Y210311D01*
X-230999Y210083D01*
X-231730Y209872D01*
X-232466Y209680D01*
X-233207Y209505D01*
X-233952Y209349D01*
X-234700Y209211D01*
X-235451Y209091D01*
X-236205Y208989D01*
X-236961Y208906D01*
X-237719Y208841D01*
X-238479Y208795D01*
X-239239Y208767D01*
X-240000Y208758D01*
X-240761Y208767D01*
X-241521Y208795D01*
X-242281Y208841D01*
X-243039Y208906D01*
X-243795Y208989D01*
X-244549Y209091D01*
X-245300Y209211D01*
X-246048Y209349D01*
X-246793Y209505D01*
X-247534Y209680D01*
X-248270Y209872D01*
X-249001Y210083D01*
X-249727Y210311D01*
X-250447Y210556D01*
X-251161Y210819D01*
X-251868Y211100D01*
X-252568Y211397D01*
X-253261Y211712D01*
X-253946Y212043D01*
X-254622Y212391D01*
X-255290Y212755D01*
X-255949Y213136D01*
X-256599Y213532D01*
X-257238Y213944D01*
X-257868Y214372D01*
X-258486Y214814D01*
X-259094Y215272D01*
X-259691Y215744D01*
X-260276Y216231D01*
X-260848Y216732D01*
X-261409Y217246D01*
X-261957Y217774D01*
X-262491Y218316D01*
X-263013Y218870D01*
X-263520Y219436D01*
X-264014Y220015D01*
X-264494Y220606D01*
X-264959Y221208D01*
X-265409Y221822D01*
X-265844Y222446D01*
X-266264Y223080D01*
X-266668Y223725D01*
X-267056Y224379D01*
X-267429Y225042D01*
X-267785Y225715D01*
X-268124Y226396D01*
X-268447Y227085D01*
X-268753Y227781D01*
X-269042Y228485D01*
X-269314Y229196D01*
X-269569Y229913D01*
X-269806Y230636D01*
X-270025Y231364D01*
X-270226Y232098D01*
X-270410Y232836D01*
X-270575Y233579D01*
X-270722Y234325D01*
X-270851Y235075D01*
X-270962Y235828D01*
X-271055Y236583D01*
X-271129Y237340D01*
X-271184Y238099D01*
X-271221Y238859D01*
X-271240Y239620D01*
X-271240Y240380D01*
X-271221Y241141D01*
X-271184Y241901D01*
X-271129Y242660D01*
X-271055Y243417D01*
X-270962Y244172D01*
X-270851Y244925D01*
X-270722Y245675D01*
X-270575Y246421D01*
X-270410Y247164D01*
X-270226Y247902D01*
X-270025Y248636D01*
X-269806Y249364D01*
X-269569Y250087D01*
X-269314Y250804D01*
X-269042Y251515D01*
X-268753Y252219D01*
X-268447Y252915D01*
X-268124Y253604D01*
X-267785Y254285D01*
X-267429Y254958D01*
X-267056Y255621D01*
X-266668Y256275D01*
X-266264Y256920D01*
X-265844Y257554D01*
X-265409Y258178D01*
X-264959Y258792D01*
X-264494Y259394D01*
X-264014Y259985D01*
X-263520Y260564D01*
X-263013Y261130D01*
X-262491Y261684D01*
X-261957Y262226D01*
X-261409Y262754D01*
X-260848Y263268D01*
X-260276Y263769D01*
X-259691Y264256D01*
X-259094Y264728D01*
X-258486Y265186D01*
X-257868Y265628D01*
X-257238Y266056D01*
X-256599Y266468D01*
X-255949Y266864D01*
X-255290Y267245D01*
X-254622Y267609D01*
X-253946Y267957D01*
X-253261Y268288D01*
X-252568Y268603D01*
X-251868Y268900D01*
X-251161Y269181D01*
X-250447Y269444D01*
X-249727Y269689D01*
X-249001Y269917D01*
X-248270Y270128D01*
X-247534Y270320D01*
X-246793Y270495D01*
X-246048Y270651D01*
X-245300Y270789D01*
X-244549Y270909D01*
X-243795Y271011D01*
X-243039Y271094D01*
X-242281Y271159D01*
X-241521Y271205D01*
X-240761Y271233D01*
X-240000Y271242D01*
D11*
X-252700Y195700D02*
X-240000Y183000D01*
X-227300Y195700D01*
X-252700Y183000D02*
X-240000Y170300D01*
X-227300Y183000D01*
X-240000Y284600D02*
X-252700Y297300D01*
X-240000Y284600D02*
X-227300Y297300D01*
X-240000Y297300D02*
X-252700Y310000D01*
X-240000Y297300D02*
X-227300Y310000D01*
X-252700Y195700D02*
X-252700Y183000D01*
X-227300Y183000D02*
X-227300Y195700D01*
X-252700Y297300D02*
X-252700Y310000D01*
X-227300Y310000D02*
X-227300Y297300D01*
X-227300Y259200D02*
X-220950Y259200D01*
X-227300Y246500D02*
X-214600Y246500D01*
X-214600Y221100D02*
X-227300Y221100D01*
X-227119Y233700D02*
X-201900Y233700D01*
D10*
X-31242Y0D02*
X-31233Y761D01*
X-31205Y1521D01*
X-31159Y2281D01*
X-31094Y3039D01*
X-31011Y3795D01*
X-30909Y4549D01*
X-30789Y5300D01*
X-30651Y6048D01*
X-30495Y6793D01*
X-30320Y7534D01*
X-30128Y8270D01*
X-29917Y9001D01*
X-29689Y9727D01*
X-29444Y10447D01*
X-29181Y11161D01*
X-28900Y11868D01*
X-28603Y12568D01*
X-28288Y13261D01*
X-27957Y13946D01*
X-27609Y14622D01*
X-27245Y15290D01*
X-26864Y15949D01*
X-26468Y16599D01*
X-26056Y17238D01*
X-25628Y17868D01*
X-25186Y18486D01*
X-24728Y19094D01*
X-24256Y19691D01*
X-23769Y20276D01*
X-23268Y20848D01*
X-22754Y21409D01*
X-22226Y21957D01*
X-21684Y22491D01*
X-21130Y23013D01*
X-20564Y23520D01*
X-19985Y24014D01*
X-19394Y24494D01*
X-18792Y24959D01*
X-18178Y25409D01*
X-17554Y25844D01*
X-16920Y26264D01*
X-16275Y26668D01*
X-15621Y27056D01*
X-14958Y27429D01*
X-14285Y27785D01*
X-13604Y28124D01*
X-12915Y28447D01*
X-12219Y28753D01*
X-11515Y29042D01*
X-10804Y29314D01*
X-10087Y29569D01*
X-9364Y29806D01*
X-8636Y30025D01*
X-7902Y30226D01*
X-7164Y30410D01*
X-6421Y30575D01*
X-5675Y30722D01*
X-4925Y30851D01*
X-4172Y30962D01*
X-3417Y31055D01*
X-2660Y31129D01*
X-1901Y31184D01*
X-1141Y31221D01*
X-380Y31240D01*
X380Y31240D01*
X1141Y31221D01*
X1901Y31184D01*
X2660Y31129D01*
X3417Y31055D01*
X4172Y30962D01*
X4925Y30851D01*
X5675Y30722D01*
X6421Y30575D01*
X7164Y30410D01*
X7902Y30226D01*
X8636Y30025D01*
X9364Y29806D01*
X10087Y29569D01*
X10804Y29314D01*
X11515Y29042D01*
X12219Y28753D01*
X12915Y28447D01*
X13604Y28124D01*
X14285Y27785D01*
X14958Y27429D01*
X15621Y27056D01*
X16275Y26668D01*
X16920Y26264D01*
X17554Y25844D01*
X18178Y25409D01*
X18792Y24959D01*
X19394Y24494D01*
X19985Y24014D01*
X20564Y23520D01*
X21130Y23013D01*
X21684Y22491D01*
X22226Y21957D01*
X22754Y21409D01*
X23268Y20848D01*
X23769Y20276D01*
X24256Y19691D01*
X24728Y19094D01*
X25186Y18486D01*
X25628Y17868D01*
X26056Y17238D01*
X26468Y16599D01*
X26864Y15949D01*
X27245Y15290D01*
X27609Y14622D01*
X27957Y13946D01*
X28288Y13261D01*
X28603Y12568D01*
X28900Y11868D01*
X29181Y11161D01*
X29444Y10447D01*
X29689Y9727D01*
X29917Y9001D01*
X30128Y8270D01*
X30320Y7534D01*
X30495Y6793D01*
X30651Y6048D01*
X30789Y5300D01*
X30909Y4549D01*
X31011Y3795D01*
X31094Y3039D01*
X31159Y2281D01*
X31205Y1521D01*
X31233Y761D01*
X31242Y0D01*
X31233Y-761D01*
X31205Y-1521D01*
X31159Y-2281D01*
X31094Y-3039D01*
X31011Y-3795D01*
X30909Y-4549D01*
X30789Y-5300D01*
X30651Y-6048D01*
X30495Y-6793D01*
X30320Y-7534D01*
X30128Y-8270D01*
X29917Y-9001D01*
X29689Y-9727D01*
X29444Y-10447D01*
X29181Y-11161D01*
X28900Y-11868D01*
X28603Y-12568D01*
X28288Y-13261D01*
X27957Y-13946D01*
X27609Y-14622D01*
X27245Y-15290D01*
X26864Y-15949D01*
X26468Y-16599D01*
X26056Y-17238D01*
X25628Y-17868D01*
X25186Y-18486D01*
X24728Y-19094D01*
X24256Y-19691D01*
X23769Y-20276D01*
X23268Y-20848D01*
X22754Y-21409D01*
X22226Y-21957D01*
X21684Y-22491D01*
X21130Y-23013D01*
X20564Y-23520D01*
X19985Y-24014D01*
X19394Y-24494D01*
X18792Y-24959D01*
X18178Y-25409D01*
X17554Y-25844D01*
X16920Y-26264D01*
X16275Y-26668D01*
X15621Y-27056D01*
X14958Y-27429D01*
X14285Y-27785D01*
X13604Y-28124D01*
X12915Y-28447D01*
X12219Y-28753D01*
X11515Y-29042D01*
X10804Y-29314D01*
X10087Y-29569D01*
X9364Y-29806D01*
X8636Y-30025D01*
X7902Y-30226D01*
X7164Y-30410D01*
X6421Y-30575D01*
X5675Y-30722D01*
X4925Y-30851D01*
X4172Y-30962D01*
X3417Y-31055D01*
X2660Y-31129D01*
X1901Y-31184D01*
X1141Y-31221D01*
X380Y-31240D01*
X-380Y-31240D01*
X-1141Y-31221D01*
X-1901Y-31184D01*
X-2660Y-31129D01*
X-3417Y-31055D01*
X-4172Y-30962D01*
X-4925Y-30851D01*
X-5675Y-30722D01*
X-6421Y-30575D01*
X-7164Y-30410D01*
X-7902Y-30226D01*
X-8636Y-30025D01*
X-9364Y-29806D01*
X-10087Y-29569D01*
X-10804Y-29314D01*
X-11515Y-29042D01*
X-12219Y-28753D01*
X-12915Y-28447D01*
X-13604Y-28124D01*
X-14285Y-27785D01*
X-14958Y-27429D01*
X-15621Y-27056D01*
X-16275Y-26668D01*
X-16920Y-26264D01*
X-17554Y-25844D01*
X-18178Y-25409D01*
X-18792Y-24959D01*
X-19394Y-24494D01*
X-19985Y-24014D01*
X-20564Y-23520D01*
X-21130Y-23013D01*
X-21684Y-22491D01*
X-22226Y-21957D01*
X-22754Y-21409D01*
X-23268Y-20848D01*
X-23769Y-20276D01*
X-24256Y-19691D01*
X-24728Y-19094D01*
X-25186Y-18486D01*
X-25628Y-17868D01*
X-26056Y-17238D01*
X-26468Y-16599D01*
X-26864Y-15949D01*
X-27245Y-15290D01*
X-27609Y-14622D01*
X-27957Y-13946D01*
X-28288Y-13261D01*
X-28603Y-12568D01*
X-28900Y-11868D01*
X-29181Y-11161D01*
X-29444Y-10447D01*
X-29689Y-9727D01*
X-29917Y-9001D01*
X-30128Y-8270D01*
X-30320Y-7534D01*
X-30495Y-6793D01*
X-30651Y-6048D01*
X-30789Y-5300D01*
X-30909Y-4549D01*
X-31011Y-3795D01*
X-31094Y-3039D01*
X-31159Y-2281D01*
X-31205Y-1521D01*
X-31233Y-761D01*
X-31242Y0D01*
D11*
X44300Y-12700D02*
X57000Y0D01*
X44300Y12700D01*
X57000Y-12700D02*
X69700Y0D01*
X57000Y12700D01*
X-44600Y0D02*
X-57300Y-12700D01*
X-44600Y0D02*
X-57300Y12700D01*
X-57300Y0D02*
X-70000Y-12700D01*
X-57300Y0D02*
X-70000Y12700D01*
X44300Y-12700D02*
X57000Y-12700D01*
X57000Y12700D02*
X44300Y12700D01*
X-57300Y-12700D02*
X-70000Y-12700D01*
X-70000Y12700D02*
X-57300Y12700D01*
X-19200Y12700D02*
X-19200Y19050D01*
X-6500Y12700D02*
X-6500Y25400D01*
X18900Y25400D02*
X18900Y12700D01*
X6300Y12881D02*
X6300Y38100D01*
D10*
X240000Y-208758D02*
X240761Y-208767D01*
X241521Y-208795D01*
X242281Y-208841D01*
X243039Y-208906D01*
X243795Y-208989D01*
X244549Y-209091D01*
X245300Y-209211D01*
X246048Y-209349D01*
X246793Y-209505D01*
X247534Y-209680D01*
X248270Y-209872D01*
X249001Y-210083D01*
X249727Y-210311D01*
X250447Y-210556D01*
X251161Y-210819D01*
X251868Y-211100D01*
X252568Y-211397D01*
X253261Y-211712D01*
X253946Y-212043D01*
X254622Y-212391D01*
X255290Y-212755D01*
X255949Y-213136D01*
X256599Y-213532D01*
X257238Y-213944D01*
X257868Y-214372D01*
X258486Y-214814D01*
X259094Y-215272D01*
X259691Y-215744D01*
X260276Y-216231D01*
X260848Y-216732D01*
X261409Y-217246D01*
X261957Y-217774D01*
X262491Y-218316D01*
X263013Y-218870D01*
X263520Y-219436D01*
X264014Y-220015D01*
X264494Y-220606D01*
X264959Y-221208D01*
X265409Y-221822D01*
X265844Y-222446D01*
X266264Y-223080D01*
X266668Y-223725D01*
X267056Y-224379D01*
X267429Y-225042D01*
X267785Y-225715D01*
X268124Y-226396D01*
X268447Y-227085D01*
X268753Y-227781D01*
X269042Y-228485D01*
X269314Y-229196D01*
X269569Y-229913D01*
X269806Y-230636D01*
X270025Y-231364D01*
X270226Y-232098D01*
X270410Y-232836D01*
X270575Y-233579D01*
X270722Y-234325D01*
X270851Y-235075D01*
X270962Y-235828D01*
X271055Y-236583D01*
X271129Y-237340D01*
X271184Y-238099D01*
X271221Y-238859D01*
X271240Y-239620D01*
X271240Y-240380D01*
X271221Y-241141D01*
X271184Y-241901D01*
X271129Y-242660D01*
X271055Y-243417D01*
X270962Y-244172D01*
X270851Y-244925D01*
X270722Y-245675D01*
X270575Y-246421D01*
X270410Y-247164D01*
X270226Y-247902D01*
X270025Y-248636D01*
X269806Y-249364D01*
X269569Y-250087D01*
X269314Y-250804D01*
X269042Y-251515D01*
X268753Y-252219D01*
X268447Y-252915D01*
X268124Y-253604D01*
X267785Y-254285D01*
X267429Y-254958D01*
X267056Y-255621D01*
X266668Y-256275D01*
X266264Y-256920D01*
X265844Y-257554D01*
X265409Y-258178D01*
X264959Y-258792D01*
X264494Y-259394D01*
X264014Y-259985D01*
X263520Y-260564D01*
X263013Y-261130D01*
X262491Y-261684D01*
X261957Y-262226D01*
X261409Y-262754D01*
X260848Y-263268D01*
X260276Y-263769D01*
X259691Y-264256D01*
X259094Y-264728D01*
X258486Y-265186D01*
X257868Y-265628D01*
X257238Y-266056D01*
X256599Y-266468D01*
X255949Y-266864D01*
X255290Y-267245D01*
X254622Y-267609D01*
X253946Y-267957D01*
X253261Y-268288D01*
X252568Y-268603D01*
X251868Y-268900D01*
X251161Y-269181D01*
X250447Y-269444D01*
X249727Y-269689D01*
X249001Y-269917D01*
X248270Y-270128D01*
X247534Y-270320D01*
X246793Y-270495D01*
X246048Y-270651D01*
X245300Y-270789D01*
X244549Y-270909D01*
X243795Y-271011D01*
X243039Y-271094D01*
X242281Y-271159D01*
X241521Y-271205D01*
X240761Y-271233D01*
X240000Y-271242D01*
X239239Y-271233D01*
X238479Y-271205D01*
X237719Y-271159D01*
X236961Y-271094D01*
X236205Y-271011D01*
X235451Y-270909D01*
X234700Y-270789D01*
X233952Y-270651D01*
X233207Y-270495D01*
X232466Y-270320D01*
X231730Y-270128D01*
X230999Y-269917D01*
X230273Y-269689D01*
X229553Y-269444D01*
X228839Y-269181D01*
X228132Y-268900D01*
X227432Y-268603D01*
X226739Y-268288D01*
X226054Y-267957D01*
X225378Y-267609D01*
X224710Y-267245D01*
X224051Y-266864D01*
X223401Y-266468D01*
X222762Y-266056D01*
X222132Y-265628D01*
X221514Y-265186D01*
X220906Y-264728D01*
X220309Y-264256D01*
X219724Y-263769D01*
X219152Y-263268D01*
X218591Y-262754D01*
X218043Y-262226D01*
X217509Y-261684D01*
X216987Y-261130D01*
X216480Y-260564D01*
X215986Y-259985D01*
X215506Y-259394D01*
X215041Y-258792D01*
X214591Y-258178D01*
X214156Y-257554D01*
X213736Y-256920D01*
X213332Y-256275D01*
X212944Y-255621D01*
X212571Y-254958D01*
X212215Y-254285D01*
X211876Y-253604D01*
X211553Y-252915D01*
X211247Y-252219D01*
X210958Y-251515D01*
X210686Y-250804D01*
X210431Y-250087D01*
X210194Y-249364D01*
X209975Y-248636D01*
X209774Y-247902D01*
X209590Y-247164D01*
X209425Y-246421D01*
X209278Y-245675D01*
X209149Y-244925D01*
X209038Y-244172D01*
X208945Y-243417D01*
X208871Y-242660D01*
X208816Y-241901D01*
X208779Y-241141D01*
X208760Y-240380D01*
X208760Y-239620D01*
X208779Y-238859D01*
X208816Y-238099D01*
X208871Y-237340D01*
X208945Y-236583D01*
X209038Y-235828D01*
X209149Y-235075D01*
X209278Y-234325D01*
X209425Y-233579D01*
X209590Y-232836D01*
X209774Y-232098D01*
X209975Y-231364D01*
X210194Y-230636D01*
X210431Y-229913D01*
X210686Y-229196D01*
X210958Y-228485D01*
X211247Y-227781D01*
X211553Y-227085D01*
X211876Y-226396D01*
X212215Y-225715D01*
X212571Y-225042D01*
X212944Y-224379D01*
X213332Y-223725D01*
X213736Y-223080D01*
X214156Y-222446D01*
X214591Y-221822D01*
X215041Y-221208D01*
X215506Y-220606D01*
X215986Y-220015D01*
X216480Y-219436D01*
X216987Y-218870D01*
X217509Y-218316D01*
X218043Y-217774D01*
X218591Y-217246D01*
X219152Y-216732D01*
X219724Y-216231D01*
X220309Y-215744D01*
X220906Y-215272D01*
X221514Y-214814D01*
X222132Y-214372D01*
X222762Y-213944D01*
X223401Y-213532D01*
X224051Y-213136D01*
X224710Y-212755D01*
X225378Y-212391D01*
X226054Y-212043D01*
X226739Y-211712D01*
X227432Y-211397D01*
X228132Y-211100D01*
X228839Y-210819D01*
X229553Y-210556D01*
X230273Y-210311D01*
X230999Y-210083D01*
X231730Y-209872D01*
X232466Y-209680D01*
X233207Y-209505D01*
X233952Y-209349D01*
X234700Y-209211D01*
X235451Y-209091D01*
X236205Y-208989D01*
X236961Y-208906D01*
X237719Y-208841D01*
X238479Y-208795D01*
X239239Y-208767D01*
X240000Y-208758D01*
D11*
X227300Y-284300D02*
X240000Y-297000D01*
X252700Y-284300D01*
X227300Y-297000D02*
X240000Y-309700D01*
X252700Y-297000D01*
X240000Y-195400D02*
X227300Y-182700D01*
X240000Y-195400D02*
X252700Y-182700D01*
X240000Y-182700D02*
X227300Y-170000D01*
X240000Y-182700D02*
X252700Y-170000D01*
X227300Y-284300D02*
X227300Y-297000D01*
X252700Y-297000D02*
X252700Y-284300D01*
X227300Y-182700D02*
X227300Y-170000D01*
X252700Y-170000D02*
X252700Y-182700D01*
X252700Y-220800D02*
X259050Y-220800D01*
X252700Y-233500D02*
X265400Y-233500D01*
X265400Y-258900D02*
X252700Y-258900D01*
X252881Y-246300D02*
X278100Y-246300D01*
D10*
X31242Y-480000D02*
X31233Y-480761D01*
X31205Y-481521D01*
X31159Y-482281D01*
X31094Y-483039D01*
X31011Y-483795D01*
X30909Y-484549D01*
X30789Y-485300D01*
X30651Y-486048D01*
X30495Y-486793D01*
X30320Y-487534D01*
X30128Y-488270D01*
X29917Y-489001D01*
X29689Y-489727D01*
X29444Y-490447D01*
X29181Y-491161D01*
X28900Y-491868D01*
X28603Y-492568D01*
X28288Y-493261D01*
X27957Y-493946D01*
X27609Y-494622D01*
X27245Y-495290D01*
X26864Y-495949D01*
X26468Y-496599D01*
X26056Y-497238D01*
X25628Y-497868D01*
X25186Y-498486D01*
X24728Y-499094D01*
X24256Y-499691D01*
X23769Y-500276D01*
X23268Y-500848D01*
X22754Y-501409D01*
X22226Y-501957D01*
X21684Y-502491D01*
X21130Y-503013D01*
X20564Y-503520D01*
X19985Y-504014D01*
X19394Y-504494D01*
X18792Y-504959D01*
X18178Y-505409D01*
X17554Y-505844D01*
X16920Y-506264D01*
X16275Y-506668D01*
X15621Y-507056D01*
X14958Y-507429D01*
X14285Y-507785D01*
X13604Y-508124D01*
X12915Y-508447D01*
X12219Y-508753D01*
X11515Y-509042D01*
X10804Y-509314D01*
X10087Y-509569D01*
X9364Y-509806D01*
X8636Y-510025D01*
X7902Y-510226D01*
X7164Y-510410D01*
X6421Y-510575D01*
X5675Y-510722D01*
X4925Y-510851D01*
X4172Y-510962D01*
X3417Y-511055D01*
X2660Y-511129D01*
X1901Y-511184D01*
X1141Y-511221D01*
X380Y-511240D01*
X-380Y-511240D01*
X-1141Y-511221D01*
X-1901Y-511184D01*
X-2660Y-511129D01*
X-3417Y-511055D01*
X-4172Y-510962D01*
X-4925Y-510851D01*
X-5675Y-510722D01*
X-6421Y-510575D01*
X-7164Y-510410D01*
X-7902Y-510226D01*
X-8636Y-510025D01*
X-9364Y-509806D01*
X-10087Y-509569D01*
X-10804Y-509314D01*
X-11515Y-509042D01*
X-12219Y-508753D01*
X-12915Y-508447D01*
X-13604Y-508124D01*
X-14285Y-507785D01*
X-14958Y-507429D01*
X-15621Y-507056D01*
X-16275Y-506668D01*
X-16920Y-506264D01*
X-17554Y-505844D01*
X-18178Y-505409D01*
X-18792Y-504959D01*
X-19394Y-504494D01*
X-19985Y-504014D01*
X-20564Y-503520D01*
X-21130Y-503013D01*
X-21684Y-502491D01*
X-22226Y-501957D01*
X-22754Y-501409D01*
X-23268Y-500848D01*
X-23769Y-500276D01*
X-24256Y-499691D01*
X-24728Y-499094D01*
X-25186Y-498486D01*
X-25628Y-497868D01*
X-26056Y-497238D01*
X-26468Y-496599D01*
X-26864Y-495949D01*
X-27245Y-495290D01*
X-27609Y-494622D01*
X-27957Y-493946D01*
X-28288Y-493261D01*
X-28603Y-492568D01*
X-28900Y-491868D01*
X-29181Y-491161D01*
X-29444Y-490447D01*
X-29689Y-489727D01*
X-29917Y-489001D01*
X-30128Y-488270D01*
X-30320Y-487534D01*
X-30495Y-486793D01*
X-30651Y-486048D01*
X-30789Y-485300D01*
X-30909Y-484549D01*
X-31011Y-483795D01*
X-31094Y-483039D01*
X-31159Y-482281D01*
X-31205Y-481521D01*
X-31233Y-480761D01*
X-31242Y-480000D01*
X-31233Y-479239D01*
X-31205Y-478479D01*
X-31159Y-477719D01*
X-31094Y-476961D01*
X-31011Y-476205D01*
X-30909Y-475451D01*
X-30789Y-474700D01*
X-30651Y-473952D01*
X-30495Y-473207D01*
X-30320Y-472466D01*
X-30128Y-471730D01*
X-29917Y-470999D01*
X-29689Y-470273D01*
X-29444Y-469553D01*
X-29181Y-468839D01*
X-28900Y-468132D01*
X-28603Y-467432D01*
X-28288Y-466739D01*
X-27957Y-466054D01*
X-27609Y-465378D01*
X-27245Y-464710D01*
X-26864Y-464051D01*
X-26468Y-463401D01*
X-26056Y-462762D01*
X-25628Y-462132D01*
X-25186Y-461514D01*
X-24728Y-460906D01*
X-24256Y-460309D01*
X-23769Y-459724D01*
X-23268Y-459152D01*
X-22754Y-458591D01*
X-22226Y-458043D01*
X-21684Y-457509D01*
X-21130Y-456987D01*
X-20564Y-456480D01*
X-19985Y-455986D01*
X-19394Y-455506D01*
X-18792Y-455041D01*
X-18178Y-454591D01*
X-17554Y-454156D01*
X-16920Y-453736D01*
X-16275Y-453332D01*
X-15621Y-452944D01*
X-14958Y-452571D01*
X-14285Y-452215D01*
X-13604Y-451876D01*
X-12915Y-451553D01*
X-12219Y-451247D01*
X-11515Y-450958D01*
X-10804Y-450686D01*
X-10087Y-450431D01*
X-9364Y-450194D01*
X-8636Y-449975D01*
X-7902Y-449774D01*
X-7164Y-449590D01*
X-6421Y-449425D01*
X-5675Y-449278D01*
X-4925Y-449149D01*
X-4172Y-449038D01*
X-3417Y-448945D01*
X-2660Y-448871D01*
X-1901Y-448816D01*
X-1141Y-448779D01*
X-380Y-448760D01*
X380Y-448760D01*
X1141Y-448779D01*
X1901Y-448816D01*
X2660Y-448871D01*
X3417Y-448945D01*
X4172Y-449038D01*
X4925Y-449149D01*
X5675Y-449278D01*
X6421Y-449425D01*
X7164Y-449590D01*
X7902Y-449774D01*
X8636Y-449975D01*
X9364Y-450194D01*
X10087Y-450431D01*
X10804Y-450686D01*
X11515Y-450958D01*
X12219Y-451247D01*
X12915Y-451553D01*
X13604Y-451876D01*
X14285Y-452215D01*
X14958Y-452571D01*
X15621Y-452944D01*
X16275Y-453332D01*
X16920Y-453736D01*
X17554Y-454156D01*
X18178Y-454591D01*
X18792Y-455041D01*
X19394Y-455506D01*
X19985Y-455986D01*
X20564Y-456480D01*
X21130Y-456987D01*
X21684Y-457509D01*
X22226Y-458043D01*
X22754Y-458591D01*
X23268Y-459152D01*
X23769Y-459724D01*
X24256Y-460309D01*
X24728Y-460906D01*
X25186Y-461514D01*
X25628Y-462132D01*
X26056Y-462762D01*
X26468Y-463401D01*
X26864Y-464051D01*
X27245Y-464710D01*
X27609Y-465378D01*
X27957Y-466054D01*
X28288Y-466739D01*
X28603Y-467432D01*
X28900Y-468132D01*
X29181Y-468839D01*
X29444Y-469553D01*
X29689Y-470273D01*
X29917Y-470999D01*
X30128Y-471730D01*
X30320Y-472466D01*
X30495Y-473207D01*
X30651Y-473952D01*
X30789Y-474700D01*
X30909Y-475451D01*
X31011Y-476205D01*
X31094Y-476961D01*
X31159Y-477719D01*
X31205Y-478479D01*
X31233Y-479239D01*
X31242Y-480000D01*
D11*
X-44300Y-467300D02*
X-57000Y-480000D01*
X-44300Y-492700D01*
X-57000Y-467300D02*
X-69700Y-480000D01*
X-57000Y-492700D01*
X44600Y-480000D02*
X57300Y-467300D01*
X44600Y-480000D02*
X57300Y-492700D01*
X57300Y-480000D02*
X70000Y-467300D01*
X57300Y-480000D02*
X70000Y-492700D01*
X-44300Y-467300D02*
X-57000Y-467300D01*
X-57000Y-492700D02*
X-44300Y-492700D01*
X57300Y-467300D02*
X70000Y-467300D01*
X70000Y-492700D02*
X57300Y-492700D01*
X19200Y-492700D02*
X19200Y-499050D01*
X6500Y-492700D02*
X6500Y-505400D01*
X-18900Y-505400D02*
X-18900Y-492700D01*
X-6300Y-492881D02*
X-6300Y-518100D01*
D10*
X-240000Y-271242D02*
X-240761Y-271233D01*
X-241521Y-271205D01*
X-242281Y-271159D01*
X-243039Y-271094D01*
X-243795Y-271011D01*
X-244549Y-270909D01*
X-245300Y-270789D01*
X-246048Y-270651D01*
X-246793Y-270495D01*
X-247534Y-270320D01*
X-248270Y-270128D01*
X-249001Y-269917D01*
X-249727Y-269689D01*
X-250447Y-269444D01*
X-251161Y-269181D01*
X-251868Y-268900D01*
X-252568Y-268603D01*
X-253261Y-268288D01*
X-253946Y-267957D01*
X-254622Y-267609D01*
X-255290Y-267245D01*
X-255949Y-266864D01*
X-256599Y-266468D01*
X-257238Y-266056D01*
X-257868Y-265628D01*
X-258486Y-265186D01*
X-259094Y-264728D01*
X-259691Y-264256D01*
X-260276Y-263769D01*
X-260848Y-263268D01*
X-261409Y-262754D01*
X-261957Y-262226D01*
X-262491Y-261684D01*
X-263013Y-261130D01*
X-263520Y-260564D01*
X-264014Y-259985D01*
X-264494Y-259394D01*
X-264959Y-258792D01*
X-265409Y-258178D01*
X-265844Y-257554D01*
X-266264Y-256920D01*
X-266668Y-256275D01*
X-267056Y-255621D01*
X-267429Y-254958D01*
X-267785Y-254285D01*
X-268124Y-253604D01*
X-268447Y-252915D01*
X-268753Y-252219D01*
X-269042Y-251515D01*
X-269314Y-250804D01*
X-269569Y-250087D01*
X-269806Y-249364D01*
X-270025Y-248636D01*
X-270226Y-247902D01*
X-270410Y-247164D01*
X-270575Y-246421D01*
X-270722Y-245675D01*
X-270851Y-244925D01*
X-270962Y-244172D01*
X-271055Y-243417D01*
X-271129Y-242660D01*
X-271184Y-241901D01*
X-271221Y-241141D01*
X-271240Y-240380D01*
X-271240Y-239620D01*
X-271221Y-238859D01*
X-271184Y-238099D01*
X-271129Y-237340D01*
X-271055Y-236583D01*
X-270962Y-235828D01*
X-270851Y-235075D01*
X-270722Y-234325D01*
X-270575Y-233579D01*
X-270410Y-232836D01*
X-270226Y-232098D01*
X-270025Y-231364D01*
X-269806Y-230636D01*
X-269569Y-229913D01*
X-269314Y-229196D01*
X-269042Y-228485D01*
X-268753Y-227781D01*
X-268447Y-227085D01*
X-268124Y-226396D01*
X-267785Y-225715D01*
X-267429Y-225042D01*
X-267056Y-224379D01*
X-266668Y-223725D01*
X-266264Y-223080D01*
X-265844Y-222446D01*
X-265409Y-221822D01*
X-264959Y-221208D01*
X-264494Y-220606D01*
X-264014Y-220015D01*
X-263520Y-219436D01*
X-263013Y-218870D01*
X-262491Y-218316D01*
X-261957Y-217774D01*
X-261409Y-217246D01*
X-260848Y-216732D01*
X-260276Y-216231D01*
X-259691Y-215744D01*
X-259094Y-215272D01*
X-258486Y-214814D01*
X-257868Y-214372D01*
X-257238Y-213944D01*
X-256599Y-213532D01*
X-255949Y-213136D01*
X-255290Y-212755D01*
X-254622Y-212391D01*
X-253946Y-212043D01*
X-253261Y-211712D01*
X-252568Y-211397D01*
X-251868Y-211100D01*
X-251161Y-210819D01*
X-250447Y-210556D01*
X-249727Y-210311D01*
X-249001Y-210083D01*
X-248270Y-209872D01*
X-247534Y-209680D01*
X-246793Y-209505D01*
X-246048Y-209349D01*
X-245300Y-209211D01*
X-244549Y-209091D01*
X-243795Y-208989D01*
X-243039Y-208906D01*
X-242281Y-208841D01*
X-241521Y-208795D01*
X-240761Y-208767D01*
X-240000Y-208758D01*
X-239239Y-208767D01*
X-238479Y-208795D01*
X-237719Y-208841D01*
X-236961Y-208906D01*
X-236205Y-208989D01*
X-235451Y-209091D01*
X-234700Y-209211D01*
X-233952Y-209349D01*
X-233207Y-209505D01*
X-232466Y-209680D01*
X-231730Y-209872D01*
X-230999Y-210083D01*
X-230273Y-210311D01*
X-229553Y-210556D01*
X-228839Y-210819D01*
X-228132Y-211100D01*
X-227432Y-211397D01*
X-226739Y-211712D01*
X-226054Y-212043D01*
X-225378Y-212391D01*
X-224710Y-212755D01*
X-224051Y-213136D01*
X-223401Y-213532D01*
X-222762Y-213944D01*
X-222132Y-214372D01*
X-221514Y-214814D01*
X-220906Y-215272D01*
X-220309Y-215744D01*
X-219724Y-216231D01*
X-219152Y-216732D01*
X-218591Y-217246D01*
X-218043Y-217774D01*
X-217509Y-218316D01*
X-216987Y-218870D01*
X-216480Y-219436D01*
X-215986Y-220015D01*
X-215506Y-220606D01*
X-215041Y-221208D01*
X-214591Y-221822D01*
X-214156Y-222446D01*
X-213736Y-223080D01*
X-213332Y-223725D01*
X-212944Y-224379D01*
X-212571Y-225042D01*
X-212215Y-225715D01*
X-211876Y-226396D01*
X-211553Y-227085D01*
X-211247Y-227781D01*
X-210958Y-228485D01*
X-210686Y-229196D01*
X-210431Y-229913D01*
X-210194Y-230636D01*
X-209975Y-231364D01*
X-209774Y-232098D01*
X-209590Y-232836D01*
X-209425Y-233579D01*
X-209278Y-234325D01*
X-209149Y-235075D01*
X-209038Y-235828D01*
X-208945Y-236583D01*
X-208871Y-237340D01*
X-208816Y-238099D01*
X-208779Y-238859D01*
X-208760Y-239620D01*
X-208760Y-240380D01*
X-208779Y-241141D01*
X-208816Y-241901D01*
X-208871Y-242660D01*
X-208945Y-243417D01*
X-209038Y-244172D01*
X-209149Y-244925D01*
X-209278Y-245675D01*
X-209425Y-246421D01*
X-209590Y-247164D01*
X-209774Y-247902D01*
X-209975Y-248636D01*
X-210194Y-249364D01*
X-210431Y-250087D01*
X-210686Y-250804D01*
X-210958Y-251515D01*
X-211247Y-252219D01*
X-211553Y-252915D01*
X-211876Y-253604D01*
X-212215Y-254285D01*
X-212571Y-254958D01*
X-212944Y-255621D01*
X-213332Y-256275D01*
X-213736Y-256920D01*
X-214156Y-257554D01*
X-214591Y-258178D01*
X-215041Y-258792D01*
X-215506Y-259394D01*
X-215986Y-259985D01*
X-216480Y-260564D01*
X-216987Y-261130D01*
X-217509Y-261684D01*
X-218043Y-262226D01*
X-218591Y-262754D01*
X-219152Y-263268D01*
X-219724Y-263769D01*
X-220309Y-264256D01*
X-220906Y-264728D01*
X-221514Y-265186D01*
X-222132Y-265628D01*
X-222762Y-266056D01*
X-223401Y-266468D01*
X-224051Y-266864D01*
X-224710Y-267245D01*
X-225378Y-267609D01*
X-226054Y-267957D01*
X-226739Y-268288D01*
X-227432Y-268603D01*
X-228132Y-268900D01*
X-228839Y-269181D01*
X-229553Y-269444D01*
X-230273Y-269689D01*
X-230999Y-269917D01*
X-231730Y-270128D01*
X-232466Y-270320D01*
X-233207Y-270495D01*
X-233952Y-270651D01*
X-234700Y-270789D01*
X-235451Y-270909D01*
X-236205Y-271011D01*
X-236961Y-271094D01*
X-237719Y-271159D01*
X-238479Y-271205D01*
X-239239Y-271233D01*
X-240000Y-271242D01*
D11*
X-227300Y-195700D02*
X-240000Y-183000D01*
X-252700Y-195700D01*
X-227300Y-183000D02*
X-240000Y-170300D01*
X-252700Y-183000D01*
X-240000Y-284600D02*
X-227300Y-297300D01*
X-240000Y-284600D02*
X-252700Y-297300D01*
X-240000Y-297300D02*
X-227300Y-310000D01*
X-240000Y-297300D02*
X-252700Y-310000D01*
X-227300Y-195700D02*
X-227300Y-183000D01*
X-252700Y-183000D02*
X-252700Y-195700D01*
X-227300Y-297300D02*
X-227300Y-310000D01*
X-252700Y-310000D02*
X-252700Y-297300D01*
X-252700Y-259200D02*
X-259050Y-259200D01*
X-252700Y-246500D02*
X-265400Y-246500D01*
X-265400Y-221100D02*
X-252700Y-221100D01*
X-252881Y-233700D02*
X-278100Y-233700D01*
D10*
X199233Y126784D02*
X280767Y126784D01*
X280767Y205270D01*
X199233Y205270D01*
X199233Y126784D01*
D12*
X185263Y190500D02*
X185261Y190378D01*
X185255Y190256D01*
X185245Y190134D01*
X185232Y190013D01*
X185214Y189892D01*
X185193Y189772D01*
X185167Y189652D01*
X185138Y189534D01*
X185106Y189416D01*
X185069Y189299D01*
X185029Y189184D01*
X184985Y189070D01*
X184937Y188958D01*
X184886Y188847D01*
X184831Y188738D01*
X184773Y188630D01*
X184711Y188525D01*
X184646Y188422D01*
X184578Y188320D01*
X184506Y188221D01*
X184432Y188125D01*
X184354Y188030D01*
X184273Y187939D01*
X184190Y187849D01*
X184104Y187763D01*
X184014Y187680D01*
X183923Y187599D01*
X183828Y187521D01*
X183732Y187447D01*
X183633Y187375D01*
X183531Y187307D01*
X183428Y187242D01*
X183323Y187180D01*
X183215Y187122D01*
X183106Y187067D01*
X182995Y187016D01*
X182883Y186968D01*
X182769Y186924D01*
X182654Y186884D01*
X182537Y186847D01*
X182419Y186815D01*
X182301Y186786D01*
X182181Y186760D01*
X182061Y186739D01*
X181940Y186721D01*
X181819Y186708D01*
X181697Y186698D01*
X181575Y186692D01*
X181453Y186690D01*
X181331Y186692D01*
X181209Y186698D01*
X181087Y186708D01*
X180966Y186721D01*
X180845Y186739D01*
X180725Y186760D01*
X180605Y186786D01*
X180487Y186815D01*
X180369Y186847D01*
X180252Y186884D01*
X180137Y186924D01*
X180023Y186968D01*
X179911Y187016D01*
X179800Y187067D01*
X179691Y187122D01*
X179583Y187180D01*
X179478Y187242D01*
X179375Y187307D01*
X179273Y187375D01*
X179174Y187447D01*
X179078Y187521D01*
X178983Y187599D01*
X178892Y187680D01*
X178802Y187763D01*
X178716Y187849D01*
X178633Y187939D01*
X178552Y188030D01*
X178474Y188125D01*
X178400Y188221D01*
X178328Y188320D01*
X178260Y188422D01*
X178195Y188525D01*
X178133Y188630D01*
X178075Y188738D01*
X178020Y188847D01*
X177969Y188958D01*
X177921Y189070D01*
X177877Y189184D01*
X177837Y189299D01*
X177800Y189416D01*
X177768Y189534D01*
X177739Y189652D01*
X177713Y189772D01*
X177692Y189892D01*
X177674Y190013D01*
X177661Y190134D01*
X177651Y190256D01*
X177645Y190378D01*
X177643Y190500D01*
X177645Y190622D01*
X177651Y190744D01*
X177661Y190866D01*
X177674Y190987D01*
X177692Y191108D01*
X177713Y191228D01*
X177739Y191348D01*
X177768Y191466D01*
X177800Y191584D01*
X177837Y191701D01*
X177877Y191816D01*
X177921Y191930D01*
X177969Y192042D01*
X178020Y192153D01*
X178075Y192262D01*
X178133Y192370D01*
X178195Y192475D01*
X178260Y192578D01*
X178328Y192680D01*
X178400Y192779D01*
X178474Y192875D01*
X178552Y192970D01*
X178633Y193061D01*
X178716Y193151D01*
X178802Y193237D01*
X178892Y193320D01*
X178983Y193401D01*
X179078Y193479D01*
X179174Y193553D01*
X179273Y193625D01*
X179375Y193693D01*
X179478Y193758D01*
X179583Y193820D01*
X179691Y193878D01*
X179800Y193933D01*
X179911Y193984D01*
X180023Y194032D01*
X180137Y194076D01*
X180252Y194116D01*
X180369Y194153D01*
X180487Y194185D01*
X180605Y194214D01*
X180725Y194240D01*
X180845Y194261D01*
X180966Y194279D01*
X181087Y194292D01*
X181209Y194302D01*
X181331Y194308D01*
X181453Y194310D01*
X181575Y194308D01*
X181697Y194302D01*
X181819Y194292D01*
X181940Y194279D01*
X182061Y194261D01*
X182181Y194240D01*
X182301Y194214D01*
X182419Y194185D01*
X182537Y194153D01*
X182654Y194116D01*
X182769Y194076D01*
X182883Y194032D01*
X182995Y193984D01*
X183106Y193933D01*
X183215Y193878D01*
X183323Y193820D01*
X183428Y193758D01*
X183531Y193693D01*
X183633Y193625D01*
X183732Y193553D01*
X183828Y193479D01*
X183923Y193401D01*
X184014Y193320D01*
X184104Y193237D01*
X184190Y193151D01*
X184273Y193061D01*
X184354Y192970D01*
X184432Y192875D01*
X184506Y192779D01*
X184578Y192680D01*
X184646Y192578D01*
X184711Y192475D01*
X184773Y192370D01*
X184831Y192262D01*
X184886Y192153D01*
X184937Y192042D01*
X184985Y191930D01*
X185029Y191816D01*
X185069Y191701D01*
X185106Y191584D01*
X185138Y191466D01*
X185167Y191348D01*
X185193Y191228D01*
X185214Y191108D01*
X185232Y190987D01*
X185245Y190866D01*
X185255Y190744D01*
X185261Y190622D01*
X185263Y190500D01*
D10*
X-199233Y-126784D02*
X-280767Y-126784D01*
X-280767Y-205270D01*
X-199233Y-205270D01*
X-199233Y-126784D01*
D12*
X-185263Y-190500D02*
X-185261Y-190378D01*
X-185255Y-190256D01*
X-185245Y-190134D01*
X-185232Y-190013D01*
X-185214Y-189892D01*
X-185193Y-189772D01*
X-185167Y-189652D01*
X-185138Y-189534D01*
X-185106Y-189416D01*
X-185069Y-189299D01*
X-185029Y-189184D01*
X-184985Y-189070D01*
X-184937Y-188958D01*
X-184886Y-188847D01*
X-184831Y-188738D01*
X-184773Y-188630D01*
X-184711Y-188525D01*
X-184646Y-188422D01*
X-184578Y-188320D01*
X-184506Y-188221D01*
X-184432Y-188125D01*
X-184354Y-188030D01*
X-184273Y-187939D01*
X-184190Y-187849D01*
X-184104Y-187763D01*
X-184014Y-187680D01*
X-183923Y-187599D01*
X-183828Y-187521D01*
X-183732Y-187447D01*
X-183633Y-187375D01*
X-183531Y-187307D01*
X-183428Y-187242D01*
X-183323Y-187180D01*
X-183215Y-187122D01*
X-183106Y-187067D01*
X-182995Y-187016D01*
X-182883Y-186968D01*
X-182769Y-186924D01*
X-182654Y-186884D01*
X-182537Y-186847D01*
X-182419Y-186815D01*
X-182301Y-186786D01*
X-182181Y-186760D01*
X-182061Y-186739D01*
X-181940Y-186721D01*
X-181819Y-186708D01*
X-181697Y-186698D01*
X-181575Y-186692D01*
X-181453Y-186690D01*
X-181331Y-186692D01*
X-181209Y-186698D01*
X-181087Y-186708D01*
X-180966Y-186721D01*
X-180845Y-186739D01*
X-180725Y-186760D01*
X-180605Y-186786D01*
X-180487Y-186815D01*
X-180369Y-186847D01*
X-180252Y-186884D01*
X-180137Y-186924D01*
X-180023Y-186968D01*
X-179911Y-187016D01*
X-179800Y-187067D01*
X-179691Y-187122D01*
X-179583Y-187180D01*
X-179478Y-187242D01*
X-179375Y-187307D01*
X-179273Y-187375D01*
X-179174Y-187447D01*
X-179078Y-187521D01*
X-178983Y-187599D01*
X-178892Y-187680D01*
X-178802Y-187763D01*
X-178716Y-187849D01*
X-178633Y-187939D01*
X-178552Y-188030D01*
X-178474Y-188125D01*
X-178400Y-188221D01*
X-178328Y-188320D01*
X-178260Y-188422D01*
X-178195Y-188525D01*
X-178133Y-188630D01*
X-178075Y-188738D01*
X-178020Y-188847D01*
X-177969Y-188958D01*
X-177921Y-189070D01*
X-177877Y-189184D01*
X-177837Y-189299D01*
X-177800Y-189416D01*
X-177768Y-189534D01*
X-177739Y-189652D01*
X-177713Y-189772D01*
X-177692Y-189892D01*
X-177674Y-190013D01*
X-177661Y-190134D01*
X-177651Y-190256D01*
X-177645Y-190378D01*
X-177643Y-190500D01*
X-177645Y-190622D01*
X-177651Y-190744D01*
X-177661Y-190866D01*
X-177674Y-190987D01*
X-177692Y-191108D01*
X-177713Y-191228D01*
X-177739Y-191348D01*
X-177768Y-191466D01*
X-177800Y-191584D01*
X-177837Y-191701D01*
X-177877Y-191816D01*
X-177921Y-191930D01*
X-177969Y-192042D01*
X-178020Y-192153D01*
X-178075Y-192262D01*
X-178133Y-192370D01*
X-178195Y-192475D01*
X-178260Y-192578D01*
X-178328Y-192680D01*
X-178400Y-192779D01*
X-178474Y-192875D01*
X-178552Y-192970D01*
X-178633Y-193061D01*
X-178716Y-193151D01*
X-178802Y-193237D01*
X-178892Y-193320D01*
X-178983Y-193401D01*
X-179078Y-193479D01*
X-179174Y-193553D01*
X-179273Y-193625D01*
X-179375Y-193693D01*
X-179478Y-193758D01*
X-179583Y-193820D01*
X-179691Y-193878D01*
X-179800Y-193933D01*
X-179911Y-193984D01*
X-180023Y-194032D01*
X-180137Y-194076D01*
X-180252Y-194116D01*
X-180369Y-194153D01*
X-180487Y-194185D01*
X-180605Y-194214D01*
X-180725Y-194240D01*
X-180845Y-194261D01*
X-180966Y-194279D01*
X-181087Y-194292D01*
X-181209Y-194302D01*
X-181331Y-194308D01*
X-181453Y-194310D01*
X-181575Y-194308D01*
X-181697Y-194302D01*
X-181819Y-194292D01*
X-181940Y-194279D01*
X-182061Y-194261D01*
X-182181Y-194240D01*
X-182301Y-194214D01*
X-182419Y-194185D01*
X-182537Y-194153D01*
X-182654Y-194116D01*
X-182769Y-194076D01*
X-182883Y-194032D01*
X-182995Y-193984D01*
X-183106Y-193933D01*
X-183215Y-193878D01*
X-183323Y-193820D01*
X-183428Y-193758D01*
X-183531Y-193693D01*
X-183633Y-193625D01*
X-183732Y-193553D01*
X-183828Y-193479D01*
X-183923Y-193401D01*
X-184014Y-193320D01*
X-184104Y-193237D01*
X-184190Y-193151D01*
X-184273Y-193061D01*
X-184354Y-192970D01*
X-184432Y-192875D01*
X-184506Y-192779D01*
X-184578Y-192680D01*
X-184646Y-192578D01*
X-184711Y-192475D01*
X-184773Y-192370D01*
X-184831Y-192262D01*
X-184886Y-192153D01*
X-184937Y-192042D01*
X-184985Y-191930D01*
X-185029Y-191816D01*
X-185069Y-191701D01*
X-185106Y-191584D01*
X-185138Y-191466D01*
X-185167Y-191348D01*
X-185193Y-191228D01*
X-185214Y-191108D01*
X-185232Y-190987D01*
X-185245Y-190866D01*
X-185255Y-190744D01*
X-185261Y-190622D01*
X-185263Y-190500D01*
M02*
