<?xml version="1.0" encoding="UTF-8"?><svg id="_x30_" xmlns="http://www.w3.org/2000/svg" viewBox="0 0 1405 314.228"><defs><style>.cls-1{fill:none;stroke:#000;stroke-linecap:round;stroke-linejoin:round;}</style></defs><g id="LWPOLYLINE"><rect class="cls-1" x="1035.996" y="177.665" width="94.961" height="94.961"/></g><g id="LWPOLYLINE-2"><rect class="cls-1" x="1035.996" y="41.602" width="94.961" height="94.961"/></g><g id="CIRCLE"><circle class="cls-1" cx="1115.876" cy="21.051" r="4.608"/></g><g id="CIRCLE-2"><circle class="cls-1" cx="1051.076" cy="21.051" r="4.608"/></g><g id="CIRCLE-3"><circle class="cls-1" cx="1051.076" cy="293.177" r="4.608"/></g><g id="CIRCLE-4"><circle class="cls-1" cx="1115.876" cy="293.177" r="4.608"/></g><g id="CIRCLE-5"><circle class="cls-1" cx="1348.317" cy="293.177" r="4.608"/></g><g id="CIRCLE-6"><circle class="cls-1" cx="1283.517" cy="293.177" r="4.608"/></g><g id="CIRCLE-7"><circle class="cls-1" cx="1283.517" cy="21.051" r="4.608"/></g><g id="CIRCLE-8"><circle class="cls-1" cx="1348.317" cy="21.051" r="4.608"/></g><g id="LWPOLYLINE-3"><rect class="cls-1" x="1268.437" y="41.602" width="94.961" height="94.961"/></g><g id="LWPOLYLINE-4"><rect class="cls-1" x="1268.437" y="177.665" width="94.961" height="94.961"/></g><g id="LINE"><line class="cls-1" x1="1264.929" y1=".5" x2="1227.335" y2="38.095"/></g><g id="LINE-2"><line class="cls-1" x1="1366.905" y1=".5" x2="1264.929" y2=".5"/></g><g id="LINE-3"><line class="cls-1" x1="1404.5" y1="38.095" x2="1366.905" y2=".5"/></g><g id="LINE-4"><line class="cls-1" x1="1404.5" y1="140.071" x2="1404.5" y2="38.095"/></g><g id="LINE-5"><line class="cls-1" x1="1387.457" y1="157.114" x2="1404.5" y2="140.071"/></g><g id="LINE-6"><line class="cls-1" x1="1404.5" y1="174.158" x2="1387.457" y2="157.114"/></g><g id="LINE-7"><line class="cls-1" x1="1404.5" y1="276.134" x2="1404.5" y2="174.158"/></g><g id="LINE-8"><line class="cls-1" x1="1366.905" y1="313.728" x2="1404.5" y2="276.134"/></g><g id="LINE-9"><line class="cls-1" x1="1264.929" y1="313.728" x2="1366.905" y2="313.728"/></g><g id="LINE-10"><line class="cls-1" x1="1227.335" y1="276.134" x2="1264.929" y2="313.728"/></g><g id="LINE-11"><line class="cls-1" x1="1172.059" y1="276.134" x2="1227.335" y2="276.134"/></g><g id="LINE-12"><line class="cls-1" x1="1134.464" y1="313.728" x2="1172.059" y2="276.134"/></g><g id="LINE-13"><line class="cls-1" x1="1032.488" y1="313.728" x2="1134.464" y2="313.728"/></g><g id="LINE-14"><line class="cls-1" x1="994.894" y1="276.134" x2="1032.488" y2="313.728"/></g><g id="LINE-15"><line class="cls-1" x1="1032.488" y1=".5" x2="994.894" y2="38.095"/></g><g id="LINE-16"><line class="cls-1" x1="1134.464" y1=".5" x2="1032.488" y2=".5"/></g><g id="LINE-17"><line class="cls-1" x1="1172.059" y1="38.095" x2="1134.464" y2=".5"/></g><g id="LINE-18"><line class="cls-1" x1="1227.335" y1="38.095" x2="1172.059" y2="38.095"/></g><g id="CIRCLE-9"><circle class="cls-1" cx="951.098" cy="250.985" r="4.608"/></g><g id="LWPOLYLINE-5"><path class="cls-1" d="M962.091,58.485c-1.209.736-2.224,1.751-2.96,2.96-2.544,4.179-1.219,9.629,2.96,12.173s9.629,1.219,12.173-2.96c2.544-4.179,1.219-9.629-2.96-12.173v-2.76c0-2.544-2.062-4.606-4.606-4.606s-4.606,2.062-4.606,4.606v2.76Z"/></g><g id="CIRCLE-10"><circle class="cls-1" cx="961.898" cy="112.114" r="4.608"/></g><g id="CIRCLE-11"><circle class="cls-1" cx="940.298" cy="202.114" r="4.608"/></g><g id="LINE-19"><line class="cls-1" x1="994.894" y1="38.095" x2="907.303" y2="38.095"/></g><g id="LINE-20"><line class="cls-1" x1="907.303" y1="276.134" x2="994.894" y2="276.134"/></g><g id="LWPOLYLINE-6"><rect class="cls-1" x="771.24" y="41.602" width="94.961" height="94.961"/></g><g id="LWPOLYLINE-7"><rect class="cls-1" x="771.24" y="177.665" width="94.961" height="94.961"/></g><g id="CIRCLE-12"><circle class="cls-1" cx="786.32" cy="293.177" r="4.608"/></g><g id="CIRCLE-13"><circle class="cls-1" cx="851.12" cy="293.177" r="4.608"/></g><g id="CIRCLE-14"><circle class="cls-1" cx="851.12" cy="21.051" r="4.608"/></g><g id="CIRCLE-15"><circle class="cls-1" cx="786.32" cy="21.051" r="4.608"/></g><g id="CIRCLE-16"><circle class="cls-1" cx="553.88" cy="21.051" r="4.608"/></g><g id="CIRCLE-17"><circle class="cls-1" cx="618.68" cy="21.051" r="4.608"/></g><g id="CIRCLE-18"><circle class="cls-1" cx="618.68" cy="293.177" r="4.608"/></g><g id="CIRCLE-19"><circle class="cls-1" cx="553.88" cy="293.177" r="4.608"/></g><g id="LWPOLYLINE-8"><rect class="cls-1" x="538.799" y="177.665" width="94.961" height="94.961"/></g><g id="LWPOLYLINE-9"><rect class="cls-1" x="538.799" y="41.602" width="94.961" height="94.961"/></g><g id="LINE-21"><line class="cls-1" x1="637.268" y1="313.728" x2="674.862" y2="276.134"/></g><g id="LINE-22"><line class="cls-1" x1="535.292" y1="313.728" x2="637.268" y2="313.728"/></g><g id="LINE-23"><line class="cls-1" x1="497.697" y1="276.134" x2="535.292" y2="313.728"/></g><g id="LINE-24"><line class="cls-1" x1="535.292" y1=".5" x2="497.697" y2="38.095"/></g><g id="LINE-25"><line class="cls-1" x1="637.268" y1=".5" x2="535.292" y2=".5"/></g><g id="LINE-26"><line class="cls-1" x1="674.862" y1="38.095" x2="637.268" y2=".5"/></g><g id="LINE-27"><line class="cls-1" x1="730.138" y1="38.095" x2="674.862" y2="38.095"/></g><g id="LINE-28"><line class="cls-1" x1="767.732" y1=".5" x2="730.138" y2="38.095"/></g><g id="LINE-29"><line class="cls-1" x1="869.708" y1=".5" x2="767.732" y2=".5"/></g><g id="LINE-30"><line class="cls-1" x1="907.303" y1="38.095" x2="869.708" y2=".5"/></g><g id="LINE-31"><line class="cls-1" x1="869.708" y1="313.728" x2="907.303" y2="276.134"/></g><g id="LINE-32"><line class="cls-1" x1="767.732" y1="313.728" x2="869.708" y2="313.728"/></g><g id="LINE-33"><line class="cls-1" x1="730.138" y1="276.134" x2="767.732" y2="313.728"/></g><g id="LINE-34"><line class="cls-1" x1="674.862" y1="276.134" x2="730.138" y2="276.134"/></g><g id="CIRCLE-20"><circle class="cls-1" cx="475.502" cy="231.977" r="4.608"/></g><g id="LWPOLYLINE-10"><path class="cls-1" d="M464.894,58.485c-1.209.736-2.224,1.751-2.96,2.96-2.544,4.179-1.219,9.629,2.96,12.173s9.629,1.219,12.173-2.96c2.544-4.179,1.219-9.629-2.96-12.173v-2.76c0-2.544-2.062-4.606-4.606-4.606s-4.606,2.062-4.606,4.606v2.76Z"/></g><g id="CIRCLE-21"><circle class="cls-1" cx="443.102" cy="116.777" r="4.608"/></g><g id="CIRCLE-22"><circle class="cls-1" cx="475.502" cy="251.777" r="4.608"/></g><g id="LINE-35"><line class="cls-1" x1="497.697" y1="38.095" x2="410.106" y2="38.095"/></g><g id="LINE-36"><line class="cls-1" x1="410.106" y1="276.134" x2="497.697" y2="276.134"/></g><g id="LWPOLYLINE-11"><rect class="cls-1" x="274.043" y="41.602" width="94.961" height="94.961"/></g><g id="LWPOLYLINE-12"><rect class="cls-1" x="274.043" y="177.665" width="94.961" height="94.961"/></g><g id="CIRCLE-23"><circle class="cls-1" cx="289.124" cy="293.177" r="4.608"/></g><g id="CIRCLE-24"><circle class="cls-1" cx="353.924" cy="293.177" r="4.608"/></g><g id="CIRCLE-25"><circle class="cls-1" cx="353.924" cy="21.051" r="4.608"/></g><g id="CIRCLE-26"><circle class="cls-1" cx="289.124" cy="21.051" r="4.608"/></g><g id="CIRCLE-27"><circle class="cls-1" cx="56.683" cy="21.051" r="4.608"/></g><g id="CIRCLE-28"><circle class="cls-1" cx="121.483" cy="21.051" r="4.608"/></g><g id="CIRCLE-29"><circle class="cls-1" cx="121.483" cy="293.177" r="4.608"/></g><g id="CIRCLE-30"><circle class="cls-1" cx="56.683" cy="293.177" r="4.608"/></g><g id="LWPOLYLINE-13"><rect class="cls-1" x="41.602" y="177.665" width="94.961" height="94.961"/></g><g id="LWPOLYLINE-14"><rect class="cls-1" x="41.602" y="41.602" width="94.961" height="94.961"/></g><g id="LINE-37"><line class="cls-1" x1="140.071" y1="313.728" x2="177.665" y2="276.134"/></g><g id="LINE-38"><line class="cls-1" x1="38.095" y1="313.728" x2="140.071" y2="313.728"/></g><g id="LINE-39"><line class="cls-1" x1=".5" y1="276.134" x2="38.095" y2="313.728"/></g><g id="LINE-40"><line class="cls-1" x1=".5" y1="174.158" x2=".5" y2="276.134"/></g><g id="LINE-41"><line class="cls-1" x1="17.543" y1="157.114" x2=".5" y2="174.158"/></g><g id="LINE-42"><line class="cls-1" x1=".5" y1="140.071" x2="17.543" y2="157.114"/></g><g id="LINE-43"><line class="cls-1" x1=".5" y1="38.095" x2=".5" y2="140.071"/></g><g id="LINE-44"><line class="cls-1" x1="38.095" y1=".5" x2=".5" y2="38.095"/></g><g id="LINE-45"><line class="cls-1" x1="140.071" y1=".5" x2="38.095" y2=".5"/></g><g id="LINE-46"><line class="cls-1" x1="177.665" y1="38.095" x2="140.071" y2=".5"/></g><g id="LINE-47"><line class="cls-1" x1="232.941" y1="38.095" x2="177.665" y2="38.095"/></g><g id="LINE-48"><line class="cls-1" x1="270.536" y1=".5" x2="232.941" y2="38.095"/></g><g id="LINE-49"><line class="cls-1" x1="372.512" y1=".5" x2="270.536" y2=".5"/></g><g id="LINE-50"><line class="cls-1" x1="410.106" y1="38.095" x2="372.512" y2=".5"/></g><g id="LINE-51"><line class="cls-1" x1="372.512" y1="313.728" x2="410.106" y2="276.134"/></g><g id="LINE-52"><line class="cls-1" x1="270.536" y1="313.728" x2="372.512" y2="313.728"/></g><g id="LINE-53"><line class="cls-1" x1="232.941" y1="276.134" x2="270.536" y2="313.728"/></g><g id="LINE-54"><line class="cls-1" x1="177.665" y1="276.134" x2="232.941" y2="276.134"/></g></svg>