G04 EAGLE Gerber RS-274X export*
G75*
%MOMM*%
%FSLAX34Y34*%
%LPD*%
%INTop Copper*%
%IPPOS*%
%AMOC8*
5,1,8,0,0,1.08239X$1,22.5*%
G01*
G04 Define Apertures*
%ADD10R,1.143000X1.143000*%
%ADD11C,1.143000*%
%ADD12C,2.250000*%
%ADD13R,1.200000X1.200000*%
%ADD14C,1.200000*%
%ADD15C,1.828800*%
%ADD16C,1.219200*%
%ADD17C,2.540000*%
%ADD18C,0.152400*%
G36*
X-89107Y-356062D02*
X-89404Y-356122D01*
X-102816Y-356122D01*
X-103091Y-356071D01*
X-103346Y-355908D01*
X-103518Y-355658D01*
X-103578Y-355360D01*
X-103578Y-166757D01*
X-105241Y-162742D01*
X-115855Y-152128D01*
X-116018Y-151887D01*
X-116078Y-151590D01*
X-116078Y-104985D01*
X-116027Y-104710D01*
X-115863Y-104455D01*
X-115613Y-104283D01*
X-115316Y-104223D01*
X-112178Y-104223D01*
X-108257Y-102599D01*
X-105256Y-99598D01*
X-103632Y-95677D01*
X-103632Y-91433D01*
X-105256Y-87512D01*
X-108257Y-84511D01*
X-112178Y-82887D01*
X-115316Y-82887D01*
X-115591Y-82836D01*
X-115846Y-82672D01*
X-116018Y-82422D01*
X-116078Y-82125D01*
X-116078Y-79585D01*
X-116027Y-79310D01*
X-115863Y-79055D01*
X-115613Y-78883D01*
X-115316Y-78823D01*
X-112178Y-78823D01*
X-108257Y-77199D01*
X-105256Y-74198D01*
X-103632Y-70277D01*
X-103632Y-66033D01*
X-105256Y-62112D01*
X-108257Y-59111D01*
X-112178Y-57487D01*
X-115316Y-57487D01*
X-115591Y-57436D01*
X-115846Y-57272D01*
X-116018Y-57022D01*
X-116078Y-56725D01*
X-116078Y-54185D01*
X-116027Y-53910D01*
X-115863Y-53655D01*
X-115613Y-53483D01*
X-115316Y-53423D01*
X-112178Y-53423D01*
X-108257Y-51799D01*
X-105256Y-48798D01*
X-103632Y-44877D01*
X-103632Y-40633D01*
X-104993Y-37346D01*
X-105051Y-37067D01*
X-104996Y-36769D01*
X-104828Y-36516D01*
X-86614Y-18302D01*
X-86614Y432D01*
X-86558Y718D01*
X-86391Y971D01*
X-67564Y19798D01*
X-67564Y210947D01*
X-79006Y222389D01*
X-79167Y222625D01*
X-79230Y222922D01*
X-79172Y223220D01*
X-78548Y224725D01*
X-78548Y227719D01*
X-79693Y230484D01*
X-81810Y232601D01*
X-84575Y233746D01*
X-87569Y233746D01*
X-90334Y232601D01*
X-92451Y230484D01*
X-93596Y227719D01*
X-93596Y224725D01*
X-92451Y221960D01*
X-90334Y219843D01*
X-87569Y218698D01*
X-84575Y218698D01*
X-83070Y219322D01*
X-82790Y219380D01*
X-82492Y219324D01*
X-82239Y219156D01*
X-72359Y209276D01*
X-72196Y209035D01*
X-72136Y208737D01*
X-72136Y22008D01*
X-72192Y21722D01*
X-72359Y21469D01*
X-91186Y2642D01*
X-91186Y-16092D01*
X-91242Y-16378D01*
X-91409Y-16631D01*
X-108061Y-33283D01*
X-108297Y-33444D01*
X-108594Y-33506D01*
X-108891Y-33448D01*
X-112178Y-32087D01*
X-115316Y-32087D01*
X-115591Y-32036D01*
X-115846Y-31872D01*
X-116018Y-31622D01*
X-116078Y-31325D01*
X-116078Y-28785D01*
X-116027Y-28510D01*
X-115863Y-28255D01*
X-115613Y-28083D01*
X-115316Y-28023D01*
X-112178Y-28023D01*
X-108257Y-26399D01*
X-105256Y-23398D01*
X-103632Y-19477D01*
X-103632Y-15233D01*
X-104993Y-11946D01*
X-105051Y-11667D01*
X-104996Y-11369D01*
X-104828Y-11116D01*
X-96987Y-3274D01*
X-96987Y10937D01*
X-96931Y11223D01*
X-96763Y11476D01*
X-83786Y24453D01*
X-83786Y198516D01*
X-83733Y198796D01*
X-83567Y199050D01*
X-83316Y199220D01*
X-81810Y199843D01*
X-79693Y201960D01*
X-78548Y204725D01*
X-78548Y207719D01*
X-79693Y210484D01*
X-81810Y212601D01*
X-84575Y213746D01*
X-87569Y213746D01*
X-90334Y212601D01*
X-92451Y210484D01*
X-93596Y207719D01*
X-93596Y204725D01*
X-92451Y201960D01*
X-90334Y199843D01*
X-88828Y199220D01*
X-88590Y199063D01*
X-88418Y198813D01*
X-88358Y198516D01*
X-88358Y26663D01*
X-88414Y26377D01*
X-88581Y26124D01*
X-101559Y13146D01*
X-101559Y-1065D01*
X-101614Y-1351D01*
X-101782Y-1604D01*
X-108061Y-7883D01*
X-108297Y-8044D01*
X-108594Y-8106D01*
X-108891Y-8048D01*
X-112178Y-6687D01*
X-115316Y-6687D01*
X-115591Y-6636D01*
X-115846Y-6472D01*
X-116018Y-6222D01*
X-116078Y-5925D01*
X-116078Y-3385D01*
X-116027Y-3110D01*
X-115863Y-2855D01*
X-115613Y-2683D01*
X-115316Y-2623D01*
X-112178Y-2623D01*
X-108257Y-999D01*
X-105256Y2002D01*
X-103632Y5923D01*
X-103632Y10167D01*
X-105256Y14088D01*
X-108257Y17089D01*
X-112178Y18713D01*
X-115316Y18713D01*
X-115591Y18764D01*
X-115846Y18928D01*
X-116018Y19178D01*
X-116078Y19475D01*
X-116078Y22015D01*
X-116027Y22290D01*
X-115863Y22545D01*
X-115613Y22717D01*
X-115316Y22777D01*
X-112178Y22777D01*
X-108257Y24401D01*
X-105256Y27402D01*
X-103632Y31323D01*
X-103632Y35567D01*
X-105256Y39488D01*
X-108257Y42489D01*
X-112178Y44113D01*
X-115316Y44113D01*
X-115591Y44164D01*
X-115846Y44328D01*
X-116018Y44578D01*
X-116078Y44875D01*
X-116078Y47415D01*
X-116027Y47690D01*
X-115863Y47945D01*
X-115613Y48117D01*
X-115316Y48177D01*
X-112178Y48177D01*
X-108257Y49801D01*
X-105256Y52802D01*
X-103632Y56723D01*
X-103632Y60967D01*
X-105256Y64888D01*
X-108257Y67889D01*
X-112178Y69513D01*
X-115316Y69513D01*
X-115591Y69564D01*
X-115846Y69728D01*
X-116018Y69978D01*
X-116078Y70275D01*
X-116078Y71799D01*
X-116027Y72074D01*
X-115863Y72329D01*
X-115613Y72501D01*
X-115316Y72561D01*
X-115062Y72561D01*
X-115062Y95929D01*
X-115316Y95929D01*
X-115591Y95980D01*
X-115846Y96144D01*
X-116018Y96394D01*
X-116078Y96691D01*
X-116078Y151590D01*
X-116022Y151876D01*
X-115855Y152128D01*
X-105241Y162742D01*
X-103578Y166757D01*
X-103578Y278316D01*
X-103527Y278591D01*
X-103363Y278846D01*
X-103113Y279018D01*
X-102816Y279078D01*
X102816Y279078D01*
X103091Y279027D01*
X103346Y278863D01*
X103518Y278613D01*
X103578Y278316D01*
X103578Y244395D01*
X103531Y244131D01*
X103372Y243873D01*
X103124Y243698D01*
X102828Y243633D01*
X102530Y243688D01*
X102277Y243856D01*
X77625Y268508D01*
X-77786Y268508D01*
X-78061Y268559D01*
X-78316Y268723D01*
X-78488Y268973D01*
X-78548Y269270D01*
X-78548Y272853D01*
X-79441Y273746D01*
X-92703Y273746D01*
X-93596Y272853D01*
X-93596Y259591D01*
X-92703Y258698D01*
X-79441Y258698D01*
X-78548Y259591D01*
X-78548Y263174D01*
X-78497Y263449D01*
X-78333Y263704D01*
X-78083Y263876D01*
X-77786Y263936D01*
X75415Y263936D01*
X75701Y263880D01*
X75954Y263713D01*
X99091Y240576D01*
X99254Y240335D01*
X99314Y240037D01*
X99314Y164153D01*
X111791Y151676D01*
X111954Y151435D01*
X112014Y151137D01*
X112014Y95354D01*
X111961Y95074D01*
X111795Y94820D01*
X111544Y94650D01*
X108257Y93289D01*
X105256Y90288D01*
X103632Y86367D01*
X103632Y82123D01*
X105256Y78202D01*
X108257Y75201D01*
X112178Y73577D01*
X115316Y73577D01*
X115591Y73526D01*
X115846Y73362D01*
X116018Y73112D01*
X116078Y72815D01*
X116078Y70275D01*
X116027Y70000D01*
X115863Y69745D01*
X115613Y69573D01*
X115316Y69513D01*
X112178Y69513D01*
X108257Y67889D01*
X105256Y64888D01*
X103632Y60967D01*
X103632Y56723D01*
X105256Y52802D01*
X108257Y49801D01*
X112178Y48177D01*
X115316Y48177D01*
X115591Y48126D01*
X115846Y47962D01*
X116018Y47712D01*
X116078Y47415D01*
X116078Y44875D01*
X116027Y44600D01*
X115863Y44345D01*
X115613Y44173D01*
X115316Y44113D01*
X112178Y44113D01*
X108257Y42489D01*
X105256Y39488D01*
X103895Y36201D01*
X103738Y35963D01*
X103488Y35791D01*
X103191Y35731D01*
X88468Y35731D01*
X88182Y35787D01*
X87929Y35954D01*
X76747Y47136D01*
X46708Y47136D01*
X46428Y47189D01*
X46174Y47355D01*
X46004Y47606D01*
X43809Y52907D01*
X39807Y56909D01*
X34579Y59074D01*
X28921Y59074D01*
X23693Y56909D01*
X19691Y52907D01*
X17526Y47679D01*
X17526Y42021D01*
X19691Y36793D01*
X23693Y32791D01*
X28921Y30626D01*
X34579Y30626D01*
X39807Y32791D01*
X43809Y36793D01*
X46004Y42094D01*
X46161Y42332D01*
X46411Y42504D01*
X46708Y42564D01*
X74537Y42564D01*
X74823Y42508D01*
X75076Y42341D01*
X86258Y31159D01*
X103191Y31159D01*
X103471Y31106D01*
X103725Y30940D01*
X103895Y30689D01*
X105256Y27402D01*
X108257Y24401D01*
X112178Y22777D01*
X115316Y22777D01*
X115591Y22726D01*
X115846Y22562D01*
X116018Y22312D01*
X116078Y22015D01*
X116078Y19475D01*
X116027Y19200D01*
X115863Y18945D01*
X115613Y18773D01*
X115316Y18713D01*
X112178Y18713D01*
X108257Y17089D01*
X105256Y14088D01*
X103632Y10167D01*
X103632Y9398D01*
X103581Y9123D01*
X103417Y8868D01*
X103167Y8696D01*
X102870Y8636D01*
X-7297Y8636D01*
X-18042Y-2109D01*
X-18272Y-2267D01*
X-18568Y-2332D01*
X-18866Y-2276D01*
X-19119Y-2109D01*
X-21084Y-144D01*
X-23884Y1016D01*
X-26916Y1016D01*
X-29716Y-144D01*
X-31860Y-2288D01*
X-33020Y-5088D01*
X-33020Y-20312D01*
X-31860Y-23112D01*
X-29716Y-25256D01*
X-26916Y-26416D01*
X-23884Y-26416D01*
X-21084Y-25256D01*
X-18940Y-23112D01*
X-17780Y-20312D01*
X-17780Y-8629D01*
X-17724Y-8343D01*
X-17557Y-8090D01*
X-5626Y3841D01*
X-5385Y4004D01*
X-5087Y4064D01*
X103893Y4064D01*
X104173Y4011D01*
X104427Y3845D01*
X104597Y3594D01*
X105256Y2002D01*
X108257Y-999D01*
X112178Y-2623D01*
X115316Y-2623D01*
X115591Y-2674D01*
X115846Y-2838D01*
X116018Y-3088D01*
X116078Y-3385D01*
X116078Y-5925D01*
X116027Y-6200D01*
X115863Y-6455D01*
X115613Y-6627D01*
X115316Y-6687D01*
X112178Y-6687D01*
X108257Y-8311D01*
X105256Y-11312D01*
X103632Y-15233D01*
X103632Y-19477D01*
X104993Y-22764D01*
X105051Y-23043D01*
X104996Y-23341D01*
X104828Y-23594D01*
X94526Y-33896D01*
X94285Y-34059D01*
X93987Y-34119D01*
X75768Y-34119D01*
X75482Y-34063D01*
X75229Y-33896D01*
X58643Y-17310D01*
X58480Y-17069D01*
X58420Y-16771D01*
X58420Y-5088D01*
X57260Y-2288D01*
X55116Y-144D01*
X52316Y1016D01*
X49284Y1016D01*
X46484Y-144D01*
X44340Y-2288D01*
X43180Y-5088D01*
X43180Y-20312D01*
X44340Y-23112D01*
X46484Y-25256D01*
X49284Y-26416D01*
X52316Y-26416D01*
X55116Y-25256D01*
X57081Y-23291D01*
X57311Y-23133D01*
X57608Y-23068D01*
X57906Y-23124D01*
X58159Y-23291D01*
X73558Y-38691D01*
X96197Y-38691D01*
X108061Y-26827D01*
X108297Y-26666D01*
X108594Y-26604D01*
X108891Y-26662D01*
X112178Y-28023D01*
X115316Y-28023D01*
X115591Y-28074D01*
X115846Y-28238D01*
X116018Y-28488D01*
X116078Y-28785D01*
X116078Y-31325D01*
X116027Y-31600D01*
X115863Y-31855D01*
X115613Y-32027D01*
X115316Y-32087D01*
X112178Y-32087D01*
X108257Y-33711D01*
X105256Y-36712D01*
X103632Y-40633D01*
X103632Y-44877D01*
X105256Y-48798D01*
X108257Y-51799D01*
X112178Y-53423D01*
X115316Y-53423D01*
X115591Y-53474D01*
X115846Y-53638D01*
X116018Y-53888D01*
X116078Y-54185D01*
X116078Y-56725D01*
X116027Y-57000D01*
X115863Y-57255D01*
X115613Y-57427D01*
X115316Y-57487D01*
X112178Y-57487D01*
X108257Y-59111D01*
X105256Y-62112D01*
X103632Y-66033D01*
X103632Y-70277D01*
X105256Y-74198D01*
X108257Y-77199D01*
X112178Y-78823D01*
X115316Y-78823D01*
X115591Y-78874D01*
X115846Y-79038D01*
X116018Y-79288D01*
X116078Y-79585D01*
X116078Y-82125D01*
X116027Y-82400D01*
X115863Y-82655D01*
X115613Y-82827D01*
X115316Y-82887D01*
X112178Y-82887D01*
X108257Y-84511D01*
X105256Y-87512D01*
X103632Y-91433D01*
X103632Y-95677D01*
X105256Y-99598D01*
X108257Y-102599D01*
X112178Y-104223D01*
X115316Y-104223D01*
X115591Y-104274D01*
X115846Y-104438D01*
X116018Y-104688D01*
X116078Y-104985D01*
X116078Y-151590D01*
X116022Y-151876D01*
X115855Y-152128D01*
X105241Y-162742D01*
X103578Y-166757D01*
X103578Y-258425D01*
X103493Y-258774D01*
X103304Y-259010D01*
X103037Y-259154D01*
X102735Y-259182D01*
X102446Y-259090D01*
X102215Y-258893D01*
X102080Y-258622D01*
X100816Y-253904D01*
X97338Y-247880D01*
X92420Y-242962D01*
X86396Y-239484D01*
X79678Y-237684D01*
X72722Y-237684D01*
X66004Y-239484D01*
X59980Y-242962D01*
X55062Y-247880D01*
X51584Y-253904D01*
X49784Y-260622D01*
X49784Y-267578D01*
X51584Y-274296D01*
X55062Y-280320D01*
X59980Y-285238D01*
X66004Y-288716D01*
X72722Y-290516D01*
X79678Y-290516D01*
X86396Y-288716D01*
X92420Y-285238D01*
X97338Y-280320D01*
X100816Y-274296D01*
X102080Y-269578D01*
X102252Y-269263D01*
X102497Y-269084D01*
X102792Y-269014D01*
X103091Y-269065D01*
X103346Y-269228D01*
X103518Y-269478D01*
X103578Y-269775D01*
X103578Y-328275D01*
X103493Y-328624D01*
X103304Y-328860D01*
X103037Y-329004D01*
X102735Y-329032D01*
X102446Y-328940D01*
X102215Y-328743D01*
X102080Y-328472D01*
X100816Y-323754D01*
X97338Y-317730D01*
X92420Y-312812D01*
X86396Y-309334D01*
X79678Y-307534D01*
X72722Y-307534D01*
X66004Y-309334D01*
X59980Y-312812D01*
X55062Y-317730D01*
X51584Y-323754D01*
X49784Y-330472D01*
X49784Y-337428D01*
X51584Y-344146D01*
X55062Y-350170D01*
X59714Y-354822D01*
X59867Y-355041D01*
X59937Y-355336D01*
X59886Y-355635D01*
X59722Y-355891D01*
X59472Y-356062D01*
X59175Y-356122D01*
X-49596Y-356122D01*
X-49859Y-356075D01*
X-50117Y-355916D01*
X-50292Y-355669D01*
X-50358Y-355373D01*
X-50302Y-355074D01*
X-50134Y-354822D01*
X-47421Y-352108D01*
X-45476Y-347413D01*
X-45476Y-342331D01*
X-47421Y-337636D01*
X-51014Y-334043D01*
X-55709Y-332098D01*
X-83291Y-332098D01*
X-87986Y-334043D01*
X-91579Y-337636D01*
X-93524Y-342331D01*
X-93524Y-347413D01*
X-91579Y-352108D01*
X-88866Y-354822D01*
X-88713Y-355041D01*
X-88643Y-355336D01*
X-88694Y-355635D01*
X-88857Y-355891D01*
X-89107Y-356062D01*
G37*
%LPC*%
G36*
X-87569Y238698D02*
X-84575Y238698D01*
X-81810Y239843D01*
X-79693Y241960D01*
X-78548Y244725D01*
X-78548Y247719D01*
X-79693Y250484D01*
X-81810Y252601D01*
X-84575Y253746D01*
X-87569Y253746D01*
X-90334Y252601D01*
X-92451Y250484D01*
X-93596Y247719D01*
X-93596Y244725D01*
X-92451Y241960D01*
X-90334Y239843D01*
X-87569Y238698D01*
G37*
G36*
X-52316Y-26416D02*
X-49284Y-26416D01*
X-46484Y-25256D01*
X-44340Y-23112D01*
X-43180Y-20312D01*
X-43180Y-5088D01*
X-44340Y-2288D01*
X-46484Y-144D01*
X-48044Y502D01*
X-48282Y659D01*
X-48454Y909D01*
X-48514Y1206D01*
X-48514Y81287D01*
X-48458Y81573D01*
X-48291Y81826D01*
X-3901Y126216D01*
X-3901Y190145D01*
X-16378Y202622D01*
X-16541Y202863D01*
X-16601Y203161D01*
X-16601Y232600D01*
X-16548Y232881D01*
X-16382Y233135D01*
X-16131Y233304D01*
X-14786Y233861D01*
X-13126Y235522D01*
X-12895Y235680D01*
X-12599Y235745D01*
X-12301Y235689D01*
X-12048Y235522D01*
X-10388Y233861D01*
X-7727Y232759D01*
X-4847Y232759D01*
X-2186Y233861D01*
X-1244Y234803D01*
X-1014Y234961D01*
X-718Y235026D01*
X-419Y234971D01*
X-167Y234803D01*
X1637Y233000D01*
X4671Y231743D01*
X5551Y231743D01*
X5551Y248253D01*
X4671Y248253D01*
X1637Y246996D01*
X-167Y245193D01*
X-397Y245035D01*
X-693Y244970D01*
X-991Y245025D01*
X-1244Y245193D01*
X-2186Y246135D01*
X-4847Y247237D01*
X-7727Y247237D01*
X-10388Y246135D01*
X-12048Y244474D01*
X-12279Y244316D01*
X-12575Y244251D01*
X-12873Y244307D01*
X-13126Y244474D01*
X-14786Y246135D01*
X-17447Y247237D01*
X-20327Y247237D01*
X-22988Y246135D01*
X-25024Y244099D01*
X-26126Y241438D01*
X-26126Y238558D01*
X-25024Y235897D01*
X-22988Y233861D01*
X-21643Y233304D01*
X-21405Y233148D01*
X-21233Y232898D01*
X-21173Y232600D01*
X-21173Y200951D01*
X-8697Y188475D01*
X-8534Y188233D01*
X-8473Y187936D01*
X-8473Y128425D01*
X-8529Y128139D01*
X-8697Y127886D01*
X-53086Y83497D01*
X-53086Y1206D01*
X-53139Y926D01*
X-53305Y672D01*
X-53556Y502D01*
X-55116Y-144D01*
X-57260Y-2288D01*
X-58420Y-5088D01*
X-58420Y-20312D01*
X-57260Y-23112D01*
X-55116Y-25256D01*
X-52316Y-26416D01*
G37*
G36*
X81903Y208376D02*
X84897Y208376D01*
X87662Y209521D01*
X89779Y211638D01*
X90924Y214403D01*
X90924Y217397D01*
X89779Y220162D01*
X87662Y222279D01*
X84897Y223424D01*
X81903Y223424D01*
X80398Y222800D01*
X80118Y222742D01*
X79820Y222798D01*
X79567Y222966D01*
X60249Y242284D01*
X26914Y242284D01*
X26639Y242335D01*
X26384Y242499D01*
X26212Y242749D01*
X26152Y243046D01*
X26152Y246344D01*
X25259Y247237D01*
X12567Y247237D01*
X12196Y246867D01*
X11966Y246709D01*
X11670Y246644D01*
X11372Y246699D01*
X11119Y246867D01*
X10989Y246996D01*
X7955Y248253D01*
X7075Y248253D01*
X7075Y231743D01*
X7955Y231743D01*
X10989Y233000D01*
X11119Y233129D01*
X11349Y233287D01*
X11645Y233352D01*
X11944Y233297D01*
X12196Y233129D01*
X12567Y232759D01*
X25259Y232759D01*
X26152Y233652D01*
X26152Y236950D01*
X26203Y237225D01*
X26367Y237480D01*
X26617Y237652D01*
X26914Y237712D01*
X58040Y237712D01*
X58326Y237656D01*
X58578Y237489D01*
X76334Y219733D01*
X76495Y219497D01*
X76558Y219200D01*
X76500Y218902D01*
X75876Y217397D01*
X75876Y214403D01*
X77021Y211638D01*
X79138Y209521D01*
X81903Y208376D01*
G37*
G36*
X81903Y228376D02*
X84897Y228376D01*
X87662Y229521D01*
X89779Y231638D01*
X90924Y234403D01*
X90924Y237397D01*
X89779Y240162D01*
X87662Y242279D01*
X84897Y243424D01*
X81903Y243424D01*
X79138Y242279D01*
X77021Y240162D01*
X75876Y237397D01*
X75876Y234403D01*
X77021Y231638D01*
X79138Y229521D01*
X81903Y228376D01*
G37*
G36*
X74860Y196662D02*
X82638Y196662D01*
X82638Y204440D01*
X76348Y204440D01*
X74860Y202952D01*
X74860Y196662D01*
G37*
G36*
X84162Y196662D02*
X91940Y196662D01*
X91940Y202952D01*
X90452Y204440D01*
X84162Y204440D01*
X84162Y196662D01*
G37*
G36*
X84162Y187360D02*
X90452Y187360D01*
X91940Y188848D01*
X91940Y195138D01*
X84162Y195138D01*
X84162Y187360D01*
G37*
G36*
X76348Y187360D02*
X82638Y187360D01*
X82638Y195138D01*
X74860Y195138D01*
X74860Y188848D01*
X76348Y187360D01*
G37*
G36*
X-41578Y115884D02*
X-34622Y115884D01*
X-27904Y117684D01*
X-21880Y121162D01*
X-16962Y126080D01*
X-13484Y132104D01*
X-11684Y138822D01*
X-11684Y145778D01*
X-13484Y152496D01*
X-16962Y158520D01*
X-21880Y163438D01*
X-27904Y166916D01*
X-34622Y168716D01*
X-41578Y168716D01*
X-48296Y166916D01*
X-54320Y163438D01*
X-59238Y158520D01*
X-62716Y152496D01*
X-64516Y145778D01*
X-64516Y138822D01*
X-62716Y132104D01*
X-59238Y126080D01*
X-54320Y121162D01*
X-48296Y117684D01*
X-41578Y115884D01*
G37*
G36*
X28921Y80626D02*
X34579Y80626D01*
X39807Y82791D01*
X43809Y86793D01*
X45974Y92021D01*
X45974Y97679D01*
X43809Y102907D01*
X39807Y106909D01*
X34579Y109074D01*
X28921Y109074D01*
X23693Y106909D01*
X19691Y102907D01*
X17526Y97679D01*
X17526Y92021D01*
X19691Y86793D01*
X23693Y82791D01*
X28921Y80626D01*
G37*
G36*
X-113538Y85007D02*
X-102616Y85007D01*
X-102616Y86569D01*
X-104395Y90863D01*
X-107682Y94150D01*
X-111976Y95929D01*
X-113538Y95929D01*
X-113538Y85007D01*
G37*
G36*
X-113538Y72561D02*
X-111976Y72561D01*
X-107682Y74340D01*
X-104395Y77627D01*
X-102616Y81921D01*
X-102616Y83483D01*
X-113538Y83483D01*
X-113538Y72561D01*
G37*
G36*
X-1516Y-26416D02*
X1516Y-26416D01*
X4316Y-25256D01*
X6460Y-23112D01*
X7620Y-20312D01*
X7620Y-5088D01*
X6460Y-2288D01*
X4316Y-144D01*
X1516Y1016D01*
X-1516Y1016D01*
X-4316Y-144D01*
X-6460Y-2288D01*
X-7620Y-5088D01*
X-7620Y-20312D01*
X-6460Y-23112D01*
X-4316Y-25256D01*
X-1516Y-26416D01*
G37*
G36*
X74684Y-26416D02*
X77716Y-26416D01*
X80516Y-25256D01*
X82660Y-23112D01*
X83820Y-20312D01*
X83820Y-5088D01*
X82660Y-2288D01*
X80516Y-144D01*
X77716Y1016D01*
X74684Y1016D01*
X71884Y-144D01*
X69740Y-2288D01*
X68580Y-5088D01*
X68580Y-20312D01*
X69740Y-23112D01*
X71884Y-25256D01*
X74684Y-26416D01*
G37*
G36*
X-5551Y-248257D02*
X-4671Y-248257D01*
X-1637Y-247000D01*
X167Y-245197D01*
X397Y-245039D01*
X693Y-244974D01*
X991Y-245029D01*
X1244Y-245197D01*
X2186Y-246139D01*
X4847Y-247241D01*
X7727Y-247241D01*
X10388Y-246139D01*
X12048Y-244478D01*
X12279Y-244320D01*
X12575Y-244255D01*
X12873Y-244311D01*
X13126Y-244478D01*
X14786Y-246139D01*
X17447Y-247241D01*
X20327Y-247241D01*
X22988Y-246139D01*
X25024Y-244103D01*
X26126Y-241442D01*
X26126Y-238562D01*
X25569Y-237218D01*
X25511Y-236939D01*
X25567Y-236640D01*
X25734Y-236388D01*
X95974Y-166149D01*
X95974Y-166149D01*
X97536Y-164587D01*
X97536Y-81603D01*
X33243Y-17310D01*
X33080Y-17069D01*
X33020Y-16771D01*
X33020Y-5088D01*
X31860Y-2288D01*
X29716Y-144D01*
X26916Y1016D01*
X23884Y1016D01*
X21084Y-144D01*
X18940Y-2288D01*
X17780Y-5088D01*
X17780Y-20312D01*
X18940Y-23112D01*
X21084Y-25256D01*
X23884Y-26416D01*
X26916Y-26416D01*
X29716Y-25256D01*
X31681Y-23291D01*
X31911Y-23133D01*
X32208Y-23068D01*
X32506Y-23124D01*
X32759Y-23291D01*
X92741Y-83274D01*
X92904Y-83515D01*
X92964Y-83813D01*
X92964Y-162377D01*
X92908Y-162663D01*
X92741Y-162916D01*
X83851Y-171806D01*
X83631Y-171959D01*
X83336Y-172029D01*
X83082Y-171986D01*
X83129Y-172200D01*
X83073Y-172498D01*
X82906Y-172751D01*
X22502Y-233155D01*
X22266Y-233315D01*
X21969Y-233378D01*
X21671Y-233320D01*
X20327Y-232763D01*
X17447Y-232763D01*
X14786Y-233865D01*
X13126Y-235526D01*
X12895Y-235684D01*
X12599Y-235749D01*
X12301Y-235693D01*
X12048Y-235526D01*
X10388Y-233865D01*
X7727Y-232763D01*
X4847Y-232763D01*
X2186Y-233865D01*
X1244Y-234807D01*
X1014Y-234965D01*
X718Y-235030D01*
X419Y-234975D01*
X167Y-234807D01*
X-1637Y-233004D01*
X-4671Y-231747D01*
X-5551Y-231747D01*
X-5551Y-248257D01*
G37*
G36*
X-77716Y-26416D02*
X-74684Y-26416D01*
X-71884Y-25256D01*
X-69740Y-23112D01*
X-68580Y-20312D01*
X-68580Y-5088D01*
X-69740Y-2288D01*
X-71884Y-144D01*
X-74684Y1016D01*
X-77716Y1016D01*
X-80516Y-144D01*
X-82660Y-2288D01*
X-83820Y-5088D01*
X-83820Y-20312D01*
X-82660Y-23112D01*
X-80516Y-25256D01*
X-77716Y-26416D01*
G37*
G36*
X76962Y-88138D02*
X84836Y-88138D01*
X84836Y-81086D01*
X83521Y-77912D01*
X81092Y-75483D01*
X77918Y-74168D01*
X76962Y-74168D01*
X76962Y-88138D01*
G37*
G36*
X67564Y-88138D02*
X75438Y-88138D01*
X75438Y-74168D01*
X74482Y-74168D01*
X71308Y-75483D01*
X68879Y-77912D01*
X67564Y-81086D01*
X67564Y-88138D01*
G37*
G36*
X23884Y-102616D02*
X26916Y-102616D01*
X29716Y-101456D01*
X31860Y-99312D01*
X33020Y-96512D01*
X33020Y-81288D01*
X31860Y-78488D01*
X29716Y-76344D01*
X26916Y-75184D01*
X23884Y-75184D01*
X21084Y-76344D01*
X18940Y-78488D01*
X17780Y-81288D01*
X17780Y-96512D01*
X18940Y-99312D01*
X21084Y-101456D01*
X23884Y-102616D01*
G37*
G36*
X-52316Y-102616D02*
X-49284Y-102616D01*
X-46484Y-101456D01*
X-44340Y-99312D01*
X-43180Y-96512D01*
X-43180Y-81288D01*
X-44340Y-78488D01*
X-46484Y-76344D01*
X-49284Y-75184D01*
X-52316Y-75184D01*
X-55116Y-76344D01*
X-57260Y-78488D01*
X-58420Y-81288D01*
X-58420Y-96512D01*
X-57260Y-99312D01*
X-55116Y-101456D01*
X-52316Y-102616D01*
G37*
G36*
X-77716Y-102616D02*
X-74684Y-102616D01*
X-71884Y-101456D01*
X-69740Y-99312D01*
X-68580Y-96512D01*
X-68580Y-81288D01*
X-69740Y-78488D01*
X-71884Y-76344D01*
X-74684Y-75184D01*
X-77716Y-75184D01*
X-80516Y-76344D01*
X-82660Y-78488D01*
X-83820Y-81288D01*
X-83820Y-96512D01*
X-82660Y-99312D01*
X-80516Y-101456D01*
X-77716Y-102616D01*
G37*
G36*
X-26916Y-102616D02*
X-23884Y-102616D01*
X-21084Y-101456D01*
X-18940Y-99312D01*
X-17780Y-96512D01*
X-17780Y-81288D01*
X-18940Y-78488D01*
X-21084Y-76344D01*
X-23884Y-75184D01*
X-26916Y-75184D01*
X-29716Y-76344D01*
X-31860Y-78488D01*
X-33020Y-81288D01*
X-33020Y-96512D01*
X-31860Y-99312D01*
X-29716Y-101456D01*
X-26916Y-102616D01*
G37*
G36*
X49284Y-102616D02*
X52316Y-102616D01*
X55116Y-101456D01*
X57260Y-99312D01*
X58420Y-96512D01*
X58420Y-81288D01*
X57260Y-78488D01*
X55116Y-76344D01*
X52316Y-75184D01*
X49284Y-75184D01*
X46484Y-76344D01*
X44340Y-78488D01*
X43180Y-81288D01*
X43180Y-96512D01*
X44340Y-99312D01*
X46484Y-101456D01*
X49284Y-102616D01*
G37*
G36*
X-1516Y-102616D02*
X1516Y-102616D01*
X4316Y-101456D01*
X6460Y-99312D01*
X7620Y-96512D01*
X7620Y-81288D01*
X6460Y-78488D01*
X4316Y-76344D01*
X1516Y-75184D01*
X-1516Y-75184D01*
X-4316Y-76344D01*
X-6460Y-78488D01*
X-7620Y-81288D01*
X-7620Y-96512D01*
X-6460Y-99312D01*
X-4316Y-101456D01*
X-1516Y-102616D01*
G37*
G36*
X76962Y-103632D02*
X77918Y-103632D01*
X81092Y-102317D01*
X83521Y-99888D01*
X84836Y-96714D01*
X84836Y-89662D01*
X76962Y-89662D01*
X76962Y-103632D01*
G37*
G36*
X74482Y-103632D02*
X75438Y-103632D01*
X75438Y-89662D01*
X67564Y-89662D01*
X67564Y-96714D01*
X68879Y-99888D01*
X71308Y-102317D01*
X74482Y-103632D01*
G37*
G36*
X82367Y-171450D02*
X82595Y-171491D01*
X82550Y-171267D01*
X82550Y-108012D01*
X82541Y-107957D01*
X82538Y-107956D01*
X82498Y-107950D01*
X-81218Y-107950D01*
X-81273Y-107959D01*
X-81274Y-107962D01*
X-81280Y-108002D01*
X-81280Y-171388D01*
X-81271Y-171443D01*
X-81268Y-171444D01*
X-81228Y-171450D01*
X82367Y-171450D01*
G37*
G36*
X-91940Y-195138D02*
X-84162Y-195138D01*
X-84162Y-187360D01*
X-90452Y-187360D01*
X-91940Y-188848D01*
X-91940Y-195138D01*
G37*
G36*
X-82638Y-195138D02*
X-74860Y-195138D01*
X-74860Y-188848D01*
X-76348Y-187360D01*
X-82638Y-187360D01*
X-82638Y-195138D01*
G37*
G36*
X-82638Y-204440D02*
X-76348Y-204440D01*
X-74860Y-202952D01*
X-74860Y-196662D01*
X-82638Y-196662D01*
X-82638Y-204440D01*
G37*
G36*
X-90452Y-204440D02*
X-84162Y-204440D01*
X-84162Y-196662D01*
X-91940Y-196662D01*
X-91940Y-202952D01*
X-90452Y-204440D01*
G37*
G36*
X-7955Y-248257D02*
X-7075Y-248257D01*
X-7075Y-231747D01*
X-7955Y-231747D01*
X-10989Y-233004D01*
X-11119Y-233133D01*
X-11349Y-233291D01*
X-11645Y-233356D01*
X-11944Y-233301D01*
X-12196Y-233133D01*
X-12567Y-232763D01*
X-25259Y-232763D01*
X-26152Y-233656D01*
X-26152Y-236954D01*
X-26203Y-237229D01*
X-26367Y-237484D01*
X-26617Y-237656D01*
X-26914Y-237716D01*
X-58035Y-237716D01*
X-58321Y-237661D01*
X-58574Y-237493D01*
X-76334Y-219733D01*
X-76495Y-219497D01*
X-76558Y-219200D01*
X-76500Y-218902D01*
X-75876Y-217397D01*
X-75876Y-214403D01*
X-77021Y-211638D01*
X-79138Y-209521D01*
X-81903Y-208376D01*
X-84897Y-208376D01*
X-87662Y-209521D01*
X-89779Y-211638D01*
X-90924Y-214403D01*
X-90924Y-217397D01*
X-89779Y-220162D01*
X-87662Y-222279D01*
X-84897Y-223424D01*
X-81903Y-223424D01*
X-80398Y-222800D01*
X-80118Y-222742D01*
X-79820Y-222798D01*
X-79567Y-222966D01*
X-61807Y-240726D01*
X-61807Y-240726D01*
X-60720Y-241813D01*
X-60244Y-242288D01*
X-58035Y-242288D01*
X-58035Y-242288D01*
X-26914Y-242288D01*
X-26639Y-242339D01*
X-26384Y-242503D01*
X-26212Y-242753D01*
X-26152Y-243050D01*
X-26152Y-246348D01*
X-25259Y-247241D01*
X-12567Y-247241D01*
X-12196Y-246871D01*
X-11966Y-246713D01*
X-11670Y-246648D01*
X-11372Y-246703D01*
X-11119Y-246871D01*
X-10989Y-247000D01*
X-7955Y-248257D01*
G37*
G36*
X-84897Y-243424D02*
X-81903Y-243424D01*
X-79138Y-242279D01*
X-77021Y-240162D01*
X-75876Y-237397D01*
X-75876Y-234403D01*
X-77021Y-231638D01*
X-79138Y-229521D01*
X-81903Y-228376D01*
X-84897Y-228376D01*
X-87662Y-229521D01*
X-89779Y-231638D01*
X-90924Y-234403D01*
X-90924Y-237397D01*
X-89779Y-240162D01*
X-87662Y-242279D01*
X-84897Y-243424D01*
G37*
G36*
X-94540Y-281110D02*
X-70262Y-281110D01*
X-70262Y-268082D01*
X-83493Y-268082D01*
X-88561Y-270181D01*
X-92441Y-274061D01*
X-94540Y-279129D01*
X-94540Y-281110D01*
G37*
G36*
X-68738Y-281110D02*
X-44460Y-281110D01*
X-44460Y-279129D01*
X-46559Y-274061D01*
X-50439Y-270181D01*
X-55507Y-268082D01*
X-68738Y-268082D01*
X-68738Y-281110D01*
G37*
G36*
X-68738Y-295662D02*
X-55507Y-295662D01*
X-50439Y-293563D01*
X-46559Y-289683D01*
X-44460Y-284615D01*
X-44460Y-282634D01*
X-68738Y-282634D01*
X-68738Y-295662D01*
G37*
G36*
X-83493Y-295662D02*
X-70262Y-295662D01*
X-70262Y-282634D01*
X-94540Y-282634D01*
X-94540Y-284615D01*
X-92441Y-289683D01*
X-88561Y-293563D01*
X-83493Y-295662D01*
G37*
%LPD*%
D10*
X18913Y239998D03*
D11*
X6313Y239998D03*
X-6287Y239998D03*
X-18887Y239998D03*
D10*
X-18913Y-240002D03*
D11*
X-6313Y-240002D03*
X6287Y-240002D03*
X18887Y-240002D03*
D12*
X-58250Y-281872D02*
X-80750Y-281872D01*
X-80750Y-344872D02*
X-58250Y-344872D01*
D13*
X-83400Y-195900D03*
D14*
X-83400Y-215900D03*
X-83400Y-235900D03*
D13*
X83400Y195900D03*
D14*
X83400Y215900D03*
X83400Y235900D03*
D15*
X-114300Y84245D03*
X-114300Y58845D03*
X-114300Y33445D03*
X-114300Y8045D03*
X-114300Y-17355D03*
X-114300Y-42755D03*
X-114300Y-68155D03*
X-114300Y-93555D03*
X114300Y84245D03*
X114300Y58845D03*
X114300Y33445D03*
X114300Y8045D03*
X114300Y-17355D03*
X114300Y-42755D03*
X114300Y-68155D03*
X114300Y-93555D03*
D16*
X76200Y-18796D02*
X76200Y-6604D01*
X50800Y-6604D02*
X50800Y-18796D01*
X-76200Y-18796D02*
X-76200Y-6604D01*
X-76200Y-82804D02*
X-76200Y-94996D01*
X25400Y-18796D02*
X25400Y-6604D01*
X0Y-6604D02*
X0Y-18796D01*
X-50800Y-18796D02*
X-50800Y-6604D01*
X-25400Y-6604D02*
X-25400Y-18796D01*
X-50800Y-82804D02*
X-50800Y-94996D01*
X-25400Y-94996D02*
X-25400Y-82804D01*
X0Y-82804D02*
X0Y-94996D01*
X25400Y-94996D02*
X25400Y-82804D01*
X50800Y-82804D02*
X50800Y-94996D01*
X76200Y-94996D02*
X76200Y-82804D01*
D13*
X-86072Y266222D03*
D14*
X-86072Y246222D03*
X-86072Y226222D03*
X-86072Y206222D03*
D17*
X31750Y44850D03*
X31750Y94850D03*
D18*
X-18913Y-240002D02*
X-59298Y-240002D01*
X-83400Y-215900D01*
X18913Y239998D02*
X59302Y239998D01*
X83400Y215900D01*
X95250Y-82550D02*
X95250Y-163640D01*
X18887Y-240002D01*
X95250Y-82550D02*
X25400Y-12700D01*
X-6187Y189198D02*
X-18887Y201898D01*
X-18887Y239998D01*
X-6187Y189198D02*
X-6187Y127163D01*
X-50800Y82550D01*
X-50800Y-12700D01*
X-25400Y-12700D02*
X-6350Y6350D01*
X112605Y6350D01*
X114300Y8045D01*
X114300Y-17355D02*
X95250Y-36405D01*
X74505Y-36405D02*
X50800Y-12700D01*
X74505Y-36405D02*
X95250Y-36405D01*
X76678Y266222D02*
X-86072Y266222D01*
X76678Y266222D02*
X101600Y241300D01*
X101600Y165100D01*
X114300Y152400D02*
X114300Y84245D01*
X114300Y152400D02*
X101600Y165100D01*
X-69850Y20745D02*
X-88900Y1695D01*
X-88900Y-17355D01*
X-114300Y-42755D01*
X-69850Y20745D02*
X-69850Y210000D01*
X-86072Y226222D01*
X-99273Y-2328D02*
X-114300Y-17355D01*
X-86072Y25400D02*
X-86072Y206222D01*
X-86072Y25400D02*
X-99273Y12200D01*
X-99273Y-2328D01*
X87205Y33445D02*
X114300Y33445D01*
X87205Y33445D02*
X75800Y44850D01*
X31750Y44850D01*
M02*
