G04 EAGLE Gerber RS-274X export*
G75*
%MOMM*%
%FSLAX34Y34*%
%LPD*%
%IN*%
%IPPOS*%
%AMOC8*
5,1,8,0,0,1.08239X$1,22.5*%
G01*
G04 Define Apertures*
%ADD10C,0.254000*%
D10*
X-127000Y-172279D02*
X-114500Y-168929D01*
X-114500Y-367044D01*
X114500Y-367044D01*
X114500Y-168929D01*
X127000Y-172279D01*
X127000Y172279D01*
X114500Y168929D01*
X114500Y290000D01*
X-114500Y290000D01*
X-114500Y168929D01*
X-127000Y172279D01*
X-127000Y-172279D01*
X-85500Y-344872D02*
X-85479Y-345351D01*
X-85416Y-345827D01*
X-85313Y-346296D01*
X-85168Y-346753D01*
X-84985Y-347196D01*
X-84763Y-347622D01*
X-84505Y-348027D01*
X-84213Y-348407D01*
X-83889Y-348761D01*
X-83535Y-349085D01*
X-83155Y-349377D01*
X-82750Y-349635D01*
X-82324Y-349857D01*
X-81881Y-350040D01*
X-81424Y-350185D01*
X-80955Y-350288D01*
X-80479Y-350351D01*
X-80000Y-350372D01*
X-59000Y-350372D01*
X-58521Y-350351D01*
X-58045Y-350288D01*
X-57577Y-350185D01*
X-57119Y-350040D01*
X-56676Y-349857D01*
X-56250Y-349635D01*
X-55845Y-349377D01*
X-55465Y-349085D01*
X-55111Y-348761D01*
X-54787Y-348407D01*
X-54495Y-348027D01*
X-54237Y-347622D01*
X-54015Y-347196D01*
X-53832Y-346753D01*
X-53687Y-346296D01*
X-53584Y-345827D01*
X-53521Y-345351D01*
X-53500Y-344872D01*
X-53521Y-344393D01*
X-53584Y-343917D01*
X-53687Y-343449D01*
X-53832Y-342991D01*
X-54015Y-342548D01*
X-54237Y-342122D01*
X-54495Y-341717D01*
X-54787Y-341337D01*
X-55111Y-340983D01*
X-55465Y-340659D01*
X-55845Y-340367D01*
X-56250Y-340109D01*
X-56676Y-339887D01*
X-57119Y-339704D01*
X-57577Y-339559D01*
X-58045Y-339456D01*
X-58521Y-339393D01*
X-59000Y-339372D01*
X-80000Y-339372D01*
X-80479Y-339393D01*
X-80955Y-339456D01*
X-81424Y-339559D01*
X-81881Y-339704D01*
X-82324Y-339887D01*
X-82750Y-340109D01*
X-83155Y-340367D01*
X-83535Y-340659D01*
X-83889Y-340983D01*
X-84213Y-341337D01*
X-84505Y-341717D01*
X-84763Y-342122D01*
X-84985Y-342548D01*
X-85168Y-342991D01*
X-85313Y-343449D01*
X-85416Y-343917D01*
X-85479Y-344393D01*
X-85500Y-344872D01*
X-85500Y-281872D02*
X-85479Y-282351D01*
X-85416Y-282827D01*
X-85313Y-283296D01*
X-85168Y-283753D01*
X-84985Y-284196D01*
X-84763Y-284622D01*
X-84505Y-285027D01*
X-84213Y-285407D01*
X-83889Y-285761D01*
X-83535Y-286085D01*
X-83155Y-286377D01*
X-82750Y-286635D01*
X-82324Y-286857D01*
X-81881Y-287040D01*
X-81424Y-287185D01*
X-80955Y-287288D01*
X-80479Y-287351D01*
X-80000Y-287372D01*
X-59000Y-287372D01*
X-58521Y-287351D01*
X-58045Y-287288D01*
X-57577Y-287185D01*
X-57119Y-287040D01*
X-56676Y-286857D01*
X-56250Y-286635D01*
X-55845Y-286377D01*
X-55465Y-286085D01*
X-55111Y-285761D01*
X-54787Y-285407D01*
X-54495Y-285027D01*
X-54237Y-284622D01*
X-54015Y-284196D01*
X-53832Y-283753D01*
X-53687Y-283296D01*
X-53584Y-282827D01*
X-53521Y-282351D01*
X-53500Y-281872D01*
X-53521Y-281393D01*
X-53584Y-280917D01*
X-53687Y-280449D01*
X-53832Y-279991D01*
X-54015Y-279548D01*
X-54237Y-279122D01*
X-54495Y-278717D01*
X-54787Y-278337D01*
X-55111Y-277983D01*
X-55465Y-277659D01*
X-55845Y-277367D01*
X-56250Y-277109D01*
X-56676Y-276887D01*
X-57119Y-276704D01*
X-57577Y-276559D01*
X-58045Y-276456D01*
X-58521Y-276393D01*
X-59000Y-276372D01*
X-80000Y-276372D01*
X-80479Y-276393D01*
X-80955Y-276456D01*
X-81424Y-276559D01*
X-81881Y-276704D01*
X-82324Y-276887D01*
X-82750Y-277109D01*
X-83155Y-277367D01*
X-83535Y-277659D01*
X-83889Y-277983D01*
X-84213Y-278337D01*
X-84505Y-278717D01*
X-84763Y-279122D01*
X-84985Y-279548D01*
X-85168Y-279991D01*
X-85313Y-280449D01*
X-85416Y-280917D01*
X-85479Y-281393D01*
X-85500Y-281872D01*
M02*
