G04 EAGLE Gerber RS-274X export*
G75*
%MOMM*%
%FSLAX34Y34*%
%LPD*%
%INSilkscreen Bottom*%
%IPPOS*%
%AMOC8*
5,1,8,0,0,1.08239X$1,22.5*%
G01*
G04 Define Apertures*
G36*
X20955Y-120939D02*
X20657Y-120928D01*
X20364Y-120895D01*
X20076Y-120840D01*
X19793Y-120764D01*
X19515Y-120665D01*
X19241Y-120545D01*
X18972Y-120403D01*
X18708Y-120238D01*
X18454Y-120055D01*
X18213Y-119853D01*
X17987Y-119635D01*
X17774Y-119399D01*
X17576Y-119145D01*
X17392Y-118875D01*
X17222Y-118586D01*
X17066Y-118281D01*
X16926Y-117963D01*
X16805Y-117639D01*
X16703Y-117308D01*
X16619Y-116970D01*
X16554Y-116626D01*
X16508Y-116275D01*
X16480Y-115917D01*
X16470Y-115553D01*
X16480Y-115186D01*
X16508Y-114827D01*
X16555Y-114474D01*
X16620Y-114129D01*
X16705Y-113791D01*
X16808Y-113460D01*
X16930Y-113137D01*
X17070Y-112820D01*
X17227Y-112515D01*
X17398Y-112228D01*
X17583Y-111958D01*
X17781Y-111705D01*
X17993Y-111470D01*
X18219Y-111252D01*
X18459Y-111051D01*
X18713Y-110867D01*
X18976Y-110703D01*
X19244Y-110560D01*
X19516Y-110440D01*
X19794Y-110341D01*
X20077Y-110265D01*
X20365Y-110210D01*
X20657Y-110177D01*
X20955Y-110166D01*
X21393Y-110190D01*
X21817Y-110260D01*
X22229Y-110378D01*
X22627Y-110543D01*
X23011Y-110755D01*
X23383Y-111013D01*
X23741Y-111319D01*
X24086Y-111673D01*
X24403Y-112063D01*
X24678Y-112480D01*
X24911Y-112924D01*
X25101Y-113396D01*
X25249Y-113894D01*
X25355Y-114420D01*
X25418Y-114973D01*
X25439Y-115553D01*
X25418Y-116130D01*
X25355Y-116682D01*
X25249Y-117206D01*
X25101Y-117704D01*
X24911Y-118175D01*
X24678Y-118619D01*
X24403Y-119037D01*
X24086Y-119428D01*
X23741Y-119782D01*
X23383Y-120089D01*
X23011Y-120349D01*
X22627Y-120561D01*
X22229Y-120727D01*
X21817Y-120845D01*
X21393Y-120915D01*
X20955Y-120939D01*
G37*
%LPC*%
G36*
X20955Y-120203D02*
X21311Y-120183D01*
X21659Y-120122D01*
X21997Y-120020D01*
X22327Y-119878D01*
X22647Y-119695D01*
X22957Y-119472D01*
X23259Y-119208D01*
X23552Y-118903D01*
X23822Y-118566D01*
X24056Y-118206D01*
X24254Y-117822D01*
X24415Y-117415D01*
X24541Y-116984D01*
X24631Y-116531D01*
X24685Y-116053D01*
X24703Y-115553D01*
X24686Y-115080D01*
X24635Y-114624D01*
X24549Y-114187D01*
X24429Y-113767D01*
X24274Y-113365D01*
X24085Y-112980D01*
X23862Y-112613D01*
X23604Y-112264D01*
X23322Y-111945D01*
X23026Y-111668D01*
X22716Y-111434D01*
X22392Y-111242D01*
X22054Y-111093D01*
X21702Y-110987D01*
X21335Y-110923D01*
X20955Y-110902D01*
X20551Y-110924D01*
X20165Y-110991D01*
X19799Y-111103D01*
X19453Y-111259D01*
X19125Y-111459D01*
X18817Y-111705D01*
X18527Y-111995D01*
X18257Y-112329D01*
X18013Y-112692D01*
X17801Y-113066D01*
X17622Y-113452D01*
X17475Y-113849D01*
X17361Y-114258D01*
X17280Y-114678D01*
X17231Y-115109D01*
X17215Y-115553D01*
X17231Y-115998D01*
X17280Y-116431D01*
X17361Y-116852D01*
X17475Y-117262D01*
X17622Y-117659D01*
X17801Y-118045D01*
X18013Y-118418D01*
X18257Y-118780D01*
X18527Y-119114D01*
X18817Y-119403D01*
X19125Y-119647D01*
X19453Y-119848D01*
X19799Y-120003D01*
X20165Y-120114D01*
X20551Y-120181D01*
X20955Y-120203D01*
G37*
%LPD*%
G36*
X42455Y-120939D02*
X42157Y-120928D01*
X41864Y-120895D01*
X41576Y-120840D01*
X41293Y-120764D01*
X41015Y-120665D01*
X40741Y-120545D01*
X40472Y-120403D01*
X40208Y-120238D01*
X39954Y-120055D01*
X39713Y-119853D01*
X39487Y-119635D01*
X39274Y-119399D01*
X39076Y-119145D01*
X38892Y-118875D01*
X38722Y-118586D01*
X38566Y-118281D01*
X38426Y-117963D01*
X38305Y-117639D01*
X38203Y-117308D01*
X38119Y-116970D01*
X38054Y-116626D01*
X38008Y-116275D01*
X37980Y-115917D01*
X37970Y-115553D01*
X37980Y-115186D01*
X38008Y-114827D01*
X38055Y-114474D01*
X38120Y-114129D01*
X38205Y-113791D01*
X38308Y-113460D01*
X38430Y-113137D01*
X38570Y-112820D01*
X38727Y-112515D01*
X38898Y-112228D01*
X39083Y-111958D01*
X39281Y-111705D01*
X39493Y-111470D01*
X39719Y-111252D01*
X39959Y-111051D01*
X40213Y-110867D01*
X40476Y-110703D01*
X40744Y-110560D01*
X41016Y-110440D01*
X41294Y-110341D01*
X41577Y-110265D01*
X41865Y-110210D01*
X42157Y-110177D01*
X42455Y-110166D01*
X42893Y-110190D01*
X43317Y-110260D01*
X43729Y-110378D01*
X44127Y-110543D01*
X44511Y-110755D01*
X44883Y-111013D01*
X45241Y-111319D01*
X45586Y-111673D01*
X45903Y-112063D01*
X46178Y-112480D01*
X46411Y-112924D01*
X46601Y-113396D01*
X46749Y-113894D01*
X46855Y-114420D01*
X46918Y-114973D01*
X46939Y-115553D01*
X46918Y-116130D01*
X46855Y-116682D01*
X46749Y-117206D01*
X46601Y-117704D01*
X46411Y-118175D01*
X46178Y-118619D01*
X45903Y-119037D01*
X45586Y-119428D01*
X45241Y-119782D01*
X44883Y-120089D01*
X44511Y-120349D01*
X44127Y-120561D01*
X43729Y-120727D01*
X43317Y-120845D01*
X42893Y-120915D01*
X42455Y-120939D01*
G37*
%LPC*%
G36*
X42455Y-120203D02*
X42811Y-120183D01*
X43159Y-120122D01*
X43497Y-120020D01*
X43827Y-119878D01*
X44147Y-119695D01*
X44457Y-119472D01*
X44759Y-119208D01*
X45052Y-118903D01*
X45322Y-118566D01*
X45556Y-118206D01*
X45754Y-117822D01*
X45915Y-117415D01*
X46041Y-116984D01*
X46131Y-116531D01*
X46185Y-116053D01*
X46203Y-115553D01*
X46186Y-115080D01*
X46135Y-114624D01*
X46049Y-114187D01*
X45929Y-113767D01*
X45774Y-113365D01*
X45585Y-112980D01*
X45362Y-112613D01*
X45104Y-112264D01*
X44822Y-111945D01*
X44526Y-111668D01*
X44216Y-111434D01*
X43892Y-111242D01*
X43554Y-111093D01*
X43202Y-110987D01*
X42835Y-110923D01*
X42455Y-110902D01*
X42051Y-110924D01*
X41665Y-110991D01*
X41299Y-111103D01*
X40953Y-111259D01*
X40625Y-111459D01*
X40317Y-111705D01*
X40027Y-111995D01*
X39757Y-112329D01*
X39513Y-112692D01*
X39301Y-113066D01*
X39122Y-113452D01*
X38975Y-113849D01*
X38861Y-114258D01*
X38780Y-114678D01*
X38731Y-115109D01*
X38715Y-115553D01*
X38731Y-115998D01*
X38780Y-116431D01*
X38861Y-116852D01*
X38975Y-117262D01*
X39122Y-117659D01*
X39301Y-118045D01*
X39513Y-118418D01*
X39757Y-118780D01*
X40027Y-119114D01*
X40317Y-119403D01*
X40625Y-119647D01*
X40953Y-119848D01*
X41299Y-120003D01*
X41665Y-120114D01*
X42051Y-120181D01*
X42455Y-120203D01*
G37*
%LPD*%
G36*
X78848Y-120650D02*
X73347Y-120650D01*
X73137Y-120643D01*
X72930Y-120623D01*
X72728Y-120590D01*
X72529Y-120543D01*
X72144Y-120409D01*
X71775Y-120221D01*
X71437Y-119995D01*
X71146Y-119747D01*
X70901Y-119476D01*
X70702Y-119183D01*
X70549Y-118871D01*
X70439Y-118543D01*
X70374Y-118198D01*
X70352Y-117839D01*
X70360Y-117635D01*
X70385Y-117436D01*
X70427Y-117241D01*
X70485Y-117050D01*
X70560Y-116864D01*
X70652Y-116682D01*
X70761Y-116505D01*
X70886Y-116332D01*
X71029Y-116166D01*
X71191Y-116007D01*
X71373Y-115858D01*
X71574Y-115717D01*
X71793Y-115584D01*
X72032Y-115460D01*
X72568Y-115237D01*
X72229Y-115021D01*
X71935Y-114789D01*
X71687Y-114541D01*
X71484Y-114276D01*
X71326Y-113995D01*
X71213Y-113698D01*
X71145Y-113386D01*
X71123Y-113056D01*
X71136Y-112794D01*
X71176Y-112539D01*
X71244Y-112294D01*
X71338Y-112057D01*
X71460Y-111828D01*
X71608Y-111609D01*
X71783Y-111398D01*
X71985Y-111195D01*
X72209Y-111009D01*
X72449Y-110848D01*
X72704Y-110712D01*
X72976Y-110601D01*
X73264Y-110514D01*
X73568Y-110452D01*
X73887Y-110415D01*
X74223Y-110403D01*
X78848Y-110403D01*
X78970Y-110409D01*
X79073Y-110428D01*
X79158Y-110459D01*
X79224Y-110503D01*
X79310Y-110620D01*
X79331Y-110691D01*
X79338Y-110770D01*
X79331Y-110849D01*
X79310Y-110920D01*
X79224Y-111038D01*
X79158Y-111082D01*
X79073Y-111113D01*
X78970Y-111132D01*
X78848Y-111138D01*
X77858Y-111138D01*
X77858Y-119914D01*
X78848Y-119914D01*
X78970Y-119921D01*
X79073Y-119939D01*
X79158Y-119971D01*
X79224Y-120015D01*
X79310Y-120132D01*
X79331Y-120203D01*
X79338Y-120282D01*
X79331Y-120358D01*
X79310Y-120427D01*
X79224Y-120545D01*
X79158Y-120591D01*
X79073Y-120624D01*
X78970Y-120643D01*
X78848Y-120650D01*
G37*
%LPC*%
G36*
X77122Y-119914D02*
X77122Y-115701D01*
X74477Y-115701D01*
X73901Y-115718D01*
X73391Y-115769D01*
X72946Y-115854D01*
X72568Y-115973D01*
X72241Y-116125D01*
X71951Y-116308D01*
X71700Y-116523D01*
X71486Y-116770D01*
X71315Y-117035D01*
X71194Y-117304D01*
X71121Y-117578D01*
X71096Y-117856D01*
X71113Y-118103D01*
X71164Y-118347D01*
X71249Y-118585D01*
X71368Y-118819D01*
X71519Y-119042D01*
X71703Y-119246D01*
X71918Y-119432D01*
X72165Y-119599D01*
X72439Y-119737D01*
X72736Y-119835D01*
X73057Y-119895D01*
X73400Y-119914D01*
X77122Y-119914D01*
G37*
G36*
X77122Y-114957D02*
X77122Y-111138D01*
X74206Y-111138D01*
X73951Y-111147D01*
X73709Y-111175D01*
X73479Y-111220D01*
X73262Y-111284D01*
X73057Y-111366D01*
X72864Y-111466D01*
X72683Y-111584D01*
X72515Y-111721D01*
X72363Y-111868D01*
X72232Y-112019D01*
X72120Y-112173D01*
X72029Y-112331D01*
X71958Y-112492D01*
X71908Y-112656D01*
X71877Y-112824D01*
X71867Y-112995D01*
X71886Y-113235D01*
X71941Y-113472D01*
X72035Y-113708D01*
X72165Y-113941D01*
X72328Y-114159D01*
X72522Y-114350D01*
X72744Y-114514D01*
X72997Y-114650D01*
X73352Y-114785D01*
X73724Y-114880D01*
X74114Y-114938D01*
X74521Y-114957D01*
X77122Y-114957D01*
G37*
%LPD*%
G36*
X31705Y-139963D02*
X31375Y-139946D01*
X31059Y-139895D01*
X30758Y-139810D01*
X30472Y-139691D01*
X30200Y-139539D01*
X29943Y-139352D01*
X29700Y-139131D01*
X29471Y-138877D01*
X29207Y-138515D01*
X28977Y-138123D01*
X28783Y-137700D01*
X28624Y-137245D01*
X28500Y-136760D01*
X28412Y-136244D01*
X28359Y-135697D01*
X28341Y-135119D01*
X28341Y-133298D01*
X28354Y-132806D01*
X28390Y-132347D01*
X28450Y-131921D01*
X28534Y-131528D01*
X28714Y-130974D01*
X28972Y-130363D01*
X29119Y-130065D01*
X29261Y-129809D01*
X29399Y-129597D01*
X29533Y-129426D01*
X29744Y-129207D01*
X29977Y-129014D01*
X30231Y-128846D01*
X30505Y-128704D01*
X30795Y-128591D01*
X31096Y-128510D01*
X31408Y-128461D01*
X31731Y-128445D01*
X32061Y-128462D01*
X32376Y-128513D01*
X32677Y-128598D01*
X32964Y-128717D01*
X33236Y-128870D01*
X33493Y-129056D01*
X33736Y-129277D01*
X33964Y-129531D01*
X34229Y-129893D01*
X34459Y-130286D01*
X34653Y-130710D01*
X34812Y-131165D01*
X34935Y-131651D01*
X35024Y-132169D01*
X35077Y-132718D01*
X35094Y-133298D01*
X35094Y-135119D01*
X35082Y-135607D01*
X35044Y-136063D01*
X34981Y-136487D01*
X34893Y-136880D01*
X34817Y-137153D01*
X34719Y-137440D01*
X34459Y-138053D01*
X34169Y-138605D01*
X34033Y-138815D01*
X33903Y-138982D01*
X33691Y-139201D01*
X33458Y-139395D01*
X33203Y-139562D01*
X32927Y-139704D01*
X32635Y-139817D01*
X32334Y-139898D01*
X32024Y-139947D01*
X31705Y-139963D01*
G37*
%LPC*%
G36*
X31705Y-139227D02*
X32012Y-139207D01*
X32303Y-139148D01*
X32577Y-139050D01*
X32835Y-138912D01*
X33001Y-138797D01*
X33150Y-138673D01*
X33281Y-138539D01*
X33395Y-138395D01*
X33578Y-138105D01*
X33751Y-137769D01*
X33913Y-137387D01*
X34065Y-136959D01*
X34194Y-136499D01*
X34285Y-136021D01*
X34340Y-135527D01*
X34359Y-135014D01*
X34359Y-133394D01*
X34348Y-132980D01*
X34315Y-132579D01*
X34260Y-132192D01*
X34183Y-131817D01*
X34085Y-131456D01*
X33964Y-131108D01*
X33822Y-130773D01*
X33658Y-130451D01*
X33474Y-130155D01*
X33274Y-129899D01*
X33057Y-129682D01*
X32824Y-129505D01*
X32573Y-129367D01*
X32306Y-129269D01*
X32023Y-129209D01*
X31722Y-129190D01*
X31419Y-129209D01*
X31131Y-129266D01*
X30858Y-129362D01*
X30601Y-129496D01*
X30434Y-129611D01*
X30284Y-129737D01*
X30150Y-129874D01*
X30032Y-130022D01*
X29853Y-130312D01*
X29683Y-130647D01*
X29522Y-131028D01*
X29371Y-131454D01*
X29242Y-131912D01*
X29151Y-132388D01*
X29096Y-132882D01*
X29077Y-133394D01*
X29077Y-135014D01*
X29088Y-135428D01*
X29121Y-135829D01*
X29176Y-136217D01*
X29252Y-136592D01*
X29351Y-136954D01*
X29471Y-137303D01*
X29614Y-137639D01*
X29778Y-137961D01*
X29961Y-138258D01*
X30161Y-138515D01*
X30377Y-138733D01*
X30610Y-138911D01*
X30859Y-139049D01*
X31125Y-139148D01*
X31406Y-139207D01*
X31705Y-139227D01*
G37*
%LPD*%
G36*
X63964Y-139963D02*
X63620Y-139948D01*
X63289Y-139903D01*
X62972Y-139829D01*
X62667Y-139724D01*
X62376Y-139590D01*
X62098Y-139426D01*
X61833Y-139232D01*
X61581Y-139008D01*
X61351Y-138764D01*
X61152Y-138509D01*
X60983Y-138243D01*
X60845Y-137966D01*
X60738Y-137678D01*
X60662Y-137379D01*
X60616Y-137069D01*
X60600Y-136748D01*
X60608Y-136540D01*
X60630Y-136335D01*
X60666Y-136133D01*
X60717Y-135935D01*
X60864Y-135549D01*
X61069Y-135176D01*
X61193Y-134998D01*
X61331Y-134828D01*
X61650Y-134516D01*
X62025Y-134239D01*
X62457Y-133998D01*
X62082Y-133763D01*
X61763Y-133523D01*
X61500Y-133277D01*
X61292Y-133026D01*
X61070Y-132666D01*
X60983Y-132478D01*
X60911Y-132286D01*
X60856Y-132089D01*
X60816Y-131886D01*
X60792Y-131679D01*
X60784Y-131467D01*
X60799Y-131170D01*
X60842Y-130882D01*
X60915Y-130603D01*
X61016Y-130334D01*
X61147Y-130074D01*
X61306Y-129824D01*
X61495Y-129583D01*
X61713Y-129352D01*
X61951Y-129139D01*
X62201Y-128955D01*
X62464Y-128799D01*
X62740Y-128672D01*
X63027Y-128573D01*
X63327Y-128502D01*
X63639Y-128459D01*
X63964Y-128445D01*
X64286Y-128459D01*
X64597Y-128502D01*
X64895Y-128573D01*
X65182Y-128672D01*
X65457Y-128799D01*
X65720Y-128955D01*
X65971Y-129139D01*
X66210Y-129352D01*
X66429Y-129583D01*
X66618Y-129824D01*
X66779Y-130074D01*
X66910Y-130334D01*
X67012Y-130603D01*
X67085Y-130882D01*
X67128Y-131170D01*
X67143Y-131467D01*
X67135Y-131679D01*
X67111Y-131887D01*
X67071Y-132090D01*
X67016Y-132288D01*
X66944Y-132482D01*
X66857Y-132671D01*
X66635Y-133035D01*
X66424Y-133282D01*
X66158Y-133525D01*
X65837Y-133764D01*
X65461Y-133998D01*
X65897Y-134243D01*
X66275Y-134523D01*
X66595Y-134837D01*
X66734Y-135006D01*
X66858Y-135185D01*
X67063Y-135557D01*
X67210Y-135942D01*
X67261Y-136139D01*
X67298Y-136339D01*
X67319Y-136542D01*
X67327Y-136748D01*
X67311Y-137069D01*
X67265Y-137379D01*
X67189Y-137678D01*
X67082Y-137966D01*
X66944Y-138243D01*
X66775Y-138509D01*
X66576Y-138764D01*
X66346Y-139008D01*
X66094Y-139232D01*
X65829Y-139426D01*
X65551Y-139590D01*
X65260Y-139724D01*
X64955Y-139829D01*
X64638Y-139903D01*
X64307Y-139948D01*
X63964Y-139963D01*
G37*
%LPC*%
G36*
X63964Y-139227D02*
X64236Y-139216D01*
X64498Y-139181D01*
X64748Y-139124D01*
X64987Y-139043D01*
X65215Y-138940D01*
X65432Y-138813D01*
X65639Y-138664D01*
X65833Y-138491D01*
X66011Y-138303D01*
X66165Y-138107D01*
X66295Y-137903D01*
X66402Y-137690D01*
X66485Y-137469D01*
X66544Y-137240D01*
X66579Y-137003D01*
X66591Y-136757D01*
X66579Y-136520D01*
X66544Y-136291D01*
X66485Y-136069D01*
X66403Y-135855D01*
X66297Y-135649D01*
X66167Y-135450D01*
X66014Y-135259D01*
X65838Y-135076D01*
X65644Y-134907D01*
X65438Y-134761D01*
X65221Y-134638D01*
X64993Y-134537D01*
X64753Y-134458D01*
X64501Y-134402D01*
X64238Y-134369D01*
X63964Y-134357D01*
X63689Y-134369D01*
X63426Y-134402D01*
X63174Y-134458D01*
X62934Y-134537D01*
X62706Y-134638D01*
X62489Y-134761D01*
X62283Y-134907D01*
X62089Y-135076D01*
X61971Y-135199D01*
X61913Y-135259D01*
X61760Y-135450D01*
X61630Y-135650D01*
X61524Y-135857D01*
X61442Y-136072D01*
X61383Y-136296D01*
X61348Y-136527D01*
X61336Y-136766D01*
X61348Y-137009D01*
X61383Y-137245D01*
X61443Y-137472D01*
X61525Y-137692D01*
X61632Y-137904D01*
X61762Y-138108D01*
X61916Y-138303D01*
X62094Y-138491D01*
X62289Y-138664D01*
X62495Y-138813D01*
X62712Y-138940D01*
X62940Y-139043D01*
X63179Y-139124D01*
X63430Y-139181D01*
X63691Y-139216D01*
X63964Y-139227D01*
G37*
G36*
X63972Y-133630D02*
X64225Y-133620D01*
X64468Y-133590D01*
X64700Y-133540D01*
X64921Y-133469D01*
X65132Y-133379D01*
X65333Y-133268D01*
X65523Y-133137D01*
X65702Y-132987D01*
X65865Y-132822D01*
X66007Y-132651D01*
X66126Y-132474D01*
X66224Y-132289D01*
X66300Y-132098D01*
X66355Y-131900D01*
X66388Y-131696D01*
X66398Y-131485D01*
X66387Y-131256D01*
X66354Y-131036D01*
X66299Y-130823D01*
X66222Y-130617D01*
X66123Y-130420D01*
X66002Y-130230D01*
X65859Y-130048D01*
X65693Y-129873D01*
X65512Y-129713D01*
X65321Y-129574D01*
X65121Y-129457D01*
X64911Y-129361D01*
X64691Y-129286D01*
X64461Y-129232D01*
X64221Y-129200D01*
X63972Y-129190D01*
X63721Y-129200D01*
X63480Y-129232D01*
X63249Y-129285D01*
X63027Y-129359D01*
X62816Y-129455D01*
X62615Y-129572D01*
X62424Y-129709D01*
X62242Y-129869D01*
X62077Y-130042D01*
X61934Y-130225D01*
X61813Y-130415D01*
X61714Y-130614D01*
X61637Y-130821D01*
X61581Y-131037D01*
X61548Y-131261D01*
X61537Y-131493D01*
X61548Y-131702D01*
X61581Y-131905D01*
X61635Y-132102D01*
X61711Y-132291D01*
X61809Y-132475D01*
X61929Y-132652D01*
X61990Y-132725D01*
X62071Y-132822D01*
X62234Y-132987D01*
X62413Y-133137D01*
X62603Y-133268D01*
X62805Y-133379D01*
X63017Y-133469D01*
X63239Y-133540D01*
X63473Y-133590D01*
X63717Y-133620D01*
X63972Y-133630D01*
G37*
%LPD*%
G36*
X9776Y-159039D02*
X9386Y-159020D01*
X9010Y-158965D01*
X8646Y-158872D01*
X8297Y-158741D01*
X7960Y-158574D01*
X7637Y-158369D01*
X7327Y-158127D01*
X7030Y-157848D01*
X6758Y-157542D01*
X6522Y-157219D01*
X6323Y-156881D01*
X6159Y-156525D01*
X6032Y-156154D01*
X5942Y-155766D01*
X5887Y-155361D01*
X5869Y-154940D01*
X5887Y-154524D01*
X5941Y-154124D01*
X6031Y-153740D01*
X6156Y-153373D01*
X6317Y-153023D01*
X6515Y-152689D01*
X6748Y-152372D01*
X7017Y-152072D01*
X7311Y-151798D01*
X7619Y-151560D01*
X7942Y-151359D01*
X8280Y-151195D01*
X8632Y-151067D01*
X8999Y-150975D01*
X9380Y-150921D01*
X9776Y-150902D01*
X10009Y-150909D01*
X10188Y-150925D01*
X10238Y-150929D01*
X10462Y-150963D01*
X10683Y-151011D01*
X11110Y-151146D01*
X11521Y-151336D01*
X11914Y-151580D01*
X12290Y-151878D01*
X12649Y-152230D01*
X12990Y-152637D01*
X12990Y-147758D01*
X14715Y-147758D01*
X14837Y-147765D01*
X14941Y-147784D01*
X15026Y-147817D01*
X15092Y-147863D01*
X15177Y-147981D01*
X15199Y-148050D01*
X15206Y-148126D01*
X15199Y-148205D01*
X15177Y-148277D01*
X15092Y-148397D01*
X15026Y-148443D01*
X14941Y-148476D01*
X14837Y-148496D01*
X14715Y-148503D01*
X13726Y-148503D01*
X13726Y-158014D01*
X14715Y-158014D01*
X14837Y-158021D01*
X14941Y-158039D01*
X15026Y-158071D01*
X15092Y-158115D01*
X15177Y-158232D01*
X15199Y-158303D01*
X15206Y-158382D01*
X15199Y-158458D01*
X15177Y-158527D01*
X15092Y-158645D01*
X15026Y-158691D01*
X14941Y-158724D01*
X14837Y-158743D01*
X14715Y-158750D01*
X12990Y-158750D01*
X12990Y-157305D01*
X12658Y-157711D01*
X12306Y-158064D01*
X11934Y-158362D01*
X11543Y-158606D01*
X11131Y-158795D01*
X10699Y-158931D01*
X10476Y-158978D01*
X10247Y-159012D01*
X10014Y-159032D01*
X9776Y-159039D01*
G37*
%LPC*%
G36*
X9793Y-158303D02*
X10108Y-158288D01*
X10412Y-158243D01*
X10707Y-158167D01*
X10991Y-158061D01*
X11265Y-157925D01*
X11529Y-157759D01*
X11783Y-157562D01*
X12027Y-157336D01*
X12250Y-157087D01*
X12444Y-156825D01*
X12608Y-156550D01*
X12743Y-156262D01*
X12847Y-155960D01*
X12922Y-155645D01*
X12966Y-155317D01*
X12981Y-154975D01*
X12966Y-154634D01*
X12922Y-154305D01*
X12847Y-153990D01*
X12743Y-153689D01*
X12608Y-153400D01*
X12444Y-153125D01*
X12250Y-152863D01*
X12027Y-152615D01*
X11783Y-152388D01*
X11529Y-152191D01*
X11265Y-152025D01*
X10991Y-151889D01*
X10707Y-151783D01*
X10412Y-151707D01*
X10108Y-151662D01*
X9793Y-151647D01*
X9539Y-151659D01*
X9478Y-151662D01*
X9174Y-151707D01*
X8880Y-151783D01*
X8595Y-151889D01*
X8321Y-152025D01*
X8057Y-152191D01*
X7803Y-152388D01*
X7560Y-152615D01*
X7336Y-152863D01*
X7142Y-153125D01*
X6978Y-153400D01*
X6844Y-153689D01*
X6739Y-153990D01*
X6665Y-154305D01*
X6620Y-154634D01*
X6605Y-154975D01*
X6620Y-155317D01*
X6665Y-155645D01*
X6739Y-155960D01*
X6844Y-156262D01*
X6978Y-156550D01*
X7142Y-156825D01*
X7336Y-157087D01*
X7560Y-157336D01*
X7803Y-157562D01*
X8057Y-157759D01*
X8321Y-157925D01*
X8595Y-158061D01*
X8880Y-158167D01*
X9174Y-158243D01*
X9478Y-158288D01*
X9793Y-158303D01*
G37*
%LPD*%
G36*
X68465Y-162131D02*
X64953Y-162131D01*
X64831Y-162124D01*
X64728Y-162105D01*
X64643Y-162072D01*
X64577Y-162026D01*
X64491Y-161907D01*
X64470Y-161838D01*
X64463Y-161763D01*
X64470Y-161684D01*
X64491Y-161613D01*
X64577Y-161496D01*
X64643Y-161452D01*
X64728Y-161420D01*
X64831Y-161401D01*
X64953Y-161395D01*
X66740Y-161395D01*
X66740Y-156963D01*
X66422Y-157339D01*
X66080Y-157665D01*
X65716Y-157940D01*
X65328Y-158165D01*
X64916Y-158341D01*
X64482Y-158466D01*
X64024Y-158541D01*
X63787Y-158560D01*
X63543Y-158566D01*
X63137Y-158549D01*
X62748Y-158496D01*
X62375Y-158408D01*
X62018Y-158285D01*
X61677Y-158126D01*
X61353Y-157933D01*
X61045Y-157704D01*
X60754Y-157441D01*
X60488Y-157152D01*
X60257Y-156849D01*
X60062Y-156532D01*
X59903Y-156200D01*
X59779Y-155854D01*
X59690Y-155494D01*
X59637Y-155119D01*
X59619Y-154730D01*
X59627Y-154482D01*
X59651Y-154236D01*
X59690Y-153994D01*
X59745Y-153754D01*
X59816Y-153518D01*
X59903Y-153284D01*
X60123Y-152825D01*
X60255Y-152604D01*
X60401Y-152397D01*
X60559Y-152201D01*
X60731Y-152018D01*
X60915Y-151847D01*
X61112Y-151689D01*
X61323Y-151544D01*
X61546Y-151410D01*
X61779Y-151291D01*
X62016Y-151188D01*
X62259Y-151101D01*
X62507Y-151029D01*
X62761Y-150974D01*
X63019Y-150934D01*
X63283Y-150910D01*
X63552Y-150902D01*
X63804Y-150909D01*
X64047Y-150928D01*
X64282Y-150959D01*
X64509Y-151003D01*
X64936Y-151129D01*
X65330Y-151305D01*
X65700Y-151531D01*
X65862Y-151656D01*
X66059Y-151807D01*
X66406Y-152131D01*
X66740Y-152505D01*
X66740Y-151165D01*
X68465Y-151165D01*
X68587Y-151172D01*
X68691Y-151191D01*
X68776Y-151224D01*
X68842Y-151270D01*
X68927Y-151388D01*
X68949Y-151457D01*
X68956Y-151533D01*
X68949Y-151612D01*
X68927Y-151684D01*
X68842Y-151805D01*
X68776Y-151850D01*
X68691Y-151883D01*
X68587Y-151903D01*
X68465Y-151910D01*
X67476Y-151910D01*
X67476Y-161395D01*
X68465Y-161395D01*
X68587Y-161401D01*
X68691Y-161420D01*
X68776Y-161452D01*
X68842Y-161496D01*
X68927Y-161613D01*
X68949Y-161684D01*
X68956Y-161763D01*
X68949Y-161842D01*
X68927Y-161913D01*
X68842Y-162030D01*
X68776Y-162074D01*
X68691Y-162106D01*
X68587Y-162125D01*
X68465Y-162131D01*
G37*
%LPC*%
G36*
X63543Y-157822D02*
X63872Y-157807D01*
X64187Y-157765D01*
X64490Y-157694D01*
X64780Y-157594D01*
X65057Y-157466D01*
X65322Y-157309D01*
X65573Y-157124D01*
X65812Y-156911D01*
X66029Y-156677D01*
X66218Y-156433D01*
X66377Y-156177D01*
X66508Y-155910D01*
X66609Y-155632D01*
X66682Y-155342D01*
X66725Y-155042D01*
X66740Y-154730D01*
X66725Y-154420D01*
X66682Y-154121D01*
X66609Y-153833D01*
X66508Y-153556D01*
X66377Y-153290D01*
X66218Y-153035D01*
X66029Y-152791D01*
X65812Y-152558D01*
X65573Y-152344D01*
X65322Y-152159D01*
X65147Y-152056D01*
X65057Y-152003D01*
X64780Y-151875D01*
X64490Y-151775D01*
X64187Y-151704D01*
X63872Y-151661D01*
X63543Y-151647D01*
X63217Y-151661D01*
X62903Y-151704D01*
X62602Y-151774D01*
X62314Y-151873D01*
X62038Y-152001D01*
X61775Y-152157D01*
X61525Y-152341D01*
X61288Y-152553D01*
X61071Y-152786D01*
X60884Y-153029D01*
X60725Y-153284D01*
X60595Y-153551D01*
X60494Y-153828D01*
X60422Y-154118D01*
X60378Y-154418D01*
X60364Y-154730D01*
X60378Y-155044D01*
X60422Y-155346D01*
X60494Y-155637D01*
X60596Y-155916D01*
X60726Y-156183D01*
X60886Y-156439D01*
X61075Y-156683D01*
X61292Y-156915D01*
X61530Y-157128D01*
X61781Y-157312D01*
X62044Y-157468D01*
X62319Y-157595D01*
X62607Y-157694D01*
X62906Y-157765D01*
X63219Y-157807D01*
X63543Y-157822D01*
G37*
%LPD*%
G36*
X-61708Y-139700D02*
X-65956Y-139700D01*
X-66078Y-139693D01*
X-66182Y-139674D01*
X-66267Y-139641D01*
X-66333Y-139595D01*
X-66418Y-139477D01*
X-66440Y-139408D01*
X-66447Y-139332D01*
X-66440Y-139253D01*
X-66418Y-139182D01*
X-66333Y-139065D01*
X-66267Y-139021D01*
X-66182Y-138989D01*
X-66078Y-138971D01*
X-65956Y-138964D01*
X-63434Y-138964D01*
X-63434Y-135496D01*
X-65737Y-135496D01*
X-66098Y-135486D01*
X-66429Y-135454D01*
X-66729Y-135402D01*
X-66998Y-135330D01*
X-67346Y-135199D01*
X-67688Y-135036D01*
X-68025Y-134840D01*
X-68356Y-134611D01*
X-68567Y-134434D01*
X-68762Y-134226D01*
X-68941Y-133987D01*
X-69105Y-133718D01*
X-69241Y-133425D01*
X-69338Y-133114D01*
X-69396Y-132785D01*
X-69416Y-132439D01*
X-69401Y-132144D01*
X-69356Y-131858D01*
X-69281Y-131582D01*
X-69176Y-131316D01*
X-69041Y-131059D01*
X-68876Y-130812D01*
X-68681Y-130574D01*
X-68457Y-130346D01*
X-68208Y-130137D01*
X-67942Y-129955D01*
X-67659Y-129802D01*
X-67359Y-129676D01*
X-67041Y-129578D01*
X-66705Y-129508D01*
X-66353Y-129466D01*
X-65982Y-129453D01*
X-61708Y-129453D01*
X-61586Y-129459D01*
X-61483Y-129478D01*
X-61398Y-129509D01*
X-61332Y-129553D01*
X-61246Y-129670D01*
X-61225Y-129741D01*
X-61218Y-129820D01*
X-61225Y-129899D01*
X-61246Y-129970D01*
X-61332Y-130088D01*
X-61398Y-130132D01*
X-61483Y-130163D01*
X-61586Y-130182D01*
X-61708Y-130188D01*
X-62698Y-130188D01*
X-62698Y-138964D01*
X-61708Y-138964D01*
X-61586Y-138971D01*
X-61483Y-138989D01*
X-61398Y-139021D01*
X-61332Y-139065D01*
X-61246Y-139182D01*
X-61225Y-139253D01*
X-61218Y-139332D01*
X-61225Y-139408D01*
X-61246Y-139477D01*
X-61332Y-139595D01*
X-61398Y-139641D01*
X-61483Y-139674D01*
X-61586Y-139693D01*
X-61708Y-139700D01*
G37*
%LPC*%
G36*
X-63434Y-134760D02*
X-63434Y-130188D01*
X-66052Y-130188D01*
X-66331Y-130199D01*
X-66597Y-130231D01*
X-66851Y-130286D01*
X-67093Y-130361D01*
X-67322Y-130459D01*
X-67539Y-130577D01*
X-67743Y-130718D01*
X-67936Y-130880D01*
X-68110Y-131056D01*
X-68261Y-131237D01*
X-68389Y-131424D01*
X-68494Y-131616D01*
X-68575Y-131814D01*
X-68634Y-132017D01*
X-68668Y-132225D01*
X-68680Y-132439D01*
X-68660Y-132710D01*
X-68598Y-132978D01*
X-68495Y-133244D01*
X-68352Y-133508D01*
X-68163Y-133760D01*
X-67927Y-133993D01*
X-67642Y-134205D01*
X-67309Y-134397D01*
X-66946Y-134556D01*
X-66570Y-134669D01*
X-66182Y-134737D01*
X-65781Y-134760D01*
X-63434Y-134760D01*
G37*
%LPD*%
G36*
X99542Y-120650D02*
X95294Y-120650D01*
X95172Y-120643D01*
X95068Y-120624D01*
X94983Y-120591D01*
X94917Y-120545D01*
X94832Y-120427D01*
X94811Y-120358D01*
X94803Y-120282D01*
X94811Y-120203D01*
X94832Y-120132D01*
X94917Y-120015D01*
X94983Y-119971D01*
X95068Y-119939D01*
X95172Y-119921D01*
X95294Y-119914D01*
X97816Y-119914D01*
X97816Y-116446D01*
X95513Y-116446D01*
X95152Y-116436D01*
X94821Y-116404D01*
X94521Y-116352D01*
X94252Y-116280D01*
X93904Y-116149D01*
X93562Y-115986D01*
X93225Y-115790D01*
X92894Y-115561D01*
X92683Y-115384D01*
X92488Y-115176D01*
X92309Y-114937D01*
X92145Y-114668D01*
X92009Y-114375D01*
X91912Y-114064D01*
X91854Y-113735D01*
X91834Y-113389D01*
X91849Y-113094D01*
X91894Y-112808D01*
X91969Y-112532D01*
X92074Y-112266D01*
X92209Y-112009D01*
X92374Y-111762D01*
X92569Y-111524D01*
X92793Y-111296D01*
X93042Y-111087D01*
X93308Y-110905D01*
X93591Y-110752D01*
X93891Y-110626D01*
X94209Y-110528D01*
X94545Y-110458D01*
X94897Y-110416D01*
X95268Y-110403D01*
X99542Y-110403D01*
X99664Y-110409D01*
X99767Y-110428D01*
X99852Y-110459D01*
X99918Y-110503D01*
X100004Y-110620D01*
X100025Y-110691D01*
X100032Y-110770D01*
X100025Y-110849D01*
X100004Y-110920D01*
X99918Y-111038D01*
X99852Y-111082D01*
X99767Y-111113D01*
X99664Y-111132D01*
X99542Y-111138D01*
X98552Y-111138D01*
X98552Y-119914D01*
X99542Y-119914D01*
X99664Y-119921D01*
X99767Y-119939D01*
X99852Y-119971D01*
X99918Y-120015D01*
X100004Y-120132D01*
X100025Y-120203D01*
X100032Y-120282D01*
X100025Y-120358D01*
X100004Y-120427D01*
X99918Y-120545D01*
X99852Y-120591D01*
X99767Y-120624D01*
X99664Y-120643D01*
X99542Y-120650D01*
G37*
%LPC*%
G36*
X97816Y-115710D02*
X97816Y-111138D01*
X95198Y-111138D01*
X94919Y-111149D01*
X94653Y-111181D01*
X94399Y-111236D01*
X94157Y-111311D01*
X93928Y-111409D01*
X93711Y-111527D01*
X93507Y-111668D01*
X93314Y-111830D01*
X93140Y-112006D01*
X92989Y-112187D01*
X92861Y-112374D01*
X92756Y-112566D01*
X92675Y-112764D01*
X92617Y-112967D01*
X92582Y-113175D01*
X92570Y-113389D01*
X92590Y-113660D01*
X92652Y-113928D01*
X92755Y-114194D01*
X92898Y-114458D01*
X93087Y-114710D01*
X93323Y-114943D01*
X93608Y-115155D01*
X93941Y-115347D01*
X94304Y-115506D01*
X94680Y-115619D01*
X95068Y-115687D01*
X95469Y-115710D01*
X97816Y-115710D01*
G37*
%LPD*%
G36*
X9530Y-139963D02*
X9175Y-139946D01*
X8838Y-139895D01*
X8522Y-139809D01*
X8225Y-139690D01*
X7948Y-139537D01*
X7691Y-139349D01*
X7453Y-139128D01*
X7236Y-138872D01*
X7041Y-138596D01*
X6872Y-138313D01*
X6729Y-138023D01*
X6612Y-137726D01*
X6521Y-137422D01*
X6456Y-137111D01*
X6417Y-136793D01*
X6404Y-136468D01*
X6418Y-136116D01*
X6460Y-135779D01*
X6532Y-135455D01*
X6631Y-135147D01*
X6759Y-134852D01*
X6916Y-134572D01*
X7101Y-134306D01*
X7314Y-134055D01*
X7546Y-133826D01*
X7786Y-133628D01*
X8035Y-133460D01*
X8291Y-133323D01*
X8556Y-133216D01*
X8829Y-133140D01*
X9110Y-133094D01*
X9399Y-133079D01*
X9618Y-133086D01*
X9831Y-133109D01*
X10040Y-133146D01*
X10243Y-133199D01*
X10441Y-133267D01*
X10635Y-133350D01*
X11006Y-133560D01*
X11365Y-133834D01*
X11719Y-134173D01*
X12068Y-134578D01*
X12412Y-135049D01*
X12451Y-134517D01*
X12464Y-134147D01*
X12443Y-133650D01*
X12377Y-133170D01*
X12267Y-132708D01*
X12113Y-132263D01*
X11915Y-131835D01*
X11674Y-131425D01*
X11388Y-131032D01*
X11059Y-130657D01*
X10703Y-130313D01*
X10337Y-130015D01*
X9962Y-129763D01*
X9577Y-129557D01*
X9184Y-129396D01*
X8780Y-129281D01*
X8367Y-129213D01*
X7945Y-129190D01*
X7689Y-129201D01*
X7455Y-129234D01*
X7242Y-129288D01*
X7052Y-129365D01*
X6905Y-129431D01*
X6780Y-129453D01*
X6644Y-129427D01*
X6535Y-129352D01*
X6463Y-129237D01*
X6439Y-129093D01*
X6452Y-128989D01*
X6491Y-128896D01*
X6557Y-128814D01*
X6649Y-128743D01*
X6909Y-128613D01*
X7201Y-128520D01*
X7522Y-128464D01*
X7875Y-128445D01*
X8144Y-128452D01*
X8408Y-128473D01*
X8668Y-128508D01*
X8923Y-128556D01*
X9173Y-128618D01*
X9418Y-128694D01*
X9894Y-128888D01*
X10346Y-129125D01*
X10769Y-129393D01*
X11162Y-129694D01*
X11527Y-130026D01*
X11860Y-130388D01*
X12158Y-130778D01*
X12421Y-131196D01*
X12648Y-131642D01*
X12778Y-131943D01*
X12890Y-132250D01*
X12985Y-132563D01*
X13062Y-132882D01*
X13123Y-133206D01*
X13166Y-133537D01*
X13192Y-133874D01*
X13200Y-134217D01*
X13191Y-134672D01*
X13164Y-135117D01*
X13118Y-135551D01*
X13053Y-135975D01*
X12971Y-136390D01*
X12870Y-136794D01*
X12751Y-137188D01*
X12613Y-137572D01*
X12490Y-137866D01*
X12355Y-138141D01*
X12209Y-138396D01*
X12052Y-138631D01*
X11884Y-138847D01*
X11704Y-139043D01*
X11514Y-139219D01*
X11313Y-139376D01*
X11104Y-139514D01*
X10891Y-139633D01*
X10674Y-139734D01*
X10453Y-139816D01*
X10229Y-139880D01*
X10000Y-139926D01*
X9767Y-139954D01*
X9530Y-139963D01*
G37*
%LPC*%
G36*
X9513Y-139227D02*
X9752Y-139216D01*
X9983Y-139184D01*
X10206Y-139131D01*
X10420Y-139056D01*
X10627Y-138960D01*
X10826Y-138843D01*
X11016Y-138704D01*
X11199Y-138544D01*
X11371Y-138359D01*
X11532Y-138145D01*
X11681Y-137903D01*
X11817Y-137633D01*
X11942Y-137334D01*
X12055Y-137007D01*
X12156Y-136651D01*
X12246Y-136267D01*
X11925Y-135692D01*
X11621Y-135213D01*
X11334Y-134830D01*
X11063Y-134541D01*
X10865Y-134371D01*
X10665Y-134223D01*
X10463Y-134098D01*
X10260Y-133996D01*
X10054Y-133917D01*
X9846Y-133860D01*
X9637Y-133826D01*
X9425Y-133814D01*
X9207Y-133826D01*
X8994Y-133861D01*
X8788Y-133920D01*
X8587Y-134003D01*
X8391Y-134109D01*
X8202Y-134238D01*
X8018Y-134391D01*
X7840Y-134568D01*
X7676Y-134762D01*
X7533Y-134969D01*
X7413Y-135188D01*
X7314Y-135419D01*
X7238Y-135663D01*
X7183Y-135919D01*
X7150Y-136187D01*
X7139Y-136468D01*
X7150Y-136767D01*
X7183Y-137052D01*
X7237Y-137323D01*
X7313Y-137579D01*
X7411Y-137821D01*
X7531Y-138049D01*
X7672Y-138262D01*
X7836Y-138461D01*
X8014Y-138640D01*
X8202Y-138796D01*
X8398Y-138928D01*
X8603Y-139035D01*
X8817Y-139119D01*
X9040Y-139179D01*
X9272Y-139215D01*
X9513Y-139227D01*
G37*
%LPD*%
G36*
X96222Y-139700D02*
X93490Y-139700D01*
X93364Y-139693D01*
X93258Y-139674D01*
X93171Y-139641D01*
X93104Y-139595D01*
X93019Y-139477D01*
X92997Y-139408D01*
X92990Y-139332D01*
X92997Y-139253D01*
X93019Y-139182D01*
X93104Y-139065D01*
X93171Y-139021D01*
X93258Y-138989D01*
X93364Y-138971D01*
X93490Y-138964D01*
X94103Y-138964D01*
X94103Y-136626D01*
X93490Y-136626D01*
X93364Y-136619D01*
X93258Y-136600D01*
X93171Y-136567D01*
X93104Y-136521D01*
X93019Y-136402D01*
X92997Y-136333D01*
X92990Y-136258D01*
X92997Y-136179D01*
X93019Y-136108D01*
X93104Y-135991D01*
X93171Y-135947D01*
X93258Y-135915D01*
X93364Y-135896D01*
X93490Y-135890D01*
X94103Y-135890D01*
X94103Y-128708D01*
X95635Y-128708D01*
X99726Y-135776D01*
X99726Y-136626D01*
X94847Y-136626D01*
X94847Y-138964D01*
X96222Y-138964D01*
X96348Y-138971D01*
X96454Y-138989D01*
X96541Y-139021D01*
X96608Y-139065D01*
X96693Y-139182D01*
X96714Y-139253D01*
X96722Y-139332D01*
X96714Y-139408D01*
X96693Y-139477D01*
X96608Y-139595D01*
X96541Y-139641D01*
X96454Y-139674D01*
X96348Y-139693D01*
X96222Y-139700D01*
G37*
%LPC*%
G36*
X98955Y-135890D02*
X95233Y-129453D01*
X94847Y-129453D01*
X94847Y-135890D01*
X98955Y-135890D01*
G37*
%LPD*%
G36*
X-77845Y-139700D02*
X-80551Y-139700D01*
X-80677Y-139693D01*
X-80783Y-139674D01*
X-80870Y-139641D01*
X-80937Y-139595D01*
X-81022Y-139477D01*
X-81043Y-139408D01*
X-81050Y-139332D01*
X-81043Y-139253D01*
X-81022Y-139182D01*
X-80937Y-139065D01*
X-80870Y-139021D01*
X-80783Y-138989D01*
X-80677Y-138971D01*
X-80551Y-138964D01*
X-79938Y-138964D01*
X-79938Y-130188D01*
X-80393Y-130188D01*
X-80519Y-130182D01*
X-80626Y-130163D01*
X-80712Y-130132D01*
X-80779Y-130088D01*
X-80864Y-129970D01*
X-80886Y-129899D01*
X-80893Y-129820D01*
X-80886Y-129741D01*
X-80864Y-129670D01*
X-80779Y-129553D01*
X-80712Y-129509D01*
X-80626Y-129478D01*
X-80519Y-129459D01*
X-80393Y-129453D01*
X-78589Y-129453D01*
X-75848Y-135794D01*
X-73063Y-129453D01*
X-71258Y-129453D01*
X-71136Y-129459D01*
X-71033Y-129478D01*
X-70948Y-129509D01*
X-70882Y-129553D01*
X-70796Y-129670D01*
X-70775Y-129741D01*
X-70768Y-129820D01*
X-70775Y-129899D01*
X-70796Y-129970D01*
X-70882Y-130088D01*
X-70948Y-130132D01*
X-71033Y-130163D01*
X-71136Y-130182D01*
X-71258Y-130188D01*
X-71723Y-130188D01*
X-71723Y-138964D01*
X-71101Y-138964D01*
X-70979Y-138971D01*
X-70875Y-138989D01*
X-70790Y-139021D01*
X-70724Y-139065D01*
X-70639Y-139182D01*
X-70617Y-139253D01*
X-70610Y-139332D01*
X-70617Y-139408D01*
X-70639Y-139477D01*
X-70724Y-139595D01*
X-70790Y-139641D01*
X-70875Y-139674D01*
X-70979Y-139693D01*
X-71101Y-139700D01*
X-73816Y-139700D01*
X-73938Y-139693D01*
X-74041Y-139674D01*
X-74126Y-139641D01*
X-74192Y-139595D01*
X-74278Y-139477D01*
X-74299Y-139408D01*
X-74306Y-139332D01*
X-74299Y-139253D01*
X-74278Y-139182D01*
X-74192Y-139065D01*
X-74126Y-139021D01*
X-74041Y-138989D01*
X-73938Y-138971D01*
X-73816Y-138964D01*
X-72458Y-138964D01*
X-72458Y-130188D01*
X-72598Y-130188D01*
X-75427Y-136626D01*
X-76268Y-136626D01*
X-79045Y-130188D01*
X-79202Y-130188D01*
X-79202Y-138964D01*
X-77845Y-138964D01*
X-77719Y-138971D01*
X-77613Y-138989D01*
X-77526Y-139021D01*
X-77459Y-139065D01*
X-77374Y-139182D01*
X-77353Y-139253D01*
X-77346Y-139332D01*
X-77353Y-139408D01*
X-77375Y-139477D01*
X-77464Y-139595D01*
X-77532Y-139641D01*
X-77618Y-139674D01*
X-77722Y-139693D01*
X-77845Y-139700D01*
G37*
G36*
X-13345Y-120650D02*
X-16051Y-120650D01*
X-16177Y-120643D01*
X-16283Y-120624D01*
X-16370Y-120591D01*
X-16437Y-120545D01*
X-16522Y-120427D01*
X-16543Y-120358D01*
X-16550Y-120282D01*
X-16543Y-120203D01*
X-16522Y-120132D01*
X-16437Y-120015D01*
X-16370Y-119971D01*
X-16283Y-119939D01*
X-16177Y-119921D01*
X-16051Y-119914D01*
X-15438Y-119914D01*
X-15438Y-111138D01*
X-15893Y-111138D01*
X-16019Y-111132D01*
X-16126Y-111113D01*
X-16212Y-111082D01*
X-16279Y-111038D01*
X-16364Y-110920D01*
X-16386Y-110849D01*
X-16393Y-110770D01*
X-16386Y-110691D01*
X-16364Y-110620D01*
X-16279Y-110503D01*
X-16212Y-110459D01*
X-16126Y-110428D01*
X-16019Y-110409D01*
X-15893Y-110403D01*
X-14089Y-110403D01*
X-11348Y-116744D01*
X-8563Y-110403D01*
X-6758Y-110403D01*
X-6636Y-110409D01*
X-6533Y-110428D01*
X-6448Y-110459D01*
X-6382Y-110503D01*
X-6296Y-110620D01*
X-6275Y-110691D01*
X-6268Y-110770D01*
X-6275Y-110849D01*
X-6296Y-110920D01*
X-6382Y-111038D01*
X-6448Y-111082D01*
X-6533Y-111113D01*
X-6636Y-111132D01*
X-6758Y-111138D01*
X-7223Y-111138D01*
X-7223Y-119914D01*
X-6601Y-119914D01*
X-6479Y-119921D01*
X-6375Y-119939D01*
X-6290Y-119971D01*
X-6224Y-120015D01*
X-6139Y-120132D01*
X-6117Y-120203D01*
X-6110Y-120282D01*
X-6117Y-120358D01*
X-6139Y-120427D01*
X-6224Y-120545D01*
X-6290Y-120591D01*
X-6375Y-120624D01*
X-6479Y-120643D01*
X-6601Y-120650D01*
X-9316Y-120650D01*
X-9438Y-120643D01*
X-9541Y-120624D01*
X-9626Y-120591D01*
X-9692Y-120545D01*
X-9778Y-120427D01*
X-9799Y-120358D01*
X-9806Y-120282D01*
X-9799Y-120203D01*
X-9778Y-120132D01*
X-9692Y-120015D01*
X-9626Y-119971D01*
X-9541Y-119939D01*
X-9438Y-119921D01*
X-9316Y-119914D01*
X-7958Y-119914D01*
X-7958Y-111138D01*
X-8098Y-111138D01*
X-10927Y-117576D01*
X-11768Y-117576D01*
X-14545Y-111138D01*
X-14702Y-111138D01*
X-14702Y-119914D01*
X-13345Y-119914D01*
X-13219Y-119921D01*
X-13113Y-119939D01*
X-13026Y-119971D01*
X-12959Y-120015D01*
X-12874Y-120132D01*
X-12853Y-120203D01*
X-12846Y-120282D01*
X-12853Y-120358D01*
X-12875Y-120427D01*
X-12964Y-120545D01*
X-13032Y-120591D01*
X-13118Y-120624D01*
X-13222Y-120643D01*
X-13345Y-120650D01*
G37*
G36*
X7560Y-120650D02*
X6614Y-120650D01*
X6614Y-111138D01*
X5992Y-111138D01*
X5870Y-111132D01*
X5766Y-111113D01*
X5682Y-111082D01*
X5615Y-111038D01*
X5530Y-110920D01*
X5509Y-110849D01*
X5501Y-110770D01*
X5509Y-110691D01*
X5530Y-110620D01*
X5615Y-110503D01*
X5682Y-110459D01*
X5766Y-110428D01*
X5870Y-110409D01*
X5992Y-110403D01*
X8707Y-110403D01*
X8833Y-110409D01*
X8938Y-110428D01*
X9023Y-110459D01*
X9088Y-110503D01*
X9170Y-110620D01*
X9191Y-110691D01*
X9198Y-110770D01*
X9190Y-110849D01*
X9169Y-110920D01*
X9084Y-111038D01*
X9017Y-111082D01*
X8933Y-111113D01*
X8829Y-111132D01*
X8707Y-111138D01*
X7349Y-111138D01*
X7349Y-119590D01*
X12780Y-110403D01*
X14707Y-110403D01*
X14829Y-110409D01*
X14932Y-110428D01*
X15017Y-110459D01*
X15083Y-110503D01*
X15169Y-110620D01*
X15190Y-110691D01*
X15197Y-110770D01*
X15190Y-110849D01*
X15169Y-110920D01*
X15083Y-111038D01*
X15017Y-111082D01*
X14932Y-111113D01*
X14829Y-111132D01*
X14707Y-111138D01*
X13717Y-111138D01*
X13717Y-119914D01*
X14330Y-119914D01*
X14456Y-119921D01*
X14562Y-119939D01*
X14649Y-119971D01*
X14715Y-120015D01*
X14801Y-120132D01*
X14822Y-120203D01*
X14829Y-120282D01*
X14822Y-120358D01*
X14801Y-120427D01*
X14715Y-120545D01*
X14649Y-120591D01*
X14562Y-120624D01*
X14456Y-120643D01*
X14330Y-120650D01*
X11624Y-120650D01*
X11498Y-120643D01*
X11392Y-120624D01*
X11305Y-120591D01*
X11238Y-120545D01*
X11153Y-120427D01*
X11132Y-120358D01*
X11124Y-120282D01*
X11132Y-120203D01*
X11153Y-120132D01*
X11238Y-120015D01*
X11305Y-119971D01*
X11392Y-119939D01*
X11498Y-119921D01*
X11624Y-119914D01*
X12981Y-119914D01*
X12981Y-111480D01*
X7560Y-120650D01*
G37*
G36*
X-98793Y-158750D02*
X-101350Y-158750D01*
X-101473Y-158743D01*
X-101576Y-158724D01*
X-101661Y-158691D01*
X-101727Y-158645D01*
X-101812Y-158527D01*
X-101834Y-158458D01*
X-101841Y-158382D01*
X-101834Y-158303D01*
X-101812Y-158232D01*
X-101727Y-158115D01*
X-101661Y-158071D01*
X-101576Y-158039D01*
X-101473Y-158021D01*
X-101350Y-158014D01*
X-100518Y-158014D01*
X-100518Y-149238D01*
X-100974Y-149238D01*
X-101100Y-149232D01*
X-101206Y-149213D01*
X-101292Y-149182D01*
X-101359Y-149138D01*
X-101445Y-149020D01*
X-101466Y-148949D01*
X-101473Y-148870D01*
X-101466Y-148791D01*
X-101445Y-148720D01*
X-101359Y-148603D01*
X-101292Y-148559D01*
X-101206Y-148528D01*
X-101100Y-148509D01*
X-100974Y-148503D01*
X-98793Y-148503D01*
X-98667Y-148509D01*
X-98562Y-148528D01*
X-98477Y-148559D01*
X-98412Y-148603D01*
X-98330Y-148720D01*
X-98309Y-148791D01*
X-98302Y-148870D01*
X-98310Y-148949D01*
X-98331Y-149020D01*
X-98416Y-149138D01*
X-98483Y-149182D01*
X-98567Y-149213D01*
X-98671Y-149232D01*
X-98793Y-149238D01*
X-99774Y-149238D01*
X-99774Y-153057D01*
X-94895Y-153057D01*
X-94895Y-149238D01*
X-95885Y-149238D01*
X-96007Y-149232D01*
X-96111Y-149213D01*
X-96196Y-149182D01*
X-96262Y-149138D01*
X-96347Y-149020D01*
X-96369Y-148949D01*
X-96376Y-148870D01*
X-96369Y-148791D01*
X-96347Y-148720D01*
X-96262Y-148603D01*
X-96196Y-148559D01*
X-96111Y-148528D01*
X-96007Y-148509D01*
X-95885Y-148503D01*
X-93704Y-148503D01*
X-93578Y-148509D01*
X-93472Y-148528D01*
X-93386Y-148559D01*
X-93319Y-148603D01*
X-93233Y-148720D01*
X-93212Y-148791D01*
X-93205Y-148870D01*
X-93212Y-148949D01*
X-93233Y-149020D01*
X-93319Y-149138D01*
X-93386Y-149182D01*
X-93472Y-149213D01*
X-93578Y-149232D01*
X-93704Y-149238D01*
X-94160Y-149238D01*
X-94160Y-158014D01*
X-93328Y-158014D01*
X-93206Y-158021D01*
X-93102Y-158039D01*
X-93017Y-158071D01*
X-92951Y-158115D01*
X-92866Y-158232D01*
X-92844Y-158303D01*
X-92837Y-158382D01*
X-92844Y-158458D01*
X-92866Y-158527D01*
X-92951Y-158645D01*
X-93017Y-158691D01*
X-93102Y-158724D01*
X-93206Y-158743D01*
X-93328Y-158750D01*
X-95885Y-158750D01*
X-96007Y-158743D01*
X-96111Y-158724D01*
X-96196Y-158691D01*
X-96262Y-158645D01*
X-96347Y-158527D01*
X-96369Y-158458D01*
X-96376Y-158382D01*
X-96369Y-158303D01*
X-96347Y-158232D01*
X-96262Y-158115D01*
X-96196Y-158071D01*
X-96111Y-158039D01*
X-96007Y-158021D01*
X-95885Y-158014D01*
X-94895Y-158014D01*
X-94895Y-153793D01*
X-99774Y-153793D01*
X-99774Y-158014D01*
X-98793Y-158014D01*
X-98667Y-158021D01*
X-98562Y-158039D01*
X-98477Y-158071D01*
X-98412Y-158115D01*
X-98330Y-158232D01*
X-98309Y-158303D01*
X-98302Y-158382D01*
X-98310Y-158458D01*
X-98331Y-158527D01*
X-98416Y-158645D01*
X-98483Y-158691D01*
X-98567Y-158724D01*
X-98671Y-158743D01*
X-98793Y-158750D01*
G37*
G36*
X-87185Y-159039D02*
X-87601Y-159024D01*
X-88018Y-158980D01*
X-88435Y-158906D01*
X-88853Y-158803D01*
X-89272Y-158670D01*
X-89691Y-158509D01*
X-90110Y-158320D01*
X-90530Y-158102D01*
X-90530Y-154949D01*
X-90881Y-154941D01*
X-91056Y-154918D01*
X-91139Y-154871D01*
X-91214Y-154791D01*
X-91266Y-154690D01*
X-91284Y-154581D01*
X-91277Y-154502D01*
X-91255Y-154431D01*
X-91170Y-154314D01*
X-91104Y-154270D01*
X-91019Y-154238D01*
X-90915Y-154219D01*
X-90793Y-154213D01*
X-87255Y-154204D01*
X-87133Y-154211D01*
X-87029Y-154231D01*
X-86944Y-154263D01*
X-86878Y-154309D01*
X-86793Y-154430D01*
X-86771Y-154502D01*
X-86764Y-154581D01*
X-86771Y-154660D01*
X-86793Y-154731D01*
X-86878Y-154848D01*
X-86944Y-154892D01*
X-87029Y-154924D01*
X-87133Y-154943D01*
X-87255Y-154949D01*
X-89786Y-154949D01*
X-89786Y-157673D01*
X-89072Y-157971D01*
X-88751Y-158080D01*
X-88455Y-158163D01*
X-88164Y-158225D01*
X-87861Y-158268D01*
X-87546Y-158295D01*
X-87220Y-158303D01*
X-86740Y-158287D01*
X-86287Y-158236D01*
X-85861Y-158152D01*
X-85461Y-158034D01*
X-85088Y-157883D01*
X-84742Y-157697D01*
X-84421Y-157479D01*
X-84128Y-157226D01*
X-83865Y-156945D01*
X-83637Y-156640D01*
X-83445Y-156312D01*
X-83287Y-155960D01*
X-83164Y-155585D01*
X-83077Y-155186D01*
X-83024Y-154764D01*
X-83007Y-154318D01*
X-83007Y-152978D01*
X-83014Y-152723D01*
X-83036Y-152475D01*
X-83073Y-152234D01*
X-83125Y-151999D01*
X-83192Y-151772D01*
X-83273Y-151551D01*
X-83369Y-151337D01*
X-83480Y-151130D01*
X-83659Y-150832D01*
X-83841Y-150558D01*
X-84027Y-150310D01*
X-84217Y-150087D01*
X-84409Y-149889D01*
X-84606Y-149715D01*
X-84805Y-149567D01*
X-85008Y-149444D01*
X-85430Y-149251D01*
X-85650Y-149175D01*
X-85876Y-149112D01*
X-86109Y-149064D01*
X-86347Y-149029D01*
X-86592Y-149009D01*
X-86843Y-149002D01*
X-87110Y-149009D01*
X-87372Y-149031D01*
X-87628Y-149068D01*
X-87880Y-149120D01*
X-88126Y-149187D01*
X-88368Y-149268D01*
X-88604Y-149364D01*
X-88836Y-149475D01*
X-89051Y-149597D01*
X-89239Y-149728D01*
X-89401Y-149868D01*
X-89535Y-150016D01*
X-89643Y-150172D01*
X-89723Y-150337D01*
X-89777Y-150510D01*
X-89803Y-150692D01*
X-89814Y-150810D01*
X-89835Y-150908D01*
X-89868Y-150987D01*
X-89913Y-151047D01*
X-90026Y-151122D01*
X-90163Y-151148D01*
X-90238Y-151141D01*
X-90307Y-151120D01*
X-90425Y-151038D01*
X-90471Y-150973D01*
X-90504Y-150888D01*
X-90524Y-150783D01*
X-90530Y-150657D01*
X-90530Y-148993D01*
X-90524Y-148871D01*
X-90504Y-148767D01*
X-90471Y-148683D01*
X-90425Y-148616D01*
X-90307Y-148531D01*
X-90238Y-148510D01*
X-90163Y-148503D01*
X-90046Y-148519D01*
X-89944Y-148568D01*
X-89864Y-148639D01*
X-89817Y-148721D01*
X-89794Y-148894D01*
X-89786Y-149238D01*
X-89471Y-149010D01*
X-89138Y-148813D01*
X-88789Y-148646D01*
X-88422Y-148509D01*
X-88038Y-148403D01*
X-87636Y-148327D01*
X-87218Y-148281D01*
X-86782Y-148266D01*
X-86478Y-148275D01*
X-86180Y-148304D01*
X-85888Y-148351D01*
X-85602Y-148417D01*
X-85321Y-148502D01*
X-85046Y-148606D01*
X-84777Y-148729D01*
X-84513Y-148870D01*
X-84260Y-149030D01*
X-84020Y-149206D01*
X-83794Y-149399D01*
X-83582Y-149609D01*
X-83383Y-149836D01*
X-83199Y-150080D01*
X-83028Y-150340D01*
X-82871Y-150618D01*
X-82730Y-150904D01*
X-82609Y-151193D01*
X-82505Y-151484D01*
X-82421Y-151777D01*
X-82355Y-152072D01*
X-82309Y-152369D01*
X-82280Y-152668D01*
X-82271Y-152969D01*
X-82271Y-154318D01*
X-82293Y-154892D01*
X-82358Y-155413D01*
X-82466Y-155882D01*
X-82617Y-156298D01*
X-82807Y-156678D01*
X-83032Y-157040D01*
X-83291Y-157383D01*
X-83585Y-157708D01*
X-83913Y-158006D01*
X-84276Y-158268D01*
X-84673Y-158496D01*
X-85104Y-158689D01*
X-85571Y-158842D01*
X-86073Y-158951D01*
X-86611Y-159017D01*
X-87185Y-159039D01*
G37*
G36*
X-75822Y-159039D02*
X-76238Y-159025D01*
X-76632Y-158983D01*
X-77004Y-158914D01*
X-77354Y-158817D01*
X-77683Y-158692D01*
X-77989Y-158539D01*
X-78274Y-158358D01*
X-78537Y-158150D01*
X-78773Y-157922D01*
X-78977Y-157682D01*
X-79150Y-157431D01*
X-79292Y-157168D01*
X-79402Y-156893D01*
X-79481Y-156607D01*
X-79528Y-156309D01*
X-79544Y-156000D01*
X-79538Y-155797D01*
X-79520Y-155602D01*
X-79446Y-155231D01*
X-79325Y-154888D01*
X-79154Y-154572D01*
X-78936Y-154286D01*
X-78671Y-154034D01*
X-78360Y-153813D01*
X-78002Y-153626D01*
X-77660Y-153500D01*
X-77201Y-153374D01*
X-76626Y-153250D01*
X-75935Y-153127D01*
X-75160Y-152981D01*
X-74622Y-152842D01*
X-74223Y-152685D01*
X-73868Y-152483D01*
X-73710Y-152363D01*
X-73568Y-152226D01*
X-73443Y-152072D01*
X-73334Y-151901D01*
X-73246Y-151716D01*
X-73183Y-151522D01*
X-73145Y-151318D01*
X-73133Y-151104D01*
X-73144Y-150895D01*
X-73178Y-150693D01*
X-73234Y-150498D01*
X-73312Y-150310D01*
X-73413Y-150129D01*
X-73537Y-149955D01*
X-73683Y-149788D01*
X-73851Y-149628D01*
X-74038Y-149481D01*
X-74241Y-149354D01*
X-74460Y-149246D01*
X-74694Y-149158D01*
X-74944Y-149090D01*
X-75209Y-149041D01*
X-75490Y-149012D01*
X-75787Y-149002D01*
X-76069Y-149011D01*
X-76337Y-149038D01*
X-76591Y-149084D01*
X-76832Y-149148D01*
X-77059Y-149231D01*
X-77272Y-149332D01*
X-77471Y-149451D01*
X-77656Y-149589D01*
X-77824Y-149738D01*
X-77971Y-149891D01*
X-78098Y-150050D01*
X-78203Y-150213D01*
X-78287Y-150380D01*
X-78350Y-150553D01*
X-78393Y-150730D01*
X-78414Y-150911D01*
X-78424Y-151021D01*
X-78446Y-151115D01*
X-78479Y-151192D01*
X-78524Y-151253D01*
X-78639Y-151332D01*
X-78707Y-151351D01*
X-78782Y-151358D01*
X-78861Y-151351D01*
X-78932Y-151329D01*
X-79049Y-151244D01*
X-79093Y-151178D01*
X-79125Y-151093D01*
X-79143Y-150989D01*
X-79150Y-150867D01*
X-79150Y-148993D01*
X-79143Y-148871D01*
X-79125Y-148767D01*
X-79093Y-148683D01*
X-79049Y-148616D01*
X-78932Y-148531D01*
X-78861Y-148510D01*
X-78782Y-148503D01*
X-78703Y-148510D01*
X-78632Y-148531D01*
X-78515Y-148616D01*
X-78471Y-148683D01*
X-78439Y-148767D01*
X-78420Y-148871D01*
X-78414Y-148993D01*
X-78414Y-149238D01*
X-78129Y-149010D01*
X-77831Y-148813D01*
X-77519Y-148646D01*
X-77194Y-148509D01*
X-76856Y-148403D01*
X-76504Y-148327D01*
X-76139Y-148281D01*
X-75760Y-148266D01*
X-75391Y-148279D01*
X-75040Y-148318D01*
X-74707Y-148383D01*
X-74393Y-148474D01*
X-74097Y-148591D01*
X-73820Y-148734D01*
X-73561Y-148903D01*
X-73321Y-149098D01*
X-73104Y-149311D01*
X-72917Y-149534D01*
X-72758Y-149768D01*
X-72628Y-150011D01*
X-72527Y-150265D01*
X-72455Y-150528D01*
X-72411Y-150802D01*
X-72397Y-151086D01*
X-72410Y-151369D01*
X-72447Y-151635D01*
X-72510Y-151885D01*
X-72598Y-152118D01*
X-72712Y-152334D01*
X-72850Y-152533D01*
X-73014Y-152716D01*
X-73203Y-152882D01*
X-73420Y-153034D01*
X-73670Y-153177D01*
X-73951Y-153309D01*
X-74265Y-153431D01*
X-74610Y-153543D01*
X-74988Y-153645D01*
X-75397Y-153737D01*
X-75839Y-153819D01*
X-76448Y-153930D01*
X-76943Y-154036D01*
X-77324Y-154136D01*
X-77591Y-154231D01*
X-77874Y-154374D01*
X-78121Y-154540D01*
X-78330Y-154731D01*
X-78502Y-154944D01*
X-78636Y-155178D01*
X-78732Y-155427D01*
X-78789Y-155692D01*
X-78808Y-155974D01*
X-78796Y-156206D01*
X-78758Y-156431D01*
X-78696Y-156647D01*
X-78608Y-156856D01*
X-78495Y-157057D01*
X-78357Y-157250D01*
X-78195Y-157434D01*
X-78007Y-157611D01*
X-77797Y-157774D01*
X-77570Y-157914D01*
X-77324Y-158033D01*
X-77060Y-158130D01*
X-76778Y-158206D01*
X-76477Y-158260D01*
X-76158Y-158293D01*
X-75822Y-158303D01*
X-75484Y-158293D01*
X-75165Y-158262D01*
X-74863Y-158210D01*
X-74579Y-158138D01*
X-74312Y-158045D01*
X-74064Y-157931D01*
X-73832Y-157797D01*
X-73619Y-157642D01*
X-73426Y-157474D01*
X-73258Y-157302D01*
X-73114Y-157126D01*
X-72994Y-156945D01*
X-72898Y-156759D01*
X-72826Y-156569D01*
X-72779Y-156374D01*
X-72756Y-156175D01*
X-72746Y-156065D01*
X-72724Y-155971D01*
X-72691Y-155894D01*
X-72647Y-155833D01*
X-72532Y-155755D01*
X-72463Y-155735D01*
X-72388Y-155728D01*
X-72309Y-155735D01*
X-72238Y-155757D01*
X-72121Y-155842D01*
X-72077Y-155909D01*
X-72046Y-155995D01*
X-72027Y-156102D01*
X-72020Y-156228D01*
X-72020Y-158260D01*
X-72027Y-158382D01*
X-72047Y-158485D01*
X-72079Y-158570D01*
X-72125Y-158636D01*
X-72244Y-158722D01*
X-72313Y-158743D01*
X-72388Y-158750D01*
X-72467Y-158743D01*
X-72538Y-158722D01*
X-72655Y-158636D01*
X-72699Y-158570D01*
X-72731Y-158485D01*
X-72750Y-158382D01*
X-72756Y-158260D01*
X-72756Y-157839D01*
X-73055Y-158120D01*
X-73378Y-158364D01*
X-73725Y-158570D01*
X-74096Y-158739D01*
X-74491Y-158870D01*
X-74911Y-158964D01*
X-75354Y-159020D01*
X-75822Y-159039D01*
G37*
G36*
X94558Y-158750D02*
X92167Y-158750D01*
X92041Y-158743D01*
X91936Y-158724D01*
X91851Y-158691D01*
X91786Y-158645D01*
X91704Y-158527D01*
X91683Y-158458D01*
X91677Y-158382D01*
X91683Y-158303D01*
X91704Y-158232D01*
X91786Y-158115D01*
X91851Y-158071D01*
X91936Y-158039D01*
X92041Y-158021D01*
X92167Y-158014D01*
X92990Y-158014D01*
X92990Y-153451D01*
X92997Y-153279D01*
X93016Y-153109D01*
X93091Y-152776D01*
X93217Y-152450D01*
X93393Y-152133D01*
X93607Y-151840D01*
X93845Y-151588D01*
X94108Y-151376D01*
X94396Y-151205D01*
X94712Y-151072D01*
X95061Y-150978D01*
X95441Y-150921D01*
X95854Y-150902D01*
X96243Y-150922D01*
X96613Y-150980D01*
X96964Y-151077D01*
X97295Y-151213D01*
X97621Y-151397D01*
X97953Y-151637D01*
X98293Y-151933D01*
X98640Y-152286D01*
X98640Y-147758D01*
X100365Y-147758D01*
X100487Y-147765D01*
X100591Y-147784D01*
X100675Y-147817D01*
X100742Y-147863D01*
X100827Y-147981D01*
X100848Y-148050D01*
X100856Y-148126D01*
X100848Y-148205D01*
X100827Y-148277D01*
X100742Y-148397D01*
X100675Y-148443D01*
X100591Y-148476D01*
X100487Y-148496D01*
X100365Y-148503D01*
X99375Y-148503D01*
X99375Y-158014D01*
X100207Y-158014D01*
X100329Y-158021D01*
X100433Y-158039D01*
X100518Y-158071D01*
X100584Y-158115D01*
X100669Y-158232D01*
X100691Y-158303D01*
X100698Y-158382D01*
X100691Y-158458D01*
X100669Y-158527D01*
X100584Y-158645D01*
X100518Y-158691D01*
X100433Y-158724D01*
X100329Y-158743D01*
X100207Y-158750D01*
X97808Y-158750D01*
X97686Y-158743D01*
X97582Y-158724D01*
X97497Y-158691D01*
X97431Y-158645D01*
X97346Y-158527D01*
X97324Y-158458D01*
X97317Y-158382D01*
X97324Y-158303D01*
X97346Y-158232D01*
X97431Y-158115D01*
X97497Y-158071D01*
X97582Y-158039D01*
X97686Y-158021D01*
X97808Y-158014D01*
X98640Y-158014D01*
X98640Y-153355D01*
X98200Y-152881D01*
X97827Y-152503D01*
X97521Y-152220D01*
X97282Y-152032D01*
X96983Y-151860D01*
X96654Y-151737D01*
X96295Y-151663D01*
X96105Y-151644D01*
X95907Y-151638D01*
X95658Y-151646D01*
X95423Y-151671D01*
X95202Y-151713D01*
X94995Y-151772D01*
X94802Y-151847D01*
X94624Y-151939D01*
X94459Y-152047D01*
X94309Y-152172D01*
X94174Y-152310D01*
X94058Y-152456D01*
X93959Y-152610D01*
X93878Y-152772D01*
X93816Y-152943D01*
X93771Y-153122D01*
X93744Y-153309D01*
X93735Y-153504D01*
X93735Y-158014D01*
X94558Y-158014D01*
X94684Y-158021D01*
X94790Y-158039D01*
X94877Y-158071D01*
X94944Y-158115D01*
X95029Y-158232D01*
X95050Y-158303D01*
X95057Y-158382D01*
X95050Y-158458D01*
X95029Y-158527D01*
X94944Y-158645D01*
X94877Y-158691D01*
X94790Y-158724D01*
X94684Y-158743D01*
X94558Y-158750D01*
G37*
G36*
X-32813Y-120939D02*
X-33172Y-120923D01*
X-33517Y-120873D01*
X-33849Y-120791D01*
X-34168Y-120676D01*
X-34473Y-120529D01*
X-34765Y-120348D01*
X-35044Y-120134D01*
X-35309Y-119888D01*
X-35551Y-119617D01*
X-35761Y-119331D01*
X-35939Y-119030D01*
X-36084Y-118712D01*
X-36197Y-118379D01*
X-36278Y-118031D01*
X-36326Y-117667D01*
X-36342Y-117287D01*
X-36342Y-111138D01*
X-36964Y-111138D01*
X-37086Y-111132D01*
X-37190Y-111113D01*
X-37275Y-111082D01*
X-37341Y-111038D01*
X-37426Y-110920D01*
X-37448Y-110849D01*
X-37455Y-110770D01*
X-37448Y-110691D01*
X-37426Y-110620D01*
X-37341Y-110503D01*
X-37275Y-110459D01*
X-37190Y-110428D01*
X-37086Y-110409D01*
X-36964Y-110403D01*
X-34249Y-110403D01*
X-34127Y-110409D01*
X-34024Y-110428D01*
X-33939Y-110459D01*
X-33873Y-110503D01*
X-33787Y-110620D01*
X-33766Y-110691D01*
X-33759Y-110770D01*
X-33766Y-110849D01*
X-33787Y-110920D01*
X-33873Y-111038D01*
X-33939Y-111082D01*
X-34024Y-111113D01*
X-34127Y-111132D01*
X-34249Y-111138D01*
X-35607Y-111138D01*
X-35607Y-117287D01*
X-35600Y-117501D01*
X-35579Y-117709D01*
X-35543Y-117912D01*
X-35494Y-118110D01*
X-35431Y-118302D01*
X-35353Y-118489D01*
X-35156Y-118846D01*
X-34921Y-119169D01*
X-34667Y-119448D01*
X-34395Y-119682D01*
X-34105Y-119871D01*
X-33797Y-120016D01*
X-33473Y-120120D01*
X-33133Y-120183D01*
X-32778Y-120203D01*
X-32498Y-120190D01*
X-32228Y-120150D01*
X-31967Y-120084D01*
X-31716Y-119991D01*
X-31474Y-119871D01*
X-31242Y-119725D01*
X-31020Y-119553D01*
X-30807Y-119354D01*
X-30612Y-119136D01*
X-30443Y-118906D01*
X-30300Y-118665D01*
X-30183Y-118412D01*
X-30092Y-118148D01*
X-30027Y-117872D01*
X-29988Y-117585D01*
X-29975Y-117287D01*
X-29975Y-111138D01*
X-31333Y-111138D01*
X-31455Y-111132D01*
X-31558Y-111113D01*
X-31643Y-111082D01*
X-31709Y-111038D01*
X-31795Y-110920D01*
X-31816Y-110849D01*
X-31823Y-110770D01*
X-31816Y-110691D01*
X-31795Y-110620D01*
X-31709Y-110503D01*
X-31643Y-110459D01*
X-31558Y-110428D01*
X-31455Y-110409D01*
X-31333Y-110403D01*
X-28617Y-110403D01*
X-28496Y-110408D01*
X-28394Y-110424D01*
X-28312Y-110452D01*
X-28250Y-110490D01*
X-28158Y-110617D01*
X-28135Y-110690D01*
X-28127Y-110770D01*
X-28134Y-110849D01*
X-28155Y-110920D01*
X-28241Y-111038D01*
X-28307Y-111082D01*
X-28392Y-111113D01*
X-28495Y-111132D01*
X-28617Y-111138D01*
X-29239Y-111138D01*
X-29239Y-117287D01*
X-29248Y-117547D01*
X-29273Y-117801D01*
X-29314Y-118050D01*
X-29373Y-118293D01*
X-29448Y-118530D01*
X-29540Y-118762D01*
X-29648Y-118989D01*
X-29774Y-119209D01*
X-30055Y-119617D01*
X-30365Y-119970D01*
X-30703Y-120268D01*
X-31070Y-120510D01*
X-31465Y-120698D01*
X-31672Y-120771D01*
X-31887Y-120832D01*
X-32108Y-120879D01*
X-32336Y-120912D01*
X-32571Y-120932D01*
X-32813Y-120939D01*
G37*
G36*
X-39981Y-162131D02*
X-44220Y-162131D01*
X-44342Y-162124D01*
X-44445Y-162105D01*
X-44530Y-162072D01*
X-44596Y-162026D01*
X-44682Y-161907D01*
X-44703Y-161838D01*
X-44710Y-161763D01*
X-44703Y-161684D01*
X-44682Y-161613D01*
X-44596Y-161496D01*
X-44530Y-161452D01*
X-44445Y-161420D01*
X-44342Y-161401D01*
X-44220Y-161395D01*
X-43072Y-161395D01*
X-47732Y-151910D01*
X-48056Y-151902D01*
X-48222Y-151879D01*
X-48306Y-151832D01*
X-48380Y-151752D01*
X-48433Y-151651D01*
X-48450Y-151542D01*
X-48443Y-151462D01*
X-48422Y-151391D01*
X-48336Y-151270D01*
X-48269Y-151224D01*
X-48183Y-151191D01*
X-48077Y-151172D01*
X-47951Y-151165D01*
X-45945Y-151165D01*
X-45823Y-151172D01*
X-45720Y-151191D01*
X-45635Y-151224D01*
X-45568Y-151270D01*
X-45483Y-151388D01*
X-45462Y-151457D01*
X-45455Y-151533D01*
X-45462Y-151612D01*
X-45483Y-151684D01*
X-45568Y-151805D01*
X-45635Y-151850D01*
X-45720Y-151883D01*
X-45823Y-151903D01*
X-45945Y-151910D01*
X-46935Y-151910D01*
X-43974Y-157944D01*
X-40970Y-151910D01*
X-41960Y-151910D01*
X-42082Y-151903D01*
X-42185Y-151883D01*
X-42270Y-151850D01*
X-42337Y-151805D01*
X-42422Y-151686D01*
X-42443Y-151617D01*
X-42450Y-151542D01*
X-42443Y-151462D01*
X-42422Y-151391D01*
X-42337Y-151270D01*
X-42270Y-151224D01*
X-42185Y-151191D01*
X-42082Y-151172D01*
X-41960Y-151165D01*
X-39946Y-151165D01*
X-39778Y-151175D01*
X-39661Y-151205D01*
X-39578Y-151257D01*
X-39512Y-151336D01*
X-39469Y-151433D01*
X-39455Y-151542D01*
X-39462Y-151617D01*
X-39483Y-151686D01*
X-39569Y-151805D01*
X-39635Y-151850D01*
X-39720Y-151883D01*
X-39823Y-151903D01*
X-39946Y-151910D01*
X-40164Y-151910D01*
X-43580Y-158750D01*
X-42284Y-161395D01*
X-39981Y-161395D01*
X-39858Y-161401D01*
X-39755Y-161420D01*
X-39670Y-161452D01*
X-39604Y-161496D01*
X-39519Y-161613D01*
X-39497Y-161684D01*
X-39490Y-161763D01*
X-39497Y-161842D01*
X-39519Y-161913D01*
X-39604Y-162030D01*
X-39670Y-162074D01*
X-39755Y-162106D01*
X-39858Y-162125D01*
X-39981Y-162131D01*
G37*
G36*
X-43449Y-139963D02*
X-43835Y-139946D01*
X-44204Y-139895D01*
X-44557Y-139810D01*
X-44894Y-139691D01*
X-45214Y-139539D01*
X-45518Y-139352D01*
X-45806Y-139131D01*
X-46076Y-138877D01*
X-46323Y-138595D01*
X-46536Y-138292D01*
X-46717Y-137969D01*
X-46865Y-137624D01*
X-46980Y-137259D01*
X-47062Y-136873D01*
X-47111Y-136466D01*
X-47128Y-136039D01*
X-47113Y-135652D01*
X-47069Y-135285D01*
X-46996Y-134936D01*
X-46894Y-134607D01*
X-46763Y-134297D01*
X-46603Y-134006D01*
X-46413Y-133734D01*
X-46195Y-133481D01*
X-45954Y-133254D01*
X-45700Y-133056D01*
X-45432Y-132889D01*
X-45149Y-132752D01*
X-44853Y-132646D01*
X-44542Y-132570D01*
X-44217Y-132524D01*
X-43878Y-132509D01*
X-43607Y-132518D01*
X-43328Y-132543D01*
X-43042Y-132586D01*
X-42748Y-132645D01*
X-42447Y-132721D01*
X-42140Y-132815D01*
X-41505Y-133052D01*
X-41505Y-129453D01*
X-45901Y-129453D01*
X-46023Y-129446D01*
X-46127Y-129426D01*
X-46212Y-129393D01*
X-46278Y-129347D01*
X-46363Y-129229D01*
X-46385Y-129160D01*
X-46392Y-129085D01*
X-46385Y-129005D01*
X-46363Y-128934D01*
X-46278Y-128813D01*
X-46212Y-128767D01*
X-46127Y-128734D01*
X-46023Y-128715D01*
X-45901Y-128708D01*
X-40769Y-128708D01*
X-40769Y-133587D01*
X-40775Y-133677D01*
X-40793Y-133757D01*
X-40865Y-133884D01*
X-40977Y-133963D01*
X-41044Y-133983D01*
X-41119Y-133989D01*
X-41275Y-133954D01*
X-41513Y-133849D01*
X-41800Y-133708D01*
X-42087Y-133585D01*
X-42374Y-133481D01*
X-42661Y-133396D01*
X-42947Y-133330D01*
X-43234Y-133283D01*
X-43521Y-133254D01*
X-43808Y-133245D01*
X-44082Y-133257D01*
X-44344Y-133292D01*
X-44593Y-133352D01*
X-44831Y-133434D01*
X-45055Y-133541D01*
X-45268Y-133671D01*
X-45468Y-133825D01*
X-45656Y-134003D01*
X-45826Y-134200D01*
X-45974Y-134412D01*
X-46099Y-134639D01*
X-46201Y-134882D01*
X-46281Y-135139D01*
X-46338Y-135412D01*
X-46372Y-135701D01*
X-46383Y-136004D01*
X-46370Y-136360D01*
X-46330Y-136699D01*
X-46265Y-137019D01*
X-46173Y-137321D01*
X-46055Y-137605D01*
X-45910Y-137870D01*
X-45739Y-138118D01*
X-45542Y-138347D01*
X-45325Y-138553D01*
X-45094Y-138732D01*
X-44849Y-138883D01*
X-44590Y-139007D01*
X-44317Y-139103D01*
X-44030Y-139172D01*
X-43729Y-139213D01*
X-43414Y-139227D01*
X-43028Y-139208D01*
X-42649Y-139150D01*
X-42278Y-139053D01*
X-41914Y-138918D01*
X-41557Y-138745D01*
X-41208Y-138532D01*
X-40867Y-138282D01*
X-40532Y-137992D01*
X-40370Y-137874D01*
X-40293Y-137844D01*
X-40217Y-137834D01*
X-40149Y-137841D01*
X-40086Y-137862D01*
X-39972Y-137944D01*
X-39893Y-138065D01*
X-39873Y-138135D01*
X-39867Y-138211D01*
X-39887Y-138313D01*
X-39950Y-138428D01*
X-40054Y-138554D01*
X-40199Y-138693D01*
X-40487Y-138924D01*
X-40791Y-139135D01*
X-41109Y-139327D01*
X-41443Y-139499D01*
X-41930Y-139702D01*
X-42177Y-139781D01*
X-42426Y-139847D01*
X-42678Y-139897D01*
X-42933Y-139934D01*
X-43190Y-139956D01*
X-43449Y-139963D01*
G37*
G36*
X24852Y-139700D02*
X17740Y-139700D01*
X17740Y-138675D01*
X17747Y-138553D01*
X17767Y-138450D01*
X17800Y-138365D01*
X17845Y-138299D01*
X17964Y-138213D01*
X18033Y-138192D01*
X18108Y-138185D01*
X18188Y-138192D01*
X18259Y-138213D01*
X18380Y-138299D01*
X18426Y-138365D01*
X18459Y-138450D01*
X18478Y-138553D01*
X18485Y-138675D01*
X18485Y-138964D01*
X24134Y-138964D01*
X24134Y-138912D01*
X23259Y-138135D01*
X22264Y-137215D01*
X21149Y-136151D01*
X19913Y-134944D01*
X19038Y-134056D01*
X18719Y-133708D01*
X18480Y-133425D01*
X18296Y-133178D01*
X18140Y-132941D01*
X18013Y-132713D01*
X17916Y-132496D01*
X17843Y-132279D01*
X17791Y-132051D01*
X17760Y-131812D01*
X17749Y-131563D01*
X17765Y-131265D01*
X17811Y-130975D01*
X17888Y-130693D01*
X17997Y-130418D01*
X18136Y-130152D01*
X18306Y-129893D01*
X18507Y-129643D01*
X18739Y-129400D01*
X18992Y-129176D01*
X19258Y-128982D01*
X19535Y-128818D01*
X19825Y-128684D01*
X20127Y-128580D01*
X20440Y-128505D01*
X20766Y-128460D01*
X21104Y-128445D01*
X21315Y-128452D01*
X21526Y-128471D01*
X21943Y-128548D01*
X22356Y-128677D01*
X22763Y-128857D01*
X23147Y-129082D01*
X23486Y-129345D01*
X23782Y-129647D01*
X24033Y-129987D01*
X24235Y-130327D01*
X24378Y-130631D01*
X24464Y-130897D01*
X24486Y-131016D01*
X24493Y-131125D01*
X24468Y-131256D01*
X24392Y-131366D01*
X24280Y-131442D01*
X24143Y-131467D01*
X24011Y-131445D01*
X23898Y-131379D01*
X23825Y-131281D01*
X23766Y-131108D01*
X23703Y-130908D01*
X23624Y-130717D01*
X23528Y-130534D01*
X23416Y-130359D01*
X23287Y-130192D01*
X23142Y-130034D01*
X22981Y-129884D01*
X22803Y-129742D01*
X22613Y-129612D01*
X22417Y-129500D01*
X22214Y-129405D01*
X22004Y-129328D01*
X21787Y-129267D01*
X21563Y-129224D01*
X21332Y-129198D01*
X21095Y-129190D01*
X20831Y-129201D01*
X20576Y-129235D01*
X20331Y-129292D01*
X20096Y-129372D01*
X19871Y-129474D01*
X19656Y-129599D01*
X19451Y-129746D01*
X19256Y-129917D01*
X19077Y-130102D01*
X18922Y-130294D01*
X18791Y-130493D01*
X18684Y-130698D01*
X18601Y-130911D01*
X18541Y-131130D01*
X18506Y-131357D01*
X18494Y-131590D01*
X18502Y-131765D01*
X18528Y-131939D01*
X18570Y-132113D01*
X18629Y-132286D01*
X18712Y-132466D01*
X18823Y-132659D01*
X19133Y-133087D01*
X19656Y-133672D01*
X20491Y-134515D01*
X21558Y-135553D01*
X22641Y-136582D01*
X23739Y-137602D01*
X24852Y-138614D01*
X24852Y-139700D01*
G37*
G36*
X46352Y-139700D02*
X39240Y-139700D01*
X39240Y-138675D01*
X39247Y-138553D01*
X39267Y-138450D01*
X39300Y-138365D01*
X39345Y-138299D01*
X39464Y-138213D01*
X39533Y-138192D01*
X39608Y-138185D01*
X39688Y-138192D01*
X39759Y-138213D01*
X39880Y-138299D01*
X39926Y-138365D01*
X39959Y-138450D01*
X39978Y-138553D01*
X39985Y-138675D01*
X39985Y-138964D01*
X45634Y-138964D01*
X45634Y-138912D01*
X44759Y-138135D01*
X43764Y-137215D01*
X42649Y-136151D01*
X41413Y-134944D01*
X40538Y-134056D01*
X40219Y-133708D01*
X39980Y-133425D01*
X39796Y-133178D01*
X39640Y-132941D01*
X39513Y-132713D01*
X39416Y-132496D01*
X39343Y-132279D01*
X39291Y-132051D01*
X39260Y-131812D01*
X39249Y-131563D01*
X39265Y-131265D01*
X39311Y-130975D01*
X39388Y-130693D01*
X39497Y-130418D01*
X39636Y-130152D01*
X39806Y-129893D01*
X40007Y-129643D01*
X40239Y-129400D01*
X40492Y-129176D01*
X40758Y-128982D01*
X41035Y-128818D01*
X41325Y-128684D01*
X41627Y-128580D01*
X41940Y-128505D01*
X42266Y-128460D01*
X42604Y-128445D01*
X42815Y-128452D01*
X43026Y-128471D01*
X43443Y-128548D01*
X43856Y-128677D01*
X44263Y-128857D01*
X44647Y-129082D01*
X44986Y-129345D01*
X45282Y-129647D01*
X45533Y-129987D01*
X45735Y-130327D01*
X45878Y-130631D01*
X45964Y-130897D01*
X45986Y-131016D01*
X45993Y-131125D01*
X45968Y-131256D01*
X45892Y-131366D01*
X45780Y-131442D01*
X45643Y-131467D01*
X45511Y-131445D01*
X45398Y-131379D01*
X45325Y-131281D01*
X45266Y-131108D01*
X45203Y-130908D01*
X45124Y-130717D01*
X45028Y-130534D01*
X44916Y-130359D01*
X44787Y-130192D01*
X44642Y-130034D01*
X44481Y-129884D01*
X44303Y-129742D01*
X44113Y-129612D01*
X43917Y-129500D01*
X43714Y-129405D01*
X43504Y-129328D01*
X43287Y-129267D01*
X43063Y-129224D01*
X42832Y-129198D01*
X42595Y-129190D01*
X42331Y-129201D01*
X42076Y-129235D01*
X41831Y-129292D01*
X41596Y-129372D01*
X41371Y-129474D01*
X41156Y-129599D01*
X40951Y-129746D01*
X40756Y-129917D01*
X40577Y-130102D01*
X40422Y-130294D01*
X40291Y-130493D01*
X40184Y-130698D01*
X40101Y-130911D01*
X40041Y-131130D01*
X40006Y-131357D01*
X39994Y-131590D01*
X40002Y-131765D01*
X40028Y-131939D01*
X40070Y-132113D01*
X40129Y-132286D01*
X40212Y-132466D01*
X40323Y-132659D01*
X40633Y-133087D01*
X41156Y-133672D01*
X41991Y-134515D01*
X43058Y-135553D01*
X44141Y-136582D01*
X45239Y-137602D01*
X46352Y-138614D01*
X46352Y-139700D01*
G37*
G36*
X35488Y-120650D02*
X27361Y-120650D01*
X27361Y-116989D01*
X27367Y-116863D01*
X27387Y-116758D01*
X27420Y-116673D01*
X27466Y-116608D01*
X27584Y-116526D01*
X27653Y-116505D01*
X27728Y-116498D01*
X27808Y-116506D01*
X27879Y-116527D01*
X28000Y-116612D01*
X28046Y-116679D01*
X28079Y-116763D01*
X28098Y-116867D01*
X28105Y-116989D01*
X28105Y-119914D01*
X32992Y-119914D01*
X32992Y-111138D01*
X31241Y-111138D01*
X31118Y-111132D01*
X31015Y-111113D01*
X30930Y-111082D01*
X30864Y-111038D01*
X30779Y-110920D01*
X30757Y-110849D01*
X30750Y-110770D01*
X30757Y-110691D01*
X30779Y-110620D01*
X30864Y-110503D01*
X30930Y-110459D01*
X31015Y-110428D01*
X31118Y-110409D01*
X31241Y-110403D01*
X35488Y-110403D01*
X35611Y-110409D01*
X35714Y-110428D01*
X35799Y-110459D01*
X35865Y-110503D01*
X35950Y-110620D01*
X35972Y-110691D01*
X35979Y-110770D01*
X35972Y-110849D01*
X35950Y-110920D01*
X35865Y-111038D01*
X35799Y-111082D01*
X35714Y-111113D01*
X35611Y-111132D01*
X35488Y-111138D01*
X33737Y-111138D01*
X33737Y-119914D01*
X35488Y-119914D01*
X35611Y-119921D01*
X35714Y-119939D01*
X35799Y-119971D01*
X35865Y-120015D01*
X35950Y-120132D01*
X35972Y-120203D01*
X35979Y-120282D01*
X35972Y-120358D01*
X35950Y-120427D01*
X35865Y-120545D01*
X35799Y-120591D01*
X35714Y-120624D01*
X35611Y-120643D01*
X35488Y-120650D01*
G37*
G36*
X53196Y-159039D02*
X52773Y-159028D01*
X52377Y-158993D01*
X52007Y-158936D01*
X51663Y-158856D01*
X51346Y-158753D01*
X51055Y-158628D01*
X50790Y-158479D01*
X50551Y-158308D01*
X50339Y-158122D01*
X50156Y-157929D01*
X50001Y-157730D01*
X49874Y-157525D01*
X49776Y-157313D01*
X49705Y-157095D01*
X49663Y-156870D01*
X49649Y-156639D01*
X49655Y-156483D01*
X49675Y-156329D01*
X49753Y-156031D01*
X49883Y-155743D01*
X50065Y-155466D01*
X50300Y-155209D01*
X50589Y-154982D01*
X50933Y-154784D01*
X51330Y-154616D01*
X51687Y-154514D01*
X52160Y-154417D01*
X52751Y-154325D01*
X53459Y-154239D01*
X53999Y-154167D01*
X54444Y-154080D01*
X54796Y-153978D01*
X55053Y-153863D01*
X55321Y-153677D01*
X55426Y-153575D01*
X55513Y-153469D01*
X55580Y-153356D01*
X55628Y-153239D01*
X55656Y-153116D01*
X55666Y-152987D01*
X55658Y-152872D01*
X55634Y-152760D01*
X55593Y-152651D01*
X55537Y-152545D01*
X55375Y-152340D01*
X55149Y-152146D01*
X54970Y-152029D01*
X54773Y-151928D01*
X54559Y-151842D01*
X54328Y-151772D01*
X54080Y-151717D01*
X53814Y-151678D01*
X53531Y-151655D01*
X53231Y-151647D01*
X52943Y-151655D01*
X52669Y-151678D01*
X52410Y-151716D01*
X52165Y-151769D01*
X51934Y-151838D01*
X51719Y-151923D01*
X51517Y-152022D01*
X51330Y-152137D01*
X51113Y-152320D01*
X50949Y-152525D01*
X50841Y-152753D01*
X50807Y-152876D01*
X50787Y-153004D01*
X50749Y-153193D01*
X50714Y-153264D01*
X50669Y-153320D01*
X50556Y-153392D01*
X50420Y-153416D01*
X50340Y-153409D01*
X50268Y-153388D01*
X50148Y-153302D01*
X50102Y-153236D01*
X50069Y-153151D01*
X50050Y-153048D01*
X50043Y-152926D01*
X50043Y-151664D01*
X50050Y-151538D01*
X50069Y-151432D01*
X50102Y-151346D01*
X50148Y-151279D01*
X50268Y-151194D01*
X50340Y-151172D01*
X50420Y-151165D01*
X50495Y-151172D01*
X50564Y-151194D01*
X50682Y-151279D01*
X50728Y-151345D01*
X50761Y-151428D01*
X50781Y-151529D01*
X50787Y-151647D01*
X51035Y-151472D01*
X51300Y-151321D01*
X51583Y-151193D01*
X51884Y-151088D01*
X52203Y-151007D01*
X52540Y-150949D01*
X52894Y-150914D01*
X53266Y-150902D01*
X53582Y-150911D01*
X53887Y-150937D01*
X54181Y-150981D01*
X54464Y-151041D01*
X54735Y-151120D01*
X54995Y-151215D01*
X55244Y-151328D01*
X55482Y-151459D01*
X55700Y-151604D01*
X55888Y-151761D01*
X56048Y-151930D01*
X56178Y-152112D01*
X56280Y-152306D01*
X56352Y-152512D01*
X56396Y-152730D01*
X56410Y-152961D01*
X56390Y-153219D01*
X56327Y-153469D01*
X56223Y-153709D01*
X56078Y-153942D01*
X55895Y-154155D01*
X55679Y-154340D01*
X55431Y-154497D01*
X55149Y-154625D01*
X54803Y-154733D01*
X54360Y-154831D01*
X53820Y-154917D01*
X53183Y-154993D01*
X52538Y-155080D01*
X51975Y-155201D01*
X51494Y-155356D01*
X51284Y-155446D01*
X51094Y-155544D01*
X50928Y-155652D01*
X50784Y-155767D01*
X50662Y-155891D01*
X50562Y-156024D01*
X50484Y-156165D01*
X50429Y-156315D01*
X50396Y-156473D01*
X50385Y-156639D01*
X50395Y-156787D01*
X50428Y-156933D01*
X50483Y-157077D01*
X50560Y-157219D01*
X50658Y-157360D01*
X50779Y-157498D01*
X51085Y-157769D01*
X51272Y-157894D01*
X51482Y-158003D01*
X51714Y-158095D01*
X51970Y-158170D01*
X52248Y-158228D01*
X52550Y-158270D01*
X52875Y-158295D01*
X53222Y-158303D01*
X53689Y-158286D01*
X54119Y-158234D01*
X54511Y-158148D01*
X54865Y-158027D01*
X55177Y-157880D01*
X55444Y-157715D01*
X55665Y-157532D01*
X55841Y-157331D01*
X55929Y-157187D01*
X55992Y-157027D01*
X56030Y-156850D01*
X56043Y-156657D01*
X56049Y-156569D01*
X56070Y-156491D01*
X56104Y-156423D01*
X56152Y-156363D01*
X56274Y-156281D01*
X56343Y-156261D01*
X56419Y-156254D01*
X56498Y-156261D01*
X56569Y-156282D01*
X56686Y-156368D01*
X56730Y-156434D01*
X56762Y-156519D01*
X56781Y-156622D01*
X56787Y-156744D01*
X56787Y-158260D01*
X56780Y-158382D01*
X56761Y-158485D01*
X56728Y-158570D01*
X56682Y-158636D01*
X56564Y-158722D01*
X56495Y-158743D01*
X56419Y-158750D01*
X56311Y-158735D01*
X56213Y-158689D01*
X56136Y-158621D01*
X56086Y-158540D01*
X56060Y-158400D01*
X56051Y-158154D01*
X55763Y-158362D01*
X55456Y-158541D01*
X55128Y-158694D01*
X54781Y-158818D01*
X54415Y-158915D01*
X54028Y-158984D01*
X53622Y-159025D01*
X53196Y-159039D01*
G37*
G36*
X-22474Y-120939D02*
X-22704Y-120933D01*
X-22933Y-120914D01*
X-23389Y-120837D01*
X-23842Y-120710D01*
X-24292Y-120532D01*
X-24729Y-120303D01*
X-25145Y-120025D01*
X-25537Y-119697D01*
X-25908Y-119319D01*
X-26073Y-119126D01*
X-26190Y-118960D01*
X-26261Y-118819D01*
X-26284Y-118706D01*
X-26260Y-118570D01*
X-26188Y-118460D01*
X-26076Y-118388D01*
X-25934Y-118364D01*
X-25844Y-118376D01*
X-25759Y-118410D01*
X-25678Y-118468D01*
X-25601Y-118548D01*
X-25248Y-118938D01*
X-24889Y-119275D01*
X-24523Y-119560D01*
X-24152Y-119792D01*
X-23765Y-119972D01*
X-23354Y-120100D01*
X-23139Y-120145D01*
X-22918Y-120178D01*
X-22690Y-120197D01*
X-22457Y-120203D01*
X-22069Y-120184D01*
X-21693Y-120128D01*
X-21329Y-120033D01*
X-20977Y-119900D01*
X-20637Y-119729D01*
X-20309Y-119521D01*
X-19993Y-119275D01*
X-19689Y-118990D01*
X-19410Y-118680D01*
X-19168Y-118357D01*
X-18963Y-118020D01*
X-18796Y-117669D01*
X-18666Y-117305D01*
X-18573Y-116927D01*
X-18517Y-116535D01*
X-18498Y-116131D01*
X-18498Y-114843D01*
X-18513Y-114468D01*
X-18559Y-114112D01*
X-18636Y-113776D01*
X-18743Y-113459D01*
X-18929Y-113053D01*
X-19144Y-112664D01*
X-19389Y-112295D01*
X-19663Y-111944D01*
X-19844Y-111755D01*
X-20053Y-111581D01*
X-20290Y-111422D01*
X-20556Y-111278D01*
X-20939Y-111114D01*
X-21334Y-110996D01*
X-21740Y-110925D01*
X-22159Y-110902D01*
X-22479Y-110914D01*
X-22790Y-110950D01*
X-23092Y-111011D01*
X-23385Y-111097D01*
X-23670Y-111206D01*
X-23946Y-111340D01*
X-24213Y-111499D01*
X-24471Y-111681D01*
X-24649Y-111826D01*
X-24804Y-111976D01*
X-24937Y-112132D01*
X-25047Y-112292D01*
X-25136Y-112458D01*
X-25202Y-112629D01*
X-25246Y-112805D01*
X-25268Y-112986D01*
X-25307Y-113190D01*
X-25341Y-113267D01*
X-25387Y-113328D01*
X-25499Y-113407D01*
X-25565Y-113426D01*
X-25636Y-113433D01*
X-25715Y-113426D01*
X-25786Y-113405D01*
X-25903Y-113319D01*
X-25947Y-113252D01*
X-25979Y-113166D01*
X-25998Y-113060D01*
X-26004Y-112934D01*
X-26004Y-110893D01*
X-25998Y-110771D01*
X-25979Y-110667D01*
X-25947Y-110583D01*
X-25903Y-110516D01*
X-25786Y-110431D01*
X-25715Y-110410D01*
X-25636Y-110403D01*
X-25557Y-110410D01*
X-25486Y-110431D01*
X-25369Y-110516D01*
X-25325Y-110583D01*
X-25294Y-110667D01*
X-25275Y-110771D01*
X-25268Y-110893D01*
X-25268Y-111410D01*
X-24932Y-111118D01*
X-24580Y-110866D01*
X-24212Y-110652D01*
X-23828Y-110477D01*
X-23428Y-110341D01*
X-23012Y-110244D01*
X-22580Y-110185D01*
X-22133Y-110166D01*
X-21840Y-110176D01*
X-21552Y-110204D01*
X-21270Y-110252D01*
X-20993Y-110318D01*
X-20722Y-110404D01*
X-20455Y-110508D01*
X-20194Y-110632D01*
X-19939Y-110775D01*
X-19693Y-110935D01*
X-19460Y-111112D01*
X-19240Y-111305D01*
X-19035Y-111515D01*
X-18842Y-111741D01*
X-18663Y-111983D01*
X-18497Y-112242D01*
X-18345Y-112518D01*
X-18208Y-112801D01*
X-18090Y-113082D01*
X-17990Y-113362D01*
X-17908Y-113640D01*
X-17844Y-113917D01*
X-17799Y-114192D01*
X-17771Y-114466D01*
X-17762Y-114738D01*
X-17762Y-116236D01*
X-17776Y-116609D01*
X-17817Y-116966D01*
X-17886Y-117307D01*
X-17981Y-117633D01*
X-18115Y-117957D01*
X-18296Y-118296D01*
X-18524Y-118649D01*
X-18800Y-119017D01*
X-19088Y-119364D01*
X-19353Y-119657D01*
X-19594Y-119896D01*
X-19812Y-120081D01*
X-20031Y-120233D01*
X-20278Y-120376D01*
X-20552Y-120509D01*
X-20854Y-120633D01*
X-21264Y-120767D01*
X-21671Y-120862D01*
X-22074Y-120920D01*
X-22474Y-120939D01*
G37*
G36*
X52776Y-120939D02*
X52546Y-120933D01*
X52317Y-120914D01*
X51861Y-120837D01*
X51408Y-120710D01*
X50958Y-120532D01*
X50521Y-120303D01*
X50105Y-120025D01*
X49713Y-119697D01*
X49342Y-119319D01*
X49177Y-119126D01*
X49060Y-118960D01*
X48989Y-118819D01*
X48966Y-118706D01*
X48990Y-118570D01*
X49062Y-118460D01*
X49174Y-118388D01*
X49316Y-118364D01*
X49406Y-118376D01*
X49491Y-118410D01*
X49572Y-118468D01*
X49649Y-118548D01*
X50002Y-118938D01*
X50362Y-119275D01*
X50727Y-119560D01*
X51098Y-119792D01*
X51485Y-119972D01*
X51896Y-120100D01*
X52111Y-120145D01*
X52332Y-120178D01*
X52560Y-120197D01*
X52793Y-120203D01*
X53181Y-120184D01*
X53557Y-120128D01*
X53921Y-120033D01*
X54273Y-119900D01*
X54613Y-119729D01*
X54941Y-119521D01*
X55257Y-119275D01*
X55561Y-118990D01*
X55840Y-118680D01*
X56082Y-118357D01*
X56287Y-118020D01*
X56454Y-117669D01*
X56584Y-117305D01*
X56678Y-116927D01*
X56733Y-116535D01*
X56752Y-116131D01*
X56752Y-114843D01*
X56737Y-114468D01*
X56691Y-114112D01*
X56614Y-113776D01*
X56507Y-113459D01*
X56321Y-113053D01*
X56106Y-112664D01*
X55861Y-112295D01*
X55587Y-111944D01*
X55406Y-111755D01*
X55197Y-111581D01*
X54960Y-111422D01*
X54694Y-111278D01*
X54311Y-111114D01*
X53916Y-110996D01*
X53510Y-110925D01*
X53091Y-110902D01*
X52771Y-110914D01*
X52460Y-110950D01*
X52158Y-111011D01*
X51865Y-111097D01*
X51580Y-111206D01*
X51304Y-111340D01*
X51037Y-111499D01*
X50779Y-111681D01*
X50601Y-111826D01*
X50446Y-111976D01*
X50313Y-112132D01*
X50203Y-112292D01*
X50114Y-112458D01*
X50048Y-112629D01*
X50004Y-112805D01*
X49982Y-112986D01*
X49943Y-113190D01*
X49909Y-113267D01*
X49863Y-113328D01*
X49751Y-113407D01*
X49685Y-113426D01*
X49614Y-113433D01*
X49535Y-113426D01*
X49464Y-113405D01*
X49347Y-113319D01*
X49303Y-113252D01*
X49271Y-113166D01*
X49252Y-113060D01*
X49246Y-112934D01*
X49246Y-110893D01*
X49252Y-110771D01*
X49271Y-110667D01*
X49303Y-110583D01*
X49347Y-110516D01*
X49464Y-110431D01*
X49535Y-110410D01*
X49614Y-110403D01*
X49693Y-110410D01*
X49764Y-110431D01*
X49881Y-110516D01*
X49925Y-110583D01*
X49956Y-110667D01*
X49975Y-110771D01*
X49982Y-110893D01*
X49982Y-111410D01*
X50318Y-111118D01*
X50670Y-110866D01*
X51038Y-110652D01*
X51422Y-110477D01*
X51822Y-110341D01*
X52238Y-110244D01*
X52670Y-110185D01*
X53117Y-110166D01*
X53410Y-110176D01*
X53698Y-110204D01*
X53980Y-110252D01*
X54257Y-110318D01*
X54528Y-110404D01*
X54795Y-110508D01*
X55056Y-110632D01*
X55311Y-110775D01*
X55557Y-110935D01*
X55790Y-111112D01*
X56010Y-111305D01*
X56216Y-111515D01*
X56408Y-111741D01*
X56587Y-111983D01*
X56753Y-112242D01*
X56905Y-112518D01*
X57042Y-112801D01*
X57160Y-113082D01*
X57260Y-113362D01*
X57342Y-113640D01*
X57406Y-113917D01*
X57451Y-114192D01*
X57479Y-114466D01*
X57488Y-114738D01*
X57488Y-116236D01*
X57474Y-116609D01*
X57433Y-116966D01*
X57365Y-117307D01*
X57269Y-117633D01*
X57135Y-117957D01*
X56955Y-118296D01*
X56726Y-118649D01*
X56450Y-119017D01*
X56162Y-119364D01*
X55897Y-119657D01*
X55656Y-119896D01*
X55438Y-120081D01*
X55219Y-120233D01*
X54972Y-120376D01*
X54698Y-120509D01*
X54396Y-120633D01*
X53986Y-120767D01*
X53579Y-120862D01*
X53176Y-120920D01*
X52776Y-120939D01*
G37*
G36*
X85026Y-120939D02*
X84796Y-120933D01*
X84567Y-120914D01*
X84111Y-120837D01*
X83658Y-120710D01*
X83208Y-120532D01*
X82771Y-120303D01*
X82355Y-120025D01*
X81963Y-119697D01*
X81592Y-119319D01*
X81427Y-119126D01*
X81310Y-118960D01*
X81239Y-118819D01*
X81216Y-118706D01*
X81240Y-118570D01*
X81312Y-118460D01*
X81424Y-118388D01*
X81566Y-118364D01*
X81656Y-118376D01*
X81741Y-118410D01*
X81822Y-118468D01*
X81899Y-118548D01*
X82252Y-118938D01*
X82612Y-119275D01*
X82977Y-119560D01*
X83348Y-119792D01*
X83735Y-119972D01*
X84146Y-120100D01*
X84361Y-120145D01*
X84582Y-120178D01*
X84810Y-120197D01*
X85043Y-120203D01*
X85431Y-120184D01*
X85807Y-120128D01*
X86171Y-120033D01*
X86523Y-119900D01*
X86863Y-119729D01*
X87191Y-119521D01*
X87507Y-119275D01*
X87811Y-118990D01*
X88090Y-118680D01*
X88332Y-118357D01*
X88537Y-118020D01*
X88704Y-117669D01*
X88834Y-117305D01*
X88928Y-116927D01*
X88983Y-116535D01*
X89002Y-116131D01*
X89002Y-114843D01*
X88987Y-114468D01*
X88941Y-114112D01*
X88864Y-113776D01*
X88757Y-113459D01*
X88571Y-113053D01*
X88356Y-112664D01*
X88111Y-112295D01*
X87837Y-111944D01*
X87656Y-111755D01*
X87447Y-111581D01*
X87210Y-111422D01*
X86944Y-111278D01*
X86561Y-111114D01*
X86166Y-110996D01*
X85760Y-110925D01*
X85341Y-110902D01*
X85021Y-110914D01*
X84710Y-110950D01*
X84408Y-111011D01*
X84115Y-111097D01*
X83830Y-111206D01*
X83554Y-111340D01*
X83287Y-111499D01*
X83029Y-111681D01*
X82851Y-111826D01*
X82696Y-111976D01*
X82563Y-112132D01*
X82453Y-112292D01*
X82364Y-112458D01*
X82298Y-112629D01*
X82254Y-112805D01*
X82232Y-112986D01*
X82193Y-113190D01*
X82159Y-113267D01*
X82113Y-113328D01*
X82001Y-113407D01*
X81935Y-113426D01*
X81864Y-113433D01*
X81785Y-113426D01*
X81714Y-113405D01*
X81597Y-113319D01*
X81553Y-113252D01*
X81521Y-113166D01*
X81502Y-113060D01*
X81496Y-112934D01*
X81496Y-110893D01*
X81502Y-110771D01*
X81521Y-110667D01*
X81553Y-110583D01*
X81597Y-110516D01*
X81714Y-110431D01*
X81785Y-110410D01*
X81864Y-110403D01*
X81943Y-110410D01*
X82014Y-110431D01*
X82131Y-110516D01*
X82175Y-110583D01*
X82206Y-110667D01*
X82225Y-110771D01*
X82232Y-110893D01*
X82232Y-111410D01*
X82568Y-111118D01*
X82920Y-110866D01*
X83288Y-110652D01*
X83672Y-110477D01*
X84072Y-110341D01*
X84488Y-110244D01*
X84920Y-110185D01*
X85367Y-110166D01*
X85660Y-110176D01*
X85948Y-110204D01*
X86230Y-110252D01*
X86507Y-110318D01*
X86778Y-110404D01*
X87045Y-110508D01*
X87306Y-110632D01*
X87561Y-110775D01*
X87807Y-110935D01*
X88040Y-111112D01*
X88260Y-111305D01*
X88466Y-111515D01*
X88658Y-111741D01*
X88837Y-111983D01*
X89003Y-112242D01*
X89155Y-112518D01*
X89292Y-112801D01*
X89410Y-113082D01*
X89510Y-113362D01*
X89592Y-113640D01*
X89656Y-113917D01*
X89701Y-114192D01*
X89729Y-114466D01*
X89738Y-114738D01*
X89738Y-116236D01*
X89724Y-116609D01*
X89683Y-116966D01*
X89615Y-117307D01*
X89519Y-117633D01*
X89385Y-117957D01*
X89205Y-118296D01*
X88976Y-118649D01*
X88700Y-119017D01*
X88412Y-119364D01*
X88147Y-119657D01*
X87906Y-119896D01*
X87688Y-120081D01*
X87469Y-120233D01*
X87222Y-120376D01*
X86948Y-120509D01*
X86646Y-120633D01*
X86236Y-120767D01*
X85829Y-120862D01*
X85426Y-120920D01*
X85026Y-120939D01*
G37*
G36*
X-64870Y-120913D02*
X-65265Y-120897D01*
X-65642Y-120850D01*
X-66003Y-120770D01*
X-66347Y-120660D01*
X-66674Y-120518D01*
X-66984Y-120344D01*
X-67278Y-120138D01*
X-67555Y-119901D01*
X-67806Y-119643D01*
X-68024Y-119376D01*
X-68208Y-119099D01*
X-68359Y-118812D01*
X-68477Y-118515D01*
X-68560Y-118209D01*
X-68611Y-117893D01*
X-68628Y-117567D01*
X-68619Y-117353D01*
X-68594Y-117142D01*
X-68552Y-116933D01*
X-68494Y-116725D01*
X-68419Y-116520D01*
X-68327Y-116316D01*
X-68093Y-115916D01*
X-67952Y-115723D01*
X-67796Y-115541D01*
X-67625Y-115369D01*
X-67439Y-115208D01*
X-67237Y-115057D01*
X-67021Y-114917D01*
X-66789Y-114787D01*
X-66543Y-114668D01*
X-66934Y-114454D01*
X-67274Y-114208D01*
X-67564Y-113929D01*
X-67804Y-113617D01*
X-67992Y-113284D01*
X-68126Y-112940D01*
X-68207Y-112587D01*
X-68227Y-112407D01*
X-68233Y-112224D01*
X-68219Y-111940D01*
X-68178Y-111666D01*
X-68108Y-111402D01*
X-68010Y-111148D01*
X-67884Y-110904D01*
X-67731Y-110670D01*
X-67549Y-110446D01*
X-67340Y-110232D01*
X-67109Y-110036D01*
X-66862Y-109866D01*
X-66600Y-109722D01*
X-66322Y-109604D01*
X-66028Y-109513D01*
X-65719Y-109448D01*
X-65394Y-109408D01*
X-65054Y-109395D01*
X-64721Y-109407D01*
X-64398Y-109442D01*
X-64083Y-109500D01*
X-63777Y-109581D01*
X-63481Y-109686D01*
X-63193Y-109814D01*
X-62915Y-109965D01*
X-62645Y-110140D01*
X-62312Y-110395D01*
X-62074Y-110628D01*
X-61991Y-110736D01*
X-61931Y-110838D01*
X-61895Y-110934D01*
X-61883Y-111024D01*
X-61890Y-111092D01*
X-61910Y-111155D01*
X-61989Y-111265D01*
X-62105Y-111341D01*
X-62243Y-111366D01*
X-62333Y-111356D01*
X-62413Y-111327D01*
X-62504Y-111253D01*
X-62628Y-111112D01*
X-62836Y-110896D01*
X-63077Y-110705D01*
X-63349Y-110537D01*
X-63653Y-110394D01*
X-63980Y-110279D01*
X-64323Y-110197D01*
X-64681Y-110147D01*
X-65054Y-110131D01*
X-65319Y-110141D01*
X-65571Y-110170D01*
X-65811Y-110220D01*
X-66037Y-110289D01*
X-66251Y-110377D01*
X-66452Y-110486D01*
X-66639Y-110614D01*
X-66814Y-110762D01*
X-66973Y-110922D01*
X-67110Y-111089D01*
X-67225Y-111262D01*
X-67320Y-111440D01*
X-67394Y-111625D01*
X-67447Y-111816D01*
X-67478Y-112013D01*
X-67489Y-112216D01*
X-67479Y-112412D01*
X-67449Y-112602D01*
X-67398Y-112786D01*
X-67328Y-112964D01*
X-67237Y-113137D01*
X-67127Y-113303D01*
X-66996Y-113463D01*
X-66845Y-113617D01*
X-66679Y-113759D01*
X-66502Y-113881D01*
X-66314Y-113985D01*
X-66115Y-114070D01*
X-65905Y-114136D01*
X-65685Y-114183D01*
X-65454Y-114212D01*
X-65212Y-114221D01*
X-64581Y-114213D01*
X-64478Y-114219D01*
X-64389Y-114239D01*
X-64314Y-114272D01*
X-64253Y-114318D01*
X-64171Y-114436D01*
X-64150Y-114505D01*
X-64143Y-114580D01*
X-64150Y-114659D01*
X-64172Y-114730D01*
X-64257Y-114847D01*
X-64323Y-114892D01*
X-64408Y-114923D01*
X-64512Y-114942D01*
X-64634Y-114948D01*
X-65040Y-114971D01*
X-65444Y-115039D01*
X-65846Y-115153D01*
X-66245Y-115312D01*
X-66620Y-115510D01*
X-66949Y-115742D01*
X-67231Y-116007D01*
X-67467Y-116306D01*
X-67653Y-116623D01*
X-67786Y-116943D01*
X-67865Y-117266D01*
X-67885Y-117429D01*
X-67892Y-117593D01*
X-67878Y-117836D01*
X-67838Y-118073D01*
X-67770Y-118304D01*
X-67676Y-118529D01*
X-67555Y-118749D01*
X-67407Y-118964D01*
X-67231Y-119173D01*
X-67029Y-119376D01*
X-66807Y-119563D01*
X-66572Y-119726D01*
X-66324Y-119864D01*
X-66062Y-119977D01*
X-65788Y-120064D01*
X-65501Y-120127D01*
X-65201Y-120165D01*
X-64888Y-120177D01*
X-64511Y-120161D01*
X-64140Y-120114D01*
X-63773Y-120035D01*
X-63412Y-119925D01*
X-63055Y-119784D01*
X-62703Y-119611D01*
X-62357Y-119406D01*
X-62015Y-119170D01*
X-61848Y-119071D01*
X-61772Y-119047D01*
X-61699Y-119038D01*
X-61632Y-119045D01*
X-61569Y-119065D01*
X-61459Y-119144D01*
X-61383Y-119257D01*
X-61358Y-119389D01*
X-61366Y-119467D01*
X-61391Y-119542D01*
X-61489Y-119687D01*
X-61729Y-119896D01*
X-62045Y-120103D01*
X-62439Y-120307D01*
X-62908Y-120510D01*
X-63412Y-120686D01*
X-63907Y-120812D01*
X-64393Y-120888D01*
X-64633Y-120906D01*
X-64870Y-120913D01*
G37*
G36*
X-32620Y-139963D02*
X-33015Y-139947D01*
X-33392Y-139900D01*
X-33753Y-139820D01*
X-34097Y-139710D01*
X-34424Y-139568D01*
X-34734Y-139394D01*
X-35028Y-139188D01*
X-35305Y-138951D01*
X-35556Y-138693D01*
X-35774Y-138426D01*
X-35958Y-138149D01*
X-36109Y-137862D01*
X-36227Y-137565D01*
X-36310Y-137259D01*
X-36361Y-136943D01*
X-36378Y-136617D01*
X-36369Y-136403D01*
X-36344Y-136192D01*
X-36302Y-135983D01*
X-36244Y-135775D01*
X-36169Y-135570D01*
X-36077Y-135366D01*
X-35843Y-134966D01*
X-35702Y-134773D01*
X-35546Y-134591D01*
X-35375Y-134419D01*
X-35189Y-134258D01*
X-34987Y-134107D01*
X-34771Y-133967D01*
X-34539Y-133837D01*
X-34293Y-133718D01*
X-34684Y-133504D01*
X-35024Y-133258D01*
X-35314Y-132979D01*
X-35554Y-132667D01*
X-35742Y-132334D01*
X-35876Y-131990D01*
X-35957Y-131637D01*
X-35977Y-131457D01*
X-35983Y-131274D01*
X-35969Y-130990D01*
X-35928Y-130716D01*
X-35858Y-130452D01*
X-35760Y-130198D01*
X-35634Y-129954D01*
X-35481Y-129720D01*
X-35299Y-129496D01*
X-35090Y-129282D01*
X-34859Y-129086D01*
X-34612Y-128916D01*
X-34350Y-128772D01*
X-34072Y-128654D01*
X-33778Y-128563D01*
X-33469Y-128498D01*
X-33144Y-128458D01*
X-32804Y-128445D01*
X-32471Y-128457D01*
X-32148Y-128492D01*
X-31833Y-128550D01*
X-31527Y-128631D01*
X-31231Y-128736D01*
X-30943Y-128864D01*
X-30665Y-129015D01*
X-30395Y-129190D01*
X-30062Y-129445D01*
X-29824Y-129678D01*
X-29741Y-129786D01*
X-29681Y-129888D01*
X-29645Y-129984D01*
X-29633Y-130074D01*
X-29640Y-130142D01*
X-29660Y-130205D01*
X-29739Y-130315D01*
X-29855Y-130391D01*
X-29993Y-130416D01*
X-30083Y-130406D01*
X-30163Y-130377D01*
X-30254Y-130303D01*
X-30378Y-130162D01*
X-30586Y-129946D01*
X-30827Y-129755D01*
X-31099Y-129587D01*
X-31403Y-129444D01*
X-31730Y-129329D01*
X-32073Y-129247D01*
X-32431Y-129197D01*
X-32804Y-129181D01*
X-33069Y-129191D01*
X-33321Y-129220D01*
X-33561Y-129270D01*
X-33787Y-129339D01*
X-34001Y-129427D01*
X-34202Y-129536D01*
X-34389Y-129664D01*
X-34564Y-129812D01*
X-34723Y-129972D01*
X-34860Y-130139D01*
X-34975Y-130312D01*
X-35070Y-130490D01*
X-35144Y-130675D01*
X-35197Y-130866D01*
X-35228Y-131063D01*
X-35239Y-131266D01*
X-35229Y-131462D01*
X-35199Y-131652D01*
X-35148Y-131836D01*
X-35078Y-132014D01*
X-34987Y-132187D01*
X-34877Y-132353D01*
X-34746Y-132513D01*
X-34595Y-132667D01*
X-34429Y-132809D01*
X-34252Y-132931D01*
X-34064Y-133035D01*
X-33865Y-133120D01*
X-33655Y-133186D01*
X-33435Y-133233D01*
X-33204Y-133262D01*
X-32962Y-133271D01*
X-32331Y-133263D01*
X-32228Y-133269D01*
X-32139Y-133289D01*
X-32064Y-133322D01*
X-32003Y-133368D01*
X-31921Y-133486D01*
X-31900Y-133555D01*
X-31893Y-133630D01*
X-31900Y-133709D01*
X-31922Y-133780D01*
X-32007Y-133897D01*
X-32073Y-133942D01*
X-32158Y-133973D01*
X-32262Y-133992D01*
X-32384Y-133998D01*
X-32790Y-134021D01*
X-33194Y-134089D01*
X-33596Y-134203D01*
X-33995Y-134362D01*
X-34370Y-134560D01*
X-34699Y-134792D01*
X-34981Y-135057D01*
X-35217Y-135356D01*
X-35403Y-135673D01*
X-35536Y-135993D01*
X-35615Y-136316D01*
X-35635Y-136479D01*
X-35642Y-136643D01*
X-35628Y-136886D01*
X-35588Y-137123D01*
X-35520Y-137354D01*
X-35426Y-137579D01*
X-35305Y-137799D01*
X-35157Y-138014D01*
X-34981Y-138223D01*
X-34779Y-138426D01*
X-34557Y-138613D01*
X-34322Y-138776D01*
X-34074Y-138914D01*
X-33812Y-139027D01*
X-33538Y-139114D01*
X-33251Y-139177D01*
X-32951Y-139215D01*
X-32638Y-139227D01*
X-32261Y-139211D01*
X-31890Y-139164D01*
X-31523Y-139085D01*
X-31162Y-138975D01*
X-30805Y-138834D01*
X-30453Y-138661D01*
X-30107Y-138456D01*
X-29765Y-138220D01*
X-29598Y-138121D01*
X-29522Y-138097D01*
X-29449Y-138088D01*
X-29382Y-138095D01*
X-29319Y-138115D01*
X-29209Y-138194D01*
X-29133Y-138307D01*
X-29108Y-138439D01*
X-29116Y-138517D01*
X-29141Y-138592D01*
X-29239Y-138737D01*
X-29479Y-138946D01*
X-29795Y-139153D01*
X-30189Y-139357D01*
X-30658Y-139560D01*
X-31162Y-139736D01*
X-31657Y-139862D01*
X-32143Y-139938D01*
X-32383Y-139956D01*
X-32620Y-139963D01*
G37*
G36*
X-11120Y-139963D02*
X-11515Y-139947D01*
X-11892Y-139900D01*
X-12253Y-139820D01*
X-12597Y-139710D01*
X-12924Y-139568D01*
X-13234Y-139394D01*
X-13528Y-139188D01*
X-13805Y-138951D01*
X-14056Y-138693D01*
X-14274Y-138426D01*
X-14458Y-138149D01*
X-14609Y-137862D01*
X-14727Y-137565D01*
X-14810Y-137259D01*
X-14861Y-136943D01*
X-14878Y-136617D01*
X-14869Y-136403D01*
X-14844Y-136192D01*
X-14802Y-135983D01*
X-14744Y-135775D01*
X-14669Y-135570D01*
X-14577Y-135366D01*
X-14343Y-134966D01*
X-14202Y-134773D01*
X-14046Y-134591D01*
X-13875Y-134419D01*
X-13689Y-134258D01*
X-13487Y-134107D01*
X-13271Y-133967D01*
X-13039Y-133837D01*
X-12793Y-133718D01*
X-13184Y-133504D01*
X-13524Y-133258D01*
X-13814Y-132979D01*
X-14054Y-132667D01*
X-14242Y-132334D01*
X-14376Y-131990D01*
X-14457Y-131637D01*
X-14477Y-131457D01*
X-14483Y-131274D01*
X-14469Y-130990D01*
X-14428Y-130716D01*
X-14358Y-130452D01*
X-14260Y-130198D01*
X-14134Y-129954D01*
X-13981Y-129720D01*
X-13799Y-129496D01*
X-13590Y-129282D01*
X-13359Y-129086D01*
X-13112Y-128916D01*
X-12850Y-128772D01*
X-12572Y-128654D01*
X-12278Y-128563D01*
X-11969Y-128498D01*
X-11644Y-128458D01*
X-11304Y-128445D01*
X-10971Y-128457D01*
X-10648Y-128492D01*
X-10333Y-128550D01*
X-10027Y-128631D01*
X-9731Y-128736D01*
X-9443Y-128864D01*
X-9165Y-129015D01*
X-8895Y-129190D01*
X-8562Y-129445D01*
X-8324Y-129678D01*
X-8241Y-129786D01*
X-8181Y-129888D01*
X-8145Y-129984D01*
X-8133Y-130074D01*
X-8140Y-130142D01*
X-8160Y-130205D01*
X-8239Y-130315D01*
X-8355Y-130391D01*
X-8493Y-130416D01*
X-8583Y-130406D01*
X-8663Y-130377D01*
X-8754Y-130303D01*
X-8878Y-130162D01*
X-9086Y-129946D01*
X-9327Y-129755D01*
X-9599Y-129587D01*
X-9903Y-129444D01*
X-10230Y-129329D01*
X-10573Y-129247D01*
X-10931Y-129197D01*
X-11304Y-129181D01*
X-11569Y-129191D01*
X-11821Y-129220D01*
X-12061Y-129270D01*
X-12287Y-129339D01*
X-12501Y-129427D01*
X-12702Y-129536D01*
X-12889Y-129664D01*
X-13064Y-129812D01*
X-13223Y-129972D01*
X-13360Y-130139D01*
X-13475Y-130312D01*
X-13570Y-130490D01*
X-13644Y-130675D01*
X-13697Y-130866D01*
X-13728Y-131063D01*
X-13739Y-131266D01*
X-13729Y-131462D01*
X-13699Y-131652D01*
X-13648Y-131836D01*
X-13578Y-132014D01*
X-13487Y-132187D01*
X-13377Y-132353D01*
X-13246Y-132513D01*
X-13095Y-132667D01*
X-12929Y-132809D01*
X-12752Y-132931D01*
X-12564Y-133035D01*
X-12365Y-133120D01*
X-12155Y-133186D01*
X-11935Y-133233D01*
X-11704Y-133262D01*
X-11462Y-133271D01*
X-10831Y-133263D01*
X-10728Y-133269D01*
X-10639Y-133289D01*
X-10564Y-133322D01*
X-10503Y-133368D01*
X-10421Y-133486D01*
X-10400Y-133555D01*
X-10393Y-133630D01*
X-10400Y-133709D01*
X-10422Y-133780D01*
X-10507Y-133897D01*
X-10573Y-133942D01*
X-10658Y-133973D01*
X-10762Y-133992D01*
X-10884Y-133998D01*
X-11290Y-134021D01*
X-11694Y-134089D01*
X-12096Y-134203D01*
X-12495Y-134362D01*
X-12870Y-134560D01*
X-13199Y-134792D01*
X-13481Y-135057D01*
X-13717Y-135356D01*
X-13903Y-135673D01*
X-14036Y-135993D01*
X-14115Y-136316D01*
X-14135Y-136479D01*
X-14142Y-136643D01*
X-14128Y-136886D01*
X-14088Y-137123D01*
X-14020Y-137354D01*
X-13926Y-137579D01*
X-13805Y-137799D01*
X-13657Y-138014D01*
X-13481Y-138223D01*
X-13279Y-138426D01*
X-13057Y-138613D01*
X-12822Y-138776D01*
X-12574Y-138914D01*
X-12312Y-139027D01*
X-12038Y-139114D01*
X-11751Y-139177D01*
X-11451Y-139215D01*
X-11138Y-139227D01*
X-10761Y-139211D01*
X-10390Y-139164D01*
X-10023Y-139085D01*
X-9662Y-138975D01*
X-9305Y-138834D01*
X-8953Y-138661D01*
X-8607Y-138456D01*
X-8265Y-138220D01*
X-8098Y-138121D01*
X-8022Y-138097D01*
X-7949Y-138088D01*
X-7882Y-138095D01*
X-7819Y-138115D01*
X-7709Y-138194D01*
X-7633Y-138307D01*
X-7608Y-138439D01*
X-7616Y-138517D01*
X-7641Y-138592D01*
X-7739Y-138737D01*
X-7979Y-138946D01*
X-8295Y-139153D01*
X-8689Y-139357D01*
X-9158Y-139560D01*
X-9662Y-139736D01*
X-10157Y-139862D01*
X-10643Y-139938D01*
X-10883Y-139956D01*
X-11120Y-139963D01*
G37*
G36*
X-53682Y-120650D02*
X-54926Y-120650D01*
X-57913Y-113810D01*
X-58657Y-113810D01*
X-58783Y-113803D01*
X-58888Y-113783D01*
X-58973Y-113750D01*
X-59038Y-113705D01*
X-59120Y-113586D01*
X-59141Y-113517D01*
X-59147Y-113442D01*
X-59141Y-113362D01*
X-59120Y-113291D01*
X-59038Y-113170D01*
X-58973Y-113124D01*
X-58888Y-113091D01*
X-58783Y-113072D01*
X-58657Y-113065D01*
X-55889Y-113065D01*
X-55767Y-113072D01*
X-55664Y-113091D01*
X-55579Y-113124D01*
X-55513Y-113170D01*
X-55427Y-113288D01*
X-55406Y-113357D01*
X-55399Y-113433D01*
X-55406Y-113512D01*
X-55427Y-113584D01*
X-55513Y-113705D01*
X-55579Y-113750D01*
X-55664Y-113783D01*
X-55767Y-113803D01*
X-55889Y-113810D01*
X-57116Y-113810D01*
X-54470Y-119914D01*
X-54146Y-119914D01*
X-51449Y-113810D01*
X-52666Y-113810D01*
X-52788Y-113803D01*
X-52892Y-113783D01*
X-52977Y-113750D01*
X-53043Y-113705D01*
X-53128Y-113586D01*
X-53150Y-113517D01*
X-53157Y-113442D01*
X-53150Y-113362D01*
X-53128Y-113291D01*
X-53043Y-113170D01*
X-52977Y-113124D01*
X-52892Y-113091D01*
X-52788Y-113072D01*
X-52666Y-113065D01*
X-49907Y-113065D01*
X-49785Y-113072D01*
X-49682Y-113091D01*
X-49597Y-113124D01*
X-49531Y-113170D01*
X-49445Y-113288D01*
X-49424Y-113357D01*
X-49417Y-113433D01*
X-49424Y-113512D01*
X-49445Y-113584D01*
X-49531Y-113705D01*
X-49597Y-113750D01*
X-49682Y-113783D01*
X-49785Y-113803D01*
X-49907Y-113810D01*
X-50660Y-113810D01*
X-53682Y-120650D01*
G37*
G36*
X-11838Y-159039D02*
X-12339Y-159018D01*
X-12851Y-158955D01*
X-13375Y-158849D01*
X-13910Y-158702D01*
X-14400Y-158536D01*
X-14791Y-158377D01*
X-15081Y-158223D01*
X-15272Y-158076D01*
X-15357Y-157957D01*
X-15378Y-157895D01*
X-15386Y-157830D01*
X-15379Y-157758D01*
X-15359Y-157691D01*
X-15280Y-157572D01*
X-15167Y-157490D01*
X-15103Y-157469D01*
X-15035Y-157463D01*
X-14906Y-157491D01*
X-14746Y-157576D01*
X-14481Y-157713D01*
X-14168Y-157842D01*
X-13807Y-157965D01*
X-13397Y-158080D01*
X-12971Y-158178D01*
X-12561Y-158248D01*
X-12166Y-158289D01*
X-11786Y-158303D01*
X-11546Y-158297D01*
X-11321Y-158277D01*
X-11111Y-158243D01*
X-10915Y-158196D01*
X-10735Y-158136D01*
X-10570Y-158062D01*
X-10419Y-157975D01*
X-10284Y-157874D01*
X-10059Y-157646D01*
X-9971Y-157523D01*
X-9899Y-157392D01*
X-9843Y-157256D01*
X-9803Y-157112D01*
X-9779Y-156962D01*
X-9771Y-156806D01*
X-9771Y-151910D01*
X-13765Y-151910D01*
X-13887Y-151903D01*
X-13991Y-151883D01*
X-14076Y-151850D01*
X-14142Y-151805D01*
X-14227Y-151686D01*
X-14249Y-151617D01*
X-14256Y-151542D01*
X-14249Y-151462D01*
X-14227Y-151391D01*
X-14142Y-151270D01*
X-14076Y-151224D01*
X-13991Y-151191D01*
X-13887Y-151172D01*
X-13765Y-151165D01*
X-9771Y-151165D01*
X-9771Y-148993D01*
X-9765Y-148871D01*
X-9745Y-148767D01*
X-9712Y-148683D01*
X-9666Y-148616D01*
X-9546Y-148531D01*
X-9474Y-148510D01*
X-9395Y-148503D01*
X-9319Y-148510D01*
X-9250Y-148531D01*
X-9132Y-148616D01*
X-9086Y-148683D01*
X-9053Y-148767D01*
X-9033Y-148871D01*
X-9027Y-148993D01*
X-9027Y-151165D01*
X-7669Y-151165D01*
X-7547Y-151172D01*
X-7444Y-151191D01*
X-7359Y-151224D01*
X-7293Y-151270D01*
X-7207Y-151388D01*
X-7186Y-151457D01*
X-7179Y-151533D01*
X-7186Y-151612D01*
X-7207Y-151684D01*
X-7293Y-151805D01*
X-7359Y-151850D01*
X-7444Y-151883D01*
X-7547Y-151903D01*
X-7669Y-151910D01*
X-9027Y-151910D01*
X-9027Y-156806D01*
X-9039Y-157055D01*
X-9074Y-157292D01*
X-9134Y-157515D01*
X-9217Y-157725D01*
X-9324Y-157922D01*
X-9455Y-158106D01*
X-9610Y-158277D01*
X-9789Y-158435D01*
X-9988Y-158576D01*
X-10203Y-158699D01*
X-10434Y-158803D01*
X-10682Y-158888D01*
X-10947Y-158954D01*
X-11227Y-159001D01*
X-11525Y-159030D01*
X-11838Y-159039D01*
G37*
G36*
X74162Y-159039D02*
X73661Y-159018D01*
X73149Y-158955D01*
X72625Y-158849D01*
X72090Y-158702D01*
X71600Y-158536D01*
X71209Y-158377D01*
X70919Y-158223D01*
X70728Y-158076D01*
X70643Y-157957D01*
X70622Y-157895D01*
X70615Y-157830D01*
X70621Y-157758D01*
X70641Y-157691D01*
X70720Y-157572D01*
X70833Y-157490D01*
X70897Y-157469D01*
X70965Y-157463D01*
X71094Y-157491D01*
X71254Y-157576D01*
X71519Y-157713D01*
X71832Y-157842D01*
X72193Y-157965D01*
X72603Y-158080D01*
X73029Y-158178D01*
X73439Y-158248D01*
X73834Y-158289D01*
X74214Y-158303D01*
X74454Y-158297D01*
X74679Y-158277D01*
X74889Y-158243D01*
X75085Y-158196D01*
X75265Y-158136D01*
X75430Y-158062D01*
X75581Y-157975D01*
X75716Y-157874D01*
X75941Y-157646D01*
X76029Y-157523D01*
X76101Y-157392D01*
X76157Y-157256D01*
X76197Y-157112D01*
X76221Y-156962D01*
X76229Y-156806D01*
X76229Y-151910D01*
X72235Y-151910D01*
X72113Y-151903D01*
X72009Y-151883D01*
X71924Y-151850D01*
X71858Y-151805D01*
X71773Y-151686D01*
X71751Y-151617D01*
X71744Y-151542D01*
X71751Y-151462D01*
X71773Y-151391D01*
X71858Y-151270D01*
X71924Y-151224D01*
X72009Y-151191D01*
X72113Y-151172D01*
X72235Y-151165D01*
X76229Y-151165D01*
X76229Y-148993D01*
X76235Y-148871D01*
X76255Y-148767D01*
X76288Y-148683D01*
X76334Y-148616D01*
X76454Y-148531D01*
X76526Y-148510D01*
X76605Y-148503D01*
X76681Y-148510D01*
X76750Y-148531D01*
X76868Y-148616D01*
X76914Y-148683D01*
X76947Y-148767D01*
X76967Y-148871D01*
X76973Y-148993D01*
X76973Y-151165D01*
X78331Y-151165D01*
X78453Y-151172D01*
X78556Y-151191D01*
X78641Y-151224D01*
X78707Y-151270D01*
X78793Y-151388D01*
X78814Y-151457D01*
X78821Y-151533D01*
X78814Y-151612D01*
X78793Y-151684D01*
X78707Y-151805D01*
X78641Y-151850D01*
X78556Y-151883D01*
X78453Y-151903D01*
X78331Y-151910D01*
X76973Y-151910D01*
X76973Y-156806D01*
X76961Y-157055D01*
X76926Y-157292D01*
X76866Y-157515D01*
X76783Y-157725D01*
X76676Y-157922D01*
X76545Y-158106D01*
X76390Y-158277D01*
X76211Y-158435D01*
X76013Y-158576D01*
X75797Y-158699D01*
X75566Y-158803D01*
X75318Y-158888D01*
X75053Y-158954D01*
X74773Y-159001D01*
X74475Y-159030D01*
X74162Y-159039D01*
G37*
G36*
X84912Y-159039D02*
X84411Y-159018D01*
X83899Y-158955D01*
X83375Y-158849D01*
X82840Y-158702D01*
X82350Y-158536D01*
X81959Y-158377D01*
X81669Y-158223D01*
X81478Y-158076D01*
X81393Y-157957D01*
X81372Y-157895D01*
X81365Y-157830D01*
X81371Y-157758D01*
X81391Y-157691D01*
X81470Y-157572D01*
X81583Y-157490D01*
X81647Y-157469D01*
X81715Y-157463D01*
X81844Y-157491D01*
X82004Y-157576D01*
X82269Y-157713D01*
X82582Y-157842D01*
X82943Y-157965D01*
X83353Y-158080D01*
X83779Y-158178D01*
X84189Y-158248D01*
X84584Y-158289D01*
X84964Y-158303D01*
X85204Y-158297D01*
X85429Y-158277D01*
X85639Y-158243D01*
X85835Y-158196D01*
X86015Y-158136D01*
X86180Y-158062D01*
X86331Y-157975D01*
X86466Y-157874D01*
X86691Y-157646D01*
X86779Y-157523D01*
X86851Y-157392D01*
X86907Y-157256D01*
X86947Y-157112D01*
X86971Y-156962D01*
X86979Y-156806D01*
X86979Y-151910D01*
X82985Y-151910D01*
X82863Y-151903D01*
X82759Y-151883D01*
X82674Y-151850D01*
X82608Y-151805D01*
X82523Y-151686D01*
X82501Y-151617D01*
X82494Y-151542D01*
X82501Y-151462D01*
X82523Y-151391D01*
X82608Y-151270D01*
X82674Y-151224D01*
X82759Y-151191D01*
X82863Y-151172D01*
X82985Y-151165D01*
X86979Y-151165D01*
X86979Y-148993D01*
X86985Y-148871D01*
X87005Y-148767D01*
X87038Y-148683D01*
X87084Y-148616D01*
X87204Y-148531D01*
X87276Y-148510D01*
X87355Y-148503D01*
X87431Y-148510D01*
X87500Y-148531D01*
X87618Y-148616D01*
X87664Y-148683D01*
X87697Y-148767D01*
X87717Y-148871D01*
X87723Y-148993D01*
X87723Y-151165D01*
X89081Y-151165D01*
X89203Y-151172D01*
X89306Y-151191D01*
X89391Y-151224D01*
X89457Y-151270D01*
X89543Y-151388D01*
X89564Y-151457D01*
X89571Y-151533D01*
X89564Y-151612D01*
X89543Y-151684D01*
X89457Y-151805D01*
X89391Y-151850D01*
X89306Y-151883D01*
X89203Y-151903D01*
X89081Y-151910D01*
X87723Y-151910D01*
X87723Y-156806D01*
X87711Y-157055D01*
X87676Y-157292D01*
X87616Y-157515D01*
X87533Y-157725D01*
X87426Y-157922D01*
X87295Y-158106D01*
X87140Y-158277D01*
X86961Y-158435D01*
X86763Y-158576D01*
X86547Y-158699D01*
X86316Y-158803D01*
X86068Y-158888D01*
X85803Y-158954D01*
X85523Y-159001D01*
X85225Y-159030D01*
X84912Y-159039D01*
G37*
G36*
X-29528Y-158750D02*
X-36045Y-158750D01*
X-36171Y-158743D01*
X-36277Y-158724D01*
X-36363Y-158691D01*
X-36430Y-158645D01*
X-36515Y-158527D01*
X-36537Y-158458D01*
X-36544Y-158382D01*
X-36537Y-158303D01*
X-36515Y-158232D01*
X-36430Y-158115D01*
X-36363Y-158071D01*
X-36277Y-158039D01*
X-36171Y-158021D01*
X-36045Y-158014D01*
X-33154Y-158014D01*
X-33154Y-147758D01*
X-30299Y-147758D01*
X-30173Y-147765D01*
X-30067Y-147784D01*
X-29980Y-147817D01*
X-29914Y-147863D01*
X-29828Y-147981D01*
X-29807Y-148050D01*
X-29800Y-148126D01*
X-29807Y-148205D01*
X-29829Y-148277D01*
X-29866Y-148341D01*
X-29918Y-148397D01*
X-29986Y-148443D01*
X-30072Y-148476D01*
X-30177Y-148496D01*
X-30299Y-148503D01*
X-32419Y-148503D01*
X-32419Y-158014D01*
X-29528Y-158014D01*
X-29406Y-158021D01*
X-29303Y-158039D01*
X-29218Y-158071D01*
X-29152Y-158115D01*
X-29066Y-158232D01*
X-29045Y-158303D01*
X-29038Y-158382D01*
X-29045Y-158458D01*
X-29066Y-158527D01*
X-29152Y-158645D01*
X-29218Y-158691D01*
X-29303Y-158724D01*
X-29406Y-158743D01*
X-29528Y-158750D01*
G37*
G36*
X-72887Y-120650D02*
X-78668Y-120650D01*
X-78790Y-120643D01*
X-78894Y-120624D01*
X-78978Y-120591D01*
X-79045Y-120545D01*
X-79130Y-120427D01*
X-79151Y-120358D01*
X-79159Y-120282D01*
X-79151Y-120203D01*
X-79130Y-120132D01*
X-79045Y-120015D01*
X-78978Y-119971D01*
X-78894Y-119939D01*
X-78790Y-119921D01*
X-78668Y-119914D01*
X-76146Y-119914D01*
X-76146Y-109509D01*
X-72782Y-110569D01*
X-72601Y-110646D01*
X-72493Y-110718D01*
X-72428Y-110836D01*
X-72406Y-110963D01*
X-72413Y-111035D01*
X-72433Y-111102D01*
X-72515Y-111221D01*
X-72630Y-111304D01*
X-72692Y-111324D01*
X-72756Y-111331D01*
X-72859Y-111318D01*
X-73010Y-111278D01*
X-75410Y-110525D01*
X-75410Y-119914D01*
X-72887Y-119914D01*
X-72765Y-119921D01*
X-72662Y-119939D01*
X-72577Y-119971D01*
X-72511Y-120015D01*
X-72425Y-120132D01*
X-72404Y-120203D01*
X-72397Y-120282D01*
X-72404Y-120358D01*
X-72425Y-120427D01*
X-72511Y-120545D01*
X-72577Y-120591D01*
X-72662Y-120624D01*
X-72765Y-120643D01*
X-72887Y-120650D01*
G37*
G36*
X77613Y-139700D02*
X71832Y-139700D01*
X71710Y-139693D01*
X71606Y-139674D01*
X71522Y-139641D01*
X71455Y-139595D01*
X71370Y-139477D01*
X71349Y-139408D01*
X71341Y-139332D01*
X71349Y-139253D01*
X71370Y-139182D01*
X71455Y-139065D01*
X71522Y-139021D01*
X71606Y-138989D01*
X71710Y-138971D01*
X71832Y-138964D01*
X74354Y-138964D01*
X74354Y-128559D01*
X77718Y-129619D01*
X77899Y-129696D01*
X78007Y-129768D01*
X78072Y-129886D01*
X78094Y-130013D01*
X78087Y-130085D01*
X78067Y-130152D01*
X77985Y-130271D01*
X77870Y-130354D01*
X77808Y-130374D01*
X77744Y-130381D01*
X77641Y-130368D01*
X77490Y-130328D01*
X75090Y-129575D01*
X75090Y-138964D01*
X77613Y-138964D01*
X77735Y-138971D01*
X77838Y-138989D01*
X77923Y-139021D01*
X77989Y-139065D01*
X78075Y-139182D01*
X78096Y-139253D01*
X78103Y-139332D01*
X78096Y-139408D01*
X78075Y-139477D01*
X77989Y-139595D01*
X77923Y-139641D01*
X77838Y-139674D01*
X77735Y-139693D01*
X77613Y-139700D01*
G37*
G36*
X-64905Y-158768D02*
X-65021Y-158749D01*
X-65124Y-158693D01*
X-65214Y-158580D01*
X-65291Y-158391D01*
X-68251Y-148932D01*
X-68251Y-147758D01*
X-61498Y-147758D01*
X-61498Y-149151D01*
X-61505Y-149273D01*
X-61524Y-149376D01*
X-61557Y-149461D01*
X-61603Y-149527D01*
X-61721Y-149613D01*
X-61790Y-149634D01*
X-61866Y-149641D01*
X-61945Y-149634D01*
X-62016Y-149613D01*
X-62133Y-149527D01*
X-62177Y-149461D01*
X-62209Y-149376D01*
X-62227Y-149273D01*
X-62234Y-149151D01*
X-62234Y-148503D01*
X-67506Y-148503D01*
X-67506Y-148835D01*
X-64590Y-158172D01*
X-64550Y-158312D01*
X-64537Y-158417D01*
X-64564Y-158549D01*
X-64642Y-158662D01*
X-64761Y-158741D01*
X-64830Y-158761D01*
X-64905Y-158768D01*
G37*
G36*
X2704Y-158750D02*
X-3812Y-158750D01*
X-3938Y-158743D01*
X-4044Y-158724D01*
X-4131Y-158691D01*
X-4198Y-158645D01*
X-4283Y-158527D01*
X-4304Y-158458D01*
X-4311Y-158382D01*
X-4304Y-158303D01*
X-4283Y-158232D01*
X-4198Y-158115D01*
X-4131Y-158071D01*
X-4044Y-158039D01*
X-3938Y-158021D01*
X-3812Y-158014D01*
X-922Y-158014D01*
X-922Y-151165D01*
X1960Y-151165D01*
X2086Y-151172D01*
X2192Y-151191D01*
X2278Y-151224D01*
X2345Y-151270D01*
X2430Y-151391D01*
X2452Y-151462D01*
X2459Y-151542D01*
X2452Y-151617D01*
X2429Y-151686D01*
X2341Y-151805D01*
X2273Y-151850D01*
X2186Y-151883D01*
X2082Y-151903D01*
X1960Y-151910D01*
X-186Y-151910D01*
X-186Y-158014D01*
X2704Y-158014D01*
X2826Y-158021D01*
X2930Y-158039D01*
X3015Y-158071D01*
X3081Y-158115D01*
X3166Y-158232D01*
X3188Y-158303D01*
X3195Y-158382D01*
X3188Y-158458D01*
X3166Y-158527D01*
X3081Y-158645D01*
X3015Y-158691D01*
X2930Y-158724D01*
X2826Y-158743D01*
X2704Y-158750D01*
G37*
G36*
X-51282Y-160230D02*
X-51395Y-160210D01*
X-51497Y-160149D01*
X-51588Y-160048D01*
X-51668Y-159906D01*
X-57588Y-147224D01*
X-57654Y-147055D01*
X-57676Y-146935D01*
X-57669Y-146870D01*
X-57649Y-146809D01*
X-57567Y-146694D01*
X-57447Y-146612D01*
X-57380Y-146591D01*
X-57308Y-146584D01*
X-57194Y-146600D01*
X-57098Y-146646D01*
X-57008Y-146742D01*
X-56914Y-146908D01*
X-51002Y-159591D01*
X-50936Y-159755D01*
X-50914Y-159880D01*
X-50921Y-159944D01*
X-50942Y-160006D01*
X-51024Y-160121D01*
X-51143Y-160203D01*
X-51210Y-160223D01*
X-51282Y-160230D01*
G37*
G36*
X23968Y-160230D02*
X23855Y-160210D01*
X23753Y-160149D01*
X23662Y-160048D01*
X23582Y-159906D01*
X17662Y-147224D01*
X17596Y-147055D01*
X17574Y-146935D01*
X17581Y-146870D01*
X17601Y-146809D01*
X17683Y-146694D01*
X17803Y-146612D01*
X17870Y-146591D01*
X17942Y-146584D01*
X18056Y-146600D01*
X18152Y-146646D01*
X18242Y-146742D01*
X18336Y-146908D01*
X24248Y-159591D01*
X24314Y-159755D01*
X24336Y-159880D01*
X24329Y-159944D01*
X24308Y-160006D01*
X24226Y-160121D01*
X24107Y-160203D01*
X24040Y-160223D01*
X23968Y-160230D01*
G37*
G36*
X34718Y-160230D02*
X34605Y-160210D01*
X34503Y-160149D01*
X34412Y-160048D01*
X34332Y-159906D01*
X28412Y-147224D01*
X28346Y-147055D01*
X28324Y-146935D01*
X28331Y-146870D01*
X28351Y-146809D01*
X28433Y-146694D01*
X28553Y-146612D01*
X28620Y-146591D01*
X28692Y-146584D01*
X28806Y-146600D01*
X28902Y-146646D01*
X28992Y-146742D01*
X29086Y-146908D01*
X34998Y-159591D01*
X35064Y-159755D01*
X35086Y-159880D01*
X35079Y-159944D01*
X35058Y-160006D01*
X34976Y-160121D01*
X34857Y-160203D01*
X34790Y-160223D01*
X34718Y-160230D01*
G37*
G36*
X56218Y-141180D02*
X56105Y-141160D01*
X56003Y-141099D01*
X55912Y-140998D01*
X55832Y-140856D01*
X49912Y-128174D01*
X49846Y-128005D01*
X49824Y-127885D01*
X49831Y-127820D01*
X49851Y-127759D01*
X49933Y-127644D01*
X50053Y-127562D01*
X50120Y-127541D01*
X50192Y-127534D01*
X50306Y-127550D01*
X50402Y-127596D01*
X50492Y-127692D01*
X50586Y-127858D01*
X56498Y-140541D01*
X56564Y-140705D01*
X56586Y-140830D01*
X56579Y-140894D01*
X56558Y-140956D01*
X56476Y-141071D01*
X56357Y-141153D01*
X56290Y-141173D01*
X56218Y-141180D01*
G37*
G36*
X88468Y-141180D02*
X88355Y-141160D01*
X88253Y-141099D01*
X88162Y-140998D01*
X88082Y-140856D01*
X82162Y-128174D01*
X82096Y-128005D01*
X82074Y-127885D01*
X82081Y-127820D01*
X82101Y-127759D01*
X82183Y-127644D01*
X82303Y-127562D01*
X82370Y-127541D01*
X82442Y-127534D01*
X82556Y-127550D01*
X82652Y-127596D01*
X82742Y-127692D01*
X82836Y-127858D01*
X88748Y-140541D01*
X88814Y-140705D01*
X88836Y-140830D01*
X88829Y-140894D01*
X88808Y-140956D01*
X88726Y-141071D01*
X88607Y-141153D01*
X88540Y-141173D01*
X88468Y-141180D01*
G37*
G36*
X-21879Y-134497D02*
X-22194Y-134497D01*
X-22427Y-134476D01*
X-22644Y-134412D01*
X-22845Y-134305D01*
X-23031Y-134156D01*
X-23186Y-133974D01*
X-23297Y-133770D01*
X-23363Y-133545D01*
X-23385Y-133298D01*
X-23363Y-133065D01*
X-23298Y-132849D01*
X-23188Y-132649D01*
X-23035Y-132465D01*
X-22851Y-132312D01*
X-22650Y-132203D01*
X-22431Y-132137D01*
X-22194Y-132115D01*
X-21879Y-132115D01*
X-21646Y-132136D01*
X-21429Y-132201D01*
X-21228Y-132307D01*
X-21042Y-132457D01*
X-20887Y-132638D01*
X-20776Y-132842D01*
X-20710Y-133068D01*
X-20688Y-133315D01*
X-20710Y-133548D01*
X-20775Y-133764D01*
X-20885Y-133964D01*
X-21038Y-134147D01*
X-21222Y-134300D01*
X-21423Y-134410D01*
X-21642Y-134476D01*
X-21879Y-134497D01*
G37*
G36*
X42621Y-153547D02*
X42306Y-153547D01*
X42073Y-153526D01*
X41856Y-153462D01*
X41655Y-153355D01*
X41469Y-153206D01*
X41314Y-153024D01*
X41203Y-152820D01*
X41137Y-152595D01*
X41115Y-152348D01*
X41137Y-152115D01*
X41202Y-151899D01*
X41312Y-151699D01*
X41465Y-151515D01*
X41649Y-151362D01*
X41850Y-151253D01*
X42069Y-151187D01*
X42306Y-151165D01*
X42621Y-151165D01*
X42854Y-151186D01*
X43071Y-151251D01*
X43272Y-151357D01*
X43458Y-151507D01*
X43613Y-151688D01*
X43724Y-151892D01*
X43790Y-152118D01*
X43812Y-152365D01*
X43790Y-152598D01*
X43725Y-152814D01*
X43615Y-153014D01*
X43462Y-153197D01*
X43278Y-153350D01*
X43077Y-153460D01*
X42858Y-153526D01*
X42621Y-153547D01*
G37*
G36*
X-21879Y-159013D02*
X-22194Y-159013D01*
X-22427Y-158991D01*
X-22644Y-158927D01*
X-22845Y-158821D01*
X-23031Y-158671D01*
X-23186Y-158490D01*
X-23297Y-158288D01*
X-23363Y-158065D01*
X-23385Y-157822D01*
X-23363Y-157585D01*
X-23298Y-157367D01*
X-23188Y-157167D01*
X-23035Y-156985D01*
X-22851Y-156834D01*
X-22650Y-156726D01*
X-22431Y-156661D01*
X-22194Y-156639D01*
X-21879Y-156639D01*
X-21646Y-156661D01*
X-21429Y-156725D01*
X-21228Y-156831D01*
X-21042Y-156981D01*
X-20887Y-157162D01*
X-20776Y-157364D01*
X-20710Y-157587D01*
X-20688Y-157830D01*
X-20710Y-158067D01*
X-20775Y-158285D01*
X-20885Y-158485D01*
X-21038Y-158667D01*
X-21222Y-158818D01*
X-21423Y-158926D01*
X-21642Y-158991D01*
X-21879Y-159013D01*
G37*
G36*
X-21879Y-139963D02*
X-22194Y-139963D01*
X-22427Y-139941D01*
X-22644Y-139877D01*
X-22845Y-139771D01*
X-23031Y-139621D01*
X-23186Y-139440D01*
X-23297Y-139238D01*
X-23363Y-139015D01*
X-23385Y-138772D01*
X-23363Y-138535D01*
X-23298Y-138317D01*
X-23188Y-138117D01*
X-23035Y-137935D01*
X-22851Y-137784D01*
X-22650Y-137676D01*
X-22431Y-137611D01*
X-22194Y-137589D01*
X-21879Y-137589D01*
X-21646Y-137611D01*
X-21429Y-137675D01*
X-21228Y-137781D01*
X-21042Y-137931D01*
X-20887Y-138112D01*
X-20776Y-138314D01*
X-20710Y-138537D01*
X-20688Y-138780D01*
X-20710Y-139017D01*
X-20775Y-139235D01*
X-20885Y-139435D01*
X-21038Y-139617D01*
X-21222Y-139768D01*
X-21423Y-139876D01*
X-21642Y-139941D01*
X-21879Y-139963D01*
G37*
G36*
X42621Y-159013D02*
X42306Y-159013D01*
X42073Y-158991D01*
X41856Y-158927D01*
X41655Y-158821D01*
X41469Y-158671D01*
X41314Y-158490D01*
X41203Y-158288D01*
X41137Y-158065D01*
X41115Y-157822D01*
X41137Y-157585D01*
X41202Y-157367D01*
X41312Y-157167D01*
X41465Y-156985D01*
X41649Y-156834D01*
X41850Y-156726D01*
X42069Y-156661D01*
X42306Y-156639D01*
X42621Y-156639D01*
X42854Y-156661D01*
X43071Y-156725D01*
X43272Y-156831D01*
X43458Y-156981D01*
X43613Y-157162D01*
X43724Y-157364D01*
X43790Y-157587D01*
X43812Y-157830D01*
X43790Y-158067D01*
X43725Y-158285D01*
X43615Y-158485D01*
X43462Y-158667D01*
X43278Y-158818D01*
X43077Y-158926D01*
X42858Y-158991D01*
X42621Y-159013D01*
G37*
G36*
X190Y-149291D02*
X-896Y-149291D01*
X-896Y-147390D01*
X190Y-147390D01*
X190Y-149291D01*
G37*
G36*
X18574Y-218605D02*
X17453Y-218953D01*
X16250Y-219075D01*
X18574Y-218605D01*
G37*
G36*
X16250Y-219075D02*
X19589Y-218054D01*
X18574Y-218605D01*
X16250Y-219075D01*
G37*
G36*
X4774Y-195648D02*
X4774Y-194877D01*
X6493Y-197368D01*
X4774Y-195648D01*
G37*
G36*
X6879Y-181978D02*
X6493Y-182364D01*
X4774Y-180644D01*
X6879Y-181978D01*
G37*
G36*
X-19127Y-208161D02*
X-18741Y-208547D01*
X-20847Y-209881D01*
X-19127Y-208161D01*
G37*
G36*
X-20847Y-195648D02*
X-20461Y-195263D01*
X-18741Y-196982D01*
X-20847Y-195648D01*
G37*
G36*
X-7949Y-193543D02*
X-5843Y-194877D01*
X-6229Y-195263D01*
X-7949Y-193543D01*
G37*
G36*
X-7563Y-182364D02*
X-7949Y-181978D01*
X-6229Y-180258D01*
X-7563Y-182364D01*
G37*
G36*
X4774Y-195648D02*
X3054Y-193157D01*
X4774Y-194877D01*
X4774Y-195648D01*
G37*
G36*
X6879Y-181978D02*
X4774Y-180644D01*
X5159Y-180258D01*
X6879Y-181978D01*
G37*
G36*
X-7563Y-182364D02*
X-6229Y-180258D01*
X-5843Y-180644D01*
X-7563Y-182364D01*
G37*
G36*
X-20847Y-209881D02*
X-18741Y-208547D01*
X-20461Y-210267D01*
X-20847Y-209881D01*
G37*
G36*
X-19127Y-197368D02*
X-20847Y-195648D01*
X-18741Y-196982D01*
X-19127Y-197368D01*
G37*
G36*
X-7949Y-193543D02*
X-7563Y-193157D01*
X-5843Y-194877D01*
X-7949Y-193543D01*
G37*
G36*
X16250Y-219075D02*
X20474Y-217324D01*
X19589Y-218054D01*
X16250Y-219075D01*
G37*
G36*
X21204Y-216439D02*
X20474Y-217324D01*
X16250Y-219075D01*
X21204Y-216439D01*
G37*
G36*
X-20847Y-209881D02*
X-20461Y-210267D01*
X-25400Y-213100D01*
X-20847Y-209881D01*
G37*
G36*
X16250Y-219075D02*
X21755Y-215424D01*
X21204Y-216439D01*
X16250Y-219075D01*
G37*
G36*
X4774Y-180644D02*
X-5843Y-180644D01*
X5159Y-180258D01*
X4774Y-180644D01*
G37*
G36*
X-19127Y-197368D02*
X-18741Y-196982D01*
X-19127Y-208161D01*
X-19127Y-197368D01*
G37*
G36*
X17672Y-181978D02*
X6493Y-182364D01*
X6879Y-181978D01*
X17672Y-181978D01*
G37*
G36*
X-18741Y-193543D02*
X-7563Y-193157D01*
X-7949Y-193543D01*
X-18741Y-193543D01*
G37*
G36*
X-6229Y-195263D02*
X-5843Y-194877D01*
X3054Y-197368D01*
X-6229Y-195263D01*
G37*
G36*
X5159Y-180258D02*
X-5843Y-180644D01*
X-6229Y-180258D01*
X5159Y-180258D01*
G37*
G36*
X16250Y-219075D02*
X22103Y-214303D01*
X21755Y-215424D01*
X16250Y-219075D01*
G37*
G36*
X22225Y-177425D02*
X17672Y-178539D01*
X22103Y-176222D01*
X22225Y-177425D01*
G37*
G36*
X22103Y-176222D02*
X17672Y-178539D01*
X21755Y-175101D01*
X22103Y-176222D01*
G37*
G36*
X21755Y-175101D02*
X17672Y-178539D01*
X21204Y-174086D01*
X21755Y-175101D01*
G37*
G36*
X-25400Y-213100D02*
X-20461Y-210267D01*
X-25278Y-214303D01*
X-25400Y-213100D01*
G37*
G36*
X-20461Y-180258D02*
X-25400Y-177425D01*
X-25278Y-176222D01*
X-20461Y-180258D01*
G37*
G36*
X21204Y-174086D02*
X17672Y-178539D01*
X20474Y-173202D01*
X21204Y-174086D01*
G37*
G36*
X22225Y-213100D02*
X22103Y-214303D01*
X16250Y-219075D01*
X22225Y-213100D01*
G37*
G36*
X20474Y-173202D02*
X17672Y-178539D01*
X19589Y-172471D01*
X20474Y-173202D01*
G37*
G36*
X19589Y-172471D02*
X17672Y-178539D01*
X18574Y-171920D01*
X19589Y-172471D01*
G37*
G36*
X6493Y-197368D02*
X4774Y-194877D01*
X6493Y-193157D01*
X6493Y-197368D01*
G37*
G36*
X3054Y-197368D02*
X3054Y-193157D01*
X4774Y-195648D01*
X3054Y-197368D01*
G37*
G36*
X17672Y-178539D02*
X17453Y-171572D01*
X18574Y-171920D01*
X17672Y-178539D01*
G37*
G36*
X-25278Y-214303D02*
X-18741Y-211986D01*
X-24930Y-215424D01*
X-25278Y-214303D01*
G37*
G36*
X-18741Y-178539D02*
X-25278Y-176222D01*
X-24930Y-175101D01*
X-18741Y-178539D01*
G37*
G36*
X-24930Y-215424D02*
X-18741Y-211986D01*
X-24379Y-216439D01*
X-24930Y-215424D01*
G37*
G36*
X-18741Y-178539D02*
X-24930Y-175101D01*
X-24379Y-174086D01*
X-18741Y-178539D01*
G37*
G36*
X-24379Y-174086D02*
X-23649Y-173202D01*
X-18741Y-178539D01*
X-24379Y-174086D01*
G37*
G36*
X-24379Y-216439D02*
X-18741Y-211986D01*
X-23649Y-217324D01*
X-24379Y-216439D01*
G37*
G36*
X-23649Y-217324D02*
X-18741Y-211986D01*
X-22764Y-218054D01*
X-23649Y-217324D01*
G37*
G36*
X-18741Y-178539D02*
X-23649Y-173202D01*
X-22764Y-172471D01*
X-18741Y-178539D01*
G37*
G36*
X17672Y-178539D02*
X16250Y-171450D01*
X17453Y-171572D01*
X17672Y-178539D01*
G37*
G36*
X-22764Y-218054D02*
X-18741Y-211986D01*
X-21749Y-218605D01*
X-22764Y-218054D01*
G37*
G36*
X-18741Y-178539D02*
X-22764Y-172471D01*
X-21749Y-171920D01*
X-18741Y-178539D01*
G37*
G36*
X-21749Y-171920D02*
X-20628Y-171572D01*
X-18741Y-178539D01*
X-21749Y-171920D01*
G37*
G36*
X-21749Y-218605D02*
X-18741Y-211986D01*
X-20628Y-218953D01*
X-21749Y-218605D01*
G37*
G36*
X-20628Y-218953D02*
X-18741Y-211986D01*
X-19425Y-219075D01*
X-20628Y-218953D01*
G37*
G36*
X-18741Y-178539D02*
X-20628Y-171572D01*
X-19425Y-171450D01*
X-18741Y-178539D01*
G37*
G36*
X-19127Y-208161D02*
X-7949Y-196982D01*
X-18741Y-208547D01*
X-19127Y-208161D01*
G37*
G36*
X-18741Y-193543D02*
X-7949Y-181978D01*
X-7563Y-182364D01*
X-18741Y-193543D01*
G37*
G36*
X-20847Y-195648D02*
X-25400Y-177425D01*
X-20461Y-195263D01*
X-20847Y-195648D01*
G37*
G36*
X22225Y-177425D02*
X19392Y-180258D01*
X17672Y-178539D01*
X22225Y-177425D01*
G37*
G36*
X3054Y-182364D02*
X-4123Y-182364D01*
X4774Y-180644D01*
X3054Y-182364D01*
G37*
G36*
X-25400Y-213100D02*
X-22567Y-208161D01*
X-20847Y-209881D01*
X-25400Y-213100D01*
G37*
G36*
X-25278Y-214303D02*
X-20461Y-210267D01*
X-18741Y-211986D01*
X-25278Y-214303D01*
G37*
G36*
X-20461Y-180258D02*
X-25278Y-176222D01*
X-18741Y-178539D01*
X-20461Y-180258D01*
G37*
G36*
X-7949Y-211986D02*
X-6229Y-210267D01*
X4774Y-209881D01*
X-7949Y-211986D01*
G37*
G36*
X4774Y-180644D02*
X-4123Y-182364D01*
X-5843Y-180644D01*
X4774Y-180644D01*
G37*
G36*
X5159Y-180258D02*
X-6229Y-180258D01*
X-7949Y-178539D01*
X5159Y-180258D01*
G37*
G36*
X-6229Y-195263D02*
X3054Y-197368D01*
X-7949Y-196982D01*
X-6229Y-195263D01*
G37*
G36*
X4774Y-209881D02*
X-6229Y-210267D01*
X3054Y-208161D01*
X4774Y-209881D01*
G37*
G36*
X-5843Y-194877D02*
X-4123Y-193157D01*
X3054Y-197368D01*
X-5843Y-194877D01*
G37*
G36*
X3054Y-208161D02*
X-6229Y-210267D01*
X-7949Y-208547D01*
X3054Y-208161D01*
G37*
G36*
X-18741Y-193543D02*
X-20461Y-180258D01*
X-18741Y-181978D01*
X-18741Y-193543D01*
G37*
G36*
X6879Y-178539D02*
X5159Y-180258D01*
X-7949Y-178539D01*
X6879Y-178539D01*
G37*
G36*
X-20461Y-195263D02*
X-20461Y-180258D01*
X-18741Y-193543D01*
X-20461Y-195263D01*
G37*
G36*
X-4123Y-193157D02*
X3054Y-193157D01*
X3054Y-197368D01*
X-4123Y-193157D01*
G37*
G36*
X-25400Y-213100D02*
X-22567Y-197368D01*
X-22567Y-208161D01*
X-25400Y-213100D01*
G37*
G36*
X16250Y-219075D02*
X4774Y-209881D01*
X6493Y-208161D01*
X16250Y-219075D01*
G37*
G36*
X-22567Y-197368D02*
X-25400Y-177425D01*
X-20847Y-195648D01*
X-22567Y-197368D01*
G37*
G36*
X6493Y-197368D02*
X6493Y-193157D01*
X17672Y-181978D01*
X6493Y-197368D01*
G37*
G36*
X17672Y-181978D02*
X19392Y-180258D01*
X22225Y-213100D01*
X17672Y-181978D01*
G37*
G36*
X-20461Y-195263D02*
X-25400Y-177425D01*
X-20461Y-180258D01*
X-20461Y-195263D01*
G37*
G36*
X-19425Y-219075D02*
X-18741Y-211986D01*
X-7949Y-211986D01*
X-19425Y-219075D01*
G37*
G36*
X-18741Y-178539D02*
X-19425Y-171450D01*
X-7949Y-178539D01*
X-18741Y-178539D01*
G37*
G36*
X6879Y-178539D02*
X16250Y-171450D01*
X17672Y-178539D01*
X6879Y-178539D01*
G37*
G36*
X-4123Y-193157D02*
X3054Y-182364D01*
X3054Y-193157D01*
X-4123Y-193157D01*
G37*
G36*
X-4123Y-182364D02*
X3054Y-182364D01*
X-4123Y-193157D01*
X-4123Y-182364D01*
G37*
G36*
X-25400Y-177425D02*
X-22567Y-197368D01*
X-25400Y-213100D01*
X-25400Y-177425D01*
G37*
G36*
X22225Y-213100D02*
X19392Y-180258D01*
X22225Y-177425D01*
X22225Y-213100D01*
G37*
G36*
X-7949Y-178539D02*
X16250Y-171450D01*
X6879Y-178539D01*
X-7949Y-178539D01*
G37*
G36*
X-7949Y-208547D02*
X3054Y-197368D01*
X3054Y-208161D01*
X-7949Y-208547D01*
G37*
G36*
X-7563Y-182364D02*
X-7563Y-193157D01*
X-18741Y-193543D01*
X-7563Y-182364D01*
G37*
G36*
X-19127Y-208161D02*
X-18741Y-196982D01*
X-7949Y-196982D01*
X-19127Y-208161D01*
G37*
G36*
X17672Y-181978D02*
X6493Y-193157D01*
X6493Y-182364D01*
X17672Y-181978D01*
G37*
G36*
X16250Y-219075D02*
X6493Y-208161D01*
X22225Y-213100D01*
X16250Y-219075D01*
G37*
G36*
X-18741Y-208547D02*
X-7949Y-196982D01*
X-7949Y-208547D01*
X-18741Y-208547D01*
G37*
G36*
X-18741Y-193543D02*
X-18741Y-181978D01*
X-7949Y-181978D01*
X-18741Y-193543D01*
G37*
G36*
X-7949Y-208547D02*
X-7949Y-196982D01*
X3054Y-197368D01*
X-7949Y-208547D01*
G37*
G36*
X16250Y-219075D02*
X-7949Y-211986D01*
X4774Y-209881D01*
X16250Y-219075D01*
G37*
G36*
X22225Y-213100D02*
X6493Y-208161D01*
X6493Y-197368D01*
X22225Y-213100D01*
G37*
G36*
X-7949Y-178539D02*
X-19425Y-171450D01*
X16250Y-171450D01*
X-7949Y-178539D01*
G37*
G36*
X-19425Y-219075D02*
X-7949Y-211986D01*
X16250Y-219075D01*
X-19425Y-219075D01*
G37*
G36*
X22225Y-213100D02*
X6493Y-197368D01*
X17672Y-181978D01*
X22225Y-213100D01*
G37*
M02*
