G04 EAGLE Gerber RS-274X export*
G75*
%MOMM*%
%FSLAX34Y34*%
%LPD*%
%INSoldermask Top*%
%IPPOS*%
%AMOC8*
5,1,8,0,0,1.08239X$1,22.5*%
G01*
G04 Define Apertures*
%ADD10C,3.454400*%
%ADD11R,1.346200X1.346200*%
%ADD12C,1.346200*%
%ADD13C,2.453200*%
%ADD14R,1.403200X1.403200*%
%ADD15C,1.403200*%
%ADD16C,2.032000*%
%ADD17C,1.422400*%
%ADD18C,2.743200*%
D10*
X76200Y-333950D03*
X76200Y-264100D03*
X-38100Y142300D03*
D11*
X18913Y239998D03*
D12*
X6313Y239998D03*
X-6287Y239998D03*
X-18887Y239998D03*
D11*
X-18913Y-240002D03*
D12*
X-6313Y-240002D03*
X6287Y-240002D03*
X18887Y-240002D03*
D13*
X-58250Y-281872D02*
X-80750Y-281872D01*
X-80750Y-344872D02*
X-58250Y-344872D01*
D14*
X-83400Y-195900D03*
D15*
X-83400Y-215900D03*
X-83400Y-235900D03*
D14*
X83400Y195900D03*
D15*
X83400Y215900D03*
X83400Y235900D03*
D16*
X-114300Y84245D03*
X-114300Y58845D03*
X-114300Y33445D03*
X-114300Y8045D03*
X-114300Y-17355D03*
X-114300Y-42755D03*
X-114300Y-68155D03*
X-114300Y-93555D03*
X114300Y84245D03*
X114300Y58845D03*
X114300Y33445D03*
X114300Y8045D03*
X114300Y-17355D03*
X114300Y-42755D03*
X114300Y-68155D03*
X114300Y-93555D03*
D17*
X76200Y-18796D02*
X76200Y-6604D01*
X50800Y-6604D02*
X50800Y-18796D01*
X-76200Y-18796D02*
X-76200Y-6604D01*
X-76200Y-82804D02*
X-76200Y-94996D01*
X25400Y-18796D02*
X25400Y-6604D01*
X0Y-6604D02*
X0Y-18796D01*
X-50800Y-18796D02*
X-50800Y-6604D01*
X-25400Y-6604D02*
X-25400Y-18796D01*
X-50800Y-82804D02*
X-50800Y-94996D01*
X-25400Y-94996D02*
X-25400Y-82804D01*
X0Y-82804D02*
X0Y-94996D01*
X25400Y-94996D02*
X25400Y-82804D01*
X50800Y-82804D02*
X50800Y-94996D01*
X76200Y-94996D02*
X76200Y-82804D01*
D14*
X-86072Y266222D03*
D15*
X-86072Y246222D03*
X-86072Y226222D03*
X-86072Y206222D03*
D18*
X31750Y44850D03*
X31750Y94850D03*
M02*
