G04 EAGLE Gerber RS-274X export*
G75*
%MOMM*%
%FSLAX34Y34*%
%LPD*%
%INSoldermask Top*%
%IPPOS*%
%AMOC8*
5,1,8,0,0,1.08239X$1,22.5*%
G01*
G04 Define Apertures*
%ADD10C,3.454400*%
%ADD11R,1.346200X1.346200*%
%ADD12C,1.346200*%
%ADD13C,2.453200*%
%ADD14R,1.403200X1.403200*%
%ADD15C,1.403200*%
%ADD16C,2.032000*%
%ADD17C,1.422400*%
D10*
X76200Y-333950D03*
X0Y142300D03*
X76200Y-264100D03*
D11*
X18913Y239998D03*
D12*
X6313Y239998D03*
X-6287Y239998D03*
X-18887Y239998D03*
D11*
X-18913Y-240002D03*
D12*
X-6313Y-240002D03*
X6287Y-240002D03*
X18887Y-240002D03*
D13*
X-58250Y-281872D02*
X-80750Y-281872D01*
X-80750Y-344872D02*
X-58250Y-344872D01*
D14*
X-83400Y-195900D03*
D15*
X-83400Y-215900D03*
X-83400Y-235900D03*
D14*
X83400Y195900D03*
D15*
X83400Y215900D03*
X83400Y235900D03*
D16*
X-114300Y84245D03*
X-114300Y58845D03*
X-114300Y33445D03*
X-114300Y8045D03*
X-114300Y-17355D03*
X-114300Y-42755D03*
X-114300Y-68155D03*
X-114300Y-93555D03*
X114300Y84245D03*
X114300Y58845D03*
X114300Y33445D03*
X114300Y8045D03*
X114300Y-17355D03*
X114300Y-42755D03*
X114300Y-68155D03*
X114300Y-93555D03*
D17*
X44196Y-76200D02*
X32004Y-76200D01*
X32004Y-50800D02*
X44196Y-50800D01*
X44196Y76200D02*
X32004Y76200D01*
X-32004Y76200D02*
X-44196Y76200D01*
X32004Y-25400D02*
X44196Y-25400D01*
X44196Y0D02*
X32004Y0D01*
X32004Y50800D02*
X44196Y50800D01*
X44196Y25400D02*
X32004Y25400D01*
X-32004Y50800D02*
X-44196Y50800D01*
X-44196Y25400D02*
X-32004Y25400D01*
X-32004Y0D02*
X-44196Y0D01*
X-44196Y-25400D02*
X-32004Y-25400D01*
X-32004Y-50800D02*
X-44196Y-50800D01*
X-44196Y-76200D02*
X-32004Y-76200D01*
D14*
X-86072Y266222D03*
D15*
X-86072Y246222D03*
X-86072Y226222D03*
X-86072Y206222D03*
M02*
