<svg version="1.1" xmlns="http://www.w3.org/2000/svg" xmlns:xlink="http://www.w3.org/1999/xlink" stroke-linecap="round" stroke-linejoin="round" stroke-width="0" fill-rule="evenodd" clip-rule="evenodd" id="_Ro4N_jhiOwwmFBQY_Qe_bottom" viewBox="-7460 -29000 14920 58000" width="14.92mm" height="58mm" class="w-100 h-100"><defs><style>._Ro4N_jhiOwwmFBQY_Qe_fr4 {color: #666666;}
._Ro4N_jhiOwwmFBQY_Qe_cu {color: #cccccc;}
._Ro4N_jhiOwwmFBQY_Qe_cf {color: #cc9933;}
._Ro4N_jhiOwwmFBQY_Qe_sm {color: #004200; opacity: 0.75;}
._Ro4N_jhiOwwmFBQY_Qe_ss {color: #ffffff;}
._Ro4N_jhiOwwmFBQY_Qe_sp {color: #999999;}
._Ro4N_jhiOwwmFBQY_Qe_out {color: #000000;}</style><mask id="jNZqW3VxWFv4j3fZNKnT_clear-1" fill="#000" stroke="#000"><g><rect x="1241.1" y="-5433.9" width="1077.3" height="896.9" fill="#fff"/><path d="M 1779.7 -5360.3 1827 -5358.6 1872.6 -5353.5 1916.3 -5344.9 1958.3 -5332.9 1998.5 -5317.4 2037 -5298.5 2073.7 -5276.2 2108.6 -5250.4 2140.6 -5222.2 2168.2 -5192.6 2191.6 -5161.6 2210.8 -5129.2 2225.7 -5095.4 2236.3 -5060.2 2242.7 -5023.5 2244.8 -4985.5 2242.6 -4945.1 2235.9 -4906.5 2224.7 -4869.9 2209.1 -4835.3 2189.1 -4802.5 2164.5 -4771.7 2135.5 -4742.7 2102.1 -4715.7 2065.8 -4691.3 2028.4 -4670.1 1989.8 -4652.2 1950.1 -4637.5 1909.2 -4626.1 1867.2 -4618 1824.1 -4613.1 1779.7 -4611.5 1735.2 -4613.1 1691.9 -4618 1649.8 -4626.1 1608.8 -4637.5 1569.1 -4652.2 1530.5 -4670.1 1493.2 -4691.3 1457 -4715.7 1423.6 -4742.7 1394.7 -4771.7 1370.3 -4802.5 1350.3 -4835.3 1334.7 -4869.9 1323.6 -4906.5 1316.9 -4945.1 1314.7 -4985.5 1316.7 -5021.1 1322.8 -5055.9 1333 -5089.7 1347.2 -5122.7 1365.5 -5154.7 1387.8 -5185.7 1414.2 -5215.9 1444.7 -5245.2 1478.4 -5272.2 1514.4 -5295.6 1552.8 -5315.4 1593.5 -5331.5 1636.6 -5344.1 1682 -5353.1 1729.7 -5358.5 1779.7 -5360.3"/></g></mask><mask id="jNZqW3VxWFv4j3fZNKnT_clear-2" fill="#000" stroke="#000"><g><rect x="1241.1" y="-5433.9" width="1077.3" height="3046.9" fill="#fff"/><path d="M 1779.7 -3210.3 1827 -3208.6 1872.6 -3203.5 1916.3 -3194.9 1958.3 -3182.9 1998.5 -3167.4 2037 -3148.5 2073.7 -3126.2 2108.6 -3100.4 2140.6 -3072.2 2168.2 -3042.6 2191.6 -3011.6 2210.8 -2979.2 2225.7 -2945.4 2236.3 -2910.2 2242.7 -2873.5 2244.8 -2835.5 2242.6 -2795.1 2235.9 -2756.5 2224.7 -2719.9 2209.1 -2685.3 2189.1 -2652.5 2164.5 -2621.7 2135.5 -2592.7 2102.1 -2565.7 2065.8 -2541.3 2028.4 -2520.1 1989.8 -2502.2 1950.1 -2487.5 1909.2 -2476.1 1867.2 -2468 1824.1 -2463.1 1779.7 -2461.5 1735.2 -2463.1 1691.9 -2468 1649.8 -2476.1 1608.8 -2487.5 1569.1 -2502.2 1530.5 -2520.1 1493.2 -2541.3 1457 -2565.7 1423.6 -2592.7 1394.7 -2621.7 1370.3 -2652.5 1350.3 -2685.3 1334.7 -2719.9 1323.6 -2756.5 1316.9 -2795.1 1314.7 -2835.5 1316.7 -2871.1 1322.8 -2905.9 1333 -2939.7 1347.2 -2972.7 1365.5 -3004.7 1387.8 -3035.7 1414.2 -3065.9 1444.7 -3095.2 1478.4 -3122.2 1514.4 -3145.6 1552.8 -3165.4 1593.5 -3181.5 1636.6 -3194.1 1682 -3203.1 1729.7 -3208.5 1779.7 -3210.3"/></g></mask><mask id="jNZqW3VxWFv4j3fZNKnT_clear-3" fill="#000" stroke="#000"><g><rect x="1241.1" y="-8673.8" width="1077.3" height="6286.8" fill="#fff"/><path d="M 1764.9 -8452.2 1764.9 -8187.7 1763.2 -8130.1 1758.1 -8079.1 1749.6 -8034.6 1737.7 -7996.8 1722.5 -7964.1 1704.2 -7935.1 1682.7 -7910 1658 -7888.6 1631.5 -7871.5 1604.6 -7859.4 1577.2 -7852.1 1549.4 -7849.6 1524.7 -7851.3 1500.3 -7856.4 1476.5 -7864.9 1453.1 -7876.8 1430.8 -7891.9 1410.4 -7910.3 1391.8 -7931.8 1375.1 -7956.5 1361.3 -7983.9 1351.5 -8013.6 1345.5 -8045.7 1343.6 -8080 1343.6 -8452.2 1764.9 -8452.2"/><path d="M 2221.2 -8452.2 2221.2 -8160.6 2220.3 -8135.1 2217.5 -8110.9 2213 -8087.9 2206.6 -8066.2 2198.4 -8045.7 2188.4 -8026.4 2176.6 -8008.3 2162.9 -7991.5 2148.2 -7976.3 2133.1 -7963.2 2117.7 -7952 2102 -7942.9 2085.9 -7935.8 2069.4 -7930.8 2052.6 -7927.7 2035.5 -7926.7 2011.5 -7928.6 1987.8 -7934.1 1964.2 -7943.5 1940.9 -7956.5 1919.1 -7972.8 1900 -7992.2 1883.6 -8014.4 1870 -8039.7 1856.5 -8075.2 1847 -8112.4 1841.2 -8151.4 1839.3 -8192.1 1839.3 -8452.2 2221.2 -8452.2"/></g></mask><mask id="jNZqW3VxWFv4j3fZNKnT_clear-4" fill="#000" stroke="#000"><g><rect x="-661.3" y="-8673.8" width="2979.7" height="6286.8" fill="#fff"/><path d="M -4.4 -4175.9 37 -4174.8 77.1 -4171.5 115.8 -4166 153.3 -4158.3 189.4 -4148.5 224.2 -4136.4 257.7 -4122.2 289.9 -4105.8 319.5 -4087.4 345.1 -4067.4 366.8 -4045.7 384.5 -4022.4 398.3 -3997.3 408.1 -3970.6 414.1 -3942.3 416 -3912.2 414.1 -3881.9 408.4 -3853.1 398.8 -3825.8 385.4 -3800.1 373.9 -3783.4 361.3 -3768.4 347.6 -3755 332.8 -3743.2 303.8 -3725.3 270.3 -3708.3 232.2 -3692.2 189.6 -3677.1 143.8 -3664.2 96.2 -3655.1 46.8 -3649.6 -4.4 -3647.7 -166.4 -3647.7 -207.8 -3648.8 -247.9 -3652.1 -286.7 -3657.6 -324.2 -3665.2 -360.4 -3675.1 -395.3 -3687.1 -428.9 -3701.4 -461.1 -3717.8 -490.8 -3736.1 -516.5 -3756.1 -538.3 -3777.7 -556.1 -3801 -569.9 -3825.9 -579.8 -3852.5 -585.7 -3880.6 -587.7 -3910.5 -585.7 -3941.2 -579.8 -3970.3 -570 -3997.7 -556.2 -4023.5 -544.7 -4040.1 -532.3 -4055 -518.9 -4068.1 -504.5 -4079.5 -475.5 -4097.8 -441.9 -4115.1 -403.7 -4131.3 -360.9 -4146.5 -314.9 -4159.4 -267.1 -4168.5 -217.7 -4174 -166.4 -4175.9 -4.4 -4175.9"/></g></mask><mask id="jNZqW3VxWFv4j3fZNKnT_clear-5" fill="#000" stroke="#000"><g><rect x="-661.3" y="-8673.8" width="2979.7" height="10474.7" fill="#fff"/><path d="M -4.4 1199.1 37 1200.2 77.1 1203.5 115.8 1209 153.3 1216.7 189.4 1226.5 224.2 1238.6 257.7 1252.8 289.9 1269.2 319.5 1287.6 345.1 1307.6 366.8 1329.3 384.5 1352.6 398.3 1377.7 408.1 1404.4 414.1 1432.7 416 1462.8 414.1 1493.1 408.4 1521.9 398.8 1549.2 385.4 1574.9 373.9 1591.6 361.3 1606.6 347.6 1620 332.8 1631.8 303.8 1649.7 270.3 1666.7 232.2 1682.8 189.6 1697.9 143.8 1710.8 96.2 1719.9 46.8 1725.4 -4.4 1727.3 -166.4 1727.3 -207.8 1726.2 -247.9 1722.9 -286.7 1717.4 -324.2 1709.8 -360.4 1699.9 -395.3 1687.9 -428.9 1673.6 -461.1 1657.2 -490.8 1638.9 -516.5 1618.9 -538.3 1597.3 -556.1 1574 -569.9 1549.1 -579.8 1522.6 -585.7 1494.4 -587.7 1464.5 -585.7 1433.8 -579.8 1404.7 -570 1377.3 -556.2 1351.5 -544.7 1334.9 -532.3 1320 -518.9 1306.9 -504.5 1295.5 -475.5 1277.2 -441.9 1259.9 -403.7 1243.7 -360.9 1228.5 -314.9 1215.6 -267.1 1206.5 -217.7 1201 -166.4 1199.1 -4.4 1199.1"/></g></mask><mask id="jNZqW3VxWFv4j3fZNKnT_clear-6" fill="#000" stroke="#000"><g><rect x="-661.3" y="-8673.8" width="2979.7" height="13699.7" fill="#fff"/><path d="M -4.4 4424.1 37 4425.2 77.1 4428.5 115.8 4434 153.3 4441.7 189.4 4451.5 224.2 4463.6 257.7 4477.8 289.9 4494.2 319.5 4512.6 345.1 4532.6 366.8 4554.3 384.5 4577.6 398.3 4602.7 408.1 4629.4 414.1 4657.7 416 4687.8 414.1 4718.1 408.4 4746.9 398.8 4774.2 385.4 4799.9 373.9 4816.6 361.3 4831.6 347.6 4845 332.8 4856.8 303.8 4874.7 270.3 4891.7 232.2 4907.8 189.6 4922.9 143.8 4935.8 96.2 4944.9 46.8 4950.4 -4.4 4952.3 -166.4 4952.3 -207.8 4951.2 -247.9 4947.9 -286.7 4942.4 -324.2 4934.8 -360.4 4924.9 -395.3 4912.9 -428.9 4898.6 -461.1 4882.2 -490.8 4863.9 -516.5 4843.9 -538.3 4822.3 -556.1 4799 -569.9 4774.1 -579.8 4747.6 -585.7 4719.4 -587.7 4689.5 -585.7 4658.8 -579.8 4629.7 -570 4602.3 -556.2 4576.5 -544.7 4559.9 -532.3 4545 -518.9 4531.9 -504.5 4520.5 -475.5 4502.2 -441.9 4484.9 -403.7 4468.7 -360.9 4453.5 -314.9 4440.6 -267.1 4431.5 -217.7 4426 -166.4 4424.1 -4.4 4424.1"/></g></mask><mask id="jNZqW3VxWFv4j3fZNKnT_clear-7" fill="#000" stroke="#000"><g><rect x="-2568.9" y="-8673.8" width="4887.3" height="13699.7" fill="#fff"/><path d="M -2162.5 -2038.1 -2128.4 -2036.6 -2095.5 -2032.2 -2064 -2024.7 -2033.9 -2014.3 -2005 -2000.8 -1977.5 -1984.4 -1951.3 -1965 -1926.5 -1942.7 -1903.8 -1918.3 -1884.1 -1892.9 -1867.5 -1866.5 -1853.9 -1839.1 -1843.3 -1810.7 -1835.7 -1781.2 -1831.2 -1750.8 -1829.7 -1719.3 -1830.9 -1693.9 -1831.2 -1687.8 -1835.7 -1657.4 -1843.3 -1628 -1853.9 -1599.5 -1867.5 -1572.1 -1884.1 -1545.7 -1903.8 -1520.3 -1926.5 -1496 -1951.3 -1473.6 -1977.5 -1454.2 -2005 -1437.8 -2033.9 -1424.4 -2064 -1413.9 -2095.5 -1406.5 -2128.4 -1402 -2162.5 -1400.5 -2196.7 -1402 -2229.5 -1406.5 -2261 -1413.9 -2291.2 -1424.4 -2320 -1437.8 -2347.5 -1454.2 -2373.7 -1473.6 -2398.6 -1496 -2421.2 -1520.3 -2440.9 -1545.7 -2457.5 -1572.1 -2471.1 -1599.5 -2481.7 -1628 -2489.3 -1657.4 -2493.8 -1687.8 -2495.3 -1719.3 -2493.8 -1750.8 -2489.3 -1781.2 -2481.7 -1810.7 -2471.1 -1839.1 -2457.5 -1866.5 -2440.9 -1892.9 -2421.2 -1918.3 -2398.6 -1942.7 -2373.7 -1965 -2347.5 -1984.4 -2320 -2000.8 -2291.2 -2014.3 -2261 -2024.7 -2229.5 -2032.2 -2196.7 -2036.6 -2162.5 -2038.1"/></g></mask><mask id="jNZqW3VxWFv4j3fZNKnT_clear-8" fill="#000" stroke="#000"><g><rect x="-2878.1" y="-8673.8" width="5196.5" height="13699.7" fill="#fff"/><path d="M -2138 -7414 -2107 -7412.5 -2077.1 -7408.2 -2048.3 -7400.9 -2020.6 -7390.8 -1994 -7377.7 -1968.5 -7361.8 -1944.1 -7342.9 -1920.8 -7321.2 -1899.4 -7297.3 -1880.9 -7272.2 -1870.6 -7254.7 -1865.3 -7245.7 -1852.5 -7218 -1842.5 -7189 -1835.4 -7158.7 -1831.1 -7127.2 -1829.7 -7094.3 -1831.1 -7061.7 -1835.4 -7030.3 -1842.4 -7000.2 -1852.3 -6971.4 -1865.1 -6943.8 -1880.7 -6917.5 -1899.1 -6892.5 -1920.3 -6868.8 -1943.6 -6847.1 -1967.9 -6828.4 -1993.4 -6812.5 -2020.1 -6799.5 -2047.8 -6789.4 -2076.8 -6782.2 -2106.8 -6777.8 -2138 -6776.4 -2169.4 -6777.8 -2199.6 -6782.2 -2228.7 -6789.4 -2256.6 -6799.6 -2283.3 -6812.6 -2308.9 -6828.6 -2333.3 -6847.5 -2356.5 -6869.2 -2377.8 -6893 -2396.2 -6918.1 -2411.8 -6944.4 -2424.5 -6971.9 -2434.4 -7000.7 -2441.5 -7030.6 -2445.7 -7061.9 -2447.2 -7094.3 -2445.7 -7127.2 -2441.5 -7158.7 -2434.4 -7189 -2424.4 -7218 -2411.6 -7245.7 -2395.9 -7272.2 -2377.4 -7297.3 -2356.1 -7321.2 -2332.7 -7342.9 -2308.3 -7361.8 -2282.7 -7377.7 -2256 -7390.8 -2228.2 -7400.9 -2199.2 -7408.2 -2169.2 -7412.5 -2138 -7414"/></g></mask><mask id="jNZqW3VxWFv4j3fZNKnT_clear-9" fill="#000" stroke="#000"><g><rect x="-2878.1" y="-10743.2" width="5196.5" height="15769.1" fill="#fff"/><path d="M 2221.2 -10521.6 2221.2 -10259.8 2220.1 -10231.9 2216.9 -10205.3 2211.4 -10179.9 2203.9 -10155.7 2194.1 -10132.8 2182.3 -10111.1 2168.2 -10090.7 2152 -10071.4 2134.4 -10054 2116.3 -10038.9 2097.6 -10026.1 2078.4 -10015.6 2058.7 -10007.5 2038.3 -10001.7 2017.5 -9998.2 1996.1 -9997 1969 -9999 1942.2 -10005.2 1915.6 -10015.5 1889.2 -10029.8 1864 -10048.7 1840.7 -10072.3 1819.5 -10100.8 1800.3 -10134.1 1784.4 -10170.4 1773.1 -10208 1766.3 -10246.8 1764 -10286.9 1764 -10521.6 2221.2 -10521.6"/></g></mask><mask id="jNZqW3VxWFv4j3fZNKnT_clear-10" fill="#000" stroke="#000"><g><rect x="-2878.1" y="-10743.2" width="5196.5" height="15769.1" fill="#fff"/><path d="M -291.7 -1964.6 -234.2 -1932.5 -186.3 -1902.1 -148 -1873.4 -119.1 -1846.3 -102.1 -1826.5 -87.3 -1806.5 -74.8 -1786.3 -64.6 -1766 -56.7 -1745.4 -51 -1724.6 -47.6 -1703.7 -46.4 -1682.5 -47.6 -1660.7 -51.1 -1639.4 -57 -1618.8 -65.3 -1598.7 -75.9 -1579.1 -88.8 -1560.2 -104.1 -1541.8 -121.8 -1524 -141.2 -1507.6 -161.9 -1493.3 -183.8 -1481.3 -206.9 -1471.4 -231.3 -1463.8 -256.9 -1458.3 -283.7 -1455 -311.8 -1453.9 -341.7 -1455 -370.2 -1458.3 -397.3 -1463.7 -422.9 -1471.3 -447.1 -1481.1 -469.9 -1493.1 -491.2 -1507.2 -511.1 -1523.6 -529 -1541.4 -544.6 -1560.2 -557.8 -1579.8 -568.5 -1600.3 -576.9 -1621.7 -582.9 -1644 -586.5 -1667.2 -587.7 -1691.3 -586.6 -1715.2 -583.4 -1738.3 -578.1 -1760.6 -570.6 -1782 -561 -1802.7 -549.3 -1822.6 -535.4 -1841.6 -519.4 -1859.9 -500.9 -1877.1 -479.5 -1893.2 -455.3 -1908.1 -428.3 -1921.7 -398.4 -1934.2 -365.7 -1945.5 -330.1 -1955.6 -291.7 -1964.6"/></g></mask><mask id="jNZqW3VxWFv4j3fZNKnT_clear-11" fill="#000" stroke="#000"><g><rect x="-2878.1" y="-10743.2" width="5196.5" height="18107.4" fill="#fff"/><path d="M -219 6624.9 316.2 6822 316.2 6849.2 -219 7052.4 -219 6624.9"/></g></mask><mask id="jNZqW3VxWFv4j3fZNKnT_clear-12" fill="#000" stroke="#000"><g><rect x="-2878.1" y="-10743.2" width="5196.5" height="18107.4" fill="#fff"/><path d="M -254 -10635.5 389.7 -10263.3 389.7 -10224.7 -254 -10224.7 -254 -10635.5"/></g></mask><mask id="jNZqW3VxWFv4j3fZNKnT_clear-13" fill="#000" stroke="#000"><g><rect x="-2878.1" y="-10743.2" width="5196.5" height="18107.4" fill="#fff"/><path d="M -254 3339.5 389.7 3711.7 389.7 3750.3 -254 3750.3 -254 3339.5"/></g></mask><mask id="jNZqW3VxWFv4j3fZNKnT_clear-14" fill="#000" stroke="#000"><g><rect x="-2878.1" y="-10743.2" width="5247.3" height="18107.4" fill="#fff"/><path d="M 1651 2264.5 2294.7 2636.7 2294.7 2675.3 1651 2675.3 1651 2264.5"/></g></mask><mask id="nsL6ZTTr2jJAVudysUCA_clear-1" fill="#000" stroke="#000"><g><rect x="-6444" y="-27984" width="12888" height="55968" fill="#fff"/><path d="M -792.9 23174.7 -704.9 23174.7 -704.9 24825.7 -792.9 24825.7 -1096.3 24700 -1276.7 24519.7 -1299.7 24503.9 -1329.3 24497.4 -1359.1 24502.9 -1384.4 24519.7 -1478.6 24613.9 -1744.7 24724.1 -2032.7 24724.1 -2298.8 24613.9 -2502.4 24410.3 -2612.6 24144.2 -2612.6 23856.2 -2502.4 23590.1 -2298.8 23386.5 -2032.7 23276.3 -1744.7 23276.3 -1478.6 23386.5 -1384.4 23480.7 -1361.4 23496.5 -1331.8 23503 -1301.9 23497.5 -1276.7 23480.7 -1096.3 23300.4 -792.9 23174.7"/><path d="M -552.5 23174.7 -464.5 23174.7 -161.1 23300.4 19.3 23480.7 42.3 23496.5 71.9 23503 101.7 23497.5 127 23480.7 221.2 23386.5 487.3 23276.3 775.3 23276.3 1042.9 23387.1 1063.1 23401 1092.7 23407.5 1122.5 23401.9 1147.8 23385.2 1256.7 23276.3 2525.9 23276.3 2615.2 23365.6 2615.2 24634.8 2525.9 24724.1 1256.7 24724.1 1147.8 24615.2 1124.7 24599.4 1095.1 24592.9 1065.3 24598.5 1043.2 24613.1 775.3 24724.1 487.3 24724.1 221.2 24613.9 127 24519.7 104 24503.9 74.4 24497.4 44.5 24502.9 19.3 24519.7 -161.1 24700 -464.5 24825.7 -552.5 24825.7 -552.5 23174.7"/><path d="M -2173.4 13653 -1616.6 13096.2 -1059.8 13653 -1127.4 13720.6 -1444.8 13852 -1788.4 13852 -2105.8 13720.6 -2173.4 13653"/><path d="M -2348.7 12499.2 -2281.1 12431.7 -1724.3 12988.4 -2281.1 13545.2 -2348.7 13477.6 -2480.2 13160.2 -2480.2 12816.6 -2348.7 12499.2"/><path d="M -1508.8 12988.4 -952 12431.7 -884.4 12499.2 -753 12816.6 -753 13160.2 -884.4 13477.6 -952 13545.2 -1508.8 12988.4"/><path d="M -1788.4 12124.8 -1444.8 12124.8 -1127.4 12256.3 -1059.8 12323.9 -1616.6 12880.7 -2173.4 12323.9 -2105.8 12256.3 -1788.4 12124.8"/><path d="M -3182.4 10812.2 -2879.2 10812.2 -2599.1 10928.2 -2384.8 11142.6 -2268.8 11422.6 -2268.8 11725.8 -2384.8 12005.9 -2599.1 12220.2 -2879.2 12336.2 -3182.4 12336.2 -3462.4 12220.2 -3676.8 12005.9 -3792.8 11725.8 -3792.8 11422.6 -3676.8 11142.6 -3462.4 10928.2 -3182.4 10812.2"/><path d="M -4596.6 9398 -4293.4 9398 -4013.4 9514 -3799 9728.4 -3683 10008.4 -3683 10311.6 -3799 10591.6 -4013.4 10806 -4293.4 10922 -4596.6 10922 -4876.6 10806 -5091 10591.6 -5207 10311.6 -5207 10008.4 -5091 9728.4 -4876.6 9514 -4596.6 9398"/><path d="M 4293.4 -10922 4596.6 -10922 4876.6 -10806 5091 -10591.6 5207 -10311.6 5207 -10008.4 5091 -9728.4 4876.6 -9514 4596.6 -9398 4293.4 -9398 4013.4 -9514 3799 -9728.4 3683 -10008.4 3683 -10311.6 3799 -10591.6 4013.4 -10806 4293.4 -10922"/><path d="M 2879.2 -12336.2 3182.4 -12336.2 3462.4 -12220.2 3676.8 -12005.9 3792.8 -11725.8 3792.8 -11422.6 3676.8 -11142.6 3462.4 -10928.2 3182.4 -10812.2 2879.2 -10812.2 2599.1 -10928.2 2384.8 -11142.6 2268.8 -11422.6 2268.8 -11725.8 2384.8 -12005.9 2599.1 -12220.2 2879.2 -12336.2"/><path d="M 1059.8 -12323.9 1616.6 -12880.7 2173.4 -12323.9 2105.8 -12256.3 1788.4 -12124.8 1444.8 -12124.8 1127.4 -12256.3 1059.8 -12323.9"/><path d="M 884.4 -13477.6 952 -13545.2 1508.8 -12988.4 952 -12431.7 884.4 -12499.2 753 -12816.6 753 -13160.2 884.4 -13477.6"/><path d="M 1724.3 -12988.4 2281.1 -13545.2 2348.7 -13477.6 2480.2 -13160.2 2480.2 -12816.6 2348.7 -12499.2 2281.1 -12431.7 1724.3 -12988.4"/><path d="M 1444.8 -13852 1788.4 -13852 2105.8 -13720.6 2173.4 -13653 1616.6 -13096.2 1059.8 -13653 1127.4 -13720.6 1444.8 -13852"/><path d="M -792.9 -24825.7 -704.9 -24825.7 -704.9 -23174.7 -792.9 -23174.7 -1096.3 -23300.4 -1276.7 -23480.7 -1299.7 -23496.5 -1329.3 -23503 -1359.1 -23497.5 -1384.4 -23480.7 -1478.6 -23386.5 -1744.7 -23276.3 -2032.7 -23276.3 -2298.8 -23386.5 -2502.4 -23590.1 -2612.6 -23856.2 -2612.6 -24144.2 -2502.4 -24410.3 -2298.8 -24613.9 -2032.7 -24724.1 -1744.7 -24724.1 -1478.6 -24613.9 -1384.4 -24519.7 -1361.4 -24503.9 -1331.8 -24497.4 -1301.9 -24502.9 -1276.7 -24519.7 -1096.3 -24700 -792.9 -24825.7"/><path d="M -552.5 -24825.7 -464.5 -24825.7 -161.1 -24700 19.3 -24519.7 42.3 -24503.9 71.9 -24497.4 101.7 -24502.9 127 -24519.7 221.2 -24613.9 487.3 -24724.1 775.3 -24724.1 1042.9 -24613.3 1063.1 -24599.4 1092.7 -24592.9 1122.5 -24598.5 1147.8 -24615.2 1256.7 -24724.1 2525.9 -24724.1 2615.2 -24634.8 2615.2 -23365.6 2525.9 -23276.3 1256.7 -23276.3 1147.8 -23385.2 1124.7 -23401 1095.1 -23407.5 1065.3 -23401.9 1043.2 -23387.3 775.3 -23276.3 487.3 -23276.3 221.2 -23386.5 127 -23480.7 104 -23496.5 74.4 -23503 44.5 -23497.5 19.3 -23480.7 -161.1 -23300.4 -464.5 -23174.7 -552.5 -23174.7 -552.5 -24825.7"/></g></mask><circle cx="0" cy="0" r="609.6" id="nsL6ZTTr2jJAVudysUCA_pad-10"/><rect x="-571.5" y="-571.5" width="1143" height="1143" id="nsL6ZTTr2jJAVudysUCA_pad-11"/><circle cx="0" cy="0" r="571.5" id="nsL6ZTTr2jJAVudysUCA_pad-12"/><circle cx="0" cy="0" r="1727.2" id="v57nAeY_AtnJ6rvQS93Y_pad-10"/><circle cx="0" cy="0" r="711.2" id="v57nAeY_AtnJ6rvQS93Y_pad-11"/><rect x="-673.1" y="-673.1" width="1346.2" height="1346.2" id="v57nAeY_AtnJ6rvQS93Y_pad-12"/><circle cx="0" cy="0" r="673.1" id="v57nAeY_AtnJ6rvQS93Y_pad-13"/><circle cx="0" cy="0" r="1625.5" id="neKOnocFfTkrpv2nq6Oy_pad-1"/><circle cx="0" cy="0" r="381" id="neKOnocFfTkrpv2nq6Oy_pad-2"/><circle cx="0" cy="0" r="355.5" id="neKOnocFfTkrpv2nq6Oy_pad-3"/><g id="_Ro4N_jhiOwwmFBQY_Qe_bottom_silkscreen"><g mask="url(#jNZqW3VxWFv4j3fZNKnT_clear-14)"><g mask="url(#jNZqW3VxWFv4j3fZNKnT_clear-13)"><g mask="url(#jNZqW3VxWFv4j3fZNKnT_clear-12)"><g mask="url(#jNZqW3VxWFv4j3fZNKnT_clear-11)"><g mask="url(#jNZqW3VxWFv4j3fZNKnT_clear-10)"><g mask="url(#jNZqW3VxWFv4j3fZNKnT_clear-9)"><g mask="url(#jNZqW3VxWFv4j3fZNKnT_clear-8)"><g mask="url(#jNZqW3VxWFv4j3fZNKnT_clear-7)"><g mask="url(#jNZqW3VxWFv4j3fZNKnT_clear-6)"><g mask="url(#jNZqW3VxWFv4j3fZNKnT_clear-5)"><g mask="url(#jNZqW3VxWFv4j3fZNKnT_clear-4)"><g mask="url(#jNZqW3VxWFv4j3fZNKnT_clear-3)"><g mask="url(#jNZqW3VxWFv4j3fZNKnT_clear-2)"><g mask="url(#jNZqW3VxWFv4j3fZNKnT_clear-1)"><path d="M 1779.7 -5433.9 1722 -5431.8 1666.8 -5425.5 1614.4 -5414.9 1564.6 -5400.1 1517.5 -5381.1 1473.1 -5357.8 1431.3 -5330.3 1392.2 -5298.6 1356.8 -5264.1 1326.1 -5228.3 1300.1 -5191.1 1278.9 -5152.7 1262.3 -5112.9 1250.5 -5071.7 1243.5 -5029.3 1241.1 -4985.5 1242.2 -4955.7 1245.5 -4926.4 1251 -4897.6 1258.6 -4869.3 1268.5 -4841.5 1280.5 -4814.1 1294.7 -4787.2 1311.2 -4760.8 1329.6 -4735.4 1349.7 -4711.3 1371.5 -4688.7 1395.1 -4667.4 1420.5 -4647.6 1447.6 -4629.2 1476.4 -4612.2 1506.9 -4596.6 1538.7 -4582.6 1571.1 -4570.5 1604.2 -4560.3 1638 -4551.9 1672.4 -4545.4 1707.5 -4540.8 1743.3 -4538 1779.7 -4537 1816.4 -4538 1852.3 -4540.8 1887.6 -4545.5 1922.1 -4552 1955.9 -4560.5 1989 -4570.8 2021.3 -4583 2053 -4597 2083.5 -4612.7 2112.2 -4629.8 2139.2 -4648.3 2164.5 -4668.1 2188 -4689.3 2209.8 -4711.9 2230 -4735.9 2248.3 -4761.3 2264.8 -4787.6 2279 -4814.4 2291 -4841.6 2300.9 -4869.4 2308.5 -4897.7 2314 -4926.5 2317.3 -4955.7 2318.4 -4985.5 2316 -5029.3 2309 -5071.7 2297.2 -5112.9 2280.7 -5152.7 2259.6 -5191.1 2233.7 -5228.3 2203.1 -5264.1 2167.8 -5298.6 2128.7 -5330.3 2087 -5357.8 2042.6 -5381.1 1995.4 -5400.1 1945.6 -5414.9 1893 -5425.5 1837.7 -5431.8 1779.7 -5433.9"/></g><path d="M 1779.7 -3283.9 1722 -3281.8 1666.8 -3275.5 1614.4 -3264.9 1564.6 -3250.1 1517.5 -3231.1 1473.1 -3207.8 1431.3 -3180.3 1392.2 -3148.6 1356.8 -3114.1 1326.1 -3078.3 1300.1 -3041.1 1278.9 -3002.7 1262.3 -2962.9 1250.5 -2921.7 1243.5 -2879.3 1241.1 -2835.5 1242.2 -2805.7 1245.5 -2776.4 1251 -2747.6 1258.6 -2719.3 1268.5 -2691.5 1280.5 -2664.1 1294.7 -2637.2 1311.2 -2610.8 1329.6 -2585.4 1349.7 -2561.3 1371.5 -2538.7 1395.1 -2517.4 1420.5 -2497.6 1447.6 -2479.2 1476.4 -2462.2 1506.9 -2446.6 1538.7 -2432.6 1571.1 -2420.5 1604.2 -2410.3 1638 -2401.9 1672.4 -2395.4 1707.5 -2390.8 1743.3 -2388 1779.7 -2387 1816.4 -2388 1852.3 -2390.8 1887.6 -2395.5 1922.1 -2402 1955.9 -2410.5 1989 -2420.8 2021.3 -2433 2053 -2447 2083.5 -2462.7 2112.2 -2479.8 2139.2 -2498.3 2164.5 -2518.1 2188 -2539.3 2209.8 -2561.9 2230 -2585.9 2248.3 -2611.3 2264.8 -2637.6 2279 -2664.4 2291 -2691.6 2300.9 -2719.4 2308.5 -2747.7 2314 -2776.5 2317.3 -2805.7 2318.4 -2835.5 2316 -2879.3 2309 -2921.7 2297.2 -2962.9 2280.7 -3002.7 2259.6 -3041.1 2233.7 -3078.3 2203.1 -3114.1 2167.8 -3148.6 2128.7 -3180.3 2087 -3207.8 2042.6 -3231.1 1995.4 -3250.1 1945.6 -3264.9 1893 -3275.5 1837.7 -3281.8 1779.7 -3283.9"/></g><path d="M 2258 -8673.8 2250.1 -8673.1 2243 -8671 2231.3 -8662.4 2226.8 -8655.8 2223.7 -8647.3 2221.8 -8637 2221.2 -8624.8 2221.2 -8525.8 1343.6 -8525.8 1343.6 -8624.8 1342.9 -8637 1341.1 -8647.3 1337.9 -8655.8 1333.5 -8662.4 1321.8 -8671 1314.7 -8673.1 1306.8 -8673.8 1299.2 -8673.1 1292.3 -8671 1280.5 -8662.4 1275.9 -8655.8 1272.6 -8647.3 1270.7 -8637 1270 -8624.8 1270 -8074.7 1270.7 -8053.7 1272.7 -8033 1276 -8012.8 1280.7 -7992.9 1294.1 -7954.4 1312.9 -7917.5 1335.5 -7883.7 1360.3 -7854.6 1387.4 -7830.1 1416.7 -7810.2 1447.9 -7794.9 1480.8 -7783.9 1515.2 -7777.4 1551.1 -7775.2 1571.5 -7776 1591.4 -7778.5 1610.9 -7782.7 1630 -7788.5 1648.6 -7796 1666.8 -7805.2 1684.5 -7816.1 1701.8 -7828.6 1718.5 -7842.9 1734.3 -7859.1 1749.2 -7877.3 1763.3 -7897.4 1776.6 -7919.3 1789 -7943.2 1811.3 -7996.8 1832.9 -7962.9 1856.1 -7933.5 1880.9 -7908.7 1907.4 -7888.4 1935.5 -7872.6 1965.2 -7861.3 1996.5 -7854.5 2029.4 -7852.3 2055.6 -7853.6 2081.1 -7857.6 2105.6 -7864.4 2129.3 -7873.8 2152.2 -7886 2174.1 -7900.8 2195.2 -7918.3 2215.5 -7938.5 2234.1 -7960.9 2250.2 -7984.9 2263.8 -8010.4 2274.9 -8037.6 2283.6 -8066.4 2289.8 -8096.8 2293.5 -8128.7 2294.7 -8162.3 2294.7 -8624.8 2294.1 -8637 2292.2 -8647.3 2289.1 -8655.8 2284.7 -8662.4 2273 -8671 2265.9 -8673.1 2258 -8673.8"/></g><path d="M 5.2 -4249.4 -176.9 -4249.4 -225.7 -4248.2 -271.3 -4244.4 -313.7 -4238.1 -353 -4229.3 -380.3 -4221.7 -409 -4211.9 -470.3 -4185.9 -525.5 -4156.9 -546.5 -4143.3 -563.2 -4130.3 -585.1 -4109.1 -604.5 -4085.8 -621.2 -4060.3 -635.4 -4032.7 -646.7 -4003.5 -654.8 -3973.4 -659.7 -3942.4 -661.3 -3910.5 -659.6 -3877.5 -654.5 -3845.9 -646 -3815.8 -634.1 -3787.2 -618.9 -3760 -600.2 -3734.3 -578.1 -3710 -552.7 -3687.1 -516.5 -3660.7 -477.3 -3637.7 -435 -3618.3 -389.5 -3602.4 -341 -3590 -289.4 -3581.2 -234.7 -3575.9 -176.9 -3574.1 5.2 -3574.1 54.4 -3575.4 100.3 -3579 142.9 -3585 182.2 -3593.4 237.6 -3611.4 298.7 -3637.2 328.5 -3651.9 354.1 -3666.1 375.4 -3679.9 392.4 -3693.3 414.3 -3714.4 433.7 -3737.7 450.4 -3763.1 464.6 -3790.5 475.9 -3819.5 484 -3849.6 488.9 -3880.8 490.5 -3913.1 488.8 -3946.1 483.7 -3977.6 475.2 -4007.7 463.3 -4036.4 448 -4063.6 429.4 -4089.3 407.3 -4113.6 381.9 -4136.4 345.7 -4162.9 306.4 -4185.9 264 -4205.3 218.5 -4221.2 169.9 -4233.5 118.1 -4242.4 63.2 -4247.7 5.2 -4249.4"/></g><path d="M 5.2 1125.6 -176.9 1125.6 -225.7 1126.8 -271.3 1130.6 -313.7 1136.9 -353 1145.7 -380.3 1153.4 -409 1163.1 -470.3 1189.1 -525.5 1218.1 -546.5 1231.7 -563.2 1244.7 -585.1 1265.9 -604.5 1289.2 -621.2 1314.7 -635.4 1342.3 -646.7 1371.5 -654.8 1401.6 -659.7 1432.6 -661.3 1464.5 -659.6 1497.5 -654.5 1529.1 -646 1559.2 -634.1 1587.8 -618.9 1615 -600.2 1640.7 -578.1 1665 -552.7 1687.9 -516.5 1714.4 -477.3 1737.3 -435 1756.7 -389.5 1772.6 -341 1785 -289.4 1793.8 -234.7 1799.1 -176.9 1800.9 5.2 1800.9 54.4 1799.7 100.3 1796 142.9 1790 182.2 1781.6 237.6 1763.6 298.7 1737.8 328.5 1723.1 354.1 1708.9 375.4 1695.1 392.4 1681.7 414.3 1660.6 433.7 1637.3 450.4 1611.9 464.6 1584.5 475.9 1555.5 484 1525.4 488.9 1494.2 490.5 1461.9 488.8 1428.9 483.7 1397.4 475.2 1367.3 463.3 1338.6 448 1311.4 429.4 1285.7 407.3 1261.4 381.9 1238.6 345.7 1212.1 306.4 1189.1 264 1169.7 218.5 1153.8 169.9 1141.5 118.1 1132.6 63.2 1127.3 5.2 1125.6"/></g><path d="M 5.2 4350.6 -176.9 4350.6 -225.7 4351.8 -271.3 4355.6 -313.7 4361.9 -353 4370.7 -380.3 4378.4 -409 4388.1 -470.3 4414.1 -525.5 4443.1 -546.5 4456.7 -563.2 4469.7 -585.1 4490.9 -604.5 4514.2 -621.2 4539.7 -635.4 4567.3 -646.7 4596.5 -654.8 4626.6 -659.7 4657.6 -661.3 4689.5 -659.6 4722.5 -654.5 4754.1 -646 4784.2 -634.1 4812.8 -618.9 4840 -600.2 4865.7 -578.1 4890 -552.7 4912.9 -516.5 4939.4 -477.3 4962.3 -435 4981.7 -389.5 4997.6 -341 5010 -289.4 5018.8 -234.7 5024.1 -176.9 5025.9 5.2 5025.9 54.4 5024.7 100.3 5021 142.9 5015 182.2 5006.6 237.6 4988.6 298.7 4962.8 328.5 4948.1 354.1 4933.9 375.4 4920.1 392.4 4906.7 414.3 4885.6 433.7 4862.3 450.4 4836.9 464.6 4809.5 475.9 4780.5 484 4750.4 488.9 4719.2 490.5 4686.9 488.8 4653.9 483.7 4622.4 475.2 4592.3 463.3 4563.6 448 4536.4 429.4 4510.7 407.3 4486.4 381.9 4463.6 345.7 4437.1 306.4 4414.1 264 4394.7 218.5 4378.8 169.9 4366.5 118.1 4357.6 63.2 4352.3 5.2 4350.6"/></g><path d="M -1477.6 -2260.6 -1485.5 -2259.9 -1492.7 -2257.7 -1504.7 -2249.2 -1509.3 -2242.6 -1512.6 -2234.1 -1514.6 -2223.7 -1515.3 -2211.5 -1515.3 -2112.6 -2466.4 -2112.6 -2466.4 -2211.5 -2467.1 -2223.7 -2468.9 -2234.1 -2472.1 -2242.6 -2476.5 -2249.2 -2488.2 -2257.7 -2495.3 -2259.9 -2503.2 -2260.6 -2510.8 -2259.9 -2517.7 -2257.7 -2529.5 -2249.2 -2534.1 -2242.6 -2537.4 -2234.1 -2539.3 -2223.7 -2540 -2211.5 -2540 -2039 -2395.5 -2039 -2436.1 -2005.8 -2471.4 -1970.6 -2501.2 -1933.4 -2525.6 -1894.3 -2544.5 -1853.1 -2558.1 -1809.9 -2562.8 -1787.6 -2566.2 -1764.7 -2568.2 -1741.4 -2568.9 -1717.6 -2567 -1678.6 -2561.5 -1640.9 -2552.2 -1604.6 -2539.1 -1569.6 -2522.4 -1536 -2501.9 -1503.7 -2477.7 -1472.7 -2449.8 -1443 -2419.2 -1415.8 -2386.9 -1392.2 -2353.1 -1372.3 -2317.5 -1355.9 -2280.4 -1343.2 -2241.6 -1334.2 -2201.1 -1328.7 -2159 -1326.9 -2117.4 -1328.7 -2077.4 -1334.1 -2039 -1343.1 -2002.3 -1355.6 -1967.3 -1371.7 -1933.9 -1391.5 -1902.2 -1414.8 -1872.2 -1441.7 -1844.8 -1471.1 -1821 -1501.9 -1800.9 -1534.2 -1784.5 -1568 -1771.7 -1603.2 -1762.5 -1639.9 -1757.1 -1678 -1755.2 -1717.6 -1755.9 -1740.9 -1757.5 -1758.8 -1757.9 -1763.8 -1761.3 -1786.2 -1766.1 -1808.3 -1779.6 -1851 -1798.6 -1892.1 -1823 -1931.4 -1852.8 -1969 -1888 -2004.9 -1928.7 -2039 -1440.8 -2039 -1440.8 -2211.5 -1441.5 -2223.7 -1443.4 -2234.1 -1446.7 -2242.6 -1451.3 -2249.2 -1463.1 -2257.7 -1470 -2259.9 -1477.6 -2260.6"/></g><path d="M -1818.3 -7635.6 -1826.2 -7634.9 -1833.4 -7632.7 -1845.5 -7624.2 -1850 -7617.6 -1853.3 -7609.1 -1855.3 -7598.7 -1856 -7586.5 -1856 -7487.6 -2804.5 -7487.6 -2804.5 -7586.5 -2805.1 -7598.7 -2807 -7609.1 -2810.2 -7617.6 -2814.6 -7624.2 -2826.3 -7632.7 -2833.4 -7634.9 -2841.3 -7635.6 -2849.2 -7634.9 -2856.3 -7632.7 -2868 -7624.2 -2872.4 -7617.6 -2875.6 -7609.1 -2877.5 -7598.7 -2878.1 -7586.5 -2878.1 -7235.3 -2877.4 -7223.1 -2875.5 -7212.8 -2872.2 -7204.3 -2867.6 -7197.7 -2855.7 -7189.1 -2848.8 -7187 -2841.3 -7186.3 -2833.4 -7187 -2826.3 -7189.1 -2814.6 -7197.7 -2810.2 -7204.3 -2807 -7212.8 -2805.1 -7223.1 -2804.5 -7235.3 -2804.5 -7414 -2361.3 -7414 -2398.9 -7382.2 -2431.5 -7348 -2459 -7311.6 -2481.5 -7272.8 -2499.1 -7231.6 -2511.6 -7188.2 -2519.1 -7142.4 -2521 -7118.7 -2521.6 -7094.3 -2519.9 -7053.7 -2514.6 -7014.8 -2505.8 -6977.5 -2493.5 -6941.8 -2477.6 -6907.7 -2458.3 -6875.3 -2435.4 -6844.5 -2409.1 -6815.4 -2380.2 -6788.8 -2349.9 -6765.7 -2318.2 -6746.2 -2285 -6730.3 -2250.4 -6717.9 -2214.4 -6709 -2176.9 -6703.7 -2138 -6701.9 -2113.2 -6702.7 -2088.6 -6705.1 -2064.4 -6709 -2040.4 -6714.5 -2016.8 -6721.6 -1993.4 -6730.3 -1947.5 -6752.3 -1925.4 -6765.5 -1904.7 -6780.1 -1885.1 -6795.9 -1866.8 -6813.1 -1849.7 -6831.5 -1833.9 -6851.2 -1819.4 -6872.3 -1806 -6894.6 -1794.1 -6917.9 -1783.8 -6941.6 -1775.1 -6965.9 -1767.9 -6990.7 -1762.4 -7016.1 -1758.4 -7041.9 -1756 -7068.3 -1755.2 -7095.2 -1755.9 -7120.4 -1757.8 -7144.7 -1760.9 -7168.2 -1765.3 -7190.9 -1777.9 -7233.6 -1795.5 -7273 -1818.1 -7310 -1830.6 -7326.2 -1845.7 -7345.9 -1878.1 -7380.6 -1915.5 -7414 -1781.5 -7414 -1781.5 -7586.5 -1782.2 -7598.7 -1784.1 -7609.1 -1787.4 -7617.6 -1792 -7624.2 -1803.8 -7632.7 -1810.7 -7634.9 -1818.3 -7635.6"/></g><path d="M 2258 -10743.2 2250.1 -10742.5 2243 -10740.4 2231.3 -10731.8 2226.8 -10725.2 2223.7 -10716.7 2221.8 -10706.4 2221.2 -10694.2 2221.2 -10595.2 1343.6 -10595.2 1343.6 -10694.2 1342.9 -10706.4 1341.1 -10716.7 1337.9 -10725.2 1333.5 -10731.8 1321.8 -10740.4 1314.7 -10742.5 1306.8 -10743.2 1299.2 -10742.5 1292.3 -10740.4 1280.5 -10731.8 1275.9 -10725.2 1272.6 -10716.7 1270.7 -10706.4 1270 -10694.2 1270 -10269.4 1270.7 -10257.2 1272.6 -10246.8 1275.9 -10238.3 1280.5 -10231.7 1292.3 -10223.2 1299.2 -10221.1 1306.8 -10220.3 1314.7 -10221.1 1321.8 -10223.2 1333.5 -10231.7 1337.9 -10238.3 1341.1 -10246.8 1342.9 -10257.2 1343.6 -10269.4 1343.6 -10521.6 1690.4 -10521.6 1690.4 -10291.3 1691.5 -10255.2 1694.6 -10222.1 1699.8 -10192.1 1707.1 -10165.2 1720.1 -10130.4 1736.4 -10096.2 1756 -10062.5 1778.9 -10029.4 1796.6 -10008.3 1817.4 -9988.8 1841.3 -9970.9 1868.2 -9954.5 1897.5 -9940.9 1928.6 -9931.2 1961.5 -9925.4 1996.1 -9923.4 2025.6 -9924.9 2054.2 -9929.4 2081.8 -9936.9 2108.4 -9947.4 2134.1 -9960.9 2158.8 -9977.4 2182.6 -9996.9 2205.4 -10019.3 2226.4 -10044.2 2244.5 -10070.8 2259.9 -10099.1 2272.4 -10129.1 2282.2 -10160.9 2289.2 -10194.5 2293.4 -10229.7 2294.7 -10266.8 2294.7 -10694.2 2294.1 -10706.4 2292.2 -10716.7 2289.1 -10725.2 2284.7 -10731.8 2273 -10740.4 2265.9 -10742.5 2258 -10743.2"/></g><path d="M -86.7 -2060 -132.2 -2059.1 -176.7 -2056.4 -220.1 -2051.8 -262.5 -2045.3 -304 -2037.1 -344.4 -2027 -383.8 -2015.1 -422.2 -2001.3 -451.6 -1989 -479.1 -1975.5 -504.6 -1960.9 -528.1 -1945.2 -549.7 -1928.4 -569.3 -1910.4 -586.9 -1891.4 -602.6 -1871.3 -616.4 -1850.4 -628.3 -1829.1 -638.4 -1807.4 -646.6 -1785.3 -653 -1762.9 -657.6 -1740 -660.4 -1716.7 -661.3 -1693 -659.6 -1657.5 -654.5 -1623.8 -645.9 -1592.2 -634 -1562.5 -618.7 -1534.8 -599.9 -1509.1 -577.8 -1485.3 -552.2 -1463.6 -524.6 -1444.1 -496.3 -1427.2 -467.3 -1412.9 -437.6 -1401.2 -407.2 -1392.1 -376.1 -1385.6 -344.3 -1381.7 -311.8 -1380.4 -276.6 -1381.8 -242.9 -1386 -210.5 -1393.2 -179.7 -1403.1 -150.2 -1415.9 -122.2 -1431.6 -95.6 -1450.1 -70.5 -1471.4 -47.6 -1494.6 -27.8 -1518.6 -11 -1543.5 2.7 -1569.1 13.4 -1595.6 21 -1622.9 25.6 -1651 27.1 -1679.9 26.4 -1701.8 24.1 -1723.1 20.4 -1744 15.1 -1764.3 8.3 -1784.1 0 -1803.5 -21 -1840.6 -48.4 -1876.5 -82.3 -1911.9 -122.8 -1946.8 -169.9 -1981.2 -116.7 -1985.1 -79.7 -1986.4 -30 -1984.3 18 -1977.7 64.2 -1966.7 108.7 -1951.3 151.5 -1931.5 192.5 -1907.4 231.8 -1878.8 269.3 -1845.9 303.7 -1810.3 333.5 -1773.7 358.7 -1736.2 379.3 -1697.7 395.4 -1658.4 406.9 -1618 413.7 -1576.7 416 -1534.5 414.9 -1508.9 411.6 -1485.5 406.2 -1464.2 398.5 -1445.2 391.9 -1430.5 389.7 -1418 392.3 -1404.4 399.8 -1393.5 411.3 -1386.3 425.7 -1383.9 436.1 -1385.2 445.4 -1389.1 453.6 -1395.7 460.7 -1404.9 473.7 -1430.9 483 -1460.1 488.6 -1492.2 490.5 -1527.5 489.8 -1554.4 487.7 -1580.8 484.3 -1606.8 479.4 -1632.3 473.2 -1657.3 465.6 -1681.8 446.2 -1729.4 422.5 -1774.6 395.7 -1816.9 365.6 -1856.2 332.4 -1892.7 296.2 -1926 257.2 -1955.8 215.4 -1982.1 170.8 -2004.8 140.7 -2017.8 110 -2029 78.7 -2038.5 46.9 -2046.2 14.4 -2052.3 -18.7 -2056.6 -52.4 -2059.2 -86.7 -2060"/></g><path d="M -598.2 6314.9 -605.8 6315.6 -612.7 6317.7 -624.5 6326.3 -629.1 6332.9 -632.4 6341.4 -634.3 6351.7 -635 6363.9 -635 6639 -634.3 6651.2 -632.4 6661.5 -629.1 6670 -624.5 6676.6 -612.7 6685.2 -605.8 6687.3 -598.2 6688 -590.3 6687.3 -583.2 6685.2 -571.5 6676.6 -567.1 6670 -563.9 6661.5 -562.1 6651.2 -561.4 6639 -561.4 6497.9 -292.5 6596.9 -292.5 7080.4 -561.4 7181.1 -561.4 7041 -562.1 7028.4 -563.9 7017.8 -567.1 7009.1 -571.5 7002.4 -583.2 6993.9 -590.3 6991.8 -598.2 6991 -605.8 6991.8 -612.7 6993.9 -624.5 7002.4 -629.1 7009.1 -632.4 7017.8 -634.3 7028.4 -635 7041 -635 7315.1 -634.3 7327.3 -632.4 7337.7 -629.1 7346.2 -624.5 7352.8 -612.7 7361.3 -605.8 7363.5 -598.2 7364.2 -590.3 7363.5 -583.2 7361.3 -571.5 7352.8 -567.1 7346.2 -563.9 7337.7 -562.1 7327.3 -561.4 7315.1 -561.4 7258.2 389.7 6899.1 389.7 6528.6 389.1 6516.4 387.2 6506 384.1 6497.6 379.7 6490.9 368 6482.4 360.9 6480.3 353 6479.6 345.1 6480.3 338 6482.4 326.3 6490.9 321.8 6497.6 318.7 6506 316.8 6516.4 316.2 6528.6 316.2 6745.8 -561.4 6420.9 -561.4 6363.9 -562.1 6351.7 -563.9 6341.4 -567.1 6332.9 -571.5 6326.3 -583.2 6317.7 -590.3 6315.6 -598.2 6314.9"/></g><path d="M -242.6 -10712.6 -327.6 -10712.6 -327.6 -10224.7 -561.4 -10224.7 -561.4 -10362.2 -562.1 -10374.8 -563.9 -10385.4 -567.1 -10394.1 -571.5 -10400.8 -583.2 -10409.3 -590.3 -10411.4 -598.2 -10412.2 -605.8 -10411.4 -612.7 -10409.3 -624.5 -10400.8 -629.1 -10394.1 -632.4 -10385.4 -634.3 -10374.8 -635 -10362.2 -635 -10089 -634.3 -10076.4 -632.4 -10065.8 -629.1 -10057.1 -624.5 -10050.4 -612.7 -10041.9 -605.8 -10039.7 -598.2 -10039 -590.3 -10039.7 -583.2 -10041.9 -571.5 -10050.4 -567.1 -10057.1 -563.9 -10065.8 -562.1 -10076.4 -561.4 -10089 -561.4 -10150.3 -327.6 -10150.3 -327.6 -10089 -326.9 -10076.4 -325 -10065.8 -321.7 -10057.1 -317.1 -10050.4 -305.2 -10041.9 -298.3 -10039.7 -290.8 -10039 -282.9 -10039.7 -275.8 -10041.9 -264.1 -10050.4 -259.7 -10057.1 -256.5 -10065.8 -254.6 -10076.4 -254 -10089 -254 -10150.3 464.2 -10150.3 464.2 -10303.5 -242.6 -10712.6"/></g><path d="M -242.6 3262.4 -327.6 3262.4 -327.6 3750.3 -561.4 3750.3 -561.4 3612.8 -562.1 3600.2 -563.9 3589.6 -567.1 3580.9 -571.5 3574.2 -583.2 3565.7 -590.3 3563.6 -598.2 3562.9 -605.8 3563.6 -612.7 3565.7 -624.5 3574.2 -629.1 3580.9 -632.4 3589.6 -634.3 3600.2 -635 3612.8 -635 3886 -634.3 3898.6 -632.4 3909.3 -629.1 3917.9 -624.5 3924.6 -612.7 3933.1 -605.8 3935.3 -598.2 3936 -590.3 3935.3 -583.2 3933.1 -571.5 3924.6 -567.1 3917.9 -563.9 3909.3 -562.1 3898.6 -561.4 3886 -561.4 3824.7 -327.6 3824.7 -327.6 3886 -326.9 3898.6 -325 3909.3 -321.7 3917.9 -317.1 3924.6 -305.2 3933.1 -298.3 3935.3 -290.8 3936 -282.9 3935.3 -275.8 3933.1 -264.1 3924.6 -259.7 3917.9 -256.5 3909.3 -254.6 3898.6 -254 3886 -254 3824.7 464.2 3824.7 464.2 3671.5 -242.6 3262.4"/></g><path d="M 1662.4 2187.4 1577.4 2187.4 1577.4 2675.3 1343.6 2675.3 1343.6 2537.8 1342.9 2525.2 1341.1 2514.6 1337.9 2505.9 1333.5 2499.2 1321.8 2490.7 1314.7 2488.6 1306.8 2487.9 1299.2 2488.6 1292.3 2490.7 1280.5 2499.2 1275.9 2505.9 1272.6 2514.6 1270.7 2525.2 1270 2537.8 1270 2811 1270.7 2823.6 1272.6 2834.3 1275.9 2842.9 1280.5 2849.6 1292.3 2858.1 1299.2 2860.3 1306.8 2861 1314.7 2860.3 1321.8 2858.1 1333.5 2849.6 1337.9 2842.9 1341.1 2834.3 1342.9 2823.6 1343.6 2811 1343.6 2749.7 1577.4 2749.7 1577.4 2811 1578.1 2823.6 1580.1 2834.3 1583.3 2842.9 1587.9 2849.6 1599.8 2858.1 1606.7 2860.3 1614.2 2861 1622.1 2860.3 1629.2 2858.1 1640.9 2849.6 1645.3 2842.9 1648.5 2834.3 1650.4 2823.6 1651 2811 1651 2749.7 2369.2 2749.7 2369.2 2596.5 1662.4 2187.4"/></g><path d="M -598.2 7396 -605.8 7396.7 -612.7 7398.9 -624.5 7407.4 -629.1 7414 -632.4 7422.5 -634.3 7432.9 -635 7445.1 -635 7716.6 -634.3 7728.8 -632.4 7739.1 -629.1 7747.6 -624.5 7754.2 -612.7 7762.8 -605.8 7764.9 -598.2 7765.6 -590.3 7764.9 -583.2 7762.8 -571.5 7754.2 -567.1 7747.6 -563.9 7739.1 -562.1 7728.8 -561.4 7716.6 -561.4 7580.8 316.2 7580.8 316.2 7594.8 -327.6 7877.7 -327.6 7961.8 316.2 8239.5 316.2 8255.2 -561.4 8255.2 -561.4 8119.5 -562.1 8106.9 -563.9 8096.3 -567.1 8087.6 -571.5 8080.9 -583.2 8072.4 -590.3 8070.3 -598.2 8069.6 -605.8 8070.3 -612.7 8072.5 -624.5 8081.4 -629.1 8088.2 -632.4 8096.8 -634.3 8107.2 -635 8119.5 -635 8390.1 -634.3 8402.7 -632.4 8413.3 -629.1 8422 -624.5 8428.7 -612.7 8437.2 -605.8 8439.3 -598.2 8440 -590.3 8439.3 -583.2 8437.2 -571.5 8428.7 -567.1 8422 -563.9 8413.3 -562.1 8402.7 -561.4 8390.1 -561.4 8328.8 316.2 8328.8 316.2 8374.3 316.8 8386.9 318.7 8397.6 321.8 8406.2 326.3 8412.9 338 8421.4 345.1 8423.6 353 8424.3 360.9 8423.6 368 8421.4 379.7 8412.9 384.1 8406.2 387.2 8397.6 389.1 8386.9 389.7 8374.3 389.7 8193.9 -244.4 7919.8 389.7 7641.3 389.7 7460.8 389.1 7448.6 387.2 7438.3 384.1 7429.8 379.7 7423.2 368 7414.6 360.9 7412.5 353 7411.8 345.1 7412.5 338 7414.6 326.3 7423.2 321.8 7429.8 318.7 7438.3 316.8 7448.6 316.2 7460.8 316.2 7507.3 -561.4 7507.3 -561.4 7445.1 -562.1 7432.9 -563.9 7422.5 -567.1 7414 -571.5 7407.4 -583.2 7398.9 -590.3 7396.7 -598.2 7396"/><path d="M 2258 -2259.7 2250.1 -2259 2243 -2256.9 2231.3 -2248.3 2226.8 -2241.7 2223.7 -2233.2 2221.8 -2222.9 2221.2 -2210.7 2221.2 -2111.7 1343.6 -2111.7 1343.6 -2173 1342.9 -2185.6 1341.1 -2196.2 1337.9 -2204.9 1333.5 -2211.5 1321.8 -2220.1 1314.7 -2222.2 1306.8 -2222.9 1299.2 -2222.2 1292.3 -2220.1 1280.5 -2211.5 1275.9 -2204.9 1272.6 -2196.2 1270.7 -2185.6 1270 -2173 1270 -1902.4 1270.7 -1889.8 1272.6 -1879.2 1275.9 -1870.5 1280.5 -1863.8 1292.3 -1855.3 1299.2 -1853.2 1306.8 -1852.4 1314.7 -1853.2 1321.8 -1855.3 1333.5 -1863.8 1337.9 -1870.5 1341.1 -1879.2 1342.9 -1889.8 1343.6 -1902.4 1343.6 -2038.1 2187 -2038.1 1270 -1496 1270 -1401.4 2221.2 -1401.4 2221.2 -1339.2 2221.8 -1327 2223.7 -1316.6 2226.8 -1308.2 2231.3 -1301.5 2243 -1293 2250.1 -1290.9 2258 -1290.1 2265.9 -1290.9 2273 -1293 2284.7 -1301.5 2289.1 -1308.2 2292.2 -1316.6 2294.1 -1327 2294.7 -1339.2 2294.7 -1610.7 2294.1 -1623.3 2292.2 -1633.8 2289.1 -1642.3 2284.7 -1648.8 2273 -1657 2265.9 -1659.1 2258 -1659.8 2250.1 -1659 2243 -1656.9 2231.3 -1648.4 2226.8 -1641.7 2223.7 -1633.3 2221.8 -1622.9 2221.2 -1610.7 2221.2 -1474.9 1376 -1474.9 2294.7 -2018 2294.7 -2210.7 2294.1 -2222.9 2292.2 -2233.2 2289.1 -2241.7 2284.7 -2248.3 2273 -2256.9 2265.9 -2259 2258 -2259.7"/><path d="M -2503.2 8543.7 -2510.8 8544.4 -2517.7 8546.6 -2529.5 8555.1 -2534.1 8561.7 -2537.4 8570.2 -2539.3 8580.6 -2540 8592.8 -2540 8848.5 -2539.3 8860.7 -2537.4 8871.1 -2534.1 8879.6 -2529.5 8886.2 -2517.7 8894.7 -2510.8 8896.9 -2503.2 8897.6 -2495.3 8896.9 -2488.2 8894.7 -2476.5 8886.2 -2472.1 8879.6 -2468.9 8871.1 -2467.1 8860.7 -2466.4 8848.5 -2466.4 8749.5 -2044.3 8749.5 -2044.3 9237.4 -2466.4 9237.4 -2466.4 9139.3 -2467.1 9126.7 -2468.9 9116.2 -2472.1 9107.7 -2476.5 9101.2 -2488.2 9093 -2495.3 9090.9 -2503.2 9090.2 -2510.8 9091 -2517.7 9093.1 -2529.5 9101.6 -2534.1 9108.3 -2537.4 9116.7 -2539.3 9127.1 -2540 9139.3 -2540 9395 -2539.3 9407.3 -2537.4 9417.6 -2534.1 9426.1 -2529.5 9432.7 -2517.7 9441.2 -2510.8 9443.4 -2503.2 9444.1 -2495.3 9443.4 -2488.2 9441.2 -2476.5 9432.7 -2472.1 9426.1 -2468.9 9417.6 -2467.1 9407.3 -2466.4 9395 -2466.4 9311.8 -1588.8 9311.8 -1588.8 9357.4 -1588.2 9370 -1586.3 9380.6 -1583.2 9389.2 -1578.8 9395.9 -1567 9404.5 -1559.9 9406.6 -1552 9407.3 -1544.1 9406.6 -1537 9404.5 -1525.3 9395.9 -1520.9 9389.2 -1517.8 9380.6 -1515.9 9370 -1515.3 9357.4 -1515.3 9139.3 -1515.9 9126.7 -1517.8 9116.2 -1520.9 9107.7 -1525.3 9101.2 -1537 9093 -1544.1 9090.9 -1552 9090.2 -1559.9 9091 -1567 9093.1 -1578.8 9101.6 -1583.2 9108.3 -1586.3 9116.7 -1588.2 9127.1 -1588.8 9139.3 -1588.8 9237.4 -1970.7 9237.4 -1970.7 8749.5 -1588.8 8749.5 -1588.8 8848.5 -1588.2 8860.7 -1586.3 8871.1 -1583.2 8879.6 -1578.8 8886.2 -1567 8894.7 -1559.9 8896.9 -1552 8897.6 -1544.1 8896.9 -1537 8894.7 -1525.3 8886.2 -1520.9 8879.6 -1517.8 8871.1 -1515.9 8860.7 -1515.3 8848.5 -1515.3 8630.4 -1515.9 8617.8 -1517.8 8607.2 -1520.9 8598.6 -1525.3 8591.9 -1537 8583.3 -1544.1 8581.2 -1552 8580.5 -1559.9 8581.2 -1567 8583.3 -1578.8 8591.9 -1583.2 8598.6 -1586.3 8607.2 -1588.2 8617.8 -1588.8 8630.4 -1588.8 8676 -2466.4 8676 -2466.4 8592.8 -2467.1 8580.6 -2468.9 8570.2 -2472.1 8561.7 -2476.5 8555.1 -2488.2 8546.6 -2495.3 8544.4 -2503.2 8543.7"/><path d="M -1961.9 7487.1 -2096.8 7487.1 -2154.2 7489.3 -2206.3 7495.8 -2253.2 7506.6 -2294.8 7521.7 -2332.8 7540.7 -2369 7563.2 -2403.3 7589.1 -2435.8 7618.5 -2465.6 7651.3 -2491.8 7687.6 -2514.6 7727.3 -2533.9 7770.4 -2549.2 7817.1 -2560.1 7867.3 -2566.7 7921.1 -2568.9 7978.5 -2567.4 8020.1 -2563 8061.8 -2555.6 8103.5 -2545.3 8145.3 -2532 8187.2 -2515.9 8229.1 -2497 8271 -2475.2 8313 -2159.9 8313 -2159.1 8348.1 -2156.8 8365.6 -2152.1 8373.9 -2144.1 8381.4 -2134 8386.6 -2123.1 8388.4 -2115.2 8387.7 -2108.1 8385.5 -2096.4 8377 -2092 8370.4 -2088.8 8361.9 -2086.9 8351.5 -2086.3 8339.3 -2085.4 7985.5 -2086.1 7973.3 -2088.1 7962.9 -2091.3 7954.4 -2095.9 7947.8 -2108 7939.3 -2115.2 7937.1 -2123.1 7936.4 -2131 7937.1 -2138.1 7939.3 -2149.8 7947.8 -2154.2 7954.4 -2157.4 7962.9 -2159.3 7973.3 -2159.9 7985.5 -2159.9 8238.6 -2432.3 8238.6 -2462.1 8167.2 -2473 8135.1 -2481.3 8105.5 -2487.5 8076.4 -2491.8 8046.1 -2494.5 8014.6 -2495.3 7982 -2493.7 7934 -2488.6 7888.7 -2480.2 7846.1 -2468.4 7806.1 -2453.3 7768.8 -2434.7 7734.2 -2412.9 7702.1 -2387.6 7672.8 -2359.5 7646.5 -2329 7623.7 -2296.2 7604.5 -2261 7588.7 -2223.5 7576.4 -2183.6 7567.7 -2141.4 7562.4 -2096.8 7560.7 -1962.8 7560.7 -1937.3 7561.4 -1912.5 7563.6 -1888.4 7567.3 -1864.9 7572.5 -1842.2 7579.2 -1820.1 7587.3 -1798.7 7596.9 -1778 7608 -1748.2 7625.9 -1720.8 7644.1 -1696 7662.7 -1673.7 7681.7 -1653.9 7700.9 -1636.5 7720.6 -1621.7 7740.5 -1609.4 7760.8 -1590.1 7803 -1582.5 7825 -1576.2 7847.6 -1571.4 7870.9 -1567.9 7894.7 -1565.9 7919.2 -1565.2 7944.3 -1565.9 7971 -1568.1 7997.2 -1571.8 8022.8 -1577 8048 -1583.7 8072.6 -1591.8 8096.8 -1601.4 8120.4 -1612.5 8143.6 -1624.7 8165.1 -1637.8 8183.9 -1651.8 8200.1 -1666.6 8213.5 -1682.2 8224.3 -1698.7 8232.3 -1716 8237.7 -1734.2 8240.3 -1746 8241.4 -1755.8 8243.5 -1763.7 8246.8 -1769.7 8251.3 -1777.2 8262.6 -1779.8 8276.3 -1779.1 8283.8 -1777 8290.7 -1768.8 8302.5 -1762.3 8307.1 -1753.8 8310.4 -1743.3 8312.4 -1730.7 8313 -1564.3 8313 -1552.1 8312.4 -1541.7 8310.4 -1533.3 8307.1 -1526.6 8302.5 -1518.1 8290.7 -1516 8283.8 -1515.3 8276.3 -1516.9 8264.6 -1521.8 8254.4 -1528.9 8246.4 -1537.1 8241.7 -1554.4 8239.4 -1588.8 8238.6 -1566 8207.1 -1546.3 8173.8 -1529.6 8138.9 -1515.9 8102.2 -1505.3 8063.8 -1497.7 8023.6 -1493.1 7981.8 -1491.6 7938.2 -1492.5 7907.8 -1495.4 7878 -1500.1 7848.8 -1506.7 7820.2 -1515.2 7792.1 -1525.6 7764.6 -1537.9 7737.7 -1552 7711.3 -1568 7686 -1585.6 7662 -1604.9 7639.4 -1625.9 7618.2 -1648.6 7598.3 -1673 7579.9 -1699 7562.8 -1726.8 7547.1 -1755.4 7533 -1784.3 7520.9 -1813.4 7510.5 -1842.7 7502.1 -1872.2 7495.5 -1901.9 7490.9 -1931.8 7488 -1961.9 7487.1"/><path d="M -2287.8 6462 -2491 6462 -2503.2 6462.7 -2513.5 6464.7 -2522 6467.9 -2528.6 6472.5 -2537.2 6484.4 -2539.3 6491.3 -2540 6498.8 -2539.3 6506.7 -2537.2 6513.8 -2528.6 6525.5 -2522 6529.9 -2513.5 6533.1 -2503.2 6535 -2491 6535.6 -2448.9 6535.6 -2477 6565.5 -2501.4 6597.8 -2522 6632.5 -2538.9 6669.6 -2552 6709.1 -2561.4 6751.1 -2567 6795.4 -2568.9 6842.2 -2567.5 6883.8 -2563.3 6923.2 -2556.4 6960.4 -2546.7 6995.4 -2534.2 7028.3 -2518.9 7058.9 -2500.8 7087.4 -2480 7113.7 -2457.2 7137.3 -2433.2 7157.7 -2408.1 7175 -2381.8 7189.2 -2354.3 7200.2 -2325.7 7208.1 -2295.9 7212.8 -2265 7214.4 -2244.7 7213.8 -2225.2 7212 -2188.1 7204.6 -2153.8 7192.5 -2122.2 7175.4 -2093.6 7153.6 -2068.4 7127.1 -2046.3 7096 -2027.6 7060.2 -2015 7026 -2002.4 6980.1 -1990 6922.6 -1977.7 6853.5 -1963.1 6776 -1949.2 6722.2 -1933.5 6682.3 -1913.3 6646.8 -1901.3 6631 -1887.6 6616.8 -1872.2 6604.3 -1855.1 6593.4 -1836.6 6584.6 -1817.2 6578.3 -1796.8 6574.5 -1775.4 6573.3 -1754.5 6574.4 -1734.3 6577.8 -1714.8 6583.4 -1696 6591.2 -1677.9 6601.3 -1660.5 6613.7 -1643.8 6628.3 -1627.8 6645.1 -1613.1 6663.8 -1600.4 6684.1 -1589.6 6706 -1580.8 6729.4 -1574 6754.4 -1569.1 6780.9 -1566.2 6809 -1565.2 6838.7 -1566.1 6866.9 -1568.8 6893.7 -1573.4 6919.1 -1579.8 6943.2 -1588.1 6965.9 -1598.2 6987.2 -1610.1 7007.1 -1623.9 7025.6 -1638.8 7042.4 -1654.1 7057.1 -1670 7069.8 -1686.3 7080.3 -1703 7088.7 -1720.3 7095 -1738 7099.3 -1756.1 7101.4 -1767.1 7102.4 -1776.5 7104.6 -1784.2 7107.9 -1790.3 7112.4 -1798.2 7123.9 -1800.1 7130.7 -1800.8 7138.2 -1800.1 7146.1 -1797.9 7153.2 -1789.4 7164.9 -1782.8 7169.3 -1774.3 7172.5 -1763.9 7174.3 -1751.7 7175 -1564.3 7175 -1552.1 7174.3 -1541.7 7172.5 -1533.3 7169.3 -1526.6 7164.9 -1518.1 7153.2 -1516 7146.1 -1515.3 7138.2 -1516 7130.3 -1518.1 7123.2 -1526.6 7111.5 -1533.3 7107.1 -1541.7 7103.9 -1552.1 7102 -1564.3 7101.4 -1588.8 7101.4 -1566 7072.9 -1546.3 7043.1 -1529.6 7011.9 -1515.9 6979.4 -1505.3 6945.6 -1497.7 6910.4 -1493.1 6873.9 -1491.6 6836 -1492.9 6799.1 -1496.8 6764 -1503.3 6730.7 -1512.4 6699.3 -1524.1 6669.7 -1538.4 6642 -1555.3 6616.1 -1574.8 6592.1 -1596.1 6570.4 -1618.4 6551.7 -1641.8 6535.8 -1666.1 6522.8 -1691.5 6512.7 -1717.8 6505.5 -1745.2 6501.1 -1773.6 6499.7 -1801.9 6501 -1828.5 6504.7 -1853.5 6511 -1876.8 6519.8 -1898.4 6531.2 -1918.3 6545 -1936.6 6561.4 -1953.2 6580.3 -1968.4 6602 -1982.7 6627 -1995.9 6655.1 -2008.1 6686.5 -2019.3 6721 -2029.5 6758.8 -2038.7 6799.7 -2046.9 6843.9 -2058 6904.8 -2068.6 6954.3 -2078.6 6992.4 -2088.1 7019.1 -2102.4 7047.4 -2119 7072.1 -2138.1 7093 -2159.4 7110.2 -2182.8 7123.6 -2207.7 7133.2 -2234.2 7138.9 -2262.4 7140.8 -2285.6 7139.6 -2308.1 7135.8 -2329.7 7129.6 -2350.6 7120.8 -2370.7 7109.5 -2390 7095.7 -2408.4 7079.5 -2426.1 7060.7 -2442.4 7039.7 -2456.4 7017 -2468.3 6992.4 -2478 6966 -2485.6 6937.8 -2491 6907.7 -2494.3 6875.8 -2495.3 6842.2 -2494.3 6808.4 -2491.2 6776.5 -2486 6746.3 -2478.8 6717.9 -2469.5 6691.2 -2458.1 6666.4 -2444.7 6643.2 -2429.2 6621.9 -2412.4 6602.6 -2395.2 6585.8 -2377.6 6571.4 -2359.5 6559.4 -2340.9 6549.8 -2321.9 6542.6 -2302.4 6537.9 -2282.5 6535.6 -2271.5 6534.6 -2262.1 6532.4 -2254.4 6529.1 -2248.3 6524.7 -2240.5 6513.2 -2238.5 6506.3 -2237.8 6498.8 -2238.5 6490.9 -2240.7 6483.8 -2249.2 6472.1 -2255.9 6467.7 -2264.5 6464.6 -2275.2 6462.7 -2287.8 6462"/><path d="M -1477.6 -10825.6 -1485.5 -10824.8 -1492.7 -10822.7 -1504.7 -10814.2 -1509.3 -10807.5 -1512.6 -10799.1 -1514.6 -10788.7 -1515.3 -10776.5 -1515.3 -10677.5 -2466.4 -10677.5 -2466.4 -10760.7 -2467.1 -10772.9 -2468.9 -10783.3 -2472.1 -10791.8 -2476.5 -10798.4 -2488.2 -10806.9 -2495.3 -10809.1 -2503.2 -10809.8 -2510.8 -10809.1 -2517.7 -10806.9 -2529.5 -10798.4 -2534.1 -10791.8 -2537.4 -10783.3 -2539.3 -10772.9 -2540 -10760.7 -2540 -10520.8 -2539.3 -10508.6 -2537.4 -10498.2 -2534.1 -10489.7 -2529.5 -10483.1 -2517.7 -10474.6 -2510.8 -10472.4 -2503.2 -10471.7 -2495.3 -10472.4 -2488.2 -10474.6 -2476.5 -10483.1 -2472.1 -10489.7 -2468.9 -10498.2 -2467.1 -10508.6 -2466.4 -10520.8 -2466.4 -10604 -2000.5 -10604 -1953.1 -10560 -1915.3 -10522.7 -1887 -10492.1 -1868.2 -10468.2 -1851 -10438.3 -1838.7 -10405.4 -1831.3 -10369.5 -1829.4 -10350.5 -1828.8 -10330.7 -1829.6 -10305.8 -1832.1 -10282.3 -1836.3 -10260.2 -1842.2 -10239.5 -1849.7 -10220.2 -1858.9 -10202.4 -1869.7 -10185.9 -1882.2 -10170.9 -1896 -10157.4 -1910.6 -10145.8 -1926 -10135.9 -1942.2 -10127.8 -1959.3 -10121.6 -1977.2 -10117.1 -1995.9 -10114.4 -2015.4 -10113.5 -2466.4 -10113.5 -2466.4 -10195.8 -2467.1 -10208.4 -2468.9 -10219 -2472.1 -10227.7 -2476.5 -10234.4 -2488.2 -10242.9 -2495.3 -10245 -2503.2 -10245.7 -2510.8 -10245 -2517.7 -10242.9 -2529.5 -10234.4 -2534.1 -10227.7 -2537.4 -10219 -2539.3 -10208.4 -2540 -10195.8 -2540 -9956.7 -2539.3 -9944.1 -2537.4 -9933.6 -2534.1 -9925.1 -2529.5 -9918.6 -2517.7 -9910.4 -2510.8 -9908.3 -2503.2 -9907.7 -2495.3 -9908.3 -2488.2 -9910.4 -2476.5 -9918.6 -2472.1 -9925.1 -2468.9 -9933.6 -2467.1 -9944.1 -2466.4 -9956.7 -2466.4 -10039 -2010.1 -10039 -1992.9 -10039.7 -1975.9 -10041.6 -1942.6 -10049.1 -1910 -10061.7 -1878.3 -10079.3 -1849 -10100.7 -1823.8 -10124.5 -1802.6 -10150.8 -1785.5 -10179.6 -1772.2 -10211.2 -1762.8 -10246.1 -1757.1 -10284.1 -1755.2 -10325.4 -1757.2 -10364.3 -1763 -10401.3 -1772.7 -10436.4 -1786.3 -10469.5 -1804.7 -10502.1 -1828.7 -10535.3 -1858.3 -10569.3 -1893.6 -10604 -1440.8 -10604 -1440.8 -10776.5 -1441.5 -10788.7 -1443.4 -10799.1 -1446.7 -10807.5 -1451.3 -10814.2 -1463.1 -10822.7 -1470 -10824.8 -1477.6 -10825.6"/><path d="M -1819.2 3205.5 -1826.7 3206.2 -1833.6 3208.3 -1845.5 3216.9 -1850 3223.5 -1853.3 3232 -1855.3 3242.3 -1856 3254.6 -1856 3276.4 -2540 3618 -2804.5 3488.4 -2804.5 3258.1 -2805.1 3245.8 -2807 3235.5 -2810.2 3227 -2814.6 3220.4 -2826.3 3211.9 -2833.4 3209.7 -2841.3 3209 -2849.2 3209.7 -2856.3 3211.9 -2868 3220.4 -2872.4 3227 -2875.6 3235.5 -2877.5 3245.8 -2878.1 3258.1 -2878.1 3682 -2877.4 3694.2 -2875.5 3704.5 -2872.2 3713 -2867.6 3719.6 -2855.7 3728.2 -2848.8 3730.3 -2841.3 3731 -2833.4 3730.3 -2826.3 3728.2 -2814.6 3719.6 -2810.2 3713 -2807 3704.5 -2805.1 3694.2 -2804.5 3682 -2804.5 3567.2 -1856 4033.2 -1855.2 4065.6 -1852.9 4082.2 -1848.2 4090.6 -1840.2 4098 -1830.1 4103.3 -1819.2 4105 -1811.2 4104.3 -1804.1 4102.2 -1792 4093.6 -1787.4 4086.9 -1784.1 4078.3 -1782.2 4067.7 -1781.5 4055.1 -1781.5 3854.5 -1782.2 3842.3 -1784.1 3832 -1787.4 3823.5 -1792 3816.8 -1803.8 3808.3 -1810.7 3806.2 -1818.3 3805.5 -1826.2 3806.2 -1833.4 3808.3 -1845.5 3816.8 -1850 3823.5 -1853.3 3832 -1855.3 3842.3 -1856 3854.5 -1856 3953.5 -2459.4 3657.4 -1856 3357 -1856 3456 -1855.3 3468.2 -1853.3 3478.5 -1850 3487 -1845.5 3493.7 -1833.6 3502.2 -1826.7 3504.3 -1819.2 3505 -1811.2 3504.3 -1804.1 3502.2 -1792 3493.7 -1787.4 3487 -1784.1 3478.5 -1782.2 3468.2 -1781.5 3456 -1781.5 3254.6 -1782.5 3237.8 -1785.5 3226.1 -1790.7 3217.8 -1798.6 3211.2 -1808.3 3206.9 -1819.2 3205.5"/><path d="M -526.4 -7525.2 -635 -7525.2 -635 -6814 -532.5 -6814 -520.3 -6814.7 -510 -6816.7 -501.5 -6820 -494.9 -6824.5 -486.3 -6836.4 -484.2 -6843.3 -483.5 -6850.8 -484.2 -6858.8 -486.3 -6865.9 -494.9 -6878 -501.5 -6882.6 -510 -6885.9 -520.3 -6887.8 -532.5 -6888.5 -561.4 -6888.5 -561.4 -7453.4 -556.2 -7453.4 -478.5 -7365.9 -386.5 -7266.4 -280.1 -7154.9 -159.4 -7031.3 -70.6 -6943.8 -35.8 -6911.9 -7.5 -6888 17.2 -6869.6 40.9 -6854 63.7 -6841.3 85.4 -6831.6 107.1 -6824.3 129.9 -6819.1 153.8 -6816 178.7 -6814.9 208.5 -6816.5 237.5 -6821.1 265.7 -6828.8 293.2 -6839.7 319.8 -6853.6 345.7 -6870.6 370.7 -6890.7 395 -6913.9 417.4 -6939.2 436.8 -6965.8 453.2 -6993.5 466.6 -7022.5 477 -7052.7 484.5 -7084 489 -7116.6 490.5 -7150.4 489.8 -7171.5 487.9 -7192.6 480.2 -7234.3 467.3 -7275.6 449.3 -7316.3 426.8 -7354.7 400.5 -7388.6 370.3 -7418.2 336.3 -7443.3 302.3 -7463.5 271.9 -7477.8 245.3 -7486.4 233.4 -7488.6 222.5 -7489.3 209.4 -7486.8 198.4 -7479.2 190.8 -7468 188.3 -7454.3 190.5 -7441.1 197.1 -7429.8 206.9 -7422.5 224.2 -7416.6 244.2 -7410.3 263.3 -7402.4 281.6 -7392.8 299.1 -7381.6 315.8 -7368.7 331.6 -7354.2 346.6 -7338.1 360.8 -7320.3 373.8 -7301.3 385 -7281.7 394.5 -7261.4 402.2 -7240.4 408.3 -7218.7 412.6 -7196.3 415.2 -7173.2 416 -7149.5 414.9 -7123.1 411.5 -7097.6 405.8 -7073.1 397.9 -7049.6 387.6 -7027.1 375.1 -7005.6 360.4 -6985.1 343.3 -6965.6 324.8 -6947.7 305.6 -6932.2 285.7 -6919.1 265.2 -6908.4 243.9 -6900.1 222 -6894.1 199.3 -6890.6 176 -6889.4 158.6 -6890.2 141.1 -6892.8 123.7 -6897 106.4 -6902.9 88.4 -6911.2 69.1 -6922.3 26.3 -6953.3 -32.2 -7005.6 -116.5 -7089.1 -220.3 -7195.8 -323.2 -7304.1 -425.2 -7413.9 -526.4 -7525.2"/><path d="M -526.4 -5375.2 -635 -5375.2 -635 -4664 -532.5 -4664 -520.3 -4664.7 -510 -4666.7 -501.5 -4670 -494.9 -4674.5 -486.3 -4686.4 -484.2 -4693.3 -483.5 -4700.8 -484.2 -4708.8 -486.3 -4715.9 -494.9 -4728 -501.5 -4732.6 -510 -4735.9 -520.3 -4737.8 -532.5 -4738.5 -561.4 -4738.5 -561.4 -5303.4 -556.2 -5303.4 -478.5 -5215.9 -386.5 -5116.4 -280.1 -5004.9 -159.4 -4881.3 -70.6 -4793.8 -35.8 -4761.9 -7.5 -4738 17.2 -4719.6 40.9 -4704 63.7 -4691.3 85.4 -4681.6 107.1 -4674.3 129.9 -4669.1 153.8 -4666 178.7 -4664.9 208.5 -4666.5 237.5 -4671.1 265.7 -4678.8 293.2 -4689.7 319.8 -4703.6 345.7 -4720.6 370.7 -4740.7 395 -4763.9 417.4 -4789.2 436.8 -4815.8 453.2 -4843.5 466.6 -4872.5 477 -4902.7 484.5 -4934 489 -4966.6 490.5 -5000.4 489.8 -5021.5 487.9 -5042.6 480.2 -5084.3 467.3 -5125.6 449.3 -5166.3 426.8 -5204.7 400.5 -5238.6 370.3 -5268.2 336.3 -5293.3 302.3 -5313.5 271.9 -5327.8 245.3 -5336.4 233.4 -5338.6 222.5 -5339.3 209.4 -5336.8 198.4 -5329.2 190.8 -5318 188.3 -5304.3 190.5 -5291.1 197.1 -5279.8 206.9 -5272.5 224.2 -5266.6 244.2 -5260.3 263.3 -5252.4 281.6 -5242.8 299.1 -5231.6 315.8 -5218.7 331.6 -5204.2 346.6 -5188.1 360.8 -5170.3 373.8 -5151.3 385 -5131.7 394.5 -5111.4 402.2 -5090.4 408.3 -5068.7 412.6 -5046.3 415.2 -5023.2 416 -4999.5 414.9 -4973.1 411.5 -4947.6 405.8 -4923.1 397.9 -4899.6 387.6 -4877.1 375.1 -4855.6 360.4 -4835.1 343.3 -4815.6 324.8 -4797.7 305.6 -4782.2 285.7 -4769.1 265.2 -4758.4 243.9 -4750.1 222 -4744.1 199.3 -4740.6 176 -4739.4 158.6 -4740.2 141.1 -4742.8 123.7 -4747 106.4 -4752.9 88.4 -4761.2 69.1 -4772.3 26.3 -4803.3 -32.2 -4855.6 -116.5 -4939.1 -220.3 -5045.8 -323.2 -5154.1 -425.2 -5263.9 -526.4 -5375.2"/><path d="M -526.4 -3225.2 -635 -3225.2 -635 -2514 -532.5 -2514 -520.3 -2514.7 -510 -2516.7 -501.5 -2520 -494.9 -2524.5 -486.3 -2536.4 -484.2 -2543.3 -483.5 -2550.8 -484.2 -2558.8 -486.3 -2565.9 -494.9 -2578 -501.5 -2582.6 -510 -2585.9 -520.3 -2587.8 -532.5 -2588.5 -561.4 -2588.5 -561.4 -3153.4 -556.2 -3153.4 -478.5 -3065.9 -386.5 -2966.4 -280.1 -2854.9 -159.4 -2731.3 -70.6 -2643.8 -35.8 -2611.9 -7.5 -2588 17.2 -2569.6 40.9 -2554 63.7 -2541.3 85.4 -2531.6 107.1 -2524.3 129.9 -2519.1 153.8 -2516 178.7 -2514.9 208.5 -2516.5 237.5 -2521.1 265.7 -2528.8 293.2 -2539.7 319.8 -2553.6 345.7 -2570.6 370.7 -2590.7 395 -2613.9 417.4 -2639.2 436.8 -2665.8 453.2 -2693.5 466.6 -2722.5 477 -2752.7 484.5 -2784 489 -2816.6 490.5 -2850.4 489.8 -2871.5 487.9 -2892.6 480.2 -2934.3 467.3 -2975.6 449.3 -3016.3 426.8 -3054.7 400.5 -3088.6 370.3 -3118.2 336.3 -3143.3 302.3 -3163.5 271.9 -3177.8 245.3 -3186.4 233.4 -3188.6 222.5 -3189.3 209.4 -3186.8 198.4 -3179.2 190.8 -3168 188.3 -3154.3 190.5 -3141.1 197.1 -3129.8 206.9 -3122.5 224.2 -3116.6 244.2 -3110.3 263.3 -3102.4 281.6 -3092.8 299.1 -3081.6 315.8 -3068.7 331.6 -3054.2 346.6 -3038.1 360.8 -3020.3 373.8 -3001.3 385 -2981.7 394.5 -2961.4 402.2 -2940.4 408.3 -2918.7 412.6 -2896.3 415.2 -2873.2 416 -2849.5 414.9 -2823.1 411.5 -2797.6 405.8 -2773.1 397.9 -2749.6 387.6 -2727.1 375.1 -2705.6 360.4 -2685.1 343.3 -2665.6 324.8 -2647.7 305.6 -2632.2 285.7 -2619.1 265.2 -2608.4 243.9 -2600.1 222 -2594.1 199.3 -2590.6 176 -2589.4 158.6 -2590.2 141.1 -2592.8 123.7 -2597 106.4 -2602.9 88.4 -2611.2 69.1 -2622.3 26.3 -2653.3 -32.2 -2705.6 -116.5 -2789.1 -220.3 -2895.8 -323.2 -3004.1 -425.2 -3113.9 -526.4 -3225.2"/><path d="M 2258 -4337.9 2250.1 -4337.2 2243 -4335 2231.3 -4326.5 2226.8 -4319.9 2223.7 -4311.4 2221.8 -4301.1 2221.2 -4288.8 2221.2 -4113.7 1343.6 -4113.7 1343.6 -4288.8 1342.9 -4301.1 1341.1 -4311.4 1337.9 -4319.9 1333.5 -4326.5 1321.8 -4335 1314.7 -4337.2 1306.8 -4337.9 1299.2 -4337.2 1292.3 -4335 1280.5 -4326.5 1275.9 -4319.9 1272.6 -4311.4 1270.7 -4301.1 1270 -4288.8 1270 -3476.1 1636.1 -3476.1 1648.7 -3476.7 1659.2 -3478.7 1667.7 -3482 1674.2 -3486.6 1682.4 -3498.4 1684.5 -3505.3 1685.2 -3512.8 1684.4 -3520.8 1682.3 -3527.9 1673.8 -3540 1667.1 -3544.6 1658.7 -3547.9 1648.3 -3549.8 1636.1 -3550.5 1343.6 -3550.5 1343.6 -4039.2 2221.2 -4039.2 2221.2 -3864.1 2221.8 -3851.8 2223.7 -3841.5 2226.8 -3833 2231.3 -3826.4 2243 -3817.9 2250.1 -3815.7 2258 -3815 2265.9 -3815.7 2273 -3817.9 2284.7 -3826.4 2289.1 -3833 2292.2 -3841.5 2294.1 -3851.8 2294.7 -3864.1 2294.7 -4288.8 2294.1 -4301.1 2292.2 -4311.4 2289.1 -4319.9 2284.7 -4326.5 2273 -4335 2265.9 -4337.2 2258 -4337.9"/><path d="M -2339.4 -6418.7 -2491 -6418.7 -2503.2 -6418 -2513.5 -6416.1 -2522 -6412.8 -2528.6 -6408.2 -2537.2 -6396.4 -2539.3 -6389.5 -2540 -6381.9 -2538.5 -6371.1 -2533.9 -6361.3 -2527.1 -6353.6 -2519 -6348.6 -2505 -6346 -2480.4 -6345.1 -2501.2 -6316.3 -2519.1 -6285.6 -2534.4 -6252.8 -2546.8 -6218.1 -2556.5 -6181.5 -2563.4 -6142.8 -2567.5 -6102.2 -2568.9 -6059.6 -2567.8 -6017.3 -2564.3 -5977.7 -2558.6 -5940.7 -2550.6 -5906.3 -2540.3 -5874.6 -2527.8 -5845.5 -2512.9 -5819 -2495.8 -5795.1 -2477.2 -5773.9 -2457.9 -5755.6 -2438 -5740.1 -2417.5 -5727.4 -2396.3 -5717.6 -2374.5 -5710.5 -2352 -5706.3 -2328.9 -5704.9 -2313.3 -5705.5 -2297.9 -5707.5 -2268.1 -5715.3 -2239.3 -5728.3 -2211.6 -5746.5 -2185.9 -5770 -2163.2 -5798.9 -2143.4 -5833.3 -2126.6 -5873 -2116.4 -5908.7 -2106.7 -5956 -2097.5 -6015.1 -2088.9 -6085.9 -2081.7 -6139.9 -2073 -6184.4 -2062.8 -6219.6 -2051.3 -6245.3 -2032.7 -6272.1 -2022.5 -6282.6 -2011.9 -6291.3 -2000.6 -6298 -1988.9 -6302.8 -1976.6 -6305.6 -1963.7 -6306.6 -1952.2 -6305.8 -1941 -6303.4 -1930.1 -6299.3 -1919.5 -6293.7 -1899 -6277.5 -1879.6 -6254.9 -1867.9 -6237 -1857.8 -6217.3 -1849.2 -6195.9 -1842.2 -6172.8 -1836.7 -6148 -1832.8 -6121.4 -1830.5 -6093.1 -1829.7 -6063.1 -1830.5 -6034.3 -1832.8 -6006.9 -1836.6 -5981 -1841.9 -5956.5 -1848.8 -5933.4 -1857.3 -5911.9 -1867.2 -5891.7 -1878.7 -5873 -1897 -5851.3 -1917.5 -5834.9 -1940.3 -5824.1 -1952.6 -5820.7 -1965.4 -5818.7 -1984.3 -5814.9 -1991.4 -5811.4 -1997 -5806.9 -2004.2 -5795.6 -2006.6 -5782 -2005.9 -5774 -2003.8 -5766.8 -1995.2 -5754.8 -1988.6 -5750.2 -1980.1 -5746.9 -1969.8 -5745 -1957.6 -5744.3 -1831.4 -5744.3 -1818.8 -5745 -1808.2 -5746.9 -1799.6 -5750.2 -1792.9 -5754.8 -1784.4 -5766.8 -1782.2 -5774 -1781.5 -5782 -1782.2 -5789.5 -1784.4 -5796.4 -1792.9 -5808.2 -1799.5 -5812.8 -1807.8 -5816.1 -1817.9 -5818.1 -1829.7 -5818.7 -1812.2 -5843.5 -1797.1 -5870 -1784.3 -5898.3 -1773.8 -5928.4 -1765.7 -5960.3 -1759.9 -5994 -1756.4 -6029.4 -1755.2 -6066.6 -1756.1 -6098.2 -1758.7 -6128.7 -1763.1 -6158.1 -1769.1 -6186.4 -1777 -6213.5 -1786.5 -6239.5 -1797.8 -6264.4 -1810.9 -6288.2 -1825.4 -6310 -1841.1 -6328.8 -1858 -6344.8 -1876.2 -6357.8 -1895.6 -6368 -1916.2 -6375.2 -1938 -6379.6 -1961.1 -6381 -1986.9 -6379 -2011.9 -6372.7 -2035.9 -6362.3 -2059.2 -6347.8 -2080.5 -6329.5 -2099 -6307.9 -2114.7 -6283.1 -2127.5 -6254.9 -2138.3 -6220.3 -2148.1 -6176 -2156.7 -6122 -2164.3 -6058.3 -2173 -5993.8 -2185.1 -5937.5 -2200.6 -5889.4 -2209.6 -5868.4 -2219.4 -5849.4 -2230.2 -5832.8 -2241.7 -5818.4 -2254.1 -5806.2 -2267.4 -5796.2 -2281.5 -5788.4 -2296.5 -5782.9 -2312.3 -5779.6 -2328.9 -5778.5 -2343.7 -5779.5 -2358.3 -5782.8 -2372.7 -5788.3 -2386.9 -5796 -2401 -5805.8 -2414.8 -5817.9 -2441.9 -5848.5 -2454.4 -5867.2 -2465.3 -5888.2 -2474.5 -5911.4 -2482 -5937 -2487.8 -5964.8 -2492 -5995 -2494.5 -6027.5 -2495.3 -6062.2 -2493.6 -6108.9 -2488.4 -6151.9 -2479.8 -6191.1 -2467.7 -6226.5 -2453 -6257.7 -2436.5 -6284.4 -2418.2 -6306.5 -2398.1 -6324.1 -2383.7 -6332.9 -2367.7 -6339.2 -2350 -6343 -2330.7 -6344.3 -2321.9 -6344.9 -2314.1 -6347 -2307.3 -6350.4 -2301.3 -6355.2 -2293.1 -6367.4 -2291.1 -6374.3 -2290.4 -6381.9 -2291.1 -6389.8 -2293.2 -6396.9 -2301.8 -6408.6 -2308.4 -6413 -2316.9 -6416.2 -2327.2 -6418.1 -2339.4 -6418.7"/><path d="M 1861.2 -9713.8 1711.4 -9713.8 1674.1 -9712.4 1638.4 -9708.3 1604.3 -9701.5 1571.7 -9691.9 1539.3 -9678.5 1505.4 -9660.5 1470.1 -9637.6 1433.3 -9610 1398.6 -9581.2 1369.3 -9554.7 1345.4 -9530.6 1326.9 -9508.8 1311.7 -9486.9 1297.4 -9462.2 1284.1 -9434.8 1271.8 -9404.6 1258.3 -9363.6 1248.8 -9322.9 1243 -9282.6 1241.1 -9242.6 1241.7 -9219.6 1243.6 -9196.7 1251.3 -9151.1 1264 -9105.8 1281.8 -9060.8 1304.7 -9017.1 1332.5 -8975.5 1365.3 -8936.3 1403.1 -8899.2 1422.4 -8882.7 1439 -8871 1453.1 -8863.9 1464.4 -8861.6 1478 -8864 1489 -8871.2 1496.2 -8882.4 1498.6 -8896.6 1497.4 -8905.6 1494 -8914.1 1488.3 -8922.2 1480.2 -8929.9 1441.2 -8965.2 1407.5 -9001.2 1379 -9037.7 1355.8 -9074.8 1337.8 -9113.5 1325 -9154.6 1320.5 -9176.1 1317.2 -9198.2 1315.3 -9221 1314.7 -9244.3 1316.6 -9283.1 1322.3 -9320.7 1331.7 -9357.1 1345 -9392.3 1362.1 -9426.3 1382.9 -9459.1 1407.5 -9490.7 1436 -9521.1 1467 -9549 1499.3 -9573.2 1533.1 -9593.7 1568.1 -9610.4 1604.5 -9623.4 1642.3 -9632.8 1681.5 -9638.3 1721.9 -9640.2 1850.7 -9640.2 1888.2 -9638.7 1923.8 -9634.1 1957.4 -9626.4 1989.1 -9615.7 2029.7 -9597.1 2068.6 -9575.6 2105.5 -9551.1 2140.6 -9523.7 2159.5 -9505.6 2176.9 -9484.7 2192.8 -9461 2207.2 -9434.4 2223.6 -9396.1 2235.4 -9356.6 2242.5 -9316 2244.8 -9274.1 2243.6 -9242.1 2240 -9211 2233.9 -9180.8 2225.3 -9151.5 2214.4 -9123 2201 -9095.4 2185.1 -9068.7 2166.9 -9042.9 2152.4 -9025.1 2137.4 -9009.6 2121.8 -8996.3 2105.8 -8985.3 2089.2 -8976.4 2072.1 -8969.8 2054.5 -8965.4 2036.4 -8963.2 2016 -8959.3 2008.3 -8955.9 2002.2 -8951.3 1994.3 -8940.1 1992.4 -8933.5 1991.7 -8926.4 1992.4 -8918.5 1994.6 -8911.4 2003.1 -8899.7 2009.8 -8895.3 2018.4 -8892.1 2029 -8890.2 2041.6 -8889.6 2245.7 -8889.6 2257.9 -8890.2 2268.3 -8892.1 2276.7 -8895.3 2283.4 -8899.7 2291.9 -8911.4 2294 -8918.5 2294.7 -8926.4 2294 -8934.3 2291.9 -8941.4 2283.4 -8953.1 2276.7 -8957.5 2268.3 -8960.6 2257.9 -8962.5 2245.7 -8963.2 2194 -8963.2 2223.2 -8996.8 2248.4 -9032 2269.8 -9068.8 2287.3 -9107.2 2300.9 -9147.2 2310.6 -9188.8 2316.5 -9232 2318.4 -9276.7 2317.4 -9306 2314.6 -9334.8 2309.8 -9363 2303.2 -9390.7 2294.6 -9417.8 2284.2 -9444.5 2271.8 -9470.6 2257.5 -9496.1 2241.5 -9520.7 2223.8 -9544 2204.5 -9566 2183.5 -9586.6 2160.9 -9605.8 2136.7 -9623.7 2110.8 -9640.3 2083.2 -9655.5 2055 -9669.2 2026.8 -9681 1998.8 -9691 1971 -9699.2 1943.3 -9705.6 1915.8 -9710.1 1888.4 -9712.9 1861.2 -9713.8"/><path d="M 1861.2 -6488.8 1711.4 -6488.8 1674.1 -6487.4 1638.4 -6483.3 1604.3 -6476.5 1571.7 -6466.9 1539.3 -6453.5 1505.4 -6435.5 1470.1 -6412.6 1433.3 -6385 1398.6 -6356.2 1369.3 -6329.7 1345.4 -6305.6 1326.9 -6283.8 1311.7 -6261.9 1297.4 -6237.2 1284.1 -6209.8 1271.8 -6179.6 1258.3 -6138.6 1248.8 -6097.9 1243 -6057.6 1241.1 -6017.6 1241.7 -5994.6 1243.6 -5971.7 1251.3 -5926.1 1264 -5880.8 1281.8 -5835.8 1304.7 -5792.1 1332.5 -5750.5 1365.3 -5711.3 1403.1 -5674.2 1422.4 -5657.7 1439 -5646 1453.1 -5638.9 1464.4 -5636.6 1478 -5639 1489 -5646.2 1496.2 -5657.4 1498.6 -5671.6 1497.4 -5680.6 1494 -5689.1 1488.3 -5697.2 1480.2 -5704.9 1441.2 -5740.2 1407.5 -5776.2 1379 -5812.7 1355.8 -5849.8 1337.8 -5888.5 1325 -5929.6 1320.5 -5951.1 1317.2 -5973.2 1315.3 -5996 1314.7 -6019.3 1316.6 -6058.1 1322.3 -6095.7 1331.7 -6132.1 1345 -6167.3 1362.1 -6201.3 1382.9 -6234.1 1407.5 -6265.7 1436 -6296.1 1467 -6324 1499.3 -6348.2 1533.1 -6368.7 1568.1 -6385.4 1604.5 -6398.4 1642.3 -6407.8 1681.5 -6413.3 1721.9 -6415.2 1850.7 -6415.2 1888.2 -6413.7 1923.8 -6409.1 1957.4 -6401.4 1989.1 -6390.7 2029.7 -6372.1 2068.6 -6350.6 2105.5 -6326.1 2140.6 -6298.7 2159.5 -6280.6 2176.9 -6259.7 2192.8 -6236 2207.2 -6209.4 2223.6 -6171.1 2235.4 -6131.6 2242.5 -6091 2244.8 -6049.1 2243.6 -6017.1 2240 -5986 2233.9 -5955.8 2225.3 -5926.5 2214.4 -5898 2201 -5870.4 2185.1 -5843.7 2166.9 -5817.9 2152.4 -5800.1 2137.4 -5784.6 2121.8 -5771.3 2105.8 -5760.3 2089.2 -5751.4 2072.1 -5744.8 2054.5 -5740.4 2036.4 -5738.2 2016 -5734.3 2008.3 -5730.9 2002.2 -5726.3 1994.3 -5715.1 1992.4 -5708.5 1991.7 -5701.4 1992.4 -5693.5 1994.6 -5686.4 2003.1 -5674.7 2009.8 -5670.3 2018.4 -5667.1 2029 -5665.2 2041.6 -5664.6 2245.7 -5664.6 2257.9 -5665.2 2268.3 -5667.1 2276.7 -5670.3 2283.4 -5674.7 2291.9 -5686.4 2294 -5693.5 2294.7 -5701.4 2294 -5709.3 2291.9 -5716.4 2283.4 -5728.1 2276.7 -5732.5 2268.3 -5735.6 2257.9 -5737.5 2245.7 -5738.2 2194 -5738.2 2223.2 -5771.8 2248.4 -5807 2269.8 -5843.8 2287.3 -5882.2 2300.9 -5922.2 2310.6 -5963.8 2316.5 -6007 2318.4 -6051.7 2317.4 -6081 2314.6 -6109.8 2309.8 -6138 2303.2 -6165.7 2294.6 -6192.8 2284.2 -6219.5 2271.8 -6245.6 2257.5 -6271.1 2241.5 -6295.7 2223.8 -6319 2204.5 -6341 2183.5 -6361.6 2160.9 -6380.8 2136.7 -6398.7 2110.8 -6415.3 2083.2 -6430.5 2055 -6444.2 2026.8 -6456 1998.8 -6466 1971 -6474.2 1943.3 -6480.6 1915.8 -6485.1 1888.4 -6487.9 1861.2 -6488.8"/><path d="M 1991.7 -98.3 1983.8 -97.6 1976.6 -95.5 1964.6 -86.9 1960 -80.3 1956.7 -71.8 1954.7 -61.5 1954 -49.3 1954 26 1270 328.2 1270 452.6 1954 751.3 1954 825.7 1954.7 838.3 1956.7 848.8 1960 857.3 1964.6 863.8 1976.4 872 1983.3 874.1 1990.8 874.7 1998.8 874.1 2005.9 872 2018 863.8 2022.6 857.3 2025.9 848.8 2027.8 838.3 2028.5 825.7 2028.5 548.9 2027.8 536.7 2025.9 526.4 2022.6 517.9 2018 511.3 2006.2 502.7 1999.3 500.6 1991.7 499.9 1983.8 500.6 1976.6 502.7 1964.6 511.3 1960 517.9 1956.7 526.4 1954.7 536.7 1954 548.9 1954 671.6 1343.6 407 1343.6 374.6 1954 104.9 1954 226.6 1954.7 238.8 1956.7 249.2 1960 257.7 1964.6 264.3 1976.4 272.8 1983.3 275 1990.8 275.7 1998.8 275 2005.9 272.8 2018 264.3 2022.6 257.7 2025.9 249.2 2027.8 238.8 2028.5 226.6 2028.5 -49.3 2027.8 -61.5 2025.9 -71.8 2022.6 -80.3 2018 -86.9 2006.2 -95.5 1999.3 -97.6 1991.7 -98.3"/><path d="M -1818.3 -9697.1 -1826.2 -9696.4 -1833.4 -9694.3 -1845.5 -9685.7 -1850 -9679.1 -1853.3 -9670.6 -1855.3 -9660.3 -1856 -9648.1 -1856 -9512.3 -2345.6 -9512.3 -2370.5 -9511.1 -2394.2 -9507.6 -2416.5 -9501.6 -2437.5 -9493.3 -2457.2 -9482.6 -2475.6 -9469.5 -2492.7 -9454 -2508.5 -9436.1 -2522.6 -9416.3 -2534.9 -9394.7 -2545.3 -9371.6 -2553.8 -9346.8 -2560.4 -9320.3 -2565.1 -9292.3 -2568 -9262.5 -2568.9 -9231.2 -2566.8 -9181.1 -2560.5 -9129.9 -2549.9 -9077.5 -2535.2 -9024 -2518.6 -8975 -2502.7 -8935.9 -2487.3 -8906.9 -2472.6 -8887.8 -2460.7 -8879.3 -2454.5 -8877.2 -2448 -8876.5 -2440.8 -8877.1 -2434.1 -8879.1 -2422.2 -8887 -2414 -8898.3 -2411.9 -8904.7 -2411.3 -8911.5 -2414.1 -8924.4 -2422.6 -8940.4 -2436.3 -8966.9 -2449.2 -8998.2 -2461.5 -9034.3 -2473 -9075.3 -2482.8 -9117.9 -2489.8 -9158.9 -2493.9 -9198.4 -2495.3 -9236.4 -2494.7 -9260.4 -2492.7 -9282.9 -2489.3 -9303.9 -2484.6 -9323.5 -2478.6 -9341.5 -2471.2 -9358 -2462.5 -9373.1 -2452.4 -9386.6 -2429.6 -9409.1 -2417.3 -9417.9 -2404.2 -9425.1 -2390.6 -9430.7 -2376.2 -9434.7 -2361.2 -9437.1 -2345.6 -9437.9 -1856 -9437.9 -1856 -9038.5 -1855.3 -9026.3 -1853.3 -9015.9 -1850 -9007.4 -1845.5 -9000.8 -1833.6 -8992.3 -1826.7 -8990.1 -1819.2 -8989.4 -1811.2 -8990.1 -1804.1 -8992.3 -1792 -9000.8 -1787.4 -9007.4 -1784.1 -9015.9 -1782.2 -9026.3 -1781.5 -9038.5 -1781.5 -9437.9 -1564.3 -9437.9 -1552.1 -9438.5 -1541.7 -9440.5 -1533.3 -9443.8 -1526.6 -9448.4 -1518.1 -9460.4 -1516 -9467.6 -1515.3 -9475.5 -1516 -9483.1 -1518.1 -9490 -1526.6 -9501.8 -1533.3 -9506.4 -1541.7 -9509.7 -1552.1 -9511.7 -1564.3 -9512.3 -1781.5 -9512.3 -1781.5 -9648.1 -1782.2 -9660.3 -1784.1 -9670.6 -1787.4 -9679.1 -1792 -9685.7 -1803.8 -9694.3 -1810.7 -9696.4 -1818.3 -9697.1"/><path d="M -1818.3 -8622.1 -1826.2 -8621.4 -1833.4 -8619.3 -1845.5 -8610.7 -1850 -8604.1 -1853.3 -8595.6 -1855.3 -8585.3 -1856 -8573.1 -1856 -8437.3 -2345.6 -8437.3 -2370.5 -8436.1 -2394.2 -8432.6 -2416.5 -8426.6 -2437.5 -8418.3 -2457.2 -8407.6 -2475.6 -8394.5 -2492.7 -8379 -2508.5 -8361.1 -2522.6 -8341.3 -2534.9 -8319.7 -2545.3 -8296.6 -2553.8 -8271.8 -2560.4 -8245.3 -2565.1 -8217.3 -2568 -8187.5 -2568.9 -8156.2 -2566.8 -8106.1 -2560.5 -8054.9 -2549.9 -8002.5 -2535.2 -7949 -2518.6 -7900 -2502.7 -7860.9 -2487.3 -7831.9 -2472.6 -7812.8 -2460.7 -7804.3 -2454.5 -7802.2 -2448 -7801.5 -2440.8 -7802.1 -2434.1 -7804.1 -2422.2 -7812 -2414 -7823.3 -2411.9 -7829.7 -2411.3 -7836.5 -2414.1 -7849.4 -2422.6 -7865.4 -2436.3 -7891.9 -2449.2 -7923.2 -2461.5 -7959.3 -2473 -8000.3 -2482.8 -8042.9 -2489.8 -8083.9 -2493.9 -8123.4 -2495.3 -8161.4 -2494.7 -8185.4 -2492.7 -8207.9 -2489.3 -8228.9 -2484.6 -8248.5 -2478.6 -8266.5 -2471.2 -8283 -2462.5 -8298.1 -2452.4 -8311.6 -2429.6 -8334.1 -2417.3 -8342.9 -2404.2 -8350.1 -2390.6 -8355.7 -2376.2 -8359.7 -2361.2 -8362.1 -2345.6 -8362.9 -1856 -8362.9 -1856 -7963.5 -1855.3 -7951.3 -1853.3 -7940.9 -1850 -7932.4 -1845.5 -7925.8 -1833.6 -7917.3 -1826.7 -7915.1 -1819.2 -7914.4 -1811.2 -7915.1 -1804.1 -7917.3 -1792 -7925.8 -1787.4 -7932.4 -1784.1 -7940.9 -1782.2 -7951.3 -1781.5 -7963.5 -1781.5 -8362.9 -1564.3 -8362.9 -1552.1 -8363.5 -1541.7 -8365.5 -1533.3 -8368.8 -1526.6 -8373.4 -1518.1 -8385.4 -1516 -8392.6 -1515.3 -8400.5 -1516 -8408.1 -1518.1 -8415 -1526.6 -8426.8 -1533.3 -8431.4 -1541.7 -8434.7 -1552.1 -8436.7 -1564.3 -8437.3 -1781.5 -8437.3 -1781.5 -8573.1 -1782.2 -8585.3 -1784.1 -8595.6 -1787.4 -8604.1 -1792 -8610.7 -1803.8 -8619.3 -1810.7 -8621.4 -1818.3 -8622.1"/><path d="M -1818.3 -22.1 -1826.2 -21.4 -1833.4 -19.3 -1845.5 -10.7 -1850 -4.1 -1853.3 4.4 -1855.3 14.7 -1856 26.9 -1856 162.7 -2345.6 162.7 -2370.5 163.9 -2394.2 167.4 -2416.5 173.4 -2437.5 181.7 -2457.2 192.4 -2475.6 205.5 -2492.7 221 -2508.5 238.9 -2522.6 258.8 -2534.9 280.3 -2545.3 303.4 -2553.8 328.2 -2560.4 354.7 -2565.1 382.7 -2568 412.5 -2568.9 443.8 -2566.8 493.9 -2560.5 545.1 -2549.9 597.5 -2535.2 651 -2518.6 700 -2502.7 739.1 -2487.3 768.1 -2472.6 787.2 -2460.7 795.7 -2454.5 797.8 -2448 798.6 -2440.8 797.9 -2434.1 795.9 -2422.2 788 -2414 776.7 -2411.9 770.3 -2411.3 763.5 -2414.1 750.6 -2422.6 734.6 -2436.3 708.1 -2449.2 676.8 -2461.5 640.7 -2473 599.7 -2482.8 557.1 -2489.8 516.1 -2493.9 476.6 -2495.3 438.6 -2494.7 414.6 -2492.7 392.1 -2489.3 371.1 -2484.6 351.5 -2478.6 333.5 -2471.2 317 -2462.5 301.9 -2452.4 288.4 -2429.6 265.9 -2417.3 257.1 -2404.2 249.9 -2390.6 244.3 -2376.2 240.3 -2361.2 237.9 -2345.6 237.1 -1856 237.1 -1856 636.5 -1855.3 648.7 -1853.3 659.1 -1850 667.6 -1845.5 674.2 -1833.6 682.7 -1826.7 684.9 -1819.2 685.6 -1811.2 684.9 -1804.1 682.7 -1792 674.2 -1787.4 667.6 -1784.1 659.1 -1782.2 648.7 -1781.5 636.5 -1781.5 237.1 -1564.3 237.1 -1552.1 236.5 -1541.7 234.5 -1533.3 231.2 -1526.6 226.6 -1518.1 214.6 -1516 207.4 -1515.3 199.5 -1516 191.9 -1518.1 185 -1526.6 173.2 -1533.3 168.6 -1541.7 165.3 -1552.1 163.3 -1564.3 162.7 -1781.5 162.7 -1781.5 26.9 -1782.2 14.7 -1784.1 4.4 -1787.4 -4.1 -1792 -10.7 -1803.8 -19.3 -1810.7 -21.4 -1818.3 -22.1"/><path d="M -2503.2 2163.8 -2510.8 2164.5 -2517.7 2166.6 -2529.5 2175.2 -2534.1 2181.8 -2537.4 2190.3 -2539.3 2200.6 -2540 2212.8 -2540 2864.5 -2539.3 2877.1 -2537.4 2887.7 -2534.1 2896.3 -2529.5 2903 -2517.7 2911.5 -2510.8 2913.7 -2503.2 2914.4 -2495.3 2913.7 -2488.2 2911.5 -2476.5 2903 -2472.1 2896.3 -2468.9 2887.7 -2467.1 2877.1 -2466.4 2864.5 -2466.4 2575.4 -1440.8 2575.4 -1440.8 2289.9 -1441.5 2277.3 -1443.4 2266.7 -1446.7 2258 -1451.3 2251.4 -1463.1 2242.8 -1470 2240.7 -1477.6 2240 -1485.5 2240.7 -1492.7 2242.9 -1499.1 2246.6 -1504.7 2251.8 -1509.3 2258.6 -1512.6 2267.2 -1514.6 2277.7 -1515.3 2289.9 -1515.3 2501.9 -2466.4 2501.9 -2466.4 2212.8 -2467.1 2200.6 -2468.9 2190.3 -2472.1 2181.8 -2476.5 2175.2 -2488.2 2166.6 -2495.3 2164.5 -2503.2 2163.8"/><path d="M -598.2 -8550.3 -605.8 -8549.6 -612.7 -8547.5 -624.5 -8538.9 -629.1 -8532.3 -632.4 -8523.8 -634.3 -8513.5 -635 -8501.3 -635 -7923.2 -634.3 -7911 -632.4 -7900.6 -629.1 -7892.2 -624.5 -7885.5 -612.7 -7877 -605.8 -7874.9 -598.2 -7874.1 -590.3 -7874.9 -583.2 -7877 -571.5 -7885.5 -567.1 -7892.2 -563.9 -7900.6 -562.1 -7911 -561.4 -7923.2 -561.4 -8175.4 479.1 -8175.4 373.1 -8511.8 365.4 -8529.9 358.2 -8540.7 346.4 -8547.2 333.7 -8549.4 326.5 -8548.7 319.8 -8546.7 307.9 -8538.5 299.6 -8527 297.6 -8520.8 296.9 -8514.4 298.2 -8504.1 302.2 -8489 377.5 -8249 -561.4 -8249 -561.4 -8501.3 -562.1 -8513.5 -563.9 -8523.8 -567.1 -8532.3 -571.5 -8538.9 -583.2 -8547.5 -590.3 -8549.6 -598.2 -8550.3"/><path d="M -598.2 49.7 -605.8 50.4 -612.7 52.5 -624.5 61.1 -629.1 67.7 -632.4 76.2 -634.3 86.5 -635 98.7 -635 676.8 -634.3 689 -632.4 699.4 -629.1 707.8 -624.5 714.5 -612.7 723 -605.8 725.1 -598.2 725.9 -590.3 725.1 -583.2 723 -571.5 714.5 -567.1 707.8 -563.9 699.4 -562.1 689 -561.4 676.8 -561.4 424.6 479.1 424.6 373.1 88.2 365.4 70.1 358.2 59.3 346.4 52.8 333.7 50.6 326.5 51.3 319.8 53.3 307.9 61.5 299.6 73 297.6 79.2 296.9 85.6 298.2 95.9 302.2 111 377.5 351 -561.4 351 -561.4 98.7 -562.1 86.5 -563.9 76.2 -567.1 67.7 -571.5 61.1 -583.2 52.5 -590.3 50.4 -598.2 49.7"/><path d="M 1306.8 1124.7 1299.2 1125.4 1292.3 1127.5 1280.5 1136.1 1275.9 1142.7 1272.6 1151.2 1270.7 1161.5 1270 1173.7 1270 1751.8 1270.7 1764 1272.6 1774.4 1275.9 1782.8 1280.5 1789.5 1292.3 1798 1299.2 1800.1 1306.8 1800.9 1314.7 1800.1 1321.8 1798 1333.5 1789.5 1337.9 1782.8 1341.1 1774.4 1342.9 1764 1343.6 1751.8 1343.6 1499.6 2384.1 1499.6 2278.1 1163.2 2270.4 1145.1 2263.2 1134.3 2251.4 1127.8 2238.7 1125.6 2231.5 1126.3 2224.8 1128.3 2212.9 1136.5 2204.6 1148 2202.6 1154.2 2201.9 1160.6 2203.2 1170.9 2207.2 1186 2282.5 1426 1343.6 1426 1343.6 1173.7 1342.9 1161.5 1341.1 1151.2 1337.9 1142.7 1333.5 1136.1 1321.8 1127.5 1314.7 1125.4 1306.8 1124.7"/><path d="M -1440.8 5409.8 -1580.1 5409.8 -1592.3 5410.5 -1602.6 5412.4 -1611.1 5415.7 -1617.7 5420.3 -1626.3 5432.1 -1628.4 5439 -1629.1 5446.6 -1628.4 5454.5 -1626.3 5461.6 -1617.7 5473.3 -1611.1 5477.7 -1602.6 5480.9 -1592.3 5482.7 -1580.1 5483.4 -1515.3 5483.4 -1515.3 6010.6 -1548.5 6010.6 -2482.2 5719 -2496.2 5715 -2506.7 5713.7 -2519.9 5716.4 -2531.2 5724.2 -2539.1 5736.1 -2541.1 5743 -2541.8 5750.5 -2539.9 5762.1 -2534.3 5772.4 -2523 5781.4 -2504.1 5789.1 -1558.2 6085.1 -1440.8 6085.1 -1440.8 5409.8"/><path d="M -2503.2 -1059.5 -2510.8 -1058.8 -2517.7 -1056.6 -2529.5 -1048.1 -2534.1 -1041.5 -2537.4 -1033 -2539.3 -1022.6 -2540 -1010.4 -2540 -358.8 -2539.3 -346.2 -2537.4 -335.6 -2534.1 -326.9 -2529.5 -320.2 -2517.7 -311.7 -2510.8 -309.6 -2503.2 -308.9 -2495.3 -309.6 -2488.2 -311.7 -2476.5 -320.2 -2472.1 -326.9 -2468.9 -335.6 -2467.1 -346.2 -2466.4 -358.8 -2466.4 -647.8 -1781.5 -647.8 -1781.5 -936 -1782.2 -948.6 -1784.1 -959.2 -1787.4 -967.8 -1792 -974.5 -1804.1 -983 -1811.2 -985.2 -1819.2 -985.9 -1826.7 -985.2 -1833.6 -982.9 -1845.5 -974.1 -1850 -967.3 -1853.3 -958.6 -1855.3 -948.2 -1856 -936 -1856 -721.4 -2466.4 -721.4 -2466.4 -1010.4 -2467.1 -1022.6 -2468.9 -1033 -2472.1 -1041.5 -2476.5 -1048.1 -2488.2 -1056.6 -2495.3 -1058.8 -2503.2 -1059.5"/><path d="M -2653 -4248.6 -2659.4 -4247.9 -2665.6 -4245.8 -2677.1 -4237.6 -2685.3 -4225.7 -2687.3 -4219 -2688 -4211.8 -2686 -4200.5 -2679.9 -4190.3 -2669.8 -4181.2 -2655.6 -4173.2 -1387.4 -3581.2 -1370.5 -3574.6 -1358.5 -3572.4 -1352 -3573.1 -1345.9 -3575.1 -1334.4 -3583.3 -1326.2 -3595.3 -1324.1 -3602 -1323.4 -3609.2 -1325 -3620.6 -1329.6 -3630.2 -1339.2 -3639.2 -1355.8 -3648.6 -2624.1 -4239.8 -2640.5 -4246.4 -2653 -4248.6"/><path d="M -2653 -3173.6 -2659.4 -3172.9 -2665.6 -3170.8 -2677.1 -3162.6 -2685.3 -3150.7 -2687.3 -3144 -2688 -3136.8 -2686 -3125.5 -2679.9 -3115.3 -2669.8 -3106.2 -2655.6 -3098.2 -1387.4 -2506.2 -1370.5 -2499.6 -1358.5 -2497.4 -1352 -2498.1 -1345.9 -2500.1 -1334.4 -2508.3 -1326.2 -2520.3 -1324.1 -2527 -1323.4 -2534.2 -1325 -2545.6 -1329.6 -2555.2 -1339.2 -2564.2 -1355.8 -2573.6 -2624.1 -3164.8 -2640.5 -3171.4 -2653 -3173.6"/><path d="M -2653 4351.4 -2659.4 4352.1 -2665.6 4354.2 -2677.1 4362.4 -2685.3 4374.3 -2687.3 4381 -2688 4388.2 -2686 4399.5 -2679.9 4409.7 -2669.8 4418.8 -2655.6 4426.8 -1387.4 5018.8 -1370.5 5025.4 -1358.5 5027.6 -1352 5026.9 -1345.9 5024.9 -1334.4 5016.7 -1326.2 5004.7 -1324.1 4998 -1323.4 4990.8 -1325 4979.4 -1329.6 4969.8 -1339.2 4960.8 -1355.8 4951.4 -2624.1 4360.2 -2640.5 4353.6 -2653 4351.4"/><path d="M -748 -9623.6 -754.4 -9622.9 -760.6 -9620.8 -772.1 -9612.6 -780.3 -9600.7 -782.3 -9594 -783 -9586.8 -781 -9575.5 -774.9 -9565.3 -764.8 -9556.2 -750.6 -9548.2 517.6 -8956.2 534.5 -8949.6 546.5 -8947.4 553 -8948.1 559.1 -8950.1 570.6 -8958.3 578.8 -8970.3 580.9 -8977 581.6 -8984.2 580 -8995.6 575.4 -9005.2 565.8 -9014.2 549.2 -9023.6 -719.1 -9614.8 -735.5 -9621.4 -748 -9623.6"/><path d="M -748 -6398.6 -754.4 -6397.9 -760.6 -6395.8 -772.1 -6387.6 -780.3 -6375.7 -782.3 -6369 -783 -6361.8 -781 -6350.5 -774.9 -6340.3 -764.8 -6331.2 -750.6 -6323.2 517.6 -5731.2 534.5 -5724.6 546.5 -5722.4 553 -5723.1 559.1 -5725.1 570.6 -5733.3 578.8 -5745.3 580.9 -5752 581.6 -5759.2 580 -5770.6 575.4 -5780.2 565.8 -5789.2 549.2 -5798.6 -719.1 -6389.8 -735.5 -6396.4 -748 -6398.6"/><path d="M -1901.5 -5121.2 -1924.8 -5119 -1946.4 -5112.5 -1966.4 -5101.5 -1984.7 -5086.2 -2000 -5067.8 -2011 -5047.7 -2017.6 -5025.8 -2019.7 -5002.1 -2019.7 -4970.6 -2017.6 -4947.3 -2011.2 -4925.6 -2000.5 -4905.5 -1985.6 -4886.9 -1967.4 -4871.4 -1947 -4860.3 -1924.5 -4853.7 -1899.8 -4851.5 -1876.5 -4853.7 -1854.9 -4860.2 -1834.9 -4871.2 -1816.5 -4886.5 -1801.2 -4904.9 -1790.3 -4925 -1783.7 -4946.9 -1781.5 -4970.6 -1781.5 -5002.1 -1783.6 -5025.4 -1790.1 -5047.1 -1800.7 -5067.2 -1815.7 -5085.8 -1833.8 -5101.3 -1854.2 -5112.4 -1876.8 -5119 -1901.5 -5121.2"/><path d="M 3.5 2403.8 -19.8 2406 -41.4 2412.5 -61.4 2423.5 -79.7 2438.8 -95 2457.2 -106 2477.3 -112.6 2499.2 -114.7 2522.9 -114.7 2554.4 -112.6 2577.7 -106.2 2599.4 -95.5 2619.5 -80.6 2638.1 -62.4 2653.6 -42 2664.7 -19.5 2671.3 5.2 2673.5 28.5 2671.3 50.1 2664.8 70.1 2653.8 88.5 2638.5 103.8 2620.1 114.7 2600 121.3 2578.1 123.5 2554.4 123.5 2522.9 121.4 2499.6 115 2477.9 104.3 2457.8 89.3 2439.2 71.2 2423.7 50.8 2412.6 28.2 2406 3.5 2403.8"/><path d="M -2448 -5121.2 -2471.7 -5119 -2493.5 -5112.5 -2513.5 -5101.5 -2531.7 -5086.2 -2546.8 -5067.8 -2557.6 -5047.7 -2564.1 -5025.8 -2566.3 -5002.1 -2566.3 -4970.6 -2564.1 -4947.3 -2557.7 -4925.6 -2547.1 -4905.5 -2532.1 -4886.9 -2514 -4871.4 -2493.8 -4860.3 -2471.5 -4853.7 -2447.2 -4851.5 -2423.5 -4853.7 -2401.7 -4860.2 -2381.7 -4871.2 -2363.5 -4886.5 -2348.4 -4904.9 -2337.6 -4925 -2331.1 -4946.9 -2328.9 -4970.6 -2328.9 -5002.1 -2331.1 -5025.4 -2337.5 -5047.1 -2348.1 -5067.2 -2363.1 -5085.8 -2381.2 -5101.3 -2401.4 -5112.4 -2423.7 -5119 -2448 -5121.2"/><path d="M -2448 1328.8 -2471.7 1331 -2493.5 1337.5 -2513.5 1348.5 -2531.7 1363.8 -2546.8 1382.2 -2557.6 1402.3 -2564.1 1424.2 -2566.3 1447.9 -2566.3 1479.4 -2564.1 1502.7 -2557.7 1524.4 -2547.1 1544.5 -2532.1 1563.1 -2514 1578.6 -2493.8 1589.7 -2471.5 1596.3 -2447.2 1598.5 -2423.5 1596.3 -2401.7 1589.8 -2381.7 1578.8 -2363.5 1563.5 -2348.4 1545.1 -2337.6 1525 -2331.1 1503.1 -2328.9 1479.4 -2328.9 1447.9 -2331.1 1424.6 -2337.5 1402.9 -2348.1 1382.8 -2363.1 1364.2 -2381.2 1348.7 -2401.4 1337.6 -2423.7 1331 -2448 1328.8"/><path d="M -543 2403.8 -566.7 2406 -588.5 2412.5 -608.5 2423.5 -626.7 2438.8 -641.8 2457.2 -652.6 2477.3 -659.1 2499.2 -661.3 2522.9 -661.3 2554.4 -659.1 2577.7 -652.7 2599.4 -642.1 2619.5 -627.1 2638.1 -609 2653.6 -588.8 2664.7 -566.5 2671.3 -542.2 2673.5 -518.5 2671.3 -496.7 2664.8 -476.7 2653.8 -458.5 2638.5 -443.4 2620.1 -432.6 2600 -426.1 2578.1 -423.9 2554.4 -423.9 2522.9 -426.1 2499.6 -432.5 2477.9 -443.1 2457.8 -458.1 2439.2 -476.2 2423.7 -496.4 2412.6 -518.7 2406 -543 2403.8"/><path d="M -1404 -759 -1594.1 -759 -1594.1 -650.4 -1404 -650.4 -1404 -759"/><path d="M 5528 -22105 5801.1 -22049.8 5669.4 -22090.7 5528 -22105"/><path d="M 5528 -22105 5920.3 -21985 5801.1 -22049.8 5528 -22105"/><path d="M 1215.2 -21070.2 1169.9 -21024.9 1417.3 -20868.1 1215.2 -21070.2"/><path d="M 1417.3 -20868.1 1169.9 -21024.9 1371.9 -20822.8 1417.3 -20868.1"/><path d="M 1417.3 -19509.5 1371.9 -19554.9 1169.9 -19352.8 1417.3 -19509.5"/><path d="M 1215.2 -19307.5 1417.3 -19509.5 1169.9 -19352.8 1215.2 -19307.5"/><path d="M 2887.2 -17544.8 2730.5 -17792.2 2685.2 -17746.9 2887.2 -17544.8"/><path d="M 2932.6 -19262.2 2887.2 -19307.5 2685.2 -19105.5 2932.6 -19262.2"/><path d="M 2932.6 -19262.2 2685.2 -19105.5 2730.5 -19060.1 2932.6 -19262.2"/><path d="M 2887.2 -17544.8 2932.6 -17590.1 2730.5 -17792.2 2887.2 -17544.8"/><path d="M 4179.8 -17590.1 4427.2 -17746.9 4381.8 -17792.2 4179.8 -17590.1"/><path d="M 4179.8 -19262.2 4179.8 -19352.8 3977.8 -19060.1 4179.8 -19262.2"/><path d="M 4427.2 -17746.9 4179.8 -17590.1 4225.1 -17544.8 4427.2 -17746.9"/><path d="M 4179.8 -19262.2 4381.8 -19554.9 4179.8 -19352.8 4179.8 -19262.2"/><path d="M 6024.2 -21899.2 5920.3 -21985 5528 -22105 6024.2 -21899.2"/><path d="M 5528 -22105 6110 -21795.3 6024.2 -21899.2 5528 -22105"/><path d="M 1215.2 -21070.2 635 -21403 1169.9 -21024.9 1215.2 -21070.2"/><path d="M 5528 -22105 6174.8 -21676.1 6110 -21795.3 5528 -22105"/><path d="M 4225.1 -17544.8 4179.8 -17590.1 2932.6 -17590.1 4225.1 -17544.8"/><path d="M 1417.3 -19509.5 1371.9 -20822.8 1371.9 -19554.9 1417.3 -19509.5"/><path d="M 4381.8 -17792.2 4427.2 -17746.9 5695.1 -17746.9 4381.8 -17792.2"/><path d="M 2730.5 -19060.1 2685.2 -19105.5 1417.3 -19105.5 2730.5 -19060.1"/><path d="M 2932.6 -19262.2 3977.8 -19554.9 2887.2 -19307.5 2932.6 -19262.2"/><path d="M 4225.1 -17544.8 2932.6 -17590.1 2887.2 -17544.8 4225.1 -17544.8"/><path d="M 6215.7 -21544.4 6174.8 -21676.1 5528 -22105 6215.7 -21544.4"/><path d="M 6230 -17212 5695.1 -17342.8 6215.7 -17070.6 6230 -17212"/><path d="M 6215.7 -17070.6 5695.1 -17342.8 6174.8 -16938.9 6215.7 -17070.6"/><path d="M 6174.8 -16938.9 5695.1 -17342.8 6110 -16819.7 6174.8 -16938.9"/><path d="M 1215.2 -21070.2 649.3 -21544.4 635 -21403 1215.2 -21070.2"/><path d="M 649.3 -17070.6 1215.2 -17544.8 635 -17212 649.3 -17070.6"/><path d="M 6110 -16819.7 5695.1 -17342.8 6024.2 -16715.8 6110 -16819.7"/><path d="M 5528 -22105 6230 -21403 6215.7 -21544.4 5528 -22105"/><path d="M 6024.2 -16715.8 5695.1 -17342.8 5920.3 -16630 6024.2 -16715.8"/><path d="M 5920.3 -16630 5695.1 -17342.8 5801.1 -16565.2 5920.3 -16630"/><path d="M 3977.8 -19060.1 4179.8 -19352.8 3977.8 -19554.9 3977.8 -19060.1"/><path d="M 4381.8 -19060.1 4381.8 -19554.9 4179.8 -19262.2 4381.8 -19060.1"/><path d="M 5801.1 -16565.2 5695.1 -17342.8 5669.4 -16524.3 5801.1 -16565.2"/><path d="M 1417.3 -21272.2 690.2 -21676.1 649.3 -21544.4 1417.3 -21272.2"/><path d="M 690.2 -16938.9 1417.3 -17342.8 649.3 -17070.6 690.2 -16938.9"/><path d="M 755 -21795.3 690.2 -21676.1 1417.3 -21272.2 755 -21795.3"/><path d="M 755 -16819.7 1417.3 -17342.8 690.2 -16938.9 755 -16819.7"/><path d="M 1417.3 -21272.2 840.8 -21899.2 755 -21795.3 1417.3 -21272.2"/><path d="M 840.8 -16715.8 1417.3 -17342.8 755 -16819.7 840.8 -16715.8"/><path d="M 1417.3 -21272.2 944.7 -21985 840.8 -21899.2 1417.3 -21272.2"/><path d="M 944.7 -16630 1417.3 -17342.8 840.8 -16715.8 944.7 -16630"/><path d="M 5669.4 -16524.3 5695.1 -17342.8 5528 -16510 5669.4 -16524.3"/><path d="M 1063.9 -22049.8 944.7 -21985 1417.3 -21272.2 1063.9 -22049.8"/><path d="M 1063.9 -16565.2 1417.3 -17342.8 944.7 -16630 1063.9 -16565.2"/><path d="M 1417.3 -21272.2 1195.6 -22090.7 1063.9 -22049.8 1417.3 -21272.2"/><path d="M 1195.6 -16524.3 1417.3 -17342.8 1063.9 -16565.2 1195.6 -16524.3"/><path d="M 1417.3 -21272.2 1337 -22105 1195.6 -22090.7 1417.3 -21272.2"/><path d="M 1337 -16510 1417.3 -17342.8 1195.6 -16524.3 1337 -16510"/><path d="M 1417.3 -20868.1 1371.9 -20822.8 2685.2 -19509.5 1417.3 -20868.1"/><path d="M 2685.2 -17746.9 2730.5 -17792.2 1417.3 -19105.5 2685.2 -17746.9"/><path d="M 635 -17212 1215.2 -19307.5 1169.9 -19352.8 635 -17212"/><path d="M 6230 -17212 5897.2 -17544.8 5695.1 -17342.8 6230 -17212"/><path d="M 3134.6 -17792.2 4179.8 -17590.1 3977.8 -17792.2 3134.6 -17792.2"/><path d="M 1169.9 -21024.9 635 -21403 967.9 -20822.8 1169.9 -21024.9"/><path d="M 1417.3 -21272.2 649.3 -21544.4 1215.2 -21070.2 1417.3 -21272.2"/><path d="M 649.3 -17070.6 1417.3 -17342.8 1215.2 -17544.8 649.3 -17070.6"/><path d="M 2887.2 -21070.2 4179.8 -21024.9 2685.2 -21272.2 2887.2 -21070.2"/><path d="M 2932.6 -17590.1 4179.8 -17590.1 3134.6 -17792.2 2932.6 -17590.1"/><path d="M 3977.8 -20822.8 2887.2 -21070.2 2685.2 -20868.1 3977.8 -20822.8"/><path d="M 3977.8 -19554.9 2685.2 -19509.5 2887.2 -19307.5 3977.8 -19554.9"/><path d="M 2685.2 -17342.8 4225.1 -17544.8 2887.2 -17544.8 2685.2 -17342.8"/><path d="M 4179.8 -21024.9 2887.2 -21070.2 3977.8 -20822.8 4179.8 -21024.9"/><path d="M 3134.6 -19060.1 3977.8 -19554.9 2932.6 -19262.2 3134.6 -19060.1"/><path d="M 1417.3 -17746.9 1417.3 -19105.5 1215.2 -17544.8 1417.3 -17746.9"/><path d="M 2685.2 -17342.8 4427.2 -17342.8 4225.1 -17544.8 2685.2 -17342.8"/><path d="M 1215.2 -17544.8 1417.3 -19105.5 1215.2 -19307.5 1215.2 -17544.8"/><path d="M 3977.8 -19060.1 3977.8 -19554.9 3134.6 -19060.1 3977.8 -19060.1"/><path d="M 967.9 -20822.8 635 -21403 967.9 -19554.9 967.9 -20822.8"/><path d="M 4179.8 -21024.9 4381.8 -20822.8 5528 -22105 4179.8 -21024.9"/><path d="M 635 -17212 1169.9 -19352.8 967.9 -19554.9 635 -17212"/><path d="M 4381.8 -19060.1 5695.1 -17746.9 4381.8 -19554.9 4381.8 -19060.1"/><path d="M 6230 -21403 5695.1 -17746.9 5897.2 -17544.8 6230 -21403"/><path d="M 1215.2 -17544.8 1215.2 -19307.5 635 -17212 1215.2 -17544.8"/><path d="M 5528 -16510 5695.1 -17342.8 4427.2 -17342.8 5528 -16510"/><path d="M 2685.2 -21272.2 1337 -22105 1417.3 -21272.2 2685.2 -21272.2"/><path d="M 1337 -16510 2685.2 -17342.8 1417.3 -17342.8 1337 -16510"/><path d="M 3134.6 -17792.2 3977.8 -17792.2 3134.6 -19060.1 3134.6 -17792.2"/><path d="M 3134.6 -19060.1 3977.8 -17792.2 3977.8 -19060.1 3134.6 -19060.1"/><path d="M 967.9 -19554.9 635 -21403 635 -17212 967.9 -19554.9"/><path d="M 6230 -21403 5897.2 -17544.8 6230 -17212 6230 -21403"/><path d="M 5528 -16510 4427.2 -17342.8 2685.2 -17342.8 5528 -16510"/><path d="M 3977.8 -20822.8 2685.2 -20868.1 3977.8 -19554.9 3977.8 -20822.8"/><path d="M 4381.8 -17792.2 5695.1 -17746.9 4381.8 -19060.1 4381.8 -17792.2"/><path d="M 2730.5 -19060.1 1417.3 -19105.5 2730.5 -17792.2 2730.5 -19060.1"/><path d="M 2685.2 -19509.5 1371.9 -20822.8 1417.3 -19509.5 2685.2 -19509.5"/><path d="M 5528 -22105 4381.8 -20822.8 6230 -21403 5528 -22105"/><path d="M 2685.2 -20868.1 1417.3 -20868.1 2685.2 -19509.5 2685.2 -20868.1"/><path d="M 2685.2 -17746.9 1417.3 -19105.5 1417.3 -17746.9 2685.2 -17746.9"/><path d="M 3977.8 -19554.9 2685.2 -20868.1 2685.2 -19509.5 3977.8 -19554.9"/><path d="M 2685.2 -21272.2 4179.8 -21024.9 5528 -22105 2685.2 -21272.2"/><path d="M 4381.8 -20822.8 4381.8 -19554.9 6230 -21403 4381.8 -20822.8"/><path d="M 2685.2 -21272.2 5528 -22105 1337 -22105 2685.2 -21272.2"/><path d="M 5528 -16510 2685.2 -17342.8 1337 -16510 5528 -16510"/><path d="M 4381.8 -19554.9 5695.1 -17746.9 6230 -21403 4381.8 -19554.9"/><path d="M 7440.1 -7164.9 7431.3 -7156.4 7422.3 -7148.2 7413 -7140.3 7403.4 -7132.7 7393.7 -7125.3 7383.6 -7118.4 7373.4 -7111.7 7363 -7105.4 7352.3 -7099.4 7341.5 -7093.7 7330.5 -7088.4 7319.3 -7083.5 7308 -7078.9 7296.5 -7074.7 7284.9 -7070.8 7273.2 -7067.4 7261.4 -7064.3 7249.5 -7061.5 7237.5 -7059.2 7225.5 -7057.3 7213.4 -7055.7 7201.2 -7054.5 7189 -7053.7 7176.8 -7053.3 7164.6 -7053.3 7152.4 -7053.7 7140.2 -7054.5 7128 -7055.7 7115.9 -7057.3 7103.9 -7059.2 7091.9 -7061.5 7080 -7064.3 7068.2 -7067.4 7056.5 -7070.8 7044.9 -7074.7 7033.4 -7078.9 7022.1 -7083.5 7010.9 -7088.4 6999.9 -7093.7 6989.1 -7099.4 6978.4 -7105.4 6968 -7111.7 6957.8 -7118.4 6947.7 -7125.3 6938 -7132.7 6928.4 -7140.3 6919.1 -7148.2 6910.1 -7156.4 6901.3 -7164.9 6892.8 -7173.7 6884.6 -7182.7 6876.7 -7192 6869.1 -7201.6 6861.7 -7211.3 6854.8 -7221.4 6848.1 -7231.6 6841.8 -7242 6835.8 -7252.7 6830.1 -7263.5 6824.8 -7274.5 6819.9 -7285.7 6815.3 -7297 6811.1 -7308.5 6807.2 -7320.1 6803.8 -7331.8 6800.7 -7343.6 6797.9 -7355.5 6795.6 -7367.5 6793.7 -7379.5 6792.1 -7391.6 6790.9 -7403.8 6790.1 -7416 6789.7 -7428.2 6789.7 -7440.4 6790.1 -7452.6 6790.9 -7464.8 6792.1 -7477 6793.7 -7489.1 6795.6 -7501.1 6797.9 -7513.1 6800.7 -7525 6803.8 -7536.8 6807.2 -7548.5 6811.1 -7560.1 6815.3 -7571.6 6819.9 -7582.9 6824.8 -7594.1 6830.1 -7605.1 6835.8 -7615.9 6841.8 -7626.6 6848.1 -7637 6854.8 -7647.2 6861.7 -7657.3 6869.1 -7667 6876.7 -7676.6 6884.6 -7685.9 6892.8 -7694.9 6901.3 -7703.7 6910.1 -7712.2 6919.1 -7720.4 6928.4 -7728.3 6938 -7735.9 6947.7 -7743.3 6957.8 -7750.2 6968 -7756.9 6978.4 -7763.2 6989.1 -7769.2 6999.9 -7774.9 7010.9 -7780.2 7022.1 -7785.1 7033.4 -7789.7 7044.9 -7793.9 7056.5 -7797.8 7068.2 -7801.2 7080 -7804.3 7091.9 -7807.1 7103.9 -7809.4 7115.9 -7811.3 7128 -7812.9 7140.2 -7814.1 7152.4 -7814.9 7164.6 -7815.3 7176.8 -7815.3 7189 -7814.9 7201.2 -7814.1 7213.4 -7812.9 7225.5 -7811.3 7237.5 -7809.4 7249.5 -7807.1 7261.4 -7804.3 7273.2 -7801.2 7284.9 -7797.8 7296.5 -7793.9 7308 -7789.7 7319.3 -7785.1 7330.5 -7780.2 7341.5 -7774.9 7352.3 -7769.2 7363 -7763.2 7373.4 -7756.9 7383.6 -7750.2 7393.7 -7743.3 7403.4 -7735.9 7413 -7728.3 7422.3 -7720.4 7431.3 -7712.2 7440.1 -7703.7 7448.6 -7694.9 7456.8 -7685.9 7464.7 -7676.6 7472.3 -7667 7479.7 -7657.3 7486.6 -7647.2 7493.3 -7637 7499.6 -7626.6 7505.6 -7615.9 7511.3 -7605.1 7516.6 -7594.1 7521.5 -7582.9 7526.1 -7571.6 7530.3 -7560.1 7534.2 -7548.5 7537.6 -7536.8 7540.7 -7525 7543.5 -7513.1 7545.8 -7501.1 7547.7 -7489.1 7549.3 -7477 7550.5 -7464.8 7551.3 -7452.6 7551.7 -7440.4 7551.7 -7428.2 7551.3 -7416 7550.5 -7403.8 7549.3 -7391.6 7547.7 -7379.5 7545.8 -7367.5 7543.5 -7355.5 7540.7 -7343.6 7537.6 -7331.8 7534.2 -7320.1 7530.3 -7308.5 7526.1 -7297 7521.5 -7285.7 7516.6 -7274.5 7511.3 -7263.5 7505.6 -7252.7 7499.6 -7242 7493.3 -7231.6 7486.6 -7221.4 7479.7 -7211.3 7472.3 -7201.6 7464.7 -7192 7456.8 -7182.7 7448.6 -7173.7 7440.1 -7164.9 M -6901.3 7703.7 -6892.8 7694.9 -6884.6 7685.9 -6876.7 7676.6 -6869.1 7667 -6861.7 7657.3 -6854.8 7647.2 -6848.1 7637 -6841.8 7626.6 -6835.8 7615.9 -6830.1 7605.1 -6824.8 7594.1 -6819.9 7582.9 -6815.3 7571.6 -6811.1 7560.1 -6807.2 7548.5 -6803.8 7536.8 -6800.7 7525 -6797.9 7513.1 -6795.6 7501.1 -6793.7 7489.1 -6792.1 7477 -6790.9 7464.8 -6790.1 7452.6 -6789.7 7440.4 -6789.7 7428.2 -6790.1 7416 -6790.9 7403.8 -6792.1 7391.6 -6793.7 7379.5 -6795.6 7367.5 -6797.9 7355.5 -6800.7 7343.6 -6803.8 7331.8 -6807.2 7320.1 -6811.1 7308.5 -6815.3 7297 -6819.9 7285.7 -6824.8 7274.5 -6830.1 7263.5 -6835.8 7252.7 -6841.8 7242 -6848.1 7231.6 -6854.8 7221.4 -6861.7 7211.3 -6869.1 7201.6 -6876.7 7192 -6884.6 7182.7 -6892.8 7173.7 -6901.3 7164.9 -6910.1 7156.4 -6919.1 7148.2 -6928.4 7140.3 -6938 7132.7 -6947.7 7125.3 -6957.8 7118.4 -6968 7111.7 -6978.4 7105.4 -6989.1 7099.4 -6999.9 7093.7 -7010.9 7088.4 -7022.1 7083.5 -7033.4 7078.9 -7044.9 7074.7 -7056.5 7070.8 -7068.2 7067.4 -7080 7064.3 -7091.9 7061.5 -7103.9 7059.2 -7115.9 7057.3 -7128 7055.7 -7140.2 7054.5 -7152.4 7053.7 -7164.6 7053.3 -7176.8 7053.3 -7189 7053.7 -7201.2 7054.5 -7213.4 7055.7 -7225.5 7057.3 -7237.5 7059.2 -7249.5 7061.5 -7261.4 7064.3 -7273.2 7067.4 -7284.9 7070.8 -7296.5 7074.7 -7308 7078.9 -7319.3 7083.5 -7330.5 7088.4 -7341.5 7093.7 -7352.3 7099.4 -7363 7105.4 -7373.4 7111.7 -7383.6 7118.4 -7393.7 7125.3 -7403.4 7132.7 -7413 7140.3 -7422.3 7148.2 -7431.3 7156.4 -7440.1 7164.9 -7448.6 7173.7 -7456.8 7182.7 -7464.7 7192 -7472.3 7201.6 -7479.7 7211.3 -7486.6 7221.4 -7493.3 7231.6 -7499.6 7242 -7505.6 7252.7 -7511.3 7263.5 -7516.6 7274.5 -7521.5 7285.7 -7526.1 7297 -7530.3 7308.5 -7534.2 7320.1 -7537.6 7331.8 -7540.7 7343.6 -7543.5 7355.5 -7545.8 7367.5 -7547.7 7379.5 -7549.3 7391.6 -7550.5 7403.8 -7551.3 7416 -7551.7 7428.2 -7551.7 7440.4 -7551.3 7452.6 -7550.5 7464.8 -7549.3 7477 -7547.7 7489.1 -7545.8 7501.1 -7543.5 7513.1 -7540.7 7525 -7537.6 7536.8 -7534.2 7548.5 -7530.3 7560.1 -7526.1 7571.6 -7521.5 7582.9 -7516.6 7594.1 -7511.3 7605.1 -7505.6 7615.9 -7499.6 7626.6 -7493.3 7637 -7486.6 7647.2 -7479.7 7657.3 -7472.3 7667 -7464.7 7676.6 -7456.8 7685.9 -7448.6 7694.9 -7440.1 7703.7 -7431.3 7712.2 -7422.3 7720.4 -7413 7728.3 -7403.4 7735.9 -7393.7 7743.3 -7383.6 7750.2 -7373.4 7756.9 -7363 7763.2 -7352.3 7769.2 -7341.5 7774.9 -7330.5 7780.2 -7319.3 7785.1 -7308 7789.7 -7296.5 7793.9 -7284.9 7797.8 -7273.2 7801.2 -7261.4 7804.3 -7249.5 7807.1 -7237.5 7809.4 -7225.5 7811.3 -7213.4 7812.9 -7201.2 7814.1 -7189 7814.9 -7176.8 7815.3 -7164.6 7815.3 -7152.4 7814.9 -7140.2 7814.1 -7128 7812.9 -7115.9 7811.3 -7103.9 7809.4 -7091.9 7807.1 -7080 7804.3 -7068.2 7801.2 -7056.5 7797.8 -7044.9 7793.9 -7033.4 7789.7 -7022.1 7785.1 -7010.9 7780.2 -6999.9 7774.9 -6989.1 7769.2 -6978.4 7763.2 -6968 7756.9 -6957.8 7750.2 -6947.7 7743.3 -6938 7735.9 -6928.4 7728.3 -6919.1 7720.4 -6910.1 7712.2 -6901.3 7703.7" fill="none" stroke-width="508"/></g><g id="_Ro4N_jhiOwwmFBQY_Qe_bottom_copper"><g mask="url(#nsL6ZTTr2jJAVudysUCA_clear-1)"><path d="M 6397.5 -27978 6367.8 -27984 -6367.8 -27984 -6395.3 -27978.9 -6420.8 -27962.5 -6438 -27937.5 -6444 -27907.8 -6444 -16829.9 -6435.5 -16795 -6416.6 -16771.4 -6389.9 -16757 -6359.7 -16754.2 -6330.8 -16763.3 -6307.7 -16783.1 -6294.2 -16810.2 -6271.6 -16894.6 -5923.8 -17497 -5432 -17988.8 -4829.6 -18336.6 -4157.8 -18516.6 -3462.2 -18516.6 -2790.4 -18336.6 -2188 -17988.8 -1696.2 -17497 -1348.4 -16894.6 -1168.4 -16222.8 -1168.4 -15527.2 -1348.4 -14855.4 -1696.2 -14253 -2188 -13761.2 -2790.4 -13413.4 -3462.2 -13233.4 -4157.8 -13233.4 -4829.6 -13413.4 -5432 -13761.2 -5923.8 -14253 -6271.6 -14855.4 -6294.2 -14939.8 -6311.4 -14971.3 -6335.9 -14989.2 -6365.4 -14996.2 -6395.3 -14991.1 -6420.8 -14974.8 -6438 -14949.8 -6444 -14920.1 -6444 27907.8 -6438.9 27935.3 -6422.5 27960.8 -6397.5 27978 -6367.8 27984 6367.8 27984 6395.3 27978.9 6420.8 27962.5 6438 27937.5 6444 27907.8 6444 16829.9 6435.5 16795 6416.6 16771.4 6389.9 16757 6359.7 16754.2 6330.8 16763.3 6307.7 16783.1 6294.2 16810.2 6271.6 16894.6 5923.8 17497 5432 17988.8 4829.6 18336.6 4157.8 18516.6 3462.2 18516.6 2790.4 18336.6 2188 17988.8 1696.2 17497 1348.4 16894.6 1168.4 16222.8 1168.4 15527.2 1348.4 14855.4 1696.2 14253 2188 13761.2 2790.4 13413.4 3462.2 13233.4 4157.8 13233.4 4829.6 13413.4 5432 13761.2 5923.8 14253 6271.6 14855.4 6294.2 14939.8 6311.4 14971.3 6335.9 14989.2 6365.4 14996.2 6395.3 14991.1 6420.8 14974.8 6438 14949.8 6444 14920.1 6444 -27907.8 6438.9 -27935.3 6422.5 -27960.8 6397.5 -27978"/></g><use xlink:href="#nsL6ZTTr2jJAVudysUCA_pad-10" x="4445" y="-10160"/><use xlink:href="#nsL6ZTTr2jJAVudysUCA_pad-10" x="3030.8" y="-11574.2"/><use xlink:href="#nsL6ZTTr2jJAVudysUCA_pad-10" x="1616.6" y="-12988.4"/><use xlink:href="#nsL6ZTTr2jJAVudysUCA_pad-10" x="-4445" y="10160"/><use xlink:href="#nsL6ZTTr2jJAVudysUCA_pad-10" x="-3030.8" y="11574.2"/><use xlink:href="#nsL6ZTTr2jJAVudysUCA_pad-10" x="-1616.6" y="12988.4"/><use xlink:href="#nsL6ZTTr2jJAVudysUCA_pad-11" x="1891.3" y="-24000.2"/><use xlink:href="#nsL6ZTTr2jJAVudysUCA_pad-12" x="631.3" y="-24000.2"/><use xlink:href="#nsL6ZTTr2jJAVudysUCA_pad-12" x="-628.7" y="-24000.2"/><use xlink:href="#nsL6ZTTr2jJAVudysUCA_pad-12" x="-1888.7" y="-24000.2"/><use xlink:href="#nsL6ZTTr2jJAVudysUCA_pad-11" x="1891.3" y="24000.2"/><use xlink:href="#nsL6ZTTr2jJAVudysUCA_pad-12" x="631.3" y="24000.2"/><use xlink:href="#nsL6ZTTr2jJAVudysUCA_pad-12" x="-628.7" y="24000.2"/><use xlink:href="#nsL6ZTTr2jJAVudysUCA_pad-12" x="-1888.7" y="24000.2"/></g><g id="_Ro4N_jhiOwwmFBQY_Qe_bottom_soldermask"><use xlink:href="#v57nAeY_AtnJ6rvQS93Y_pad-10" x="-3810" y="-15875"/><use xlink:href="#v57nAeY_AtnJ6rvQS93Y_pad-10" x="3810" y="15875"/><use xlink:href="#v57nAeY_AtnJ6rvQS93Y_pad-11" x="4445" y="-10160"/><use xlink:href="#v57nAeY_AtnJ6rvQS93Y_pad-11" x="3030.8" y="-11574.2"/><use xlink:href="#v57nAeY_AtnJ6rvQS93Y_pad-11" x="1616.6" y="-12988.4"/><use xlink:href="#v57nAeY_AtnJ6rvQS93Y_pad-11" x="-4445" y="10160"/><use xlink:href="#v57nAeY_AtnJ6rvQS93Y_pad-11" x="-3030.8" y="11574.2"/><use xlink:href="#v57nAeY_AtnJ6rvQS93Y_pad-11" x="-1616.6" y="12988.4"/><use xlink:href="#v57nAeY_AtnJ6rvQS93Y_pad-12" x="1891.3" y="-24000.2"/><use xlink:href="#v57nAeY_AtnJ6rvQS93Y_pad-13" x="631.3" y="-24000.2"/><use xlink:href="#v57nAeY_AtnJ6rvQS93Y_pad-13" x="-628.7" y="-24000.2"/><use xlink:href="#v57nAeY_AtnJ6rvQS93Y_pad-13" x="-1888.7" y="-24000.2"/><use xlink:href="#v57nAeY_AtnJ6rvQS93Y_pad-12" x="1891.3" y="24000.2"/><use xlink:href="#v57nAeY_AtnJ6rvQS93Y_pad-13" x="631.3" y="24000.2"/><use xlink:href="#v57nAeY_AtnJ6rvQS93Y_pad-13" x="-628.7" y="24000.2"/><use xlink:href="#v57nAeY_AtnJ6rvQS93Y_pad-13" x="-1888.7" y="24000.2"/></g><g id="_Ro4N_jhiOwwmFBQY_Qe_bottom_drill1"><use xlink:href="#neKOnocFfTkrpv2nq6Oy_pad-1" x="-3810" y="-15875"/><use xlink:href="#neKOnocFfTkrpv2nq6Oy_pad-1" x="3810" y="15875"/><use xlink:href="#neKOnocFfTkrpv2nq6Oy_pad-2" x="1891" y="-24000"/><use xlink:href="#neKOnocFfTkrpv2nq6Oy_pad-2" x="631" y="-24000"/><use xlink:href="#neKOnocFfTkrpv2nq6Oy_pad-2" x="-629" y="-24000"/><use xlink:href="#neKOnocFfTkrpv2nq6Oy_pad-2" x="-1889" y="-24000"/><use xlink:href="#neKOnocFfTkrpv2nq6Oy_pad-2" x="1891" y="24000"/><use xlink:href="#neKOnocFfTkrpv2nq6Oy_pad-2" x="631" y="24000"/><use xlink:href="#neKOnocFfTkrpv2nq6Oy_pad-2" x="-629" y="24000"/><use xlink:href="#neKOnocFfTkrpv2nq6Oy_pad-2" x="-1889" y="24000"/><use xlink:href="#neKOnocFfTkrpv2nq6Oy_pad-3" x="4445" y="-10160"/><use xlink:href="#neKOnocFfTkrpv2nq6Oy_pad-3" x="3031" y="-11574"/><use xlink:href="#neKOnocFfTkrpv2nq6Oy_pad-3" x="1617" y="-12988"/><use xlink:href="#neKOnocFfTkrpv2nq6Oy_pad-3" x="-4445" y="10160"/><use xlink:href="#neKOnocFfTkrpv2nq6Oy_pad-3" x="-3031" y="11574"/><use xlink:href="#neKOnocFfTkrpv2nq6Oy_pad-3" x="-1617" y="12988"/></g><clipPath id="_Ro4N_jhiOwwmFBQY_Qe_bottom_outline"><path d="M -7460 -29000 7460 -29000 7460 29000 -7460 29000 -7460 -29000" fill="none" stroke-width="254"/></clipPath><mask id="_Ro4N_jhiOwwmFBQY_Qe_bottom_mech-mask"><g fill="#000" stroke="#000"><rect x="-7460" y="-29000" width="14920" height="58000" fill="#fff"/><use xlink:href="#_Ro4N_jhiOwwmFBQY_Qe_bottom_drill1"/></g></mask><mask id="_Ro4N_jhiOwwmFBQY_Qe_bottom_cf-mask"><g fill="#fff" stroke="#fff"><use xlink:href="#_Ro4N_jhiOwwmFBQY_Qe_bottom_soldermask"/></g></mask><mask id="_Ro4N_jhiOwwmFBQY_Qe_bottom_sm-mask"><g fill="#000" stroke="#000"><rect x="-7460" y="-29000" width="14920" height="58000" fill="#fff"/><use xlink:href="#_Ro4N_jhiOwwmFBQY_Qe_bottom_soldermask"/></g></mask></defs><g transform="translate(0,0) scale(1,-1)"><g mask="url(#_Ro4N_jhiOwwmFBQY_Qe_bottom_mech-mask)" clip-path="url(#_Ro4N_jhiOwwmFBQY_Qe_bottom_outline)" transform="translate(0,0) scale(-1,1)"><rect x="-7460" y="-29000" width="14920" height="58000" fill="currentColor" class="_Ro4N_jhiOwwmFBQY_Qe_fr4"/><use xlink:href="#_Ro4N_jhiOwwmFBQY_Qe_bottom_copper" fill="currentColor" stroke="currentColor" class="_Ro4N_jhiOwwmFBQY_Qe_cu"/><use xlink:href="#_Ro4N_jhiOwwmFBQY_Qe_bottom_copper" fill="currentColor" stroke="currentColor" class="_Ro4N_jhiOwwmFBQY_Qe_cf" mask="url(#_Ro4N_jhiOwwmFBQY_Qe_bottom_cf-mask)"/><g mask="url(#_Ro4N_jhiOwwmFBQY_Qe_bottom_sm-mask)"><rect x="-7460" y="-29000" width="14920" height="58000" fill="currentColor" class="_Ro4N_jhiOwwmFBQY_Qe_sm"/><use xlink:href="#_Ro4N_jhiOwwmFBQY_Qe_bottom_silkscreen" fill="currentColor" stroke="currentColor" class="_Ro4N_jhiOwwmFBQY_Qe_ss"/></g></g></g></svg>