<svg version="1.1" xmlns="http://www.w3.org/2000/svg" xmlns:xlink="http://www.w3.org/1999/xlink" stroke-linecap="round" stroke-linejoin="round" stroke-width="0" fill-rule="evenodd" clip-rule="evenodd" id="mWK6h_tjL_oHYC457vci_top" viewBox="-7460 -29000 14920 58000" width="14.92mm" height="58mm" class="w-100 h-100"><defs><style>.mWK6h_tjL_oHYC457vci_fr4 {color: #666666;}
.mWK6h_tjL_oHYC457vci_cu {color: #cccccc;}
.mWK6h_tjL_oHYC457vci_cf {color: #cc9933;}
.mWK6h_tjL_oHYC457vci_sm {color: #004200; opacity: 0.75;}
.mWK6h_tjL_oHYC457vci_ss {color: #ffffff;}
.mWK6h_tjL_oHYC457vci_sp {color: #999999;}
.mWK6h_tjL_oHYC457vci_out {color: #000000;}</style><circle cx="0" cy="0" r="1727.2" id="BnNY3sm102wLdtrwEcWP_pad-10"/><circle cx="0" cy="0" r="711.2" id="BnNY3sm102wLdtrwEcWP_pad-11"/><rect x="-673.1" y="-673.1" width="1346.2" height="1346.2" id="BnNY3sm102wLdtrwEcWP_pad-12"/><circle cx="0" cy="0" r="673.1" id="BnNY3sm102wLdtrwEcWP_pad-13"/><mask id="IHU5oDywyTgD7HgUbeCU_clear-1" fill="#000" stroke="#000"><g><rect x="-7031" y="-18605.5" width="6501.2" height="5462.3" fill="#fff"/><path d="M -2366.6 -18075.1 -1147.9 -15874.4 -2366.6 -13673.7 -5194.2 -13673.7 -6421.7 -15874.4 -5194.2 -18075.1 -2366.6 -18075.1"/></g></mask><mask id="IHU5oDywyTgD7HgUbeCU_clear-2" fill="#000" stroke="#000"><g><rect x="-7031" y="-18605.5" width="14121.2" height="37212.3" fill="#fff"/><path d="M 5253.4 13674.9 6472.1 15875.6 5253.4 18076.3 2425.8 18076.3 1198.3 15875.6 2425.8 13674.9 5253.4 13674.9"/></g></mask><mask id="IHU5oDywyTgD7HgUbeCU_clear-3" fill="#000" stroke="#000"><g><rect x="-7031" y="-18605.5" width="14121.2" height="37212.3" fill="#fff"/><path d="M 1328.1 5198.8 1371.4 5202.9 1413.6 5212.1 1454.8 5226.2 1495.1 5245.4 1534.3 5269.5 1572.5 5298.7 1609.7 5332.9 1644.9 5371 1675 5409.9 1700 5449.4 1719.9 5489.7 1734.7 5530.7 1744.4 5572.4 1748.9 5614.9 1748.4 5658 1742.8 5701.5 1732.3 5744.8 1716.9 5788 1696.5 5831.1 1671.2 5874.1 1641 5917 1605.8 5959.7 1565.7 6002.4 1524.8 6040.7 1483.5 6074.3 1441.9 6103.2 1400 6127.4 1357.6 6146.8 1314.9 6161.5 1271.9 6171.5 1228.5 6176.7 1185.3 6177.1 1142.9 6172.4 1101.3 6162.8 1060.6 6148.1 1020.6 6128.5 981.4 6103.8 943.1 6074.2 905.5 6039.5 870.5 6001.7 840.5 5963.1 815.6 5923.8 795.6 5883.8 780.6 5843 770.6 5801.5 765.6 5759.2 765.5 5716.2 770.4 5673 780.2 5630 794.8 5587.3 814.3 5544.8 838.6 5502.6 867.8 5460.7 901.9 5418.9 940.8 5377.5 982.1 5338.8 1023.8 5304.8 1066 5275.5 1108.6 5251 1151.8 5231.1 1195.3 5215.9 1239.4 5205.5 1283.9 5199.7 1328.1 5198.8"/></g></mask><mask id="IHU5oDywyTgD7HgUbeCU_clear-4" fill="#000" stroke="#000"><g><rect x="-7031" y="-22095.2" width="14121.2" height="40702" fill="#fff"/><path d="M 5420.7 -21961.2 5454.1 -21960.3 5486.5 -21957.5 5517.9 -21952.8 5548.2 -21946.3 5577.6 -21937.9 5605.9 -21927.7 5633.1 -21915.6 5659.4 -21901.6 5684.4 -21885.9 5707.8 -21868.6 5729.8 -21849.6 5750.3 -21828.9 5769.4 -21806.7 5786.9 -21782.7 5802.9 -21757.2 5817.5 -21730 5830.4 -21701.3 5841.6 -21671.4 5851.1 -21640.2 5858.8 -21607.8 5864.9 -21574.1 5869.2 -21539.1 5871.8 -21502.9 5872.6 -21465.5 5870.7 -21409.8 5864.8 -21357.5 5855 -21308.7 5841.2 -21263.3 5823.5 -21221.2 5801.9 -21182.6 5776.4 -21147.4 5747 -21115.6 5713.8 -21087.3 5677.1 -21062.9 5636.9 -21042.2 5593.1 -21025.2 5545.9 -21012.1 5495.1 -21002.7 5440.8 -20997 5383 -20995.1 5145.7 -20995.1 5145.7 -21961.2 5420.7 -21961.2"/></g></mask><mask id="IHU5oDywyTgD7HgUbeCU_clear-5" fill="#000" stroke="#000"><g><rect x="-7031" y="-22095.2" width="14121.2" height="49234.5" fill="#fff"/><path d="M 5420.7 26039.2 5454.1 26040.1 5486.5 26042.9 5517.9 26047.6 5548.2 26054.1 5577.6 26062.5 5605.9 26072.7 5633.1 26084.8 5659.4 26098.8 5684.4 26114.5 5707.8 26131.8 5729.8 26150.8 5750.3 26171.5 5769.4 26193.7 5786.9 26217.7 5802.9 26243.2 5817.5 26270.4 5830.4 26299.1 5841.6 26329 5851.1 26360.2 5858.8 26392.6 5864.9 26426.3 5869.2 26461.3 5871.8 26497.5 5872.6 26534.9 5870.7 26590.6 5864.8 26642.9 5855 26691.7 5841.2 26737.2 5823.5 26779.2 5801.9 26817.8 5776.4 26853 5747 26884.8 5713.8 26913.1 5677.1 26937.5 5636.9 26958.2 5593.1 26975.2 5545.9 26988.3 5495.1 26997.7 5440.8 27003.4 5383 27005.3 5145.7 27005.3 5145.7 26039.2 5420.7 26039.2"/></g></mask><mask id="YfEQfOg1vXR1mUhvm3xr_clear-1" fill="#000" stroke="#000"><g><rect x="-6444" y="-27984" width="12888" height="55968" fill="#fff"/><path d="M 707.5 -24825.7 795.5 -24825.7 1098.9 -24700 1111.9 -24687.1 1134.9 -24671.3 1164.5 -24664.8 1194.4 -24670.3 1219.6 -24687.1 1256.7 -24724.1 2525.9 -24724.1 2615.2 -24634.8 2615.2 -23365.6 2525.9 -23276.3 2196.1 -23276.3 2168.6 -23271.2 2143.1 -23254.8 2125.9 -23229.8 2119.9 -23200.1 2119.9 -14745 2125.5 -14716.4 2142.2 -14691.1 5943.6 -10889.7 5943.6 -5620.3 -5464.1 5787.4 -5480.4 5811.5 -5486.4 5841.3 -5486.4 10668.7 -5480.8 10697.3 -5464.1 10722.6 -1660.1 14526.6 -1660.1 23260.4 -1654.8 23288.5 -1638.2 23313.9 -1613.1 23330.8 -1478.6 23386.5 -1312.6 23552.6 -1289.5 23568.4 -1259.9 23574.9 -1230.1 23569.3 -1204.8 23552.6 -1038.8 23386.5 -772.7 23276.3 -484.7 23276.3 -218.6 23386.5 -124.4 23480.7 -101.4 23496.5 -71.8 23503 -41.9 23497.5 -16.7 23480.7 163.7 23300.4 467.1 23174.7 555.1 23174.7 555.1 24825.7 467.1 24825.7 163.7 24700 -16.7 24519.7 -39.7 24503.9 -69.3 24497.4 -99.1 24502.9 -124.4 24519.7 -218.6 24613.9 -484.7 24724.1 -772.7 24724.1 -1038.8 24613.9 -1204.8 24447.8 -1227.9 24432 -1257.5 24425.5 -1287.3 24431.1 -1312.6 24447.8 -1478.6 24613.9 -1744.7 24724.1 -2032.7 24724.1 -2298.8 24613.9 -2502.4 24410.3 -2612.6 24144.2 -2612.6 23856.2 -2502.4 23590.1 -2298.8 23386.5 -2164.3 23330.8 -2140.5 23315.2 -2123.3 23290.2 -2117.3 23260.4 -2117.3 14747.6 -2122.9 14719 -2139.6 14693.7 -5943.6 10889.7 -5943.6 5620.3 5464.1 -5787.4 5480.4 -5811.5 5486.4 -5841.3 5486.4 -10668.7 5480.8 -10697.3 5464.1 -10722.6 1662.7 -14524 1662.7 -23200.1 1657.6 -23227.6 1641.2 -23253.1 1616.2 -23270.3 1586.5 -23276.3 1256.7 -23276.3 1219.6 -23313.3 1196.6 -23329.1 1167 -23335.6 1137.2 -23330.1 1111.9 -23313.3 1098.9 -23300.4 795.5 -23174.7 707.5 -23174.7 707.5 -24825.7"/><path d="M -3182.4 10812.2 -2879.2 10812.2 -2599.1 10928.2 -2384.8 11142.6 -2320.2 11298.6 -2304.5 11322.4 -2279.5 11339.6 -2249.8 11345.6 238.9 11345.6 849.9 11956.6 849.9 20063.9 855.5 20092.5 872.2 20117.8 2119.9 21365.5 2119.9 23200.1 2125 23227.6 2141.4 23253.1 2166.4 23270.3 2196.1 23276.3 2525.9 23276.3 2615.2 23365.6 2615.2 24634.8 2525.9 24724.1 1256.7 24724.1 1219.6 24687.1 1196.6 24671.3 1167 24664.8 1137.2 24670.3 1111.9 24687.1 1098.9 24700 795.5 24825.7 707.5 24825.7 707.5 23174.7 795.5 23174.7 1098.9 23300.4 1111.9 23313.3 1134.9 23329.1 1164.5 23335.6 1194.4 23330.1 1219.6 23313.3 1256.7 23276.3 1586.5 23276.3 1614 23271.2 1639.5 23254.8 1656.7 23229.8 1662.7 23200.1 1662.7 21586.5 1657.1 21557.9 1640.4 21532.6 392.7 20284.9 392.7 12177.6 387.1 12149 370.4 12123.7 71.8 11825.1 47.7 11808.8 18 11802.8 -2249.8 11802.8 -2277.8 11808.2 -2303.2 11824.7 -2320.2 11849.9 -2384.8 12005.9 -2599.1 12220.2 -2879.2 12336.2 -3182.4 12336.2 -3462.4 12220.2 -3676.8 12005.9 -3792.8 11725.8 -3792.8 11422.6 -3676.8 11142.6 -3462.4 10928.2 -3182.4 10812.2"/><path d="M -1768.1 12226.4 -1465 12226.4 -1184.9 12342.4 -970.6 12556.8 -854.6 12836.9 -854.6 13140 -970.6 13420.1 -1184.9 13634.4 -1465 13750.4 -1768.1 13750.4 -2048.2 13634.4 -2262.6 13420.1 -2378.6 13140 -2378.6 12836.9 -2262.6 12556.8 -2048.2 12342.4 -1768.1 12226.4"/><path d="M -5001.8 10824.5 -4445 10267.8 -3888.2 10824.5 -3955.8 10892.1 -4273.2 11023.6 -4616.8 11023.6 -4934.2 10892.1 -5001.8 10824.5"/><path d="M -5177.1 9670.8 -5109.5 9603.2 -4552.8 10160 -5109.5 10716.8 -5177.1 10649.2 -5308.6 10331.8 -5308.6 9988.2 -5177.1 9670.8"/><path d="M -4337.2 10160 -3780.5 9603.2 -3712.9 9670.8 -3581.4 9988.2 -3581.4 10331.8 -3712.9 10649.2 -3780.5 10716.8 -4337.2 10160"/><path d="M -4616.8 9296.4 -4273.2 9296.4 -3955.8 9427.9 -3888.2 9495.5 -4445 10052.2 -5001.8 9495.5 -4934.2 9427.9 -4616.8 9296.4"/><path d="M 3888.2 -9495.5 4445 -10052.2 5001.8 -9495.5 4934.2 -9427.9 4616.8 -9296.4 4273.2 -9296.4 3955.8 -9427.9 3888.2 -9495.5"/><path d="M 3712.9 -10649.2 3780.5 -10716.8 4337.2 -10160 3780.5 -9603.2 3712.9 -9670.8 3581.4 -9988.2 3581.4 -10331.8 3712.9 -10649.2"/><path d="M 4552.8 -10160 5109.5 -10716.8 5177.1 -10649.2 5308.6 -10331.8 5308.6 -9988.2 5177.1 -9670.8 5109.5 -9603.2 4552.8 -10160"/><path d="M 4273.2 -11023.6 4616.8 -11023.6 4934.2 -10892.1 5001.8 -10824.5 4445 -10267.8 3888.2 -10824.5 3955.8 -10892.1 4273.2 -11023.6"/><path d="M 467.1 -24825.7 555.1 -24825.7 555.1 -23174.7 467.1 -23174.7 163.7 -23300.4 -16.7 -23480.7 -39.7 -23496.5 -69.3 -23503 -99.1 -23497.5 -124.4 -23480.7 -218.6 -23386.5 -484.7 -23276.3 -772.7 -23276.3 -1038.8 -23386.5 -1204.8 -23552.6 -1227.9 -23568.4 -1257.5 -23574.9 -1287.3 -23569.3 -1312.6 -23552.6 -1478.6 -23386.5 -1613.1 -23330.8 -1636.9 -23315.2 -1654.1 -23290.2 -1660.1 -23260.4 -1660.1 -21586.5 -1654.5 -21557.9 -1637.8 -21532.6 -390.1 -20284.9 -390.1 -12175 -384.5 -12146.4 -367.8 -12121.1 -71.8 -11825.1 -47.7 -11808.8 -18 -11802.8 2249.8 -11802.8 2277.8 -11808.2 2303.2 -11824.7 2320.2 -11849.9 2384.8 -12005.9 2599.1 -12220.2 2879.2 -12336.2 3182.4 -12336.2 3462.4 -12220.2 3676.8 -12005.9 3792.8 -11725.8 3792.8 -11422.6 3676.8 -11142.6 3462.4 -10928.2 3182.4 -10812.2 2879.2 -10812.2 2599.1 -10928.2 2384.8 -11142.6 2320.2 -11298.6 2304.5 -11322.4 2279.5 -11339.6 2249.8 -11345.6 -238.9 -11345.6 -847.3 -11954 -847.3 -20063.9 -852.9 -20092.5 -869.6 -20117.8 -2117.3 -21365.5 -2117.3 -23260.4 -2122.6 -23288.5 -2139.2 -23313.9 -2164.3 -23330.8 -2298.8 -23386.5 -2502.4 -23590.1 -2612.6 -23856.2 -2612.6 -24144.2 -2502.4 -24410.3 -2298.8 -24613.9 -2032.7 -24724.1 -1744.7 -24724.1 -1478.6 -24613.9 -1312.6 -24447.8 -1289.5 -24432 -1259.9 -24425.5 -1230.1 -24431.1 -1204.8 -24447.8 -1038.8 -24613.9 -772.7 -24724.1 -484.7 -24724.1 -218.6 -24613.9 -124.4 -24519.7 -101.4 -24503.9 -71.8 -24497.4 -41.9 -24502.9 -16.7 -24519.7 163.7 -24700 467.1 -24825.7"/><path d="M 1465 -13750.4 1768.1 -13750.4 2048.2 -13634.4 2262.6 -13420.1 2378.6 -13140 2378.6 -12836.9 2262.6 -12556.8 2048.2 -12342.4 1768.1 -12226.4 1465 -12226.4 1184.9 -12342.4 970.6 -12556.8 854.6 -12836.9 854.6 -13140 970.6 -13420.1 1184.9 -13634.4 1465 -13750.4"/></g></mask><circle cx="0" cy="0" r="609.6" id="YfEQfOg1vXR1mUhvm3xr_pad-10"/><rect x="-571.5" y="-571.5" width="1143" height="1143" id="YfEQfOg1vXR1mUhvm3xr_pad-11"/><circle cx="0" cy="0" r="571.5" id="YfEQfOg1vXR1mUhvm3xr_pad-12"/><circle cx="0" cy="0" r="1625.5" id="NLlonjR9P5aYKO-zJpI7_pad-1"/><circle cx="0" cy="0" r="381" id="NLlonjR9P5aYKO-zJpI7_pad-2"/><circle cx="0" cy="0" r="355.5" id="NLlonjR9P5aYKO-zJpI7_pad-3"/><g id="mWK6h_tjL_oHYC457vci_top_soldermask"><use xlink:href="#BnNY3sm102wLdtrwEcWP_pad-10" x="-3810" y="-15875"/><use xlink:href="#BnNY3sm102wLdtrwEcWP_pad-10" x="3810" y="15875"/><use xlink:href="#BnNY3sm102wLdtrwEcWP_pad-11" x="4445" y="-10160"/><use xlink:href="#BnNY3sm102wLdtrwEcWP_pad-11" x="3030.8" y="-11574.2"/><use xlink:href="#BnNY3sm102wLdtrwEcWP_pad-11" x="1616.6" y="-12988.4"/><use xlink:href="#BnNY3sm102wLdtrwEcWP_pad-11" x="-4445" y="10160"/><use xlink:href="#BnNY3sm102wLdtrwEcWP_pad-11" x="-3030.8" y="11574.2"/><use xlink:href="#BnNY3sm102wLdtrwEcWP_pad-11" x="-1616.6" y="12988.4"/><use xlink:href="#BnNY3sm102wLdtrwEcWP_pad-12" x="1891.3" y="-24000.2"/><use xlink:href="#BnNY3sm102wLdtrwEcWP_pad-13" x="631.3" y="-24000.2"/><use xlink:href="#BnNY3sm102wLdtrwEcWP_pad-13" x="-628.7" y="-24000.2"/><use xlink:href="#BnNY3sm102wLdtrwEcWP_pad-13" x="-1888.7" y="-24000.2"/><use xlink:href="#BnNY3sm102wLdtrwEcWP_pad-12" x="1891.3" y="24000.2"/><use xlink:href="#BnNY3sm102wLdtrwEcWP_pad-13" x="631.3" y="24000.2"/><use xlink:href="#BnNY3sm102wLdtrwEcWP_pad-13" x="-628.7" y="24000.2"/><use xlink:href="#BnNY3sm102wLdtrwEcWP_pad-13" x="-1888.7" y="24000.2"/></g><g id="mWK6h_tjL_oHYC457vci_top_silkscreen"><g mask="url(#IHU5oDywyTgD7HgUbeCU_clear-5)"><g mask="url(#IHU5oDywyTgD7HgUbeCU_clear-4)"><g mask="url(#IHU5oDywyTgD7HgUbeCU_clear-3)"><g mask="url(#IHU5oDywyTgD7HgUbeCU_clear-2)"><g mask="url(#IHU5oDywyTgD7HgUbeCU_clear-1)"><path d="M -2046.6 -18605.5 -5514.2 -18605.5 -7031 -15874.4 -5514.2 -13143.2 -2046.6 -13143.2 -529.8 -15874.4 -2046.6 -18605.5"/></g><path d="M -4759.3 -12700 -4908.2 -12700 -4908.2 -11465.9 -4688.3 -11465.9 -4359.9 -12321.6 -4342.7 -12375.2 -4326.2 -12432.4 -4304.7 -12517.8 -4293.9 -12473.7 -4275.4 -12411.4 -4256.6 -12353.3 -4245.2 -12321.6 -3922.8 -11465.9 -3708.3 -11465.9 -3708.3 -12700 -3858.9 -12700 -3858.9 -11876.7 -3856.9 -11742.7 -3851 -11613.9 -3891.7 -11753.6 -3910.5 -11810.7 -3928.1 -11859.2 -4246.9 -12700 -4364.3 -12700 -4687.5 -11859.2 -4736.5 -11710.3 -4765.4 -11613.9 -4762.8 -11711.2 -4759.3 -11876.7 -4759.3 -12700"/><path d="M -3061.5 -12717.5 -3107.1 -12716.2 -3150.4 -12712.2 -3191.4 -12705.6 -3229.9 -12696.4 -3266.1 -12684.5 -3300 -12670 -3331.5 -12652.8 -3360.6 -12633 -3387.1 -12610.6 -3410.7 -12585.7 -3431.6 -12558.2 -3449.6 -12528.2 -3464.7 -12495.7 -3477.1 -12460.6 -3486.6 -12423.1 -3493.2 -12382.9 -3330.3 -12368.1 -3325.6 -12394.6 -3319.2 -12419.4 -3311.3 -12442.5 -3301.7 -12463.9 -3290.5 -12483.5 -3277.7 -12501.5 -3263.4 -12517.7 -3247.4 -12532.3 -3229.7 -12545.1 -3210.5 -12556.2 -3189.7 -12565.6 -3167.3 -12573.3 -3143.2 -12579.3 -3117.6 -12583.6 -3090.3 -12586.2 -3061.5 -12587 -3032.5 -12586.1 -3005.1 -12583.4 -2979.3 -12578.8 -2955.1 -12572.3 -2932.6 -12564.1 -2911.6 -12554 -2892.2 -12542.1 -2874.5 -12528.3 -2858.5 -12512.8 -2844.8 -12495.4 -2833.1 -12476.3 -2823.5 -12455.4 -2816.1 -12432.7 -2810.8 -12408.3 -2807.6 -12382.1 -2806.6 -12354 -2807.8 -12329.6 -2811.4 -12306.4 -2817.5 -12284.7 -2826 -12264.4 -2836.9 -12245.4 -2850.2 -12227.8 -2865.9 -12211.6 -2884.1 -12196.8 -2904.5 -12183.6 -2927.1 -12172.1 -2951.9 -12162.4 -2978.8 -12154.5 -3007.8 -12148.3 -3039 -12143.9 -3072.4 -12141.2 -3107.9 -12140.3 -3197.2 -12140.3 -3197.2 -12003.7 -3111.4 -12003.7 -3079.9 -12002.8 -3050.2 -12000.2 -3022.3 -11995.8 -2996.3 -11989.6 -2972.1 -11981.6 -2949.7 -11971.9 -2929.1 -11960.4 -2910.4 -11947.2 -2893.6 -11932.4 -2879.1 -11916.3 -2866.9 -11898.7 -2856.8 -11879.9 -2849 -11859.7 -2843.4 -11838.1 -2840.1 -11815.2 -2839 -11790.9 -2839.9 -11766.8 -2842.6 -11744 -2847.2 -11722.5 -2853.5 -11702.3 -2861.7 -11683.4 -2871.7 -11665.8 -2883.6 -11649.5 -2897.2 -11634.5 -2912.7 -11621.1 -2929.9 -11609.4 -2948.9 -11599.6 -2969.6 -11591.5 -2992.1 -11585.2 -3016.4 -11580.7 -3042.4 -11578.1 -3070.2 -11577.2 -3095.6 -11578 -3119.8 -11580.5 -3142.8 -11584.7 -3164.5 -11590.5 -3184.9 -11598 -3204.1 -11607.2 -3222.1 -11618.1 -3238.8 -11630.6 -3254.1 -11644.6 -3267.6 -11660 -3279.5 -11676.8 -3289.7 -11695 -3298.2 -11714.5 -3305.1 -11735.4 -3310.2 -11757.6 -3313.7 -11781.2 -3472.2 -11769 -3466.4 -11732.1 -3457.8 -11697.4 -3446.3 -11664.7 -3432 -11634.1 -3414.9 -11605.6 -3395 -11579.1 -3372.2 -11554.8 -3346.5 -11532.5 -3318.5 -11512.6 -3288.6 -11495.3 -3256.7 -11480.7 -3222.9 -11468.8 -3187.2 -11459.5 -3149.6 -11452.8 -3110 -11448.9 -3068.5 -11447.5 -3023.3 -11448.9 -2980.8 -11452.9 -2940.8 -11459.7 -2903.5 -11469.1 -2868.7 -11481.2 -2836.5 -11496.1 -2806.9 -11513.6 -2779.9 -11533.8 -2755.7 -11556.4 -2734.8 -11581.2 -2717.2 -11608.1 -2702.7 -11637 -2691.4 -11668.2 -2683.4 -11701.4 -2678.6 -11736.7 -2677 -11774.2 -2678 -11803.1 -2681.1 -11830.6 -2686.3 -11856.7 -2693.5 -11881.4 -2702.8 -11904.7 -2714.1 -11926.7 -2727.6 -11947.3 -2743.1 -11966.5 -2760.5 -11984.2 -2779.9 -12000.5 -2801.1 -12015.3 -2824.2 -12028.6 -2849.2 -12040.3 -2876 -12050.6 -2904.7 -12059.4 -2935.3 -12066.8 -2935.3 -12070.3 -2901.7 -12075 -2870 -12081.6 -2840.2 -12090.3 -2812.3 -12100.9 -2786.3 -12113.5 -2762.2 -12128.1 -2740.1 -12144.6 -2719.9 -12163.1 -2701.8 -12183.2 -2686.1 -12204.6 -2672.9 -12227.2 -2662.1 -12251.1 -2653.6 -12276.3 -2647.6 -12302.7 -2644 -12330.4 -2642.8 -12359.3 -2644.5 -12400.8 -2649.6 -12439.9 -2658.1 -12476.6 -2669.9 -12510.8 -2685.2 -12542.7 -2703.9 -12572.1 -2725.9 -12599.2 -2751.4 -12623.8 -2780 -12645.8 -2811.5 -12664.8 -2845.9 -12680.9 -2883.2 -12694.1 -2923.4 -12704.3 -2966.5 -12711.7 -3012.5 -12716.1 -3061.5 -12717.5"/><path d="M 5573.4 13144.5 2105.8 13144.5 589 15875.6 2105.8 18606.8 5573.4 18606.8 7090.2 15875.6 5573.4 13144.5"/></g><path d="M 2860.7 11430 2711.8 11430 2711.8 12664.1 2931.7 12664.1 3260.1 11808.4 3277.3 11754.8 3293.8 11697.6 3315.3 11612.2 3326.1 11656.3 3344.6 11718.6 3363.4 11776.7 3374.9 11808.4 3697.2 12664.1 3911.8 12664.1 3911.8 11430 3761.1 11430 3761.1 12253.3 3763.1 12387.3 3769 12516.1 3728.3 12376.4 3709.5 12319.3 3691.9 12270.8 3373.1 11430 3255.7 11430 2932.5 12270.8 2883.5 12419.7 2854.6 12516.1 2857.2 12418.8 2860.7 12253.3 2860.7 11430"/><path d="M 4558.6 11412.5 4512.9 11413.8 4469.6 11417.8 4428.6 11424.4 4390.1 11433.6 4353.9 11445.5 4320 11460 4288.5 11477.2 4259.4 11497 4232.9 11519.4 4209.3 11544.3 4188.4 11571.8 4170.4 11601.8 4155.3 11634.3 4142.9 11669.4 4133.4 11706.9 4126.8 11747.1 4289.7 11761.9 4294.4 11735.4 4300.8 11710.6 4308.7 11687.5 4318.3 11666.2 4329.5 11646.5 4342.3 11628.5 4356.6 11612.3 4372.7 11597.7 4390.3 11584.9 4409.5 11573.8 4430.3 11564.4 4452.7 11556.7 4476.8 11550.7 4502.4 11546.4 4529.7 11543.8 4558.6 11543 4587.5 11543.9 4614.9 11546.7 4640.7 11551.2 4664.9 11557.7 4687.4 11565.9 4708.4 11576 4727.8 11587.9 4745.5 11601.7 4761.5 11617.2 4775.2 11634.6 4786.9 11653.7 4796.5 11674.6 4803.9 11697.3 4809.2 11721.7 4812.4 11747.9 4813.4 11776 4812.2 11800.5 4808.6 11823.6 4802.5 11845.3 4794 11865.6 4783.1 11884.6 4769.8 11902.2 4754.1 11918.4 4735.9 11933.2 4715.5 11946.4 4692.9 11957.9 4668.1 11967.6 4641.2 11975.5 4612.2 11981.7 4581 11986.1 4547.6 11988.8 4512.1 11989.7 4422.8 11989.7 4422.8 12126.3 4508.6 12126.3 4540.1 12127.2 4569.8 12129.8 4597.7 12134.2 4623.7 12140.4 4647.9 12148.4 4670.3 12158.1 4690.9 12169.6 4709.6 12182.8 4726.4 12197.6 4740.9 12213.8 4753.1 12231.3 4763.2 12250.1 4771 12270.3 4776.6 12291.9 4779.9 12314.9 4781 12339.1 4780.1 12363.2 4777.4 12386 4772.8 12407.5 4766.5 12427.7 4758.3 12446.6 4748.3 12464.2 4736.4 12480.5 4722.8 12495.5 4707.3 12508.9 4690.1 12520.6 4671.1 12530.4 4650.4 12538.5 4627.9 12544.8 4603.6 12549.3 4577.6 12551.9 4549.8 12552.8 4524.4 12552 4500.2 12549.5 4477.2 12545.3 4455.5 12539.5 4435.1 12532 4415.9 12522.8 4397.9 12511.9 4381.2 12499.4 4365.9 12485.4 4352.4 12470 4340.5 12453.2 4330.3 12435 4321.8 12415.5 4314.9 12394.6 4309.8 12372.4 4306.3 12348.8 4147.8 12361 4153.6 12397.9 4162.2 12432.6 4173.7 12465.3 4188 12495.9 4205.1 12524.4 4225 12550.9 4247.8 12575.2 4273.5 12597.5 4301.5 12617.4 4331.4 12634.7 4363.3 12649.3 4397.1 12661.2 4432.8 12670.5 4470.4 12677.2 4510 12681.1 4551.5 12682.5 4596.7 12681.1 4639.2 12677.1 4679.2 12670.3 4716.5 12660.9 4751.3 12648.8 4783.5 12633.9 4813.1 12616.4 4840.1 12596.2 4864.3 12573.6 4885.2 12548.8 4902.9 12522 4917.3 12493 4928.6 12461.8 4936.6 12428.6 4941.4 12393.3 4943.1 12355.8 4942 12326.9 4938.9 12299.4 4933.8 12273.3 4926.5 12248.6 4917.2 12225.3 4905.9 12203.3 4892.4 12182.7 4876.9 12163.5 4859.5 12145.8 4840.1 12129.5 4818.9 12114.7 4795.8 12101.5 4770.8 12089.7 4744 12079.4 4715.3 12070.6 4684.7 12063.2 4684.7 12059.7 4718.3 12055 4750 12048.4 4779.8 12039.7 4807.7 12029.1 4833.7 12016.5 4857.8 12001.9 4879.9 11985.4 4900.1 11966.9 4918.2 11946.8 4933.9 11925.4 4947.1 11902.8 4957.9 11878.9 4966.4 11853.7 4972.4 11827.3 4976 11799.6 4977.2 11770.7 4975.5 11729.2 4970.4 11690.1 4961.9 11653.5 4950.1 11619.2 4934.8 11587.3 4916.1 11557.9 4894.1 11530.8 4868.6 11506.2 4840 11484.2 4808.5 11465.2 4774.1 11449.1 4736.8 11435.9 4696.6 11425.7 4653.5 11418.3 4607.5 11414 4558.6 11412.5"/><path d="M -3154.5 -5338.6 -5230 -5338.6 -5748.9 -4819.6 -4038 -4819.6 -7007.6 -1849.7 -6639.5 -1481.5 -3673.3 -4451.5 -3673.3 -2740.3 -3154.5 -3259.3 -3154.5 -5338.6"/><path d="M 7005.5 2281.4 4930 2281.4 4411.1 2800.4 6122 2800.4 3152.4 5770.3 3520.5 6138.5 6486.7 3168.5 6486.7 4879.7 7005.5 4360.7 7005.5 2281.4"/><path d="M -1820.8 -7172.8 -2693.4 -6300.2 -2555.9 -6162.7 -1335.8 -6438.9 -1446.1 -6339.8 -1519.2 -6270.5 -2091.4 -5698.2 -1984.9 -5591.7 -1112.3 -6464.3 -1254.7 -6606.8 -2464.9 -6330.5 -2401.7 -6387.5 -2295.2 -6487.9 -1715.5 -7067.5 -1820.8 -7172.8"/><path d="M -2159.1 -7511.2 -3031.7 -6638.5 -2913.4 -6520.2 -2040.8 -7392.9 -2159.1 -7511.2"/><path d="M 1266.6 5040.1 1228.2 5042.7 1189.8 5048.2 1151.3 5056.7 1112.7 5068.1 1074.3 5082.4 1036.5 5099.3 999.2 5119 962.4 5141.3 926.2 5166.3 890.5 5193.9 855.3 5224.3 820.7 5257.3 795.3 5283.6 771.5 5310 749.4 5336.6 728.9 5363.4 709.9 5390.4 692.6 5417.6 676.9 5444.9 662.8 5472.5 650.3 5500.2 639.4 5528.1 630.2 5556.1 622.5 5584.4 612 5641.4 607.9 5699.2 610.3 5756.9 613.9 5785.4 619.2 5813.7 626.1 5841.8 634.6 5869.7 644.7 5897.3 656.5 5924.7 669.8 5951.9 684.8 5978.9 701.4 6005.7 719.7 6032.2 739.5 6058.5 761 6084.6 784.2 6110.5 808.9 6136.1 842.5 6168.1 876.6 6197.2 911.2 6223.6 946.5 6247.2 982.2 6268.1 1018.5 6286.2 1055.4 6301.6 1092.8 6314.2 1130.6 6324 1168.4 6330.8 1206.2 6334.6 1244.1 6335.6 1282.1 6333.6 1320.1 6328.6 1358.2 6320.7 1396.3 6309.9 1434.2 6296.2 1471.7 6279.7 1508.7 6260.5 1545.2 6238.6 1581.2 6213.8 1616.8 6186.4 1651.9 6156.1 1686.5 6123.1 1719.3 6088.6 1749.5 6053.6 1777 6017.9 1801.7 5981.7 1823.8 5944.9 1843.2 5907.6 1859.8 5869.6 1873.8 5831.1 1885 5792.4 1893.2 5753.7 1898.6 5715.1 1901 5676.5 1900.5 5638 1897.1 5599.6 1890.8 5561.3 1881.6 5523 1869.5 5485.1 1854.5 5447.8 1836.8 5411.1 1816.2 5375 1792.8 5339.5 1766.6 5304.7 1737.5 5270.5 1705.7 5236.9 1671.8 5204.7 1637.4 5175.4 1602.4 5148.9 1566.9 5125.3 1530.8 5104.6 1494.1 5086.7 1457 5071.6 1419.2 5059.5 1381.2 5050.2 1343.1 5043.9 1304.8 5040.5 1266.6 5040.1"/></g><path d="M 2277.1 6011.5 2247.5 6013.5 2217.9 6017.8 2188.3 6024.2 2159 6033 2130.1 6043.9 2101.8 6057.2 2073.9 6072.7 2046.5 6090.5 2019.6 6110.5 1993.2 6132.8 1967.2 6157.4 1411.7 6712.9 1530 6831.2 2075.6 6285.6 2105.5 6257.6 2135.5 6233.2 2165.7 6212.6 2195.9 6195.6 2226.2 6182.4 2256.6 6172.8 2287.1 6167 2317.7 6164.8 2348.3 6166.3 2378.6 6171.4 2408.6 6180.2 2438.4 6192.5 2467.9 6208.5 2497.2 6228.1 2526.2 6251.3 2554.9 6278.2 2582.5 6307.8 2606.5 6337.7 2626.8 6368.1 2643.5 6398.8 2656.6 6429.8 2666 6461.3 2671.7 6493.1 2673.9 6525.3 2672.2 6557.5 2666.7 6589.6 2657.3 6621.5 2644 6653.2 2626.8 6684.6 2605.7 6715.9 2580.7 6747 2551.8 6778 2014.3 7315.5 2131.9 7433.2 2676.3 6888.8 2701.6 6862.1 2724.7 6834.9 2745.4 6807.2 2763.7 6779 2779.8 6750.3 2793.6 6721.1 2805 6691.4 2814.1 6661.2 2821 6630.8 2825.5 6600.3 2827.7 6569.8 2827.7 6539.3 2825.3 6508.7 2820.7 6478.1 2813.8 6447.5 2804.5 6416.9 2793.1 6386.4 2779.4 6356.3 2763.6 6326.5 2745.5 6297.1 2725.3 6268 2702.9 6239.2 2678.3 6210.8 2651.6 6182.8 2624.6 6157 2597.2 6133.4 2569.5 6111.7 2541.5 6092.2 2513 6074.7 2484.2 6059.3 2455 6046 2425.5 6034.8 2395.8 6025.7 2366.1 6018.8 2336.4 6014.1 2306.7 6011.7 2277.1 6011.5"/><path d="M 3431.7 6987.7 2655.7 7763.7 2356 7464 2259.3 7560.6 2976.5 8277.8 3073.1 8181.1 2773.4 7881.4 3549.4 7105.4 3431.7 6987.7"/><path d="M 5440 -22095.2 4978.4 -22095.2 4978.4 -20861.1 5386.5 -20861.1 5425.2 -20861.7 5462.7 -20863.6 5499.1 -20866.7 5534.4 -20871 5568.5 -20876.5 5601.6 -20883.2 5633.5 -20891.2 5664.3 -20900.4 5694 -20910.9 5722.5 -20922.5 5750 -20935.4 5776.3 -20949.6 5801.5 -20964.9 5825.6 -20981.5 5848.6 -20999.3 5870.5 -21018.3 5891.1 -21038.5 5910.4 -21059.7 5928.3 -21082 5945 -21105.2 5960.3 -21129.6 5974.3 -21154.9 5986.9 -21181.3 5998.2 -21208.7 6008.2 -21237.2 6016.8 -21266.7 6024.2 -21297.2 6030.2 -21328.8 6034.8 -21361.4 6038.1 -21395.1 6040.1 -21429.7 6040.8 -21465.5 6039.6 -21512.5 6036.2 -21557.9 6030.3 -21602 6022.2 -21644.5 6011.7 -21685.5 5998.9 -21725 5983.8 -21763.1 5966.4 -21799.6 5946.8 -21834.4 5925.2 -21867 5901.8 -21897.6 5876.4 -21926.1 5849 -21952.4 5819.7 -21976.7 5788.5 -21998.9 5755.3 -22019 5720.5 -22036.9 5684.3 -22052.3 5646.9 -22065.4 5608.1 -22076.2 5568.1 -22084.5 5526.7 -22090.4 5484 -22094 5440 -22095.2"/></g><path d="M 4753.7 -22095.2 3781.5 -22095.2 3781.5 -20861.1 4717.8 -20861.1 4717.8 -20997.8 3948.8 -20997.8 3948.8 -21393.6 4665.3 -21393.6 4665.3 -21528.5 3948.8 -21528.5 3948.8 -21958.6 4753.7 -21958.6 4753.7 -22095.2"/><path d="M 7038.1 -22095.2 6264.8 -22095.2 6264.8 -21961.2 6579.2 -21961.2 6579.2 -21011.8 6300.7 -21210.6 6300.7 -21061.7 6592.3 -20861.1 6737.7 -20861.1 6737.7 -21961.2 7038.1 -21961.2 7038.1 -22095.2"/><path d="M 3575.5 -22095.2 2784.6 -22095.2 2784.6 -20861.1 2951.9 -20861.1 2951.9 -21958.6 3575.5 -21958.6 3575.5 -22095.2"/><path d="M 5440 25905.2 4978.4 25905.2 4978.4 27139.3 5386.5 27139.3 5425.2 27138.7 5462.7 27136.8 5499.1 27133.8 5534.4 27129.5 5568.5 27123.9 5601.6 27117.2 5633.5 27109.2 5664.3 27100 5694 27089.5 5722.5 27077.9 5750 27065 5776.3 27050.8 5801.5 27035.5 5825.6 27018.9 5848.6 27001.1 5870.5 26982.1 5891.1 26961.9 5910.4 26940.7 5928.3 26918.4 5945 26895.2 5960.3 26870.8 5974.3 26845.5 5986.9 26819.1 5998.2 26791.7 6008.2 26763.2 6016.8 26733.7 6024.2 26703.2 6030.2 26671.6 6034.8 26639 6038.1 26605.3 6040.1 26570.7 6040.8 26534.9 6039.6 26488 6036.2 26442.5 6030.3 26398.4 6022.2 26355.9 6011.7 26314.9 5998.9 26275.4 5983.8 26237.3 5966.4 26200.8 5946.8 26166 5925.2 26133.4 5901.8 26102.8 5876.4 26074.3 5849 26048 5819.7 26023.7 5788.5 26001.5 5755.3 25981.4 5720.5 25963.5 5684.3 25948.1 5646.9 25935 5608.1 25924.2 5568.1 25915.9 5526.7 25910 5484 25906.4 5440 25905.2"/></g><path d="M 4753.7 25905.2 3781.5 25905.2 3781.5 27139.3 4717.8 27139.3 4717.8 27002.6 3948.8 27002.6 3948.8 26606.8 4665.3 26606.8 4665.3 26471.9 3948.8 26471.9 3948.8 26041.8 4753.7 26041.8 4753.7 25905.2"/><path d="M 7035.5 25905.2 6218.3 25905.2 6218.3 26016.4 6241.9 26066.2 6267.9 26112.9 6296.4 26156.6 6327.4 26197.3 6360 26235.6 6393.4 26272 6427.6 26306.5 6462.7 26339.2 6533.3 26400.4 6603.3 26457 6669.5 26511.3 6729 26565.6 6755.6 26593.1 6779.7 26621.2 6801 26650 6819.6 26679.5 6834.7 26710.2 6845.6 26743 6852 26777.7 6854.2 26814.3 6853.3 26839 6850.5 26862.3 6845.8 26884.1 6839.3 26904.5 6830.9 26923.5 6820.7 26941.1 6808.6 26957.3 6794.7 26972 6779 26985.1 6762 26996.5 6743.5 27006.1 6723.5 27014 6702.1 27020.2 6679.2 27024.5 6654.9 27027.2 6629.1 27028 6604.5 27027.2 6581 27024.6 6558.6 27020.3 6537.3 27014.4 6517.1 27006.7 6498 26997.3 6480 26986.1 6463.1 26973.3 6447.7 26958.9 6433.9 26943.2 6421.8 26926 6411.4 26907.5 6402.6 26887.6 6395.6 26866.3 6390.2 26843.6 6386.5 26819.6 6225.3 26834.5 6231.1 26870.5 6239.8 26904.7 6251.2 26937 6265.5 26967.4 6282.7 26995.9 6302.6 27022.5 6325.4 27047.2 6351 27070.1 6379 27090.6 6409 27108.4 6440.8 27123.5 6474.6 27135.8 6510.4 27145.4 6548 27152.2 6587.6 27156.3 6629.1 27157.7 6674.4 27156.3 6717 27152.2 6756.9 27145.3 6794.1 27135.7 6828.6 27123.3 6860.4 27108.2 6889.5 27090.3 6916 27069.6 6939.5 27046.5 6959.8 27021 6977.1 26993.2 6991.2 26963.1 7002.1 26930.7 7010 26896 7014.7 26858.9 7016.2 26819.6 7014.2 26783.7 7008 26748 6997.8 26712.4 6983.4 26676.8 6965 26641.4 6942.6 26605.9 6916.1 26570.4 6885.7 26534.9 6845.9 26494.6 6791.4 26444.5 6722 26384.7 6637.9 26315.1 6590.1 26274.9 6547.4 26236.8 6509.9 26200.7 6477.6 26166.6 6449.9 26133.9 6426.4 26101.7 6407 26070.2 6391.8 26039.2 7035.5 26039.2 7035.5 25905.2"/><path d="M 3575.5 25905.2 2784.6 25905.2 2784.6 27139.3 2951.9 27139.3 2951.9 26041.8 3575.5 26041.8 3575.5 25905.2"/><path d="M -7433.1 -1530.3 -7460 -1530.3 M -4357.3 -9951.5 1408 -4186.1 M -4357.3 -9951.5 1192.5 -15501.3 6957.8 -9735.9 1408 -4186.1" fill="none" stroke-width="152.4"/><path d="M 6901.3 -7703.7 6892.8 -7694.9 6884.6 -7685.9 6876.7 -7676.6 6869.1 -7667 6861.7 -7657.3 6854.8 -7647.2 6848.1 -7637 6841.8 -7626.6 6835.8 -7615.9 6830.1 -7605.1 6824.8 -7594.1 6819.9 -7582.9 6815.3 -7571.6 6811.1 -7560.1 6807.2 -7548.5 6803.8 -7536.8 6800.7 -7525 6797.9 -7513.1 6795.6 -7501.1 6793.7 -7489.1 6792.1 -7477 6790.9 -7464.8 6790.1 -7452.6 6789.7 -7440.4 6789.7 -7428.2 6790.1 -7416 6790.9 -7403.8 6792.1 -7391.6 6793.7 -7379.5 6795.6 -7367.5 6797.9 -7355.5 6800.7 -7343.6 6803.8 -7331.8 6807.2 -7320.1 6811.1 -7308.5 6815.3 -7297 6819.9 -7285.7 6824.8 -7274.5 6830.1 -7263.5 6835.8 -7252.7 6841.8 -7242 6848.1 -7231.6 6854.8 -7221.4 6861.7 -7211.3 6869.1 -7201.6 6876.7 -7192 6884.6 -7182.7 6892.8 -7173.7 6901.3 -7164.9 6910.1 -7156.4 6919.1 -7148.2 6928.4 -7140.3 6938 -7132.7 6947.7 -7125.3 6957.8 -7118.4 6968 -7111.7 6978.4 -7105.4 6989.1 -7099.4 6999.9 -7093.7 7010.9 -7088.4 7022.1 -7083.5 7033.4 -7078.9 7044.9 -7074.7 7056.5 -7070.8 7068.2 -7067.4 7080 -7064.3 7091.9 -7061.5 7103.9 -7059.2 7115.9 -7057.3 7128 -7055.7 7140.2 -7054.5 7152.4 -7053.7 7164.6 -7053.3 7176.8 -7053.3 7189 -7053.7 7201.2 -7054.5 7213.4 -7055.7 7225.5 -7057.3 7237.5 -7059.2 7249.5 -7061.5 7261.4 -7064.3 7273.2 -7067.4 7284.9 -7070.8 7296.5 -7074.7 7308 -7078.9 7319.3 -7083.5 7330.5 -7088.4 7341.5 -7093.7 7352.3 -7099.4 7363 -7105.4 7373.4 -7111.7 7383.6 -7118.4 7393.7 -7125.3 7403.4 -7132.7 7413 -7140.3 7422.3 -7148.2 7431.3 -7156.4 7440.1 -7164.9 7448.6 -7173.7 7456.8 -7182.7 7464.7 -7192 7472.3 -7201.6 7479.7 -7211.3 7486.6 -7221.4 7493.3 -7231.6 7499.6 -7242 7505.6 -7252.7 7511.3 -7263.5 7516.6 -7274.5 7521.5 -7285.7 7526.1 -7297 7530.3 -7308.5 7534.2 -7320.1 7537.6 -7331.8 7540.7 -7343.6 7543.5 -7355.5 7545.8 -7367.5 7547.7 -7379.5 7549.3 -7391.6 7550.5 -7403.8 7551.3 -7416 7551.7 -7428.2 7551.7 -7440.4 7551.3 -7452.6 7550.5 -7464.8 7549.3 -7477 7547.7 -7489.1 7545.8 -7501.1 7543.5 -7513.1 7540.7 -7525 7537.6 -7536.8 7534.2 -7548.5 7530.3 -7560.1 7526.1 -7571.6 7521.5 -7582.9 7516.6 -7594.1 7511.3 -7605.1 7505.6 -7615.9 7499.6 -7626.6 7493.3 -7637 7486.6 -7647.2 7479.7 -7657.3 7472.3 -7667 7464.7 -7676.6 7456.8 -7685.9 7448.6 -7694.9 7440.1 -7703.7 7431.3 -7712.2 7422.3 -7720.4 7413 -7728.3 7403.4 -7735.9 7393.7 -7743.3 7383.6 -7750.2 7373.4 -7756.9 7363 -7763.2 7352.3 -7769.2 7341.5 -7774.9 7330.5 -7780.2 7319.3 -7785.1 7308 -7789.7 7296.5 -7793.9 7284.9 -7797.8 7273.2 -7801.2 7261.4 -7804.3 7249.5 -7807.1 7237.5 -7809.4 7225.5 -7811.3 7213.4 -7812.9 7201.2 -7814.1 7189 -7814.9 7176.8 -7815.3 7164.6 -7815.3 7152.4 -7814.9 7140.2 -7814.1 7128 -7812.9 7115.9 -7811.3 7103.9 -7809.4 7091.9 -7807.1 7080 -7804.3 7068.2 -7801.2 7056.5 -7797.8 7044.9 -7793.9 7033.4 -7789.7 7022.1 -7785.1 7010.9 -7780.2 6999.9 -7774.9 6989.1 -7769.2 6978.4 -7763.2 6968 -7756.9 6957.8 -7750.2 6947.7 -7743.3 6938 -7735.9 6928.4 -7728.3 6919.1 -7720.4 6910.1 -7712.2 6901.3 -7703.7" fill="none" stroke-width="508"/><path d="M -1408 4186.1 4357.3 9951.5 -1192.5 15501.3 -6957.8 9735.9 -1408 4186.1" fill="none" stroke-width="152.4"/><path d="M -6901.3 7703.7 -6892.8 7694.9 -6884.6 7685.9 -6876.7 7676.6 -6869.1 7667 -6861.7 7657.3 -6854.8 7647.2 -6848.1 7637 -6841.8 7626.6 -6835.8 7615.9 -6830.1 7605.1 -6824.8 7594.1 -6819.9 7582.9 -6815.3 7571.6 -6811.1 7560.1 -6807.2 7548.5 -6803.8 7536.8 -6800.7 7525 -6797.9 7513.1 -6795.6 7501.1 -6793.7 7489.1 -6792.1 7477 -6790.9 7464.8 -6790.1 7452.6 -6789.7 7440.4 -6789.7 7428.2 -6790.1 7416 -6790.9 7403.8 -6792.1 7391.6 -6793.7 7379.5 -6795.6 7367.5 -6797.9 7355.5 -6800.7 7343.6 -6803.8 7331.8 -6807.2 7320.1 -6811.1 7308.5 -6815.3 7297 -6819.9 7285.7 -6824.8 7274.5 -6830.1 7263.5 -6835.8 7252.7 -6841.8 7242 -6848.1 7231.6 -6854.8 7221.4 -6861.7 7211.3 -6869.1 7201.6 -6876.7 7192 -6884.6 7182.7 -6892.8 7173.7 -6901.3 7164.9 -6910.1 7156.4 -6919.1 7148.2 -6928.4 7140.3 -6938 7132.7 -6947.7 7125.3 -6957.8 7118.4 -6968 7111.7 -6978.4 7105.4 -6989.1 7099.4 -6999.9 7093.7 -7010.9 7088.4 -7022.1 7083.5 -7033.4 7078.9 -7044.9 7074.7 -7056.5 7070.8 -7068.2 7067.4 -7080 7064.3 -7091.9 7061.5 -7103.9 7059.2 -7115.9 7057.3 -7128 7055.7 -7140.2 7054.5 -7152.4 7053.7 -7164.6 7053.3 -7176.8 7053.3 -7189 7053.7 -7201.2 7054.5 -7213.4 7055.7 -7225.5 7057.3 -7237.5 7059.2 -7249.5 7061.5 -7261.4 7064.3 -7273.2 7067.4 -7284.9 7070.8 -7296.5 7074.7 -7308 7078.9 -7319.3 7083.5 -7330.5 7088.4 -7341.5 7093.7 -7352.3 7099.4 -7363 7105.4 -7373.4 7111.7 -7383.6 7118.4 -7393.7 7125.3 -7403.4 7132.7 -7413 7140.3 -7422.3 7148.2 -7431.3 7156.4 -7440.1 7164.9 -7448.6 7173.7 -7456.8 7182.7 -7464.7 7192 -7472.3 7201.6 -7479.7 7211.3 -7486.6 7221.4 -7493.3 7231.6 -7499.6 7242 -7505.6 7252.7 -7511.3 7263.5 -7516.6 7274.5 -7521.5 7285.7 -7526.1 7297 -7530.3 7308.5 -7534.2 7320.1 -7537.6 7331.8 -7540.7 7343.6 -7543.5 7355.5 -7545.8 7367.5 -7547.7 7379.5 -7549.3 7391.6 -7550.5 7403.8 -7551.3 7416 -7551.7 7428.2 -7551.7 7440.4 -7551.3 7452.6 -7550.5 7464.8 -7549.3 7477 -7547.7 7489.1 -7545.8 7501.1 -7543.5 7513.1 -7540.7 7525 -7537.6 7536.8 -7534.2 7548.5 -7530.3 7560.1 -7526.1 7571.6 -7521.5 7582.9 -7516.6 7594.1 -7511.3 7605.1 -7505.6 7615.9 -7499.6 7626.6 -7493.3 7637 -7486.6 7647.2 -7479.7 7657.3 -7472.3 7667 -7464.7 7676.6 -7456.8 7685.9 -7448.6 7694.9 -7440.1 7703.7 -7431.3 7712.2 -7422.3 7720.4 -7413 7728.3 -7403.4 7735.9 -7393.7 7743.3 -7383.6 7750.2 -7373.4 7756.9 -7363 7763.2 -7352.3 7769.2 -7341.5 7774.9 -7330.5 7780.2 -7319.3 7785.1 -7308 7789.7 -7296.5 7793.9 -7284.9 7797.8 -7273.2 7801.2 -7261.4 7804.3 -7249.5 7807.1 -7237.5 7809.4 -7225.5 7811.3 -7213.4 7812.9 -7201.2 7814.1 -7189 7814.9 -7176.8 7815.3 -7164.6 7815.3 -7152.4 7814.9 -7140.2 7814.1 -7128 7812.9 -7115.9 7811.3 -7103.9 7809.4 -7091.9 7807.1 -7080 7804.3 -7068.2 7801.2 -7056.5 7797.8 -7044.9 7793.9 -7033.4 7789.7 -7022.1 7785.1 -7010.9 7780.2 -6999.9 7774.9 -6989.1 7769.2 -6978.4 7763.2 -6968 7756.9 -6957.8 7750.2 -6947.7 7743.3 -6938 7735.9 -6928.4 7728.3 -6919.1 7720.4 -6910.1 7712.2 -6901.3 7703.7" fill="none" stroke-width="508"/><path d="M -3122.9 -24000.2 -3122 -23924.1 -3119.2 -23848.1 -3114.6 -23772.1 -3108.1 -23696.3 -3099.8 -23620.7 -3089.6 -23545.3 -3077.6 -23470.2 -3063.8 -23395.4 -3048.2 -23320.9 -3030.7 -23246.8 -3011.5 -23173.2 -2990.4 -23100.1 -2967.6 -23027.5 -2943.1 -22955.5 -2916.8 -22884.1 -2888.7 -22813.4 -2859 -22743.4 -2827.5 -22674.1 -2794.4 -22605.6 -2759.6 -22538 -2723.2 -22471.2 -2685.1 -22405.3 -2645.5 -22340.3 -2604.3 -22276.4 -2561.5 -22213.4 -2517.3 -22151.6 -2471.5 -22090.8 -2424.3 -22031.1 -2375.6 -21972.6 -2325.5 -21915.4 -2274.1 -21859.3 -2221.3 -21804.5 -2167.1 -21751.1 -2111.7 -21698.9 -2055.1 -21648.2 -1997.2 -21598.8 -1938.1 -21550.8 -1877.9 -21504.3 -1816.5 -21459.3 -1754.1 -21415.8 -1690.7 -21373.8 -1626.2 -21333.4 -1560.8 -21294.6 -1494.5 -21257.3 -1427.2 -21221.7 -1359.1 -21187.8 -1290.2 -21155.5 -1220.6 -21124.9 -1150.2 -21096 -1079.1 -21068.8 -1007.4 -21043.3 -935.1 -21019.6 -862.3 -20997.7 -788.9 -20977.6 -715.1 -20959.2 -640.8 -20942.7 -566.2 -20928 -491.2 -20915.1 -415.9 -20904 -340.4 -20894.7 -264.7 -20887.3 -188.8 -20881.8 -112.8 -20878.1 -36.7 -20876.2 39.3 -20876.2 115.4 -20878.1 191.4 -20881.8 267.3 -20887.3 343 -20894.7 418.5 -20904 493.8 -20915.1 568.8 -20928 643.4 -20942.7 717.7 -20959.2 791.5 -20977.6 864.9 -20997.7 937.7 -21019.6 1010 -21043.3 1081.7 -21068.8 1152.8 -21096 1223.2 -21124.9 1292.8 -21155.5 1361.7 -21187.8 1429.8 -21221.7 1497.1 -21257.3 1563.4 -21294.6 1628.8 -21333.4 1693.3 -21373.8 1756.7 -21415.8 1819.1 -21459.3 1880.5 -21504.3 1940.7 -21550.8 1999.8 -21598.8 2057.7 -21648.2 2114.3 -21698.9 2169.7 -21751.1 2223.9 -21804.5 2276.7 -21859.3 2328.1 -21915.4 2378.2 -21972.6 2426.9 -22031.1 2474.1 -22090.8 2519.9 -22151.6 2564.1 -22213.4 2606.9 -22276.4 2648.1 -22340.3 2687.7 -22405.3 2725.8 -22471.2 2762.2 -22538 2797 -22605.6 2830.1 -22674.1 2861.6 -22743.4 2891.3 -22813.4 2919.4 -22884.1 2945.7 -22955.5 2970.2 -23027.5 2993 -23100.1 3014.1 -23173.2 3033.3 -23246.8 3050.8 -23320.9 3066.4 -23395.4 3080.2 -23470.2 3092.2 -23545.3 3102.4 -23620.7 3110.7 -23696.3 3117.2 -23772.1 3121.8 -23848.1 3124.6 -23924.1 3125.5 -24000.2 3124.6 -24076.3 3121.8 -24152.3 3117.2 -24228.3 3110.7 -24304.1 3102.4 -24379.7 3092.2 -24455.1 3080.2 -24530.2 3066.4 -24605 3050.8 -24679.5 3033.3 -24753.6 3014.1 -24827.2 2993 -24900.3 2970.2 -24972.9 2945.7 -25044.9 2919.4 -25116.3 2891.3 -25187 2861.6 -25257 2830.1 -25326.3 2797 -25394.8 2762.2 -25462.4 2725.8 -25529.2 2687.7 -25595.1 2648.1 -25660.1 2606.9 -25724 2564.1 -25787 2519.9 -25848.8 2474.1 -25909.6 2426.9 -25969.3 2378.2 -26027.8 2328.1 -26085 2276.7 -26141.1 2223.9 -26195.9 2169.7 -26249.3 2114.3 -26301.5 2057.7 -26352.2 1999.8 -26401.6 1940.7 -26449.6 1880.5 -26496.1 1819.1 -26541.1 1756.7 -26584.6 1693.3 -26626.6 1628.8 -26667 1563.4 -26705.8 1497.1 -26743.1 1429.8 -26778.7 1361.7 -26812.6 1292.8 -26844.9 1223.2 -26875.5 1152.8 -26904.4 1081.7 -26931.6 1010 -26957.1 937.7 -26980.8 864.9 -27002.7 791.5 -27022.8 717.7 -27041.2 643.4 -27057.7 568.8 -27072.4 493.8 -27085.3 418.5 -27096.4 343 -27105.7 267.3 -27113.1 191.4 -27118.6 115.4 -27122.3 39.3 -27124.2 -36.7 -27124.2 -112.8 -27122.3 -188.8 -27118.6 -264.7 -27113.1 -340.4 -27105.7 -415.9 -27096.4 -491.2 -27085.3 -566.2 -27072.4 -640.8 -27057.7 -715.1 -27041.2 -788.9 -27022.8 -862.3 -27002.7 -935.1 -26980.8 -1007.4 -26957.1 -1079.1 -26931.6 -1150.2 -26904.4 -1220.6 -26875.5 -1290.2 -26844.9 -1359.1 -26812.6 -1427.2 -26778.7 -1494.5 -26743.1 -1560.8 -26705.8 -1626.2 -26667 -1690.7 -26626.6 -1754.1 -26584.6 -1816.5 -26541.1 -1877.9 -26496.1 -1938.1 -26449.6 -1997.2 -26401.6 -2055.1 -26352.2 -2111.7 -26301.5 -2167.1 -26249.3 -2221.3 -26195.9 -2274.1 -26141.1 -2325.5 -26085 -2375.6 -26027.8 -2424.3 -25969.3 -2471.5 -25909.6 -2517.3 -25848.8 -2561.5 -25787 -2604.3 -25724 -2645.5 -25660.1 -2685.1 -25595.1 -2723.2 -25529.2 -2759.6 -25462.4 -2794.4 -25394.8 -2827.5 -25326.3 -2859 -25257 -2888.7 -25187 -2916.8 -25116.3 -2943.1 -25044.9 -2967.6 -24972.9 -2990.4 -24900.3 -3011.5 -24827.2 -3030.7 -24753.6 -3048.2 -24679.5 -3063.8 -24605 -3077.6 -24530.2 -3089.6 -24455.1 -3099.8 -24379.7 -3108.1 -24304.1 -3114.6 -24228.3 -3119.2 -24152.3 -3122 -24076.3 -3122.9 -24000.2" fill="none" stroke-width="152.4"/><path d="M 4431.3 -25270.2 5701.3 -24000.2 4431.3 -22730.2 M 5701.3 -25270.2 6971.3 -24000.2 5701.3 -22730.2 M -4458.7 -24000.2 -5728.7 -25270.2 M -4458.7 -24000.2 -5728.7 -22730.2 M -5728.7 -24000.2 -6998.7 -25270.2 M -5728.7 -24000.2 -6998.7 -22730.2 M 4431.3 -25270.2 5701.3 -25270.2 M 5701.3 -22730.2 4431.3 -22730.2 M -5728.7 -25270.2 -6998.7 -25270.2 M -6998.7 -22730.2 -5728.7 -22730.2 M -1918.7 -22730.2 -1918.7 -22095.2 M -648.7 -22730.2 -648.7 -21460.2 M 1891.3 -21460.2 1891.3 -22730.2 M 631.3 -22712.1 631.3 -20190.2" fill="none" stroke-width="203.2"/><path d="M 3125.5 24000.2 3124.6 24076.3 3121.8 24152.3 3117.2 24228.3 3110.7 24304.1 3102.4 24379.7 3092.2 24455.1 3080.2 24530.2 3066.4 24605 3050.8 24679.5 3033.3 24753.6 3014.1 24827.2 2993 24900.3 2970.2 24972.9 2945.7 25044.9 2919.4 25116.3 2891.3 25187 2861.6 25257 2830.1 25326.3 2797 25394.8 2762.2 25462.4 2725.8 25529.2 2687.7 25595.1 2648.1 25660.1 2606.9 25724 2564.1 25787 2519.9 25848.8 2474.1 25909.6 2426.9 25969.3 2378.2 26027.8 2328.1 26085 2276.7 26141.1 2223.9 26195.9 2169.7 26249.3 2114.3 26301.5 2057.7 26352.2 1999.8 26401.6 1940.7 26449.6 1880.5 26496.1 1819.1 26541.1 1756.7 26584.6 1693.3 26626.6 1628.8 26667 1563.4 26705.8 1497.1 26743.1 1429.8 26778.7 1361.7 26812.6 1292.8 26844.9 1223.2 26875.5 1152.8 26904.4 1081.7 26931.6 1010 26957.1 937.7 26980.8 864.9 27002.7 791.5 27022.8 717.7 27041.2 643.4 27057.7 568.8 27072.4 493.8 27085.3 418.5 27096.4 343 27105.7 267.3 27113.1 191.4 27118.6 115.4 27122.3 39.3 27124.2 -36.7 27124.2 -112.8 27122.3 -188.8 27118.6 -264.7 27113.1 -340.4 27105.7 -415.9 27096.4 -491.2 27085.3 -566.2 27072.4 -640.8 27057.7 -715.1 27041.2 -788.9 27022.8 -862.3 27002.7 -935.1 26980.8 -1007.4 26957.1 -1079.1 26931.6 -1150.2 26904.4 -1220.6 26875.5 -1290.2 26844.9 -1359.1 26812.6 -1427.2 26778.7 -1494.5 26743.1 -1560.8 26705.8 -1626.2 26667 -1690.7 26626.6 -1754.1 26584.6 -1816.5 26541.1 -1877.9 26496.1 -1938.1 26449.6 -1997.2 26401.6 -2055.1 26352.2 -2111.7 26301.5 -2167.1 26249.3 -2221.3 26195.9 -2274.1 26141.1 -2325.5 26085 -2375.6 26027.8 -2424.3 25969.3 -2471.5 25909.6 -2517.3 25848.8 -2561.5 25787 -2604.3 25724 -2645.5 25660.1 -2685.1 25595.1 -2723.2 25529.2 -2759.6 25462.4 -2794.4 25394.8 -2827.5 25326.3 -2859 25257 -2888.7 25187 -2916.8 25116.3 -2943.1 25044.9 -2967.6 24972.9 -2990.4 24900.3 -3011.5 24827.2 -3030.7 24753.6 -3048.2 24679.5 -3063.8 24605 -3077.6 24530.2 -3089.6 24455.1 -3099.8 24379.7 -3108.1 24304.1 -3114.6 24228.3 -3119.2 24152.3 -3122 24076.3 -3122.9 24000.2 -3122 23924.1 -3119.2 23848.1 -3114.6 23772.1 -3108.1 23696.3 -3099.8 23620.7 -3089.6 23545.3 -3077.6 23470.2 -3063.8 23395.4 -3048.2 23320.9 -3030.7 23246.8 -3011.5 23173.2 -2990.4 23100.1 -2967.6 23027.5 -2943.1 22955.5 -2916.8 22884.1 -2888.7 22813.4 -2859 22743.4 -2827.5 22674.1 -2794.4 22605.6 -2759.6 22538 -2723.2 22471.2 -2685.1 22405.3 -2645.5 22340.3 -2604.3 22276.4 -2561.5 22213.4 -2517.3 22151.6 -2471.5 22090.8 -2424.3 22031.1 -2375.6 21972.6 -2325.5 21915.4 -2274.1 21859.3 -2221.3 21804.5 -2167.1 21751.1 -2111.7 21698.9 -2055.1 21648.2 -1997.2 21598.8 -1938.1 21550.8 -1877.9 21504.3 -1816.5 21459.3 -1754.1 21415.8 -1690.7 21373.8 -1626.2 21333.4 -1560.8 21294.6 -1494.5 21257.3 -1427.2 21221.7 -1359.1 21187.8 -1290.2 21155.5 -1220.6 21124.9 -1150.2 21096 -1079.1 21068.8 -1007.4 21043.3 -935.1 21019.6 -862.3 20997.7 -788.9 20977.6 -715.1 20959.2 -640.8 20942.7 -566.2 20928 -491.2 20915.1 -415.9 20904 -340.4 20894.7 -264.7 20887.3 -188.8 20881.8 -112.8 20878.1 -36.7 20876.2 39.3 20876.2 115.4 20878.1 191.4 20881.8 267.3 20887.3 343 20894.7 418.5 20904 493.8 20915.1 568.8 20928 643.4 20942.7 717.7 20959.2 791.5 20977.6 864.9 20997.7 937.7 21019.6 1010 21043.3 1081.7 21068.8 1152.8 21096 1223.2 21124.9 1292.8 21155.5 1361.7 21187.8 1429.8 21221.7 1497.1 21257.3 1563.4 21294.6 1628.8 21333.4 1693.3 21373.8 1756.7 21415.8 1819.1 21459.3 1880.5 21504.3 1940.7 21550.8 1999.8 21598.8 2057.7 21648.2 2114.3 21698.9 2169.7 21751.1 2223.9 21804.5 2276.7 21859.3 2328.1 21915.4 2378.2 21972.6 2426.9 22031.1 2474.1 22090.8 2519.9 22151.6 2564.1 22213.4 2606.9 22276.4 2648.1 22340.3 2687.7 22405.3 2725.8 22471.2 2762.2 22538 2797 22605.6 2830.1 22674.1 2861.6 22743.4 2891.3 22813.4 2919.4 22884.1 2945.7 22955.5 2970.2 23027.5 2993 23100.1 3014.1 23173.2 3033.3 23246.8 3050.8 23320.9 3066.4 23395.4 3080.2 23470.2 3092.2 23545.3 3102.4 23620.7 3110.7 23696.3 3117.2 23772.1 3121.8 23848.1 3124.6 23924.1 3125.5 24000.2" fill="none" stroke-width="152.4"/><path d="M 4431.3 22730.2 5701.3 24000.2 4431.3 25270.2 M 5701.3 22730.2 6971.3 24000.2 5701.3 25270.2 M -4458.7 24000.2 -5728.7 22730.2 M -4458.7 24000.2 -5728.7 25270.2 M -5728.7 24000.2 -6998.7 22730.2 M -5728.7 24000.2 -6998.7 25270.2 M 4431.3 22730.2 5701.3 22730.2 M 5701.3 25270.2 4431.3 25270.2 M -5728.7 22730.2 -6998.7 22730.2 M -6998.7 25270.2 -5728.7 25270.2 M -1918.7 25270.2 -1918.7 25905.2 M -648.7 25270.2 -648.7 26540.2 M 1891.3 26540.2 1891.3 25270.2 M 631.3 25288.3 631.3 27810.2" fill="none" stroke-width="203.2"/></g><g id="mWK6h_tjL_oHYC457vci_top_copper"><g mask="url(#YfEQfOg1vXR1mUhvm3xr_clear-1)"><path d="M 6397.5 -27978 6367.8 -27984 -6367.8 -27984 -6395.3 -27978.9 -6420.8 -27962.5 -6438 -27937.5 -6444 -27907.8 -6444 -16829.9 -6435.5 -16795 -6416.6 -16771.4 -6389.9 -16757 -6359.7 -16754.2 -6330.8 -16763.3 -6307.7 -16783.1 -6294.2 -16810.2 -6271.6 -16894.6 -5923.8 -17497 -5432 -17988.8 -4829.6 -18336.6 -4157.8 -18516.6 -3462.2 -18516.6 -2790.4 -18336.6 -2188 -17988.8 -1696.2 -17497 -1348.4 -16894.6 -1168.4 -16222.8 -1168.4 -15527.2 -1348.4 -14855.4 -1696.2 -14253 -2188 -13761.2 -2790.4 -13413.4 -3462.2 -13233.4 -4157.8 -13233.4 -4829.6 -13413.4 -5432 -13761.2 -5923.8 -14253 -6271.6 -14855.4 -6294.2 -14939.8 -6311.4 -14971.3 -6335.9 -14989.2 -6365.4 -14996.2 -6395.3 -14991.1 -6420.8 -14974.8 -6438 -14949.8 -6444 -14920.1 -6444 27907.8 -6438.9 27935.3 -6422.5 27960.8 -6397.5 27978 -6367.8 27984 6367.8 27984 6395.3 27978.9 6420.8 27962.5 6438 27937.5 6444 27907.8 6444 16829.9 6435.5 16795 6416.6 16771.4 6389.9 16757 6359.7 16754.2 6330.8 16763.3 6307.7 16783.1 6294.2 16810.2 6271.6 16894.6 5923.8 17497 5432 17988.8 4829.6 18336.6 4157.8 18516.6 3462.2 18516.6 2790.4 18336.6 2188 17988.8 1696.2 17497 1348.4 16894.6 1168.4 16222.8 1168.4 15527.2 1348.4 14855.4 1696.2 14253 2188 13761.2 2790.4 13413.4 3462.2 13233.4 4157.8 13233.4 4829.6 13413.4 5432 13761.2 5923.8 14253 6271.6 14855.4 6294.2 14939.8 6311.4 14971.3 6335.9 14989.2 6365.4 14996.2 6395.3 14991.1 6420.8 14974.8 6438 14949.8 6444 14920.1 6444 -27907.8 6438.9 -27935.3 6422.5 -27960.8 6397.5 -27978"/></g><use xlink:href="#YfEQfOg1vXR1mUhvm3xr_pad-10" x="4445" y="-10160"/><use xlink:href="#YfEQfOg1vXR1mUhvm3xr_pad-10" x="3030.8" y="-11574.2"/><use xlink:href="#YfEQfOg1vXR1mUhvm3xr_pad-10" x="1616.6" y="-12988.4"/><use xlink:href="#YfEQfOg1vXR1mUhvm3xr_pad-10" x="-4445" y="10160"/><use xlink:href="#YfEQfOg1vXR1mUhvm3xr_pad-10" x="-3030.8" y="11574.2"/><use xlink:href="#YfEQfOg1vXR1mUhvm3xr_pad-10" x="-1616.6" y="12988.4"/><use xlink:href="#YfEQfOg1vXR1mUhvm3xr_pad-11" x="1891.3" y="-24000.2"/><use xlink:href="#YfEQfOg1vXR1mUhvm3xr_pad-12" x="631.3" y="-24000.2"/><use xlink:href="#YfEQfOg1vXR1mUhvm3xr_pad-12" x="-628.7" y="-24000.2"/><use xlink:href="#YfEQfOg1vXR1mUhvm3xr_pad-12" x="-1888.7" y="-24000.2"/><use xlink:href="#YfEQfOg1vXR1mUhvm3xr_pad-11" x="1891.3" y="24000.2"/><use xlink:href="#YfEQfOg1vXR1mUhvm3xr_pad-12" x="631.3" y="24000.2"/><use xlink:href="#YfEQfOg1vXR1mUhvm3xr_pad-12" x="-628.7" y="24000.2"/><use xlink:href="#YfEQfOg1vXR1mUhvm3xr_pad-12" x="-1888.7" y="24000.2"/><path d="M -618.7 -12048.7 -618.7 -20190.2 -1888.7 -21460.2 -1888.7 -24000.2 M -618.7 -12048.7 -144.2 -11574.2 3030.8 -11574.2 M 1891.3 21460.2 1891.3 24000.2 M 1891.3 21460.2 621.3 20190.2 621.3 12051.3 144.2 11574.2 -3030.8 11574.2 M 1891.3 -14618.7 1891.3 -24000.2 M 1891.3 -14618.7 5715 -10795 5715 -5715 -5715 5715 -5715 10795 -1888.7 14621.3 -1888.7 24000.2" fill="none" stroke-width="152.4"/></g><g id="mWK6h_tjL_oHYC457vci_top_drill1"><use xlink:href="#NLlonjR9P5aYKO-zJpI7_pad-1" x="-3810" y="-15875"/><use xlink:href="#NLlonjR9P5aYKO-zJpI7_pad-1" x="3810" y="15875"/><use xlink:href="#NLlonjR9P5aYKO-zJpI7_pad-2" x="1891" y="-24000"/><use xlink:href="#NLlonjR9P5aYKO-zJpI7_pad-2" x="631" y="-24000"/><use xlink:href="#NLlonjR9P5aYKO-zJpI7_pad-2" x="-629" y="-24000"/><use xlink:href="#NLlonjR9P5aYKO-zJpI7_pad-2" x="-1889" y="-24000"/><use xlink:href="#NLlonjR9P5aYKO-zJpI7_pad-2" x="1891" y="24000"/><use xlink:href="#NLlonjR9P5aYKO-zJpI7_pad-2" x="631" y="24000"/><use xlink:href="#NLlonjR9P5aYKO-zJpI7_pad-2" x="-629" y="24000"/><use xlink:href="#NLlonjR9P5aYKO-zJpI7_pad-2" x="-1889" y="24000"/><use xlink:href="#NLlonjR9P5aYKO-zJpI7_pad-3" x="4445" y="-10160"/><use xlink:href="#NLlonjR9P5aYKO-zJpI7_pad-3" x="3031" y="-11574"/><use xlink:href="#NLlonjR9P5aYKO-zJpI7_pad-3" x="1617" y="-12988"/><use xlink:href="#NLlonjR9P5aYKO-zJpI7_pad-3" x="-4445" y="10160"/><use xlink:href="#NLlonjR9P5aYKO-zJpI7_pad-3" x="-3031" y="11574"/><use xlink:href="#NLlonjR9P5aYKO-zJpI7_pad-3" x="-1617" y="12988"/></g><clipPath id="mWK6h_tjL_oHYC457vci_top_outline"><path d="M -7460 -29000 7460 -29000 7460 29000 -7460 29000 -7460 -29000" fill="none" stroke-width="254"/></clipPath><mask id="mWK6h_tjL_oHYC457vci_top_mech-mask"><g fill="#000" stroke="#000"><rect x="-7460" y="-29000" width="14920" height="58000" fill="#fff"/><use xlink:href="#mWK6h_tjL_oHYC457vci_top_drill1"/></g></mask><mask id="mWK6h_tjL_oHYC457vci_top_cf-mask"><g fill="#fff" stroke="#fff"><use xlink:href="#mWK6h_tjL_oHYC457vci_top_soldermask"/></g></mask><mask id="mWK6h_tjL_oHYC457vci_top_sm-mask"><g fill="#000" stroke="#000"><rect x="-7460" y="-29000" width="14920" height="58000" fill="#fff"/><use xlink:href="#mWK6h_tjL_oHYC457vci_top_soldermask"/></g></mask></defs><g transform="translate(0,0) scale(1,-1)"><g mask="url(#mWK6h_tjL_oHYC457vci_top_mech-mask)" clip-path="url(#mWK6h_tjL_oHYC457vci_top_outline)"><rect x="-7460" y="-29000" width="14920" height="58000" fill="currentColor" class="mWK6h_tjL_oHYC457vci_fr4"/><use xlink:href="#mWK6h_tjL_oHYC457vci_top_copper" fill="currentColor" stroke="currentColor" class="mWK6h_tjL_oHYC457vci_cu"/><use xlink:href="#mWK6h_tjL_oHYC457vci_top_copper" fill="currentColor" stroke="currentColor" class="mWK6h_tjL_oHYC457vci_cf" mask="url(#mWK6h_tjL_oHYC457vci_top_cf-mask)"/><g mask="url(#mWK6h_tjL_oHYC457vci_top_sm-mask)"><rect x="-7460" y="-29000" width="14920" height="58000" fill="currentColor" class="mWK6h_tjL_oHYC457vci_sm"/><use xlink:href="#mWK6h_tjL_oHYC457vci_top_silkscreen" fill="currentColor" stroke="currentColor" class="mWK6h_tjL_oHYC457vci_ss"/></g></g></g></svg>