<?xml version="1.0" encoding="UTF-8"?>
<svg xmlns="http://www.w3.org/2000/svg" version="1.1" viewBox="0 0 432 432">
  <!-- Generator: Adobe Illustrator 28.6.0, SVG Export Plug-In . SVG Version: 1.2.0 Build 709)  -->
  <g>
    <g id="Layer_1">
      <path d="M377.8,0H54.2C24.3,0,0,24.3,0,54.2v323.6c0,29.9,24.3,54.2,54.2,54.2h323.6c29.9,0,54.2-24.3,54.2-54.2V54.2c0-29.9-24.3-54.2-54.2-54.2ZM273.7,64.3h97.9l15.6,15.6-15.6,15.6h-97.9l-15.6-15.6,15.6-15.6ZM387.2,216l-15.6,15.6h-97.9l-15.6-15.6,15.6-15.6h97.9l15.6,15.6ZM41.3,95.5l-15.6-15.6,15.6-15.6h97.9l15.6,15.6-15.6,15.6H41.3ZM173.9,333l-15.6,15.6-15.6-15.6v-97.9l15.6-15.6,15.6,15.6v97.9ZM173.9,196.9l-15.6,15.6-15.6-15.6v-97.9l15.6-15.6,15.6,15.6v97.9ZM239,196.9v-97.9l15.6-15.6,15.6,15.6v97.9l-15.6,15.6-15.6-15.6ZM371.6,367.7h-97.9l-15.6-15.6,15.6-15.6h97.9l15.6,15.6-15.6,15.6ZM406.3,333l-15.6,15.6-15.6-15.6v-97.9l15.6-15.6,15.6,15.6v97.9Z"/>
    </g>
  </g>
</svg>