G04 EAGLE Gerber RS-274X export*
G75*
%MOMM*%
%FSLAX34Y34*%
%LPD*%
%INBottom Copper*%
%IPPOS*%
%AMOC8*
5,1,8,0,0,1.08239X$1,22.5*%
G01*
G04 Define Apertures*
%ADD10C,1.219200*%
%ADD11R,1.143000X1.143000*%
%ADD12C,1.143000*%
G36*
X63975Y-279780D02*
X63678Y-279840D01*
X-63678Y-279840D01*
X-63953Y-279789D01*
X-64208Y-279625D01*
X-64380Y-279375D01*
X-64440Y-279078D01*
X-64440Y-168299D01*
X-64355Y-167950D01*
X-64166Y-167714D01*
X-63899Y-167570D01*
X-63597Y-167542D01*
X-63308Y-167633D01*
X-63077Y-167831D01*
X-62942Y-168102D01*
X-62716Y-168946D01*
X-59238Y-174970D01*
X-54320Y-179888D01*
X-48296Y-183366D01*
X-41578Y-185166D01*
X-34622Y-185166D01*
X-27904Y-183366D01*
X-21880Y-179888D01*
X-16962Y-174970D01*
X-13484Y-168946D01*
X-11684Y-162228D01*
X-11684Y-155272D01*
X-13484Y-148554D01*
X-16962Y-142530D01*
X-21880Y-137612D01*
X-27904Y-134134D01*
X-34622Y-132334D01*
X-41578Y-132334D01*
X-48296Y-134134D01*
X-54320Y-137612D01*
X-59238Y-142530D01*
X-62716Y-148554D01*
X-62942Y-149398D01*
X-63114Y-149713D01*
X-63359Y-149892D01*
X-63654Y-149962D01*
X-63953Y-149911D01*
X-64208Y-149748D01*
X-64380Y-149498D01*
X-64440Y-149201D01*
X-64440Y279078D01*
X-64389Y279353D01*
X-64225Y279608D01*
X-63975Y279780D01*
X-63678Y279840D01*
X63678Y279840D01*
X63953Y279789D01*
X64208Y279625D01*
X64380Y279375D01*
X64440Y279078D01*
X64440Y168299D01*
X64355Y167950D01*
X64166Y167714D01*
X63899Y167570D01*
X63597Y167542D01*
X63308Y167633D01*
X63077Y167831D01*
X62942Y168102D01*
X62716Y168946D01*
X59238Y174970D01*
X54320Y179888D01*
X48296Y183366D01*
X41578Y185166D01*
X34622Y185166D01*
X27904Y183366D01*
X21880Y179888D01*
X16962Y174970D01*
X13484Y168946D01*
X11684Y162228D01*
X11684Y155272D01*
X13484Y148554D01*
X16962Y142530D01*
X21880Y137612D01*
X27904Y134134D01*
X34622Y132334D01*
X41578Y132334D01*
X48296Y134134D01*
X54320Y137612D01*
X59238Y142530D01*
X62716Y148554D01*
X62942Y149398D01*
X63114Y149713D01*
X63359Y149892D01*
X63654Y149962D01*
X63953Y149911D01*
X64208Y149748D01*
X64380Y149498D01*
X64440Y149201D01*
X64440Y-279078D01*
X64389Y-279353D01*
X64225Y-279608D01*
X63975Y-279780D01*
G37*
%LPC*%
G36*
X-7929Y231747D02*
X-7049Y231747D01*
X-7049Y248257D01*
X-7929Y248257D01*
X-10963Y247000D01*
X-12767Y245197D01*
X-12997Y245039D01*
X-13293Y244974D01*
X-13591Y245029D01*
X-13844Y245197D01*
X-14786Y246139D01*
X-17447Y247241D01*
X-20327Y247241D01*
X-22988Y246139D01*
X-25024Y244103D01*
X-26126Y241442D01*
X-26126Y238562D01*
X-25024Y235901D01*
X-22988Y233865D01*
X-20327Y232763D01*
X-17447Y232763D01*
X-14786Y233865D01*
X-13844Y234807D01*
X-13614Y234965D01*
X-13318Y235030D01*
X-13019Y234975D01*
X-12767Y234807D01*
X-10963Y233004D01*
X-7929Y231747D01*
G37*
G36*
X-5525Y231747D02*
X-4645Y231747D01*
X-1611Y233004D01*
X193Y234807D01*
X423Y234965D01*
X719Y235030D01*
X1017Y234975D01*
X1270Y234807D01*
X2212Y233865D01*
X4873Y232763D01*
X7753Y232763D01*
X10429Y233871D01*
X10631Y234010D01*
X10927Y234075D01*
X11225Y234019D01*
X11478Y233852D01*
X12567Y232763D01*
X25259Y232763D01*
X26152Y233656D01*
X26152Y246348D01*
X25259Y247241D01*
X12567Y247241D01*
X11478Y246152D01*
X11247Y245994D01*
X10951Y245929D01*
X10653Y245985D01*
X10432Y246131D01*
X7753Y247241D01*
X4873Y247241D01*
X2212Y246139D01*
X1270Y245197D01*
X1040Y245039D01*
X744Y244974D01*
X445Y245029D01*
X193Y245197D01*
X-1611Y247000D01*
X-4645Y248257D01*
X-5525Y248257D01*
X-5525Y231747D01*
G37*
G36*
X-21734Y136530D02*
X-16166Y130962D01*
X-10598Y136530D01*
X-11274Y137206D01*
X-14448Y138520D01*
X-17884Y138520D01*
X-21058Y137206D01*
X-21734Y136530D01*
G37*
G36*
X-23487Y124992D02*
X-22811Y124317D01*
X-17243Y129884D01*
X-22811Y135452D01*
X-23487Y134776D01*
X-24802Y131602D01*
X-24802Y128166D01*
X-23487Y124992D01*
G37*
G36*
X-15088Y129884D02*
X-9520Y124317D01*
X-8844Y124992D01*
X-7530Y128166D01*
X-7530Y131602D01*
X-8844Y134776D01*
X-9520Y135452D01*
X-15088Y129884D01*
G37*
G36*
X-17884Y121248D02*
X-14448Y121248D01*
X-11274Y122563D01*
X-10598Y123239D01*
X-16166Y128807D01*
X-21734Y123239D01*
X-21058Y122563D01*
X-17884Y121248D01*
G37*
G36*
X-31824Y108122D02*
X-28792Y108122D01*
X-25991Y109282D01*
X-23848Y111426D01*
X-22688Y114226D01*
X-22688Y117258D01*
X-23848Y120059D01*
X-25991Y122202D01*
X-28792Y123362D01*
X-31824Y123362D01*
X-34624Y122202D01*
X-36768Y120059D01*
X-37928Y117258D01*
X-37928Y114226D01*
X-36768Y111426D01*
X-34624Y109282D01*
X-31824Y108122D01*
G37*
G36*
X-45966Y93980D02*
X-42934Y93980D01*
X-40134Y95140D01*
X-37990Y97284D01*
X-36830Y100084D01*
X-36830Y103116D01*
X-37990Y105916D01*
X-40134Y108060D01*
X-42934Y109220D01*
X-45966Y109220D01*
X-48766Y108060D01*
X-50910Y105916D01*
X-52070Y103116D01*
X-52070Y100084D01*
X-50910Y97284D01*
X-48766Y95140D01*
X-45966Y93980D01*
G37*
G36*
X42934Y-109220D02*
X45966Y-109220D01*
X48766Y-108060D01*
X50910Y-105916D01*
X52070Y-103116D01*
X52070Y-100084D01*
X50910Y-97284D01*
X48766Y-95140D01*
X45966Y-93980D01*
X42934Y-93980D01*
X40134Y-95140D01*
X37990Y-97284D01*
X36830Y-100084D01*
X36830Y-103116D01*
X37990Y-105916D01*
X40134Y-108060D01*
X42934Y-109220D01*
G37*
G36*
X28792Y-123362D02*
X31824Y-123362D01*
X34624Y-122202D01*
X36768Y-120059D01*
X37928Y-117258D01*
X37928Y-114226D01*
X36768Y-111426D01*
X34624Y-109282D01*
X31824Y-108122D01*
X28792Y-108122D01*
X25991Y-109282D01*
X23848Y-111426D01*
X22688Y-114226D01*
X22688Y-117258D01*
X23848Y-120059D01*
X25991Y-122202D01*
X28792Y-123362D01*
G37*
G36*
X10598Y-123239D02*
X16166Y-128807D01*
X21734Y-123239D01*
X21058Y-122563D01*
X17884Y-121248D01*
X14448Y-121248D01*
X11274Y-122563D01*
X10598Y-123239D01*
G37*
G36*
X8844Y-134776D02*
X9520Y-135452D01*
X15088Y-129884D01*
X9520Y-124317D01*
X8844Y-124992D01*
X7530Y-128166D01*
X7530Y-131602D01*
X8844Y-134776D01*
G37*
G36*
X17243Y-129884D02*
X22811Y-135452D01*
X23487Y-134776D01*
X24802Y-131602D01*
X24802Y-128166D01*
X23487Y-124992D01*
X22811Y-124317D01*
X17243Y-129884D01*
G37*
G36*
X14448Y-138520D02*
X17884Y-138520D01*
X21058Y-137206D01*
X21734Y-136530D01*
X16166Y-130962D01*
X10598Y-136530D01*
X11274Y-137206D01*
X14448Y-138520D01*
G37*
G36*
X-7929Y-248257D02*
X-7049Y-248257D01*
X-7049Y-231747D01*
X-7929Y-231747D01*
X-10963Y-233004D01*
X-12767Y-234807D01*
X-12997Y-234965D01*
X-13293Y-235030D01*
X-13591Y-234975D01*
X-13844Y-234807D01*
X-14786Y-233865D01*
X-17447Y-232763D01*
X-20327Y-232763D01*
X-22988Y-233865D01*
X-25024Y-235901D01*
X-26126Y-238562D01*
X-26126Y-241442D01*
X-25024Y-244103D01*
X-22988Y-246139D01*
X-20327Y-247241D01*
X-17447Y-247241D01*
X-14786Y-246139D01*
X-13844Y-245197D01*
X-13614Y-245039D01*
X-13318Y-244974D01*
X-13019Y-245029D01*
X-12767Y-245197D01*
X-10963Y-247000D01*
X-7929Y-248257D01*
G37*
G36*
X-5525Y-248257D02*
X-4645Y-248257D01*
X-1611Y-247000D01*
X193Y-245197D01*
X423Y-245039D01*
X719Y-244974D01*
X1017Y-245029D01*
X1270Y-245197D01*
X2212Y-246139D01*
X4873Y-247241D01*
X7753Y-247241D01*
X10429Y-246133D01*
X10631Y-245994D01*
X10927Y-245929D01*
X11225Y-245985D01*
X11478Y-246152D01*
X12567Y-247241D01*
X25259Y-247241D01*
X26152Y-246348D01*
X26152Y-233656D01*
X25259Y-232763D01*
X12567Y-232763D01*
X11478Y-233852D01*
X11247Y-234010D01*
X10951Y-234075D01*
X10653Y-234019D01*
X10432Y-233873D01*
X7753Y-232763D01*
X4873Y-232763D01*
X2212Y-233865D01*
X1270Y-234807D01*
X1040Y-234965D01*
X744Y-235030D01*
X445Y-234975D01*
X193Y-234807D01*
X-1611Y-233004D01*
X-4645Y-231747D01*
X-5525Y-231747D01*
X-5525Y-248257D01*
G37*
%LPD*%
D10*
X44450Y-101600D03*
X30308Y-115742D03*
X16166Y-129884D03*
X-44450Y101600D03*
X-30308Y115742D03*
X-16166Y129884D03*
D11*
X18913Y-240002D03*
D12*
X6313Y-240002D03*
X-6287Y-240002D03*
X-18887Y-240002D03*
D11*
X18913Y240002D03*
D12*
X6313Y240002D03*
X-6287Y240002D03*
X-18887Y240002D03*
M02*
