G04 EAGLE Gerber RS-274X export*
G75*
%MOMM*%
%FSLAX34Y34*%
%LPD*%
%INTop Copper*%
%IPPOS*%
%AMOC8*
5,1,8,0,0,1.08239X$1,22.5*%
G01*
G04 Define Apertures*
%ADD10C,1.219200*%
%ADD11R,1.143000X1.143000*%
%ADD12C,1.143000*%
%ADD13C,0.152400*%
G36*
X63975Y-279780D02*
X63678Y-279840D01*
X-63678Y-279840D01*
X-63953Y-279789D01*
X-64208Y-279625D01*
X-64380Y-279375D01*
X-64440Y-279078D01*
X-64440Y-168299D01*
X-64355Y-167950D01*
X-64166Y-167714D01*
X-63899Y-167570D01*
X-63597Y-167542D01*
X-63308Y-167633D01*
X-63077Y-167831D01*
X-62942Y-168102D01*
X-62716Y-168946D01*
X-59238Y-174970D01*
X-54320Y-179888D01*
X-48296Y-183366D01*
X-41578Y-185166D01*
X-34622Y-185166D01*
X-27904Y-183366D01*
X-21880Y-179888D01*
X-16962Y-174970D01*
X-13484Y-168946D01*
X-11684Y-162228D01*
X-11684Y-155272D01*
X-13484Y-148554D01*
X-16962Y-142530D01*
X-21880Y-137612D01*
X-27904Y-134134D01*
X-34622Y-132334D01*
X-41578Y-132334D01*
X-48296Y-134134D01*
X-54320Y-137612D01*
X-59238Y-142530D01*
X-62716Y-148554D01*
X-62942Y-149398D01*
X-63114Y-149713D01*
X-63359Y-149892D01*
X-63654Y-149962D01*
X-63953Y-149911D01*
X-64208Y-149748D01*
X-64380Y-149498D01*
X-64440Y-149201D01*
X-64440Y279078D01*
X-64389Y279353D01*
X-64225Y279608D01*
X-63975Y279780D01*
X-63678Y279840D01*
X63678Y279840D01*
X63953Y279789D01*
X64208Y279625D01*
X64380Y279375D01*
X64440Y279078D01*
X64440Y168299D01*
X64355Y167950D01*
X64166Y167714D01*
X63899Y167570D01*
X63597Y167542D01*
X63308Y167633D01*
X63077Y167831D01*
X62942Y168102D01*
X62716Y168946D01*
X59238Y174970D01*
X54320Y179888D01*
X48296Y183366D01*
X41578Y185166D01*
X34622Y185166D01*
X27904Y183366D01*
X21880Y179888D01*
X16962Y174970D01*
X13484Y168946D01*
X11684Y162228D01*
X11684Y155272D01*
X13484Y148554D01*
X16962Y142530D01*
X21880Y137612D01*
X27904Y134134D01*
X34622Y132334D01*
X41578Y132334D01*
X48296Y134134D01*
X54320Y137612D01*
X59238Y142530D01*
X62716Y148554D01*
X62942Y149398D01*
X63114Y149713D01*
X63359Y149892D01*
X63654Y149962D01*
X63953Y149911D01*
X64208Y149748D01*
X64380Y149498D01*
X64440Y149201D01*
X64440Y-279078D01*
X64389Y-279353D01*
X64225Y-279608D01*
X63975Y-279780D01*
G37*
%LPC*%
G36*
X7075Y-248257D02*
X7955Y-248257D01*
X10989Y-247000D01*
X11119Y-246871D01*
X11349Y-246713D01*
X11645Y-246648D01*
X11944Y-246703D01*
X12196Y-246871D01*
X12567Y-247241D01*
X25259Y-247241D01*
X26152Y-246348D01*
X26152Y-233656D01*
X25259Y-232763D01*
X21961Y-232763D01*
X21686Y-232712D01*
X21431Y-232548D01*
X21259Y-232298D01*
X21199Y-232001D01*
X21199Y-147450D01*
X21255Y-147164D01*
X21422Y-146911D01*
X59436Y-108897D01*
X59436Y-56203D01*
X-54641Y57874D01*
X-54804Y58115D01*
X-54864Y58413D01*
X-54864Y106687D01*
X-54808Y106973D01*
X-54641Y107226D01*
X-16601Y145266D01*
X-16601Y232604D01*
X-16548Y232885D01*
X-16382Y233139D01*
X-16131Y233308D01*
X-14786Y233865D01*
X-13126Y235526D01*
X-12895Y235684D01*
X-12599Y235749D01*
X-12301Y235693D01*
X-12048Y235526D01*
X-10388Y233865D01*
X-7727Y232763D01*
X-4847Y232763D01*
X-2186Y233865D01*
X-1244Y234807D01*
X-1014Y234965D01*
X-718Y235030D01*
X-419Y234975D01*
X-167Y234807D01*
X1637Y233004D01*
X4671Y231747D01*
X5551Y231747D01*
X5551Y248257D01*
X4671Y248257D01*
X1637Y247000D01*
X-167Y245197D01*
X-397Y245039D01*
X-693Y244974D01*
X-991Y245029D01*
X-1244Y245197D01*
X-2186Y246139D01*
X-4847Y247241D01*
X-7727Y247241D01*
X-10388Y246139D01*
X-12048Y244478D01*
X-12279Y244320D01*
X-12575Y244255D01*
X-12873Y244311D01*
X-13126Y244478D01*
X-14786Y246139D01*
X-17447Y247241D01*
X-20327Y247241D01*
X-22988Y246139D01*
X-25024Y244103D01*
X-26126Y241442D01*
X-26126Y238562D01*
X-25024Y235901D01*
X-22988Y233865D01*
X-21643Y233308D01*
X-21405Y233152D01*
X-21233Y232902D01*
X-21173Y232604D01*
X-21173Y147476D01*
X-21229Y147190D01*
X-21396Y146937D01*
X-59436Y108897D01*
X-59436Y56203D01*
X54641Y-57874D01*
X54804Y-58115D01*
X54864Y-58413D01*
X54864Y-106687D01*
X54808Y-106973D01*
X54641Y-107226D01*
X16627Y-145240D01*
X16627Y-232001D01*
X16576Y-232276D01*
X16412Y-232531D01*
X16162Y-232703D01*
X15865Y-232763D01*
X12567Y-232763D01*
X12196Y-233133D01*
X11966Y-233291D01*
X11670Y-233356D01*
X11372Y-233301D01*
X11119Y-233133D01*
X10989Y-233004D01*
X7955Y-231747D01*
X7075Y-231747D01*
X7075Y-248257D01*
G37*
G36*
X-31824Y108122D02*
X-28792Y108122D01*
X-25991Y109282D01*
X-23848Y111426D01*
X-23202Y112986D01*
X-23045Y113224D01*
X-22795Y113396D01*
X-22498Y113456D01*
X2389Y113456D01*
X8499Y119566D01*
X8499Y200639D01*
X8555Y200925D01*
X8722Y201178D01*
X21199Y213655D01*
X21199Y232001D01*
X21250Y232276D01*
X21414Y232531D01*
X21664Y232703D01*
X21961Y232763D01*
X25259Y232763D01*
X26152Y233656D01*
X26152Y246348D01*
X25259Y247241D01*
X12567Y247241D01*
X12196Y246871D01*
X11966Y246713D01*
X11670Y246648D01*
X11372Y246703D01*
X11119Y246871D01*
X10989Y247000D01*
X7955Y248257D01*
X7075Y248257D01*
X7075Y231747D01*
X7955Y231747D01*
X10989Y233004D01*
X11119Y233133D01*
X11349Y233291D01*
X11645Y233356D01*
X11944Y233301D01*
X12196Y233133D01*
X12567Y232763D01*
X15865Y232763D01*
X16140Y232712D01*
X16395Y232548D01*
X16567Y232298D01*
X16627Y232001D01*
X16627Y215865D01*
X16571Y215579D01*
X16404Y215326D01*
X3927Y202849D01*
X3927Y121776D01*
X3871Y121490D01*
X3704Y121237D01*
X718Y118251D01*
X477Y118088D01*
X180Y118028D01*
X-22498Y118028D01*
X-22778Y118082D01*
X-23032Y118247D01*
X-23202Y118499D01*
X-23848Y120059D01*
X-25991Y122202D01*
X-28792Y123362D01*
X-31824Y123362D01*
X-34624Y122202D01*
X-36768Y120059D01*
X-37928Y117258D01*
X-37928Y114226D01*
X-36768Y111426D01*
X-34624Y109282D01*
X-31824Y108122D01*
G37*
G36*
X-17681Y122264D02*
X-14650Y122264D01*
X-11849Y123424D01*
X-9706Y125568D01*
X-8546Y128369D01*
X-8546Y131400D01*
X-9706Y134201D01*
X-11849Y136344D01*
X-14650Y137504D01*
X-17681Y137504D01*
X-20482Y136344D01*
X-22626Y134201D01*
X-23786Y131400D01*
X-23786Y128369D01*
X-22626Y125568D01*
X-20482Y123424D01*
X-17681Y122264D01*
G37*
G36*
X-50018Y108245D02*
X-44450Y102678D01*
X-38882Y108245D01*
X-39558Y108921D01*
X-42732Y110236D01*
X-46168Y110236D01*
X-49342Y108921D01*
X-50018Y108245D01*
G37*
G36*
X-51771Y96708D02*
X-51095Y96032D01*
X-45528Y101600D01*
X-51095Y107168D01*
X-51771Y106492D01*
X-53086Y103318D01*
X-53086Y99882D01*
X-51771Y96708D01*
G37*
G36*
X-43372Y101600D02*
X-37805Y96032D01*
X-37129Y96708D01*
X-35814Y99882D01*
X-35814Y103318D01*
X-37129Y106492D01*
X-37805Y107168D01*
X-43372Y101600D01*
G37*
G36*
X-46168Y92964D02*
X-42732Y92964D01*
X-39558Y94279D01*
X-38882Y94955D01*
X-44450Y100522D01*
X-50018Y94955D01*
X-49342Y94279D01*
X-46168Y92964D01*
G37*
G36*
X38882Y-94955D02*
X44450Y-100522D01*
X50018Y-94955D01*
X49342Y-94279D01*
X46168Y-92964D01*
X42732Y-92964D01*
X39558Y-94279D01*
X38882Y-94955D01*
G37*
G36*
X37129Y-106492D02*
X37805Y-107168D01*
X43372Y-101600D01*
X37805Y-96032D01*
X37129Y-96708D01*
X35814Y-99882D01*
X35814Y-103318D01*
X37129Y-106492D01*
G37*
G36*
X45528Y-101600D02*
X51095Y-107168D01*
X51771Y-106492D01*
X53086Y-103318D01*
X53086Y-99882D01*
X51771Y-96708D01*
X51095Y-96032D01*
X45528Y-101600D01*
G37*
G36*
X42732Y-110236D02*
X46168Y-110236D01*
X49342Y-108921D01*
X50018Y-108245D01*
X44450Y-102678D01*
X38882Y-108245D01*
X39558Y-108921D01*
X42732Y-110236D01*
G37*
G36*
X4671Y-248257D02*
X5551Y-248257D01*
X5551Y-231747D01*
X4671Y-231747D01*
X1637Y-233004D01*
X-167Y-234807D01*
X-397Y-234965D01*
X-693Y-235030D01*
X-991Y-234975D01*
X-1244Y-234807D01*
X-2186Y-233865D01*
X-4847Y-232763D01*
X-7727Y-232763D01*
X-10388Y-233865D01*
X-12048Y-235526D01*
X-12279Y-235684D01*
X-12575Y-235749D01*
X-12873Y-235693D01*
X-13126Y-235526D01*
X-14786Y-233865D01*
X-16131Y-233308D01*
X-16369Y-233152D01*
X-16541Y-232902D01*
X-16601Y-232604D01*
X-16601Y-215865D01*
X-16545Y-215579D01*
X-16378Y-215326D01*
X-3901Y-202849D01*
X-3901Y-121750D01*
X-3845Y-121464D01*
X-3678Y-121211D01*
X-718Y-118251D01*
X-477Y-118088D01*
X-180Y-118028D01*
X22498Y-118028D01*
X22778Y-118082D01*
X23032Y-118247D01*
X23202Y-118499D01*
X23848Y-120059D01*
X25991Y-122202D01*
X28792Y-123362D01*
X31824Y-123362D01*
X34624Y-122202D01*
X36768Y-120059D01*
X37928Y-117258D01*
X37928Y-114226D01*
X36768Y-111426D01*
X34624Y-109282D01*
X31824Y-108122D01*
X28792Y-108122D01*
X25991Y-109282D01*
X23848Y-111426D01*
X23202Y-112986D01*
X23045Y-113224D01*
X22795Y-113396D01*
X22498Y-113456D01*
X-2389Y-113456D01*
X-8473Y-119540D01*
X-8473Y-200639D01*
X-8529Y-200925D01*
X-8696Y-201178D01*
X-21173Y-213655D01*
X-21173Y-232604D01*
X-21226Y-232885D01*
X-21392Y-233139D01*
X-21643Y-233308D01*
X-22988Y-233865D01*
X-25024Y-235901D01*
X-26126Y-238562D01*
X-26126Y-241442D01*
X-25024Y-244103D01*
X-22988Y-246139D01*
X-20327Y-247241D01*
X-17447Y-247241D01*
X-14786Y-246139D01*
X-13126Y-244478D01*
X-12895Y-244320D01*
X-12599Y-244255D01*
X-12301Y-244311D01*
X-12048Y-244478D01*
X-10388Y-246139D01*
X-7727Y-247241D01*
X-4847Y-247241D01*
X-2186Y-246139D01*
X-1244Y-245197D01*
X-1014Y-245039D01*
X-718Y-244974D01*
X-419Y-245029D01*
X-167Y-245197D01*
X1637Y-247000D01*
X4671Y-248257D01*
G37*
G36*
X14650Y-137504D02*
X17681Y-137504D01*
X20482Y-136344D01*
X22626Y-134201D01*
X23786Y-131400D01*
X23786Y-128369D01*
X22626Y-125568D01*
X20482Y-123424D01*
X17681Y-122264D01*
X14650Y-122264D01*
X11849Y-123424D01*
X9706Y-125568D01*
X8546Y-128369D01*
X8546Y-131400D01*
X9706Y-134201D01*
X11849Y-136344D01*
X14650Y-137504D01*
G37*
%LPD*%
D10*
X44450Y-101600D03*
X30308Y-115742D03*
X16166Y-129884D03*
X-44450Y101600D03*
X-30308Y115742D03*
X-16166Y129884D03*
D11*
X18913Y-240002D03*
D12*
X6313Y-240002D03*
X-6287Y-240002D03*
X-18887Y-240002D03*
D11*
X18913Y240002D03*
D12*
X6313Y240002D03*
X-6287Y240002D03*
X-18887Y240002D03*
D13*
X-6187Y-120487D02*
X-6187Y-201902D01*
X-18887Y-214602D01*
X-18887Y-240002D01*
X-6187Y-120487D02*
X-1442Y-115742D01*
X30308Y-115742D01*
X18913Y214602D02*
X18913Y240002D01*
X18913Y214602D02*
X6213Y201902D01*
X6213Y120513D01*
X1442Y115742D01*
X-30308Y115742D01*
X18913Y-146187D02*
X18913Y-240002D01*
X18913Y-146187D02*
X57150Y-107950D01*
X57150Y-57150D01*
X-57150Y57150D01*
X-57150Y107950D01*
X-18887Y146213D01*
X-18887Y240002D01*
M02*
