G04 EAGLE Gerber RS-274X export*
G75*
%MOMM*%
%FSLAX34Y34*%
%LPD*%
%INSilkscreen Bottom*%
%IPPOS*%
%AMOC8*
5,1,8,0,0,1.08239X$1,22.5*%
G01*
G04 Define Apertures*
%ADD10C,0.508000*%
G36*
X17797Y-54339D02*
X17220Y-54318D01*
X16668Y-54255D01*
X16144Y-54149D01*
X15646Y-54001D01*
X15175Y-53811D01*
X14731Y-53578D01*
X14313Y-53303D01*
X13922Y-52986D01*
X13568Y-52641D01*
X13261Y-52283D01*
X13001Y-51911D01*
X12789Y-51527D01*
X12623Y-51129D01*
X12505Y-50717D01*
X12435Y-50293D01*
X12411Y-49855D01*
X12422Y-49557D01*
X12455Y-49264D01*
X12510Y-48976D01*
X12586Y-48693D01*
X12685Y-48415D01*
X12805Y-48141D01*
X12947Y-47872D01*
X13112Y-47608D01*
X13296Y-47354D01*
X13497Y-47113D01*
X13715Y-46887D01*
X13951Y-46674D01*
X14205Y-46476D01*
X14476Y-46292D01*
X14764Y-46122D01*
X15069Y-45966D01*
X15387Y-45826D01*
X15711Y-45705D01*
X16042Y-45603D01*
X16380Y-45519D01*
X16724Y-45454D01*
X17075Y-45408D01*
X17433Y-45380D01*
X17797Y-45370D01*
X18164Y-45380D01*
X18523Y-45408D01*
X18876Y-45455D01*
X19221Y-45520D01*
X19559Y-45605D01*
X19890Y-45708D01*
X20213Y-45830D01*
X20530Y-45970D01*
X20835Y-46127D01*
X21122Y-46298D01*
X21392Y-46483D01*
X21645Y-46681D01*
X21880Y-46893D01*
X22098Y-47119D01*
X22300Y-47359D01*
X22483Y-47613D01*
X22648Y-47876D01*
X22790Y-48144D01*
X22910Y-48416D01*
X23009Y-48694D01*
X23085Y-48977D01*
X23140Y-49265D01*
X23173Y-49557D01*
X23184Y-49855D01*
X23160Y-50293D01*
X23090Y-50717D01*
X22972Y-51129D01*
X22807Y-51527D01*
X22596Y-51911D01*
X22337Y-52283D01*
X22031Y-52641D01*
X21678Y-52986D01*
X21287Y-53303D01*
X20870Y-53578D01*
X20426Y-53811D01*
X19954Y-54001D01*
X19456Y-54149D01*
X18930Y-54255D01*
X18377Y-54318D01*
X17797Y-54339D01*
G37*
%LPC*%
G36*
X17797Y-53603D02*
X18270Y-53586D01*
X18726Y-53535D01*
X19163Y-53449D01*
X19583Y-53329D01*
X19985Y-53174D01*
X20370Y-52985D01*
X20737Y-52762D01*
X21086Y-52504D01*
X21406Y-52222D01*
X21682Y-51926D01*
X21916Y-51616D01*
X22108Y-51292D01*
X22257Y-50954D01*
X22363Y-50602D01*
X22427Y-50235D01*
X22448Y-49855D01*
X22426Y-49451D01*
X22359Y-49065D01*
X22247Y-48699D01*
X22091Y-48353D01*
X21891Y-48025D01*
X21645Y-47717D01*
X21355Y-47427D01*
X21021Y-47157D01*
X20658Y-46913D01*
X20284Y-46701D01*
X19898Y-46522D01*
X19501Y-46375D01*
X19092Y-46261D01*
X18672Y-46180D01*
X18241Y-46131D01*
X17797Y-46115D01*
X17352Y-46131D01*
X16919Y-46180D01*
X16498Y-46261D01*
X16088Y-46375D01*
X15691Y-46522D01*
X15305Y-46701D01*
X14932Y-46913D01*
X14570Y-47157D01*
X14236Y-47427D01*
X13947Y-47717D01*
X13703Y-48025D01*
X13503Y-48353D01*
X13347Y-48699D01*
X13236Y-49065D01*
X13169Y-49451D01*
X13147Y-49855D01*
X13167Y-50211D01*
X13228Y-50559D01*
X13330Y-50897D01*
X13472Y-51227D01*
X13655Y-51547D01*
X13878Y-51857D01*
X14142Y-52159D01*
X14447Y-52452D01*
X14784Y-52722D01*
X15144Y-52956D01*
X15528Y-53154D01*
X15935Y-53315D01*
X16366Y-53441D01*
X16820Y-53531D01*
X17297Y-53585D01*
X17797Y-53603D01*
G37*
%LPD*%
G36*
X17797Y-32839D02*
X17220Y-32818D01*
X16668Y-32755D01*
X16144Y-32649D01*
X15646Y-32501D01*
X15175Y-32311D01*
X14731Y-32078D01*
X14313Y-31803D01*
X13922Y-31486D01*
X13568Y-31141D01*
X13261Y-30783D01*
X13001Y-30411D01*
X12789Y-30027D01*
X12623Y-29629D01*
X12505Y-29217D01*
X12435Y-28793D01*
X12411Y-28355D01*
X12422Y-28057D01*
X12455Y-27764D01*
X12510Y-27476D01*
X12586Y-27193D01*
X12685Y-26915D01*
X12805Y-26641D01*
X12947Y-26372D01*
X13112Y-26108D01*
X13296Y-25854D01*
X13497Y-25613D01*
X13715Y-25387D01*
X13951Y-25174D01*
X14205Y-24976D01*
X14476Y-24792D01*
X14764Y-24622D01*
X15069Y-24466D01*
X15387Y-24326D01*
X15711Y-24205D01*
X16042Y-24103D01*
X16380Y-24019D01*
X16724Y-23954D01*
X17075Y-23908D01*
X17433Y-23880D01*
X17797Y-23870D01*
X18164Y-23880D01*
X18523Y-23908D01*
X18876Y-23955D01*
X19221Y-24020D01*
X19559Y-24105D01*
X19890Y-24208D01*
X20213Y-24330D01*
X20530Y-24470D01*
X20835Y-24627D01*
X21122Y-24798D01*
X21392Y-24983D01*
X21645Y-25181D01*
X21880Y-25393D01*
X22098Y-25619D01*
X22300Y-25859D01*
X22483Y-26113D01*
X22648Y-26376D01*
X22790Y-26644D01*
X22910Y-26916D01*
X23009Y-27194D01*
X23085Y-27477D01*
X23140Y-27765D01*
X23173Y-28057D01*
X23184Y-28355D01*
X23160Y-28793D01*
X23090Y-29217D01*
X22972Y-29629D01*
X22807Y-30027D01*
X22596Y-30411D01*
X22337Y-30783D01*
X22031Y-31141D01*
X21678Y-31486D01*
X21287Y-31803D01*
X20870Y-32078D01*
X20426Y-32311D01*
X19954Y-32501D01*
X19456Y-32649D01*
X18930Y-32755D01*
X18377Y-32818D01*
X17797Y-32839D01*
G37*
%LPC*%
G36*
X17797Y-32103D02*
X18270Y-32086D01*
X18726Y-32035D01*
X19163Y-31949D01*
X19583Y-31829D01*
X19985Y-31674D01*
X20370Y-31485D01*
X20737Y-31262D01*
X21086Y-31004D01*
X21406Y-30722D01*
X21682Y-30426D01*
X21916Y-30116D01*
X22108Y-29792D01*
X22257Y-29454D01*
X22363Y-29102D01*
X22427Y-28735D01*
X22448Y-28355D01*
X22426Y-27951D01*
X22359Y-27565D01*
X22247Y-27199D01*
X22091Y-26853D01*
X21891Y-26525D01*
X21645Y-26217D01*
X21355Y-25927D01*
X21021Y-25657D01*
X20658Y-25413D01*
X20284Y-25201D01*
X19898Y-25022D01*
X19501Y-24875D01*
X19092Y-24761D01*
X18672Y-24680D01*
X18241Y-24631D01*
X17797Y-24615D01*
X17352Y-24631D01*
X16919Y-24680D01*
X16498Y-24761D01*
X16088Y-24875D01*
X15691Y-25022D01*
X15305Y-25201D01*
X14932Y-25413D01*
X14570Y-25657D01*
X14236Y-25927D01*
X13947Y-26217D01*
X13703Y-26525D01*
X13503Y-26853D01*
X13347Y-27199D01*
X13236Y-27565D01*
X13169Y-27951D01*
X13147Y-28355D01*
X13167Y-28711D01*
X13228Y-29059D01*
X13330Y-29397D01*
X13472Y-29727D01*
X13655Y-30047D01*
X13878Y-30357D01*
X14142Y-30659D01*
X14447Y-30952D01*
X14784Y-31222D01*
X15144Y-31456D01*
X15528Y-31654D01*
X15935Y-31815D01*
X16366Y-31941D01*
X16820Y-32031D01*
X17297Y-32085D01*
X17797Y-32103D01*
G37*
%LPD*%
G36*
X22580Y-86738D02*
X22501Y-86731D01*
X22430Y-86710D01*
X22313Y-86624D01*
X22268Y-86558D01*
X22237Y-86473D01*
X22218Y-86370D01*
X22212Y-86248D01*
X22212Y-85258D01*
X13436Y-85258D01*
X13436Y-86248D01*
X13429Y-86370D01*
X13411Y-86473D01*
X13379Y-86558D01*
X13335Y-86624D01*
X13218Y-86710D01*
X13147Y-86731D01*
X13068Y-86738D01*
X12992Y-86731D01*
X12923Y-86710D01*
X12805Y-86624D01*
X12759Y-86558D01*
X12726Y-86473D01*
X12707Y-86370D01*
X12700Y-86248D01*
X12700Y-80747D01*
X12707Y-80537D01*
X12727Y-80330D01*
X12760Y-80128D01*
X12807Y-79929D01*
X12941Y-79544D01*
X13129Y-79175D01*
X13355Y-78837D01*
X13603Y-78546D01*
X13874Y-78301D01*
X14167Y-78102D01*
X14479Y-77949D01*
X14808Y-77839D01*
X15152Y-77774D01*
X15511Y-77752D01*
X15715Y-77760D01*
X15914Y-77785D01*
X16109Y-77827D01*
X16300Y-77885D01*
X16486Y-77960D01*
X16668Y-78052D01*
X16845Y-78161D01*
X17018Y-78286D01*
X17185Y-78429D01*
X17343Y-78591D01*
X17492Y-78773D01*
X17633Y-78974D01*
X17766Y-79193D01*
X17890Y-79432D01*
X18113Y-79968D01*
X18329Y-79629D01*
X18561Y-79335D01*
X18809Y-79087D01*
X19074Y-78884D01*
X19355Y-78726D01*
X19652Y-78613D01*
X19965Y-78545D01*
X20294Y-78523D01*
X20556Y-78536D01*
X20811Y-78576D01*
X21056Y-78644D01*
X21293Y-78738D01*
X21522Y-78860D01*
X21741Y-79008D01*
X21952Y-79183D01*
X22155Y-79385D01*
X22341Y-79609D01*
X22502Y-79849D01*
X22638Y-80104D01*
X22749Y-80376D01*
X22836Y-80664D01*
X22898Y-80968D01*
X22935Y-81287D01*
X22947Y-81623D01*
X22947Y-86248D01*
X22941Y-86370D01*
X22922Y-86473D01*
X22891Y-86558D01*
X22847Y-86624D01*
X22730Y-86710D01*
X22659Y-86731D01*
X22580Y-86738D01*
G37*
%LPC*%
G36*
X17649Y-84522D02*
X17649Y-81877D01*
X17632Y-81301D01*
X17581Y-80791D01*
X17496Y-80346D01*
X17377Y-79968D01*
X17225Y-79641D01*
X17042Y-79351D01*
X16827Y-79100D01*
X16580Y-78886D01*
X16315Y-78715D01*
X16046Y-78594D01*
X15772Y-78521D01*
X15494Y-78496D01*
X15247Y-78513D01*
X15003Y-78564D01*
X14765Y-78649D01*
X14531Y-78768D01*
X14308Y-78919D01*
X14104Y-79103D01*
X13918Y-79318D01*
X13751Y-79565D01*
X13613Y-79839D01*
X13515Y-80136D01*
X13455Y-80457D01*
X13436Y-80800D01*
X13436Y-84522D01*
X17649Y-84522D01*
G37*
G36*
X22212Y-84522D02*
X22212Y-81606D01*
X22203Y-81351D01*
X22175Y-81109D01*
X22130Y-80879D01*
X22066Y-80662D01*
X21984Y-80457D01*
X21884Y-80264D01*
X21766Y-80083D01*
X21629Y-79915D01*
X21482Y-79763D01*
X21331Y-79632D01*
X21177Y-79520D01*
X21020Y-79429D01*
X20859Y-79358D01*
X20694Y-79308D01*
X20526Y-79277D01*
X20355Y-79267D01*
X20115Y-79286D01*
X19878Y-79341D01*
X19642Y-79435D01*
X19409Y-79565D01*
X19191Y-79728D01*
X19000Y-79922D01*
X18836Y-80144D01*
X18700Y-80397D01*
X18565Y-80752D01*
X18470Y-81124D01*
X18412Y-81514D01*
X18393Y-81921D01*
X18393Y-84522D01*
X22212Y-84522D01*
G37*
%LPD*%
G36*
X52Y-42494D02*
X-1769Y-42494D01*
X-2257Y-42482D01*
X-2713Y-42444D01*
X-3137Y-42381D01*
X-3530Y-42293D01*
X-3803Y-42217D01*
X-4090Y-42119D01*
X-4703Y-41859D01*
X-5255Y-41569D01*
X-5465Y-41433D01*
X-5632Y-41303D01*
X-5851Y-41091D01*
X-6045Y-40858D01*
X-6212Y-40603D01*
X-6354Y-40327D01*
X-6467Y-40035D01*
X-6548Y-39734D01*
X-6597Y-39424D01*
X-6613Y-39105D01*
X-6596Y-38775D01*
X-6545Y-38459D01*
X-6460Y-38158D01*
X-6341Y-37872D01*
X-6189Y-37600D01*
X-6002Y-37343D01*
X-5781Y-37100D01*
X-5527Y-36871D01*
X-5165Y-36607D01*
X-4773Y-36377D01*
X-4350Y-36183D01*
X-3895Y-36024D01*
X-3410Y-35900D01*
X-2894Y-35812D01*
X-2347Y-35759D01*
X-1769Y-35741D01*
X52Y-35741D01*
X544Y-35754D01*
X1003Y-35790D01*
X1429Y-35850D01*
X1822Y-35934D01*
X2376Y-36114D01*
X2987Y-36372D01*
X3285Y-36519D01*
X3541Y-36661D01*
X3754Y-36799D01*
X3924Y-36933D01*
X4143Y-37144D01*
X4337Y-37377D01*
X4504Y-37631D01*
X4646Y-37905D01*
X4759Y-38195D01*
X4840Y-38496D01*
X4889Y-38808D01*
X4905Y-39131D01*
X4888Y-39461D01*
X4837Y-39776D01*
X4752Y-40077D01*
X4633Y-40364D01*
X4480Y-40636D01*
X4294Y-40893D01*
X4073Y-41136D01*
X3819Y-41364D01*
X3457Y-41629D01*
X3064Y-41859D01*
X2640Y-42053D01*
X2185Y-42212D01*
X1699Y-42335D01*
X1181Y-42424D01*
X632Y-42477D01*
X52Y-42494D01*
G37*
%LPC*%
G36*
X-44Y-41759D02*
X370Y-41748D01*
X771Y-41715D01*
X1158Y-41660D01*
X1533Y-41583D01*
X1894Y-41485D01*
X2242Y-41364D01*
X2577Y-41222D01*
X2899Y-41058D01*
X3195Y-40874D01*
X3451Y-40674D01*
X3668Y-40457D01*
X3845Y-40224D01*
X3983Y-39973D01*
X4081Y-39706D01*
X4141Y-39423D01*
X4160Y-39122D01*
X4141Y-38819D01*
X4084Y-38531D01*
X3988Y-38258D01*
X3854Y-38001D01*
X3739Y-37834D01*
X3613Y-37684D01*
X3476Y-37550D01*
X3328Y-37432D01*
X3038Y-37253D01*
X2703Y-37083D01*
X2322Y-36922D01*
X1896Y-36771D01*
X1438Y-36642D01*
X962Y-36551D01*
X468Y-36496D01*
X-44Y-36477D01*
X-1664Y-36477D01*
X-2078Y-36488D01*
X-2479Y-36521D01*
X-2867Y-36576D01*
X-3242Y-36652D01*
X-3604Y-36751D01*
X-3953Y-36871D01*
X-4289Y-37014D01*
X-4611Y-37178D01*
X-4908Y-37361D01*
X-5165Y-37561D01*
X-5383Y-37777D01*
X-5561Y-38010D01*
X-5699Y-38259D01*
X-5798Y-38525D01*
X-5857Y-38806D01*
X-5877Y-39105D01*
X-5857Y-39412D01*
X-5798Y-39703D01*
X-5700Y-39977D01*
X-5562Y-40235D01*
X-5447Y-40401D01*
X-5323Y-40550D01*
X-5189Y-40681D01*
X-5045Y-40795D01*
X-4755Y-40978D01*
X-4419Y-41151D01*
X-4037Y-41313D01*
X-3609Y-41465D01*
X-3149Y-41594D01*
X-2671Y-41685D01*
X-2177Y-41740D01*
X-1664Y-41759D01*
X-44Y-41759D01*
G37*
%LPD*%
G36*
X-14776Y-22606D02*
X-14855Y-22599D01*
X-14927Y-22577D01*
X-15047Y-22492D01*
X-15093Y-22426D01*
X-15126Y-22341D01*
X-15146Y-22237D01*
X-15153Y-22115D01*
X-15153Y-21126D01*
X-24664Y-21126D01*
X-24664Y-22115D01*
X-24671Y-22237D01*
X-24689Y-22341D01*
X-24721Y-22426D01*
X-24765Y-22492D01*
X-24882Y-22577D01*
X-24953Y-22599D01*
X-25032Y-22606D01*
X-25108Y-22599D01*
X-25177Y-22577D01*
X-25295Y-22492D01*
X-25341Y-22426D01*
X-25374Y-22341D01*
X-25393Y-22237D01*
X-25400Y-22115D01*
X-25400Y-20390D01*
X-23955Y-20390D01*
X-24361Y-20058D01*
X-24714Y-19706D01*
X-25012Y-19334D01*
X-25256Y-18943D01*
X-25445Y-18531D01*
X-25581Y-18099D01*
X-25628Y-17876D01*
X-25662Y-17647D01*
X-25682Y-17414D01*
X-25689Y-17176D01*
X-25670Y-16786D01*
X-25615Y-16409D01*
X-25522Y-16046D01*
X-25391Y-15696D01*
X-25224Y-15360D01*
X-25019Y-15037D01*
X-24777Y-14727D01*
X-24498Y-14430D01*
X-24192Y-14158D01*
X-23869Y-13922D01*
X-23531Y-13723D01*
X-23175Y-13559D01*
X-22804Y-13432D01*
X-22416Y-13342D01*
X-22011Y-13287D01*
X-21590Y-13269D01*
X-21174Y-13287D01*
X-20774Y-13341D01*
X-20390Y-13431D01*
X-20023Y-13556D01*
X-19673Y-13717D01*
X-19339Y-13915D01*
X-19022Y-14148D01*
X-18722Y-14417D01*
X-18448Y-14711D01*
X-18210Y-15019D01*
X-18009Y-15342D01*
X-17845Y-15680D01*
X-17717Y-16032D01*
X-17625Y-16399D01*
X-17571Y-16780D01*
X-17552Y-17176D01*
X-17559Y-17409D01*
X-17575Y-17588D01*
X-17579Y-17638D01*
X-17613Y-17862D01*
X-17661Y-18083D01*
X-17796Y-18510D01*
X-17986Y-18921D01*
X-18230Y-19314D01*
X-18528Y-19690D01*
X-18880Y-20049D01*
X-19287Y-20390D01*
X-14408Y-20390D01*
X-14408Y-22115D01*
X-14415Y-22237D01*
X-14434Y-22341D01*
X-14467Y-22426D01*
X-14513Y-22492D01*
X-14631Y-22577D01*
X-14700Y-22599D01*
X-14776Y-22606D01*
G37*
%LPC*%
G36*
X-21625Y-20381D02*
X-21284Y-20366D01*
X-20955Y-20322D01*
X-20640Y-20247D01*
X-20339Y-20143D01*
X-20050Y-20008D01*
X-19775Y-19844D01*
X-19513Y-19650D01*
X-19265Y-19427D01*
X-19038Y-19183D01*
X-18841Y-18929D01*
X-18675Y-18665D01*
X-18539Y-18391D01*
X-18433Y-18107D01*
X-18357Y-17812D01*
X-18312Y-17508D01*
X-18297Y-17193D01*
X-18309Y-16939D01*
X-18312Y-16878D01*
X-18357Y-16574D01*
X-18433Y-16280D01*
X-18539Y-15995D01*
X-18675Y-15721D01*
X-18841Y-15457D01*
X-19038Y-15203D01*
X-19265Y-14960D01*
X-19513Y-14736D01*
X-19775Y-14542D01*
X-20050Y-14378D01*
X-20339Y-14244D01*
X-20640Y-14139D01*
X-20955Y-14065D01*
X-21284Y-14020D01*
X-21625Y-14005D01*
X-21967Y-14020D01*
X-22295Y-14065D01*
X-22610Y-14139D01*
X-22912Y-14244D01*
X-23200Y-14378D01*
X-23475Y-14542D01*
X-23737Y-14736D01*
X-23986Y-14960D01*
X-24212Y-15203D01*
X-24409Y-15457D01*
X-24575Y-15721D01*
X-24711Y-15995D01*
X-24817Y-16280D01*
X-24893Y-16574D01*
X-24938Y-16878D01*
X-24953Y-17193D01*
X-24938Y-17508D01*
X-24893Y-17812D01*
X-24817Y-18107D01*
X-24711Y-18391D01*
X-24575Y-18665D01*
X-24409Y-18929D01*
X-24212Y-19183D01*
X-23986Y-19427D01*
X-23737Y-19650D01*
X-23475Y-19844D01*
X-23200Y-20008D01*
X-22912Y-20143D01*
X-22610Y-20247D01*
X-22295Y-20322D01*
X-21967Y-20366D01*
X-21625Y-20381D01*
G37*
%LPD*%
G36*
X-18183Y-76356D02*
X-18262Y-76349D01*
X-18334Y-76327D01*
X-18455Y-76242D01*
X-18500Y-76176D01*
X-18533Y-76091D01*
X-18553Y-75987D01*
X-18560Y-75865D01*
X-18560Y-74876D01*
X-28045Y-74876D01*
X-28045Y-75865D01*
X-28051Y-75987D01*
X-28070Y-76091D01*
X-28102Y-76176D01*
X-28146Y-76242D01*
X-28263Y-76327D01*
X-28334Y-76349D01*
X-28413Y-76356D01*
X-28492Y-76349D01*
X-28563Y-76327D01*
X-28680Y-76242D01*
X-28724Y-76176D01*
X-28756Y-76091D01*
X-28775Y-75987D01*
X-28781Y-75865D01*
X-28781Y-72353D01*
X-28774Y-72231D01*
X-28755Y-72128D01*
X-28722Y-72043D01*
X-28676Y-71977D01*
X-28557Y-71891D01*
X-28488Y-71870D01*
X-28413Y-71863D01*
X-28334Y-71870D01*
X-28263Y-71891D01*
X-28146Y-71977D01*
X-28102Y-72043D01*
X-28070Y-72128D01*
X-28051Y-72231D01*
X-28045Y-72353D01*
X-28045Y-74140D01*
X-23613Y-74140D01*
X-23989Y-73822D01*
X-24315Y-73480D01*
X-24590Y-73116D01*
X-24815Y-72728D01*
X-24991Y-72316D01*
X-25116Y-71882D01*
X-25191Y-71424D01*
X-25210Y-71187D01*
X-25216Y-70943D01*
X-25199Y-70537D01*
X-25146Y-70148D01*
X-25058Y-69775D01*
X-24935Y-69418D01*
X-24776Y-69077D01*
X-24583Y-68753D01*
X-24354Y-68445D01*
X-24091Y-68154D01*
X-23802Y-67888D01*
X-23499Y-67657D01*
X-23182Y-67462D01*
X-22850Y-67303D01*
X-22504Y-67179D01*
X-22144Y-67090D01*
X-21769Y-67037D01*
X-21380Y-67019D01*
X-21132Y-67027D01*
X-20886Y-67051D01*
X-20644Y-67090D01*
X-20404Y-67145D01*
X-20168Y-67216D01*
X-19934Y-67303D01*
X-19475Y-67523D01*
X-19254Y-67655D01*
X-19047Y-67801D01*
X-18851Y-67959D01*
X-18668Y-68131D01*
X-18497Y-68315D01*
X-18339Y-68512D01*
X-18194Y-68723D01*
X-18060Y-68946D01*
X-17941Y-69179D01*
X-17838Y-69416D01*
X-17751Y-69659D01*
X-17679Y-69907D01*
X-17624Y-70161D01*
X-17584Y-70419D01*
X-17560Y-70683D01*
X-17552Y-70952D01*
X-17559Y-71204D01*
X-17578Y-71447D01*
X-17609Y-71682D01*
X-17653Y-71909D01*
X-17779Y-72336D01*
X-17955Y-72730D01*
X-18181Y-73100D01*
X-18306Y-73262D01*
X-18457Y-73459D01*
X-18781Y-73806D01*
X-19155Y-74140D01*
X-17815Y-74140D01*
X-17815Y-75865D01*
X-17822Y-75987D01*
X-17841Y-76091D01*
X-17874Y-76176D01*
X-17920Y-76242D01*
X-18038Y-76327D01*
X-18107Y-76349D01*
X-18183Y-76356D01*
G37*
%LPC*%
G36*
X-21380Y-74140D02*
X-21070Y-74125D01*
X-20771Y-74082D01*
X-20483Y-74009D01*
X-20206Y-73908D01*
X-19940Y-73777D01*
X-19685Y-73618D01*
X-19441Y-73429D01*
X-19208Y-73212D01*
X-18994Y-72973D01*
X-18809Y-72722D01*
X-18706Y-72547D01*
X-18653Y-72457D01*
X-18525Y-72180D01*
X-18425Y-71890D01*
X-18354Y-71587D01*
X-18311Y-71272D01*
X-18297Y-70943D01*
X-18311Y-70617D01*
X-18354Y-70303D01*
X-18424Y-70002D01*
X-18523Y-69714D01*
X-18651Y-69438D01*
X-18807Y-69175D01*
X-18991Y-68925D01*
X-19203Y-68688D01*
X-19436Y-68471D01*
X-19679Y-68284D01*
X-19934Y-68125D01*
X-20201Y-67995D01*
X-20478Y-67894D01*
X-20768Y-67822D01*
X-21068Y-67778D01*
X-21380Y-67764D01*
X-21694Y-67778D01*
X-21996Y-67822D01*
X-22287Y-67894D01*
X-22566Y-67996D01*
X-22833Y-68126D01*
X-23089Y-68286D01*
X-23333Y-68475D01*
X-23565Y-68692D01*
X-23778Y-68930D01*
X-23962Y-69181D01*
X-24118Y-69444D01*
X-24245Y-69719D01*
X-24344Y-70007D01*
X-24415Y-70306D01*
X-24457Y-70619D01*
X-24472Y-70943D01*
X-24457Y-71272D01*
X-24415Y-71587D01*
X-24344Y-71890D01*
X-24244Y-72180D01*
X-24116Y-72457D01*
X-23959Y-72722D01*
X-23774Y-72973D01*
X-23561Y-73212D01*
X-23327Y-73429D01*
X-23083Y-73618D01*
X-22827Y-73777D01*
X-22560Y-73908D01*
X-22282Y-74009D01*
X-21992Y-74082D01*
X-21692Y-74125D01*
X-21380Y-74140D01*
G37*
%LPD*%
G36*
X22580Y-107432D02*
X22501Y-107425D01*
X22430Y-107404D01*
X22313Y-107318D01*
X22268Y-107252D01*
X22237Y-107167D01*
X22218Y-107064D01*
X22212Y-106942D01*
X22212Y-105952D01*
X13436Y-105952D01*
X13436Y-106942D01*
X13429Y-107064D01*
X13411Y-107167D01*
X13379Y-107252D01*
X13335Y-107318D01*
X13218Y-107404D01*
X13147Y-107425D01*
X13068Y-107432D01*
X12992Y-107425D01*
X12923Y-107404D01*
X12805Y-107318D01*
X12759Y-107252D01*
X12726Y-107167D01*
X12707Y-107064D01*
X12700Y-106942D01*
X12700Y-102694D01*
X12707Y-102572D01*
X12726Y-102468D01*
X12759Y-102383D01*
X12805Y-102317D01*
X12923Y-102232D01*
X12992Y-102211D01*
X13068Y-102203D01*
X13147Y-102211D01*
X13218Y-102232D01*
X13335Y-102317D01*
X13379Y-102383D01*
X13411Y-102468D01*
X13429Y-102572D01*
X13436Y-102694D01*
X13436Y-105216D01*
X16904Y-105216D01*
X16904Y-102913D01*
X16915Y-102552D01*
X16946Y-102221D01*
X16998Y-101921D01*
X17071Y-101652D01*
X17201Y-101304D01*
X17364Y-100962D01*
X17560Y-100625D01*
X17789Y-100294D01*
X17966Y-100083D01*
X18174Y-99888D01*
X18413Y-99709D01*
X18682Y-99545D01*
X18975Y-99409D01*
X19286Y-99312D01*
X19615Y-99254D01*
X19961Y-99234D01*
X20256Y-99249D01*
X20542Y-99294D01*
X20818Y-99369D01*
X21084Y-99474D01*
X21341Y-99609D01*
X21588Y-99774D01*
X21826Y-99969D01*
X22054Y-100193D01*
X22264Y-100442D01*
X22445Y-100708D01*
X22599Y-100991D01*
X22724Y-101291D01*
X22822Y-101609D01*
X22892Y-101945D01*
X22934Y-102297D01*
X22947Y-102668D01*
X22947Y-106942D01*
X22941Y-107064D01*
X22922Y-107167D01*
X22891Y-107252D01*
X22847Y-107318D01*
X22730Y-107404D01*
X22659Y-107425D01*
X22580Y-107432D01*
G37*
%LPC*%
G36*
X22212Y-105216D02*
X22212Y-102598D01*
X22201Y-102319D01*
X22169Y-102053D01*
X22114Y-101799D01*
X22039Y-101557D01*
X21941Y-101328D01*
X21823Y-101111D01*
X21682Y-100907D01*
X21520Y-100714D01*
X21344Y-100540D01*
X21163Y-100389D01*
X20976Y-100261D01*
X20784Y-100156D01*
X20587Y-100075D01*
X20383Y-100017D01*
X20175Y-99982D01*
X19961Y-99970D01*
X19690Y-99990D01*
X19422Y-100052D01*
X19156Y-100155D01*
X18892Y-100298D01*
X18640Y-100487D01*
X18407Y-100723D01*
X18195Y-101008D01*
X18003Y-101341D01*
X17844Y-101704D01*
X17731Y-102080D01*
X17663Y-102468D01*
X17640Y-102869D01*
X17640Y-105216D01*
X22212Y-105216D01*
G37*
%LPD*%
G36*
X-867Y-20600D02*
X-1322Y-20591D01*
X-1767Y-20564D01*
X-2201Y-20518D01*
X-2625Y-20453D01*
X-3040Y-20371D01*
X-3444Y-20270D01*
X-3838Y-20151D01*
X-4222Y-20013D01*
X-4516Y-19890D01*
X-4791Y-19755D01*
X-5046Y-19609D01*
X-5281Y-19452D01*
X-5497Y-19284D01*
X-5693Y-19104D01*
X-5869Y-18914D01*
X-6026Y-18713D01*
X-6164Y-18504D01*
X-6283Y-18291D01*
X-6384Y-18074D01*
X-6466Y-17853D01*
X-6530Y-17629D01*
X-6576Y-17400D01*
X-6604Y-17167D01*
X-6613Y-16930D01*
X-6596Y-16575D01*
X-6545Y-16238D01*
X-6459Y-15922D01*
X-6340Y-15625D01*
X-6187Y-15348D01*
X-5999Y-15091D01*
X-5778Y-14853D01*
X-5522Y-14636D01*
X-5246Y-14441D01*
X-4963Y-14272D01*
X-4673Y-14129D01*
X-4376Y-14012D01*
X-4072Y-13921D01*
X-3761Y-13856D01*
X-3443Y-13817D01*
X-3118Y-13804D01*
X-2766Y-13818D01*
X-2429Y-13860D01*
X-2105Y-13932D01*
X-1797Y-14031D01*
X-1502Y-14159D01*
X-1222Y-14316D01*
X-956Y-14501D01*
X-705Y-14714D01*
X-476Y-14946D01*
X-278Y-15186D01*
X-110Y-15435D01*
X27Y-15691D01*
X134Y-15956D01*
X210Y-16229D01*
X256Y-16510D01*
X271Y-16799D01*
X264Y-17018D01*
X241Y-17231D01*
X204Y-17440D01*
X151Y-17643D01*
X83Y-17841D01*
X0Y-18035D01*
X-210Y-18406D01*
X-484Y-18765D01*
X-823Y-19119D01*
X-1228Y-19468D01*
X-1699Y-19812D01*
X-1167Y-19851D01*
X-797Y-19864D01*
X-300Y-19843D01*
X180Y-19777D01*
X642Y-19667D01*
X1087Y-19513D01*
X1515Y-19315D01*
X1925Y-19074D01*
X2318Y-18788D01*
X2693Y-18459D01*
X3037Y-18103D01*
X3335Y-17737D01*
X3587Y-17362D01*
X3793Y-16977D01*
X3954Y-16584D01*
X4069Y-16180D01*
X4137Y-15767D01*
X4160Y-15345D01*
X4149Y-15089D01*
X4116Y-14855D01*
X4062Y-14642D01*
X3985Y-14452D01*
X3919Y-14305D01*
X3897Y-14180D01*
X3923Y-14044D01*
X3998Y-13935D01*
X4113Y-13863D01*
X4257Y-13839D01*
X4361Y-13852D01*
X4454Y-13891D01*
X4536Y-13957D01*
X4607Y-14049D01*
X4737Y-14309D01*
X4830Y-14601D01*
X4886Y-14922D01*
X4905Y-15275D01*
X4898Y-15544D01*
X4877Y-15808D01*
X4843Y-16068D01*
X4794Y-16323D01*
X4732Y-16573D01*
X4656Y-16818D01*
X4462Y-17294D01*
X4225Y-17746D01*
X3957Y-18169D01*
X3656Y-18562D01*
X3324Y-18927D01*
X2962Y-19260D01*
X2572Y-19558D01*
X2154Y-19821D01*
X1708Y-20048D01*
X1407Y-20178D01*
X1100Y-20290D01*
X787Y-20385D01*
X469Y-20462D01*
X144Y-20523D01*
X-187Y-20566D01*
X-524Y-20592D01*
X-867Y-20600D01*
G37*
%LPC*%
G36*
X-2917Y-19646D02*
X-2342Y-19325D01*
X-1863Y-19021D01*
X-1480Y-18734D01*
X-1191Y-18463D01*
X-1021Y-18265D01*
X-873Y-18065D01*
X-748Y-17863D01*
X-646Y-17660D01*
X-567Y-17454D01*
X-510Y-17246D01*
X-476Y-17037D01*
X-464Y-16825D01*
X-476Y-16607D01*
X-511Y-16394D01*
X-570Y-16188D01*
X-653Y-15987D01*
X-759Y-15791D01*
X-888Y-15602D01*
X-1041Y-15418D01*
X-1218Y-15240D01*
X-1412Y-15076D01*
X-1619Y-14933D01*
X-1838Y-14813D01*
X-2069Y-14714D01*
X-2313Y-14638D01*
X-2569Y-14583D01*
X-2837Y-14550D01*
X-3118Y-14539D01*
X-3417Y-14550D01*
X-3702Y-14583D01*
X-3973Y-14637D01*
X-4229Y-14713D01*
X-4471Y-14811D01*
X-4699Y-14931D01*
X-4912Y-15072D01*
X-5111Y-15236D01*
X-5290Y-15414D01*
X-5446Y-15602D01*
X-5578Y-15798D01*
X-5685Y-16003D01*
X-5769Y-16217D01*
X-5829Y-16440D01*
X-5865Y-16672D01*
X-5877Y-16913D01*
X-5866Y-17152D01*
X-5834Y-17383D01*
X-5781Y-17606D01*
X-5706Y-17820D01*
X-5610Y-18027D01*
X-5493Y-18226D01*
X-5354Y-18416D01*
X-5194Y-18599D01*
X-5009Y-18771D01*
X-4795Y-18932D01*
X-4553Y-19081D01*
X-4283Y-19217D01*
X-3984Y-19342D01*
X-3657Y-19455D01*
X-3301Y-19556D01*
X-2917Y-19646D01*
G37*
%LPD*%
G36*
X-867Y43900D02*
X-1322Y43909D01*
X-1767Y43937D01*
X-2201Y43982D01*
X-2625Y44047D01*
X-3040Y44129D01*
X-3444Y44230D01*
X-3838Y44349D01*
X-4222Y44487D01*
X-4516Y44610D01*
X-4791Y44745D01*
X-5046Y44891D01*
X-5281Y45048D01*
X-5497Y45216D01*
X-5693Y45396D01*
X-5869Y45586D01*
X-6026Y45787D01*
X-6164Y45996D01*
X-6283Y46209D01*
X-6384Y46426D01*
X-6466Y46647D01*
X-6530Y46872D01*
X-6576Y47100D01*
X-6604Y47333D01*
X-6613Y47570D01*
X-6596Y47925D01*
X-6545Y48262D01*
X-6459Y48578D01*
X-6340Y48875D01*
X-6187Y49152D01*
X-5999Y49409D01*
X-5778Y49647D01*
X-5522Y49864D01*
X-5246Y50059D01*
X-4963Y50228D01*
X-4673Y50371D01*
X-4376Y50488D01*
X-4072Y50579D01*
X-3761Y50644D01*
X-3443Y50683D01*
X-3118Y50696D01*
X-2766Y50682D01*
X-2429Y50640D01*
X-2105Y50568D01*
X-1797Y50469D01*
X-1502Y50341D01*
X-1222Y50184D01*
X-956Y49999D01*
X-705Y49786D01*
X-476Y49554D01*
X-278Y49314D01*
X-110Y49065D01*
X27Y48809D01*
X134Y48544D01*
X210Y48271D01*
X256Y47990D01*
X271Y47701D01*
X264Y47482D01*
X241Y47269D01*
X204Y47060D01*
X151Y46857D01*
X83Y46659D01*
X0Y46465D01*
X-210Y46094D01*
X-484Y45735D01*
X-823Y45381D01*
X-1228Y45032D01*
X-1699Y44688D01*
X-1167Y44649D01*
X-797Y44636D01*
X-300Y44658D01*
X180Y44723D01*
X642Y44833D01*
X1087Y44987D01*
X1515Y45185D01*
X1925Y45426D01*
X2318Y45712D01*
X2693Y46041D01*
X3037Y46397D01*
X3335Y46763D01*
X3587Y47138D01*
X3793Y47523D01*
X3954Y47917D01*
X4069Y48320D01*
X4137Y48733D01*
X4160Y49155D01*
X4149Y49411D01*
X4116Y49645D01*
X4062Y49858D01*
X3985Y50048D01*
X3919Y50195D01*
X3897Y50320D01*
X3923Y50456D01*
X3998Y50565D01*
X4113Y50637D01*
X4257Y50661D01*
X4361Y50648D01*
X4454Y50609D01*
X4536Y50543D01*
X4607Y50451D01*
X4737Y50191D01*
X4830Y49899D01*
X4886Y49578D01*
X4905Y49225D01*
X4898Y48956D01*
X4877Y48692D01*
X4843Y48432D01*
X4794Y48177D01*
X4732Y47927D01*
X4656Y47682D01*
X4462Y47206D01*
X4225Y46754D01*
X3957Y46331D01*
X3656Y45938D01*
X3324Y45573D01*
X2962Y45240D01*
X2572Y44942D01*
X2154Y44679D01*
X1708Y44452D01*
X1407Y44322D01*
X1100Y44210D01*
X787Y44115D01*
X469Y44038D01*
X144Y43977D01*
X-187Y43934D01*
X-524Y43908D01*
X-867Y43900D01*
G37*
%LPC*%
G36*
X-2917Y44855D02*
X-2342Y45175D01*
X-1863Y45479D01*
X-1480Y45766D01*
X-1191Y46037D01*
X-1021Y46235D01*
X-873Y46435D01*
X-748Y46637D01*
X-646Y46841D01*
X-567Y47046D01*
X-510Y47254D01*
X-476Y47463D01*
X-464Y47675D01*
X-476Y47893D01*
X-511Y48106D01*
X-570Y48312D01*
X-653Y48513D01*
X-759Y48709D01*
X-888Y48898D01*
X-1041Y49082D01*
X-1218Y49260D01*
X-1412Y49424D01*
X-1619Y49567D01*
X-1838Y49687D01*
X-2069Y49786D01*
X-2313Y49862D01*
X-2569Y49917D01*
X-2837Y49950D01*
X-3118Y49961D01*
X-3417Y49950D01*
X-3702Y49917D01*
X-3973Y49863D01*
X-4229Y49787D01*
X-4471Y49689D01*
X-4699Y49569D01*
X-4912Y49428D01*
X-5111Y49264D01*
X-5290Y49086D01*
X-5446Y48899D01*
X-5578Y48702D01*
X-5685Y48497D01*
X-5769Y48283D01*
X-5829Y48060D01*
X-5865Y47828D01*
X-5877Y47587D01*
X-5866Y47348D01*
X-5834Y47117D01*
X-5781Y46894D01*
X-5706Y46680D01*
X-5610Y46473D01*
X-5493Y46274D01*
X-5354Y46084D01*
X-5194Y45901D01*
X-5009Y45729D01*
X-4795Y45568D01*
X-4553Y45419D01*
X-4283Y45283D01*
X-3984Y45158D01*
X-3657Y45045D01*
X-3301Y44944D01*
X-2917Y44855D01*
G37*
%LPD*%
G36*
X-5982Y63149D02*
X-6058Y63156D01*
X-6127Y63177D01*
X-6245Y63263D01*
X-6291Y63329D01*
X-6324Y63414D01*
X-6343Y63517D01*
X-6350Y63639D01*
X-6350Y66390D01*
X-6343Y66512D01*
X-6324Y66615D01*
X-6291Y66700D01*
X-6245Y66766D01*
X-6127Y66852D01*
X-6058Y66873D01*
X-5982Y66880D01*
X-5903Y66873D01*
X-5832Y66852D01*
X-5715Y66766D01*
X-5671Y66700D01*
X-5639Y66615D01*
X-5621Y66512D01*
X-5614Y66390D01*
X-5614Y64979D01*
X-2925Y65969D01*
X-2925Y70804D01*
X-5614Y71811D01*
X-5614Y70410D01*
X-5621Y70284D01*
X-5639Y70178D01*
X-5671Y70091D01*
X-5715Y70024D01*
X-5832Y69939D01*
X-5903Y69918D01*
X-5982Y69910D01*
X-6058Y69918D01*
X-6127Y69939D01*
X-6245Y70024D01*
X-6291Y70091D01*
X-6324Y70178D01*
X-6343Y70284D01*
X-6350Y70410D01*
X-6350Y73151D01*
X-6343Y73273D01*
X-6324Y73377D01*
X-6291Y73462D01*
X-6245Y73528D01*
X-6127Y73613D01*
X-6058Y73635D01*
X-5982Y73642D01*
X-5903Y73635D01*
X-5832Y73613D01*
X-5715Y73528D01*
X-5671Y73462D01*
X-5639Y73377D01*
X-5621Y73273D01*
X-5614Y73151D01*
X-5614Y72582D01*
X3897Y68991D01*
X3897Y65286D01*
X3891Y65164D01*
X3872Y65060D01*
X3841Y64976D01*
X3797Y64909D01*
X3680Y64824D01*
X3609Y64803D01*
X3530Y64796D01*
X3451Y64803D01*
X3380Y64824D01*
X3263Y64909D01*
X3218Y64976D01*
X3187Y65060D01*
X3168Y65164D01*
X3162Y65286D01*
X3162Y67458D01*
X-5614Y64209D01*
X-5614Y63639D01*
X-5621Y63517D01*
X-5639Y63414D01*
X-5671Y63329D01*
X-5715Y63263D01*
X-5832Y63177D01*
X-5903Y63156D01*
X-5982Y63149D01*
G37*
%LPC*%
G36*
X-2190Y66249D02*
X3162Y68220D01*
X3162Y68492D01*
X-2190Y70524D01*
X-2190Y66249D01*
G37*
%LPD*%
G36*
X-5982Y73960D02*
X-6058Y73967D01*
X-6127Y73989D01*
X-6245Y74074D01*
X-6291Y74140D01*
X-6324Y74225D01*
X-6343Y74329D01*
X-6350Y74451D01*
X-6350Y77166D01*
X-6343Y77288D01*
X-6324Y77391D01*
X-6291Y77476D01*
X-6245Y77542D01*
X-6127Y77628D01*
X-6058Y77649D01*
X-5982Y77656D01*
X-5903Y77649D01*
X-5832Y77628D01*
X-5715Y77542D01*
X-5671Y77476D01*
X-5639Y77391D01*
X-5621Y77288D01*
X-5614Y77166D01*
X-5614Y75808D01*
X3162Y75808D01*
X3162Y75948D01*
X-3276Y78777D01*
X-3276Y79618D01*
X3162Y82395D01*
X3162Y82552D01*
X-5614Y82552D01*
X-5614Y81195D01*
X-5621Y81069D01*
X-5639Y80963D01*
X-5671Y80876D01*
X-5715Y80809D01*
X-5832Y80724D01*
X-5903Y80703D01*
X-5982Y80696D01*
X-6058Y80703D01*
X-6127Y80725D01*
X-6245Y80814D01*
X-6291Y80882D01*
X-6324Y80968D01*
X-6343Y81072D01*
X-6350Y81195D01*
X-6350Y83901D01*
X-6343Y84027D01*
X-6324Y84133D01*
X-6291Y84220D01*
X-6245Y84287D01*
X-6127Y84372D01*
X-6058Y84393D01*
X-5982Y84400D01*
X-5903Y84393D01*
X-5832Y84372D01*
X-5715Y84287D01*
X-5671Y84220D01*
X-5639Y84133D01*
X-5621Y84027D01*
X-5614Y83901D01*
X-5614Y83288D01*
X3162Y83288D01*
X3162Y83743D01*
X3168Y83869D01*
X3187Y83976D01*
X3218Y84062D01*
X3263Y84129D01*
X3380Y84214D01*
X3451Y84236D01*
X3530Y84243D01*
X3609Y84236D01*
X3680Y84214D01*
X3797Y84129D01*
X3841Y84062D01*
X3872Y83976D01*
X3891Y83869D01*
X3897Y83743D01*
X3897Y81939D01*
X-2444Y79198D01*
X3897Y76413D01*
X3897Y74608D01*
X3891Y74486D01*
X3872Y74383D01*
X3841Y74298D01*
X3797Y74232D01*
X3680Y74146D01*
X3609Y74125D01*
X3530Y74118D01*
X3451Y74125D01*
X3380Y74146D01*
X3263Y74232D01*
X3218Y74298D01*
X3187Y74383D01*
X3168Y74486D01*
X3162Y74608D01*
X3162Y75073D01*
X-5614Y75073D01*
X-5614Y74451D01*
X-5621Y74329D01*
X-5639Y74225D01*
X-5671Y74140D01*
X-5715Y74074D01*
X-5832Y73989D01*
X-5903Y73967D01*
X-5982Y73960D01*
G37*
G36*
X22580Y-22597D02*
X22501Y-22590D01*
X22430Y-22569D01*
X22313Y-22483D01*
X22268Y-22417D01*
X22237Y-22332D01*
X22218Y-22229D01*
X22212Y-22107D01*
X22212Y-21117D01*
X13436Y-21117D01*
X13436Y-21730D01*
X13429Y-21856D01*
X13411Y-21962D01*
X13379Y-22049D01*
X13335Y-22115D01*
X13218Y-22201D01*
X13147Y-22222D01*
X13068Y-22229D01*
X12992Y-22222D01*
X12923Y-22201D01*
X12805Y-22115D01*
X12759Y-22049D01*
X12726Y-21962D01*
X12707Y-21856D01*
X12700Y-21730D01*
X12700Y-19024D01*
X12707Y-18898D01*
X12726Y-18792D01*
X12759Y-18705D01*
X12805Y-18638D01*
X12923Y-18553D01*
X12992Y-18532D01*
X13068Y-18524D01*
X13147Y-18532D01*
X13218Y-18553D01*
X13335Y-18638D01*
X13379Y-18705D01*
X13411Y-18792D01*
X13429Y-18898D01*
X13436Y-19024D01*
X13436Y-20381D01*
X21870Y-20381D01*
X12700Y-14960D01*
X12700Y-14014D01*
X22212Y-14014D01*
X22212Y-13392D01*
X22218Y-13270D01*
X22237Y-13166D01*
X22268Y-13082D01*
X22313Y-13015D01*
X22430Y-12930D01*
X22501Y-12909D01*
X22580Y-12901D01*
X22659Y-12909D01*
X22730Y-12930D01*
X22847Y-13015D01*
X22891Y-13082D01*
X22922Y-13166D01*
X22941Y-13270D01*
X22947Y-13392D01*
X22947Y-16107D01*
X22941Y-16233D01*
X22922Y-16338D01*
X22891Y-16423D01*
X22847Y-16488D01*
X22730Y-16570D01*
X22659Y-16591D01*
X22580Y-16598D01*
X22501Y-16590D01*
X22430Y-16569D01*
X22313Y-16484D01*
X22268Y-16417D01*
X22237Y-16333D01*
X22218Y-16229D01*
X22212Y-16107D01*
X22212Y-14749D01*
X13760Y-14749D01*
X22947Y-20180D01*
X22947Y-22107D01*
X22941Y-22229D01*
X22922Y-22332D01*
X22891Y-22417D01*
X22847Y-22483D01*
X22730Y-22569D01*
X22659Y-22590D01*
X22580Y-22597D01*
G37*
G36*
X-25032Y85437D02*
X-25108Y85444D01*
X-25177Y85466D01*
X-25295Y85551D01*
X-25341Y85617D01*
X-25374Y85702D01*
X-25393Y85806D01*
X-25400Y85928D01*
X-25400Y88485D01*
X-25393Y88607D01*
X-25374Y88711D01*
X-25341Y88796D01*
X-25295Y88862D01*
X-25177Y88947D01*
X-25108Y88969D01*
X-25032Y88976D01*
X-24953Y88969D01*
X-24882Y88947D01*
X-24765Y88862D01*
X-24721Y88796D01*
X-24689Y88711D01*
X-24671Y88607D01*
X-24664Y88485D01*
X-24664Y87495D01*
X-20443Y87495D01*
X-20443Y92374D01*
X-24664Y92374D01*
X-24664Y91393D01*
X-24671Y91267D01*
X-24689Y91162D01*
X-24721Y91077D01*
X-24765Y91012D01*
X-24882Y90930D01*
X-24953Y90909D01*
X-25032Y90902D01*
X-25108Y90910D01*
X-25177Y90931D01*
X-25295Y91016D01*
X-25341Y91083D01*
X-25374Y91167D01*
X-25393Y91271D01*
X-25400Y91393D01*
X-25400Y93950D01*
X-25393Y94073D01*
X-25374Y94176D01*
X-25341Y94261D01*
X-25295Y94327D01*
X-25177Y94412D01*
X-25108Y94434D01*
X-25032Y94441D01*
X-24953Y94434D01*
X-24882Y94412D01*
X-24765Y94327D01*
X-24721Y94261D01*
X-24689Y94176D01*
X-24671Y94073D01*
X-24664Y93950D01*
X-24664Y93118D01*
X-15888Y93118D01*
X-15888Y93574D01*
X-15882Y93700D01*
X-15863Y93806D01*
X-15832Y93892D01*
X-15788Y93959D01*
X-15670Y94045D01*
X-15599Y94066D01*
X-15520Y94073D01*
X-15441Y94066D01*
X-15370Y94045D01*
X-15253Y93959D01*
X-15209Y93892D01*
X-15178Y93806D01*
X-15159Y93700D01*
X-15153Y93574D01*
X-15153Y91393D01*
X-15159Y91267D01*
X-15178Y91162D01*
X-15209Y91077D01*
X-15253Y91012D01*
X-15370Y90930D01*
X-15441Y90909D01*
X-15520Y90902D01*
X-15599Y90910D01*
X-15670Y90931D01*
X-15788Y91016D01*
X-15832Y91083D01*
X-15863Y91167D01*
X-15882Y91271D01*
X-15888Y91393D01*
X-15888Y92374D01*
X-19707Y92374D01*
X-19707Y87495D01*
X-15888Y87495D01*
X-15888Y88485D01*
X-15882Y88607D01*
X-15863Y88711D01*
X-15832Y88796D01*
X-15788Y88862D01*
X-15670Y88947D01*
X-15599Y88969D01*
X-15520Y88976D01*
X-15441Y88969D01*
X-15370Y88947D01*
X-15253Y88862D01*
X-15209Y88796D01*
X-15178Y88711D01*
X-15159Y88607D01*
X-15153Y88485D01*
X-15153Y86304D01*
X-15159Y86178D01*
X-15178Y86072D01*
X-15209Y85986D01*
X-15253Y85919D01*
X-15370Y85833D01*
X-15441Y85812D01*
X-15520Y85805D01*
X-15599Y85812D01*
X-15670Y85833D01*
X-15788Y85919D01*
X-15832Y85986D01*
X-15863Y86072D01*
X-15882Y86178D01*
X-15888Y86304D01*
X-15888Y86760D01*
X-24664Y86760D01*
X-24664Y85928D01*
X-24671Y85806D01*
X-24689Y85702D01*
X-24721Y85617D01*
X-24765Y85551D01*
X-24882Y85466D01*
X-24953Y85444D01*
X-25032Y85437D01*
G37*
G36*
X-19619Y74871D02*
X-20968Y74871D01*
X-21542Y74893D01*
X-22063Y74958D01*
X-22532Y75066D01*
X-22948Y75217D01*
X-23328Y75407D01*
X-23690Y75632D01*
X-24033Y75891D01*
X-24358Y76185D01*
X-24656Y76513D01*
X-24918Y76876D01*
X-25146Y77273D01*
X-25339Y77704D01*
X-25492Y78171D01*
X-25601Y78673D01*
X-25667Y79211D01*
X-25689Y79785D01*
X-25674Y80201D01*
X-25630Y80618D01*
X-25556Y81035D01*
X-25453Y81453D01*
X-25320Y81872D01*
X-25159Y82291D01*
X-24970Y82710D01*
X-24752Y83130D01*
X-21599Y83130D01*
X-21591Y83481D01*
X-21568Y83656D01*
X-21521Y83739D01*
X-21441Y83814D01*
X-21340Y83866D01*
X-21231Y83884D01*
X-21152Y83877D01*
X-21081Y83855D01*
X-20964Y83770D01*
X-20920Y83704D01*
X-20888Y83619D01*
X-20869Y83515D01*
X-20863Y83393D01*
X-20854Y79855D01*
X-20861Y79733D01*
X-20881Y79629D01*
X-20913Y79544D01*
X-20959Y79478D01*
X-21080Y79393D01*
X-21152Y79371D01*
X-21231Y79364D01*
X-21310Y79371D01*
X-21381Y79393D01*
X-21498Y79478D01*
X-21542Y79544D01*
X-21574Y79629D01*
X-21593Y79733D01*
X-21599Y79855D01*
X-21599Y82386D01*
X-24323Y82386D01*
X-24621Y81672D01*
X-24730Y81351D01*
X-24813Y81055D01*
X-24875Y80764D01*
X-24918Y80461D01*
X-24945Y80146D01*
X-24953Y79820D01*
X-24937Y79340D01*
X-24886Y78887D01*
X-24802Y78461D01*
X-24684Y78061D01*
X-24533Y77688D01*
X-24347Y77342D01*
X-24129Y77021D01*
X-23876Y76728D01*
X-23595Y76465D01*
X-23290Y76237D01*
X-22962Y76045D01*
X-22610Y75887D01*
X-22235Y75764D01*
X-21836Y75677D01*
X-21414Y75624D01*
X-20968Y75607D01*
X-19628Y75607D01*
X-19373Y75614D01*
X-19125Y75636D01*
X-18884Y75673D01*
X-18649Y75725D01*
X-18422Y75792D01*
X-18201Y75873D01*
X-17987Y75969D01*
X-17780Y76080D01*
X-17482Y76259D01*
X-17208Y76441D01*
X-16960Y76627D01*
X-16737Y76817D01*
X-16539Y77009D01*
X-16365Y77206D01*
X-16217Y77405D01*
X-16094Y77608D01*
X-15901Y78030D01*
X-15825Y78250D01*
X-15762Y78476D01*
X-15714Y78709D01*
X-15679Y78947D01*
X-15659Y79192D01*
X-15652Y79443D01*
X-15659Y79710D01*
X-15681Y79972D01*
X-15718Y80228D01*
X-15770Y80480D01*
X-15837Y80726D01*
X-15918Y80968D01*
X-16014Y81204D01*
X-16125Y81436D01*
X-16247Y81651D01*
X-16378Y81839D01*
X-16518Y82001D01*
X-16666Y82135D01*
X-16822Y82243D01*
X-16987Y82323D01*
X-17160Y82377D01*
X-17342Y82403D01*
X-17460Y82414D01*
X-17558Y82435D01*
X-17637Y82468D01*
X-17697Y82513D01*
X-17772Y82626D01*
X-17798Y82763D01*
X-17791Y82838D01*
X-17770Y82907D01*
X-17688Y83025D01*
X-17623Y83071D01*
X-17538Y83104D01*
X-17433Y83124D01*
X-17307Y83130D01*
X-15643Y83130D01*
X-15521Y83124D01*
X-15417Y83104D01*
X-15333Y83071D01*
X-15266Y83025D01*
X-15181Y82907D01*
X-15160Y82838D01*
X-15153Y82763D01*
X-15169Y82646D01*
X-15218Y82544D01*
X-15289Y82464D01*
X-15371Y82417D01*
X-15544Y82394D01*
X-15888Y82386D01*
X-15660Y82071D01*
X-15463Y81738D01*
X-15296Y81389D01*
X-15159Y81022D01*
X-15053Y80638D01*
X-14977Y80236D01*
X-14931Y79818D01*
X-14916Y79382D01*
X-14925Y79078D01*
X-14954Y78780D01*
X-15001Y78488D01*
X-15067Y78202D01*
X-15152Y77921D01*
X-15256Y77646D01*
X-15379Y77377D01*
X-15520Y77113D01*
X-15680Y76860D01*
X-15856Y76620D01*
X-16049Y76394D01*
X-16259Y76182D01*
X-16486Y75983D01*
X-16730Y75799D01*
X-16990Y75628D01*
X-17268Y75471D01*
X-17554Y75330D01*
X-17843Y75209D01*
X-18134Y75105D01*
X-18427Y75021D01*
X-18722Y74955D01*
X-19019Y74909D01*
X-19318Y74880D01*
X-19619Y74871D01*
G37*
G36*
X-22878Y64620D02*
X-24910Y64620D01*
X-25032Y64627D01*
X-25135Y64647D01*
X-25220Y64679D01*
X-25286Y64725D01*
X-25372Y64844D01*
X-25393Y64913D01*
X-25400Y64988D01*
X-25393Y65067D01*
X-25372Y65138D01*
X-25286Y65255D01*
X-25220Y65299D01*
X-25135Y65331D01*
X-25032Y65350D01*
X-24910Y65356D01*
X-24489Y65356D01*
X-24770Y65655D01*
X-25014Y65978D01*
X-25220Y66325D01*
X-25389Y66696D01*
X-25520Y67091D01*
X-25614Y67511D01*
X-25670Y67954D01*
X-25689Y68422D01*
X-25675Y68838D01*
X-25633Y69232D01*
X-25564Y69604D01*
X-25467Y69954D01*
X-25342Y70283D01*
X-25189Y70589D01*
X-25008Y70874D01*
X-24800Y71137D01*
X-24572Y71373D01*
X-24332Y71577D01*
X-24081Y71750D01*
X-23818Y71892D01*
X-23543Y72002D01*
X-23257Y72081D01*
X-22959Y72128D01*
X-22650Y72144D01*
X-22447Y72138D01*
X-22252Y72120D01*
X-21881Y72046D01*
X-21538Y71925D01*
X-21222Y71754D01*
X-20936Y71536D01*
X-20684Y71271D01*
X-20463Y70960D01*
X-20276Y70602D01*
X-20150Y70260D01*
X-20024Y69801D01*
X-19900Y69226D01*
X-19777Y68535D01*
X-19631Y67760D01*
X-19492Y67222D01*
X-19335Y66823D01*
X-19133Y66468D01*
X-19013Y66310D01*
X-18876Y66168D01*
X-18722Y66043D01*
X-18551Y65934D01*
X-18366Y65846D01*
X-18172Y65783D01*
X-17968Y65745D01*
X-17754Y65733D01*
X-17545Y65744D01*
X-17343Y65778D01*
X-17148Y65834D01*
X-16960Y65912D01*
X-16779Y66013D01*
X-16605Y66137D01*
X-16438Y66283D01*
X-16278Y66451D01*
X-16131Y66638D01*
X-16004Y66841D01*
X-15896Y67060D01*
X-15808Y67294D01*
X-15740Y67544D01*
X-15691Y67809D01*
X-15662Y68090D01*
X-15652Y68387D01*
X-15661Y68669D01*
X-15688Y68937D01*
X-15734Y69191D01*
X-15798Y69432D01*
X-15881Y69659D01*
X-15982Y69872D01*
X-16101Y70071D01*
X-16239Y70256D01*
X-16388Y70424D01*
X-16541Y70571D01*
X-16700Y70698D01*
X-16863Y70803D01*
X-17030Y70887D01*
X-17203Y70950D01*
X-17380Y70993D01*
X-17561Y71014D01*
X-17671Y71024D01*
X-17765Y71046D01*
X-17842Y71079D01*
X-17903Y71124D01*
X-17982Y71239D01*
X-18001Y71307D01*
X-18008Y71382D01*
X-18001Y71461D01*
X-17979Y71532D01*
X-17894Y71649D01*
X-17828Y71693D01*
X-17743Y71725D01*
X-17639Y71743D01*
X-17517Y71750D01*
X-15643Y71750D01*
X-15521Y71743D01*
X-15417Y71725D01*
X-15333Y71693D01*
X-15266Y71649D01*
X-15181Y71532D01*
X-15160Y71461D01*
X-15153Y71382D01*
X-15160Y71303D01*
X-15181Y71232D01*
X-15266Y71115D01*
X-15333Y71071D01*
X-15417Y71039D01*
X-15521Y71020D01*
X-15643Y71014D01*
X-15888Y71014D01*
X-15660Y70729D01*
X-15463Y70431D01*
X-15296Y70119D01*
X-15159Y69794D01*
X-15053Y69456D01*
X-14977Y69104D01*
X-14931Y68739D01*
X-14916Y68360D01*
X-14929Y67991D01*
X-14968Y67640D01*
X-15033Y67307D01*
X-15124Y66993D01*
X-15241Y66697D01*
X-15384Y66420D01*
X-15553Y66161D01*
X-15748Y65921D01*
X-15961Y65704D01*
X-16184Y65517D01*
X-16418Y65358D01*
X-16661Y65228D01*
X-16915Y65127D01*
X-17178Y65055D01*
X-17452Y65011D01*
X-17736Y64997D01*
X-18019Y65010D01*
X-18285Y65047D01*
X-18535Y65110D01*
X-18768Y65198D01*
X-18984Y65312D01*
X-19183Y65450D01*
X-19366Y65614D01*
X-19532Y65803D01*
X-19684Y66020D01*
X-19827Y66270D01*
X-19959Y66551D01*
X-20081Y66865D01*
X-20193Y67210D01*
X-20295Y67588D01*
X-20387Y67997D01*
X-20469Y68439D01*
X-20580Y69048D01*
X-20686Y69543D01*
X-20786Y69924D01*
X-20881Y70191D01*
X-21024Y70474D01*
X-21190Y70721D01*
X-21381Y70930D01*
X-21594Y71102D01*
X-21828Y71236D01*
X-22077Y71332D01*
X-22342Y71389D01*
X-22624Y71408D01*
X-22856Y71396D01*
X-23081Y71358D01*
X-23297Y71296D01*
X-23506Y71208D01*
X-23707Y71095D01*
X-23900Y70957D01*
X-24084Y70795D01*
X-24261Y70607D01*
X-24424Y70397D01*
X-24564Y70170D01*
X-24683Y69924D01*
X-24780Y69660D01*
X-24856Y69378D01*
X-24910Y69077D01*
X-24943Y68758D01*
X-24953Y68422D01*
X-24943Y68084D01*
X-24912Y67765D01*
X-24860Y67463D01*
X-24788Y67179D01*
X-24695Y66912D01*
X-24581Y66664D01*
X-24447Y66432D01*
X-24292Y66219D01*
X-24124Y66026D01*
X-23952Y65858D01*
X-23776Y65714D01*
X-23595Y65594D01*
X-23409Y65498D01*
X-23219Y65426D01*
X-23024Y65379D01*
X-22825Y65356D01*
X-22715Y65346D01*
X-22621Y65324D01*
X-22544Y65291D01*
X-22483Y65247D01*
X-22405Y65132D01*
X-22385Y65063D01*
X-22378Y64988D01*
X-22385Y64909D01*
X-22407Y64838D01*
X-22492Y64721D01*
X-22559Y64677D01*
X-22645Y64646D01*
X-22752Y64627D01*
X-22878Y64620D01*
G37*
G36*
X-14776Y-108256D02*
X-14855Y-108248D01*
X-14927Y-108227D01*
X-15047Y-108142D01*
X-15093Y-108075D01*
X-15126Y-107991D01*
X-15146Y-107887D01*
X-15153Y-107765D01*
X-15153Y-106775D01*
X-24664Y-106775D01*
X-24664Y-107607D01*
X-24671Y-107729D01*
X-24689Y-107833D01*
X-24721Y-107918D01*
X-24765Y-107984D01*
X-24882Y-108069D01*
X-24953Y-108091D01*
X-25032Y-108098D01*
X-25108Y-108091D01*
X-25177Y-108069D01*
X-25295Y-107984D01*
X-25341Y-107918D01*
X-25374Y-107833D01*
X-25393Y-107729D01*
X-25400Y-107607D01*
X-25400Y-105208D01*
X-25393Y-105086D01*
X-25374Y-104982D01*
X-25341Y-104897D01*
X-25295Y-104831D01*
X-25177Y-104746D01*
X-25108Y-104724D01*
X-25032Y-104717D01*
X-24953Y-104724D01*
X-24882Y-104746D01*
X-24765Y-104831D01*
X-24721Y-104897D01*
X-24689Y-104982D01*
X-24671Y-105086D01*
X-24664Y-105208D01*
X-24664Y-106040D01*
X-20005Y-106040D01*
X-19531Y-105600D01*
X-19153Y-105227D01*
X-18870Y-104921D01*
X-18682Y-104682D01*
X-18510Y-104383D01*
X-18387Y-104054D01*
X-18313Y-103695D01*
X-18294Y-103505D01*
X-18288Y-103307D01*
X-18296Y-103058D01*
X-18321Y-102823D01*
X-18363Y-102602D01*
X-18422Y-102395D01*
X-18497Y-102202D01*
X-18589Y-102024D01*
X-18697Y-101859D01*
X-18822Y-101709D01*
X-18960Y-101574D01*
X-19106Y-101458D01*
X-19260Y-101359D01*
X-19422Y-101278D01*
X-19593Y-101216D01*
X-19772Y-101171D01*
X-19959Y-101144D01*
X-20154Y-101135D01*
X-24664Y-101135D01*
X-24664Y-101958D01*
X-24671Y-102084D01*
X-24689Y-102190D01*
X-24721Y-102277D01*
X-24765Y-102344D01*
X-24882Y-102429D01*
X-24953Y-102450D01*
X-25032Y-102457D01*
X-25108Y-102450D01*
X-25177Y-102429D01*
X-25295Y-102344D01*
X-25341Y-102277D01*
X-25374Y-102190D01*
X-25393Y-102084D01*
X-25400Y-101958D01*
X-25400Y-99567D01*
X-25393Y-99441D01*
X-25374Y-99336D01*
X-25341Y-99251D01*
X-25295Y-99186D01*
X-25177Y-99104D01*
X-25108Y-99083D01*
X-25032Y-99077D01*
X-24953Y-99083D01*
X-24882Y-99104D01*
X-24765Y-99186D01*
X-24721Y-99251D01*
X-24689Y-99336D01*
X-24671Y-99441D01*
X-24664Y-99567D01*
X-24664Y-100390D01*
X-20101Y-100390D01*
X-19929Y-100397D01*
X-19759Y-100416D01*
X-19426Y-100491D01*
X-19100Y-100617D01*
X-18783Y-100793D01*
X-18490Y-101007D01*
X-18238Y-101245D01*
X-18026Y-101508D01*
X-17855Y-101796D01*
X-17722Y-102112D01*
X-17628Y-102461D01*
X-17571Y-102841D01*
X-17552Y-103254D01*
X-17572Y-103643D01*
X-17630Y-104013D01*
X-17727Y-104364D01*
X-17863Y-104695D01*
X-18047Y-105021D01*
X-18287Y-105353D01*
X-18583Y-105693D01*
X-18936Y-106040D01*
X-14408Y-106040D01*
X-14408Y-107765D01*
X-14415Y-107887D01*
X-14434Y-107991D01*
X-14467Y-108075D01*
X-14513Y-108142D01*
X-14631Y-108227D01*
X-14700Y-108248D01*
X-14776Y-108256D01*
G37*
G36*
X-18192Y32055D02*
X-18267Y32062D01*
X-18336Y32083D01*
X-18455Y32169D01*
X-18500Y32235D01*
X-18533Y32320D01*
X-18553Y32423D01*
X-18560Y32546D01*
X-18560Y32764D01*
X-25400Y36180D01*
X-28045Y34884D01*
X-28045Y32581D01*
X-28051Y32458D01*
X-28070Y32355D01*
X-28102Y32270D01*
X-28146Y32204D01*
X-28263Y32119D01*
X-28334Y32097D01*
X-28413Y32090D01*
X-28492Y32097D01*
X-28563Y32119D01*
X-28680Y32204D01*
X-28724Y32270D01*
X-28756Y32355D01*
X-28775Y32458D01*
X-28781Y32581D01*
X-28781Y36820D01*
X-28774Y36942D01*
X-28755Y37045D01*
X-28722Y37130D01*
X-28676Y37196D01*
X-28557Y37282D01*
X-28488Y37303D01*
X-28413Y37310D01*
X-28334Y37303D01*
X-28263Y37282D01*
X-28146Y37196D01*
X-28102Y37130D01*
X-28070Y37045D01*
X-28051Y36942D01*
X-28045Y36820D01*
X-28045Y35672D01*
X-18560Y40332D01*
X-18552Y40656D01*
X-18529Y40822D01*
X-18482Y40906D01*
X-18402Y40980D01*
X-18301Y41033D01*
X-18192Y41050D01*
X-18112Y41043D01*
X-18041Y41022D01*
X-17920Y40936D01*
X-17874Y40869D01*
X-17841Y40783D01*
X-17822Y40677D01*
X-17815Y40551D01*
X-17815Y38545D01*
X-17822Y38423D01*
X-17841Y38320D01*
X-17874Y38235D01*
X-17920Y38168D01*
X-18038Y38083D01*
X-18107Y38062D01*
X-18183Y38055D01*
X-18262Y38062D01*
X-18334Y38083D01*
X-18455Y38168D01*
X-18500Y38235D01*
X-18533Y38320D01*
X-18553Y38423D01*
X-18560Y38545D01*
X-18560Y39535D01*
X-24594Y36574D01*
X-18560Y33570D01*
X-18560Y34560D01*
X-18553Y34682D01*
X-18533Y34785D01*
X-18500Y34870D01*
X-18455Y34937D01*
X-18336Y35022D01*
X-18267Y35043D01*
X-18192Y35050D01*
X-18112Y35043D01*
X-18041Y35022D01*
X-17920Y34937D01*
X-17874Y34870D01*
X-17841Y34785D01*
X-17822Y34682D01*
X-17815Y34560D01*
X-17815Y32546D01*
X-17825Y32378D01*
X-17855Y32261D01*
X-17907Y32178D01*
X-17986Y32112D01*
X-18083Y32069D01*
X-18192Y32055D01*
G37*
G36*
X-5264Y-53752D02*
X-6350Y-53752D01*
X-6350Y-46640D01*
X-5325Y-46640D01*
X-5203Y-46647D01*
X-5100Y-46667D01*
X-5015Y-46700D01*
X-4949Y-46745D01*
X-4863Y-46864D01*
X-4842Y-46933D01*
X-4835Y-47008D01*
X-4842Y-47088D01*
X-4863Y-47159D01*
X-4949Y-47280D01*
X-5015Y-47326D01*
X-5100Y-47359D01*
X-5203Y-47378D01*
X-5325Y-47385D01*
X-5614Y-47385D01*
X-5614Y-53034D01*
X-5562Y-53034D01*
X-4785Y-52159D01*
X-3865Y-51164D01*
X-2801Y-50049D01*
X-1594Y-48813D01*
X-706Y-47938D01*
X-358Y-47619D01*
X-75Y-47380D01*
X172Y-47196D01*
X409Y-47040D01*
X637Y-46913D01*
X854Y-46816D01*
X1071Y-46743D01*
X1299Y-46691D01*
X1538Y-46660D01*
X1787Y-46649D01*
X2085Y-46665D01*
X2375Y-46711D01*
X2657Y-46788D01*
X2932Y-46897D01*
X3198Y-47036D01*
X3457Y-47206D01*
X3707Y-47407D01*
X3950Y-47639D01*
X4174Y-47892D01*
X4368Y-48158D01*
X4532Y-48435D01*
X4666Y-48725D01*
X4770Y-49027D01*
X4845Y-49340D01*
X4890Y-49666D01*
X4905Y-50004D01*
X4898Y-50215D01*
X4879Y-50426D01*
X4802Y-50843D01*
X4673Y-51256D01*
X4493Y-51663D01*
X4268Y-52047D01*
X4005Y-52386D01*
X3703Y-52682D01*
X3363Y-52933D01*
X3023Y-53135D01*
X2719Y-53278D01*
X2453Y-53364D01*
X2334Y-53386D01*
X2225Y-53393D01*
X2094Y-53368D01*
X1984Y-53292D01*
X1908Y-53180D01*
X1883Y-53043D01*
X1905Y-52911D01*
X1971Y-52798D01*
X2069Y-52725D01*
X2242Y-52666D01*
X2442Y-52603D01*
X2633Y-52524D01*
X2816Y-52428D01*
X2991Y-52316D01*
X3158Y-52187D01*
X3316Y-52042D01*
X3466Y-51881D01*
X3608Y-51703D01*
X3738Y-51513D01*
X3850Y-51317D01*
X3945Y-51114D01*
X4022Y-50904D01*
X4083Y-50687D01*
X4126Y-50463D01*
X4152Y-50232D01*
X4160Y-49995D01*
X4149Y-49731D01*
X4115Y-49476D01*
X4058Y-49231D01*
X3979Y-48996D01*
X3876Y-48771D01*
X3751Y-48556D01*
X3604Y-48351D01*
X3433Y-48156D01*
X3248Y-47977D01*
X3056Y-47822D01*
X2857Y-47691D01*
X2652Y-47584D01*
X2439Y-47501D01*
X2220Y-47441D01*
X1993Y-47406D01*
X1760Y-47394D01*
X1586Y-47402D01*
X1411Y-47428D01*
X1237Y-47470D01*
X1064Y-47529D01*
X884Y-47612D01*
X691Y-47723D01*
X263Y-48033D01*
X-322Y-48556D01*
X-1165Y-49391D01*
X-2203Y-50458D01*
X-3232Y-51541D01*
X-4252Y-52639D01*
X-5264Y-53752D01*
G37*
G36*
X-5264Y-32252D02*
X-6350Y-32252D01*
X-6350Y-25140D01*
X-5325Y-25140D01*
X-5203Y-25147D01*
X-5100Y-25167D01*
X-5015Y-25200D01*
X-4949Y-25245D01*
X-4863Y-25364D01*
X-4842Y-25433D01*
X-4835Y-25508D01*
X-4842Y-25588D01*
X-4863Y-25659D01*
X-4949Y-25780D01*
X-5015Y-25826D01*
X-5100Y-25859D01*
X-5203Y-25878D01*
X-5325Y-25885D01*
X-5614Y-25885D01*
X-5614Y-31534D01*
X-5562Y-31534D01*
X-4785Y-30659D01*
X-3865Y-29664D01*
X-2801Y-28549D01*
X-1594Y-27313D01*
X-706Y-26438D01*
X-358Y-26119D01*
X-75Y-25880D01*
X172Y-25696D01*
X409Y-25540D01*
X637Y-25413D01*
X854Y-25316D01*
X1071Y-25243D01*
X1299Y-25191D01*
X1538Y-25160D01*
X1787Y-25149D01*
X2085Y-25165D01*
X2375Y-25211D01*
X2657Y-25288D01*
X2932Y-25397D01*
X3198Y-25536D01*
X3457Y-25706D01*
X3707Y-25907D01*
X3950Y-26139D01*
X4174Y-26392D01*
X4368Y-26658D01*
X4532Y-26935D01*
X4666Y-27225D01*
X4770Y-27527D01*
X4845Y-27840D01*
X4890Y-28166D01*
X4905Y-28504D01*
X4898Y-28715D01*
X4879Y-28926D01*
X4802Y-29343D01*
X4673Y-29756D01*
X4493Y-30163D01*
X4268Y-30547D01*
X4005Y-30886D01*
X3703Y-31182D01*
X3363Y-31433D01*
X3023Y-31635D01*
X2719Y-31778D01*
X2453Y-31864D01*
X2334Y-31886D01*
X2225Y-31893D01*
X2094Y-31868D01*
X1984Y-31792D01*
X1908Y-31680D01*
X1883Y-31543D01*
X1905Y-31411D01*
X1971Y-31298D01*
X2069Y-31225D01*
X2242Y-31166D01*
X2442Y-31103D01*
X2633Y-31024D01*
X2816Y-30928D01*
X2991Y-30816D01*
X3158Y-30687D01*
X3316Y-30542D01*
X3466Y-30381D01*
X3608Y-30203D01*
X3738Y-30013D01*
X3850Y-29817D01*
X3945Y-29614D01*
X4022Y-29404D01*
X4083Y-29187D01*
X4126Y-28963D01*
X4152Y-28732D01*
X4160Y-28495D01*
X4149Y-28231D01*
X4115Y-27976D01*
X4058Y-27731D01*
X3979Y-27496D01*
X3876Y-27271D01*
X3751Y-27056D01*
X3604Y-26851D01*
X3433Y-26656D01*
X3248Y-26477D01*
X3056Y-26322D01*
X2857Y-26191D01*
X2652Y-26084D01*
X2439Y-26001D01*
X2220Y-25941D01*
X1993Y-25906D01*
X1760Y-25894D01*
X1586Y-25902D01*
X1411Y-25928D01*
X1237Y-25970D01*
X1064Y-26029D01*
X884Y-26112D01*
X691Y-26223D01*
X263Y-26533D01*
X-322Y-27056D01*
X-1165Y-27891D01*
X-2203Y-28958D01*
X-3232Y-30041D01*
X-4252Y-31139D01*
X-5264Y-32252D01*
G37*
G36*
X22580Y-43379D02*
X22501Y-43372D01*
X22430Y-43350D01*
X22313Y-43265D01*
X22268Y-43199D01*
X22237Y-43114D01*
X22218Y-43011D01*
X22212Y-42888D01*
X22212Y-41137D01*
X13436Y-41137D01*
X13436Y-42888D01*
X13429Y-43011D01*
X13411Y-43114D01*
X13379Y-43199D01*
X13335Y-43265D01*
X13218Y-43350D01*
X13147Y-43372D01*
X13068Y-43379D01*
X12992Y-43372D01*
X12923Y-43350D01*
X12805Y-43265D01*
X12759Y-43199D01*
X12726Y-43114D01*
X12707Y-43011D01*
X12700Y-42888D01*
X12700Y-34761D01*
X16361Y-34761D01*
X16487Y-34767D01*
X16592Y-34787D01*
X16677Y-34820D01*
X16742Y-34866D01*
X16824Y-34984D01*
X16845Y-35053D01*
X16852Y-35128D01*
X16844Y-35208D01*
X16823Y-35279D01*
X16738Y-35400D01*
X16671Y-35446D01*
X16587Y-35479D01*
X16483Y-35498D01*
X16361Y-35505D01*
X13436Y-35505D01*
X13436Y-40392D01*
X22212Y-40392D01*
X22212Y-38641D01*
X22218Y-38518D01*
X22237Y-38415D01*
X22268Y-38330D01*
X22313Y-38264D01*
X22430Y-38179D01*
X22501Y-38157D01*
X22580Y-38150D01*
X22659Y-38157D01*
X22730Y-38179D01*
X22847Y-38264D01*
X22891Y-38330D01*
X22922Y-38415D01*
X22941Y-38518D01*
X22947Y-38641D01*
X22947Y-42888D01*
X22941Y-43011D01*
X22922Y-43114D01*
X22891Y-43199D01*
X22847Y-43265D01*
X22730Y-43350D01*
X22659Y-43372D01*
X22580Y-43379D01*
G37*
G36*
X-23394Y-64187D02*
X-24910Y-64187D01*
X-25032Y-64180D01*
X-25135Y-64161D01*
X-25220Y-64128D01*
X-25286Y-64082D01*
X-25372Y-63964D01*
X-25393Y-63895D01*
X-25400Y-63819D01*
X-25385Y-63711D01*
X-25339Y-63613D01*
X-25271Y-63536D01*
X-25190Y-63486D01*
X-25050Y-63460D01*
X-24804Y-63451D01*
X-25012Y-63163D01*
X-25191Y-62856D01*
X-25344Y-62528D01*
X-25468Y-62181D01*
X-25565Y-61815D01*
X-25634Y-61428D01*
X-25675Y-61022D01*
X-25689Y-60596D01*
X-25678Y-60173D01*
X-25643Y-59777D01*
X-25586Y-59407D01*
X-25506Y-59063D01*
X-25403Y-58746D01*
X-25278Y-58455D01*
X-25129Y-58190D01*
X-24958Y-57951D01*
X-24772Y-57739D01*
X-24579Y-57556D01*
X-24380Y-57401D01*
X-24175Y-57274D01*
X-23963Y-57176D01*
X-23745Y-57105D01*
X-23520Y-57063D01*
X-23289Y-57049D01*
X-23133Y-57055D01*
X-22979Y-57075D01*
X-22681Y-57153D01*
X-22393Y-57283D01*
X-22116Y-57465D01*
X-21859Y-57700D01*
X-21632Y-57989D01*
X-21434Y-58333D01*
X-21266Y-58730D01*
X-21164Y-59087D01*
X-21067Y-59560D01*
X-20975Y-60151D01*
X-20889Y-60859D01*
X-20817Y-61399D01*
X-20730Y-61844D01*
X-20628Y-62196D01*
X-20513Y-62453D01*
X-20327Y-62721D01*
X-20225Y-62826D01*
X-20119Y-62913D01*
X-20006Y-62980D01*
X-19889Y-63028D01*
X-19766Y-63056D01*
X-19637Y-63066D01*
X-19522Y-63058D01*
X-19410Y-63034D01*
X-19301Y-62993D01*
X-19195Y-62937D01*
X-18990Y-62775D01*
X-18796Y-62549D01*
X-18679Y-62370D01*
X-18578Y-62173D01*
X-18492Y-61959D01*
X-18422Y-61728D01*
X-18367Y-61480D01*
X-18328Y-61214D01*
X-18305Y-60931D01*
X-18297Y-60631D01*
X-18305Y-60343D01*
X-18328Y-60069D01*
X-18366Y-59810D01*
X-18419Y-59565D01*
X-18488Y-59334D01*
X-18573Y-59119D01*
X-18672Y-58917D01*
X-18787Y-58730D01*
X-18970Y-58513D01*
X-19175Y-58349D01*
X-19403Y-58241D01*
X-19526Y-58207D01*
X-19654Y-58187D01*
X-19843Y-58149D01*
X-19914Y-58114D01*
X-19970Y-58069D01*
X-20042Y-57956D01*
X-20066Y-57820D01*
X-20059Y-57740D01*
X-20038Y-57668D01*
X-19952Y-57548D01*
X-19886Y-57502D01*
X-19801Y-57469D01*
X-19698Y-57450D01*
X-19576Y-57443D01*
X-18314Y-57443D01*
X-18188Y-57450D01*
X-18082Y-57469D01*
X-17996Y-57502D01*
X-17929Y-57548D01*
X-17844Y-57668D01*
X-17822Y-57740D01*
X-17815Y-57820D01*
X-17822Y-57895D01*
X-17844Y-57964D01*
X-17929Y-58082D01*
X-17995Y-58128D01*
X-18078Y-58161D01*
X-18179Y-58181D01*
X-18297Y-58187D01*
X-18122Y-58435D01*
X-17971Y-58700D01*
X-17843Y-58983D01*
X-17738Y-59284D01*
X-17657Y-59603D01*
X-17599Y-59940D01*
X-17564Y-60294D01*
X-17552Y-60666D01*
X-17561Y-60982D01*
X-17587Y-61287D01*
X-17631Y-61581D01*
X-17691Y-61864D01*
X-17770Y-62135D01*
X-17865Y-62395D01*
X-17978Y-62644D01*
X-18109Y-62882D01*
X-18254Y-63100D01*
X-18411Y-63288D01*
X-18580Y-63448D01*
X-18762Y-63578D01*
X-18956Y-63680D01*
X-19162Y-63752D01*
X-19380Y-63796D01*
X-19611Y-63810D01*
X-19869Y-63790D01*
X-20119Y-63727D01*
X-20359Y-63623D01*
X-20592Y-63478D01*
X-20805Y-63295D01*
X-20990Y-63079D01*
X-21147Y-62831D01*
X-21275Y-62549D01*
X-21383Y-62203D01*
X-21481Y-61760D01*
X-21567Y-61220D01*
X-21643Y-60583D01*
X-21730Y-59938D01*
X-21851Y-59375D01*
X-22006Y-58894D01*
X-22096Y-58684D01*
X-22194Y-58494D01*
X-22302Y-58328D01*
X-22417Y-58184D01*
X-22541Y-58062D01*
X-22674Y-57962D01*
X-22815Y-57884D01*
X-22965Y-57829D01*
X-23123Y-57796D01*
X-23289Y-57785D01*
X-23437Y-57795D01*
X-23583Y-57828D01*
X-23727Y-57883D01*
X-23869Y-57960D01*
X-24010Y-58058D01*
X-24148Y-58179D01*
X-24419Y-58485D01*
X-24544Y-58672D01*
X-24653Y-58882D01*
X-24745Y-59114D01*
X-24820Y-59370D01*
X-24878Y-59648D01*
X-24920Y-59950D01*
X-24945Y-60275D01*
X-24953Y-60622D01*
X-24936Y-61089D01*
X-24884Y-61519D01*
X-24798Y-61911D01*
X-24677Y-62265D01*
X-24530Y-62577D01*
X-24365Y-62844D01*
X-24182Y-63065D01*
X-23981Y-63241D01*
X-23837Y-63329D01*
X-23677Y-63392D01*
X-23500Y-63430D01*
X-23307Y-63443D01*
X-23219Y-63449D01*
X-23141Y-63470D01*
X-23073Y-63504D01*
X-23013Y-63552D01*
X-22931Y-63674D01*
X-22911Y-63743D01*
X-22904Y-63819D01*
X-22911Y-63898D01*
X-22932Y-63969D01*
X-23018Y-64086D01*
X-23084Y-64130D01*
X-23169Y-64162D01*
X-23272Y-64181D01*
X-23394Y-64187D01*
G37*
G36*
X18612Y-97138D02*
X17114Y-97138D01*
X16741Y-97124D01*
X16384Y-97083D01*
X16043Y-97015D01*
X15717Y-96919D01*
X15393Y-96785D01*
X15054Y-96605D01*
X14701Y-96376D01*
X14333Y-96100D01*
X13986Y-95812D01*
X13693Y-95547D01*
X13454Y-95306D01*
X13269Y-95088D01*
X13117Y-94869D01*
X12974Y-94622D01*
X12841Y-94348D01*
X12718Y-94046D01*
X12583Y-93636D01*
X12488Y-93229D01*
X12430Y-92826D01*
X12411Y-92426D01*
X12417Y-92196D01*
X12436Y-91967D01*
X12513Y-91511D01*
X12640Y-91058D01*
X12818Y-90608D01*
X13047Y-90171D01*
X13325Y-89755D01*
X13653Y-89363D01*
X14031Y-88992D01*
X14224Y-88827D01*
X14390Y-88710D01*
X14531Y-88639D01*
X14644Y-88616D01*
X14780Y-88640D01*
X14890Y-88712D01*
X14962Y-88824D01*
X14986Y-88966D01*
X14974Y-89056D01*
X14940Y-89141D01*
X14883Y-89222D01*
X14802Y-89299D01*
X14412Y-89652D01*
X14075Y-90012D01*
X13790Y-90377D01*
X13558Y-90748D01*
X13378Y-91135D01*
X13250Y-91546D01*
X13205Y-91761D01*
X13172Y-91982D01*
X13153Y-92210D01*
X13147Y-92443D01*
X13166Y-92831D01*
X13223Y-93207D01*
X13317Y-93571D01*
X13450Y-93923D01*
X13621Y-94263D01*
X13829Y-94591D01*
X14075Y-94907D01*
X14360Y-95211D01*
X14670Y-95490D01*
X14993Y-95732D01*
X15331Y-95937D01*
X15681Y-96104D01*
X16045Y-96234D01*
X16423Y-96328D01*
X16815Y-96383D01*
X17219Y-96402D01*
X18507Y-96402D01*
X18882Y-96387D01*
X19238Y-96341D01*
X19574Y-96264D01*
X19891Y-96157D01*
X20297Y-95971D01*
X20686Y-95756D01*
X21055Y-95511D01*
X21406Y-95237D01*
X21595Y-95056D01*
X21769Y-94847D01*
X21928Y-94610D01*
X22072Y-94344D01*
X22236Y-93961D01*
X22354Y-93566D01*
X22425Y-93160D01*
X22448Y-92741D01*
X22436Y-92421D01*
X22400Y-92110D01*
X22339Y-91808D01*
X22253Y-91515D01*
X22144Y-91230D01*
X22010Y-90954D01*
X21851Y-90687D01*
X21669Y-90429D01*
X21524Y-90251D01*
X21374Y-90096D01*
X21218Y-89963D01*
X21058Y-89853D01*
X20892Y-89764D01*
X20721Y-89698D01*
X20545Y-89654D01*
X20364Y-89632D01*
X20160Y-89593D01*
X20083Y-89559D01*
X20022Y-89513D01*
X19943Y-89401D01*
X19924Y-89335D01*
X19917Y-89264D01*
X19924Y-89185D01*
X19946Y-89114D01*
X20031Y-88997D01*
X20098Y-88953D01*
X20184Y-88921D01*
X20290Y-88902D01*
X20416Y-88896D01*
X22457Y-88896D01*
X22579Y-88902D01*
X22683Y-88921D01*
X22767Y-88953D01*
X22834Y-88997D01*
X22919Y-89114D01*
X22940Y-89185D01*
X22947Y-89264D01*
X22940Y-89343D01*
X22919Y-89414D01*
X22834Y-89531D01*
X22767Y-89575D01*
X22683Y-89606D01*
X22579Y-89625D01*
X22457Y-89632D01*
X21940Y-89632D01*
X22232Y-89968D01*
X22484Y-90320D01*
X22698Y-90688D01*
X22873Y-91072D01*
X23009Y-91472D01*
X23106Y-91888D01*
X23165Y-92320D01*
X23184Y-92767D01*
X23174Y-93060D01*
X23146Y-93348D01*
X23098Y-93630D01*
X23032Y-93907D01*
X22946Y-94178D01*
X22842Y-94445D01*
X22718Y-94706D01*
X22575Y-94961D01*
X22415Y-95207D01*
X22238Y-95440D01*
X22045Y-95660D01*
X21835Y-95866D01*
X21609Y-96058D01*
X21367Y-96237D01*
X21108Y-96403D01*
X20832Y-96555D01*
X20550Y-96692D01*
X20268Y-96810D01*
X19988Y-96910D01*
X19710Y-96992D01*
X19433Y-97056D01*
X19158Y-97101D01*
X18884Y-97129D01*
X18612Y-97138D01*
G37*
G36*
X18612Y-64888D02*
X17114Y-64888D01*
X16741Y-64874D01*
X16384Y-64833D01*
X16043Y-64765D01*
X15717Y-64669D01*
X15393Y-64535D01*
X15054Y-64355D01*
X14701Y-64126D01*
X14333Y-63850D01*
X13986Y-63562D01*
X13693Y-63297D01*
X13454Y-63056D01*
X13269Y-62838D01*
X13117Y-62619D01*
X12974Y-62372D01*
X12841Y-62098D01*
X12718Y-61796D01*
X12583Y-61386D01*
X12488Y-60979D01*
X12430Y-60576D01*
X12411Y-60176D01*
X12417Y-59946D01*
X12436Y-59717D01*
X12513Y-59261D01*
X12640Y-58808D01*
X12818Y-58358D01*
X13047Y-57921D01*
X13325Y-57505D01*
X13653Y-57113D01*
X14031Y-56742D01*
X14224Y-56577D01*
X14390Y-56460D01*
X14531Y-56389D01*
X14644Y-56366D01*
X14780Y-56390D01*
X14890Y-56462D01*
X14962Y-56574D01*
X14986Y-56716D01*
X14974Y-56806D01*
X14940Y-56891D01*
X14883Y-56972D01*
X14802Y-57049D01*
X14412Y-57402D01*
X14075Y-57762D01*
X13790Y-58127D01*
X13558Y-58498D01*
X13378Y-58885D01*
X13250Y-59296D01*
X13205Y-59511D01*
X13172Y-59732D01*
X13153Y-59960D01*
X13147Y-60193D01*
X13166Y-60581D01*
X13223Y-60957D01*
X13317Y-61321D01*
X13450Y-61673D01*
X13621Y-62013D01*
X13829Y-62341D01*
X14075Y-62657D01*
X14360Y-62961D01*
X14670Y-63240D01*
X14993Y-63482D01*
X15331Y-63687D01*
X15681Y-63854D01*
X16045Y-63984D01*
X16423Y-64078D01*
X16815Y-64133D01*
X17219Y-64152D01*
X18507Y-64152D01*
X18882Y-64137D01*
X19238Y-64091D01*
X19574Y-64014D01*
X19891Y-63907D01*
X20297Y-63721D01*
X20686Y-63506D01*
X21055Y-63261D01*
X21406Y-62987D01*
X21595Y-62806D01*
X21769Y-62597D01*
X21928Y-62360D01*
X22072Y-62094D01*
X22236Y-61711D01*
X22354Y-61316D01*
X22425Y-60910D01*
X22448Y-60491D01*
X22436Y-60171D01*
X22400Y-59860D01*
X22339Y-59558D01*
X22253Y-59265D01*
X22144Y-58980D01*
X22010Y-58704D01*
X21851Y-58437D01*
X21669Y-58179D01*
X21524Y-58001D01*
X21374Y-57846D01*
X21218Y-57713D01*
X21058Y-57603D01*
X20892Y-57514D01*
X20721Y-57448D01*
X20545Y-57404D01*
X20364Y-57382D01*
X20160Y-57343D01*
X20083Y-57309D01*
X20022Y-57263D01*
X19943Y-57151D01*
X19924Y-57085D01*
X19917Y-57014D01*
X19924Y-56935D01*
X19946Y-56864D01*
X20031Y-56747D01*
X20098Y-56703D01*
X20184Y-56671D01*
X20290Y-56652D01*
X20416Y-56646D01*
X22457Y-56646D01*
X22579Y-56652D01*
X22683Y-56671D01*
X22767Y-56703D01*
X22834Y-56747D01*
X22919Y-56864D01*
X22940Y-56935D01*
X22947Y-57014D01*
X22940Y-57093D01*
X22919Y-57164D01*
X22834Y-57281D01*
X22767Y-57325D01*
X22683Y-57356D01*
X22579Y-57375D01*
X22457Y-57382D01*
X21940Y-57382D01*
X22232Y-57718D01*
X22484Y-58070D01*
X22698Y-58438D01*
X22873Y-58822D01*
X23009Y-59222D01*
X23106Y-59638D01*
X23165Y-60070D01*
X23184Y-60517D01*
X23174Y-60810D01*
X23146Y-61098D01*
X23098Y-61380D01*
X23032Y-61657D01*
X22946Y-61928D01*
X22842Y-62195D01*
X22718Y-62456D01*
X22575Y-62711D01*
X22415Y-62957D01*
X22238Y-63190D01*
X22045Y-63410D01*
X21835Y-63616D01*
X21609Y-63808D01*
X21367Y-63987D01*
X21108Y-64153D01*
X20832Y-64305D01*
X20550Y-64442D01*
X20268Y-64560D01*
X19988Y-64660D01*
X19710Y-64742D01*
X19433Y-64806D01*
X19158Y-64851D01*
X18884Y-64879D01*
X18612Y-64888D01*
G37*
G36*
X-5089Y-107292D02*
X-5167Y-107284D01*
X-5242Y-107259D01*
X-5387Y-107161D01*
X-5596Y-106921D01*
X-5803Y-106605D01*
X-6007Y-106212D01*
X-6210Y-105742D01*
X-6386Y-105238D01*
X-6512Y-104743D01*
X-6588Y-104257D01*
X-6606Y-104018D01*
X-6613Y-103780D01*
X-6597Y-103385D01*
X-6550Y-103008D01*
X-6470Y-102647D01*
X-6360Y-102303D01*
X-6218Y-101976D01*
X-6044Y-101666D01*
X-5838Y-101372D01*
X-5601Y-101095D01*
X-5343Y-100844D01*
X-5076Y-100626D01*
X-4799Y-100442D01*
X-4512Y-100291D01*
X-4215Y-100173D01*
X-3909Y-100090D01*
X-3593Y-100039D01*
X-3267Y-100023D01*
X-3053Y-100031D01*
X-2842Y-100056D01*
X-2633Y-100098D01*
X-2425Y-100156D01*
X-2220Y-100231D01*
X-2016Y-100323D01*
X-1616Y-100557D01*
X-1423Y-100698D01*
X-1241Y-100854D01*
X-1069Y-101025D01*
X-908Y-101211D01*
X-757Y-101413D01*
X-617Y-101629D01*
X-487Y-101861D01*
X-368Y-102107D01*
X-154Y-101716D01*
X92Y-101376D01*
X371Y-101086D01*
X683Y-100846D01*
X1016Y-100658D01*
X1360Y-100524D01*
X1713Y-100443D01*
X1893Y-100423D01*
X2076Y-100417D01*
X2360Y-100431D01*
X2634Y-100472D01*
X2898Y-100542D01*
X3152Y-100640D01*
X3396Y-100766D01*
X3630Y-100919D01*
X3854Y-101101D01*
X4068Y-101310D01*
X4264Y-101541D01*
X4434Y-101788D01*
X4578Y-102050D01*
X4696Y-102328D01*
X4787Y-102622D01*
X4852Y-102931D01*
X4892Y-103256D01*
X4905Y-103596D01*
X4893Y-103929D01*
X4858Y-104252D01*
X4800Y-104567D01*
X4719Y-104873D01*
X4614Y-105169D01*
X4486Y-105457D01*
X4335Y-105735D01*
X4160Y-106005D01*
X3905Y-106338D01*
X3672Y-106576D01*
X3564Y-106659D01*
X3462Y-106719D01*
X3366Y-106755D01*
X3276Y-106767D01*
X3208Y-106760D01*
X3145Y-106740D01*
X3035Y-106661D01*
X2959Y-106545D01*
X2934Y-106408D01*
X2944Y-106317D01*
X2973Y-106237D01*
X3047Y-106146D01*
X3188Y-106022D01*
X3404Y-105814D01*
X3595Y-105573D01*
X3763Y-105301D01*
X3906Y-104997D01*
X4021Y-104670D01*
X4103Y-104327D01*
X4153Y-103969D01*
X4169Y-103596D01*
X4159Y-103331D01*
X4130Y-103079D01*
X4080Y-102839D01*
X4011Y-102613D01*
X3923Y-102399D01*
X3814Y-102198D01*
X3686Y-102011D01*
X3538Y-101836D01*
X3378Y-101677D01*
X3211Y-101540D01*
X3038Y-101425D01*
X2860Y-101330D01*
X2675Y-101256D01*
X2484Y-101203D01*
X2287Y-101172D01*
X2084Y-101161D01*
X1888Y-101171D01*
X1698Y-101201D01*
X1514Y-101252D01*
X1336Y-101322D01*
X1163Y-101413D01*
X997Y-101523D01*
X837Y-101654D01*
X683Y-101805D01*
X541Y-101971D01*
X419Y-102148D01*
X315Y-102336D01*
X230Y-102535D01*
X164Y-102745D01*
X117Y-102965D01*
X88Y-103196D01*
X79Y-103438D01*
X88Y-104069D01*
X81Y-104172D01*
X61Y-104261D01*
X28Y-104336D01*
X-18Y-104397D01*
X-136Y-104480D01*
X-205Y-104500D01*
X-280Y-104507D01*
X-359Y-104500D01*
X-430Y-104478D01*
X-547Y-104393D01*
X-592Y-104327D01*
X-623Y-104242D01*
X-642Y-104138D01*
X-648Y-104016D01*
X-671Y-103610D01*
X-739Y-103206D01*
X-853Y-102804D01*
X-1012Y-102405D01*
X-1210Y-102030D01*
X-1442Y-101701D01*
X-1707Y-101419D01*
X-2006Y-101183D01*
X-2323Y-100997D01*
X-2643Y-100864D01*
X-2966Y-100785D01*
X-3129Y-100765D01*
X-3293Y-100758D01*
X-3536Y-100772D01*
X-3773Y-100812D01*
X-4004Y-100880D01*
X-4229Y-100974D01*
X-4449Y-101095D01*
X-4664Y-101244D01*
X-4873Y-101419D01*
X-5076Y-101621D01*
X-5263Y-101843D01*
X-5426Y-102078D01*
X-5564Y-102326D01*
X-5677Y-102588D01*
X-5764Y-102862D01*
X-5827Y-103149D01*
X-5865Y-103449D01*
X-5877Y-103762D01*
X-5861Y-104139D01*
X-5814Y-104510D01*
X-5735Y-104877D01*
X-5625Y-105238D01*
X-5484Y-105595D01*
X-5311Y-105947D01*
X-5106Y-106293D01*
X-4870Y-106635D01*
X-4771Y-106802D01*
X-4747Y-106878D01*
X-4738Y-106951D01*
X-4745Y-107018D01*
X-4765Y-107081D01*
X-4844Y-107191D01*
X-4957Y-107267D01*
X-5089Y-107292D01*
G37*
G36*
X-5089Y-85792D02*
X-5167Y-85784D01*
X-5242Y-85759D01*
X-5387Y-85661D01*
X-5596Y-85421D01*
X-5803Y-85105D01*
X-6007Y-84712D01*
X-6210Y-84242D01*
X-6386Y-83738D01*
X-6512Y-83243D01*
X-6588Y-82757D01*
X-6606Y-82518D01*
X-6613Y-82280D01*
X-6597Y-81885D01*
X-6550Y-81508D01*
X-6470Y-81147D01*
X-6360Y-80803D01*
X-6218Y-80476D01*
X-6044Y-80166D01*
X-5838Y-79872D01*
X-5601Y-79595D01*
X-5343Y-79344D01*
X-5076Y-79126D01*
X-4799Y-78942D01*
X-4512Y-78791D01*
X-4215Y-78673D01*
X-3909Y-78590D01*
X-3593Y-78539D01*
X-3267Y-78523D01*
X-3053Y-78531D01*
X-2842Y-78556D01*
X-2633Y-78598D01*
X-2425Y-78656D01*
X-2220Y-78731D01*
X-2016Y-78823D01*
X-1616Y-79057D01*
X-1423Y-79198D01*
X-1241Y-79354D01*
X-1069Y-79525D01*
X-908Y-79711D01*
X-757Y-79913D01*
X-617Y-80129D01*
X-487Y-80361D01*
X-368Y-80607D01*
X-154Y-80216D01*
X92Y-79876D01*
X371Y-79586D01*
X683Y-79346D01*
X1016Y-79158D01*
X1360Y-79024D01*
X1713Y-78943D01*
X1893Y-78923D01*
X2076Y-78917D01*
X2360Y-78931D01*
X2634Y-78972D01*
X2898Y-79042D01*
X3152Y-79140D01*
X3396Y-79266D01*
X3630Y-79419D01*
X3854Y-79601D01*
X4068Y-79810D01*
X4264Y-80041D01*
X4434Y-80288D01*
X4578Y-80550D01*
X4696Y-80828D01*
X4787Y-81122D01*
X4852Y-81431D01*
X4892Y-81756D01*
X4905Y-82096D01*
X4893Y-82429D01*
X4858Y-82752D01*
X4800Y-83067D01*
X4719Y-83373D01*
X4614Y-83669D01*
X4486Y-83957D01*
X4335Y-84235D01*
X4160Y-84505D01*
X3905Y-84838D01*
X3672Y-85076D01*
X3564Y-85159D01*
X3462Y-85219D01*
X3366Y-85255D01*
X3276Y-85267D01*
X3208Y-85260D01*
X3145Y-85240D01*
X3035Y-85161D01*
X2959Y-85045D01*
X2934Y-84908D01*
X2944Y-84817D01*
X2973Y-84737D01*
X3047Y-84646D01*
X3188Y-84522D01*
X3404Y-84314D01*
X3595Y-84073D01*
X3763Y-83801D01*
X3906Y-83497D01*
X4021Y-83170D01*
X4103Y-82827D01*
X4153Y-82469D01*
X4169Y-82096D01*
X4159Y-81831D01*
X4130Y-81579D01*
X4080Y-81339D01*
X4011Y-81113D01*
X3923Y-80899D01*
X3814Y-80698D01*
X3686Y-80511D01*
X3538Y-80336D01*
X3378Y-80177D01*
X3211Y-80040D01*
X3038Y-79925D01*
X2860Y-79830D01*
X2675Y-79756D01*
X2484Y-79703D01*
X2287Y-79672D01*
X2084Y-79661D01*
X1888Y-79671D01*
X1698Y-79701D01*
X1514Y-79752D01*
X1336Y-79822D01*
X1163Y-79913D01*
X997Y-80023D01*
X837Y-80154D01*
X683Y-80305D01*
X541Y-80471D01*
X419Y-80648D01*
X315Y-80836D01*
X230Y-81035D01*
X164Y-81245D01*
X117Y-81465D01*
X88Y-81696D01*
X79Y-81938D01*
X88Y-82569D01*
X81Y-82672D01*
X61Y-82761D01*
X28Y-82836D01*
X-18Y-82897D01*
X-136Y-82980D01*
X-205Y-83000D01*
X-280Y-83007D01*
X-359Y-83000D01*
X-430Y-82978D01*
X-547Y-82893D01*
X-592Y-82827D01*
X-623Y-82742D01*
X-642Y-82638D01*
X-648Y-82516D01*
X-671Y-82110D01*
X-739Y-81706D01*
X-853Y-81304D01*
X-1012Y-80905D01*
X-1210Y-80530D01*
X-1442Y-80201D01*
X-1707Y-79919D01*
X-2006Y-79683D01*
X-2323Y-79497D01*
X-2643Y-79364D01*
X-2966Y-79285D01*
X-3129Y-79265D01*
X-3293Y-79258D01*
X-3536Y-79272D01*
X-3773Y-79312D01*
X-4004Y-79380D01*
X-4229Y-79474D01*
X-4449Y-79595D01*
X-4664Y-79744D01*
X-4873Y-79919D01*
X-5076Y-80121D01*
X-5263Y-80343D01*
X-5426Y-80578D01*
X-5564Y-80826D01*
X-5677Y-81088D01*
X-5764Y-81362D01*
X-5827Y-81649D01*
X-5865Y-81949D01*
X-5877Y-82262D01*
X-5861Y-82639D01*
X-5814Y-83010D01*
X-5735Y-83377D01*
X-5625Y-83738D01*
X-5484Y-84095D01*
X-5311Y-84447D01*
X-5106Y-84793D01*
X-4870Y-85135D01*
X-4771Y-85302D01*
X-4747Y-85378D01*
X-4738Y-85451D01*
X-4745Y-85518D01*
X-4765Y-85581D01*
X-4844Y-85691D01*
X-4957Y-85767D01*
X-5089Y-85792D01*
G37*
G36*
X-5089Y32458D02*
X-5167Y32466D01*
X-5242Y32491D01*
X-5387Y32589D01*
X-5596Y32829D01*
X-5803Y33145D01*
X-6007Y33539D01*
X-6210Y34008D01*
X-6386Y34512D01*
X-6512Y35007D01*
X-6588Y35493D01*
X-6606Y35733D01*
X-6613Y35970D01*
X-6597Y36365D01*
X-6550Y36742D01*
X-6470Y37103D01*
X-6360Y37447D01*
X-6218Y37774D01*
X-6044Y38084D01*
X-5838Y38378D01*
X-5601Y38655D01*
X-5343Y38906D01*
X-5076Y39124D01*
X-4799Y39308D01*
X-4512Y39459D01*
X-4215Y39577D01*
X-3909Y39660D01*
X-3593Y39711D01*
X-3267Y39728D01*
X-3053Y39719D01*
X-2842Y39694D01*
X-2633Y39652D01*
X-2425Y39594D01*
X-2220Y39519D01*
X-2016Y39427D01*
X-1616Y39193D01*
X-1423Y39052D01*
X-1241Y38896D01*
X-1069Y38725D01*
X-908Y38539D01*
X-757Y38337D01*
X-617Y38121D01*
X-487Y37889D01*
X-368Y37643D01*
X-154Y38034D01*
X92Y38374D01*
X371Y38664D01*
X683Y38904D01*
X1016Y39092D01*
X1360Y39226D01*
X1713Y39307D01*
X1893Y39327D01*
X2076Y39333D01*
X2360Y39319D01*
X2634Y39278D01*
X2898Y39208D01*
X3152Y39110D01*
X3396Y38984D01*
X3630Y38831D01*
X3854Y38649D01*
X4068Y38440D01*
X4264Y38209D01*
X4434Y37962D01*
X4578Y37700D01*
X4696Y37422D01*
X4787Y37128D01*
X4852Y36819D01*
X4892Y36494D01*
X4905Y36154D01*
X4893Y35821D01*
X4858Y35498D01*
X4800Y35183D01*
X4719Y34877D01*
X4614Y34581D01*
X4486Y34293D01*
X4335Y34015D01*
X4160Y33745D01*
X3905Y33412D01*
X3672Y33174D01*
X3564Y33091D01*
X3462Y33031D01*
X3366Y32995D01*
X3276Y32983D01*
X3208Y32990D01*
X3145Y33010D01*
X3035Y33089D01*
X2959Y33205D01*
X2934Y33343D01*
X2944Y33433D01*
X2973Y33513D01*
X3047Y33604D01*
X3188Y33728D01*
X3404Y33936D01*
X3595Y34177D01*
X3763Y34449D01*
X3906Y34753D01*
X4021Y35080D01*
X4103Y35423D01*
X4153Y35781D01*
X4169Y36154D01*
X4159Y36419D01*
X4130Y36671D01*
X4080Y36911D01*
X4011Y37137D01*
X3923Y37351D01*
X3814Y37552D01*
X3686Y37739D01*
X3538Y37914D01*
X3378Y38073D01*
X3211Y38210D01*
X3038Y38325D01*
X2860Y38420D01*
X2675Y38494D01*
X2484Y38547D01*
X2287Y38578D01*
X2084Y38589D01*
X1888Y38579D01*
X1698Y38549D01*
X1514Y38498D01*
X1336Y38428D01*
X1163Y38337D01*
X997Y38227D01*
X837Y38096D01*
X683Y37945D01*
X541Y37779D01*
X419Y37602D01*
X315Y37414D01*
X230Y37215D01*
X164Y37005D01*
X117Y36785D01*
X88Y36554D01*
X79Y36312D01*
X88Y35681D01*
X81Y35578D01*
X61Y35489D01*
X28Y35414D01*
X-18Y35353D01*
X-136Y35271D01*
X-205Y35250D01*
X-280Y35243D01*
X-359Y35250D01*
X-430Y35272D01*
X-547Y35357D01*
X-592Y35423D01*
X-623Y35508D01*
X-642Y35612D01*
X-648Y35734D01*
X-671Y36140D01*
X-739Y36544D01*
X-853Y36946D01*
X-1012Y37345D01*
X-1210Y37720D01*
X-1442Y38049D01*
X-1707Y38331D01*
X-2006Y38567D01*
X-2323Y38753D01*
X-2643Y38886D01*
X-2966Y38965D01*
X-3129Y38985D01*
X-3293Y38992D01*
X-3536Y38978D01*
X-3773Y38938D01*
X-4004Y38870D01*
X-4229Y38776D01*
X-4449Y38655D01*
X-4664Y38507D01*
X-4873Y38331D01*
X-5076Y38129D01*
X-5263Y37907D01*
X-5426Y37672D01*
X-5564Y37424D01*
X-5677Y37162D01*
X-5764Y36888D01*
X-5827Y36601D01*
X-5865Y36301D01*
X-5877Y35988D01*
X-5861Y35611D01*
X-5814Y35240D01*
X-5735Y34873D01*
X-5625Y34512D01*
X-5484Y34155D01*
X-5311Y33803D01*
X-5106Y33457D01*
X-4870Y33115D01*
X-4771Y32948D01*
X-4747Y32872D01*
X-4738Y32799D01*
X-4745Y32732D01*
X-4765Y32669D01*
X-4844Y32559D01*
X-4957Y32483D01*
X-5089Y32458D01*
G37*
G36*
X13961Y21708D02*
X13883Y21716D01*
X13808Y21741D01*
X13663Y21839D01*
X13454Y22079D01*
X13247Y22395D01*
X13043Y22789D01*
X12840Y23258D01*
X12664Y23762D01*
X12538Y24257D01*
X12462Y24743D01*
X12444Y24983D01*
X12437Y25220D01*
X12453Y25615D01*
X12501Y25992D01*
X12580Y26353D01*
X12690Y26697D01*
X12832Y27024D01*
X13006Y27334D01*
X13212Y27628D01*
X13449Y27905D01*
X13707Y28156D01*
X13974Y28374D01*
X14251Y28558D01*
X14538Y28709D01*
X14835Y28827D01*
X15141Y28910D01*
X15457Y28961D01*
X15783Y28978D01*
X15997Y28969D01*
X16208Y28944D01*
X16418Y28902D01*
X16625Y28844D01*
X16830Y28769D01*
X17034Y28677D01*
X17434Y28443D01*
X17627Y28302D01*
X17809Y28146D01*
X17981Y27975D01*
X18142Y27789D01*
X18293Y27587D01*
X18433Y27371D01*
X18563Y27139D01*
X18682Y26893D01*
X18896Y27284D01*
X19142Y27624D01*
X19421Y27914D01*
X19733Y28154D01*
X20066Y28342D01*
X20410Y28476D01*
X20763Y28557D01*
X20943Y28577D01*
X21126Y28583D01*
X21410Y28569D01*
X21684Y28528D01*
X21948Y28458D01*
X22202Y28360D01*
X22446Y28234D01*
X22680Y28081D01*
X22904Y27899D01*
X23118Y27690D01*
X23314Y27459D01*
X23484Y27212D01*
X23628Y26950D01*
X23746Y26672D01*
X23837Y26378D01*
X23902Y26069D01*
X23942Y25744D01*
X23955Y25404D01*
X23943Y25071D01*
X23908Y24748D01*
X23850Y24433D01*
X23769Y24127D01*
X23664Y23831D01*
X23536Y23543D01*
X23385Y23265D01*
X23210Y22995D01*
X22955Y22662D01*
X22722Y22424D01*
X22614Y22341D01*
X22512Y22281D01*
X22416Y22245D01*
X22326Y22233D01*
X22258Y22240D01*
X22195Y22260D01*
X22085Y22339D01*
X22009Y22455D01*
X21984Y22593D01*
X21994Y22683D01*
X22023Y22763D01*
X22097Y22854D01*
X22238Y22978D01*
X22454Y23186D01*
X22645Y23427D01*
X22813Y23699D01*
X22956Y24003D01*
X23071Y24330D01*
X23153Y24673D01*
X23203Y25031D01*
X23219Y25404D01*
X23209Y25669D01*
X23180Y25921D01*
X23130Y26161D01*
X23061Y26387D01*
X22973Y26601D01*
X22864Y26802D01*
X22736Y26989D01*
X22588Y27164D01*
X22428Y27323D01*
X22261Y27460D01*
X22088Y27575D01*
X21910Y27670D01*
X21725Y27744D01*
X21534Y27797D01*
X21337Y27828D01*
X21134Y27839D01*
X20938Y27829D01*
X20748Y27799D01*
X20564Y27748D01*
X20386Y27678D01*
X20213Y27587D01*
X20047Y27477D01*
X19887Y27346D01*
X19733Y27195D01*
X19591Y27029D01*
X19469Y26852D01*
X19365Y26664D01*
X19280Y26465D01*
X19214Y26255D01*
X19167Y26035D01*
X19138Y25804D01*
X19129Y25562D01*
X19138Y24931D01*
X19131Y24828D01*
X19111Y24739D01*
X19078Y24664D01*
X19032Y24603D01*
X18914Y24521D01*
X18845Y24500D01*
X18770Y24493D01*
X18691Y24500D01*
X18620Y24522D01*
X18503Y24607D01*
X18458Y24673D01*
X18427Y24758D01*
X18408Y24862D01*
X18402Y24984D01*
X18379Y25390D01*
X18311Y25794D01*
X18197Y26196D01*
X18038Y26595D01*
X17840Y26970D01*
X17608Y27299D01*
X17343Y27581D01*
X17044Y27817D01*
X16727Y28003D01*
X16407Y28136D01*
X16084Y28215D01*
X15921Y28235D01*
X15757Y28242D01*
X15514Y28228D01*
X15277Y28188D01*
X15046Y28120D01*
X14821Y28026D01*
X14601Y27905D01*
X14386Y27757D01*
X14178Y27581D01*
X13974Y27379D01*
X13787Y27157D01*
X13624Y26922D01*
X13486Y26674D01*
X13373Y26412D01*
X13286Y26138D01*
X13223Y25851D01*
X13185Y25551D01*
X13173Y25238D01*
X13189Y24861D01*
X13236Y24490D01*
X13315Y24123D01*
X13425Y23762D01*
X13566Y23405D01*
X13740Y23053D01*
X13944Y22707D01*
X14180Y22365D01*
X14279Y22198D01*
X14303Y22122D01*
X14312Y22049D01*
X14305Y21982D01*
X14285Y21919D01*
X14206Y21809D01*
X14093Y21733D01*
X13961Y21708D01*
G37*
G36*
X19917Y-983D02*
X19838Y-976D01*
X19766Y-955D01*
X19646Y-869D01*
X19600Y-803D01*
X19567Y-718D01*
X19547Y-615D01*
X19540Y-493D01*
X19540Y260D01*
X12700Y3282D01*
X12700Y4526D01*
X19540Y7513D01*
X19540Y8257D01*
X19547Y8383D01*
X19567Y8488D01*
X19600Y8573D01*
X19646Y8638D01*
X19764Y8720D01*
X19833Y8741D01*
X19908Y8747D01*
X19988Y8741D01*
X20059Y8720D01*
X20180Y8638D01*
X20226Y8573D01*
X20259Y8488D01*
X20278Y8383D01*
X20285Y8257D01*
X20285Y5489D01*
X20278Y5367D01*
X20259Y5264D01*
X20226Y5179D01*
X20180Y5113D01*
X20062Y5027D01*
X19993Y5006D01*
X19917Y4999D01*
X19838Y5006D01*
X19766Y5027D01*
X19646Y5113D01*
X19600Y5179D01*
X19567Y5264D01*
X19547Y5367D01*
X19540Y5489D01*
X19540Y6716D01*
X13436Y4070D01*
X13436Y3746D01*
X19540Y1049D01*
X19540Y2266D01*
X19547Y2388D01*
X19567Y2492D01*
X19600Y2577D01*
X19646Y2643D01*
X19764Y2728D01*
X19833Y2750D01*
X19908Y2757D01*
X19988Y2750D01*
X20059Y2728D01*
X20180Y2643D01*
X20226Y2577D01*
X20259Y2492D01*
X20278Y2388D01*
X20285Y2266D01*
X20285Y-493D01*
X20278Y-615D01*
X20259Y-718D01*
X20226Y-803D01*
X20180Y-869D01*
X20062Y-955D01*
X19993Y-976D01*
X19917Y-983D01*
G37*
G36*
X-18183Y-96971D02*
X-18262Y-96964D01*
X-18334Y-96943D01*
X-18455Y-96857D01*
X-18500Y-96791D01*
X-18533Y-96706D01*
X-18553Y-96603D01*
X-18560Y-96481D01*
X-18560Y-95123D01*
X-23456Y-95123D01*
X-23705Y-95111D01*
X-23942Y-95076D01*
X-24165Y-95016D01*
X-24375Y-94933D01*
X-24572Y-94826D01*
X-24756Y-94695D01*
X-24927Y-94540D01*
X-25085Y-94361D01*
X-25226Y-94163D01*
X-25349Y-93947D01*
X-25453Y-93716D01*
X-25538Y-93468D01*
X-25604Y-93203D01*
X-25651Y-92923D01*
X-25680Y-92625D01*
X-25689Y-92312D01*
X-25668Y-91811D01*
X-25605Y-91299D01*
X-25499Y-90775D01*
X-25352Y-90240D01*
X-25186Y-89750D01*
X-25027Y-89359D01*
X-24873Y-89069D01*
X-24726Y-88878D01*
X-24607Y-88793D01*
X-24545Y-88772D01*
X-24480Y-88765D01*
X-24408Y-88771D01*
X-24341Y-88791D01*
X-24222Y-88870D01*
X-24140Y-88983D01*
X-24119Y-89047D01*
X-24113Y-89115D01*
X-24141Y-89244D01*
X-24226Y-89404D01*
X-24363Y-89669D01*
X-24492Y-89982D01*
X-24615Y-90343D01*
X-24730Y-90753D01*
X-24828Y-91179D01*
X-24898Y-91589D01*
X-24939Y-91984D01*
X-24953Y-92364D01*
X-24947Y-92604D01*
X-24927Y-92829D01*
X-24893Y-93039D01*
X-24846Y-93235D01*
X-24786Y-93415D01*
X-24712Y-93580D01*
X-24625Y-93731D01*
X-24524Y-93866D01*
X-24296Y-94091D01*
X-24173Y-94179D01*
X-24042Y-94251D01*
X-23906Y-94307D01*
X-23762Y-94347D01*
X-23612Y-94371D01*
X-23456Y-94379D01*
X-18560Y-94379D01*
X-18560Y-90385D01*
X-18553Y-90263D01*
X-18533Y-90159D01*
X-18500Y-90074D01*
X-18455Y-90008D01*
X-18336Y-89923D01*
X-18267Y-89901D01*
X-18192Y-89894D01*
X-18112Y-89901D01*
X-18041Y-89923D01*
X-17920Y-90008D01*
X-17874Y-90074D01*
X-17841Y-90159D01*
X-17822Y-90263D01*
X-17815Y-90385D01*
X-17815Y-94379D01*
X-15643Y-94379D01*
X-15521Y-94385D01*
X-15417Y-94405D01*
X-15333Y-94438D01*
X-15266Y-94484D01*
X-15181Y-94604D01*
X-15160Y-94676D01*
X-15153Y-94755D01*
X-15160Y-94831D01*
X-15181Y-94900D01*
X-15266Y-95018D01*
X-15333Y-95064D01*
X-15417Y-95097D01*
X-15521Y-95117D01*
X-15643Y-95123D01*
X-17815Y-95123D01*
X-17815Y-96481D01*
X-17822Y-96603D01*
X-17841Y-96706D01*
X-17874Y-96791D01*
X-17920Y-96857D01*
X-18038Y-96943D01*
X-18107Y-96964D01*
X-18183Y-96971D01*
G37*
G36*
X-18183Y-86221D02*
X-18262Y-86214D01*
X-18334Y-86193D01*
X-18455Y-86107D01*
X-18500Y-86041D01*
X-18533Y-85956D01*
X-18553Y-85853D01*
X-18560Y-85731D01*
X-18560Y-84373D01*
X-23456Y-84373D01*
X-23705Y-84361D01*
X-23942Y-84326D01*
X-24165Y-84266D01*
X-24375Y-84183D01*
X-24572Y-84076D01*
X-24756Y-83945D01*
X-24927Y-83790D01*
X-25085Y-83611D01*
X-25226Y-83413D01*
X-25349Y-83197D01*
X-25453Y-82966D01*
X-25538Y-82718D01*
X-25604Y-82453D01*
X-25651Y-82173D01*
X-25680Y-81875D01*
X-25689Y-81562D01*
X-25668Y-81061D01*
X-25605Y-80549D01*
X-25499Y-80025D01*
X-25352Y-79490D01*
X-25186Y-79000D01*
X-25027Y-78609D01*
X-24873Y-78319D01*
X-24726Y-78128D01*
X-24607Y-78043D01*
X-24545Y-78022D01*
X-24480Y-78015D01*
X-24408Y-78021D01*
X-24341Y-78041D01*
X-24222Y-78120D01*
X-24140Y-78233D01*
X-24119Y-78297D01*
X-24113Y-78365D01*
X-24141Y-78494D01*
X-24226Y-78654D01*
X-24363Y-78919D01*
X-24492Y-79232D01*
X-24615Y-79593D01*
X-24730Y-80003D01*
X-24828Y-80429D01*
X-24898Y-80839D01*
X-24939Y-81234D01*
X-24953Y-81614D01*
X-24947Y-81854D01*
X-24927Y-82079D01*
X-24893Y-82289D01*
X-24846Y-82485D01*
X-24786Y-82665D01*
X-24712Y-82830D01*
X-24625Y-82981D01*
X-24524Y-83116D01*
X-24296Y-83341D01*
X-24173Y-83429D01*
X-24042Y-83501D01*
X-23906Y-83557D01*
X-23762Y-83597D01*
X-23612Y-83621D01*
X-23456Y-83629D01*
X-18560Y-83629D01*
X-18560Y-79635D01*
X-18553Y-79513D01*
X-18533Y-79409D01*
X-18500Y-79324D01*
X-18455Y-79258D01*
X-18336Y-79173D01*
X-18267Y-79151D01*
X-18192Y-79144D01*
X-18112Y-79151D01*
X-18041Y-79173D01*
X-17920Y-79258D01*
X-17874Y-79324D01*
X-17841Y-79409D01*
X-17822Y-79513D01*
X-17815Y-79635D01*
X-17815Y-83629D01*
X-15643Y-83629D01*
X-15521Y-83635D01*
X-15417Y-83655D01*
X-15333Y-83688D01*
X-15266Y-83734D01*
X-15181Y-83854D01*
X-15160Y-83926D01*
X-15153Y-84005D01*
X-15160Y-84081D01*
X-15181Y-84150D01*
X-15266Y-84268D01*
X-15333Y-84314D01*
X-15417Y-84347D01*
X-15521Y-84367D01*
X-15643Y-84373D01*
X-17815Y-84373D01*
X-17815Y-85731D01*
X-17822Y-85853D01*
X-17841Y-85956D01*
X-17874Y-86041D01*
X-17920Y-86107D01*
X-18038Y-86193D01*
X-18107Y-86214D01*
X-18183Y-86221D01*
G37*
G36*
X-18183Y-221D02*
X-18262Y-214D01*
X-18334Y-193D01*
X-18455Y-107D01*
X-18500Y-41D01*
X-18533Y44D01*
X-18553Y147D01*
X-18560Y269D01*
X-18560Y1627D01*
X-23456Y1627D01*
X-23705Y1639D01*
X-23942Y1674D01*
X-24165Y1734D01*
X-24375Y1817D01*
X-24572Y1924D01*
X-24756Y2055D01*
X-24927Y2210D01*
X-25085Y2389D01*
X-25226Y2588D01*
X-25349Y2803D01*
X-25453Y3034D01*
X-25538Y3282D01*
X-25604Y3547D01*
X-25651Y3827D01*
X-25680Y4125D01*
X-25689Y4438D01*
X-25668Y4939D01*
X-25605Y5451D01*
X-25499Y5975D01*
X-25352Y6510D01*
X-25186Y7000D01*
X-25027Y7391D01*
X-24873Y7681D01*
X-24726Y7872D01*
X-24607Y7957D01*
X-24545Y7978D01*
X-24480Y7986D01*
X-24408Y7979D01*
X-24341Y7959D01*
X-24222Y7880D01*
X-24140Y7767D01*
X-24119Y7703D01*
X-24113Y7635D01*
X-24141Y7506D01*
X-24226Y7346D01*
X-24363Y7081D01*
X-24492Y6768D01*
X-24615Y6407D01*
X-24730Y5997D01*
X-24828Y5571D01*
X-24898Y5161D01*
X-24939Y4766D01*
X-24953Y4386D01*
X-24947Y4146D01*
X-24927Y3921D01*
X-24893Y3711D01*
X-24846Y3515D01*
X-24786Y3335D01*
X-24712Y3170D01*
X-24625Y3019D01*
X-24524Y2884D01*
X-24296Y2659D01*
X-24173Y2571D01*
X-24042Y2499D01*
X-23906Y2443D01*
X-23762Y2403D01*
X-23612Y2379D01*
X-23456Y2371D01*
X-18560Y2371D01*
X-18560Y6365D01*
X-18553Y6487D01*
X-18533Y6591D01*
X-18500Y6676D01*
X-18455Y6742D01*
X-18336Y6827D01*
X-18267Y6849D01*
X-18192Y6856D01*
X-18112Y6849D01*
X-18041Y6827D01*
X-17920Y6742D01*
X-17874Y6676D01*
X-17841Y6591D01*
X-17822Y6487D01*
X-17815Y6365D01*
X-17815Y2371D01*
X-15643Y2371D01*
X-15521Y2365D01*
X-15417Y2345D01*
X-15333Y2312D01*
X-15266Y2266D01*
X-15181Y2146D01*
X-15160Y2074D01*
X-15153Y1995D01*
X-15160Y1919D01*
X-15181Y1850D01*
X-15266Y1732D01*
X-15333Y1686D01*
X-15417Y1653D01*
X-15521Y1633D01*
X-15643Y1627D01*
X-17815Y1627D01*
X-17815Y269D01*
X-17822Y147D01*
X-17841Y44D01*
X-17874Y-41D01*
X-17920Y-107D01*
X-18038Y-193D01*
X-18107Y-214D01*
X-18183Y-221D01*
G37*
G36*
X-25032Y21638D02*
X-25108Y21645D01*
X-25177Y21666D01*
X-25295Y21752D01*
X-25341Y21818D01*
X-25374Y21903D01*
X-25393Y22006D01*
X-25400Y22128D01*
X-25400Y28645D01*
X-25393Y28771D01*
X-25374Y28877D01*
X-25341Y28963D01*
X-25295Y29030D01*
X-25177Y29115D01*
X-25108Y29137D01*
X-25032Y29144D01*
X-24953Y29137D01*
X-24882Y29115D01*
X-24765Y29030D01*
X-24721Y28963D01*
X-24689Y28877D01*
X-24671Y28771D01*
X-24664Y28645D01*
X-24664Y25754D01*
X-14408Y25754D01*
X-14408Y22899D01*
X-14415Y22773D01*
X-14434Y22667D01*
X-14467Y22580D01*
X-14513Y22514D01*
X-14631Y22428D01*
X-14700Y22407D01*
X-14776Y22400D01*
X-14855Y22407D01*
X-14927Y22429D01*
X-14991Y22466D01*
X-15047Y22518D01*
X-15093Y22586D01*
X-15126Y22672D01*
X-15146Y22777D01*
X-15153Y22899D01*
X-15153Y25019D01*
X-24664Y25019D01*
X-24664Y22128D01*
X-24671Y22006D01*
X-24689Y21903D01*
X-24721Y21818D01*
X-24765Y21752D01*
X-24882Y21666D01*
X-24953Y21645D01*
X-25032Y21638D01*
G37*
G36*
X-5982Y-74753D02*
X-6058Y-74746D01*
X-6127Y-74725D01*
X-6245Y-74639D01*
X-6291Y-74573D01*
X-6324Y-74488D01*
X-6343Y-74385D01*
X-6350Y-74263D01*
X-6350Y-68482D01*
X-6343Y-68360D01*
X-6324Y-68256D01*
X-6291Y-68172D01*
X-6245Y-68105D01*
X-6127Y-68020D01*
X-6058Y-67999D01*
X-5982Y-67991D01*
X-5903Y-67999D01*
X-5832Y-68020D01*
X-5715Y-68105D01*
X-5671Y-68172D01*
X-5639Y-68256D01*
X-5621Y-68360D01*
X-5614Y-68482D01*
X-5614Y-71004D01*
X4791Y-71004D01*
X3731Y-74368D01*
X3654Y-74549D01*
X3582Y-74657D01*
X3464Y-74722D01*
X3337Y-74744D01*
X3265Y-74737D01*
X3198Y-74717D01*
X3079Y-74635D01*
X2996Y-74520D01*
X2976Y-74458D01*
X2969Y-74394D01*
X2982Y-74291D01*
X3022Y-74140D01*
X3775Y-71740D01*
X-5614Y-71740D01*
X-5614Y-74263D01*
X-5621Y-74385D01*
X-5639Y-74488D01*
X-5671Y-74573D01*
X-5715Y-74639D01*
X-5832Y-74725D01*
X-5903Y-74746D01*
X-5982Y-74753D01*
G37*
G36*
X-5982Y497D02*
X-6058Y504D01*
X-6127Y525D01*
X-6245Y611D01*
X-6291Y677D01*
X-6324Y762D01*
X-6343Y865D01*
X-6350Y987D01*
X-6350Y6768D01*
X-6343Y6890D01*
X-6324Y6994D01*
X-6291Y7078D01*
X-6245Y7145D01*
X-6127Y7230D01*
X-6058Y7251D01*
X-5982Y7259D01*
X-5903Y7251D01*
X-5832Y7230D01*
X-5715Y7145D01*
X-5671Y7078D01*
X-5639Y6994D01*
X-5621Y6890D01*
X-5614Y6768D01*
X-5614Y4246D01*
X4791Y4246D01*
X3731Y882D01*
X3654Y701D01*
X3582Y593D01*
X3464Y528D01*
X3337Y506D01*
X3265Y513D01*
X3198Y533D01*
X3079Y615D01*
X2996Y730D01*
X2976Y792D01*
X2969Y856D01*
X2982Y959D01*
X3022Y1110D01*
X3775Y3510D01*
X-5614Y3510D01*
X-5614Y987D01*
X-5621Y865D01*
X-5639Y762D01*
X-5671Y677D01*
X-5715Y611D01*
X-5832Y525D01*
X-5903Y504D01*
X-5982Y497D01*
G37*
G36*
X-5982Y11247D02*
X-6058Y11254D01*
X-6127Y11275D01*
X-6245Y11361D01*
X-6291Y11427D01*
X-6324Y11512D01*
X-6343Y11615D01*
X-6350Y11737D01*
X-6350Y17518D01*
X-6343Y17640D01*
X-6324Y17744D01*
X-6291Y17828D01*
X-6245Y17895D01*
X-6127Y17980D01*
X-6058Y18001D01*
X-5982Y18009D01*
X-5903Y18001D01*
X-5832Y17980D01*
X-5715Y17895D01*
X-5671Y17828D01*
X-5639Y17744D01*
X-5621Y17640D01*
X-5614Y17518D01*
X-5614Y14996D01*
X4791Y14996D01*
X3731Y11632D01*
X3654Y11451D01*
X3582Y11343D01*
X3464Y11278D01*
X3337Y11256D01*
X3265Y11263D01*
X3198Y11283D01*
X3079Y11365D01*
X2996Y11480D01*
X2976Y11542D01*
X2969Y11606D01*
X2982Y11709D01*
X3022Y11860D01*
X3775Y14260D01*
X-5614Y14260D01*
X-5614Y11737D01*
X-5621Y11615D01*
X-5639Y11512D01*
X-5671Y11427D01*
X-5715Y11361D01*
X-5832Y11275D01*
X-5903Y11254D01*
X-5982Y11247D01*
G37*
G36*
X13068Y11247D02*
X12992Y11254D01*
X12923Y11275D01*
X12805Y11361D01*
X12759Y11427D01*
X12726Y11512D01*
X12707Y11615D01*
X12700Y11737D01*
X12700Y17518D01*
X12707Y17640D01*
X12726Y17744D01*
X12759Y17828D01*
X12805Y17895D01*
X12923Y17980D01*
X12992Y18001D01*
X13068Y18009D01*
X13147Y18001D01*
X13218Y17980D01*
X13335Y17895D01*
X13379Y17828D01*
X13411Y17744D01*
X13429Y17640D01*
X13436Y17518D01*
X13436Y14996D01*
X23841Y14996D01*
X22781Y11632D01*
X22704Y11451D01*
X22632Y11343D01*
X22514Y11278D01*
X22387Y11256D01*
X22315Y11263D01*
X22248Y11283D01*
X22129Y11365D01*
X22046Y11480D01*
X22026Y11542D01*
X22019Y11606D01*
X22032Y11709D01*
X22072Y11860D01*
X22825Y14260D01*
X13436Y14260D01*
X13436Y11737D01*
X13429Y11615D01*
X13411Y11512D01*
X13379Y11427D01*
X13335Y11361D01*
X13218Y11275D01*
X13147Y11254D01*
X13068Y11247D01*
G37*
G36*
X-14408Y54098D02*
X-15801Y54098D01*
X-15923Y54105D01*
X-16026Y54124D01*
X-16111Y54157D01*
X-16177Y54203D01*
X-16263Y54321D01*
X-16284Y54390D01*
X-16291Y54466D01*
X-16284Y54545D01*
X-16263Y54616D01*
X-16177Y54733D01*
X-16111Y54777D01*
X-16026Y54809D01*
X-15923Y54827D01*
X-15801Y54834D01*
X-15153Y54834D01*
X-15153Y60106D01*
X-15485Y60106D01*
X-24822Y57190D01*
X-24962Y57150D01*
X-25067Y57137D01*
X-25199Y57164D01*
X-25312Y57242D01*
X-25391Y57361D01*
X-25411Y57430D01*
X-25418Y57505D01*
X-25399Y57621D01*
X-25343Y57724D01*
X-25230Y57814D01*
X-25041Y57891D01*
X-15582Y60851D01*
X-14408Y60851D01*
X-14408Y54098D01*
G37*
G36*
X-25032Y-10595D02*
X-25108Y-10588D01*
X-25177Y-10566D01*
X-25295Y-10481D01*
X-25341Y-10415D01*
X-25374Y-10330D01*
X-25393Y-10226D01*
X-25400Y-10104D01*
X-25400Y-3588D01*
X-25393Y-3462D01*
X-25374Y-3356D01*
X-25341Y-3269D01*
X-25295Y-3202D01*
X-25177Y-3117D01*
X-25108Y-3096D01*
X-25032Y-3089D01*
X-24953Y-3096D01*
X-24882Y-3117D01*
X-24765Y-3202D01*
X-24721Y-3269D01*
X-24689Y-3356D01*
X-24671Y-3462D01*
X-24664Y-3588D01*
X-24664Y-6478D01*
X-17815Y-6478D01*
X-17815Y-9360D01*
X-17822Y-9486D01*
X-17841Y-9592D01*
X-17874Y-9678D01*
X-17920Y-9745D01*
X-18041Y-9830D01*
X-18112Y-9852D01*
X-18192Y-9859D01*
X-18267Y-9852D01*
X-18336Y-9829D01*
X-18455Y-9741D01*
X-18500Y-9673D01*
X-18533Y-9586D01*
X-18553Y-9482D01*
X-18560Y-9360D01*
X-18560Y-7214D01*
X-24664Y-7214D01*
X-24664Y-10104D01*
X-24671Y-10226D01*
X-24689Y-10330D01*
X-24721Y-10415D01*
X-24765Y-10481D01*
X-24882Y-10566D01*
X-24953Y-10588D01*
X-25032Y-10595D01*
G37*
G36*
X-26530Y-42486D02*
X-26594Y-42479D01*
X-26656Y-42458D01*
X-26771Y-42376D01*
X-26853Y-42257D01*
X-26873Y-42190D01*
X-26880Y-42118D01*
X-26860Y-42005D01*
X-26799Y-41903D01*
X-26698Y-41812D01*
X-26556Y-41732D01*
X-13874Y-35812D01*
X-13705Y-35746D01*
X-13585Y-35724D01*
X-13520Y-35731D01*
X-13459Y-35751D01*
X-13344Y-35833D01*
X-13262Y-35953D01*
X-13241Y-36020D01*
X-13234Y-36092D01*
X-13250Y-36206D01*
X-13296Y-36302D01*
X-13392Y-36392D01*
X-13558Y-36486D01*
X-26241Y-42398D01*
X-26405Y-42464D01*
X-26530Y-42486D01*
G37*
G36*
X-26530Y-31736D02*
X-26594Y-31729D01*
X-26656Y-31708D01*
X-26771Y-31626D01*
X-26853Y-31507D01*
X-26873Y-31440D01*
X-26880Y-31368D01*
X-26860Y-31255D01*
X-26799Y-31153D01*
X-26698Y-31062D01*
X-26556Y-30982D01*
X-13874Y-25062D01*
X-13705Y-24996D01*
X-13585Y-24974D01*
X-13520Y-24981D01*
X-13459Y-25001D01*
X-13344Y-25083D01*
X-13262Y-25203D01*
X-13241Y-25270D01*
X-13234Y-25342D01*
X-13250Y-25456D01*
X-13296Y-25552D01*
X-13392Y-25642D01*
X-13558Y-25736D01*
X-26241Y-31648D01*
X-26405Y-31714D01*
X-26530Y-31736D01*
G37*
G36*
X-26530Y43514D02*
X-26594Y43521D01*
X-26656Y43542D01*
X-26771Y43624D01*
X-26853Y43743D01*
X-26873Y43810D01*
X-26880Y43882D01*
X-26860Y43995D01*
X-26799Y44097D01*
X-26698Y44188D01*
X-26556Y44268D01*
X-13874Y50188D01*
X-13705Y50254D01*
X-13585Y50276D01*
X-13520Y50269D01*
X-13459Y50249D01*
X-13344Y50167D01*
X-13262Y50047D01*
X-13241Y49980D01*
X-13234Y49908D01*
X-13250Y49794D01*
X-13296Y49698D01*
X-13392Y49608D01*
X-13558Y49514D01*
X-26241Y43602D01*
X-26405Y43536D01*
X-26530Y43514D01*
G37*
G36*
X-7480Y-96236D02*
X-7544Y-96229D01*
X-7606Y-96208D01*
X-7721Y-96126D01*
X-7803Y-96007D01*
X-7823Y-95940D01*
X-7830Y-95868D01*
X-7810Y-95755D01*
X-7749Y-95653D01*
X-7648Y-95562D01*
X-7506Y-95482D01*
X5176Y-89562D01*
X5345Y-89496D01*
X5465Y-89474D01*
X5530Y-89481D01*
X5591Y-89501D01*
X5706Y-89583D01*
X5788Y-89703D01*
X5809Y-89770D01*
X5816Y-89842D01*
X5800Y-89956D01*
X5754Y-90052D01*
X5658Y-90142D01*
X5492Y-90236D01*
X-7191Y-96148D01*
X-7355Y-96214D01*
X-7480Y-96236D01*
G37*
G36*
X-7480Y-63986D02*
X-7544Y-63979D01*
X-7606Y-63958D01*
X-7721Y-63876D01*
X-7803Y-63757D01*
X-7823Y-63690D01*
X-7830Y-63618D01*
X-7810Y-63505D01*
X-7749Y-63403D01*
X-7648Y-63312D01*
X-7506Y-63232D01*
X5176Y-57312D01*
X5345Y-57246D01*
X5465Y-57224D01*
X5530Y-57231D01*
X5591Y-57251D01*
X5706Y-57333D01*
X5788Y-57453D01*
X5809Y-57520D01*
X5816Y-57592D01*
X5800Y-57706D01*
X5754Y-57802D01*
X5658Y-57892D01*
X5492Y-57986D01*
X-7191Y-63898D01*
X-7355Y-63964D01*
X-7480Y-63986D01*
G37*
G36*
X-19015Y-51212D02*
X-19248Y-51190D01*
X-19464Y-51125D01*
X-19664Y-51015D01*
X-19847Y-50862D01*
X-20000Y-50678D01*
X-20110Y-50477D01*
X-20176Y-50258D01*
X-20197Y-50021D01*
X-20197Y-49706D01*
X-20176Y-49473D01*
X-20112Y-49256D01*
X-20005Y-49055D01*
X-19856Y-48869D01*
X-19674Y-48714D01*
X-19470Y-48603D01*
X-19245Y-48537D01*
X-18998Y-48515D01*
X-18765Y-48537D01*
X-18549Y-48602D01*
X-18349Y-48712D01*
X-18165Y-48865D01*
X-18012Y-49049D01*
X-17903Y-49250D01*
X-17837Y-49469D01*
X-17815Y-49706D01*
X-17815Y-50021D01*
X-17836Y-50254D01*
X-17901Y-50471D01*
X-18007Y-50672D01*
X-18157Y-50858D01*
X-18338Y-51013D01*
X-18542Y-51124D01*
X-18768Y-51190D01*
X-19015Y-51212D01*
G37*
G36*
X35Y24038D02*
X-198Y24060D01*
X-414Y24125D01*
X-614Y24235D01*
X-797Y24388D01*
X-950Y24572D01*
X-1060Y24773D01*
X-1126Y24992D01*
X-1147Y25229D01*
X-1147Y25544D01*
X-1126Y25777D01*
X-1062Y25994D01*
X-955Y26195D01*
X-806Y26381D01*
X-624Y26536D01*
X-420Y26647D01*
X-195Y26713D01*
X52Y26735D01*
X285Y26713D01*
X501Y26648D01*
X701Y26538D01*
X885Y26385D01*
X1038Y26201D01*
X1147Y26000D01*
X1213Y25781D01*
X1235Y25544D01*
X1235Y25229D01*
X1214Y24996D01*
X1150Y24779D01*
X1043Y24578D01*
X893Y24392D01*
X712Y24237D01*
X508Y24126D01*
X282Y24060D01*
X35Y24038D01*
G37*
G36*
X-24480Y-51212D02*
X-24717Y-51190D01*
X-24935Y-51125D01*
X-25135Y-51015D01*
X-25317Y-50862D01*
X-25468Y-50678D01*
X-25576Y-50477D01*
X-25641Y-50258D01*
X-25663Y-50021D01*
X-25663Y-49706D01*
X-25641Y-49473D01*
X-25577Y-49256D01*
X-25471Y-49055D01*
X-25321Y-48869D01*
X-25140Y-48714D01*
X-24938Y-48603D01*
X-24715Y-48537D01*
X-24472Y-48515D01*
X-24235Y-48537D01*
X-24017Y-48602D01*
X-23817Y-48712D01*
X-23635Y-48865D01*
X-23484Y-49049D01*
X-23376Y-49250D01*
X-23311Y-49469D01*
X-23289Y-49706D01*
X-23289Y-50021D01*
X-23311Y-50254D01*
X-23375Y-50471D01*
X-23481Y-50672D01*
X-23631Y-50858D01*
X-23812Y-51013D01*
X-24014Y-51124D01*
X-24237Y-51190D01*
X-24480Y-51212D01*
G37*
G36*
X-24480Y13288D02*
X-24717Y13310D01*
X-24935Y13375D01*
X-25135Y13485D01*
X-25317Y13638D01*
X-25468Y13822D01*
X-25576Y14023D01*
X-25641Y14242D01*
X-25663Y14479D01*
X-25663Y14794D01*
X-25641Y15027D01*
X-25577Y15244D01*
X-25471Y15445D01*
X-25321Y15631D01*
X-25140Y15786D01*
X-24938Y15897D01*
X-24715Y15963D01*
X-24472Y15985D01*
X-24235Y15963D01*
X-24017Y15898D01*
X-23817Y15788D01*
X-23635Y15635D01*
X-23484Y15451D01*
X-23376Y15250D01*
X-23311Y15031D01*
X-23289Y14794D01*
X-23289Y14479D01*
X-23311Y14246D01*
X-23375Y14029D01*
X-23481Y13828D01*
X-23631Y13642D01*
X-23812Y13487D01*
X-24014Y13376D01*
X-24237Y13310D01*
X-24480Y13288D01*
G37*
G36*
X-5430Y24038D02*
X-5667Y24060D01*
X-5885Y24125D01*
X-6085Y24235D01*
X-6267Y24388D01*
X-6418Y24572D01*
X-6526Y24773D01*
X-6591Y24992D01*
X-6613Y25229D01*
X-6613Y25544D01*
X-6591Y25777D01*
X-6527Y25994D01*
X-6421Y26195D01*
X-6271Y26381D01*
X-6090Y26536D01*
X-5888Y26647D01*
X-5665Y26713D01*
X-5422Y26735D01*
X-5185Y26713D01*
X-4967Y26648D01*
X-4767Y26538D01*
X-4585Y26385D01*
X-4434Y26201D01*
X-4326Y26000D01*
X-4261Y25781D01*
X-4239Y25544D01*
X-4239Y25229D01*
X-4261Y24996D01*
X-4325Y24779D01*
X-4431Y24578D01*
X-4581Y24392D01*
X-4762Y24237D01*
X-4964Y24126D01*
X-5187Y24060D01*
X-5430Y24038D01*
G37*
G36*
X-14040Y-7590D02*
X-15941Y-7590D01*
X-15941Y-6504D01*
X-14040Y-6504D01*
X-14040Y-7590D01*
G37*
D10*
X74401Y-71649D02*
X74313Y-71564D01*
X74223Y-71482D01*
X74130Y-71403D01*
X74034Y-71327D01*
X73937Y-71253D01*
X73836Y-71184D01*
X73734Y-71117D01*
X73630Y-71054D01*
X73523Y-70994D01*
X73415Y-70937D01*
X73305Y-70884D01*
X73193Y-70835D01*
X73080Y-70789D01*
X72965Y-70747D01*
X72849Y-70708D01*
X72732Y-70674D01*
X72614Y-70643D01*
X72495Y-70615D01*
X72375Y-70592D01*
X72255Y-70573D01*
X72134Y-70557D01*
X72012Y-70545D01*
X71890Y-70537D01*
X71768Y-70533D01*
X71646Y-70533D01*
X71524Y-70537D01*
X71402Y-70545D01*
X71280Y-70557D01*
X71159Y-70573D01*
X71039Y-70592D01*
X70919Y-70615D01*
X70800Y-70643D01*
X70682Y-70674D01*
X70565Y-70708D01*
X70449Y-70747D01*
X70334Y-70789D01*
X70221Y-70835D01*
X70109Y-70884D01*
X69999Y-70937D01*
X69891Y-70994D01*
X69784Y-71054D01*
X69680Y-71117D01*
X69578Y-71184D01*
X69477Y-71253D01*
X69380Y-71327D01*
X69284Y-71403D01*
X69191Y-71482D01*
X69101Y-71564D01*
X69013Y-71649D01*
X68928Y-71737D01*
X68846Y-71827D01*
X68767Y-71920D01*
X68691Y-72016D01*
X68617Y-72113D01*
X68548Y-72214D01*
X68481Y-72316D01*
X68418Y-72420D01*
X68358Y-72527D01*
X68301Y-72635D01*
X68248Y-72745D01*
X68199Y-72857D01*
X68153Y-72970D01*
X68111Y-73085D01*
X68072Y-73201D01*
X68038Y-73318D01*
X68007Y-73436D01*
X67979Y-73555D01*
X67956Y-73675D01*
X67937Y-73795D01*
X67921Y-73916D01*
X67909Y-74038D01*
X67901Y-74160D01*
X67897Y-74282D01*
X67897Y-74404D01*
X67901Y-74526D01*
X67909Y-74648D01*
X67921Y-74770D01*
X67937Y-74891D01*
X67956Y-75011D01*
X67979Y-75131D01*
X68007Y-75250D01*
X68038Y-75368D01*
X68072Y-75485D01*
X68111Y-75601D01*
X68153Y-75716D01*
X68199Y-75829D01*
X68248Y-75941D01*
X68301Y-76051D01*
X68358Y-76159D01*
X68418Y-76266D01*
X68481Y-76370D01*
X68548Y-76472D01*
X68617Y-76573D01*
X68691Y-76670D01*
X68767Y-76766D01*
X68846Y-76859D01*
X68928Y-76949D01*
X69013Y-77037D01*
X69101Y-77122D01*
X69191Y-77204D01*
X69284Y-77283D01*
X69380Y-77359D01*
X69477Y-77433D01*
X69578Y-77502D01*
X69680Y-77569D01*
X69784Y-77632D01*
X69891Y-77692D01*
X69999Y-77749D01*
X70109Y-77802D01*
X70221Y-77851D01*
X70334Y-77897D01*
X70449Y-77939D01*
X70565Y-77978D01*
X70682Y-78012D01*
X70800Y-78043D01*
X70919Y-78071D01*
X71039Y-78094D01*
X71159Y-78113D01*
X71280Y-78129D01*
X71402Y-78141D01*
X71524Y-78149D01*
X71646Y-78153D01*
X71768Y-78153D01*
X71890Y-78149D01*
X72012Y-78141D01*
X72134Y-78129D01*
X72255Y-78113D01*
X72375Y-78094D01*
X72495Y-78071D01*
X72614Y-78043D01*
X72732Y-78012D01*
X72849Y-77978D01*
X72965Y-77939D01*
X73080Y-77897D01*
X73193Y-77851D01*
X73305Y-77802D01*
X73415Y-77749D01*
X73523Y-77692D01*
X73630Y-77632D01*
X73734Y-77569D01*
X73836Y-77502D01*
X73937Y-77433D01*
X74034Y-77359D01*
X74130Y-77283D01*
X74223Y-77204D01*
X74313Y-77122D01*
X74401Y-77037D01*
X74486Y-76949D01*
X74568Y-76859D01*
X74647Y-76766D01*
X74723Y-76670D01*
X74797Y-76573D01*
X74866Y-76472D01*
X74933Y-76370D01*
X74996Y-76266D01*
X75056Y-76159D01*
X75113Y-76051D01*
X75166Y-75941D01*
X75215Y-75829D01*
X75261Y-75716D01*
X75303Y-75601D01*
X75342Y-75485D01*
X75376Y-75368D01*
X75407Y-75250D01*
X75435Y-75131D01*
X75458Y-75011D01*
X75477Y-74891D01*
X75493Y-74770D01*
X75505Y-74648D01*
X75513Y-74526D01*
X75517Y-74404D01*
X75517Y-74282D01*
X75513Y-74160D01*
X75505Y-74038D01*
X75493Y-73916D01*
X75477Y-73795D01*
X75458Y-73675D01*
X75435Y-73555D01*
X75407Y-73436D01*
X75376Y-73318D01*
X75342Y-73201D01*
X75303Y-73085D01*
X75261Y-72970D01*
X75215Y-72857D01*
X75166Y-72745D01*
X75113Y-72635D01*
X75056Y-72527D01*
X74996Y-72420D01*
X74933Y-72316D01*
X74866Y-72214D01*
X74797Y-72113D01*
X74723Y-72016D01*
X74647Y-71920D01*
X74568Y-71827D01*
X74486Y-71737D01*
X74401Y-71649D01*
X-69013Y77037D02*
X-68928Y76949D01*
X-68846Y76859D01*
X-68767Y76766D01*
X-68691Y76670D01*
X-68617Y76573D01*
X-68548Y76472D01*
X-68481Y76370D01*
X-68418Y76266D01*
X-68358Y76159D01*
X-68301Y76051D01*
X-68248Y75941D01*
X-68199Y75829D01*
X-68153Y75716D01*
X-68111Y75601D01*
X-68072Y75485D01*
X-68038Y75368D01*
X-68007Y75250D01*
X-67979Y75131D01*
X-67956Y75011D01*
X-67937Y74891D01*
X-67921Y74770D01*
X-67909Y74648D01*
X-67901Y74526D01*
X-67897Y74404D01*
X-67897Y74282D01*
X-67901Y74160D01*
X-67909Y74038D01*
X-67921Y73916D01*
X-67937Y73795D01*
X-67956Y73675D01*
X-67979Y73555D01*
X-68007Y73436D01*
X-68038Y73318D01*
X-68072Y73201D01*
X-68111Y73085D01*
X-68153Y72970D01*
X-68199Y72857D01*
X-68248Y72745D01*
X-68301Y72635D01*
X-68358Y72527D01*
X-68418Y72420D01*
X-68481Y72316D01*
X-68548Y72214D01*
X-68617Y72113D01*
X-68691Y72016D01*
X-68767Y71920D01*
X-68846Y71827D01*
X-68928Y71737D01*
X-69013Y71649D01*
X-69101Y71564D01*
X-69191Y71482D01*
X-69284Y71403D01*
X-69380Y71327D01*
X-69477Y71253D01*
X-69578Y71184D01*
X-69680Y71117D01*
X-69784Y71054D01*
X-69891Y70994D01*
X-69999Y70937D01*
X-70109Y70884D01*
X-70221Y70835D01*
X-70334Y70789D01*
X-70449Y70747D01*
X-70565Y70708D01*
X-70682Y70674D01*
X-70800Y70643D01*
X-70919Y70615D01*
X-71039Y70592D01*
X-71159Y70573D01*
X-71280Y70557D01*
X-71402Y70545D01*
X-71524Y70537D01*
X-71646Y70533D01*
X-71768Y70533D01*
X-71890Y70537D01*
X-72012Y70545D01*
X-72134Y70557D01*
X-72255Y70573D01*
X-72375Y70592D01*
X-72495Y70615D01*
X-72614Y70643D01*
X-72732Y70674D01*
X-72849Y70708D01*
X-72965Y70747D01*
X-73080Y70789D01*
X-73193Y70835D01*
X-73305Y70884D01*
X-73415Y70937D01*
X-73523Y70994D01*
X-73630Y71054D01*
X-73734Y71117D01*
X-73836Y71184D01*
X-73937Y71253D01*
X-74034Y71327D01*
X-74130Y71403D01*
X-74223Y71482D01*
X-74313Y71564D01*
X-74401Y71649D01*
X-74486Y71737D01*
X-74568Y71827D01*
X-74647Y71920D01*
X-74723Y72016D01*
X-74797Y72113D01*
X-74866Y72214D01*
X-74933Y72316D01*
X-74996Y72420D01*
X-75056Y72527D01*
X-75113Y72635D01*
X-75166Y72745D01*
X-75215Y72857D01*
X-75261Y72970D01*
X-75303Y73085D01*
X-75342Y73201D01*
X-75376Y73318D01*
X-75407Y73436D01*
X-75435Y73555D01*
X-75458Y73675D01*
X-75477Y73795D01*
X-75493Y73916D01*
X-75505Y74038D01*
X-75513Y74160D01*
X-75517Y74282D01*
X-75517Y74404D01*
X-75513Y74526D01*
X-75505Y74648D01*
X-75493Y74770D01*
X-75477Y74891D01*
X-75458Y75011D01*
X-75435Y75131D01*
X-75407Y75250D01*
X-75376Y75368D01*
X-75342Y75485D01*
X-75303Y75601D01*
X-75261Y75716D01*
X-75215Y75829D01*
X-75166Y75941D01*
X-75113Y76051D01*
X-75056Y76159D01*
X-74996Y76266D01*
X-74933Y76370D01*
X-74866Y76472D01*
X-74797Y76573D01*
X-74723Y76670D01*
X-74647Y76766D01*
X-74568Y76859D01*
X-74486Y76949D01*
X-74401Y77037D01*
X-74313Y77122D01*
X-74223Y77204D01*
X-74130Y77283D01*
X-74034Y77359D01*
X-73937Y77433D01*
X-73836Y77502D01*
X-73734Y77569D01*
X-73630Y77632D01*
X-73523Y77692D01*
X-73415Y77749D01*
X-73305Y77802D01*
X-73193Y77851D01*
X-73080Y77897D01*
X-72965Y77939D01*
X-72849Y77978D01*
X-72732Y78012D01*
X-72614Y78043D01*
X-72495Y78071D01*
X-72375Y78094D01*
X-72255Y78113D01*
X-72134Y78129D01*
X-72012Y78141D01*
X-71890Y78149D01*
X-71768Y78153D01*
X-71646Y78153D01*
X-71524Y78149D01*
X-71402Y78141D01*
X-71280Y78129D01*
X-71159Y78113D01*
X-71039Y78094D01*
X-70919Y78071D01*
X-70800Y78043D01*
X-70682Y78012D01*
X-70565Y77978D01*
X-70449Y77939D01*
X-70334Y77897D01*
X-70221Y77851D01*
X-70109Y77802D01*
X-69999Y77749D01*
X-69891Y77692D01*
X-69784Y77632D01*
X-69680Y77569D01*
X-69578Y77502D01*
X-69477Y77433D01*
X-69380Y77359D01*
X-69284Y77283D01*
X-69191Y77204D01*
X-69101Y77122D01*
X-69013Y77037D01*
M02*
