G04 EAGLE Gerber RS-274X export*
G75*
%MOMM*%
%FSLAX34Y34*%
%LPD*%
%INSilkscreen Top*%
%IPPOS*%
%AMOC8*
5,1,8,0,0,1.08239X$1,22.5*%
G01*
G04 Define Apertures*
%ADD10C,0.152400*%
%ADD11C,0.508000*%
%ADD12C,0.203200*%
G36*
X-20466Y-186055D02*
X-55142Y-186055D01*
X-70310Y-158744D01*
X-55142Y-131432D01*
X-20466Y-131432D01*
X-5298Y-158744D01*
X-20466Y-186055D01*
G37*
%LPC*%
G36*
X-23666Y-180751D02*
X-11479Y-158744D01*
X-23666Y-136737D01*
X-51942Y-136737D01*
X-64217Y-158744D01*
X-51942Y-180751D01*
X-23666Y-180751D01*
G37*
%LPD*%
G36*
X-47593Y-127000D02*
X-49082Y-127000D01*
X-49082Y-114659D01*
X-46883Y-114659D01*
X-43599Y-123216D01*
X-43427Y-123752D01*
X-43262Y-124324D01*
X-43047Y-125178D01*
X-42939Y-124737D01*
X-42754Y-124114D01*
X-42566Y-123533D01*
X-42452Y-123216D01*
X-39228Y-114659D01*
X-37083Y-114659D01*
X-37083Y-127000D01*
X-38589Y-127000D01*
X-38589Y-118767D01*
X-38569Y-117427D01*
X-38510Y-116139D01*
X-38917Y-117536D01*
X-39105Y-118107D01*
X-39281Y-118592D01*
X-42469Y-127000D01*
X-43643Y-127000D01*
X-46875Y-118592D01*
X-47365Y-117103D01*
X-47654Y-116139D01*
X-47628Y-117112D01*
X-47593Y-118767D01*
X-47593Y-127000D01*
G37*
G36*
X-30615Y-127175D02*
X-31071Y-127162D01*
X-31504Y-127122D01*
X-31914Y-127056D01*
X-32299Y-126964D01*
X-32661Y-126845D01*
X-33000Y-126700D01*
X-33315Y-126528D01*
X-33606Y-126330D01*
X-33871Y-126106D01*
X-34107Y-125857D01*
X-34316Y-125582D01*
X-34496Y-125282D01*
X-34647Y-124957D01*
X-34771Y-124606D01*
X-34866Y-124231D01*
X-34932Y-123829D01*
X-33303Y-123681D01*
X-33256Y-123946D01*
X-33192Y-124194D01*
X-33113Y-124425D01*
X-33017Y-124639D01*
X-32905Y-124835D01*
X-32777Y-125015D01*
X-32634Y-125177D01*
X-32474Y-125323D01*
X-32297Y-125451D01*
X-32105Y-125562D01*
X-31897Y-125656D01*
X-31673Y-125733D01*
X-31432Y-125793D01*
X-31176Y-125836D01*
X-30903Y-125862D01*
X-30615Y-125870D01*
X-30325Y-125861D01*
X-30051Y-125834D01*
X-29793Y-125788D01*
X-29551Y-125723D01*
X-29326Y-125641D01*
X-29116Y-125540D01*
X-28922Y-125421D01*
X-28745Y-125283D01*
X-28585Y-125128D01*
X-28448Y-124954D01*
X-28331Y-124763D01*
X-28235Y-124554D01*
X-28161Y-124327D01*
X-28108Y-124083D01*
X-28076Y-123821D01*
X-28066Y-123540D01*
X-28078Y-123296D01*
X-28114Y-123064D01*
X-28175Y-122847D01*
X-28260Y-122644D01*
X-28369Y-122454D01*
X-28502Y-122278D01*
X-28659Y-122116D01*
X-28841Y-121968D01*
X-29045Y-121836D01*
X-29271Y-121721D01*
X-29519Y-121624D01*
X-29788Y-121545D01*
X-30078Y-121483D01*
X-30390Y-121439D01*
X-30724Y-121412D01*
X-31079Y-121403D01*
X-31972Y-121403D01*
X-31972Y-120037D01*
X-31114Y-120037D01*
X-30799Y-120028D01*
X-30502Y-120002D01*
X-30223Y-119958D01*
X-29963Y-119896D01*
X-29721Y-119816D01*
X-29497Y-119719D01*
X-29291Y-119604D01*
X-29104Y-119472D01*
X-28936Y-119324D01*
X-28791Y-119163D01*
X-28669Y-118987D01*
X-28568Y-118799D01*
X-28490Y-118597D01*
X-28434Y-118381D01*
X-28401Y-118152D01*
X-28390Y-117909D01*
X-28399Y-117668D01*
X-28426Y-117440D01*
X-28472Y-117225D01*
X-28535Y-117023D01*
X-28617Y-116834D01*
X-28717Y-116658D01*
X-28836Y-116495D01*
X-28972Y-116345D01*
X-29127Y-116211D01*
X-29299Y-116094D01*
X-29489Y-115996D01*
X-29696Y-115915D01*
X-29921Y-115852D01*
X-30164Y-115807D01*
X-30424Y-115781D01*
X-30702Y-115772D01*
X-30956Y-115780D01*
X-31198Y-115805D01*
X-31428Y-115847D01*
X-31645Y-115905D01*
X-31849Y-115980D01*
X-32041Y-116072D01*
X-32221Y-116181D01*
X-32388Y-116306D01*
X-32541Y-116446D01*
X-32676Y-116600D01*
X-32795Y-116768D01*
X-32897Y-116950D01*
X-32982Y-117145D01*
X-33051Y-117354D01*
X-33102Y-117576D01*
X-33137Y-117812D01*
X-34722Y-117690D01*
X-34664Y-117321D01*
X-34578Y-116974D01*
X-34463Y-116647D01*
X-34320Y-116341D01*
X-34149Y-116056D01*
X-33950Y-115791D01*
X-33722Y-115548D01*
X-33465Y-115325D01*
X-33185Y-115126D01*
X-32886Y-114953D01*
X-32567Y-114807D01*
X-32229Y-114688D01*
X-31872Y-114595D01*
X-31496Y-114528D01*
X-31100Y-114489D01*
X-30685Y-114475D01*
X-30233Y-114489D01*
X-29808Y-114529D01*
X-29408Y-114597D01*
X-29035Y-114691D01*
X-28687Y-114812D01*
X-28365Y-114961D01*
X-28069Y-115136D01*
X-27799Y-115338D01*
X-27557Y-115564D01*
X-27348Y-115812D01*
X-27172Y-116081D01*
X-27027Y-116370D01*
X-26914Y-116682D01*
X-26834Y-117014D01*
X-26786Y-117367D01*
X-26770Y-117742D01*
X-26780Y-118031D01*
X-26811Y-118306D01*
X-26863Y-118567D01*
X-26935Y-118814D01*
X-27028Y-119047D01*
X-27141Y-119267D01*
X-27276Y-119473D01*
X-27431Y-119665D01*
X-27605Y-119842D01*
X-27799Y-120005D01*
X-28011Y-120153D01*
X-28242Y-120286D01*
X-28492Y-120403D01*
X-28760Y-120506D01*
X-29047Y-120594D01*
X-29353Y-120668D01*
X-29353Y-120703D01*
X-29017Y-120750D01*
X-28700Y-120816D01*
X-28402Y-120903D01*
X-28123Y-121009D01*
X-27863Y-121135D01*
X-27622Y-121281D01*
X-27401Y-121446D01*
X-27199Y-121631D01*
X-27018Y-121832D01*
X-26861Y-122046D01*
X-26729Y-122272D01*
X-26621Y-122511D01*
X-26536Y-122763D01*
X-26476Y-123027D01*
X-26440Y-123304D01*
X-26428Y-123593D01*
X-26445Y-124008D01*
X-26496Y-124399D01*
X-26581Y-124766D01*
X-26699Y-125108D01*
X-26852Y-125427D01*
X-27039Y-125721D01*
X-27259Y-125992D01*
X-27514Y-126238D01*
X-27800Y-126458D01*
X-28115Y-126648D01*
X-28459Y-126809D01*
X-28832Y-126941D01*
X-29234Y-127043D01*
X-29665Y-127117D01*
X-30125Y-127161D01*
X-30615Y-127175D01*
G37*
G36*
X55734Y131445D02*
X21058Y131445D01*
X5890Y158756D01*
X21058Y186068D01*
X55734Y186068D01*
X70902Y158756D01*
X55734Y131445D01*
G37*
%LPC*%
G36*
X52534Y136749D02*
X64721Y158756D01*
X52534Y180763D01*
X24258Y180763D01*
X11983Y158756D01*
X24258Y136749D01*
X52534Y136749D01*
G37*
%LPD*%
G36*
X28607Y114300D02*
X27118Y114300D01*
X27118Y126641D01*
X29317Y126641D01*
X32601Y118084D01*
X32773Y117548D01*
X32938Y116976D01*
X33153Y116122D01*
X33261Y116563D01*
X33446Y117186D01*
X33634Y117767D01*
X33749Y118084D01*
X36972Y126641D01*
X39118Y126641D01*
X39118Y114300D01*
X37611Y114300D01*
X37611Y122533D01*
X37631Y123873D01*
X37690Y125161D01*
X37283Y123764D01*
X37095Y123193D01*
X36919Y122708D01*
X33731Y114300D01*
X32557Y114300D01*
X29325Y122708D01*
X28835Y124197D01*
X28546Y125161D01*
X28572Y124188D01*
X28607Y122533D01*
X28607Y114300D01*
G37*
G36*
X45586Y114125D02*
X45129Y114138D01*
X44696Y114178D01*
X44286Y114244D01*
X43901Y114336D01*
X43539Y114455D01*
X43200Y114600D01*
X42885Y114772D01*
X42594Y114970D01*
X42329Y115194D01*
X42093Y115443D01*
X41884Y115718D01*
X41704Y116018D01*
X41553Y116343D01*
X41429Y116694D01*
X41334Y117069D01*
X41268Y117471D01*
X42897Y117619D01*
X42944Y117354D01*
X43008Y117106D01*
X43087Y116875D01*
X43183Y116662D01*
X43295Y116465D01*
X43423Y116285D01*
X43566Y116123D01*
X43727Y115977D01*
X43903Y115849D01*
X44095Y115738D01*
X44303Y115644D01*
X44527Y115567D01*
X44768Y115507D01*
X45024Y115464D01*
X45297Y115438D01*
X45586Y115430D01*
X45875Y115439D01*
X46149Y115467D01*
X46407Y115512D01*
X46649Y115577D01*
X46874Y115659D01*
X47084Y115760D01*
X47278Y115879D01*
X47455Y116017D01*
X47615Y116172D01*
X47752Y116346D01*
X47869Y116537D01*
X47965Y116746D01*
X48039Y116973D01*
X48092Y117217D01*
X48124Y117479D01*
X48134Y117760D01*
X48122Y118005D01*
X48086Y118236D01*
X48025Y118453D01*
X47940Y118656D01*
X47831Y118846D01*
X47698Y119022D01*
X47541Y119184D01*
X47359Y119332D01*
X47155Y119464D01*
X46929Y119579D01*
X46681Y119676D01*
X46412Y119755D01*
X46122Y119817D01*
X45810Y119861D01*
X45476Y119888D01*
X45121Y119897D01*
X44228Y119897D01*
X44228Y121263D01*
X45086Y121263D01*
X45401Y121272D01*
X45698Y121298D01*
X45977Y121342D01*
X46237Y121404D01*
X46479Y121484D01*
X46703Y121581D01*
X46909Y121696D01*
X47096Y121828D01*
X47264Y121976D01*
X47409Y122138D01*
X47531Y122313D01*
X47632Y122501D01*
X47710Y122703D01*
X47766Y122919D01*
X47799Y123149D01*
X47810Y123391D01*
X47801Y123632D01*
X47774Y123860D01*
X47728Y124075D01*
X47665Y124277D01*
X47583Y124466D01*
X47483Y124642D01*
X47364Y124805D01*
X47228Y124955D01*
X47073Y125089D01*
X46901Y125206D01*
X46711Y125304D01*
X46504Y125385D01*
X46279Y125448D01*
X46036Y125493D01*
X45776Y125519D01*
X45498Y125528D01*
X45244Y125520D01*
X45002Y125495D01*
X44772Y125453D01*
X44555Y125395D01*
X44351Y125320D01*
X44159Y125228D01*
X43979Y125119D01*
X43812Y124994D01*
X43659Y124854D01*
X43524Y124700D01*
X43405Y124532D01*
X43303Y124350D01*
X43218Y124155D01*
X43149Y123946D01*
X43098Y123724D01*
X43063Y123488D01*
X41478Y123610D01*
X41536Y123979D01*
X41622Y124326D01*
X41737Y124653D01*
X41880Y124959D01*
X42051Y125244D01*
X42250Y125509D01*
X42478Y125752D01*
X42735Y125975D01*
X43015Y126174D01*
X43314Y126347D01*
X43633Y126493D01*
X43971Y126612D01*
X44328Y126705D01*
X44704Y126772D01*
X45100Y126811D01*
X45515Y126825D01*
X45967Y126811D01*
X46392Y126771D01*
X46792Y126703D01*
X47165Y126609D01*
X47513Y126488D01*
X47835Y126339D01*
X48131Y126164D01*
X48401Y125962D01*
X48643Y125736D01*
X48852Y125488D01*
X49029Y125220D01*
X49173Y124930D01*
X49286Y124618D01*
X49366Y124286D01*
X49414Y123933D01*
X49431Y123558D01*
X49420Y123269D01*
X49389Y122994D01*
X49338Y122733D01*
X49265Y122486D01*
X49172Y122253D01*
X49059Y122033D01*
X48924Y121827D01*
X48769Y121635D01*
X48595Y121458D01*
X48401Y121295D01*
X48189Y121147D01*
X47958Y121015D01*
X47708Y120897D01*
X47440Y120794D01*
X47153Y120706D01*
X46847Y120632D01*
X46847Y120597D01*
X47183Y120550D01*
X47500Y120484D01*
X47798Y120397D01*
X48077Y120291D01*
X48337Y120165D01*
X48578Y120019D01*
X48799Y119854D01*
X49001Y119669D01*
X49182Y119468D01*
X49339Y119254D01*
X49471Y119028D01*
X49579Y118789D01*
X49664Y118537D01*
X49724Y118273D01*
X49760Y117996D01*
X49772Y117707D01*
X49755Y117292D01*
X49704Y116901D01*
X49619Y116535D01*
X49501Y116192D01*
X49348Y115873D01*
X49161Y115579D01*
X48941Y115308D01*
X48686Y115062D01*
X48400Y114842D01*
X48085Y114652D01*
X47741Y114491D01*
X47368Y114359D01*
X46966Y114257D01*
X46535Y114183D01*
X46075Y114140D01*
X45586Y114125D01*
G37*
G36*
X-31545Y-53386D02*
X-52300Y-53386D01*
X-57489Y-48196D01*
X-40380Y-48196D01*
X-70076Y-18497D01*
X-66395Y-14815D01*
X-36733Y-44515D01*
X-36733Y-27403D01*
X-31545Y-32593D01*
X-31545Y-53386D01*
G37*
G36*
X70055Y22814D02*
X49300Y22814D01*
X44111Y28004D01*
X61220Y28004D01*
X31524Y57703D01*
X35205Y61385D01*
X64867Y31685D01*
X64867Y48797D01*
X70055Y43607D01*
X70055Y22814D01*
G37*
G36*
X-18208Y-71728D02*
X-26934Y-63002D01*
X-25559Y-61627D01*
X-13358Y-64389D01*
X-14461Y-63398D01*
X-15192Y-62705D01*
X-20914Y-56982D01*
X-19849Y-55917D01*
X-11123Y-64643D01*
X-12547Y-66068D01*
X-24649Y-63305D01*
X-24017Y-63875D01*
X-22952Y-64879D01*
X-17155Y-70675D01*
X-18208Y-71728D01*
G37*
G36*
X-21591Y-75112D02*
X-30317Y-66385D01*
X-29134Y-65202D01*
X-20408Y-73929D01*
X-21591Y-75112D01*
G37*
G36*
X12666Y50401D02*
X12282Y50427D01*
X11898Y50482D01*
X11513Y50567D01*
X11127Y50681D01*
X10743Y50824D01*
X10365Y50993D01*
X9992Y51190D01*
X9624Y51413D01*
X9262Y51663D01*
X8905Y51939D01*
X8553Y52243D01*
X8207Y52573D01*
X7953Y52836D01*
X7715Y53100D01*
X7494Y53366D01*
X7289Y53634D01*
X7099Y53904D01*
X6926Y54176D01*
X6769Y54449D01*
X6628Y54725D01*
X6503Y55002D01*
X6394Y55281D01*
X6302Y55561D01*
X6225Y55844D01*
X6120Y56414D01*
X6079Y56992D01*
X6103Y57569D01*
X6139Y57854D01*
X6192Y58137D01*
X6261Y58418D01*
X6346Y58697D01*
X6447Y58973D01*
X6565Y59247D01*
X6698Y59519D01*
X6848Y59789D01*
X7014Y60057D01*
X7197Y60322D01*
X7395Y60585D01*
X7610Y60846D01*
X7842Y61105D01*
X8089Y61361D01*
X8425Y61681D01*
X8766Y61972D01*
X9112Y62236D01*
X9465Y62472D01*
X9822Y62681D01*
X10185Y62862D01*
X10554Y63016D01*
X10928Y63142D01*
X11306Y63240D01*
X11684Y63308D01*
X12062Y63346D01*
X12441Y63356D01*
X12821Y63336D01*
X13201Y63286D01*
X13582Y63207D01*
X13963Y63099D01*
X14342Y62962D01*
X14717Y62797D01*
X15087Y62605D01*
X15452Y62386D01*
X15812Y62138D01*
X16168Y61864D01*
X16519Y61561D01*
X16865Y61231D01*
X17193Y60886D01*
X17495Y60536D01*
X17770Y60179D01*
X18017Y59817D01*
X18238Y59449D01*
X18432Y59076D01*
X18598Y58696D01*
X18738Y58311D01*
X18850Y57924D01*
X18932Y57537D01*
X18986Y57151D01*
X19010Y56765D01*
X19005Y56380D01*
X18971Y55996D01*
X18908Y55613D01*
X18816Y55230D01*
X18695Y54851D01*
X18545Y54478D01*
X18368Y54111D01*
X18162Y53750D01*
X17928Y53395D01*
X17666Y53047D01*
X17375Y52705D01*
X17057Y52369D01*
X16718Y52047D01*
X16374Y51754D01*
X16024Y51489D01*
X15669Y51253D01*
X15308Y51046D01*
X14941Y50867D01*
X14570Y50716D01*
X14192Y50595D01*
X13812Y50502D01*
X13431Y50439D01*
X13048Y50405D01*
X12666Y50401D01*
G37*
%LPC*%
G36*
X13281Y51988D02*
X13714Y52029D01*
X14136Y52121D01*
X14548Y52262D01*
X14951Y52454D01*
X15343Y52695D01*
X15725Y52987D01*
X16097Y53329D01*
X16449Y53710D01*
X16750Y54099D01*
X17000Y54494D01*
X17199Y54897D01*
X17347Y55307D01*
X17444Y55724D01*
X17489Y56149D01*
X17484Y56580D01*
X17428Y57015D01*
X17323Y57448D01*
X17169Y57880D01*
X16965Y58311D01*
X16712Y58741D01*
X16410Y59170D01*
X16058Y59597D01*
X15657Y60024D01*
X15248Y60407D01*
X14835Y60743D01*
X14419Y61032D01*
X14000Y61274D01*
X13576Y61468D01*
X13149Y61615D01*
X12719Y61715D01*
X12285Y61767D01*
X11853Y61771D01*
X11429Y61724D01*
X11013Y61628D01*
X10606Y61481D01*
X10206Y61285D01*
X9814Y61038D01*
X9431Y60742D01*
X9055Y60395D01*
X8705Y60017D01*
X8405Y59631D01*
X8156Y59238D01*
X7956Y58838D01*
X7806Y58430D01*
X7706Y58015D01*
X7656Y57592D01*
X7655Y57162D01*
X7704Y56730D01*
X7802Y56300D01*
X7948Y55873D01*
X8143Y55448D01*
X8386Y55026D01*
X8678Y54607D01*
X9019Y54189D01*
X9408Y53775D01*
X9821Y53388D01*
X10238Y53048D01*
X10660Y52755D01*
X11086Y52510D01*
X11518Y52311D01*
X11953Y52159D01*
X12394Y52055D01*
X12839Y51997D01*
X13281Y51988D01*
G37*
%LPD*%
G36*
X22771Y60115D02*
X22475Y60135D01*
X22179Y60178D01*
X21883Y60242D01*
X21590Y60330D01*
X21301Y60439D01*
X21018Y60572D01*
X20739Y60727D01*
X20465Y60905D01*
X20196Y61105D01*
X19932Y61328D01*
X19672Y61574D01*
X14117Y67129D01*
X15300Y68312D01*
X20756Y62856D01*
X21055Y62576D01*
X21355Y62332D01*
X21657Y62126D01*
X21959Y61956D01*
X22262Y61824D01*
X22566Y61728D01*
X22871Y61670D01*
X23177Y61648D01*
X23483Y61663D01*
X23786Y61714D01*
X24086Y61802D01*
X24384Y61925D01*
X24679Y62085D01*
X24972Y62281D01*
X25262Y62513D01*
X25549Y62782D01*
X25825Y63078D01*
X26065Y63377D01*
X26268Y63681D01*
X26435Y63988D01*
X26566Y64298D01*
X26660Y64613D01*
X26717Y64931D01*
X26739Y65253D01*
X26722Y65575D01*
X26667Y65896D01*
X26573Y66215D01*
X26440Y66532D01*
X26268Y66846D01*
X26057Y67159D01*
X25807Y67470D01*
X25518Y67780D01*
X20143Y73155D01*
X21319Y74332D01*
X26763Y68888D01*
X27016Y68621D01*
X27247Y68349D01*
X27454Y68072D01*
X27637Y67790D01*
X27798Y67503D01*
X27936Y67211D01*
X28050Y66914D01*
X28141Y66612D01*
X28210Y66308D01*
X28255Y66003D01*
X28277Y65698D01*
X28277Y65393D01*
X28253Y65087D01*
X28207Y64781D01*
X28138Y64475D01*
X28045Y64169D01*
X27931Y63864D01*
X27794Y63563D01*
X27636Y63265D01*
X27455Y62971D01*
X27253Y62680D01*
X27029Y62392D01*
X26783Y62108D01*
X26516Y61828D01*
X26246Y61570D01*
X25972Y61334D01*
X25695Y61117D01*
X25415Y60922D01*
X25130Y60747D01*
X24842Y60593D01*
X24550Y60460D01*
X24255Y60348D01*
X23958Y60257D01*
X23661Y60188D01*
X23364Y60141D01*
X23067Y60117D01*
X22771Y60115D01*
G37*
G36*
X34317Y69877D02*
X26557Y77637D01*
X23560Y74640D01*
X22593Y75606D01*
X29765Y82778D01*
X30731Y81811D01*
X27734Y78814D01*
X35494Y71054D01*
X34317Y69877D01*
G37*
G36*
X54400Y-220952D02*
X49784Y-220952D01*
X49784Y-208611D01*
X53865Y-208611D01*
X54252Y-208617D01*
X54627Y-208636D01*
X54991Y-208667D01*
X55344Y-208710D01*
X55685Y-208765D01*
X56016Y-208832D01*
X56335Y-208912D01*
X56643Y-209004D01*
X56940Y-209109D01*
X57225Y-209225D01*
X57500Y-209354D01*
X57763Y-209496D01*
X58015Y-209649D01*
X58256Y-209815D01*
X58486Y-209993D01*
X58705Y-210183D01*
X58911Y-210385D01*
X59104Y-210597D01*
X59283Y-210820D01*
X59450Y-211052D01*
X59603Y-211296D01*
X59743Y-211549D01*
X59869Y-211813D01*
X59982Y-212087D01*
X60082Y-212372D01*
X60168Y-212667D01*
X60242Y-212972D01*
X60302Y-213288D01*
X60348Y-213614D01*
X60381Y-213951D01*
X60401Y-214297D01*
X60408Y-214655D01*
X60396Y-215125D01*
X60362Y-215579D01*
X60303Y-216020D01*
X60222Y-216445D01*
X60117Y-216855D01*
X59989Y-217250D01*
X59838Y-217631D01*
X59664Y-217996D01*
X59468Y-218344D01*
X59252Y-218670D01*
X59018Y-218976D01*
X58764Y-219261D01*
X58490Y-219524D01*
X58197Y-219767D01*
X57885Y-219989D01*
X57553Y-220190D01*
X57205Y-220369D01*
X56843Y-220523D01*
X56469Y-220654D01*
X56081Y-220762D01*
X55681Y-220845D01*
X55267Y-220904D01*
X54840Y-220940D01*
X54400Y-220952D01*
G37*
%LPC*%
G36*
X54207Y-219612D02*
X54541Y-219603D01*
X54865Y-219575D01*
X55179Y-219528D01*
X55482Y-219463D01*
X55776Y-219379D01*
X56059Y-219277D01*
X56331Y-219156D01*
X56594Y-219016D01*
X56844Y-218859D01*
X57078Y-218686D01*
X57298Y-218496D01*
X57503Y-218289D01*
X57694Y-218067D01*
X57869Y-217827D01*
X58029Y-217572D01*
X58175Y-217300D01*
X58304Y-217013D01*
X58416Y-216714D01*
X58511Y-216402D01*
X58588Y-216078D01*
X58649Y-215741D01*
X58692Y-215391D01*
X58718Y-215029D01*
X58726Y-214655D01*
X58707Y-214098D01*
X58648Y-213575D01*
X58550Y-213087D01*
X58412Y-212633D01*
X58235Y-212212D01*
X58019Y-211826D01*
X57764Y-211474D01*
X57470Y-211156D01*
X57138Y-210873D01*
X56771Y-210629D01*
X56369Y-210422D01*
X55931Y-210252D01*
X55459Y-210121D01*
X54951Y-210027D01*
X54408Y-209970D01*
X53830Y-209951D01*
X51457Y-209951D01*
X51457Y-219612D01*
X54207Y-219612D01*
G37*
%LPD*%
G36*
X47537Y-220952D02*
X37815Y-220952D01*
X37815Y-208611D01*
X47178Y-208611D01*
X47178Y-209978D01*
X39488Y-209978D01*
X39488Y-213936D01*
X46653Y-213936D01*
X46653Y-215285D01*
X39488Y-215285D01*
X39488Y-219586D01*
X47537Y-219586D01*
X47537Y-220952D01*
G37*
G36*
X70381Y-220952D02*
X62648Y-220952D01*
X62648Y-219612D01*
X65792Y-219612D01*
X65792Y-210118D01*
X63007Y-212106D01*
X63007Y-210617D01*
X65923Y-208611D01*
X67377Y-208611D01*
X67377Y-219612D01*
X70381Y-219612D01*
X70381Y-220952D01*
G37*
G36*
X35755Y-220952D02*
X27846Y-220952D01*
X27846Y-208611D01*
X29519Y-208611D01*
X29519Y-219586D01*
X35755Y-219586D01*
X35755Y-220952D01*
G37*
G36*
X54400Y259052D02*
X49784Y259052D01*
X49784Y271393D01*
X53865Y271393D01*
X54252Y271387D01*
X54627Y271368D01*
X54991Y271338D01*
X55344Y271295D01*
X55685Y271239D01*
X56016Y271172D01*
X56335Y271092D01*
X56643Y271000D01*
X56940Y270895D01*
X57225Y270779D01*
X57500Y270650D01*
X57763Y270508D01*
X58015Y270355D01*
X58256Y270189D01*
X58486Y270011D01*
X58705Y269821D01*
X58911Y269619D01*
X59104Y269407D01*
X59283Y269184D01*
X59450Y268952D01*
X59603Y268708D01*
X59743Y268455D01*
X59869Y268191D01*
X59982Y267917D01*
X60082Y267632D01*
X60168Y267337D01*
X60242Y267032D01*
X60302Y266716D01*
X60348Y266390D01*
X60381Y266053D01*
X60401Y265707D01*
X60408Y265349D01*
X60396Y264880D01*
X60362Y264425D01*
X60303Y263984D01*
X60222Y263559D01*
X60117Y263149D01*
X59989Y262754D01*
X59838Y262373D01*
X59664Y262008D01*
X59468Y261660D01*
X59252Y261334D01*
X59018Y261028D01*
X58764Y260743D01*
X58490Y260480D01*
X58197Y260237D01*
X57885Y260015D01*
X57553Y259814D01*
X57205Y259635D01*
X56843Y259481D01*
X56469Y259350D01*
X56081Y259242D01*
X55681Y259159D01*
X55267Y259100D01*
X54840Y259064D01*
X54400Y259052D01*
G37*
%LPC*%
G36*
X54207Y260392D02*
X54541Y260401D01*
X54865Y260429D01*
X55179Y260476D01*
X55482Y260541D01*
X55776Y260625D01*
X56059Y260727D01*
X56331Y260848D01*
X56594Y260988D01*
X56844Y261145D01*
X57078Y261318D01*
X57298Y261508D01*
X57503Y261715D01*
X57694Y261937D01*
X57869Y262177D01*
X58029Y262432D01*
X58175Y262704D01*
X58304Y262991D01*
X58416Y263290D01*
X58511Y263602D01*
X58588Y263926D01*
X58649Y264263D01*
X58692Y264613D01*
X58718Y264975D01*
X58726Y265349D01*
X58707Y265906D01*
X58648Y266429D01*
X58550Y266917D01*
X58412Y267372D01*
X58235Y267792D01*
X58019Y268178D01*
X57764Y268530D01*
X57470Y268848D01*
X57138Y269131D01*
X56771Y269375D01*
X56369Y269582D01*
X55931Y269752D01*
X55459Y269883D01*
X54951Y269977D01*
X54408Y270034D01*
X53830Y270053D01*
X51457Y270053D01*
X51457Y260392D01*
X54207Y260392D01*
G37*
%LPD*%
G36*
X47537Y259052D02*
X37815Y259052D01*
X37815Y271393D01*
X47178Y271393D01*
X47178Y270026D01*
X39488Y270026D01*
X39488Y266068D01*
X46653Y266068D01*
X46653Y264719D01*
X39488Y264719D01*
X39488Y260418D01*
X47537Y260418D01*
X47537Y259052D01*
G37*
G36*
X70355Y259052D02*
X62183Y259052D01*
X62183Y260164D01*
X62419Y260662D01*
X62679Y261129D01*
X62964Y261566D01*
X63274Y261973D01*
X63600Y262356D01*
X63934Y262720D01*
X64276Y263065D01*
X64627Y263392D01*
X65333Y264004D01*
X66033Y264570D01*
X66695Y265113D01*
X67290Y265656D01*
X67556Y265931D01*
X67797Y266212D01*
X68010Y266500D01*
X68196Y266795D01*
X68347Y267102D01*
X68456Y267430D01*
X68520Y267777D01*
X68542Y268143D01*
X68533Y268390D01*
X68505Y268623D01*
X68458Y268841D01*
X68393Y269045D01*
X68309Y269235D01*
X68207Y269411D01*
X68086Y269573D01*
X67947Y269720D01*
X67790Y269851D01*
X67620Y269965D01*
X67435Y270061D01*
X67235Y270140D01*
X67021Y270202D01*
X66792Y270245D01*
X66549Y270272D01*
X66291Y270280D01*
X66045Y270272D01*
X65810Y270246D01*
X65586Y270203D01*
X65373Y270144D01*
X65171Y270067D01*
X64980Y269973D01*
X64800Y269861D01*
X64631Y269733D01*
X64477Y269589D01*
X64339Y269432D01*
X64218Y269260D01*
X64114Y269075D01*
X64026Y268876D01*
X63956Y268663D01*
X63902Y268436D01*
X63865Y268196D01*
X62253Y268345D01*
X62311Y268705D01*
X62398Y269047D01*
X62512Y269370D01*
X62655Y269674D01*
X62827Y269959D01*
X63026Y270225D01*
X63254Y270472D01*
X63510Y270701D01*
X63790Y270906D01*
X64090Y271084D01*
X64408Y271235D01*
X64746Y271358D01*
X65104Y271454D01*
X65480Y271522D01*
X65876Y271563D01*
X66291Y271577D01*
X66744Y271563D01*
X67170Y271522D01*
X67569Y271453D01*
X67941Y271357D01*
X68286Y271233D01*
X68604Y271082D01*
X68895Y270903D01*
X69160Y270696D01*
X69395Y270465D01*
X69598Y270210D01*
X69771Y269932D01*
X69912Y269631D01*
X70021Y269307D01*
X70100Y268960D01*
X70147Y268589D01*
X70162Y268196D01*
X70142Y267837D01*
X70080Y267480D01*
X69978Y267124D01*
X69834Y266768D01*
X69650Y266414D01*
X69426Y266059D01*
X69161Y265704D01*
X68857Y265349D01*
X68459Y264946D01*
X67914Y264445D01*
X67220Y263847D01*
X66379Y263151D01*
X65901Y262749D01*
X65474Y262368D01*
X65099Y262007D01*
X64776Y261666D01*
X64499Y261339D01*
X64264Y261017D01*
X64070Y260702D01*
X63918Y260392D01*
X70355Y260392D01*
X70355Y259052D01*
G37*
G36*
X35755Y259052D02*
X27846Y259052D01*
X27846Y271393D01*
X29519Y271393D01*
X29519Y260418D01*
X35755Y260418D01*
X35755Y259052D01*
G37*
D10*
X-74331Y-15303D02*
X-74600Y-15303D01*
X-43573Y-99515D02*
X14080Y-41861D01*
X-43573Y-99515D02*
X11925Y-155013D01*
X69578Y-97359D01*
X14080Y-41861D01*
D11*
X69013Y-77037D02*
X68928Y-76949D01*
X68846Y-76859D01*
X68767Y-76766D01*
X68691Y-76670D01*
X68617Y-76573D01*
X68548Y-76472D01*
X68481Y-76370D01*
X68418Y-76266D01*
X68358Y-76159D01*
X68301Y-76051D01*
X68248Y-75941D01*
X68199Y-75829D01*
X68153Y-75716D01*
X68111Y-75601D01*
X68072Y-75485D01*
X68038Y-75368D01*
X68007Y-75250D01*
X67979Y-75131D01*
X67956Y-75011D01*
X67937Y-74891D01*
X67921Y-74770D01*
X67909Y-74648D01*
X67901Y-74526D01*
X67897Y-74404D01*
X67897Y-74282D01*
X67901Y-74160D01*
X67909Y-74038D01*
X67921Y-73916D01*
X67937Y-73795D01*
X67956Y-73675D01*
X67979Y-73555D01*
X68007Y-73436D01*
X68038Y-73318D01*
X68072Y-73201D01*
X68111Y-73085D01*
X68153Y-72970D01*
X68199Y-72857D01*
X68248Y-72745D01*
X68301Y-72635D01*
X68358Y-72527D01*
X68418Y-72420D01*
X68481Y-72316D01*
X68548Y-72214D01*
X68617Y-72113D01*
X68691Y-72016D01*
X68767Y-71920D01*
X68846Y-71827D01*
X68928Y-71737D01*
X69013Y-71649D01*
X69101Y-71564D01*
X69191Y-71482D01*
X69284Y-71403D01*
X69380Y-71327D01*
X69477Y-71253D01*
X69578Y-71184D01*
X69680Y-71117D01*
X69784Y-71054D01*
X69891Y-70994D01*
X69999Y-70937D01*
X70109Y-70884D01*
X70221Y-70835D01*
X70334Y-70789D01*
X70449Y-70747D01*
X70565Y-70708D01*
X70682Y-70674D01*
X70800Y-70643D01*
X70919Y-70615D01*
X71039Y-70592D01*
X71159Y-70573D01*
X71280Y-70557D01*
X71402Y-70545D01*
X71524Y-70537D01*
X71646Y-70533D01*
X71768Y-70533D01*
X71890Y-70537D01*
X72012Y-70545D01*
X72134Y-70557D01*
X72255Y-70573D01*
X72375Y-70592D01*
X72495Y-70615D01*
X72614Y-70643D01*
X72732Y-70674D01*
X72849Y-70708D01*
X72965Y-70747D01*
X73080Y-70789D01*
X73193Y-70835D01*
X73305Y-70884D01*
X73415Y-70937D01*
X73523Y-70994D01*
X73630Y-71054D01*
X73734Y-71117D01*
X73836Y-71184D01*
X73937Y-71253D01*
X74034Y-71327D01*
X74130Y-71403D01*
X74223Y-71482D01*
X74313Y-71564D01*
X74401Y-71649D01*
X74486Y-71737D01*
X74568Y-71827D01*
X74647Y-71920D01*
X74723Y-72016D01*
X74797Y-72113D01*
X74866Y-72214D01*
X74933Y-72316D01*
X74996Y-72420D01*
X75056Y-72527D01*
X75113Y-72635D01*
X75166Y-72745D01*
X75215Y-72857D01*
X75261Y-72970D01*
X75303Y-73085D01*
X75342Y-73201D01*
X75376Y-73318D01*
X75407Y-73436D01*
X75435Y-73555D01*
X75458Y-73675D01*
X75477Y-73795D01*
X75493Y-73916D01*
X75505Y-74038D01*
X75513Y-74160D01*
X75517Y-74282D01*
X75517Y-74404D01*
X75513Y-74526D01*
X75505Y-74648D01*
X75493Y-74770D01*
X75477Y-74891D01*
X75458Y-75011D01*
X75435Y-75131D01*
X75407Y-75250D01*
X75376Y-75368D01*
X75342Y-75485D01*
X75303Y-75601D01*
X75261Y-75716D01*
X75215Y-75829D01*
X75166Y-75941D01*
X75113Y-76051D01*
X75056Y-76159D01*
X74996Y-76266D01*
X74933Y-76370D01*
X74866Y-76472D01*
X74797Y-76573D01*
X74723Y-76670D01*
X74647Y-76766D01*
X74568Y-76859D01*
X74486Y-76949D01*
X74401Y-77037D01*
X74313Y-77122D01*
X74223Y-77204D01*
X74130Y-77283D01*
X74034Y-77359D01*
X73937Y-77433D01*
X73836Y-77502D01*
X73734Y-77569D01*
X73630Y-77632D01*
X73523Y-77692D01*
X73415Y-77749D01*
X73305Y-77802D01*
X73193Y-77851D01*
X73080Y-77897D01*
X72965Y-77939D01*
X72849Y-77978D01*
X72732Y-78012D01*
X72614Y-78043D01*
X72495Y-78071D01*
X72375Y-78094D01*
X72255Y-78113D01*
X72134Y-78129D01*
X72012Y-78141D01*
X71890Y-78149D01*
X71768Y-78153D01*
X71646Y-78153D01*
X71524Y-78149D01*
X71402Y-78141D01*
X71280Y-78129D01*
X71159Y-78113D01*
X71039Y-78094D01*
X70919Y-78071D01*
X70800Y-78043D01*
X70682Y-78012D01*
X70565Y-77978D01*
X70449Y-77939D01*
X70334Y-77897D01*
X70221Y-77851D01*
X70109Y-77802D01*
X69999Y-77749D01*
X69891Y-77692D01*
X69784Y-77632D01*
X69680Y-77569D01*
X69578Y-77502D01*
X69477Y-77433D01*
X69380Y-77359D01*
X69284Y-77283D01*
X69191Y-77204D01*
X69101Y-77122D01*
X69013Y-77037D01*
D10*
X-14080Y41861D02*
X43573Y99515D01*
X-11925Y155013D01*
X-69578Y97359D01*
X-14080Y41861D01*
D11*
X-69013Y77037D02*
X-68928Y76949D01*
X-68846Y76859D01*
X-68767Y76766D01*
X-68691Y76670D01*
X-68617Y76573D01*
X-68548Y76472D01*
X-68481Y76370D01*
X-68418Y76266D01*
X-68358Y76159D01*
X-68301Y76051D01*
X-68248Y75941D01*
X-68199Y75829D01*
X-68153Y75716D01*
X-68111Y75601D01*
X-68072Y75485D01*
X-68038Y75368D01*
X-68007Y75250D01*
X-67979Y75131D01*
X-67956Y75011D01*
X-67937Y74891D01*
X-67921Y74770D01*
X-67909Y74648D01*
X-67901Y74526D01*
X-67897Y74404D01*
X-67897Y74282D01*
X-67901Y74160D01*
X-67909Y74038D01*
X-67921Y73916D01*
X-67937Y73795D01*
X-67956Y73675D01*
X-67979Y73555D01*
X-68007Y73436D01*
X-68038Y73318D01*
X-68072Y73201D01*
X-68111Y73085D01*
X-68153Y72970D01*
X-68199Y72857D01*
X-68248Y72745D01*
X-68301Y72635D01*
X-68358Y72527D01*
X-68418Y72420D01*
X-68481Y72316D01*
X-68548Y72214D01*
X-68617Y72113D01*
X-68691Y72016D01*
X-68767Y71920D01*
X-68846Y71827D01*
X-68928Y71737D01*
X-69013Y71649D01*
X-69101Y71564D01*
X-69191Y71482D01*
X-69284Y71403D01*
X-69380Y71327D01*
X-69477Y71253D01*
X-69578Y71184D01*
X-69680Y71117D01*
X-69784Y71054D01*
X-69891Y70994D01*
X-69999Y70937D01*
X-70109Y70884D01*
X-70221Y70835D01*
X-70334Y70789D01*
X-70449Y70747D01*
X-70565Y70708D01*
X-70682Y70674D01*
X-70800Y70643D01*
X-70919Y70615D01*
X-71039Y70592D01*
X-71159Y70573D01*
X-71280Y70557D01*
X-71402Y70545D01*
X-71524Y70537D01*
X-71646Y70533D01*
X-71768Y70533D01*
X-71890Y70537D01*
X-72012Y70545D01*
X-72134Y70557D01*
X-72255Y70573D01*
X-72375Y70592D01*
X-72495Y70615D01*
X-72614Y70643D01*
X-72732Y70674D01*
X-72849Y70708D01*
X-72965Y70747D01*
X-73080Y70789D01*
X-73193Y70835D01*
X-73305Y70884D01*
X-73415Y70937D01*
X-73523Y70994D01*
X-73630Y71054D01*
X-73734Y71117D01*
X-73836Y71184D01*
X-73937Y71253D01*
X-74034Y71327D01*
X-74130Y71403D01*
X-74223Y71482D01*
X-74313Y71564D01*
X-74401Y71649D01*
X-74486Y71737D01*
X-74568Y71827D01*
X-74647Y71920D01*
X-74723Y72016D01*
X-74797Y72113D01*
X-74866Y72214D01*
X-74933Y72316D01*
X-74996Y72420D01*
X-75056Y72527D01*
X-75113Y72635D01*
X-75166Y72745D01*
X-75215Y72857D01*
X-75261Y72970D01*
X-75303Y73085D01*
X-75342Y73201D01*
X-75376Y73318D01*
X-75407Y73436D01*
X-75435Y73555D01*
X-75458Y73675D01*
X-75477Y73795D01*
X-75493Y73916D01*
X-75505Y74038D01*
X-75513Y74160D01*
X-75517Y74282D01*
X-75517Y74404D01*
X-75513Y74526D01*
X-75505Y74648D01*
X-75493Y74770D01*
X-75477Y74891D01*
X-75458Y75011D01*
X-75435Y75131D01*
X-75407Y75250D01*
X-75376Y75368D01*
X-75342Y75485D01*
X-75303Y75601D01*
X-75261Y75716D01*
X-75215Y75829D01*
X-75166Y75941D01*
X-75113Y76051D01*
X-75056Y76159D01*
X-74996Y76266D01*
X-74933Y76370D01*
X-74866Y76472D01*
X-74797Y76573D01*
X-74723Y76670D01*
X-74647Y76766D01*
X-74568Y76859D01*
X-74486Y76949D01*
X-74401Y77037D01*
X-74313Y77122D01*
X-74223Y77204D01*
X-74130Y77283D01*
X-74034Y77359D01*
X-73937Y77433D01*
X-73836Y77502D01*
X-73734Y77569D01*
X-73630Y77632D01*
X-73523Y77692D01*
X-73415Y77749D01*
X-73305Y77802D01*
X-73193Y77851D01*
X-73080Y77897D01*
X-72965Y77939D01*
X-72849Y77978D01*
X-72732Y78012D01*
X-72614Y78043D01*
X-72495Y78071D01*
X-72375Y78094D01*
X-72255Y78113D01*
X-72134Y78129D01*
X-72012Y78141D01*
X-71890Y78149D01*
X-71768Y78153D01*
X-71646Y78153D01*
X-71524Y78149D01*
X-71402Y78141D01*
X-71280Y78129D01*
X-71159Y78113D01*
X-71039Y78094D01*
X-70919Y78071D01*
X-70800Y78043D01*
X-70682Y78012D01*
X-70565Y77978D01*
X-70449Y77939D01*
X-70334Y77897D01*
X-70221Y77851D01*
X-70109Y77802D01*
X-69999Y77749D01*
X-69891Y77692D01*
X-69784Y77632D01*
X-69680Y77569D01*
X-69578Y77502D01*
X-69477Y77433D01*
X-69380Y77359D01*
X-69284Y77283D01*
X-69191Y77204D01*
X-69101Y77122D01*
X-69013Y77037D01*
D10*
X-31229Y-240002D02*
X-31220Y-239241D01*
X-31192Y-238481D01*
X-31146Y-237721D01*
X-31081Y-236963D01*
X-30998Y-236207D01*
X-30896Y-235453D01*
X-30776Y-234702D01*
X-30638Y-233954D01*
X-30482Y-233209D01*
X-30307Y-232468D01*
X-30115Y-231732D01*
X-29904Y-231001D01*
X-29676Y-230275D01*
X-29431Y-229555D01*
X-29168Y-228841D01*
X-28887Y-228134D01*
X-28590Y-227434D01*
X-28275Y-226741D01*
X-27944Y-226056D01*
X-27596Y-225380D01*
X-27232Y-224712D01*
X-26851Y-224053D01*
X-26455Y-223403D01*
X-26043Y-222764D01*
X-25615Y-222134D01*
X-25173Y-221516D01*
X-24715Y-220908D01*
X-24243Y-220311D01*
X-23756Y-219726D01*
X-23255Y-219154D01*
X-22741Y-218593D01*
X-22213Y-218045D01*
X-21671Y-217511D01*
X-21117Y-216989D01*
X-20551Y-216482D01*
X-19972Y-215988D01*
X-19381Y-215508D01*
X-18779Y-215043D01*
X-18165Y-214593D01*
X-17541Y-214158D01*
X-16907Y-213738D01*
X-16262Y-213334D01*
X-15608Y-212946D01*
X-14945Y-212573D01*
X-14272Y-212217D01*
X-13591Y-211878D01*
X-12902Y-211555D01*
X-12206Y-211249D01*
X-11502Y-210960D01*
X-10791Y-210688D01*
X-10074Y-210433D01*
X-9351Y-210196D01*
X-8623Y-209977D01*
X-7889Y-209776D01*
X-7151Y-209592D01*
X-6408Y-209427D01*
X-5662Y-209280D01*
X-4912Y-209151D01*
X-4159Y-209040D01*
X-3404Y-208947D01*
X-2647Y-208873D01*
X-1888Y-208818D01*
X-1128Y-208781D01*
X-367Y-208762D01*
X393Y-208762D01*
X1154Y-208781D01*
X1914Y-208818D01*
X2673Y-208873D01*
X3430Y-208947D01*
X4185Y-209040D01*
X4938Y-209151D01*
X5688Y-209280D01*
X6434Y-209427D01*
X7177Y-209592D01*
X7915Y-209776D01*
X8649Y-209977D01*
X9377Y-210196D01*
X10100Y-210433D01*
X10817Y-210688D01*
X11528Y-210960D01*
X12232Y-211249D01*
X12928Y-211555D01*
X13617Y-211878D01*
X14298Y-212217D01*
X14971Y-212573D01*
X15634Y-212946D01*
X16288Y-213334D01*
X16933Y-213738D01*
X17567Y-214158D01*
X18191Y-214593D01*
X18805Y-215043D01*
X19407Y-215508D01*
X19998Y-215988D01*
X20577Y-216482D01*
X21143Y-216989D01*
X21697Y-217511D01*
X22239Y-218045D01*
X22767Y-218593D01*
X23281Y-219154D01*
X23782Y-219726D01*
X24269Y-220311D01*
X24741Y-220908D01*
X25199Y-221516D01*
X25641Y-222134D01*
X26069Y-222764D01*
X26481Y-223403D01*
X26877Y-224053D01*
X27258Y-224712D01*
X27622Y-225380D01*
X27970Y-226056D01*
X28301Y-226741D01*
X28616Y-227434D01*
X28913Y-228134D01*
X29194Y-228841D01*
X29457Y-229555D01*
X29702Y-230275D01*
X29930Y-231001D01*
X30141Y-231732D01*
X30333Y-232468D01*
X30508Y-233209D01*
X30664Y-233954D01*
X30802Y-234702D01*
X30922Y-235453D01*
X31024Y-236207D01*
X31107Y-236963D01*
X31172Y-237721D01*
X31218Y-238481D01*
X31246Y-239241D01*
X31255Y-240002D01*
X31246Y-240763D01*
X31218Y-241523D01*
X31172Y-242283D01*
X31107Y-243041D01*
X31024Y-243797D01*
X30922Y-244551D01*
X30802Y-245302D01*
X30664Y-246050D01*
X30508Y-246795D01*
X30333Y-247536D01*
X30141Y-248272D01*
X29930Y-249003D01*
X29702Y-249729D01*
X29457Y-250449D01*
X29194Y-251163D01*
X28913Y-251870D01*
X28616Y-252570D01*
X28301Y-253263D01*
X27970Y-253948D01*
X27622Y-254624D01*
X27258Y-255292D01*
X26877Y-255951D01*
X26481Y-256601D01*
X26069Y-257240D01*
X25641Y-257870D01*
X25199Y-258488D01*
X24741Y-259096D01*
X24269Y-259693D01*
X23782Y-260278D01*
X23281Y-260850D01*
X22767Y-261411D01*
X22239Y-261959D01*
X21697Y-262493D01*
X21143Y-263015D01*
X20577Y-263522D01*
X19998Y-264016D01*
X19407Y-264496D01*
X18805Y-264961D01*
X18191Y-265411D01*
X17567Y-265846D01*
X16933Y-266266D01*
X16288Y-266670D01*
X15634Y-267058D01*
X14971Y-267431D01*
X14298Y-267787D01*
X13617Y-268126D01*
X12928Y-268449D01*
X12232Y-268755D01*
X11528Y-269044D01*
X10817Y-269316D01*
X10100Y-269571D01*
X9377Y-269808D01*
X8649Y-270027D01*
X7915Y-270228D01*
X7177Y-270412D01*
X6434Y-270577D01*
X5688Y-270724D01*
X4938Y-270853D01*
X4185Y-270964D01*
X3430Y-271057D01*
X2673Y-271131D01*
X1914Y-271186D01*
X1154Y-271223D01*
X393Y-271242D01*
X-367Y-271242D01*
X-1128Y-271223D01*
X-1888Y-271186D01*
X-2647Y-271131D01*
X-3404Y-271057D01*
X-4159Y-270964D01*
X-4912Y-270853D01*
X-5662Y-270724D01*
X-6408Y-270577D01*
X-7151Y-270412D01*
X-7889Y-270228D01*
X-8623Y-270027D01*
X-9351Y-269808D01*
X-10074Y-269571D01*
X-10791Y-269316D01*
X-11502Y-269044D01*
X-12206Y-268755D01*
X-12902Y-268449D01*
X-13591Y-268126D01*
X-14272Y-267787D01*
X-14945Y-267431D01*
X-15608Y-267058D01*
X-16262Y-266670D01*
X-16907Y-266266D01*
X-17541Y-265846D01*
X-18165Y-265411D01*
X-18779Y-264961D01*
X-19381Y-264496D01*
X-19972Y-264016D01*
X-20551Y-263522D01*
X-21117Y-263015D01*
X-21671Y-262493D01*
X-22213Y-261959D01*
X-22741Y-261411D01*
X-23255Y-260850D01*
X-23756Y-260278D01*
X-24243Y-259693D01*
X-24715Y-259096D01*
X-25173Y-258488D01*
X-25615Y-257870D01*
X-26043Y-257240D01*
X-26455Y-256601D01*
X-26851Y-255951D01*
X-27232Y-255292D01*
X-27596Y-254624D01*
X-27944Y-253948D01*
X-28275Y-253263D01*
X-28590Y-252570D01*
X-28887Y-251870D01*
X-29168Y-251163D01*
X-29431Y-250449D01*
X-29676Y-249729D01*
X-29904Y-249003D01*
X-30115Y-248272D01*
X-30307Y-247536D01*
X-30482Y-246795D01*
X-30638Y-246050D01*
X-30776Y-245302D01*
X-30896Y-244551D01*
X-30998Y-243797D01*
X-31081Y-243041D01*
X-31146Y-242283D01*
X-31192Y-241523D01*
X-31220Y-240763D01*
X-31229Y-240002D01*
D12*
X44313Y-252702D02*
X57013Y-240002D01*
X44313Y-227302D01*
X57013Y-252702D02*
X69713Y-240002D01*
X57013Y-227302D01*
X-44587Y-240002D02*
X-57287Y-252702D01*
X-44587Y-240002D02*
X-57287Y-227302D01*
X-57287Y-240002D02*
X-69987Y-252702D01*
X-57287Y-240002D02*
X-69987Y-227302D01*
X44313Y-252702D02*
X57013Y-252702D01*
X57013Y-227302D02*
X44313Y-227302D01*
X-57287Y-252702D02*
X-69987Y-252702D01*
X-69987Y-227302D02*
X-57287Y-227302D01*
X-19187Y-227302D02*
X-19187Y-220952D01*
X-6487Y-227302D02*
X-6487Y-214602D01*
X18913Y-214602D02*
X18913Y-227302D01*
X6313Y-227121D02*
X6313Y-201902D01*
D10*
X31255Y240002D02*
X31246Y240763D01*
X31218Y241523D01*
X31172Y242283D01*
X31107Y243041D01*
X31024Y243797D01*
X30922Y244551D01*
X30802Y245302D01*
X30664Y246050D01*
X30508Y246795D01*
X30333Y247536D01*
X30141Y248272D01*
X29930Y249003D01*
X29702Y249729D01*
X29457Y250449D01*
X29194Y251163D01*
X28913Y251870D01*
X28616Y252570D01*
X28301Y253263D01*
X27970Y253948D01*
X27622Y254624D01*
X27258Y255292D01*
X26877Y255951D01*
X26481Y256601D01*
X26069Y257240D01*
X25641Y257870D01*
X25199Y258488D01*
X24741Y259096D01*
X24269Y259693D01*
X23782Y260278D01*
X23281Y260850D01*
X22767Y261411D01*
X22239Y261959D01*
X21697Y262493D01*
X21143Y263015D01*
X20577Y263522D01*
X19998Y264016D01*
X19407Y264496D01*
X18805Y264961D01*
X18191Y265411D01*
X17567Y265846D01*
X16933Y266266D01*
X16288Y266670D01*
X15634Y267058D01*
X14971Y267431D01*
X14298Y267787D01*
X13617Y268126D01*
X12928Y268449D01*
X12232Y268755D01*
X11528Y269044D01*
X10817Y269316D01*
X10100Y269571D01*
X9377Y269808D01*
X8649Y270027D01*
X7915Y270228D01*
X7177Y270412D01*
X6434Y270577D01*
X5688Y270724D01*
X4938Y270853D01*
X4185Y270964D01*
X3430Y271057D01*
X2673Y271131D01*
X1914Y271186D01*
X1154Y271223D01*
X393Y271242D01*
X-367Y271242D01*
X-1128Y271223D01*
X-1888Y271186D01*
X-2647Y271131D01*
X-3404Y271057D01*
X-4159Y270964D01*
X-4912Y270853D01*
X-5662Y270724D01*
X-6408Y270577D01*
X-7151Y270412D01*
X-7889Y270228D01*
X-8623Y270027D01*
X-9351Y269808D01*
X-10074Y269571D01*
X-10791Y269316D01*
X-11502Y269044D01*
X-12206Y268755D01*
X-12902Y268449D01*
X-13591Y268126D01*
X-14272Y267787D01*
X-14945Y267431D01*
X-15608Y267058D01*
X-16262Y266670D01*
X-16907Y266266D01*
X-17541Y265846D01*
X-18165Y265411D01*
X-18779Y264961D01*
X-19381Y264496D01*
X-19972Y264016D01*
X-20551Y263522D01*
X-21117Y263015D01*
X-21671Y262493D01*
X-22213Y261959D01*
X-22741Y261411D01*
X-23255Y260850D01*
X-23756Y260278D01*
X-24243Y259693D01*
X-24715Y259096D01*
X-25173Y258488D01*
X-25615Y257870D01*
X-26043Y257240D01*
X-26455Y256601D01*
X-26851Y255951D01*
X-27232Y255292D01*
X-27596Y254624D01*
X-27944Y253948D01*
X-28275Y253263D01*
X-28590Y252570D01*
X-28887Y251870D01*
X-29168Y251163D01*
X-29431Y250449D01*
X-29676Y249729D01*
X-29904Y249003D01*
X-30115Y248272D01*
X-30307Y247536D01*
X-30482Y246795D01*
X-30638Y246050D01*
X-30776Y245302D01*
X-30896Y244551D01*
X-30998Y243797D01*
X-31081Y243041D01*
X-31146Y242283D01*
X-31192Y241523D01*
X-31220Y240763D01*
X-31229Y240002D01*
X-31220Y239241D01*
X-31192Y238481D01*
X-31146Y237721D01*
X-31081Y236963D01*
X-30998Y236207D01*
X-30896Y235453D01*
X-30776Y234702D01*
X-30638Y233954D01*
X-30482Y233209D01*
X-30307Y232468D01*
X-30115Y231732D01*
X-29904Y231001D01*
X-29676Y230275D01*
X-29431Y229555D01*
X-29168Y228841D01*
X-28887Y228134D01*
X-28590Y227434D01*
X-28275Y226741D01*
X-27944Y226056D01*
X-27596Y225380D01*
X-27232Y224712D01*
X-26851Y224053D01*
X-26455Y223403D01*
X-26043Y222764D01*
X-25615Y222134D01*
X-25173Y221516D01*
X-24715Y220908D01*
X-24243Y220311D01*
X-23756Y219726D01*
X-23255Y219154D01*
X-22741Y218593D01*
X-22213Y218045D01*
X-21671Y217511D01*
X-21117Y216989D01*
X-20551Y216482D01*
X-19972Y215988D01*
X-19381Y215508D01*
X-18779Y215043D01*
X-18165Y214593D01*
X-17541Y214158D01*
X-16907Y213738D01*
X-16262Y213334D01*
X-15608Y212946D01*
X-14945Y212573D01*
X-14272Y212217D01*
X-13591Y211878D01*
X-12902Y211555D01*
X-12206Y211249D01*
X-11502Y210960D01*
X-10791Y210688D01*
X-10074Y210433D01*
X-9351Y210196D01*
X-8623Y209977D01*
X-7889Y209776D01*
X-7151Y209592D01*
X-6408Y209427D01*
X-5662Y209280D01*
X-4912Y209151D01*
X-4159Y209040D01*
X-3404Y208947D01*
X-2647Y208873D01*
X-1888Y208818D01*
X-1128Y208781D01*
X-367Y208762D01*
X393Y208762D01*
X1154Y208781D01*
X1914Y208818D01*
X2673Y208873D01*
X3430Y208947D01*
X4185Y209040D01*
X4938Y209151D01*
X5688Y209280D01*
X6434Y209427D01*
X7177Y209592D01*
X7915Y209776D01*
X8649Y209977D01*
X9377Y210196D01*
X10100Y210433D01*
X10817Y210688D01*
X11528Y210960D01*
X12232Y211249D01*
X12928Y211555D01*
X13617Y211878D01*
X14298Y212217D01*
X14971Y212573D01*
X15634Y212946D01*
X16288Y213334D01*
X16933Y213738D01*
X17567Y214158D01*
X18191Y214593D01*
X18805Y215043D01*
X19407Y215508D01*
X19998Y215988D01*
X20577Y216482D01*
X21143Y216989D01*
X21697Y217511D01*
X22239Y218045D01*
X22767Y218593D01*
X23281Y219154D01*
X23782Y219726D01*
X24269Y220311D01*
X24741Y220908D01*
X25199Y221516D01*
X25641Y222134D01*
X26069Y222764D01*
X26481Y223403D01*
X26877Y224053D01*
X27258Y224712D01*
X27622Y225380D01*
X27970Y226056D01*
X28301Y226741D01*
X28616Y227434D01*
X28913Y228134D01*
X29194Y228841D01*
X29457Y229555D01*
X29702Y230275D01*
X29930Y231001D01*
X30141Y231732D01*
X30333Y232468D01*
X30508Y233209D01*
X30664Y233954D01*
X30802Y234702D01*
X30922Y235453D01*
X31024Y236207D01*
X31107Y236963D01*
X31172Y237721D01*
X31218Y238481D01*
X31246Y239241D01*
X31255Y240002D01*
D12*
X44313Y227302D02*
X57013Y240002D01*
X44313Y252702D01*
X57013Y227302D02*
X69713Y240002D01*
X57013Y252702D01*
X-44587Y240002D02*
X-57287Y227302D01*
X-44587Y240002D02*
X-57287Y252702D01*
X-57287Y240002D02*
X-69987Y227302D01*
X-57287Y240002D02*
X-69987Y252702D01*
X44313Y227302D02*
X57013Y227302D01*
X57013Y252702D02*
X44313Y252702D01*
X-57287Y227302D02*
X-69987Y227302D01*
X-69987Y252702D02*
X-57287Y252702D01*
X-19187Y252702D02*
X-19187Y259052D01*
X-6487Y252702D02*
X-6487Y265402D01*
X18913Y265402D02*
X18913Y252702D01*
X6313Y252883D02*
X6313Y278102D01*
M02*
